<svg width="31" height="31" viewBox="0 0 31 31" fill="none" xmlns="http://www.w3.org/2000/svg">
<g clip-path="url(#clip0)">
<path d="M24.9559 29.3644C24.7137 29.3644 24.4732 29.2927 24.2669 29.1528L16.4723 23.8655L12.2917 26.8737C11.9638 27.1095 11.5412 27.1689 11.1605 27.0327C10.7802 26.8963 10.4915 26.5813 10.3884 26.1908L8.28925 18.2357L0.788801 15.3677C0.316617 15.1871 0.0034644 14.7354 2.85514e-05 14.2298C-0.00340729 13.7242 0.303528 13.2682 0.773421 13.0812L29.2929 1.73313C29.4223 1.67816 29.5593 1.64642 29.6973 1.63791C29.7468 1.63497 29.7963 1.63497 29.8456 1.63775C30.1316 1.65476 30.4125 1.77125 30.6317 1.98624C30.6545 2.00849 30.6761 2.03123 30.6965 2.05496C30.8781 2.26242 30.9779 2.51536 30.9968 2.77305C31.0013 2.83784 31.001 2.90345 30.9953 2.96906C30.9914 3.01585 30.9846 3.06248 30.9752 3.10878L26.1612 28.367C26.0838 28.7727 25.8076 29.1124 25.4261 29.2706C25.2748 29.3334 25.1149 29.3644 24.9559 29.3644ZM17.1567 21.3642L24.0999 26.0738L27.8456 6.42012L14.317 19.438L17.124 21.3422C17.1352 21.3492 17.146 21.3567 17.1567 21.3642ZM11.3768 20.317L12.3064 23.8395L14.3093 22.3983L11.6866 20.6192C11.5648 20.5367 11.4604 20.4339 11.3768 20.317ZM4.60341 14.1985L9.75358 16.1676C10.1225 16.3086 10.401 16.6188 10.5018 17.0007L11.1549 19.476C11.1849 19.1905 11.3143 18.9218 11.5245 18.7195L24.4153 6.3154L4.60341 14.1985Z" fill="#501E50"/>
</g>
<defs>
<clipPath id="clip0">
<rect width="31" height="31" fill="white"/>
</clipPath>
</defs>
</svg>
