<svg width="64" height="64" viewBox="0 0 64 64" fill="none" xmlns="http://www.w3.org/2000/svg">
<path d="M56 32.2627C56.6904 32.2627 57.25 31.7031 57.25 31.0128V11.25C57.25 7.80375 54.4463 5 51 5H42.5276C41.9036 4.202 40.933 3.6875 39.8438 3.6875H37.8105C36.8156 1.47575 34.5928 0 32.1096 0H31.8902C29.4071 0 27.1844 1.47575 26.1895 3.6875H24.1562C23.067 3.6875 22.0964 4.202 21.4724 5H13C9.55375 5 6.75 7.80375 6.75 11.25V57.75C6.75 61.1963 9.55375 64 13 64H51C54.4463 64 57.25 61.1963 57.25 57.75V41.4921C57.25 40.8018 56.6904 40.2421 56 40.2421C55.3096 40.2421 54.75 40.8018 54.75 41.4921V57.75C54.75 59.8177 53.0677 61.5 51 61.5H13C10.9323 61.5 9.25 59.8177 9.25 57.75V11.25C9.25 9.18225 10.9323 7.5 13 7.5H20.75V10H14.25C12.8715 10 11.75 11.1215 11.75 12.5V56.5C11.75 57.8785 12.8715 59 14.25 59H49.75C51.1285 59 52.25 57.8785 52.25 56.5V12.5C52.25 11.1215 51.1285 10 49.75 10H43.25V7.5H51C53.0677 7.5 54.75 9.18225 54.75 11.25V31.0128C54.75 31.7031 55.3096 32.2627 56 32.2627ZM23.25 7.09375C23.25 6.594 23.6565 6.1875 24.1562 6.1875H27.0656C27.6299 6.1875 28.1241 5.8095 28.272 5.265C28.7139 3.637 30.2017 2.5 31.8904 2.5H32.1097C33.7982 2.5 35.2863 3.637 35.7281 5.265C35.876 5.8095 36.3703 6.1875 36.9345 6.1875H39.8439C40.3436 6.1875 40.7501 6.594 40.7501 7.09375V10H23.25V7.09375ZM49.75 12.5L49.7516 56.5C49.7516 56.5 49.7511 56.5 49.75 56.5H14.25V12.5H22H42H49.75Z" fill="#501E50"/>
<path d="M56.8838 35.4786C56.6513 35.2461 56.3288 35.1123 56 35.1123C55.6712 35.1123 55.3487 35.2461 55.1162 35.4786C54.8837 35.7111 54.75 36.0336 54.75 36.3623C54.75 36.6923 54.8837 37.0136 55.1162 37.2461C55.3487 37.4798 55.6712 37.6123 56 37.6123C56.3288 37.6123 56.6513 37.4798 56.8838 37.2461C57.1163 37.0136 57.25 36.6923 57.25 36.3623C57.25 36.0336 57.1163 35.7123 56.8838 35.4786Z" fill="#501E50"/>
<path d="M33.7588 22.3662C33.5263 22.1337 33.2038 22 32.875 22C32.5462 22 32.2237 22.1337 31.9912 22.3662C31.7587 22.5987 31.625 22.9212 31.625 23.25C31.625 23.5788 31.7587 23.9013 31.9912 24.1338C32.2237 24.3663 32.5462 24.5 32.875 24.5C33.2038 24.5 33.5263 24.3663 33.7588 24.1338C33.9913 23.9013 34.125 23.5788 34.125 23.25C34.125 22.9212 33.9913 22.5987 33.7588 22.3662Z" fill="#501E50"/>
<path d="M45.8105 22H38.375C37.6846 22 37.125 22.5596 37.125 23.25C37.125 23.9404 37.6846 24.5 38.375 24.5H45.8105C46.5009 24.5 47.0605 23.9404 47.0605 23.25C47.0605 22.5596 46.5009 22 45.8105 22Z" fill="#501E50"/>
<path d="M45.8105 35.5H32.875C32.1846 35.5 31.625 36.0596 31.625 36.75C31.625 37.4404 32.1846 38 32.875 38H45.8105C46.5009 38 47.0605 37.4404 47.0605 36.75C47.0605 36.0596 46.5009 35.5 45.8105 35.5Z" fill="#501E50"/>
<path d="M45.8105 49H32.875C32.1846 49 31.625 49.5596 31.625 50.25C31.625 50.9404 32.1846 51.5 32.875 51.5H45.8105C46.5009 51.5 47.0605 50.9404 47.0605 50.25C47.0605 49.5596 46.5009 49 45.8105 49Z" fill="#501E50"/>
<path d="M25 22H20.25V17.25C20.25 16.5596 19.6904 16 19 16C18.3096 16 17.75 16.5596 17.75 17.25V23.25C17.75 23.9404 18.3096 24.5 19 24.5H25C25.6904 24.5 26.25 23.9404 26.25 23.25C26.25 22.5596 25.6904 22 25 22Z" fill="#501E50"/>
<path d="M27.6282 15.9642C27.1402 15.4761 26.3487 15.4761 25.8606 15.9642L24.1371 17.6877L23.9909 17.5416C23.5028 17.0535 22.7113 17.0535 22.2231 17.5416C21.7348 18.0297 21.7349 18.8212 22.2231 19.3095L23.2531 20.3395C23.4972 20.5836 23.8171 20.7056 24.1369 20.7056C24.4568 20.7056 24.7768 20.5836 25.0208 20.3395L27.6282 17.7321C28.1163 17.244 28.1163 16.4525 27.6282 15.9642Z" fill="#501E50"/>
<path d="M25 35.4634H20.25V30.7134C20.25 30.023 19.6904 29.4634 19 29.4634C18.3096 29.4634 17.75 30.023 17.75 30.7134V36.7134C17.75 37.4038 18.3096 37.9634 19 37.9634H25C25.6904 37.9634 26.25 37.4038 26.25 36.7134C26.25 36.023 25.6904 35.4634 25 35.4634Z" fill="#501E50"/>
<path d="M27.6282 29.4281C27.1402 28.94 26.3487 28.94 25.8606 29.4281L24.1371 31.1516L23.9909 31.0055C23.5028 30.5174 22.7113 30.5174 22.2231 31.0055C21.7348 31.4936 21.7349 32.2851 22.2231 32.7734L23.2531 33.8034C23.4972 34.0475 23.8171 34.1695 24.1369 34.1695C24.4568 34.1695 24.7768 34.0475 25.0208 33.8034L27.6282 31.196C28.1163 30.7079 28.1163 29.9164 27.6282 29.4281Z" fill="#501E50"/>
<path d="M25 49H20.25V44.25C20.25 43.5596 19.6904 43 19 43C18.3096 43 17.75 43.5596 17.75 44.25V50.25C17.75 50.9404 18.3096 51.5 19 51.5H25C25.6904 51.5 26.25 50.9404 26.25 50.25C26.25 49.5596 25.6904 49 25 49Z" fill="#501E50"/>
<path d="M27.6282 42.9642C27.1402 42.4761 26.3487 42.4761 25.8606 42.9642L24.1371 44.6877L23.9909 44.5416C23.5028 44.0535 22.7113 44.0535 22.2231 44.5416C21.7348 45.0297 21.7349 45.8212 22.2231 46.3095L23.2531 47.3395C23.4972 47.5836 23.8171 47.7056 24.1369 47.7056C24.4568 47.7056 24.7768 47.5836 25.0208 47.3395L27.6282 44.7321C28.1163 44.244 28.1163 43.4525 27.6282 42.9642Z" fill="#501E50"/>
</svg>
