<svg width="81" height="81" viewBox="0 0 81 81" fill="none" xmlns="http://www.w3.org/2000/svg">
<g clip-path="url(#clip0)">
<path d="M58.3199 21.5999C57.0523 19.9098 55.0662 18.9105 52.9535 18.8999H25.3325C23.2133 18.9085 21.2199 19.9071 19.9444 21.5999H14.1746C8.95852 21.6065 4.7312 25.8338 4.72461 31.0499V49.9499C4.72461 50.6955 5.32908 51.2999 6.07461 51.2999H11.4746V79.6499C11.4746 80.3955 12.0791 80.9999 12.8246 80.9999H30.3746C31.016 80.9999 31.569 80.5484 31.6976 79.9202L36.8801 53.9999H40.0692L45.2516 79.9202C45.3802 80.5484 45.9332 80.9999 46.5746 80.9999H54.6746C54.9139 80.9933 55.1472 80.9221 55.3496 80.7936C55.552 80.9221 55.7853 80.994 56.0246 80.9999H65.4746V51.2999H70.8746C71.6201 51.2999 72.2246 50.6955 72.2246 49.9499V31.0499C72.2154 26.8767 69.4732 23.2017 65.4746 22.0047V12.9844L75.5278 7.96479C75.9866 7.73671 76.2759 7.2687 76.2759 6.75651C76.2759 6.24499 75.9866 5.77697 75.5278 5.54824L64.7278 0.148237C64.3105 -0.0600637 63.8148 -0.0383106 63.4173 0.206245C63.0198 0.450801 62.7766 0.883223 62.7746 1.34992V9.44992C62.7746 5.72226 59.7523 2.69992 56.0246 2.69992C52.297 2.69992 49.2746 5.72226 49.2746 9.44992V12.1499C49.2746 15.8776 52.297 18.8999 56.0246 18.8999C59.7523 18.8999 62.7746 15.8776 62.7746 12.1499V21.5999H58.3199ZM65.4746 3.53444L71.9062 6.74992L65.4746 9.9654V3.53444ZM60.0746 12.1499C60.0746 14.3865 58.2612 16.1999 56.0246 16.1999C53.788 16.1999 51.9746 14.3865 51.9746 12.1499V9.44992C51.9746 7.21333 53.788 5.39992 56.0246 5.39992C58.2612 5.39992 60.0746 7.21333 60.0746 9.44992V12.1499ZM62.7746 24.2999V32.3999H61.1814L59.5618 24.3269L59.5591 24.2999H62.7746ZM11.4746 31.0499V48.5999H7.42461V31.0499C7.42922 27.3236 10.4483 24.3045 14.1746 24.2999H18.2708L14.7336 30.193C14.5075 30.5786 14.3203 30.9853 14.1746 31.4079V31.0499H11.4746ZM19.5746 51.2999V78.2999H14.1746V35.9259C14.3407 36.4038 14.5596 36.8612 14.8265 37.291L22.4849 49.325C22.6873 49.6414 23.0122 49.8596 23.3814 49.9269C23.7518 49.9967 24.1342 49.9071 24.4347 49.6797L27.0385 47.7278L22.2746 72.4952V51.2999H19.5746ZM62.7746 49.9499V78.2999H57.3746V51.2999H54.6746V72.4952L49.2746 44.4148V28.3499H50.8692L52.6997 37.5086C53.2093 40.0293 55.4221 41.844 57.9942 41.8499H62.7746V49.9499ZM69.5246 48.5999H65.4746V41.8499H69.5246V48.5999ZM65.4746 24.8721C67.9314 25.9446 69.5213 28.369 69.5246 31.0499V32.3999H65.4746V24.8721ZM69.5246 35.0999V39.1499H57.9942C56.7095 39.1446 55.6047 38.2383 55.3496 36.9792L53.2976 26.7297C53.169 26.1015 52.616 25.6499 51.9746 25.6499H47.9246C47.1791 25.6499 46.5746 26.2544 46.5746 26.9999V44.5499C46.5746 44.635 46.5825 44.72 46.599 44.8037L53.0398 78.2999H47.6801L42.4976 52.3797C42.369 51.7515 41.816 51.2999 41.1746 51.2999H35.7746C35.1332 51.2999 34.5802 51.7515 34.4516 52.3797L29.2692 78.2999H23.9094L30.3489 44.8063C30.3674 44.7174 30.3759 44.627 30.3746 44.5367V26.9999C30.3746 26.2544 29.7701 25.6499 29.0246 25.6499H25.8751C25.3761 25.6493 24.9179 25.9241 24.6833 26.3638L21.0828 33.1138C20.8561 33.5403 20.8739 34.0551 21.1296 34.4638L27.2224 44.2124L23.9825 46.6422L17.1066 35.8422C16.2781 34.5502 16.2563 32.8989 17.05 31.5845L21.86 23.5682C22.595 22.3514 23.9107 21.6052 25.3325 21.5999H37.1246V44.5499H39.8246V21.5999H52.9482C54.877 21.6045 56.5368 22.9651 56.9198 24.8563L58.7516 34.0202C58.8802 34.6484 59.4332 35.0999 60.0746 35.0999H69.5246ZM27.6746 39.844L23.8323 33.6959L26.6852 28.3499H27.6746V39.844Z" fill="#501E50"/>
<path d="M27.6748 12.15V9.44995C27.6748 5.72229 24.6525 2.69995 20.9248 2.69995C17.1971 2.69995 14.1748 5.72229 14.1748 9.44995V12.15C14.1748 15.8776 17.1971 18.9 20.9248 18.9C24.6525 18.9 27.6748 15.8776 27.6748 12.15ZM16.8748 12.15V9.44995C16.8748 7.21335 18.6882 5.39995 20.9248 5.39995C23.1614 5.39995 24.9748 7.21335 24.9748 9.44995V12.15C24.9748 14.3865 23.1614 16.2 20.9248 16.2C18.6882 16.2 16.8748 14.3865 16.8748 12.15Z" fill="#501E50"/>
<path d="M45.2246 9.45V6.75C45.2246 3.02234 42.2023 0 38.4746 0C34.7469 0 31.7246 3.02234 31.7246 6.75V9.45C31.7246 13.1777 34.7469 16.2 38.4746 16.2C42.2023 16.2 45.2246 13.1777 45.2246 9.45ZM34.4246 9.45V6.75C34.4246 4.5134 36.238 2.7 38.4746 2.7C40.7112 2.7 42.5246 4.5134 42.5246 6.75V9.45C42.5246 11.6866 40.7112 13.5 38.4746 13.5C36.238 13.5 34.4246 11.6866 34.4246 9.45Z" fill="#501E50"/>
</g>
<defs>
<clipPath id="clip0">
<rect width="81" height="81" fill="white"/>
</clipPath>
</defs>
</svg>
