<svg width="78" height="79" viewBox="0 0 78 79" fill="none" xmlns="http://www.w3.org/2000/svg">
<g clip-path="url(#clip0)">
<path d="M71.6803 55.3H43.0803V52.6666H67.7803C68.4271 52.6666 68.9756 52.1851 69.0676 51.5371C69.5722 45.9027 68.9502 40.2239 67.2369 34.8389C64.6865 26.3333 58.4086 14.2197 43.0803 4.5479V3.95C43.0803 1.76863 41.3347 0 39.1803 0C37.0265 0 35.2803 1.76863 35.2803 3.95V5.05451C27.625 29.3614 6.00681 50.1831 5.78845 50.3901C5.39997 50.7598 5.27366 51.3333 5.47043 51.8354C5.66721 52.3381 6.14709 52.6673 6.6803 52.6666H35.2803V55.3H10.5803C10.0274 55.3 9.53547 55.6549 9.35329 56.1833L5.85129 66.3598C4.72966 69.1996 5.0718 72.4179 6.76472 74.951C8.45764 77.4834 11.2811 79.0006 14.3013 79H57.2984C61.0054 79.0173 64.3462 76.7408 65.7275 73.2569L72.866 57.1554C73.0463 56.7478 73.0108 56.2759 72.7708 55.9011C72.5315 55.5263 72.1208 55.3 71.6803 55.3ZM66.5857 50.0333H43.0803V7.65634C66.5158 23.2403 66.8707 44.8785 66.5857 50.0333ZM9.8135 50.0333C15.0135 44.5834 27.9729 29.949 35.2803 12.5823V50.0333H9.8135ZM37.8803 3.95C37.8803 3.22287 38.4624 2.63333 39.1803 2.63333C39.8982 2.63333 40.4803 3.22287 40.4803 3.95V55.3H37.8803V3.95ZM35.2803 57.9333H69.6719L67.3322 63.2H9.69099L11.5045 57.9333H35.2803ZM63.3344 72.2283C62.3543 74.7337 59.9594 76.3756 57.2984 76.3666H14.3013C12.1329 76.3673 10.1074 75.2737 8.90007 73.4498C7.69211 71.6259 7.46233 69.3127 8.28625 67.2818L8.78518 65.8333H66.1699L63.3344 72.2283Z" fill="#501E50"/>
<path d="M31.3801 68.4666H11.8801C11.1622 68.4666 10.5801 69.0561 10.5801 69.7832C10.5801 70.5103 11.1622 71.0999 11.8801 71.0999H31.3801C32.098 71.0999 32.6801 70.5103 32.6801 69.7832C32.6801 69.0561 32.098 68.4666 31.3801 68.4666Z" fill="#501E50"/>
<path d="M37.8803 68.4666H36.5803C35.8624 68.4666 35.2803 69.0561 35.2803 69.7832C35.2803 70.5103 35.8624 71.0999 36.5803 71.0999H37.8803C38.5982 71.0999 39.1803 70.5103 39.1803 69.7832C39.1803 69.0561 38.5982 68.4666 37.8803 68.4666Z" fill="#501E50"/>
<path d="M59.8386 42.3969C59.9624 43.0096 60.4937 43.4493 61.1113 43.45C61.1989 43.4506 61.2859 43.4416 61.3716 43.4236C62.0755 43.2815 62.5319 42.5885 62.3916 41.8755C59.7529 28.5121 49.5218 16.7361 49.0876 16.2423C48.7842 15.8726 48.3056 15.6997 47.8396 15.7916C47.3737 15.8836 46.9941 16.225 46.85 16.6833C46.7053 17.1411 46.8183 17.6426 47.1452 17.991C47.2404 18.1067 57.3364 29.7214 59.8386 42.3969Z" fill="#501E50"/>
<path d="M31.3809 44.7666H26.1809C25.4629 44.7666 24.8809 45.3561 24.8809 46.0833C24.8809 46.8104 25.4629 47.3999 26.1809 47.3999H31.3809C32.0988 47.3999 32.6809 46.8104 32.6809 46.0833C32.6809 45.3561 32.0988 44.7666 31.3809 44.7666Z" fill="#501E50"/>
</g>
<defs>
<clipPath id="clip0">
<rect width="78" height="79" fill="white"/>
</clipPath>
</defs>
</svg>
