<svg width="64" height="65" viewBox="0 0 64 65" fill="none" xmlns="http://www.w3.org/2000/svg">
<path d="M45.3672 0H8.61719C6.54944 0 4.86719 1.70854 4.86719 3.80859V16.7578C4.86719 17.459 5.42694 18.0273 6.11719 18.0273C6.80744 18.0273 7.36719 17.459 7.36719 16.7578V3.80859C7.36719 3.10857 7.92794 2.53906 8.61719 2.53906H45.3672C46.0564 2.53906 46.6172 3.10857 46.6172 3.80859V51.0352C46.6172 51.7352 46.0564 52.3047 45.3672 52.3047H8.61719C7.92794 52.3047 7.36719 51.7352 7.36719 51.0352V27.4641C7.36719 26.763 6.80744 26.1946 6.11719 26.1946C5.42694 26.1946 4.86719 26.763 4.86719 27.4641V51.0352C4.86719 53.1352 6.54944 54.8438 8.61719 54.8438H45.3672C47.4349 54.8438 49.1172 53.1352 49.1172 51.0352V3.80859C49.1172 1.70854 47.4349 0 45.3672 0Z" fill="#501E50"/>
<path d="M7.00081 21.544C6.76844 21.3079 6.44594 21.1733 6.11719 21.1733C5.78844 21.1733 5.46594 21.3079 5.23344 21.544C5.00081 21.7814 4.86719 22.109 4.86719 22.4416C4.86719 22.7768 5.00094 23.103 5.23344 23.3404C5.46594 23.5766 5.78844 23.7124 6.11719 23.7124C6.44581 23.7124 6.76831 23.5766 7.00081 23.3404C7.23344 23.1043 7.36719 22.7768 7.36719 22.4416C7.36719 22.1077 7.23331 21.7814 7.00081 21.544Z" fill="#501E50"/>
<path d="M12.0083 57.7621C11.7758 57.526 11.4546 57.3901 11.1245 57.3901C10.7958 57.3901 10.4733 57.526 10.2409 57.7621C10.0083 57.9982 9.87451 58.3258 9.87451 58.6597C9.87451 58.9948 10.0084 59.3211 10.2409 59.5572C10.4733 59.7946 10.7958 59.9292 11.1245 59.9292C11.4546 59.9292 11.7758 59.7946 12.0083 59.5572C12.2409 59.3211 12.3745 58.9948 12.3745 58.6597C12.3745 58.3258 12.2408 57.9982 12.0083 57.7621Z" fill="#501E50"/>
<path d="M52.875 5.08643C52.1847 5.08643 51.625 5.65479 51.625 6.35596V56.1216C51.625 56.8216 51.0643 57.3911 50.375 57.3911H16.125C15.4348 57.3911 14.875 57.9595 14.875 58.6606C14.875 59.3618 15.4348 59.9302 16.125 59.9302H50.375C52.4427 59.9302 54.125 58.2216 54.125 56.1216V6.35596C54.125 5.65479 53.5653 5.08643 52.875 5.08643Z" fill="#501E50"/>
<path d="M57.8828 10.1562C57.1926 10.1562 56.6328 10.7246 56.6328 11.4258V61.1914C56.6328 61.8914 56.0721 62.4609 55.3828 62.4609H16.1328C15.4426 62.4609 14.8828 63.0293 14.8828 63.7305C14.8828 64.4316 15.4426 65 16.1328 65H55.3828C57.4506 65 59.1328 63.2915 59.1328 61.1914V11.4258C59.1328 10.7246 58.5731 10.1562 57.8828 10.1562Z" fill="#501E50"/>
<path d="M25.1172 9.39453H13.1172C12.4269 9.39453 11.8672 9.9629 11.8672 10.6641V22.8516C11.8672 23.5527 12.4269 24.1211 13.1172 24.1211H25.1172C25.8074 24.1211 26.3672 23.5527 26.3672 22.8516V10.6641C26.3672 9.9629 25.8074 9.39453 25.1172 9.39453ZM23.8672 21.582H14.3672V11.9336H23.8672V21.582Z" fill="#501E50"/>
<path d="M21.0954 29.885C20.6072 29.3893 19.8159 29.3892 19.3275 29.885L16.0047 33.2597L14.4597 31.6905C13.9715 31.1947 13.1803 31.1949 12.6918 31.6905C12.2037 32.1862 12.2037 32.9901 12.6918 33.4859L15.1208 35.9528C15.3553 36.1908 15.6732 36.3247 16.0047 36.3247C16.3363 36.3247 16.654 36.1908 16.8887 35.9528L21.0954 31.6803C21.5835 31.1846 21.5835 30.3807 21.0954 29.885Z" fill="#501E50"/>
<path d="M41.5756 31.6113H26.9922C26.3019 31.6113 25.7422 32.1797 25.7422 32.8809C25.7422 33.582 26.3019 34.1504 26.9922 34.1504H41.5756C42.2658 34.1504 42.8256 33.582 42.8256 32.8809C42.8256 32.1797 42.2658 31.6113 41.5756 31.6113Z" fill="#501E50"/>
<path d="M40.8672 9.39453H32.1172C31.4269 9.39453 30.8672 9.9629 30.8672 10.6641C30.8672 11.3652 31.4269 11.9336 32.1172 11.9336H40.8672C41.5574 11.9336 42.1172 11.3652 42.1172 10.6641C42.1172 9.9629 41.5574 9.39453 40.8672 9.39453Z" fill="#501E50"/>
<path d="M40.8672 15.4883H32.1172C31.4269 15.4883 30.8672 16.0567 30.8672 16.7578C30.8672 17.459 31.4269 18.0273 32.1172 18.0273H40.8672C41.5574 18.0273 42.1172 17.459 42.1172 16.7578C42.1172 16.0567 41.5574 15.4883 40.8672 15.4883Z" fill="#501E50"/>
<path d="M40.8672 21.582H32.1172C31.4269 21.582 30.8672 22.1504 30.8672 22.8516C30.8672 23.5527 31.4269 24.1211 32.1172 24.1211H40.8672C41.5574 24.1211 42.1172 23.5527 42.1172 22.8516C42.1172 22.1504 41.5574 21.582 40.8672 21.582Z" fill="#501E50"/>
<path d="M21.0954 39.5798C20.6072 39.0841 19.8159 39.084 19.3275 39.5798L16.0047 42.9546L14.4597 41.3853C13.9715 40.8895 13.1803 40.8897 12.6918 41.3853C12.2037 41.8811 12.2037 42.6849 12.6918 43.1807L15.1208 45.6476C15.3553 45.8857 15.6732 46.0195 16.0047 46.0195C16.3363 46.0195 16.654 45.8857 16.8887 45.6476L21.0954 41.3751C21.5835 40.8794 21.5835 40.0755 21.0954 39.5798Z" fill="#501E50"/>
<path d="M41.5756 41.2598H26.9922C26.3019 41.2598 25.7422 41.8281 25.7422 42.5293C25.7422 43.2305 26.3019 43.7988 26.9922 43.7988H41.5756C42.2658 43.7988 42.8256 43.2305 42.8256 42.5293C42.8256 41.8281 42.2658 41.2598 41.5756 41.2598Z" fill="#501E50"/>
</svg>
