<svg width="31" height="32" viewBox="0 0 31 32" fill="none" xmlns="http://www.w3.org/2000/svg">
<path d="M15.4987 0C7.12162 0 0.306641 7.03511 0.306641 15.6823C0.306641 19.0666 1.63735 22.1053 2.20961 23.2548C2.47603 23.7901 3.1126 24.0008 3.63095 23.7259C4.14945 23.4509 4.3538 22.7939 4.08738 22.2587C3.58549 21.2503 2.4179 18.5908 2.4179 15.6821C2.41776 8.23674 8.28584 2.17922 15.4987 2.17922C22.7123 2.17922 28.5808 8.23674 28.5808 15.6823C28.5808 23.1281 22.7123 29.1856 15.4987 29.1856C12.6777 29.1856 10.4361 28.1773 9.60318 27.7437C9.35618 27.615 9.07005 27.5917 8.80658 27.6787L2.15767 29.8721C1.60245 30.0553 1.29605 30.6683 1.47353 31.2416C1.6168 31.7046 2.03199 31.9999 2.4787 31.9999C2.58525 31.9999 2.69348 31.9831 2.8003 31.9478L9.04795 29.8869C10.355 30.5132 12.6556 31.3648 15.4987 31.3648C23.8762 31.3648 30.6919 24.3297 30.6919 15.6823C30.6919 7.03511 23.8762 0 15.4987 0Z" fill="#501E50"/>
<path d="M12.5033 13.0081C12.0409 13.3746 11.9541 14.0586 12.3091 14.536C12.6642 15.0133 13.3266 15.1031 13.7892 14.7365C14.1128 14.4799 14.9723 13.7986 14.8465 12.5798C14.7689 11.8553 14.0841 10.8611 13.5232 10.1549C12.7026 9.12138 12.0079 8.50931 11.4624 8.33701C10.9512 8.17342 10.4273 8.19928 9.90492 8.41401C8.83022 8.85741 8.07176 9.59195 7.71146 10.5383C7.36059 11.46 7.42435 12.4913 7.89625 13.522C8.99784 15.9223 10.4701 17.9953 12.2723 19.6838C12.2794 19.6906 12.2865 19.6973 12.2937 19.704C14.1215 21.3718 16.284 22.6568 18.7221 23.5239C19.1847 23.6879 19.6387 23.7697 20.0748 23.7697C20.6225 23.7697 21.142 23.6407 21.6145 23.3835C22.4858 22.9093 23.1093 22.0503 23.4179 20.897C23.5665 20.338 23.5333 19.7981 23.321 19.2955C23.0931 18.7514 22.4272 18.1065 21.3416 17.3788C20.6 16.8816 19.5681 16.2891 18.8589 16.2891C18.8585 16.2891 18.8579 16.2891 18.8573 16.2891C17.6743 16.2941 17.1126 17.251 16.9012 17.6115C16.5991 18.1262 16.7585 18.7963 17.2571 19.108C17.7555 19.4198 18.4047 19.2555 18.7069 18.7406C18.7903 18.5982 18.8433 18.5227 18.8765 18.4832C19.4727 18.6619 21.0674 19.7387 21.3942 20.1918C21.3996 20.216 21.4003 20.2524 21.3827 20.3188C21.2787 20.7074 21.0635 21.2201 20.6298 21.4561C20.2246 21.6763 19.7415 21.5815 19.4086 21.4635C17.2394 20.692 15.3197 19.5542 13.7025 18.0815C13.7021 18.081 13.7016 18.0806 13.7011 18.08C12.0999 16.5825 10.7888 14.7352 9.80429 12.5901C9.65355 12.2606 9.50873 11.7755 9.67621 11.3358C9.85552 10.8648 10.3255 10.5876 10.6872 10.4384C10.7492 10.4128 10.7843 10.4089 10.8097 10.4124C11.2824 10.6978 12.4943 12.2141 12.7323 12.8062C12.6979 12.8444 12.6309 12.9068 12.5033 13.0081Z" fill="#501E50"/>
</svg>
