<svg width="78" height="78" viewBox="0 0 78 78" fill="none" xmlns="http://www.w3.org/2000/svg">
<g clip-path="url(#clip0)">
<path d="M1.3 61.1H5.2V76.7C5.2 77.4173 5.78081 78 6.5 78H19.5C20.2192 78 20.8 77.4173 20.8 76.7V50.7H32.5C33.2192 50.7 33.8 50.1173 33.8 49.4V46.15L47.5998 51.8998C47.7604 51.9677 47.9312 52 48.1 52C48.352 52 48.6046 51.9258 48.8217 51.7817C49.1829 51.5398 49.4 51.1342 49.4 50.7V29.9C49.4 29.4659 49.1829 29.0603 48.8217 28.8184C48.4599 28.5766 48.0022 28.5328 47.6011 28.7003L32.2397 35.1H27.3C26.5808 35.1 26 35.6828 26 36.4V42.9H18.7979C20.0383 41.5182 20.8 39.6996 20.8 37.7C20.8 33.3982 17.3018 29.9 13 29.9C8.69819 29.9 5.2 33.3982 5.2 37.7C5.2 39.6996 5.96172 41.5182 7.20205 42.9H6.5C2.91611 42.9 0 45.8162 0 49.4V59.8C0 60.5173 0.580811 61.1 1.3 61.1ZM46.8 48.75L33.8 43.333V37.2659L46.8 31.85V48.75ZM28.6 37.7H31.2V42.9H28.6V37.7ZM7.8 37.7C7.8 34.8322 10.1321 32.5 13 32.5C15.8679 32.5 18.2 34.8322 18.2 37.7C18.2 40.5679 15.8679 42.9 13 42.9C10.1321 42.9 7.8 40.5679 7.8 37.7ZM2.6 49.4C2.6 47.2501 4.35005 45.5 6.5 45.5H31.2V48.1H19.5C18.7808 48.1 18.2 48.6828 18.2 49.4V75.4H14.3V59.8H11.7V75.4H7.8V49.4H5.2V58.5H2.6V49.4Z" fill="#501E50"/>
<path d="M77.9996 19.5051C77.9996 16.1072 75.371 13.3409 72.0468 13.0559C73.3169 11.6676 74.0996 9.82554 74.0996 7.8C74.0996 3.49819 70.6014 0 66.2996 0C61.9978 0 58.4996 3.49819 58.4996 7.8C58.4996 9.82554 59.2823 11.6676 60.5524 13.0559C57.2282 13.3409 54.5996 16.1072 54.5996 19.5051V22.1C54.5996 22.8173 55.1804 23.4 55.8996 23.4H76.6996C77.4188 23.4 77.9996 22.8173 77.9996 22.1V19.5051ZM66.2996 2.6C69.1675 2.6 71.4996 4.93213 71.4996 7.8C71.4996 10.6679 69.1675 13 66.2996 13C63.4317 13 61.0996 10.6679 61.0996 7.8C61.0996 4.93213 63.4317 2.6 66.2996 2.6ZM75.3996 20.8H57.1996V19.5051C57.1996 17.3526 58.9522 15.6 61.1047 15.6H71.4945C73.647 15.6 75.3996 17.3526 75.3996 19.5051V20.8Z" fill="#501E50"/>
<path d="M77.9996 46.8051C77.9996 43.4072 75.371 40.6409 72.0468 40.3559C73.3169 38.9677 74.0996 37.1256 74.0996 35.1C74.0996 30.7982 70.6014 27.3 66.2996 27.3C61.9978 27.3 58.4996 30.7982 58.4996 35.1C58.4996 37.1256 59.2823 38.9677 60.5524 40.3559C57.2282 40.6409 54.5996 43.4072 54.5996 46.8051V49.4C54.5996 50.1173 55.1804 50.7 55.8996 50.7H76.6996C77.4188 50.7 77.9996 50.1173 77.9996 49.4V46.8051ZM66.2996 29.9C69.1675 29.9 71.4996 32.2322 71.4996 35.1C71.4996 37.9679 69.1675 40.3 66.2996 40.3C63.4317 40.3 61.0996 37.9679 61.0996 35.1C61.0996 32.2322 63.4317 29.9 66.2996 29.9ZM75.3996 48.1H57.1996V46.8051C57.1996 44.6526 58.9522 42.9 61.1047 42.9H71.4945C73.647 42.9 75.3996 44.6526 75.3996 46.8051V48.1Z" fill="#501E50"/>
<path d="M77.9996 74.1052C77.9996 70.7073 75.371 67.941 72.0468 67.656C73.3169 66.2677 74.0996 64.4256 74.0996 62.4001C74.0996 58.0983 70.6014 54.6001 66.2996 54.6001C61.9978 54.6001 58.4996 58.0983 58.4996 62.4001C58.4996 64.4256 59.2823 66.2677 60.5524 67.656C57.2282 67.941 54.5996 70.7073 54.5996 74.1052V76.7001C54.5996 77.4174 55.1804 78.0001 55.8996 78.0001H76.6996C77.4188 78.0001 77.9996 77.4174 77.9996 76.7001V74.1052ZM66.2996 57.2001C69.1675 57.2001 71.4996 59.5322 71.4996 62.4001C71.4996 65.268 69.1675 67.6001 66.2996 67.6001C63.4317 67.6001 61.0996 65.268 61.0996 62.4001C61.0996 59.5322 63.4317 57.2001 66.2996 57.2001ZM75.3996 75.4001H57.1996V74.1052C57.1996 71.9527 58.9522 70.2001 61.1047 70.2001H71.4945C73.647 70.2001 75.3996 71.9527 75.3996 74.1052V75.4001Z" fill="#501E50"/>
<path d="M17.7025 27.201C17.8638 27.2676 18.0326 27.3 18.2002 27.3C18.5379 27.3 18.8711 27.1673 19.1193 26.9191L27.8385 18.2H41.6002C43.7501 18.2 45.5002 16.45 45.5002 14.3V3.9C45.5002 1.75005 43.7501 0 41.6002 0H15.6002C13.4502 0 11.7002 1.75005 11.7002 3.9V14.3C11.7002 16.45 13.4502 18.2 15.6002 18.2H16.9002V26C16.9002 26.525 17.2163 26.9998 17.7025 27.201ZM15.6002 15.6C14.8829 15.6 14.3002 15.016 14.3002 14.3V3.9C14.3002 3.18398 14.8829 2.6 15.6002 2.6H41.6002C42.3175 2.6 42.9002 3.18398 42.9002 3.9V14.3C42.9002 15.016 42.3175 15.6 41.6002 15.6H27.3002C26.9542 15.6 26.6242 15.7365 26.3811 15.9809L19.5002 22.8617V16.9C19.5002 16.1827 18.9194 15.6 18.2002 15.6H15.6002Z" fill="#501E50"/>
<path d="M16.9004 5.19995H22.1004V7.79995H16.9004V5.19995Z" fill="#501E50"/>
<path d="M16.9004 10.3999H24.7004V12.9999H16.9004V10.3999Z" fill="#501E50"/>
<path d="M24.7002 5.19995H40.3002V7.79995H24.7002V5.19995Z" fill="#501E50"/>
<path d="M27.2998 10.3999H29.8998V12.9999H27.2998V10.3999Z" fill="#501E50"/>
<path d="M32.5 10.3999H35.1V12.9999H32.5V10.3999Z" fill="#501E50"/>
<path d="M37.7002 10.3999H40.3002V12.9999H37.7002V10.3999Z" fill="#501E50"/>
</g>
<defs>
<clipPath id="clip0">
<rect width="78" height="78" fill="white"/>
</clipPath>
</defs>
</svg>
