<svg width="81" height="81" viewBox="0 0 81 81" fill="none" xmlns="http://www.w3.org/2000/svg">
<g clip-path="url(#clip0)">
<path d="M80.8572 79.0465L74.2492 65.8317V56.7005C74.2492 54.7566 73.4108 53.0165 72.0919 51.784C74.1722 50.6324 75.5991 48.4414 75.5991 45.9008C75.5991 42.179 72.5712 39.151 68.8493 39.151C65.1274 39.151 62.0995 42.179 62.0995 45.9008C62.0995 47.4263 62.6273 48.8194 63.4845 49.9507H60.7495C60.0043 49.9507 59.3995 49.3446 59.3995 48.6007V44.5508V33.7511C59.3995 33.0059 58.7961 32.4011 58.0496 32.4011H53.8633C53.2356 29.3246 50.51 27.0013 47.2498 27.0013H41.85V20.1826C46.4479 19.8559 50.5951 17.8904 53.7013 14.8516H55.3496C60.5592 14.8516 64.7994 10.6127 64.7994 5.40182C64.7994 4.65664 64.196 4.05185 63.4494 4.05185H59.1835C59.3118 3.16762 59.3995 2.27125 59.3995 1.35192C59.3995 0.606738 58.7961 0.00195312 58.0496 0.00195312H22.9504C22.2039 0.00195312 21.6005 0.606738 21.6005 1.35192C21.6005 2.27125 21.6882 3.16762 21.8165 4.05185H17.5506C16.804 4.05185 16.2006 4.65664 16.2006 5.40182C16.2006 10.6127 20.4408 14.8516 25.6504 14.8516H27.2987C30.4063 17.8904 34.5534 19.8559 39.15 20.1826V27.0013H33.7502C30.4913 27.0013 27.7644 29.3246 27.1367 32.4011H22.9504C22.2039 32.4011 21.6005 33.0059 21.6005 33.7511V44.5508V48.6007C21.6005 49.3446 20.9957 49.9507 20.2505 49.9507H17.5155C18.3727 48.8194 18.9005 47.4263 18.9005 45.9008C18.9005 42.179 15.8726 39.151 12.1507 39.151C8.42885 39.151 5.40088 42.179 5.40088 45.9008C5.40088 48.4414 6.82779 50.6324 8.90809 51.784C7.58917 53.0165 6.75084 54.7566 6.75084 56.7005V65.8317L0.142756 79.0465C-0.0664883 79.465 -0.0448889 79.9618 0.202155 80.36C0.449199 80.7569 0.882538 80.9999 1.35098 80.9999H6.75084C7.26248 80.9999 7.72957 80.711 7.95906 80.2534L11.8659 72.4411L13.5331 79.9429C13.6708 80.5598 14.2175 80.9999 14.8506 80.9999H20.2505C20.6555 80.9999 21.0375 80.819 21.294 80.5058C21.5492 80.194 21.6531 79.7823 21.5735 79.3854L18.9005 66.0166V58.0505H20.2505C23.5404 58.0505 26.5616 56.3293 28.268 53.5821C29.1481 53.8535 30.0823 54.0006 31.0502 54.0006H32.4002V61.9465L28.3841 79.3462C28.2923 79.7472 28.3868 80.1684 28.6432 80.491C28.8997 80.8123 29.2885 80.9999 29.7003 80.9999H36.4501C37.0697 80.9999 37.6084 80.5787 37.7596 79.978L40.5 69.0163L43.2404 79.978C43.3916 80.5787 43.9303 80.9999 44.5499 80.9999H51.2997C51.7115 80.9999 52.1003 80.8123 52.3554 80.491C52.6119 80.1697 52.7077 79.7485 52.6146 79.3462L48.5998 61.9465V54.0006H49.9498C50.9177 54.0006 51.8519 53.8535 52.732 53.5821C54.4384 56.3293 57.4596 58.0505 60.7495 58.0505H62.0995V66.0166L59.4265 79.3854C59.3469 79.7823 59.4508 80.194 59.706 80.5058C59.9625 80.819 60.3445 80.9999 60.7495 80.9999H66.1494C66.7825 80.9999 67.3292 80.5598 67.4683 79.9429L69.1355 72.4411L73.0423 80.2534C73.2704 80.711 73.7375 80.9999 74.2492 80.9999H79.649C80.1175 80.9999 80.5508 80.7569 80.7978 80.36C81.0449 79.9618 81.0665 79.465 80.8572 79.0465ZM68.8493 41.8509C71.0821 41.8509 72.8992 43.668 72.8992 45.9008C72.8992 48.1337 71.0821 49.9507 68.8493 49.9507C66.6164 49.9507 64.7994 48.1337 64.7994 45.9008C64.7994 43.668 66.6164 41.8509 68.8493 41.8509ZM46.5209 35.1011H51.2997V44.5508C51.2997 45.2947 50.695 45.9008 49.9498 45.9008H46.5209C47.8087 44.4658 48.5998 42.5772 48.5998 40.5009C48.5998 38.4247 47.8087 36.5361 46.5209 35.1011ZM57.3935 9.77571C57.4704 9.62046 57.546 9.46522 57.6189 9.30727C57.7809 8.96033 57.9348 8.61204 58.0752 8.2543C58.1171 8.149 58.1535 8.041 58.1927 7.93435C58.3385 7.54421 58.4829 7.15407 58.6031 6.75178H61.9631C61.3786 9.61641 58.9756 11.8277 56.0165 12.1193C56.0246 12.1071 56.0327 12.0936 56.0408 12.0801C56.2271 11.8115 56.3959 11.5307 56.5673 11.2526C56.678 11.073 56.7914 10.8962 56.8953 10.7139C57.0708 10.4075 57.2342 10.093 57.3935 9.77571ZM19.0369 6.75178H22.3969C22.5171 7.15407 22.6615 7.54421 22.8073 7.93435C22.8465 8.041 22.8829 8.149 22.9248 8.2543C23.0652 8.61204 23.2191 8.96033 23.3811 9.30727C23.454 9.46522 23.5296 9.62046 23.6065 9.77571C23.7658 10.093 23.9278 10.4061 24.1047 10.7139C24.2086 10.8962 24.322 11.073 24.4327 11.2526C24.6055 11.5307 24.7742 11.8115 24.9592 12.0801C24.9673 12.0923 24.9754 12.1058 24.9835 12.1193C22.023 11.8277 19.6201 9.61641 19.0369 6.75178ZM28.7485 12.4729C27.809 11.4794 27.0017 10.3764 26.3443 9.18847C26.3132 9.13313 26.2822 9.07913 26.2525 9.02378C25.5923 7.79666 25.0861 6.48584 24.7607 5.12103C24.5717 4.33264 24.4246 3.52941 24.3558 2.70189H56.6442C56.5754 3.52941 56.4283 4.33399 56.2393 5.12103C55.9126 6.48584 55.4077 7.79666 54.7475 9.02378C54.7178 9.07913 54.6868 9.13447 54.6558 9.18847C53.9983 10.3751 53.191 11.4794 52.2515 12.4729C49.2964 15.5927 45.1263 17.5515 40.5 17.5515C35.8737 17.5515 31.7036 15.5927 28.7485 12.4729ZM33.7502 29.7012H47.2498C49.0102 29.7012 50.5114 30.8298 51.0689 32.4011H29.9311C30.4886 30.8298 31.9898 29.7012 33.7502 29.7012ZM45.8999 40.5009C45.8999 43.479 43.478 45.9008 40.5 45.9008C37.522 45.9008 35.1001 43.479 35.1001 40.5009C35.1001 37.5229 37.522 35.1011 40.5 35.1011C43.478 35.1011 45.8999 37.5229 45.8999 40.5009ZM29.7003 35.1011H34.4791C33.1913 36.5361 32.4002 38.4247 32.4002 40.5009C32.4002 42.5772 33.1913 44.4658 34.4791 45.9008H31.0502C30.3051 45.9008 29.7003 45.2947 29.7003 44.5508V35.1011ZM8.10081 45.9008C8.10081 43.668 9.91786 41.8509 12.1507 41.8509C14.3836 41.8509 16.2006 43.668 16.2006 45.9008C16.2006 48.1337 14.3836 49.9507 12.1507 49.9507C9.91786 49.9507 8.10081 48.1337 8.10081 45.9008ZM5.91656 78.3H3.53522L8.78524 67.8027L10.2905 68.3048L10.8264 68.483L5.91656 78.3ZM20.2505 55.3506H17.5506C16.804 55.3506 16.2006 55.9554 16.2006 56.7005V66.1503C16.2006 66.2394 16.2101 66.3271 16.2276 66.4149L18.6035 78.3H15.932L13.4683 67.2087C13.3657 66.7456 13.0268 66.3703 12.5773 66.2205L9.45077 65.177V56.7005C9.45077 54.4677 11.2678 52.6506 13.5007 52.6506H20.2505C21.7652 52.6506 23.0868 51.815 23.782 50.5811C24.0561 50.9105 24.3571 51.2143 24.673 51.5032C24.7121 51.5396 24.7499 51.5747 24.7904 51.6098C25.1158 51.8987 25.4546 52.17 25.8164 52.4117C24.5717 54.2287 22.4968 55.3506 20.2505 55.3506ZM54.5518 49.4593C54.3628 49.6362 54.1603 49.7995 53.9524 49.9548C53.8525 50.029 53.7594 50.1127 53.6541 50.1815C52.589 50.8862 51.3186 51.3007 49.9498 51.3007H47.2498C46.5033 51.3007 45.8999 51.9055 45.8999 52.6506V62.1004C45.8999 62.203 45.912 62.3042 45.9336 62.4041L49.6028 78.3H45.6042L41.8095 63.1223C41.6583 62.5216 41.1196 62.1004 40.5 62.1004C39.8804 62.1004 39.3417 62.5216 39.1905 63.1223L35.3958 78.3H31.3972L35.0664 62.4041C35.088 62.3042 35.1001 62.203 35.1001 62.1004V52.6506C35.1001 51.9055 34.4967 51.3007 33.7502 51.3007H31.0502C29.6814 51.3007 28.4111 50.8862 27.3459 50.1829C27.2406 50.114 27.1488 50.0303 27.0476 49.9561C26.8397 49.8009 26.6372 49.6389 26.4482 49.4607C26.3335 49.3527 26.2241 49.2406 26.1175 49.1259C25.9541 48.949 25.8016 48.7627 25.6571 48.5697C25.5707 48.4536 25.4762 48.3415 25.3979 48.22C25.2035 47.9217 25.0334 47.6085 24.8876 47.2805C24.8336 47.159 24.7945 47.0307 24.7472 46.9065C24.6527 46.6541 24.5704 46.3962 24.5056 46.1303C24.4745 46.0034 24.4448 45.8752 24.4206 45.7456C24.3517 45.3554 24.3004 44.9599 24.3004 44.5508V35.1011H27.0003V44.5508C27.0003 46.7837 28.8174 48.6007 31.0502 48.6007H49.9498C52.1826 48.6007 53.9997 46.7837 53.9997 44.5508V35.1011H56.6996V44.5508C56.6996 44.9599 56.6483 45.3554 56.5795 45.7442C56.5552 45.8738 56.5255 46.0007 56.4944 46.1289C56.4296 46.3949 56.3473 46.6527 56.2528 46.9052C56.2055 47.0294 56.1664 47.1576 56.1124 47.2791C55.9666 47.6072 55.7951 47.9204 55.6021 48.2187C55.5224 48.3402 55.4293 48.4522 55.3429 48.5683C55.1984 48.7614 55.0472 48.949 54.8825 49.1245C54.7759 49.2393 54.6665 49.3527 54.5518 49.4593ZM68.4227 66.2205C68.2648 66.2731 68.1271 66.3622 68.0015 66.4648C67.7707 66.6538 67.5979 66.909 67.5304 67.2087L65.0667 78.3H62.3965L64.7737 66.4149C64.7899 66.3271 64.7994 66.2394 64.7994 66.1503V56.7005C64.7994 55.9554 64.196 55.3506 63.4494 55.3506H60.7495C58.5032 55.3506 56.4283 54.2287 55.1836 52.4117C55.5454 52.17 55.8856 51.8974 56.2096 51.6098C56.2487 51.5747 56.2879 51.5396 56.327 51.5032C56.6415 51.2143 56.9439 50.9105 57.218 50.5811C57.9132 51.815 59.2348 52.6506 60.7495 52.6506H67.4993C69.7322 52.6506 71.5492 54.4677 71.5492 56.7005V65.1783L68.4227 66.2205ZM75.0834 78.3L70.1736 68.483L70.7095 68.3048L72.2148 67.8027L77.4648 78.3H75.0834Z" fill="#501E50"/>
<path d="M47.2782 9.75171C45.3653 11.2988 42.9583 12.1506 40.5 12.1506V14.8505C43.5739 14.8505 46.5843 13.7854 48.9765 11.8509L47.2782 9.75171Z" fill="#501E50"/>
<path d="M50.1737 6.14868C49.7431 7.01536 49.1937 7.82264 48.543 8.54757L50.5517 10.3511C51.3657 9.44665 52.0515 8.43687 52.5915 7.3515L50.1737 6.14868Z" fill="#501E50"/>
</g>
<defs>
<clipPath id="clip0">
<rect width="81" height="81" fill="white"/>
</clipPath>
</defs>
</svg>
