<svg width="86" height="86" viewBox="0 0 86 86" fill="none" xmlns="http://www.w3.org/2000/svg">
<g clip-path="url(#clip0)">
<path d="M69.9588 0.420002C69.3991 -0.139675 68.4917 -0.139675 67.932 0.420002L49.6884 18.663C49.1517 19.1905 49.1261 20.0474 49.6313 20.6051L47.4464 20.8479C45.8796 21.0257 44.3593 21.4916 42.9618 22.2225C41.5596 21.4929 40.0355 21.0277 38.4653 20.8492L36.2798 20.6051C36.7752 20.0441 36.7509 19.1951 36.2234 18.663L29.1299 11.5683L17.9804 0.420002C17.4115 -0.118023 16.5218 -0.118023 15.9536 0.420002L1.76351 14.6101C1.20383 15.1698 1.20383 16.0765 1.76351 16.6369L20.0085 34.8785C20.4271 35.3096 21.0747 35.4244 21.6166 35.1653V41.9791C21.6166 42.3597 21.7675 42.7239 22.0366 42.9929L25.7115 46.6639V53.0336C25.7115 53.4135 25.8624 53.7783 26.1314 54.0467L30.952 58.8672C30.3891 59.0693 30.0138 59.6021 30.0118 60.1998V84.5671C30.0118 85.3584 30.6535 86.0001 31.4448 86.0001H51.5118C52.3031 86.0001 52.9448 85.3584 52.9448 84.5671V60.1998C52.9408 59.4518 52.3588 58.8344 51.6122 58.7865L52.9848 57.0668C54.4781 55.1929 55.421 52.9411 55.7084 50.5626C56.4393 50.2175 57.1059 49.751 57.6807 49.1834L63.8798 42.9843C64.1488 42.7153 64.2997 42.3512 64.2997 41.9706V35.1594C64.3187 35.1679 64.3312 35.1836 64.3502 35.1908C64.885 35.4107 65.4991 35.2873 65.9079 34.8785L84.1489 16.6349C84.7079 16.0752 84.7079 15.1678 84.1489 14.6081L69.9588 0.420002ZM16.968 3.45984L26.0914 12.5813L13.9281 24.7446L4.80466 15.6231L16.968 3.45984ZM15.9549 26.7714L28.1182 14.6094L33.1848 19.6767L21.0228 31.8387L15.9549 26.7714ZM24.4846 32.4318L33.711 23.204L38.1543 23.6988C40.418 23.9514 42.5281 24.9657 44.1395 26.5752L46.2785 28.7136C46.1125 28.688 45.9459 28.6722 45.7779 28.6663C44.7196 28.6657 43.6986 29.0567 42.9113 29.7647C41.2808 28.3008 38.8092 28.3008 37.178 29.7647C35.4078 28.1814 32.6894 28.333 31.1062 30.1026C30.4022 30.8906 30.0124 31.9102 30.0118 32.9666V37.6966C27.8938 38.6237 26.3558 40.5186 25.8847 42.7822L24.4833 41.3801L24.4846 32.4318ZM50.0781 68.7997H32.8784V61.6335H50.0781V68.7997ZM32.8784 83.1335V71.667H50.0781V83.1335H32.8784ZM52.9448 49.0115C52.9421 51.2889 52.1666 53.4988 50.7461 55.2795L47.9569 58.7668H34.9052L28.5781 52.4398V44.2697C28.5781 42.4188 29.7631 40.7758 31.5196 40.1905L31.8975 40.0646C32.4847 39.869 32.8804 39.3186 32.8784 38.6998V32.9666C32.8784 32.1746 33.5201 31.5329 34.3114 31.5329C35.1033 31.5329 35.745 32.1746 35.745 32.9666C35.745 33.7579 36.3867 34.3996 37.178 34.3996C37.97 34.3996 38.6117 33.7579 38.6117 32.9666C38.6117 32.1746 39.2533 31.5329 40.0446 31.5329C40.8366 31.5329 41.4783 32.1746 41.4783 32.9666C41.4783 33.7579 42.12 34.3996 42.9119 34.3996C43.7032 34.3996 44.3449 33.7579 44.3449 32.9666C44.3449 32.1746 44.9866 31.5329 45.7785 31.5329C46.5698 31.5329 47.2115 32.1746 47.2115 32.9666C47.2115 33.7579 47.8532 34.3996 48.6452 34.3996C49.4365 34.3996 50.0781 33.7579 50.0781 32.9666C50.0781 32.1746 50.7198 31.5329 51.5118 31.5329C52.3031 31.5329 52.9448 32.1746 52.9448 32.9666V49.0115ZM61.4305 41.3801L55.8114 47.0005V32.9666C55.8114 30.5914 53.8863 28.6663 51.5118 28.6663C51.1476 28.6716 50.7861 28.7227 50.4351 28.8198L46.1637 24.5471C46.0207 24.4034 45.877 24.2775 45.7234 24.1443C46.3861 23.9251 47.0698 23.7749 47.7633 23.6968L52.2066 23.204L56.8081 27.8048L61.4344 32.4318L61.4305 41.3801ZM58.8099 25.757L53.7433 20.6885L52.7328 19.6767L57.8008 14.6081L69.9628 26.7714L64.8961 31.8387L58.8099 25.757ZM71.9856 24.7433L59.8249 12.5813L68.9464 3.45984L81.1071 15.6231L71.9856 24.7433Z" fill="#501E50"/>
</g>
<defs>
<clipPath id="clip0">
<rect width="86" height="86" fill="white"/>
</clipPath>
</defs>
</svg>
