<svg width="61" height="61" viewBox="0 0 61 61" fill="none" xmlns="http://www.w3.org/2000/svg">
<g clip-path="url(#clip0)">
<path d="M27.6983 46.5037C27.2334 46.9682 27.2334 47.7226 27.6983 48.1879C28.1642 48.6529 28.9181 48.6529 29.3826 48.1879C29.8484 47.7226 29.8484 46.9682 29.3826 46.5037C28.9181 46.0378 28.1642 46.0378 27.6983 46.5037Z" fill="#501E50"/>
<path d="M58.2509 44.4343L49.2055 36.7428C49.1636 36.7074 49.1194 36.6748 49.0733 36.6455C46.7003 35.1349 43.6533 35.4695 41.6638 37.4586L36.732 42.3899C36.3904 42.7319 35.8808 42.8329 35.434 42.6486C29.8651 40.3449 25.2903 36.8768 21.8366 32.3416C19.203 28.8832 18.2536 26.1351 18.1284 25.7479C18.1135 25.665 18.0898 25.5827 18.0563 25.5022C17.8715 25.0554 17.9725 24.5467 18.315 24.2051L23.2463 19.2724C25.2359 17.2828 25.57 14.2359 24.0594 11.8629C24.0473 11.8438 24.0347 11.8252 24.0217 11.8066L17.4894 2.72908C15.4342 -0.459327 10.9576 -0.941009 8.2709 1.74524L7.28334 2.7328C7.28287 2.73373 7.28194 2.73466 7.28101 2.73513L3.75519 6.26095C-0.449171 10.4658 -1.13702 16.7839 1.76657 24.5337C4.25363 31.172 9.2324 38.4373 15.7856 44.9905C22.4938 51.6987 29.9554 56.7696 36.7958 59.2692C43.5663 61.7428 50.7683 62.0476 55.8657 56.9497L59.191 53.6249C61.8656 50.9498 61.3988 46.5025 58.2509 44.4343ZM47.7293 38.6146L56.7667 46.2996C56.8081 46.335 56.8524 46.3676 56.8984 46.3969C58.8289 47.626 59.1211 50.3253 57.5058 51.9402L57.2591 52.1873L41.8448 40.6465L43.3485 39.1433C44.5236 37.9677 46.3145 37.755 47.7293 38.6146ZM15.4989 4.03823C15.511 4.05731 15.5236 4.07639 15.5366 4.09454L22.0661 13.1688C22.9531 14.5887 22.7479 16.4014 21.5616 17.5877L20.1045 19.0453L9.67592 3.70966L9.95562 3.42996C11.5775 1.80807 14.2745 2.11476 15.4989 4.03823ZM37.613 57.0311C31.0919 54.6483 23.9384 49.7738 17.4703 43.3058C11.1521 36.988 6.36744 30.0244 3.99719 23.6978C2.218 18.949 1.02426 12.3613 5.43991 7.94613L7.96095 5.42464L18.3895 20.7603L16.6308 22.5199C15.6302 23.5187 15.3156 24.9967 15.8149 26.3129C16.191 27.8561 17.9213 31.0594 19.667 33.4199C22.236 36.8936 26.8987 41.696 34.5233 44.8504C35.8631 45.4047 37.391 45.1003 38.4167 44.0751L40.1429 42.3484L55.5572 53.8893L54.181 55.265C49.4475 59.9989 42.5587 58.8382 37.613 57.0311Z" fill="#501E50"/>
<path d="M25.4624 43.6593C24.204 42.5558 22.0274 40.6579 20.8811 39.4786C18.0701 36.5899 15.1209 33.0883 13.3673 30.5584C12.9927 30.0177 12.2504 29.8827 11.7096 30.2578C11.1688 30.6324 11.0343 31.3747 11.409 31.9155C13.6205 35.1063 16.8699 38.7726 19.1731 41.1396C20.3831 42.385 22.5784 44.2996 23.8913 45.4506C24.385 45.8834 25.1376 45.8359 25.5727 45.3403C26.0065 44.846 25.9571 44.093 25.4624 43.6593Z" fill="#501E50"/>
</g>
<defs>
<clipPath id="clip0">
<rect width="61" height="61" fill="white"/>
</clipPath>
</defs>
</svg>
