<svg width="28" height="27" viewBox="0 0 28 27" fill="none" xmlns="http://www.w3.org/2000/svg">
<path d="M20.2727 0H7.72678C3.46623 0 0 3.3426 0 7.45098V19.5489C0 23.6574 3.46623 26.9998 7.72678 26.9998H20.2727C24.5336 26.9998 27.9998 23.6572 27.9998 19.5489V7.45098C28 3.3426 24.5336 0 20.2727 0ZM25.5157 19.5489C25.5157 22.3365 23.1638 24.6043 20.2729 24.6043H7.72678C4.83607 24.6044 2.48428 22.3365 2.48428 19.5489V7.45098C2.48428 4.66351 4.83607 2.39556 7.72678 2.39556H20.2727C23.1636 2.39556 25.5156 4.66351 25.5156 7.45098V19.5489H25.5157Z" fill="#501E50"/>
<path d="M14 6.54309C10.0217 6.54309 6.78516 9.66402 6.78516 13.5003C6.78516 17.3364 10.0217 20.4571 14 20.4571C17.9783 20.4571 21.2149 17.3364 21.2149 13.5003C21.2149 9.66402 17.9783 6.54309 14 6.54309ZM14 18.0614C11.3917 18.0614 9.26944 16.0153 9.26944 13.5001C9.26944 10.9848 11.3915 8.93849 14 8.93849C16.6085 8.93849 18.7306 10.9848 18.7306 13.5001C18.7306 16.0153 16.6083 18.0614 14 18.0614Z" fill="#501E50"/>
<path d="M21.5171 4.51178C21.0385 4.51178 20.5683 4.69863 20.2303 5.02603C19.8906 5.35182 19.6953 5.80538 19.6953 6.26852C19.6953 6.73022 19.8907 7.18362 20.2303 7.51102C20.5681 7.83681 21.0385 8.02526 21.5171 8.02526C21.9974 8.02526 22.4661 7.83681 22.8056 7.51102C23.1452 7.18362 23.3389 6.73007 23.3389 6.26852C23.3389 5.80538 23.1452 5.35182 22.8056 5.02603C22.4678 4.69863 21.9974 4.51178 21.5171 4.51178Z" fill="#501E50"/>
</svg>
