<svg width="33" height="33" viewBox="0 0 33 33" fill="none" xmlns="http://www.w3.org/2000/svg">
<path d="M16.5 3.86719C12.7684 3.86719 9.73242 6.90312 9.73242 10.6348C9.73242 12.9514 10.9007 15.083 12.8576 16.3367C14.8558 17.617 17.3087 17.753 19.5881 16.7043C20.0732 16.4812 20.2855 15.907 20.0623 15.422C19.8392 14.9369 19.2651 14.7246 18.78 14.9477C17.1132 15.7146 15.3347 15.6274 13.9007 14.7087C12.5014 13.8122 11.666 12.2892 11.666 10.6348C11.666 7.96931 13.8345 5.80078 16.5 5.80078C19.1655 5.80078 21.334 7.96931 21.334 10.6348C21.334 11.1679 20.9003 11.6016 20.3672 11.6016C19.8801 11.6016 19.425 11.2321 19.4005 10.6495C19.4005 10.6446 19.4004 10.6397 19.4004 10.6348C19.4004 9.03549 18.0993 7.73438 16.5 7.73438C14.9007 7.73438 13.5996 9.03549 13.5996 10.6348C13.5996 12.234 14.9007 13.5352 16.5 13.5352C17.2422 13.5352 17.92 13.2546 18.4335 12.7943C18.947 13.2547 19.6249 13.5352 20.3672 13.5352C21.9665 13.5352 23.2676 12.234 23.2676 10.6348C23.2676 6.90312 20.2316 3.86719 16.5 3.86719ZM17.4532 10.7898C17.3786 11.2493 16.9802 11.6016 16.5 11.6016C15.9669 11.6016 15.5332 11.1679 15.5332 10.6348C15.5332 10.1017 15.9669 9.66797 16.5 9.66797C16.9957 9.66797 17.4049 10.0431 17.46 10.5242C17.4456 10.6121 17.4432 10.7015 17.4532 10.7898Z" fill="#501E50"/>
<path d="M31.0019 12.6957C31.0016 12.4457 30.901 12.1958 30.7187 12.0136L27.1348 8.42963V0.966797C27.1348 0.432867 26.7019 0 26.168 0H6.83203C6.2981 0 5.86523 0.432867 5.86523 0.966797V8.42963L2.28125 12.0136C2.2779 12.017 2.27507 12.0207 2.27178 12.0241C2.0906 12.2108 1.9985 12.4565 1.99811 12.6957C1.99811 12.6964 1.99805 12.6969 1.99805 12.6976V30.0996C1.99805 31.7009 3.30103 33 4.89844 33H28.1016C29.7025 33 31.002 31.6976 31.002 30.0996V12.6976C31.002 12.6969 31.0019 12.6964 31.0019 12.6957ZM27.1348 11.1641L28.6679 12.6973L27.1348 14.2304V11.1641ZM7.79883 8.8304C7.79883 8.83021 7.79883 8.82995 7.79883 8.82976V1.93359H25.2012V8.82976C25.2012 8.82995 25.2012 8.83021 25.2012 8.8304V16.164L19.9667 21.3984H13.0333L7.79883 16.164V8.8304ZM5.86523 11.1641V14.2304L4.33209 12.6973L5.86523 11.1641ZM3.93164 29.6992V15.0313L11.2656 22.3652L3.93164 29.6992ZM5.29895 31.0664L13.0333 23.332H19.9667L27.7011 31.0664H5.29895ZM29.0684 29.6992L21.7344 22.3652L29.0684 15.0313V29.6992Z" fill="#501E50"/>
</svg>
