<svg width="64" height="64" viewBox="0 0 64 64" fill="none" xmlns="http://www.w3.org/2000/svg">
<g clip-path="url(#clip0)">
<path d="M18.806 39.0006C19.7405 38.5291 20.862 38.8812 21.3594 39.8022L24.8893 46.3385C25.1613 46.8421 25.7407 47.0963 26.2955 46.9563C26.8504 46.8161 27.2392 46.3168 27.2392 45.7445V36.2006C27.239 35.5103 26.6794 34.9507 25.989 34.9507C25.2987 34.9507 24.739 35.5104 24.739 36.2007V40.7994L23.559 38.6144C22.4138 36.4941 19.8312 35.6829 17.6799 36.7687C15.8388 37.6976 14.8906 39.7463 15.3743 41.7509L17.6627 51.2361C18.1975 53.4533 19.1512 55.5113 20.4969 57.353L24.9799 63.4876C25.2247 63.8226 25.6048 64.0002 25.9902 64.0002C26.246 64.0002 26.5043 63.9219 26.7267 63.7594C27.284 63.352 27.4058 62.5699 26.9984 62.0125L22.5154 55.8778C21.3652 54.3038 20.5502 52.545 20.093 50.6498L17.8047 41.1646C17.5945 40.2938 18.0064 39.4041 18.806 39.0006Z" fill="#501E50"/>
<path d="M47.0283 33.6728C46.2907 33.6728 45.5963 33.8617 44.9908 34.1933C44.3774 32.5955 42.8281 31.4579 41.0169 31.4579C40.2358 31.4579 39.5038 31.6704 38.8739 32.0392C38.2007 30.5744 36.7205 29.5542 35.0057 29.5542C34.3798 29.5542 33.7857 29.691 33.25 29.9347V23.9583C33.25 21.6118 31.341 19.7026 28.9944 19.7026C26.6478 19.7026 24.7388 21.6116 24.7388 23.9583V26.125C24.7388 26.8153 25.2984 27.375 25.9888 27.375C26.6791 27.375 27.2388 26.8153 27.2388 26.125V23.9584C27.2388 22.9904 28.0264 22.2028 28.9944 22.2028C29.9624 22.2028 30.75 22.9904 30.75 23.9584V41.5968C30.75 42.2871 31.3097 42.8468 32 42.8468C32.6904 42.8468 33.25 42.2871 33.25 41.5968V33.8097C33.25 32.8417 34.0375 32.054 35.0057 32.054C35.9738 32.054 36.7613 32.8417 36.7613 33.8097V41.5968C36.7613 42.2871 37.3209 42.8468 38.0113 42.8468C38.7017 42.8468 39.2613 42.2871 39.2613 41.5968V35.7135C39.2613 34.7454 40.0488 33.9578 41.0169 33.9578C41.9851 33.9578 42.7726 34.7454 42.7726 35.7135V41.5968C42.7726 42.2871 43.3322 42.8468 44.0226 42.8468C44.7129 42.8468 45.2726 42.2871 45.2726 41.5968V37.9282C45.2726 36.9602 46.0602 36.1725 47.0282 36.1725C47.9962 36.1725 48.7838 36.9602 48.7838 37.9282V48.4756C48.7838 51.2861 48.3573 54.0711 47.5163 56.7528L45.7531 62.3756C45.5466 63.0343 45.9131 63.7359 46.5718 63.9424C46.6963 63.9815 46.8222 64 46.9462 64C47.4779 63.9999 47.9711 63.6579 48.1386 63.1236L49.9018 57.5008C50.8188 54.5766 51.2838 51.54 51.2838 48.4756V37.9282C51.2839 35.5819 49.3749 33.6728 47.0283 33.6728Z" fill="#501E50"/>
<path d="M63.8951 6.62864C63.6456 5.86126 62.9945 5.31264 62.1959 5.19676L58.3672 4.64163L56.6541 1.17263C56.297 0.449251 55.574 0 54.7674 0C54.7672 0 54.767 0 54.7669 0C53.9599 0.000125 53.2368 0.449876 52.88 1.17363L51.1687 4.64338L47.3403 5.20076C46.5418 5.31701 45.891 5.86601 45.642 6.63364C45.3928 7.40114 45.5972 8.22764 46.1751 8.79064L48.9462 11.4904L48.2932 15.3037C48.1571 16.099 48.4781 16.8877 49.131 17.3617C49.4997 17.6295 49.9311 17.7654 50.3653 17.7654C50.7 17.7654 51.0363 17.6847 51.3471 17.5213L54.771 15.72L58.1959 17.5195C58.9101 17.895 59.7594 17.8333 60.412 17.3587C61.0646 16.8842 61.3852 16.0955 61.2485 15.3002L60.5935 11.4873L63.3631 8.78614C63.9407 8.22264 64.1446 7.39589 63.8951 6.62864ZM58.6992 9.84264C58.2031 10.3263 57.9771 11.0228 58.0945 11.7055L58.649 14.9334L55.7497 13.4102C55.1363 13.0876 54.4041 13.088 53.791 13.4105L50.8925 14.9354L51.4453 11.707C51.5621 11.0243 51.3357 10.3281 50.8395 9.84464L48.4935 7.55914L51.7347 7.08739C52.4201 6.98751 53.0123 6.55701 53.3187 5.93564L54.7675 2.99838L56.2177 5.93476C56.5245 6.55601 57.1169 6.98614 57.8026 7.08576L61.0439 7.55589L58.6992 9.84264Z" fill="#501E50"/>
<path d="M41.1266 6.62864C40.8771 5.86126 40.2261 5.31251 39.4274 5.19676L35.5988 4.64163L33.8857 1.17263C33.5284 0.449251 32.8055 0 31.9988 0C31.9987 0 31.9984 0 31.9982 0C31.1913 0.000125 30.4683 0.449876 30.1114 1.17363L28.4002 4.64338L24.5718 5.20076C23.7733 5.31701 23.1224 5.86601 22.8734 6.63364C22.6243 7.40114 22.8287 8.22764 23.4065 8.79064L26.1775 11.4903L25.5245 15.3035C25.3884 16.0989 25.7094 16.8875 26.3623 17.3615C26.731 17.6294 27.1624 17.7653 27.5967 17.7653C27.9313 17.7653 28.2677 17.6845 28.5784 17.5212L32.0024 15.72L35.4273 17.5194C36.1415 17.8949 36.9908 17.8332 37.6434 17.3585C38.2961 16.884 38.6167 16.0954 38.4799 15.3L37.8249 11.4871L40.5946 8.78602C41.1722 8.22264 41.3761 7.39601 41.1266 6.62864ZM35.9308 9.84264C35.4348 10.3261 35.2088 11.0225 35.326 11.7055L35.8805 14.9334L32.9813 13.4102C32.3678 13.0878 31.6354 13.0879 31.0225 13.4105L28.1239 14.9354L28.6768 11.707C28.7935 11.0241 28.5672 10.328 28.0709 9.84464L25.725 7.55914L28.9662 7.08739C29.6515 6.98751 30.2438 6.55701 30.5503 5.93564L31.999 2.99826L33.4493 5.93476C33.7559 6.55589 34.3483 6.98614 35.0342 7.08576L38.2754 7.55589L35.9308 9.84264Z" fill="#501E50"/>
<path d="M18.3571 6.62864C18.1076 5.86126 17.4565 5.31264 16.6578 5.19676L12.8292 4.64163L11.1162 1.17263C10.7589 0.449251 10.0361 0 9.22931 0C9.22919 0 9.22894 0 9.22869 0C8.42181 0.000125 7.69881 0.449876 7.34193 1.17363L5.63068 4.64338L1.8023 5.20076C1.0038 5.31701 0.353045 5.86601 0.103919 6.63351C-0.145206 7.40101 0.058919 8.22752 0.63692 8.79064L3.40805 11.4904L2.75505 15.3037C2.61892 16.099 2.93992 16.8877 3.5928 17.3618C3.96168 17.6295 4.39293 17.7655 4.8273 17.7654C5.16193 17.7654 5.4983 17.6847 5.80906 17.5213L9.23306 15.7202L12.6579 17.5195C13.3723 17.8948 14.2214 17.8332 14.8741 17.3588C15.5267 16.8842 15.8472 16.0953 15.7106 15.3L15.0556 11.4871L17.8252 8.78602C18.4027 8.22264 18.6066 7.39601 18.3571 6.62864ZM13.1613 9.84252C12.6652 10.326 12.4391 11.0225 12.5564 11.7055L13.1109 14.9334L10.2118 13.4102C9.59844 13.0878 8.86606 13.0879 8.25306 13.4105L5.3543 14.9355L5.90706 11.7074C6.02406 11.0246 5.79768 10.3284 5.3013 9.84477L2.95555 7.55914L6.19668 7.08739C6.88206 6.98751 7.47431 6.55701 7.78068 5.93564L9.22944 2.99826L10.6797 5.93476C10.9863 6.55589 11.5787 6.98614 12.2646 7.08576L15.506 7.55589L13.1613 9.84252Z" fill="#501E50"/>
<path d="M26.8725 30.3912C26.64 30.1585 26.3176 30.0249 25.9888 30.0249C25.66 30.0249 25.3375 30.1585 25.105 30.3912C24.8725 30.6238 24.7388 30.946 24.7388 31.2749C24.7388 31.6037 24.8725 31.9262 25.105 32.1585C25.3375 32.391 25.66 32.5249 25.9888 32.5249C26.3175 32.5249 26.64 32.3912 26.8725 32.1585C27.105 31.9262 27.2388 31.6037 27.2388 31.2749C27.2388 30.9459 27.105 30.6235 26.8725 30.3912Z" fill="#501E50"/>
</g>
<defs>
<clipPath id="clip0">
<rect width="64" height="64" fill="white"/>
</clipPath>
</defs>
</svg>
