<svg width="82" height="82" viewBox="0 0 82 82" fill="none" xmlns="http://www.w3.org/2000/svg">
<g clip-path="url(#clip0)">
<path d="M46.3498 76.3541L43.6613 62.9116C43.5336 62.2857 42.9828 61.836 42.3439 61.8362H39.6554C39.0165 61.836 38.4657 62.2857 38.338 62.9116L35.6495 76.3541C35.5628 76.7934 35.7003 77.2469 36.0165 77.564L40.0493 81.5967C40.5742 82.1215 41.4251 82.1215 41.9501 81.5967L45.9828 77.564C46.2991 77.2471 46.4367 76.7934 46.3498 76.3541ZM40.9997 78.755L38.4254 76.1807L40.7577 64.5247H41.2416L43.5739 76.1807L40.9997 78.755Z" fill="#501E50"/>
<path d="M74.607 60.4917C72.4649 60.4839 70.7029 58.8025 70.5944 56.6633C77.3935 53.691 80.4957 45.7696 77.5232 38.9705C74.5507 32.1715 66.6295 29.0694 59.8304 32.0417C56.8804 33.3314 54.4917 35.6375 53.0989 38.54C49.9004 31.8584 41.891 29.0346 35.2092 32.2331C32.4489 33.5544 30.2235 35.7799 28.9022 38.54C25.6891 31.853 17.6636 29.0368 10.9764 32.2499C4.28941 35.463 1.47319 43.4888 4.6863 50.1758C6.07828 53.0726 8.46265 55.3743 11.4067 56.6633C11.2982 58.8025 9.53621 60.4839 7.39414 60.4917C3.68399 60.4961 0.67722 63.5029 0.672852 67.213V81.9998H3.36137V67.213C3.36137 64.9858 5.16687 63.1803 7.39414 63.1803C10.694 63.1719 13.4984 60.7663 14.0092 57.5062C15.83 57.8963 17.7121 57.9022 19.5355 57.5236C19.5677 59.03 20.1997 60.4612 21.2911 61.4999L23.0709 59.4836C22.3858 58.7158 22.0649 57.69 22.1904 56.6687C25.1272 55.3721 27.5066 53.0725 28.9022 50.1813C30.2962 53.0686 32.6714 55.3661 35.6034 56.6633C35.4948 58.8025 33.7328 60.4839 31.5908 60.4917C27.8806 60.4961 24.8738 63.5029 24.8695 67.213V81.9998H27.558V67.213C27.558 64.9858 29.3635 63.1803 31.5908 63.1803C34.8906 63.1719 37.695 60.7663 38.2058 57.5062C40.048 57.9022 41.9531 57.9022 43.7953 57.5062C44.3061 60.7663 47.1104 63.1719 50.4104 63.1803C52.6376 63.1803 54.4431 64.9858 54.4431 67.213V81.9998H57.1316V67.213C57.1273 63.5029 54.1205 60.4961 50.4104 60.4917C48.2683 60.4839 46.5063 58.8025 46.3977 56.6633C49.3297 55.3661 51.7049 53.0686 53.0989 50.1813C54.4929 53.0693 56.8687 55.3673 59.8013 56.6646C59.7702 57.7204 59.4253 58.7429 58.8106 59.6018L60.827 61.379C61.7127 60.2659 62.2659 58.9253 62.4226 57.5115C64.2582 57.9041 66.1561 57.9041 67.9919 57.5115C68.5051 60.7695 71.3088 63.1722 74.607 63.1803C76.8342 63.1803 78.6397 64.9858 78.6397 67.213V81.9998H81.3283V67.213C81.3239 63.5029 78.3173 60.4963 74.607 60.4917ZM16.8039 55.1147C11.3894 55.1056 6.82417 51.0764 6.14263 45.7049H10.0826C10.4395 45.7053 10.782 45.5634 11.0344 45.3111L13.036 43.3081L17.5473 45.5705C17.7345 45.6612 17.9402 45.7073 18.1482 45.7049H27.4652C26.7837 51.0764 22.2184 55.1058 16.8039 55.1147ZM18.4654 43.0164L13.3707 40.469C12.8532 40.2108 12.2283 40.3124 11.8194 40.7218L9.52478 43.0164H6.14263C6.82417 37.6449 11.3894 33.6157 16.8039 33.6066C22.2184 33.6157 26.7837 37.6449 27.4652 43.0164H18.4654ZM41.0006 55.1147C35.5861 55.1056 31.0208 51.0764 30.3393 45.7049H34.2793C34.5448 45.7044 34.8042 45.6259 35.0253 45.4791L38.312 43.2853L41.5988 45.4764C41.8195 45.6243 42.0792 45.7037 42.3448 45.7049H51.6619C50.9803 51.0764 46.4151 55.1058 41.0006 55.1147ZM42.7481 43.0164L39.0541 40.5537C38.6024 40.2523 38.0136 40.2523 37.5619 40.5537L33.876 43.0164H30.3393C31.0208 37.6449 35.5861 33.6157 41.0006 33.6066C46.4151 33.6157 50.9803 37.6449 51.6619 43.0164H42.7481ZM65.1972 33.6066C70.6117 33.6157 75.1769 37.6449 75.8585 43.0164H73.9765L71.6913 39.5818C71.4421 39.2085 71.023 38.984 70.5742 38.9836H59.8202C59.3708 38.9836 58.9511 39.208 58.7017 39.5818L56.4125 43.0164H54.5305C55.2124 37.6429 59.7807 33.613 65.1972 33.6066ZM63.8615 55.0305C58.9864 54.4197 55.1467 50.58 54.5359 45.7049H57.1316C57.581 45.7049 58.0007 45.4806 58.2501 45.1067L60.5393 41.6722H69.855L72.1403 45.1067C72.3905 45.4818 72.8119 45.7063 73.2627 45.7049H75.8585C75.1208 51.5931 69.7497 55.7682 63.8615 55.0305Z" fill="#501E50"/>
<path d="M50.4094 20.4331V12.0987H57.1307C57.873 12.0962 58.4727 11.4921 58.4702 10.7498C58.4685 10.2731 58.2146 9.83299 57.8028 9.59304L41.6717 0.183239C41.2531 -0.0610797 40.7353 -0.0610797 40.3167 0.183239L24.1856 9.59304C23.5442 9.96674 23.3271 10.7898 23.701 11.4313C23.943 11.8465 24.3881 12.1009 24.8685 12.0987H31.5898V20.4331L15.1562 24.2306L15.7612 26.852L33.2365 22.8192C33.8466 22.6782 34.2786 22.1348 34.2783 21.5085V10.7545C34.2783 10.0121 33.6764 9.41022 32.934 9.41022H29.8423L40.9996 2.89998L52.1569 9.41022H49.0651C48.3228 9.41022 47.7209 10.0121 47.7209 10.7545V21.5085C47.7205 22.1348 48.1525 22.6782 48.7627 22.8192L66.238 26.852L66.8429 24.2306L50.4094 20.4331Z" fill="#501E50"/>
<path d="M39.6563 9.41016V24.572L36.543 25.6111L37.3925 28.1652L41.4253 26.821C41.9759 26.6376 42.3466 26.1216 42.3448 25.5412V9.41016H39.6563Z" fill="#501E50"/>
<path d="M32.5086 26.9557L28.4766 28.301L29.3271 30.8501L33.3591 29.5048L32.5086 26.9557Z" fill="#501E50"/>
<path d="M46.7444 25.5932L46.0059 28.1782L55.4153 30.8665L56.1538 28.2815L46.7444 25.5932Z" fill="#501E50"/>
<path d="M22.1535 76.3541L19.465 62.9116C19.3373 62.2857 18.7865 61.836 18.1476 61.8362H15.4591C14.8203 61.836 14.2694 62.2857 14.1417 62.9116L11.4532 76.3541C11.3665 76.7934 11.504 77.2469 11.8202 77.564L15.853 81.5967C16.3779 82.1215 17.2288 82.1215 17.7538 81.5967L21.7865 77.564C22.1028 77.2471 22.2404 76.7934 22.1535 76.3541ZM16.8034 78.755L14.2291 76.1807L16.5614 64.5247H17.0453L19.3776 76.1807L16.8034 78.755Z" fill="#501E50"/>
<path d="M70.5461 76.3541L67.8576 62.9116C67.7299 62.2857 67.1791 61.836 66.5402 61.8362H63.8517C63.2128 61.836 62.662 62.2857 62.5343 62.9116L59.8458 76.3541C59.7591 76.7934 59.8965 77.2469 60.2128 77.564L64.2456 81.5967C64.7705 82.1215 65.6214 82.1215 66.1463 81.5967L70.1791 77.564C70.4953 77.2471 70.6329 76.7934 70.5461 76.3541ZM65.1959 78.755L62.6217 76.1807L64.954 64.5247H65.4379L67.7702 76.1807L65.1959 78.755Z" fill="#501E50"/>
</g>
<defs>
<clipPath id="clip0">
<rect width="82" height="82" fill="white"/>
</clipPath>
</defs>
</svg>
