<svg width="64" height="64" viewBox="0 0 64 64" fill="none" xmlns="http://www.w3.org/2000/svg">
<g clip-path="url(#clip0)">
<path d="M29.7539 28.7358H39.4565C40.1494 28.7358 40.7114 28.1738 40.7114 27.481C40.7114 26.7876 40.1494 26.2261 39.4565 26.2261H29.7539C29.061 26.2261 28.499 26.7881 28.499 27.481C28.499 28.1738 29.061 28.7358 29.7539 28.7358Z" fill="#501E50"/>
<path d="M24.7187 33.4634H39.4565C40.1494 33.4634 40.7114 32.9014 40.7114 32.2085C40.7114 31.5151 40.1494 30.9536 39.4565 30.9536H24.7187C24.0254 30.9536 23.4639 31.5156 23.4639 32.2085C23.4639 32.9014 24.0254 33.4634 24.7187 33.4634Z" fill="#501E50"/>
<path d="M24.7187 38.1909H39.4565C40.1494 38.1909 40.7114 37.6289 40.7114 36.936C40.7114 36.2432 40.1494 35.6812 39.4565 35.6812H24.7187C24.0254 35.6812 23.4639 36.2432 23.4639 36.936C23.4639 37.6289 24.0254 38.1909 24.7187 38.1909Z" fill="#501E50"/>
<path d="M60.2749 19.7433L32.8174 0.109009C32.3809 -0.203003 31.794 -0.203003 31.3574 0.109009L3.8999 19.7433C3.57031 19.9786 3.375 20.359 3.375 20.7638V62.6203C3.375 63.3024 3.94824 63.8752 4.62988 63.8752H59.5449C60.2271 63.8752 60.7998 63.3024 60.7998 62.6203V20.7638C60.7998 20.359 60.6045 19.9786 60.2749 19.7433ZM32.0874 2.67249L44.5498 11.5841L42.7803 13.2233L32.7305 6.03723C32.5122 5.88098 32.2564 5.80286 32.0005 5.80286C31.7446 5.80286 31.4888 5.88098 31.2705 6.03723L21.3843 13.1066L19.668 11.5538L32.0874 2.67249ZM7.41895 61.3654L9.81592 58.6613C10.2754 58.1427 10.228 57.3498 9.70948 56.8898C9.19043 56.4303 8.39746 56.4782 7.9375 56.9967L5.88477 59.3126V28.277H8.41553L21.2124 42.0202L14.6309 49.4455C14.1709 49.964 14.2188 50.7575 14.7373 51.2169C14.9761 51.4289 15.2734 51.5329 15.5693 51.5329C15.916 51.5329 16.2607 51.3903 16.5088 51.1105L23.4727 43.2545H40.7022L56.7554 61.3649H7.41895V61.3654ZM11.8452 28.277H16.3774V33.1442L11.8452 28.277ZM18.8872 35.8395V22.0158H45.2881V35.8395L40.7207 40.7448H23.4541L18.8872 35.8395ZM58.2901 59.3126L42.9624 42.0206L55.7593 28.277H58.2901V59.3126ZM47.7979 33.1442V28.277H52.3301L47.7979 33.1442ZM58.2901 25.7672H47.7979V20.7609C47.7979 20.068 47.2359 19.506 46.543 19.506H17.6323C16.939 19.506 16.3774 20.068 16.3774 20.7609V25.7672H5.88477V21.4093L17.5781 13.0475L20.4502 15.6456C20.8877 16.0416 21.542 16.0787 22.022 15.7355L32.0005 8.60071L42.1529 15.86C42.3721 16.0167 42.6279 16.0944 42.8823 16.0944C43.1904 16.0944 43.4966 15.9816 43.7359 15.7599L46.6338 13.0743L58.2901 21.4093V25.7672Z" fill="#501E50"/>
<path d="M25.9736 27.4805C25.9736 28.1733 25.4116 28.7353 24.7187 28.7353C24.0254 28.7353 23.4639 28.1733 23.4639 27.4805C23.4639 26.7871 24.0254 26.2256 24.7187 26.2256C25.4116 26.2256 25.9736 26.7871 25.9736 27.4805Z" fill="#501E50"/>
<path d="M13.4697 54.063C13.4697 54.7559 12.9077 55.3179 12.2148 55.3179C11.522 55.3179 10.96 54.7559 10.96 54.063C10.96 53.3696 11.522 52.8081 12.2148 52.8081C12.9077 52.8081 13.4697 53.3696 13.4697 54.063Z" fill="#501E50"/>
</g>
<defs>
<clipPath id="clip0">
<rect width="64" height="64" fill="white"/>
</clipPath>
</defs>
</svg>
