<svg width="33" height="33" viewBox="0 0 33 33" fill="none" xmlns="http://www.w3.org/2000/svg">
<g clip-path="url(#clip0)">
<path d="M32.1523 24.3397L28.0499 20.2373C26.9189 19.1063 25.0785 19.1063 23.9475 20.2373L22.0828 22.102C21.226 22.9588 19.8317 22.9586 18.9752 22.1023L10.8928 14.013C10.0339 13.1541 10.0338 11.7641 10.8928 10.9051C11.1931 10.6047 12.0556 9.7423 12.7575 9.0404C13.8835 7.91441 13.8993 6.07975 12.7564 4.93699L8.65508 0.848592C7.52406 -0.282369 5.68372 -0.282369 4.55573 0.845627C3.71165 1.68236 3.4394 1.95229 3.06093 2.32747C-1.01767 6.40601 -1.01767 13.0423 3.06074 17.1207L15.8671 29.9338C19.9552 34.022 26.572 34.0223 30.6605 29.9338L32.1523 28.442C33.2833 27.311 33.2833 25.4707 32.1523 24.3397ZM5.9202 2.21603C6.29719 1.83904 6.91053 1.83898 7.28874 2.21706L11.39 6.30546C11.7679 6.68335 11.7679 7.29495 11.39 7.6729L10.7062 8.35662L5.23996 2.89034L5.9202 2.21603ZM17.2348 28.5665L4.42837 15.7533C1.27287 12.5978 1.09942 7.64299 3.89495 4.28028L9.34538 9.7307C7.91323 11.3542 7.97291 13.8281 9.52501 15.3802L17.6072 23.4692C17.6073 23.4692 17.6074 23.4694 17.6074 23.4694C19.1579 25.0199 21.6317 25.0835 23.2572 23.6494L28.7077 29.0999C25.3557 31.8906 20.412 31.7437 17.2348 28.5665ZM30.7849 27.0745L30.1011 27.7583L24.6313 22.2884L25.315 21.6047C25.692 21.2277 26.3054 21.2277 26.6825 21.6047L30.7848 25.7071C31.1619 26.0842 31.1619 26.6976 30.7849 27.0745Z" fill="#501E50"/>
</g>
<defs>
<clipPath id="clip0">
<rect width="33" height="33" fill="white"/>
</clipPath>
</defs>
</svg>
