<svg width="65" height="65" viewBox="0 0 65 65" fill="none" xmlns="http://www.w3.org/2000/svg">
<path d="M62.7069 18.0417C60.695 14.1414 57.2841 11.2577 53.1026 9.92268C50.9806 9.24477 48.803 9.00673 46.6156 9.20906C44.2317 3.79223 38.8134 0 32.5253 0C26.2371 0 20.8188 3.79223 18.435 9.20956C16.2455 9.00623 14.0665 9.24477 11.9425 9.92268C3.31168 12.6789 -1.46791 21.9431 1.28786 30.5739C2.62286 34.7549 5.50658 38.1658 9.40691 40.1782C11.7709 41.3976 14.3368 42.015 16.9224 42.015C17.0782 42.015 17.2339 42.0106 17.3896 42.0061L17.8637 45.6635C17.9678 46.4673 18.8223 46.9826 19.5835 46.6954L21.3608 46.025C22.9329 49.6223 21.7119 54.147 18.5044 56.1911C17.9624 56.5368 17.7595 57.2564 18.0437 57.8336C18.376 58.5075 19.2443 58.7525 19.8791 58.3479C24.1558 55.6218 25.7754 49.8663 23.7586 45.1199L25.2468 44.5586C25.6123 44.4207 25.895 44.1232 26.0135 43.7507C26.1325 43.3783 26.0745 42.9716 25.8558 42.6478L24.2654 40.2858C26.0705 39.3902 27.6897 38.1722 29.0539 36.6805L28.2515 40.0775C28.1618 40.4579 28.251 40.8586 28.4935 41.165C28.736 41.4715 29.1055 41.6505 29.4963 41.6505H31.2463V63.721C31.2463 64.4178 31.8285 65 32.5253 65C33.2225 65 33.8042 64.4183 33.8042 63.721V41.6505H35.5493C35.9401 41.6505 36.3096 41.4715 36.5521 41.165C36.7951 40.8586 36.8838 40.4579 36.7941 40.0775L35.9917 36.68C37.044 37.8305 38.2491 38.8169 39.5727 39.6198L37.5335 42.6478C37.0713 43.3332 37.3926 44.2665 38.1494 44.561C38.5362 44.7118 38.926 44.8541 39.3138 45.0004C39.4665 45.0579 39.6188 45.1155 39.7715 45.1735C39.4482 47.6788 40.0408 50.1931 41.4621 52.3047C42.9806 54.5601 45.2826 56.1118 47.9436 56.6737C48.6394 56.8209 49.3386 56.3498 49.4661 55.6506C49.5881 54.9786 49.1398 54.3121 48.4718 54.1713C44.6314 53.3605 42.0547 49.9243 42.2545 46.1103L43.8058 46.6954C44.5665 46.9826 45.4214 46.4678 45.5256 45.6635L46.017 41.8732C46.7113 41.9625 47.4051 42.0086 48.0939 42.0086C55.0525 42.0086 61.5306 37.5489 63.7577 30.5739C65.0927 26.3929 64.7198 21.9421 62.7069 18.0417ZM32.5253 2.55741C38.0567 2.55741 42.7817 6.07689 44.5789 10.9933C44.9012 11.9802 45.1631 12.9626 45.2746 13.9981C45.3832 15.0053 45.3644 16.0209 45.2588 17.0276C45.1973 17.6143 45.1075 18.1979 44.9949 18.7772C44.4063 21.7844 43.1269 25.0842 41.4125 27.8637C39.0693 31.6624 36.2377 34.014 33.5067 34.4757C32.8506 34.5848 32.19 34.5838 31.534 34.4742C28.8059 34.0081 25.9783 31.6579 23.6381 27.8637C21.399 24.2332 19.9014 19.7149 19.7164 16.1211C19.6326 14.4613 19.8498 12.7995 20.3894 11.2259C22.1216 6.18797 26.9071 2.55741 32.5253 2.55741ZM19.9331 41.7334C20.5758 41.6143 21.2141 41.4552 21.8379 41.2603L22.8317 42.7361L20.1925 43.7319L19.9331 41.7334ZM21.9401 38.5174C21.3544 38.7143 20.7727 38.924 20.1707 39.0683C19.5716 39.2117 18.9626 39.3084 18.3512 39.3813C15.6931 39.658 13.0097 39.1591 10.5797 37.9049C7.2864 36.2059 4.85148 33.3262 3.72427 29.7958C1.39746 22.5084 5.43318 14.6864 12.7206 12.3591C14.1022 11.9177 15.5111 11.6965 16.9299 11.6965C17.1471 11.6965 17.3643 11.702 17.581 11.7124C17.1843 13.3281 17.0658 15.0003 17.1873 16.6581C17.4754 20.6219 19.0578 25.3093 21.461 29.2062C23.098 31.8603 24.9468 33.8925 26.9046 35.2335C25.5111 36.6751 23.824 37.7914 21.9401 38.5174ZM31.1119 39.0926L31.5905 37.0668C32.2094 37.1358 32.8362 37.1358 33.4551 37.0673L33.9332 39.0926H31.1119ZM43.5052 41.35L43.1968 43.7319L40.557 42.7361L41.8747 40.7797C42.4088 40.9964 42.9518 41.1889 43.5052 41.35ZM61.3208 29.7958C59.1259 36.6701 52.0413 40.6493 45.1283 39.1259C44.0329 38.8844 42.9835 38.5045 41.9724 38.0215C40.5432 37.3198 39.2503 36.3805 38.143 35.2354C40.1018 33.8945 41.9515 31.8618 43.5895 29.2062C45.5484 26.0299 46.9612 22.3284 47.5732 18.9215C48.3235 18.6046 49.113 18.4424 49.9233 18.4424C50.6295 18.4424 51.2023 17.8696 51.2023 17.1635C51.2023 16.4573 50.6295 15.885 49.9233 15.885C49.234 15.885 48.5561 15.9688 47.8945 16.1305C47.96 14.6452 47.8226 13.1565 47.4671 11.7119C49.1041 11.6341 50.7326 11.8508 52.325 12.3591C55.8554 13.4863 58.7351 15.9212 60.4341 19.2146C62.1331 22.5079 62.4485 26.2654 61.3208 29.7958Z" fill="#501E50"/>
<path d="M32.525 6.83574C35.802 6.83574 38.7423 8.66664 40.1983 11.6148C40.4209 12.0656 40.8747 12.3275 41.3458 12.3275C41.5357 12.3275 41.7291 12.2848 41.9111 12.195C42.5444 11.8821 42.8043 11.1154 42.4914 10.4822C40.6014 6.65523 36.7824 4.27783 32.525 4.27783C31.8189 4.27783 31.2461 4.85011 31.2461 5.55679C31.2461 6.26296 31.8189 6.83574 32.525 6.83574Z" fill="#501E50"/>
<path d="M42.1742 14.8332C41.5692 14.9557 41.1249 15.5086 41.1452 16.128C41.1655 16.7439 41.6446 17.2745 42.2565 17.3544C42.7941 17.4248 43.3416 17.1332 43.5737 16.6423C43.7492 16.2718 43.7244 15.829 43.53 15.4709C43.2677 14.9884 42.7157 14.7236 42.1742 14.8332Z" fill="#501E50"/>
</svg>
