<svg width="64" height="64" viewBox="0 0 64 64" fill="none" xmlns="http://www.w3.org/2000/svg">
<g clip-path="url(#clip0)">
<path d="M54.8854 18.1842C52.0309 16.8433 48.1505 15.7891 43.6182 15.1178L41.8551 3.12554C41.713 2.15923 41.2027 1.3062 40.419 0.723192C39.6353 0.140672 38.6715 -0.102493 37.7051 0.0395971L21.8247 2.37505C19.8296 2.66851 18.4453 4.52984 18.7388 6.52496L20.0152 15.2047C9.95948 16.7774 4 20.0665 4 24.0934C4 27.004 7.02051 29.503 12.7354 31.3194C13.1851 31.4625 13.648 31.5997 14.1226 31.7311V59.9469C14.1226 60.6462 14.5659 61.2155 15.1157 61.6003C15.9453 62.1818 16.9702 62.4787 17.9419 62.7204C19.2954 63.0578 20.6802 63.2721 22.0635 63.444C23.5391 63.6276 25.0215 63.7526 26.5054 63.8405C28.1631 63.9382 29.8233 63.988 31.4839 63.9982C33.1631 64.0085 34.8428 63.9782 36.5206 63.9015C38.0538 63.8322 39.586 63.7248 41.1119 63.5622C42.502 63.4147 43.8907 63.2248 45.2613 62.9455C46.3863 62.7165 47.547 62.4426 48.5728 61.9094C49.171 61.5983 49.7701 61.1535 49.9893 60.4875C50.046 60.3156 50.0807 60.1281 50.0807 59.9469V31.7316C50.5548 31.5997 51.0182 31.4625 51.4679 31.3199C57.1827 29.503 60.2032 27.0045 60.2032 24.0938C60.2032 22.5367 59.2809 20.2481 54.8854 18.1842ZM21.5786 25.8907C18.4864 25.3106 17.1319 24.6144 16.7188 24.2613C17.105 23.9229 18.3189 23.2818 21.1099 22.7169L21.5786 25.8907ZM45.1168 25.3077L44.795 23.1207C46.4107 23.5689 47.1891 24.0089 47.4825 24.2623C47.2115 24.4933 46.5211 24.8907 45.1168 25.3077ZM22.188 4.84527L38.0684 2.51031C38.7012 2.41656 39.2911 2.85601 39.3843 3.48882L41.2598 16.2447C41.2608 16.2974 41.2647 16.3507 41.2725 16.4039L42.0426 21.627C42.044 21.6392 42.044 21.6519 42.046 21.6642L42.6671 25.8629C39.7178 26.4137 36.0206 26.7135 32.1016 26.7135C29.3082 26.7135 26.586 26.5582 24.1651 26.2623L21.2095 6.16168C21.1162 5.52887 21.5552 4.93853 22.188 4.84527ZM47.5836 36.5094C47.2364 36.7228 46.0811 37.2633 42.8004 37.7389C39.8326 38.1691 36.0328 38.4059 32.1016 38.4059C31.3848 38.4059 30.6656 38.3981 29.9634 38.3829C29.2759 38.3737 28.7032 38.9147 28.688 39.6036C28.6729 40.2931 29.2198 40.8644 29.9087 40.8795C30.629 40.8951 31.3668 40.903 32.1016 40.903C36.6378 40.903 40.9137 40.6022 44.1402 40.0563C45.5562 39.817 46.6959 39.547 47.5836 39.2335V59.6061C47.276 59.7951 46.9254 59.9191 46.5841 60.0314C45.7745 60.2975 44.9356 60.4748 44.0977 60.6261C41.6739 61.0641 39.2061 61.2682 36.7481 61.3903C33.9839 61.5275 31.212 61.5402 28.4463 61.4338C25.9639 61.3386 23.4756 61.1574 21.0191 60.7785C20.024 60.6252 19.0279 60.4426 18.0591 60.1657C17.6158 60.0397 17.166 59.8981 16.7564 59.6833C16.71 59.6589 16.6641 59.6335 16.6192 59.6061V39.233C17.4361 39.5206 18.4649 39.7726 19.7281 39.9982C20.4068 40.1198 21.0557 39.6676 21.1768 38.9889C21.2984 38.3102 20.8462 37.6613 20.1675 37.5402C17.8184 37.1202 16.9185 36.693 16.6192 36.5094V32.3487C18.5913 32.7814 20.5874 33.1012 22.5918 33.3385C24.6377 33.5797 26.6929 33.7335 28.751 33.8136C30.7383 33.8917 32.7281 33.8986 34.7159 33.839C36.7618 33.7775 38.8057 33.6437 40.8409 33.4249C42.8551 33.2086 44.8614 32.9112 46.8463 32.505C47.0924 32.4547 47.338 32.4029 47.5836 32.3487V36.5094ZM50.7115 28.94C50.0206 29.1598 49.2965 29.3649 48.545 29.5567C48.5382 29.5582 48.5318 29.5587 48.5255 29.5602C44.1905 30.6593 38.8038 31.2965 33.2462 31.3736C33.2188 31.3741 33.1915 31.3741 33.1641 31.3746C32.8106 31.379 32.4561 31.3819 32.1016 31.3819C31.7466 31.3819 31.3926 31.379 31.0391 31.3746C31.0118 31.3741 30.9844 31.3741 30.9571 31.3736C25.3995 31.2965 20.0127 30.6593 15.6778 29.5602C15.6714 29.5587 15.6646 29.5582 15.6582 29.5567C14.9063 29.3649 14.1826 29.1598 13.4917 28.94C9.17726 27.5685 6.49708 25.7115 6.49708 24.0938C6.49708 21.9444 11.2554 19.1134 20.3682 17.6768L20.7466 20.2433C16.2935 21.1217 14.1221 22.441 14.1221 24.2638C14.1221 26.0831 16.3037 26.9522 17.0205 27.2374C18.4458 27.8053 20.4742 28.2892 22.8863 28.6358H22.8877H22.8882C25.5957 29.0201 28.7813 29.2232 32.1016 29.2232C36.7423 29.2232 41.0928 28.8194 44.3516 28.0856C44.3526 28.0856 44.3531 28.0856 44.3536 28.0851C44.3546 28.0851 44.3555 28.0851 44.356 28.0846C48.2618 27.1905 50.0807 25.9762 50.0807 24.2638C50.0807 22.5782 48.2198 21.3263 44.4019 20.4464L43.9981 17.7027C53.006 19.1451 57.7062 21.9464 57.7062 24.0938C57.7062 25.7115 55.026 27.5685 50.7115 28.94Z" fill="#501E50"/>
<path d="M26.095 38.9084C25.8938 38.4167 25.3826 38.1027 24.8528 38.1408C24.3352 38.1784 23.885 38.5446 23.7425 39.0432C23.5984 39.5451 23.7923 40.0959 24.2161 40.4006C24.6331 40.7004 25.2083 40.7087 25.6355 40.424C26.1248 40.0988 26.3211 39.4504 26.095 38.9084Z" fill="#501E50"/>
<path d="M32.0857 22.6213C32.3723 22.7692 32.657 22.7687 32.9675 22.7272C33.2459 22.6906 33.5022 22.5798 33.7058 22.383C38.0398 18.1921 38.0325 15.4636 37.8821 14.6047C37.8801 14.5861 37.8777 14.568 37.8753 14.5495C37.8748 14.5485 37.8748 14.5471 37.8748 14.5461C37.7185 13.4865 37.1594 12.5505 36.2996 11.9113C35.4397 11.2721 34.3826 11.0055 33.3225 11.1618C32.595 11.2682 31.9182 11.5739 31.3601 12.0334C30.6936 11.7541 29.9573 11.6564 29.2297 11.7634C28.1697 11.9191 27.2341 12.4787 26.5945 13.3381C25.9705 14.1769 25.7019 15.2043 25.8342 16.2385C25.8757 17.0119 26.4504 19.7121 32.0857 22.6213ZM28.5984 14.8283C28.8953 14.4289 29.3782 14.1989 29.8753 14.2184C30.1277 14.2282 30.3743 14.3034 30.5901 14.4343C30.8167 14.5715 30.9895 14.7492 31.2522 14.8244C31.7327 14.9611 32.263 14.7902 32.573 14.3981C32.7229 14.2092 32.844 14.0246 33.0462 13.8835C33.2361 13.7512 33.4573 13.6652 33.6863 13.632C34.1975 13.5578 34.7205 13.7531 35.0574 14.1457C35.28 14.405 35.3816 14.715 35.4246 15.049C35.4456 15.2165 35.4187 15.3952 35.388 15.5597C35.3054 16.0016 35.135 16.426 34.9353 16.8268C34.5735 17.5534 34.0989 18.2219 33.5862 18.8488C33.4133 19.0598 33.2351 19.2668 33.053 19.4694C32.9592 19.5734 32.864 19.6769 32.7683 19.779C32.7127 19.8381 32.657 19.8972 32.6008 19.9558C32.5881 19.9684 32.5427 20.0256 32.532 20.027C32.5139 20.03 32.4187 19.9636 32.4026 19.9543C31.9182 19.6794 31.4436 19.3864 30.9866 19.0681C30.3489 18.6237 29.7361 18.1301 29.2141 17.5515C28.718 17.0012 28.2127 16.3239 28.3108 15.5412C28.343 15.2834 28.4436 15.0363 28.5984 14.8283Z" fill="#501E50"/>
<path d="M36.2995 8.12328C36.3908 8.74438 36.924 9.19067 37.5329 9.19067C37.5935 9.19067 37.655 9.18627 37.7165 9.17699C38.3987 9.0769 38.8703 8.44262 38.7698 7.76L38.3142 4.66136C38.2141 3.97923 37.5793 3.50804 36.8972 3.60813C36.2151 3.70823 35.7434 4.343 35.8435 5.02513L36.2995 8.12328Z" fill="#501E50"/>
</g>
<defs>
<clipPath id="clip0">
<rect width="64" height="64" fill="white"/>
</clipPath>
</defs>
</svg>
