<svg width="64" height="64" viewBox="0 0 64 64" fill="none" xmlns="http://www.w3.org/2000/svg">
<g clip-path="url(#clip0)">
<path d="M30.6561 49.9392L29.5394 45.5808C29.368 44.9118 28.6874 44.509 28.0189 44.6799C27.35 44.8513 26.9467 45.5319 27.118 46.2009L28.2342 50.5593C28.3788 51.1237 28.8871 51.4992 29.4442 51.4992C29.5467 51.4992 29.6512 51.4865 29.7552 51.4602C30.4242 51.2888 30.8275 50.6076 30.6561 49.9392Z" fill="#501E50"/>
<path d="M27.5499 42.1686C28.0396 41.965 28.3516 41.4626 28.3184 40.9338C28.2852 40.404 27.9063 39.946 27.3951 39.8078C26.921 39.6799 26.3971 39.8527 26.0929 40.238C25.7677 40.6491 25.7359 41.2292 26.0103 41.6745C26.3267 42.1877 26.9942 42.4006 27.5499 42.1686Z" fill="#501E50"/>
<path d="M58.6459 30.6836L57.0853 26.1617C55.557 21.7349 50.9603 19.1758 46.392 20.2085C43.9037 20.771 41.8177 22.2906 40.5194 24.4869C39.2211 26.6831 38.8954 29.2432 39.6019 31.6949L45.2528 51.2998C46.4178 55.3418 44.2269 59.6153 40.265 61.0288C38.2006 61.7652 35.9838 61.6324 34.0218 60.6543C32.3798 59.836 31.1044 58.5161 30.348 56.8809C33.495 56.0249 35.3871 52.7867 34.5726 49.6187L30.288 32.9512C30.287 32.9468 30.286 32.9424 30.285 32.938L28.0839 24.3765C28.9266 23.5332 29.6698 22.5791 30.2924 21.5259C32.2303 18.2461 32.7757 14.4078 31.827 10.7178C31.827 10.7168 31.8265 10.7159 31.8265 10.7154C31.8251 10.7095 31.8236 10.7036 31.8216 10.6983C30.87 7.01713 28.5438 3.92484 25.2699 1.98978C21.9906 0.0517931 18.1522 -0.493617 14.4623 0.455114C7.39489 2.27201 2.92223 9.1099 3.87828 16.1719C3.87926 16.1802 3.88024 16.1895 3.8817 16.1983C3.95592 16.7383 4.06041 17.2798 4.19957 17.8203C5.50035 22.8809 9.37535 26.6094 14.0633 27.9693L20.5546 53.2222C21.2484 55.9204 23.6854 57.7168 26.3514 57.7168C26.8426 57.7168 27.3426 57.6558 27.8402 57.5279L27.8968 57.5132C28.8592 59.8565 30.6102 61.7466 32.9066 62.8916C34.3851 63.6285 35.974 64 37.5721 64C38.7582 64 39.9501 63.795 41.1049 63.3833C46.308 61.5274 49.1849 55.9156 47.6551 50.6075L42.0038 31.0025C41.4896 29.2188 41.7269 27.357 42.6713 25.7588C43.6156 24.1612 45.1332 23.0557 46.9432 22.6465C50.2665 21.8955 53.6107 23.7569 54.722 26.9776L56.2826 31.4991C56.5077 32.1519 57.2196 32.4976 57.8719 32.273C58.5248 32.0474 58.871 31.336 58.6459 30.6836ZM15.0843 2.8765C16.0629 2.62455 17.0448 2.50443 18.0116 2.50443C22.9564 2.50443 27.5008 5.65189 29.1424 10.4639C22.9955 14.1114 17.0331 15.128 13.0433 15.3252C9.90563 15.48 7.47936 15.1685 6.26989 14.959C5.94469 9.4556 9.54967 4.29886 15.0843 2.8765ZM6.72057 17.5611C7.84508 17.7173 9.42028 17.8672 11.3334 17.8672C11.8832 17.8672 12.4613 17.855 13.0638 17.8267C17.2123 17.6333 23.3392 16.6202 29.7123 13.022C29.9847 15.5284 29.4457 18.045 28.1405 20.2539C27.5199 21.3037 26.7538 22.2334 25.8729 23.0259C25.2123 23.5967 24.5189 24.1138 23.7552 24.5401C22.9725 24.9771 22.139 25.3199 21.2787 25.5713C20.7811 25.7168 20.2738 25.8301 19.7601 25.9024C13.9955 26.773 8.37291 23.2373 6.72057 17.5611ZM18.0155 28.5337C20.2196 28.5332 22.4232 28.0108 24.3964 27.0284C24.9335 26.7613 25.4535 26.4595 25.9525 26.126L27.6283 32.6446C26.3026 33.3706 25.0067 33.8545 23.1698 34.3267C21.62 34.7251 20.0331 34.9414 18.4452 34.9761L16.7753 28.4795C17.1879 28.5142 17.6014 28.5337 18.0155 28.5337ZM22.9759 52.5996L19.0824 37.4541C20.6669 37.3799 22.2465 37.1451 23.7919 36.7481C25.5731 36.2901 26.9418 35.8013 28.2679 35.1324L32.1517 50.2412V50.2408C32.6302 52.1016 31.5057 54.0049 29.6449 54.4829L27.2181 55.107C25.3573 55.585 23.454 54.4605 22.9759 52.5996Z" fill="#501E50"/>
<path d="M60.3345 35.6106C60.229 35.0975 59.8071 34.6937 59.2871 34.618C58.7642 34.5423 58.2393 34.8157 57.998 35.2845C57.7593 35.7483 57.8398 36.3284 58.1968 36.7098C58.5488 37.0857 59.1108 37.2049 59.5859 37.0091C60.1304 36.785 60.4497 36.1878 60.3345 35.6106Z" fill="#501E50"/>
</g>
<defs>
<clipPath id="clip0">
<rect width="64" height="64" fill="white"/>
</clipPath>
</defs>
</svg>
