<svg width="80" height="80" viewBox="0 0 80 80" fill="none" xmlns="http://www.w3.org/2000/svg">
<path d="M76.3641 69.5765H74.2648V20.8494C75.0169 20.2054 75.4947 19.2501 75.4947 18.1846C75.4947 16.5827 74.4154 15.2291 72.9461 14.8102V11.398C73.4737 10.9274 73.9001 10.3347 74.1794 9.64753C74.423 9.04784 74.1344 8.3644 73.5348 8.1208C72.9353 7.87705 72.2515 8.1658 72.0081 8.76534C71.6422 9.66612 70.7773 10.2482 69.805 10.2482C68.4945 10.2482 67.4284 9.18206 67.4284 7.87158C67.4284 6.56111 68.4945 5.49501 69.805 5.49501C70.2236 5.49501 70.6343 5.60486 70.9932 5.81267C71.5534 6.1372 72.2703 5.94595 72.5947 5.38595C72.919 4.82595 72.7279 4.10891 72.1679 3.78454C71.4525 3.37032 70.6354 3.15125 69.805 3.15125C67.2021 3.15125 65.0846 5.26876 65.0846 7.87158C65.0846 9.26909 65.6956 10.526 66.6637 11.3911V13.7857C66.1042 13.3641 65.4104 13.1118 64.657 13.1118C63.9299 13.1118 63.2579 13.3461 62.7087 13.7413C62.4988 13.6921 61.3532 13.04 59.532 14.561C53.9747 19.2019 47.2403 22.1173 40.0002 22.1173C32.76 22.1173 25.8234 19.4337 20.4684 14.5608C19.5788 13.7516 18.384 13.486 17.2932 13.7424C16.7438 13.3464 16.071 13.1116 15.3433 13.1116C14.4999 13.1116 13.7304 13.4268 13.1416 13.9435V11.5555C14.2219 10.6897 14.9157 9.36034 14.9157 7.87127C14.9157 5.26845 12.7982 3.15094 10.1954 3.15094C7.59253 3.15094 5.47502 5.26845 5.47502 7.87127C5.47502 9.26878 6.08596 10.5257 7.05409 11.3908V14.81C5.58487 15.229 4.50549 16.5826 4.50549 18.1844C4.50549 19.2499 4.98346 20.2052 5.73534 20.8493V69.5764H3.63626C1.63126 69.5765 0 71.2078 0 73.2128C0 75.2178 1.63126 76.8489 3.63626 76.8489H16.7546C18.7596 76.8489 20.3907 75.2178 20.3907 73.2128C20.3907 71.2078 18.7596 69.5765 16.7546 69.5765H14.6552V20.8494C14.9947 20.5587 15.278 20.2044 15.4869 19.8052C15.579 19.8012 19.506 22.8571 21.5759 24.0891C22.1321 24.4201 22.8512 24.2376 23.1823 23.6815C23.5134 23.1254 23.3309 22.4062 22.7746 22.0751C20.8306 20.9179 18.9932 19.5562 17.3135 18.0279C17.0821 17.8172 16.6216 17.1602 17.2354 16.3726C17.6326 15.8629 18.413 15.8596 18.8909 16.2944C24.6785 21.5607 32.1751 24.4609 40.0002 24.4609C47.8252 24.4609 55.3218 21.5605 61.1095 16.2943C61.341 16.0836 62.2068 15.6957 62.7648 16.3724C63.3227 17.0491 62.9182 17.8171 62.6866 18.0277C56.4668 23.6877 48.4099 26.8046 40.0002 26.8046C35.5065 26.8046 31.1348 25.9301 27.0067 24.2054C26.4093 23.956 25.7232 24.2379 25.4735 24.8349C25.224 25.4321 25.5059 26.1185 26.1031 26.3681C30.519 28.2131 35.1947 29.1484 40 29.1484C48.9836 29.1484 57.5907 25.8224 64.2398 19.7827C64.5548 20.3926 64.8837 20.6582 65.3448 20.8493V65.4585C65.3448 66.1057 65.8695 66.6304 66.5167 66.6304C67.1639 66.6304 67.6885 66.1057 67.6885 65.4585V21.6937H71.9207V69.5765H63.2454C61.2404 69.5765 59.6093 71.2078 59.6093 73.2128C59.6093 75.2178 61.2404 76.8489 63.2454 76.8489H76.3637C78.3687 76.8489 80 75.2178 80 73.2128C80 71.2078 78.3691 69.5765 76.3641 69.5765ZM10.1954 5.4947C11.5058 5.4947 12.5719 6.5608 12.5719 7.87127C12.5719 9.18174 11.5058 10.2478 10.1954 10.2478C8.88488 10.2478 7.81878 9.18174 7.81878 7.87127C7.81878 6.56095 8.88488 5.4947 10.1954 5.4947ZM10.7977 12.5519V14.6754H9.39785V12.523C9.65738 12.5674 10.6004 12.5772 10.7977 12.5519ZM8.01472 17.0191H12.3761C13.0188 17.0191 13.5415 17.5419 13.5415 18.1844C13.5415 18.8269 13.0186 19.3498 12.3761 19.3498H8.01472C7.37222 19.3498 6.8494 18.8269 6.8494 18.1844C6.8494 17.5419 7.37222 17.0191 8.01472 17.0191ZM12.3115 21.6937V69.5765H8.07925V21.6937H12.3115ZM16.7546 71.9203C17.4673 71.9203 18.0469 72.5001 18.0469 73.2128C18.0469 73.9254 17.4673 74.5051 16.7546 74.5051H3.63626C2.92361 74.5051 2.34376 73.9254 2.34376 73.2128C2.34376 72.5001 2.92361 71.9203 3.63626 71.9203H16.7546ZM69.0075 12.523C69.2668 12.5674 70.342 12.5666 70.6025 12.5225V14.6754H69.0075V12.523ZM67.6242 19.3499C66.9815 19.3499 66.4589 18.8271 66.4589 18.1846C66.4589 17.5419 66.9817 17.0193 67.6242 17.0193H71.9856C72.6281 17.0193 73.1509 17.5421 73.1509 18.1846C73.1509 18.8271 72.6281 19.3499 71.9856 19.3499H67.6242ZM76.3641 74.5053H63.2457C62.5331 74.5053 61.9534 73.9256 61.9534 73.2129C61.9534 72.5003 62.5331 71.9204 63.2457 71.9204H76.3641C77.0767 71.9204 77.6566 72.5003 77.6566 73.2129C77.6566 73.9256 77.0767 74.5053 76.3641 74.5053Z" fill="#501E50"/>
</svg>
