<svg width="1730" height="1494" viewBox="0 0 1730 1494" fill="none" xmlns="http://www.w3.org/2000/svg">
<mask id="path-1-inside-1" fill="white">
<path fill-rule="evenodd" clip-rule="evenodd" d="M96.0392 116.961H82.9608V130.039H96.0392V116.961ZM75 109V138H104V109H75Z"/>
</mask>
<path fill-rule="evenodd" clip-rule="evenodd" d="M96.0392 116.961H82.9608V130.039H96.0392V116.961ZM75 109V138H104V109H75Z" fill="white"/>
<path d="M82.9608 116.961V102.961H68.9608V116.961H82.9608ZM96.0392 116.961H110.039V102.961H96.0392V116.961ZM82.9608 130.039H68.9608V144.039H82.9608V130.039ZM96.0392 130.039V144.039H110.039V130.039H96.0392ZM75 109V95H61V109H75ZM75 138H61V152H75V138ZM104 138V152H118V138H104ZM104 109H118V95H104V109ZM82.9608 130.961H96.0392V102.961H82.9608V130.961ZM96.9608 130.039V116.961H68.9608V130.039H96.9608ZM96.0392 116.039H82.9608V144.039H96.0392V116.039ZM82.0392 116.961V130.039H110.039V116.961H82.0392ZM75 123H104V95H75V123ZM89 138V109H61V138H89ZM104 124H75V152H104V124ZM90 109V138H118V109H90Z" fill="white" mask="url(#path-1-inside-1)"/>
<path fill-rule="evenodd" clip-rule="evenodd" d="M1561.04 776.961H1547.96V790.039H1561.04V776.961ZM1540 769V798H1569V769H1540Z" fill="#F22C2C"/>
<path fill-rule="evenodd" clip-rule="evenodd" d="M132.451 446.549H108.549V470.451H132.451V446.549ZM94 432V485H147V432H94Z" fill="#F22C2C"/>
<rect x="1410" y="448" width="10" height="10" fill="white"/>
<rect x="137" y="902" width="10" height="10" fill="#F22C2C"/>
<rect x="1720" width="10" height="10" fill="#F22C2C"/>
<path d="M482.337 47.56L477 57.4534L496.348 79.0941L501.684 69.2008L482.337 47.56Z" fill="#F22C2C"/>
<path d="M1642.34 1461.64L1637 1471.53L1656.35 1493.17L1661.68 1483.28L1642.34 1461.64Z" fill="#F22C2C"/>
<path d="M5.33658 1124.68L0 1134.57L19.3477 1156.21L24.6842 1146.32L5.33658 1124.68Z" fill="white"/>
<path fill-rule="evenodd" clip-rule="evenodd" d="M1607.45 179.549H1583.55V203.451H1607.45V179.549ZM1569 165V218H1622V165H1569Z" fill="white"/>
</svg>
