<svg width="1678" height="459" viewBox="0 0 1678 459" fill="none" xmlns="http://www.w3.org/2000/svg">
<mask id="path-1-inside-1" fill="white">
<path fill-rule="evenodd" clip-rule="evenodd" d="M44.0392 116.961H30.9608L30.9608 130.039H44.0392V116.961ZM23 109L23 138H52L52 109H23Z"/>
</mask>
<path fill-rule="evenodd" clip-rule="evenodd" d="M44.0392 116.961H30.9608L30.9608 130.039H44.0392V116.961ZM23 109L23 138H52L52 109H23Z" fill="white"/>
<path d="M30.9608 116.961V102.961L16.9608 102.961V116.961L30.9608 116.961ZM44.0392 116.961H58.0392V102.961H44.0392L44.0392 116.961ZM30.9608 130.039H16.9608V144.039H30.9608V130.039ZM44.0392 130.039V144.039H58.0392V130.039L44.0392 130.039ZM23 109L23 95H9L9 109H23ZM23 138H9L9 152H23L23 138ZM52 138L52 152H66V138H52ZM52 109L66 109V95L52 95V109ZM30.9608 130.961H44.0392L44.0392 102.961H30.9608L30.9608 130.961ZM44.9608 130.039V116.961L16.9608 116.961L16.9608 130.039L44.9608 130.039ZM44.0392 116.039L30.9608 116.039L30.9608 144.039L44.0392 144.039L44.0392 116.039ZM30.0392 116.961L30.0392 130.039L58.0392 130.039L58.0392 116.961H30.0392ZM23 123H52V95H23L23 123ZM37 138L37 109H9L9 138H37ZM52 124H23L23 152H52L52 124ZM38 109L38 138H66V109L38 109Z" fill="white" mask="url(#path-1-inside-1)"/>
<path fill-rule="evenodd" clip-rule="evenodd" d="M1546.04 181.961H1532.96V195.039H1546.04V181.961ZM1525 174V203H1554V174H1525Z" fill="#F22C2C"/>
<path fill-rule="evenodd" clip-rule="evenodd" d="M38.451 398.549H14.549L14.549 422.451H38.451V398.549ZM0 384L0 437H53L53 384H0Z" fill="#F22C2C"/>
<rect x="215" y="142" width="10" height="10" fill="#F22C2C"/>
<rect x="1668" width="10" height="10" fill="#F22C2C"/>
<mask id="path-7-inside-2" fill="white">
<path fill-rule="evenodd" clip-rule="evenodd" d="M1599.96 451.039H1613.04V437.961H1599.96V451.039ZM1621 459V430H1592V459H1621Z"/>
</mask>
<path fill-rule="evenodd" clip-rule="evenodd" d="M1599.96 451.039H1613.04V437.961H1599.96V451.039ZM1621 459V430H1592V459H1621Z" fill="white"/>
<path d="M1613.04 451.039V465.039H1627.04V451.039H1613.04ZM1599.96 451.039H1585.96V465.039H1599.96V451.039ZM1613.04 437.961H1627.04V423.961H1613.04V437.961ZM1599.96 437.961V423.961H1585.96V437.961H1599.96ZM1621 459V473H1635V459H1621ZM1621 430H1635V416H1621V430ZM1592 430V416H1578V430H1592ZM1592 459H1578V473H1592V459ZM1613.04 437.039H1599.96V465.039H1613.04V437.039ZM1599.04 437.961V451.039H1627.04V437.961H1599.04ZM1599.96 451.961H1613.04V423.961H1599.96V451.961ZM1613.96 451.039V437.961H1585.96V451.039H1613.96ZM1621 445H1592V473H1621V445ZM1607 430V459H1635V430H1607ZM1592 444H1621V416H1592V444ZM1606 459V430H1578V459H1606Z" fill="white" mask="url(#path-7-inside-2)"/>
</svg>
