<svg width="1730" height="1048" viewBox="0 0 1730 1048" fill="none" xmlns="http://www.w3.org/2000/svg">
<mask id="path-1-inside-1" fill="white">
<path fill-rule="evenodd" clip-rule="evenodd" d="M1633.96 901.938H1647.04V888.859H1633.96V901.938ZM1655 909.899V880.899H1626V909.899H1655Z"/>
</mask>
<path fill-rule="evenodd" clip-rule="evenodd" d="M1633.96 901.938H1647.04V888.859H1633.96V901.938ZM1655 909.899V880.899H1626V909.899H1655Z" fill="white"/>
<path d="M1647.04 901.938V915.938H1661.04V901.938H1647.04ZM1633.96 901.938H1619.96V915.938H1633.96V901.938ZM1647.04 888.859H1661.04V874.859H1647.04V888.859ZM1633.96 888.859V874.859H1619.96V888.859H1633.96ZM1655 909.899V923.899H1669V909.899H1655ZM1655 880.899H1669V866.899H1655V880.899ZM1626 880.899V866.899H1612V880.899H1626ZM1626 909.899H1612V923.899H1626V909.899ZM1647.04 887.938H1633.96V915.938H1647.04V887.938ZM1633.04 888.859V901.938H1661.04V888.859H1633.04ZM1633.96 902.859H1647.04V874.859H1633.96V902.859ZM1647.96 901.938V888.859H1619.96V901.938H1647.96ZM1655 895.899H1626V923.899H1655V895.899ZM1641 880.899V909.899H1669V880.899H1641ZM1626 894.899H1655V866.899H1626V894.899ZM1640 909.899V880.899H1612V909.899H1640Z" fill="white" mask="url(#path-1-inside-1)"/>
<path fill-rule="evenodd" clip-rule="evenodd" d="M168.961 241.938H182.039V228.859H168.961V241.938ZM190 249.899V220.899H161V249.899H190Z" fill="#F22C2C"/>
<path fill-rule="evenodd" clip-rule="evenodd" d="M1597.55 572.35H1621.45V548.448H1597.55V572.35ZM1636 586.899V533.899H1583V586.899H1636Z" fill="#F22C2C"/>
<rect x="320" y="570.899" width="10" height="10" transform="rotate(-180 320 570.899)" fill="white"/>
<rect x="1593" y="116.899" width="10" height="10" transform="rotate(-180 1593 116.899)" fill="#F22C2C"/>
<rect x="10" y="1018.9" width="10" height="10" transform="rotate(-180 10 1018.9)" fill="#F22C2C"/>
<path d="M1691.35 1047.9L1696.68 1041.03L1677.34 1026L1672 1032.87L1691.35 1047.9Z" fill="#F22C2C"/>
<path d="M87.6634 21.8987L93 15.0283L73.6524 2.07424e-05L68.3158 6.87041L87.6634 21.8987Z" fill="#F22C2C"/>
<path d="M1724.66 255.899L1730 249.028L1710.65 234L1705.32 240.87L1724.66 255.899Z" fill="white"/>
<path fill-rule="evenodd" clip-rule="evenodd" d="M122.549 839.35H146.451V815.448H122.549V839.35ZM161 853.899V800.899H108V853.899H161Z" fill="white"/>
</svg>
