<svg width="1734" height="1198" viewBox="0 0 1734 1198" fill="none" xmlns="http://www.w3.org/2000/svg">
<mask id="path-1-inside-1" fill="white">
<path fill-rule="evenodd" clip-rule="evenodd" d="M1633.96 891.938H1647.04V878.859H1633.96V891.938ZM1655 899.899V870.899H1626V899.899H1655Z"/>
</mask>
<path fill-rule="evenodd" clip-rule="evenodd" d="M1633.96 891.938H1647.04V878.859H1633.96V891.938ZM1655 899.899V870.899H1626V899.899H1655Z" fill="white"/>
<path d="M1647.04 891.938V905.938H1661.04V891.938H1647.04ZM1633.96 891.938H1619.96V905.938H1633.96V891.938ZM1647.04 878.859H1661.04V864.859H1647.04V878.859ZM1633.96 878.859V864.859H1619.96V878.859H1633.96ZM1655 899.899V913.899H1669V899.899H1655ZM1655 870.899H1669V856.899H1655V870.899ZM1626 870.899V856.899H1612V870.899H1626ZM1626 899.899H1612V913.899H1626V899.899ZM1647.04 877.938H1633.96V905.938H1647.04V877.938ZM1633.04 878.859V891.938H1661.04V878.859H1633.04ZM1633.96 892.859H1647.04V864.859H1633.96V892.859ZM1647.96 891.938V878.859H1619.96V891.938H1647.96ZM1655 885.899H1626V913.899H1655V885.899ZM1641 870.899V899.899H1669V870.899H1641ZM1626 884.899H1655V856.899H1626V884.899ZM1640 899.899V870.899H1612V899.899H1640Z" fill="white" mask="url(#path-1-inside-1)"/>
<path fill-rule="evenodd" clip-rule="evenodd" d="M168.961 231.938H182.039V218.859H168.961V231.938ZM190 239.899V210.899H161V239.899H190Z" fill="#F22C2C"/>
<path fill-rule="evenodd" clip-rule="evenodd" d="M1597.55 562.35H1621.45V538.448H1597.55V562.35ZM1636 576.899V523.899H1583V576.899H1636Z" fill="#F22C2C"/>
<rect x="1593" y="106.899" width="10" height="10" transform="rotate(-180 1593 106.899)" fill="#F22C2C"/>
<rect x="10" y="1008.9" width="10" height="10" transform="rotate(-180 10 1008.9)" fill="#F22C2C"/>
<path d="M1695.07 1197.1L1700.42 1189.25L1681.03 1172.09L1675.68 1179.94L1695.07 1197.1Z" fill="#F22C2C"/>
<path d="M88.0449 25.247L93.3926 17.4L74.0046 0.235304L68.6569 8.08237L88.0449 25.247Z" fill="#F22C2C"/>
<path d="M1728.46 292.512L1733.8 284.665L1714.41 267.5L1709.07 275.347L1728.46 292.512Z" fill="white"/>
<path fill-rule="evenodd" clip-rule="evenodd" d="M122.549 829.35H146.451V805.448H122.549V829.35ZM161 843.899V790.899H108V843.899H161Z" fill="white"/>
</svg>
