<svg width="1573" height="675" viewBox="0 0 1573 675" fill="none" xmlns="http://www.w3.org/2000/svg">
<path d="M115.337 333.488L110 336.05L129.348 341.655L134.684 339.093L115.337 333.488Z" fill="white"/>
<path fill-rule="evenodd" clip-rule="evenodd" d="M94.0392 111.961H80.9608V125.039H94.0392V111.961ZM73 104V133H102V104H73Z" fill="#F22C2C"/>
<path fill-rule="evenodd" clip-rule="evenodd" d="M1529.04 639.961H1515.96V653.039H1529.04V639.961ZM1508 632V661H1537V632H1508Z" fill="#F22C2C"/>
<path fill-rule="evenodd" clip-rule="evenodd" d="M200.039 304.961H186.961V318.039H200.039V304.961ZM179 297V326H208V297H179Z" fill="white"/>
<path fill-rule="evenodd" clip-rule="evenodd" d="M1553.45 14.549H1529.55V38.451H1553.45V14.549ZM1515 0V53H1568V0H1515Z" fill="#F22C2C"/>
<rect x="1563" y="293" width="10" height="10" fill="#F22C2C"/>
<rect x="246" y="665" width="10" height="10" fill="#F22C2C"/>
<path d="M5.33658 411L0 415.292L19.3476 424.679L24.6842 420.388L5.33658 411Z" fill="#F22C2C"/>
<path d="M1412.34 17.1441L1407 21.4359L1426.35 30.8236L1431.68 26.5319L1412.34 17.1441Z" fill="#F22C2C"/>
</svg>
