<svg width="1700" height="2089" viewBox="0 0 1700 2089" fill="none" xmlns="http://www.w3.org/2000/svg">
<path fill-rule="evenodd" clip-rule="evenodd" d="M159.961 150.585H173.039V137.507H159.961V150.585ZM181 158.546V129.546H152V158.546H181Z" fill="#F22C2C"/>
<path fill-rule="evenodd" clip-rule="evenodd" d="M1588.55 480.997H1612.45V457.095H1588.55V480.997ZM1627 495.546V442.546H1574V495.546H1627Z" fill="#F22C2C"/>
<rect x="1584" y="25.5457" width="10" height="10" transform="rotate(-180 1584 25.5457)" fill="#F22C2C"/>
<path d="M1694.35 409.531L1699.68 398.631L1680.34 374.789L1675 385.689L1694.35 409.531Z" fill="#F22C2C"/>
<rect x="30" y="1156" width="10" height="10" transform="rotate(-180 30 1156)" fill="#F22C2C"/>
<rect x="1629" y="1288" width="10" height="10" transform="rotate(-180 1629 1288)" fill="#F22C2C"/>
<path fill-rule="evenodd" clip-rule="evenodd" d="M7.96078 1289.04H21.0392V1275.96H7.96078V1289.04ZM29 1297V1268H0V1297H29Z" fill="#F22C2C"/>
<path fill-rule="evenodd" clip-rule="evenodd" d="M1647.96 1200.04H1661.04V1186.96H1647.96V1200.04ZM1669 1208V1179H1640V1208H1669Z" fill="#F22C2C"/>
<path fill-rule="evenodd" clip-rule="evenodd" d="M118.549 1759.45H142.451V1735.55H118.549V1759.45ZM157 1774V1721H104V1774H157Z" fill="#F22C2C"/>
<rect x="50" y="2089" width="10" height="10" transform="rotate(-180 50 2089)" fill="#F22C2C"/>
<path d="M1594.35 1730.98L1599.68 1720.08L1580.34 1696.24L1575 1707.14L1594.35 1730.98Z" fill="#F22C2C"/>
<path d="M90.347 676.742L95.6836 665.842L76.336 642L70.9994 652.9L90.347 676.742Z" fill="#F22C2C"/>
<path d="M78.6634 35.0251L84 24.1252L64.6523 0.282691L59.3158 11.1826L78.6634 35.0251Z" fill="#F22C2C"/>
</svg>
