<svg width="80" height="80" viewBox="0 0 80 80" fill="none" xmlns="http://www.w3.org/2000/svg">
<g clip-path="url(#clip0)">
<path d="M77.2825 22.5367C77.1286 22.0577 76.7183 21.7056 76.2213 21.6264C71.2861 20.8385 63.7213 20.6933 55.7072 24.471C52.4806 25.9919 49.4484 28.0252 46.6858 30.5163H33.3143C30.5518 28.0252 27.5195 25.9919 24.2929 24.471C16.2788 20.6936 8.71413 20.8392 3.77881 21.6264C3.28162 21.7056 2.87146 22.0577 2.71755 22.5367C0.939426 28.0696 0.0253616 33.856 0.000517783 39.7358C-0.024951 45.7805 0.88927 51.7301 2.71755 57.4191C2.87068 57.896 3.27771 58.2468 3.77178 58.3282C5.45147 58.6056 7.431 58.8085 9.62663 58.8085C13.9526 58.8085 19.1151 58.0196 24.464 55.4548C27.6332 53.9351 30.6095 51.9121 33.3192 49.4396H47.2022C47.94 49.4396 48.5381 48.8416 48.5381 48.1038V44.2996C50.183 44.7799 51.8597 45.1533 53.5439 45.4115C54.8251 45.6076 56.1303 45.7404 57.4233 45.8066C57.4464 45.8079 57.4695 45.8083 57.4928 45.8083C58.1992 45.8083 58.7894 45.2544 58.8258 44.5408C58.8636 43.804 58.2967 43.1762 57.5598 43.1383C56.3561 43.0768 55.1408 42.9529 53.9484 42.7705C52.1237 42.4908 50.3084 42.0661 48.5381 41.5071V37.5329C50.2555 37.0113 52.2416 36.4697 53.9148 36.2563C56.0922 35.9788 58.3073 35.9282 60.4988 36.1049C61.2316 36.1638 61.8784 35.6163 61.9378 34.8808C61.9972 34.1454 61.4492 33.5011 60.7138 33.4418C58.3384 33.2497 55.9372 33.3052 53.5772 33.606C51.9761 33.8099 50.1731 34.268 48.538 34.745V32.4416C51.0889 30.1521 53.8814 28.2849 56.8461 26.8872C63.817 23.6013 70.428 23.5322 74.9863 24.145C76.518 29.1768 77.3054 34.4208 77.3279 39.7468C77.3508 45.2322 76.563 50.6335 74.9849 55.8156C66.3908 56.8088 60.0141 54.6166 52.9997 51.253C52.3345 50.9338 51.5367 51.2148 51.2176 51.8801C50.8986 52.5454 51.1794 53.3434 51.8447 53.6623C57.1941 56.2274 60.8099 58.4121 70.3735 58.8087C72.5666 58.8998 74.5491 58.6054 76.2283 58.3284C76.7222 58.247 77.1294 57.8959 77.2824 57.4193C79.1107 51.7304 80.0249 45.7808 79.9994 39.736C79.9749 33.8561 79.0608 28.0697 77.2825 22.5367ZM31.4618 34.7452C29.8268 34.2682 28.024 33.81 26.4226 33.6061C24.0626 33.3055 21.6615 33.25 19.286 33.4419C18.5506 33.5013 18.0026 34.1455 18.062 34.881C18.1215 35.6166 18.7656 36.1655 19.501 36.105C21.6927 35.9285 23.9078 35.9793 26.0849 36.2565C27.7585 36.4697 29.7445 37.0113 31.4617 37.533V41.5072C29.6914 42.066 27.876 42.491 26.0515 42.7704C24.8588 42.9529 23.6437 43.0769 22.4398 43.1383C21.7029 43.1762 21.1362 43.804 21.1738 44.5408C21.2104 45.2544 21.8004 45.8083 22.5068 45.8083C22.5298 45.8083 22.5529 45.8079 22.5763 45.8066C23.8695 45.7404 25.1746 45.6076 26.4559 45.4112C28.1399 45.1532 29.8168 44.7799 31.4617 44.2996V47.519C28.9603 49.7919 26.2199 51.6498 23.3084 53.0459C16.2941 56.4095 9.61866 56.4591 5.01459 55.8156C3.43662 50.6332 2.64865 45.2321 2.67177 39.7468C2.69412 34.421 3.48131 29.1768 5.01303 24.145C9.571 23.5327 16.1823 23.6014 23.1532 26.8874C26.1178 28.2849 28.9104 30.1521 31.4614 32.4418V34.7452H31.4618ZM45.8662 36.544C45.8662 36.5486 45.8662 36.5533 45.8662 36.558V46.768H34.1336V36.558C34.1336 36.5533 34.1336 36.5486 34.1336 36.544V33.1879H45.8662V36.544Z" fill="#501E50"/>
</g>
<defs>
<clipPath id="clip0">
<rect width="80" height="80" fill="white"/>
</clipPath>
</defs>
</svg>
