<svg width="43" height="43" viewBox="0 0 43 43" fill="none" xmlns="http://www.w3.org/2000/svg">
<g clip-path="url(#clip0)">
<path d="M37.7691 20.143C37.7235 19.5101 37.1743 19.0351 36.5406 19.0796C35.9077 19.1252 35.4317 19.6752 35.4772 20.3081C35.5055 20.6991 35.5197 21.1002 35.5197 21.5C35.5197 30.6594 28.0681 38.111 18.9087 38.111C9.74941 38.111 2.29781 30.6593 2.29781 21.5C2.29781 12.3406 9.74941 4.88904 18.9088 4.88904C22.5362 4.88904 25.9812 6.03694 28.8711 8.20852C29.3784 8.58964 30.0985 8.48743 30.4797 7.98025C30.861 7.47298 30.7588 6.75273 30.2515 6.37161C26.9602 3.89852 23.038 2.59131 18.9087 2.59131C8.4825 2.59122 0 11.0737 0 21.5C0 31.9262 8.4825 40.4086 18.9088 40.4086C29.3352 40.4086 37.8175 31.9263 37.8175 21.5C37.8175 21.0453 37.8011 20.5887 37.7691 20.143Z" fill="#501E50"/>
<path d="M41.6897 5.18767C39.9422 3.44021 37.0986 3.44021 35.3511 5.18767L18.7969 21.7417L12.9286 15.8733C11.181 14.1258 8.3375 14.1258 6.58996 15.8733C4.84241 17.6208 4.84241 20.4643 6.58996 22.2119L16.6967 32.3187C17.2758 32.8977 18.0364 33.1872 18.7969 33.1872C19.5576 33.1872 20.3181 32.8977 20.8972 32.3187L41.6897 11.5261C43.4371 9.77868 43.4371 6.9353 41.6897 5.18767ZM40.065 9.90146L19.2724 30.6941C19.0103 30.9562 18.5837 30.9562 18.3217 30.6941L8.21489 20.5873C7.3632 19.7356 7.3632 18.35 8.21489 17.4983C8.64069 17.0723 9.19994 16.8595 9.75936 16.8595C10.3188 16.8595 10.8781 17.0724 11.3038 17.4983L17.3408 23.5352C17.7298 23.9242 18.2471 24.1383 18.797 24.1383C19.3472 24.1383 19.8644 23.9241 20.2534 23.5352L36.9759 6.81243C37.8274 5.96075 39.2133 5.96075 40.065 6.81243C40.9166 7.66412 40.9166 9.04978 40.065 9.90146Z" fill="#501E50"/>
</g>
<defs>
<clipPath id="clip0">
<rect width="43" height="43" fill="white"/>
</clipPath>
</defs>
</svg>
