<svg width="80" height="80" viewBox="0 0 80 80" fill="none" xmlns="http://www.w3.org/2000/svg">
<g clip-path="url(#clip0)">
<path d="M78.8281 65.9218C78.1808 65.9218 77.6563 66.4465 77.6563 67.0937V74.9238C77.6563 75.0325 77.5678 75.1211 77.4589 75.1211H73.0061V57.9998C73.0061 57.3526 72.4816 56.8279 71.8342 56.8279C71.1869 56.8279 70.6624 57.3526 70.6624 57.9998V75.1213H62.0577L64.3866 72.5593C64.7463 72.1635 64.9158 71.6015 64.8403 71.0557C64.8386 71.044 64.8369 71.0324 64.8349 71.0207L62.2169 55.5526L62.6986 54.8274L62.8241 54.9165C63.2536 55.2216 63.8014 55.3329 64.3314 55.2006C64.8519 55.0704 65.288 54.7202 65.5277 54.2402V54.2401L68.1916 48.9009L74.2767 51.2576C74.5169 51.362 77.6556 52.8012 77.6556 56.5459V61.6246C77.6558 62.2719 78.1803 62.7966 78.8277 62.7966C79.475 62.7966 79.9995 62.2719 79.9995 61.6248V56.546C79.9995 51.1382 75.3613 49.1693 75.1639 49.0881C75.1564 49.0849 75.1491 49.082 75.1416 49.0792L64.7796 45.066V42.9317C66.3971 41.6304 67.533 39.755 67.8741 37.617C68.6808 37.5157 69.4292 37.1928 70.0503 36.6586C70.941 35.8926 71.452 34.7781 71.452 33.6011C71.452 32.6615 71.126 31.7625 70.5421 31.0484V27.8862C70.5421 21.6978 65.5074 16.6633 59.3193 16.6633C56.541 16.6633 53.9972 17.6802 52.0352 19.3586C52.0099 18.4606 51.6885 17.605 51.1283 16.92V13.758C51.1283 7.56956 46.0937 2.53503 39.9055 2.53503C33.7171 2.53503 28.6826 7.56971 28.6826 13.758V17.0025C28.1193 17.6756 27.8042 18.4872 27.7764 19.3486C26.5245 18.2788 25.0262 17.4733 23.3564 17.0336C22.7295 16.8686 22.0893 17.2425 21.9245 17.8684C21.7596 18.4944 22.1334 19.1355 22.7593 19.3003C26.652 20.3253 29.3707 23.8561 29.3707 27.8861V29.6387C29.3201 29.6283 29.1576 29.6003 29.1514 29.5994C29.1354 29.2686 29.0517 29.0665 28.8713 28.8072C28.5714 28.3761 28.0326 27.839 26.2998 25.9765C25.6823 25.3133 24.6835 25.1916 23.9254 25.6872C20.9575 27.6259 17.3517 28.614 14.0054 28.4176C12.9154 28.3537 12.2347 28.8326 11.9445 29.6175C11.9186 29.6217 11.6287 29.6801 11.6126 29.684V27.8861C11.6126 24.0003 14.2092 20.5045 17.9268 19.3847C18.5465 19.1981 18.8976 18.5444 18.7111 17.9245C18.5243 17.3047 17.8697 16.9536 17.2507 17.1405C14.9898 17.8214 12.9575 19.2392 11.5286 21.1323C10.05 23.0908 9.26858 25.4262 9.26858 27.8862V31.1309C8.67826 31.8362 8.35905 32.6934 8.35905 33.6011C8.35905 35.6073 9.83717 37.357 11.9431 37.6179C12.2881 39.7059 13.4209 41.7082 15.2087 43.0696V45.0667L4.85827 49.0795C4.85093 49.0823 4.84358 49.0853 4.83624 49.0882C4.63843 49.1693 0 51.1381 0 56.5459V74.9238C0 76.3252 1.14 77.465 2.5414 77.465H38.6306C39.1349 77.465 39.6041 77.3155 40.0001 77.0611C40.3957 77.3155 40.8651 77.465 41.3696 77.465H77.4589C78.8602 77.465 80.0002 76.3252 80.0002 74.9238V67.0937C80 66.4465 79.4755 65.9218 78.8281 65.9218ZM11.8284 35.1965C11.1414 34.9472 10.7025 34.3117 10.7025 33.6008C10.7025 32.9112 11.2025 32.3447 11.8284 32.0758V35.1965ZM65.9966 48.0507L63.6963 52.661C63.696 52.6607 61.1411 50.8462 61.1049 50.8204C62.2071 49.4598 61.6893 50.099 63.9811 47.2703L65.9966 48.0507ZM59.4108 49.1879L56.3801 45.4468V44.3226C57.3652 44.6632 58.4265 44.8204 59.4254 44.8207C59.4255 44.8207 59.4258 44.8207 59.426 44.8207H59.4261C60.4589 44.8206 61.5046 44.6245 62.4358 44.274V45.454L59.4108 49.1879ZM60.7868 53.4696L60.3557 54.1185H58.4665L58.0354 53.4696L59.4111 52.4926L60.7868 53.4696ZM39.997 35.0595L36.9662 31.3184V30.1942C37.9474 30.5334 39.0076 30.692 40.0115 30.6923C40.0116 30.6923 40.012 30.6923 40.0121 30.6923H40.0123C41.0432 30.6923 42.0887 30.4969 43.0219 30.1458V31.3256L39.997 35.0595ZM41.3727 39.3415L40.9416 39.9904H39.0524L38.6213 39.3415L39.9971 38.3645L41.3727 39.3415ZM30.7684 23.3772C30.9599 23.4294 31.1568 23.4648 31.3567 23.4895C31.7017 25.5775 32.8345 27.5798 34.6223 28.9412V30.9383L32.2315 31.865C32.0929 31.5739 31.9196 31.2997 31.714 31.0483V27.8862C31.714 26.2959 31.379 24.7672 30.7684 23.3772ZM46.2243 22.1362C46.2243 25.5664 43.4262 28.3481 40.0123 28.3481C36.1606 28.3481 33.5865 25.363 33.5865 22.1362V16.6469C37.287 16.795 41.1312 15.6983 44.2741 13.742C45.3309 14.8752 45.9596 15.5334 46.2244 15.8391C46.2243 18.7567 46.2243 19.8833 46.2243 22.1362ZM48.4604 23.4887C48.6591 23.4637 48.8551 23.4281 49.0455 23.3761C48.4368 24.7573 48.0962 26.2823 48.0962 27.8862V31.1308C47.916 31.3459 47.761 31.5751 47.6327 31.8156L45.3659 30.9378V28.8034C46.9832 27.502 48.1193 25.6266 48.4604 23.4887ZM35.4226 33.1437L38.2995 36.6947L36.3376 38.0881C36.3365 38.0889 36.3357 38.0897 36.3346 38.0904L35.712 38.5328L33.4115 33.9226L35.4226 33.1437ZM42.6941 35.4537L44.5671 33.1418L46.5826 33.9223L44.2824 38.5328L43.6584 38.0896C43.6577 38.0892 43.6571 38.0886 43.6565 38.0881L41.691 36.692L42.6941 35.4537ZM43.2848 40.6992L43.4102 40.7882C43.8484 41.0995 44.3982 41.2023 44.9176 41.0723C45.438 40.9421 45.8741 40.592 46.1138 40.112V40.1118L48.0916 36.1479C48.7712 36.9854 49.754 37.4948 50.7662 37.6212C51.1236 39.8618 52.3347 41.774 54.0363 43.0696V45.0665L44.0732 48.9292L42.8029 41.4245L43.2848 40.6992ZM54.8365 47.272L57.7133 50.8229C56.4555 51.7165 55.191 52.6148 55.1258 52.661L52.8254 48.0509L54.8365 47.272ZM65.638 36.2647C65.6383 39.6111 62.9207 42.4765 59.4261 42.4765C55.443 42.4765 53.0004 39.3568 53.0004 36.2647V30.7753C56.6744 30.922 60.5236 29.8398 63.6878 27.8705C64.7446 29.0036 65.3733 29.6619 65.6382 29.9675C65.638 32.885 65.638 34.0117 65.638 36.2647ZM69.1083 33.6009C69.1083 34.3131 68.668 34.9473 67.9824 35.1965V32.0086C68.6911 32.2667 69.1083 32.9143 69.1083 33.6009ZM50.4401 27.8861C50.4401 22.9901 54.4233 19.007 59.3191 19.007C64.215 19.007 68.198 22.9903 68.198 27.8861V29.6387C68.1447 29.6276 67.9982 29.6023 67.9786 29.5994C67.9627 29.2683 67.8785 29.0658 67.6986 28.8072C67.3907 28.3648 66.8578 27.837 65.1271 25.9765C64.5227 25.3278 63.5261 25.1817 62.7527 25.6872C59.8652 27.5734 56.2171 28.6389 52.7457 28.4134C51.7705 28.3495 51.0641 28.827 50.7718 29.6176C50.7457 29.6219 50.4563 29.6803 50.4399 29.6842V27.8861H50.4401ZM50.6565 32.0759V35.195C49.9674 34.9465 49.5305 34.3093 49.5305 33.6008C49.5304 32.9112 50.0301 32.345 50.6565 32.0759ZM49.6941 19.4727C49.6941 19.9661 49.4805 20.4328 49.1082 20.753C48.9483 20.8905 48.7662 20.9961 48.5682 21.0681V17.8802C49.269 18.1345 49.6941 18.7788 49.6941 19.4727ZM39.9051 4.87878C44.801 4.87878 48.7841 8.8619 48.7841 13.7578V15.5105C48.7312 15.4995 48.5843 15.4741 48.5648 15.4711C48.5474 15.1122 48.444 14.8916 48.2329 14.6061C47.9191 14.1814 47.3407 13.5975 45.7132 11.8481C45.0987 11.1883 44.1005 11.061 43.3388 11.5588C40.2895 13.5509 36.5902 14.5205 33.2373 14.2803C32.417 14.2183 31.6446 14.7139 31.3581 15.4891C31.332 15.4933 31.0424 15.5517 31.0262 15.5556V13.758H31.026C31.026 8.8619 35.0093 4.87878 39.9051 4.87878ZM31.2423 17.9475V21.0683C30.5553 20.8189 30.1163 20.1834 30.1163 19.4725C30.1163 18.7869 30.6124 18.2183 31.2423 17.9475ZM29.1542 32.0086C29.8098 32.2472 30.2309 32.8192 30.2726 33.499C30.3251 34.255 29.8606 34.9386 29.1542 35.1951V32.0086ZM29.0456 37.6209C30.1509 37.4826 31.1654 36.9001 31.8307 36.004L33.8804 40.1118C33.8804 40.1118 33.8804 40.1118 33.8806 40.112C34.1201 40.5921 34.5562 40.9421 35.0767 41.0723C35.5912 41.2009 36.1417 41.1025 36.584 40.7882L36.7095 40.6992L37.1912 41.4243L35.9213 48.927L25.952 45.0659V42.9325H25.9518C27.6117 41.5942 28.7124 39.7032 29.0456 37.6209ZM20.5828 49.1879L17.552 45.4468V44.3226C18.5332 44.6618 19.5936 44.8204 20.5975 44.8206C20.5976 44.8206 20.5979 44.8206 20.5981 44.8206C21.6459 44.8206 22.6896 44.6193 23.6078 44.274V45.454L20.5828 49.1879ZM21.9587 53.4696L21.5276 54.1185H19.6384L19.2073 53.4696L20.5831 52.4926L21.9587 53.4696ZM25.1529 47.2703L27.1685 48.0509L24.8682 52.661L24.2442 52.2179C24.2435 52.2174 24.2429 52.2168 24.2423 52.2163L22.2768 50.8204L25.1529 47.2703ZM14.1723 36.2647V30.7753C17.8925 30.9239 21.7392 29.8126 24.8598 27.8705C25.9065 28.993 26.545 29.6615 26.8101 29.9675C26.8101 32.8851 26.8101 34.0118 26.8101 36.2647C26.8101 39.6729 24.0312 42.4765 20.5981 42.4765C16.7757 42.4765 14.1723 39.5254 14.1723 36.2647ZM16.0086 47.272L18.8854 50.8229L16.9236 52.2163C16.9225 52.2171 16.9217 52.2179 16.9206 52.2187L16.2979 52.661L13.9975 48.0509L16.0086 47.272ZM9.33795 75.1215V57.9998C9.33795 57.3526 8.81342 56.8279 8.16608 56.8279C7.51874 56.8279 6.99421 57.3526 6.99421 57.9998V75.1213H2.5414C2.43234 75.1213 2.3439 75.0327 2.3439 74.924V56.5459C2.3439 52.782 5.5153 51.3473 5.72061 51.2585L11.802 48.9009L14.4662 54.2401C14.4662 54.2401 14.4662 54.2401 14.4664 54.2402C14.7059 54.7204 15.142 55.0704 15.6626 55.2006C16.1772 55.3291 16.7276 55.2307 17.17 54.9165L17.2954 54.8274L17.7772 55.5526L15.1592 71.0207C15.1572 71.0322 15.1554 71.044 15.1537 71.0557C15.0784 71.6011 15.2479 72.1632 15.6078 72.5596L17.9364 75.1213H9.33795V75.1215ZM17.5114 71.1688L20.0003 56.4624H21.1657L23.6548 71.1688L20.5831 74.548L17.5114 71.1688ZM38.8279 74.9238C38.8279 75.0327 38.7395 75.1213 38.6306 75.1213H34.1781V57.9998C34.1781 57.3526 33.6535 56.8279 33.0062 56.8279C32.3588 56.8279 31.8343 57.3526 31.8343 57.9998V75.1213H23.2296L25.5585 72.5593C25.9182 72.1635 26.0878 71.6015 26.0123 71.0557C26.0106 71.044 26.0089 71.0324 26.0068 71.0207L23.3889 55.5526L23.8706 54.8274L23.996 54.9165C24.3096 55.1393 24.6809 55.2556 25.0576 55.2556C25.745 55.2556 26.3851 54.8704 26.6998 54.2402V54.2401L29.3637 48.901L35.4488 51.2577C37.2226 52.0293 38.8277 54.0192 38.8277 56.5459V74.9238H38.8279ZM39.9999 52.2874C39.5145 51.5053 38.8682 50.7815 38.0891 50.1638L39.4143 42.3343H40.5798L41.9055 50.1679C41.1057 50.8031 40.4679 51.5334 39.9999 52.2874ZM48.1658 75.1215V57.9998C48.1658 57.3526 47.6413 56.8279 46.994 56.8279C46.3466 56.8279 45.8221 57.3526 45.8221 57.9998V75.1213H41.3695C41.2605 75.1213 41.172 75.0327 41.172 74.924V56.5459C41.172 55.1527 41.6088 53.8696 42.5394 52.7917C43.1599 52.0799 43.9829 51.5037 44.5488 51.2585L50.6302 48.9007L53.2944 54.2401C53.2944 54.2401 53.2944 54.2401 53.2946 54.2402C53.5341 54.7204 53.9702 55.0704 54.4907 55.2006C55.0052 55.3291 55.5557 55.2307 55.998 54.9165L56.1235 54.8274L56.6052 55.5526L53.9872 71.0207C53.9852 71.0322 53.9835 71.044 53.9818 71.0557C53.9065 71.6011 54.076 72.1632 54.4358 72.5596L56.7644 75.1213H48.1658V75.1215ZM56.3393 71.169L58.8283 56.4626H59.9938L62.4828 71.169L59.411 74.5482L56.3393 71.169Z" fill="#501E50"/>
</g>
<defs>
<clipPath id="clip0">
<rect width="80" height="80" fill="white"/>
</clipPath>
</defs>
</svg>
