<svg width="43" height="43" viewBox="0 0 43 43" fill="none" xmlns="http://www.w3.org/2000/svg">
<path d="M28.1335 0C20.1197 0 13.6 6.51971 13.6 14.5334C13.6 16.315 13.9166 18.0462 14.5416 19.6903L0.645199 33.5877C0.446576 33.7864 0.334961 34.0557 0.334961 34.3366V41.9409C0.334961 42.5258 0.809137 43 1.39409 43H7.66067C7.94126 43 8.21034 42.8887 8.40897 42.6904L10.5208 40.5818C10.7198 40.3831 10.8316 40.1135 10.8316 39.8323V37.2392H13.4214C14.0064 37.2392 14.4805 36.765 14.4805 36.18V35.142H15.5187C16.1035 35.142 16.5778 34.6678 16.5778 34.0829V31.8039H18.8568C19.1376 31.8039 19.407 31.6923 19.6057 31.4936L22.9752 28.1241C24.6195 28.7497 26.3511 29.0667 28.1333 29.0667C36.147 29.0667 42.6667 22.5469 42.6667 14.5332C42.6668 6.51971 36.1472 0 28.1335 0ZM28.1335 26.9484C26.3998 26.9484 24.7232 26.5983 23.1499 25.9076C22.7431 25.729 22.285 25.8273 21.985 26.1196C21.9817 26.1228 21.9785 26.1253 21.9753 26.1285L18.4182 29.6856H15.5188C14.9339 29.6856 14.4597 30.1598 14.4597 30.7447V33.0238H13.4216C12.8367 33.0238 12.3624 33.4979 12.3624 34.0829V35.1209H9.77254C9.18767 35.1209 8.71341 35.5951 8.71341 36.18V39.393L7.22244 40.8817H2.45338V39.385L15.3988 26.4396C15.7711 26.0673 15.7711 25.4638 15.3988 25.0916C15.0265 24.7194 14.4232 24.7192 14.0506 25.0916L2.45338 36.6889V34.7754L16.5372 20.6906C16.5404 20.6874 16.5429 20.6844 16.5458 20.6813C16.8382 20.3816 16.9368 19.9234 16.7583 19.5163C16.0683 17.9431 15.7185 16.2665 15.7185 14.5335C15.7185 7.68776 21.288 2.11834 28.1337 2.11834C34.9794 2.11834 40.5487 7.68768 40.5487 14.5335C40.5485 21.3791 34.979 26.9484 28.1335 26.9484Z" fill="#501E50"/>
<path d="M32.5551 6.14294C30.3675 6.14294 28.5879 7.92257 28.5879 10.1101C28.5879 12.2977 30.3675 14.0773 32.5551 14.0773C34.7426 14.0773 36.5222 12.2977 36.5222 10.1101C36.5222 7.92257 34.7427 6.14294 32.5551 6.14294ZM32.5551 11.959C31.5356 11.959 30.7061 11.1296 30.7061 10.1101C30.7061 9.09063 31.5356 8.2612 32.5551 8.2612C33.5745 8.2612 34.404 9.09063 34.404 10.1101C34.404 11.1296 33.5745 11.959 32.5551 11.959Z" fill="#501E50"/>
</svg>
