<svg width="101" height="61" viewBox="0 0 101 61" fill="none" xmlns="http://www.w3.org/2000/svg">
<g clip-path="url(#clip0)">
<path d="M50.5 22.1965C45.136 22.1965 40.786 26.4936 40.786 31.7924C40.786 37.0911 45.136 41.3882 50.5 41.3882C55.864 41.3882 60.2141 37.0911 60.2141 31.7924C60.2468 26.4936 55.864 22.1965 50.5 22.1965ZM50.5 34.9264C48.7666 34.9264 47.3274 33.5371 47.3274 31.7924C47.3274 30.08 48.7338 28.6584 50.5 28.6584C52.2335 28.6584 53.6726 30.0477 53.6726 31.7924C53.6726 33.5371 52.2662 34.9264 50.5 34.9264Z" fill="white"/>
<path d="M28.1609 31.2754L20.9981 24.6843L15.1762 37.2527L7.1956 19.5148H0L15.078 52.9873L23.1567 35.5403L30.4178 42.196L40.6224 19.5148H33.4268L28.1609 31.2754Z" fill="white"/>
<path d="M24.8247 48.6578C23.5491 48.9809 22.3717 49.6271 21.7502 50.1441L21.6194 50.241L22.7315 51.8241L22.8623 51.7272C23.3529 51.3395 24.2687 50.8226 25.0864 50.6287C26.3947 50.3056 26.689 50.8549 26.8199 51.3072L26.8853 51.598C24.3995 52.4057 22.0446 53.5688 22.666 55.992C23.0258 57.3813 24.0725 58.0922 25.6424 58.0922C26.1984 58.0922 26.7872 57.9952 27.474 57.8337C28.6842 57.5106 29.9925 56.8967 30.5812 56.3474L30.6466 56.2828L29.2075 50.9518C28.6842 48.7548 27.2451 48.0116 24.8247 48.6578ZM27.3432 53.2781L27.9646 55.572C27.7684 55.7013 27.3432 55.8628 26.9507 55.9597C26.3293 56.1213 25.8387 56.089 25.5116 55.8951C25.2826 55.7659 25.1191 55.5397 25.0537 55.2812C24.7266 54.215 25.8387 53.7304 27.3432 53.2781Z" fill="#F22C2C"/>
<path d="M38.8889 46.9454V46.8485L38.7908 46.8162C37.9077 46.5254 36.6975 46.4285 35.5201 46.59C34.0809 46.7839 32.9689 47.3332 32.282 48.2055C31.5625 49.1102 31.3008 50.3379 31.4971 51.7919C31.8568 54.4089 33.6557 55.8951 36.0434 55.572C36.534 55.5074 37.09 55.3459 37.4825 55.152L37.5152 55.4428C37.5806 55.9921 37.5152 56.4444 37.2863 56.7675C37.0573 57.0906 36.5994 57.2844 36.0107 57.3814C35.1276 57.5106 34.1791 57.446 33.5249 57.1875L33.3287 57.1229L32.8708 59.2553L33.0343 59.2876C33.6885 59.5138 34.4407 59.6107 35.2584 59.6107C35.6836 59.6107 36.1088 59.5784 36.5667 59.5138C39.1179 59.1584 40.4261 57.5106 40.0664 55.0551L38.8889 46.9454ZM37.1554 53.2135C36.9265 53.3427 36.534 53.4719 36.2069 53.5366C35.6182 53.6335 35.1603 53.4719 34.7678 53.1488C34.3753 52.7934 34.1136 52.1796 33.9828 51.4041C33.852 50.5641 33.9501 49.9179 34.2772 49.4333C34.5388 49.0132 34.9967 48.7548 35.5855 48.6578C35.749 48.6255 35.9453 48.6255 36.0761 48.6255C36.2396 48.6255 36.4032 48.6255 36.534 48.6578L37.1554 53.2135Z" fill="#F22C2C"/>
<path d="M48.6684 52.5673C48.047 52.9227 47.1312 53.1488 46.2808 53.1811C46.2154 53.1811 46.1827 53.1811 46.1172 53.1811C44.9725 53.1811 44.2202 52.6319 43.9586 51.6626L49.6169 50.6933V50.5641C49.6496 50.3056 49.6496 50.0471 49.6169 49.7887C49.5842 48.5609 49.159 47.527 48.4722 46.8162C47.7853 46.1377 46.8368 45.7823 45.6921 45.7823C45.6266 45.7823 45.5612 45.7823 45.4631 45.7823C44.1548 45.8469 43.0755 46.3316 42.3559 47.2362C41.6364 48.1086 41.3093 49.304 41.3747 50.6933C41.4401 52.1149 41.898 53.2781 42.683 54.0858C43.468 54.8935 44.6127 55.2812 45.9537 55.2812C46.0518 55.2812 46.1172 55.2812 46.2154 55.2812C47.491 55.2166 48.7665 54.9258 49.5515 54.5058L49.6823 54.4412L48.8319 52.5026L48.6684 52.5673ZM45.5939 47.7209C46.0191 47.7209 46.3789 47.8501 46.6406 48.1086C46.9022 48.3994 47.0658 48.7871 47.0985 49.3363L43.7296 49.9179C43.7623 48.5609 44.4165 47.7532 45.4958 47.7209C45.5285 47.7209 45.5612 47.7209 45.5939 47.7209Z" fill="#F22C2C"/>
<path d="M55.6023 45.8146C54.2613 45.75 53.0838 45.9115 51.9718 46.2993L51.8737 46.3316L51.4485 54.9582L54.0324 55.0874L54.3921 48.044C54.6538 47.9793 55.079 47.9147 55.5696 47.947C56.0275 47.9793 56.3873 48.1086 56.6162 48.367C56.8125 48.5932 56.9106 48.884 56.9106 49.2717L56.6162 55.2166L59.2001 55.3459L59.5272 49.1748C59.5272 47.7209 58.9384 45.9762 55.6023 45.8146Z" fill="#F22C2C"/>
<path d="M66.0687 46.8485C64.1389 46.59 61.784 47.4947 61.2934 50.9841C60.8028 54.4735 62.8306 55.9921 64.7277 56.2828C65.022 56.3151 65.3164 56.3475 65.5781 56.3475C66.1995 56.3475 66.7555 56.2182 67.2461 55.9921L67.377 55.9274L66.8209 53.8273L66.6247 53.9243C66.2976 54.1181 65.8397 54.1827 65.3818 54.1181C64.9566 54.0535 64.5968 53.8596 64.3352 53.5042C63.9427 52.9873 63.8119 52.2442 63.9427 51.3072C64.0735 50.3702 64.4006 49.6917 64.9239 49.304C65.251 49.0456 65.6435 48.9486 66.1014 49.0132C66.5593 49.0779 66.9845 49.2717 67.2461 49.5302L67.4097 49.6917L68.5217 47.9147L68.4236 47.8178C67.8349 47.3008 67.0499 46.9778 66.0687 46.8485Z" fill="#F22C2C"/>
<path d="M76.6004 49.2394L73.4932 54.2797C73.3951 54.4412 73.297 54.6351 73.1989 54.7966C73.1989 54.6028 73.1989 54.4089 73.1989 54.2151L73.0026 48.464V48.3348L70.1898 47.5916L71.2037 57.1229L68.9142 60.3215L71.5635 61L79.4132 49.9825L76.6004 49.2394Z" fill="#F22C2C"/>
<path d="M24.2236 10.0321L22.4781 12.2519L28.8062 17.1074L30.5517 14.8877L24.2236 10.0321Z" fill="#F22C2C"/>
<path d="M72.8391 31.3077L80.002 24.7166L85.8239 37.2849L93.8044 19.5794H101L85.922 53.0519L77.8106 35.5726L70.5823 42.2606L60.3776 19.5794H67.5405L72.8391 31.3077Z" fill="white"/>
<path d="M13.7698 9.36971H9.48511V13.6022H13.7698V9.36971Z" fill="white"/>
<path d="M90.1412 14.5392H83.9596V8.43273H90.1412V14.5392ZM85.8566 12.6652H88.2442V10.3067H85.8566V12.6652Z" fill="#F22C2C"/>
<path d="M71.0003 6.7511L66.0834 13.0014L68.3302 14.7262L73.2471 8.47588L71.0003 6.7511Z" fill="white"/>
<path d="M61.228 3.29554H57.8918V6.59109H61.228V3.29554Z" fill="#F22C2C"/>
<path d="M49.3552 11.2437H45.5612V14.9915H49.3552V11.2437Z" fill="#C12727"/>
<path d="M42.225 6.55879H35.5854V0H42.225V6.55879ZM37.4825 4.68485H40.328V1.87394H37.4825V4.68485Z" fill="white"/>
</g>
<defs>
<clipPath id="clip0">
<rect width="101" height="61" fill="white"/>
</clipPath>
</defs>
</svg>
