<svg width="101" height="62" viewBox="0 0 101 62" fill="none" xmlns="http://www.w3.org/2000/svg">
<g clip-path="url(#clip0)">
<path d="M50.5002 22.5604C45.1362 22.5604 40.7861 26.928 40.7861 32.3135C40.7861 37.6991 45.1362 42.0667 50.5002 42.0667C55.8642 42.0667 60.2143 37.6991 60.2143 32.3135C60.247 26.928 55.8642 22.5604 50.5002 22.5604ZM50.5002 35.4989C48.7667 35.4989 47.3276 34.0869 47.3276 32.3135C47.3276 30.5731 48.734 29.1282 50.5002 29.1282C52.2337 29.1282 53.6728 30.5402 53.6728 32.3135C53.6728 34.0869 52.2664 35.4989 50.5002 35.4989Z" fill="#501E50"/>
<path d="M28.1609 31.7881L20.9981 25.089L15.1762 37.8634L7.1956 19.8348H0L15.078 53.8559L23.1567 36.1229L30.4178 42.8877L40.6224 19.8348H33.4268L28.1609 31.7881Z" fill="#501E50"/>
<path d="M24.8245 49.4555C23.5489 49.7839 22.3714 50.4407 21.75 50.9661L21.6191 51.0646L22.7312 52.6737L22.862 52.5752C23.3526 52.1811 24.2684 51.6557 25.0861 51.4587C26.3944 51.1303 26.6888 51.6885 26.8196 52.1483L26.885 52.4438C24.3993 53.2648 22.0443 54.447 22.6658 56.9099C23.0256 58.322 24.0722 59.0445 25.6421 59.0445C26.1982 59.0445 26.7869 58.946 27.4737 58.7818C28.6839 58.4534 29.9922 57.8294 30.5809 57.2712L30.6463 57.2055L29.2072 51.7871C28.6839 49.554 27.2448 48.7987 24.8245 49.4555ZM27.3429 54.1515L27.9643 56.483C27.7681 56.6144 27.3429 56.7786 26.9504 56.8771C26.329 57.0413 25.8384 57.0085 25.5113 56.8114C25.2824 56.6801 25.1188 56.4502 25.0534 56.1875C24.7263 55.1038 25.8384 54.6112 27.3429 54.1515Z" fill="#F22C2C"/>
<path d="M38.8885 47.715V47.6165L38.7904 47.5837C37.9073 47.2881 36.6971 47.1896 35.5197 47.3538C34.0805 47.5509 32.9685 48.1091 32.2816 48.9958C31.5621 49.9153 31.3004 51.1631 31.4967 52.6409C31.8565 55.3009 33.6553 56.8115 36.043 56.4831C36.5336 56.4174 37.0896 56.2532 37.4821 56.0562L37.5148 56.3517C37.5802 56.91 37.5148 57.3697 37.2859 57.6981C37.0569 58.0265 36.599 58.2235 36.0103 58.322C35.1272 58.4534 34.1787 58.3877 33.5245 58.125L33.3283 58.0593L32.8704 60.2267L33.0339 60.2595C33.6881 60.4894 34.4403 60.5879 35.258 60.5879C35.6832 60.5879 36.1084 60.5551 36.5663 60.4894C39.1175 60.1282 40.4258 58.4534 40.066 55.9576L38.8885 47.715ZM37.155 54.0858C36.9261 54.2172 36.5336 54.3485 36.2065 54.4142C35.6178 54.5127 35.1599 54.3485 34.7674 54.0201C34.3749 53.6589 34.1133 53.035 33.9824 52.2468C33.8516 51.393 33.9497 50.7362 34.2768 50.2437C34.5384 49.8167 34.9963 49.554 35.5851 49.4555C35.7486 49.4227 35.9449 49.4227 36.0757 49.4227C36.2392 49.4227 36.4028 49.4227 36.5336 49.4555L37.155 54.0858Z" fill="#F22C2C"/>
<path d="M48.6681 53.429C48.0467 53.7902 47.1309 54.0201 46.2805 54.053C46.2151 54.053 46.1824 54.053 46.1169 54.053C44.9722 54.053 44.2199 53.4947 43.9583 52.5095L49.6166 51.5244V51.393C49.6493 51.1303 49.6493 50.8676 49.6166 50.6049C49.5839 49.357 49.1587 48.3061 48.4719 47.5837C47.785 46.8941 46.8365 46.5328 45.6917 46.5328C45.6263 46.5328 45.5609 46.5328 45.4628 46.5328C44.1545 46.5985 43.0752 47.0911 42.3556 48.0106C41.636 48.8972 41.309 50.1123 41.3744 51.5244C41.4398 52.9693 41.8977 54.1515 42.6827 54.9724C43.4677 55.7934 44.6124 56.1875 45.9534 56.1875C46.0515 56.1875 46.1169 56.1875 46.2151 56.1875C47.4906 56.1218 48.7662 55.8263 49.5512 55.3994L49.682 55.3337L48.8316 53.3633L48.6681 53.429ZM45.5936 48.5032C46.0188 48.5032 46.3786 48.6345 46.6403 48.8972C46.9019 49.1928 47.0654 49.5869 47.0982 50.1451L43.7293 50.7362C43.762 49.357 44.4162 48.536 45.4955 48.5032C45.5282 48.5032 45.5609 48.5032 45.5936 48.5032Z" fill="#F22C2C"/>
<path d="M55.6021 46.5657C54.2611 46.5 53.0836 46.6642 51.9716 47.0583L51.8734 47.0911L51.4482 55.8591L54.0321 55.9905L54.3919 48.8316C54.6536 48.7659 55.0787 48.7002 55.5694 48.733C56.0273 48.7659 56.387 48.8972 56.616 49.16C56.8122 49.3898 56.9104 49.6854 56.9104 50.0794L56.616 56.1218L59.1999 56.2532L59.5269 49.9809C59.5269 48.5032 58.9382 46.7299 55.6021 46.5657Z" fill="#F22C2C"/>
<path d="M66.0683 47.6165C64.1386 47.3538 61.7837 48.2733 61.2931 51.8199C60.8025 55.3665 62.8303 56.91 64.7273 57.2055C65.0217 57.2383 65.3161 57.2712 65.5777 57.2712C66.1992 57.2712 66.7552 57.1398 67.2458 56.91L67.3766 56.8443L66.8206 54.7097L66.6244 54.8083C66.2973 55.0053 65.8394 55.071 65.3815 55.0053C64.9563 54.9396 64.5965 54.7426 64.3349 54.3814C63.9424 53.8559 63.8115 53.1006 63.9424 52.1483C64.0732 51.196 64.4003 50.5064 64.9236 50.1123C65.2507 49.8496 65.6432 49.7511 66.1011 49.8167C66.559 49.8824 66.9842 50.0794 67.2458 50.3422L67.4093 50.5064L68.5214 48.7002L68.4233 48.6017C67.8345 48.0763 67.0496 47.7479 66.0683 47.6165Z" fill="#F22C2C"/>
<path d="M76.6003 50.0466L73.4931 55.1695C73.395 55.3337 73.2968 55.5307 73.1987 55.6949C73.1987 55.4979 73.1987 55.3009 73.1987 55.1038L73.0025 49.2585V49.1271L70.1896 48.3718L71.2036 58.0593L68.9141 61.3104L71.5634 62L79.4131 50.8019L76.6003 50.0466Z" fill="#F22C2C"/>
<path d="M24.224 10.1966L22.4785 12.4528L28.8066 17.3879L30.5521 15.1317L24.224 10.1966Z" fill="#F22C2C"/>
<path d="M72.8394 31.821L80.0023 25.1218L85.8242 37.8962L93.8048 19.9004H101L85.9223 53.9216L77.8109 36.1557L70.5826 42.9534L60.3779 19.9004H67.5408L72.8394 31.821Z" fill="#501E50"/>
<path d="M13.77 9.5233H9.48535V13.8252H13.77V9.5233Z" fill="#501E50"/>
<path d="M90.1416 14.7775H83.96V8.57097H90.1416V14.7775ZM85.857 12.8729H88.2446V10.4756H85.857V12.8729Z" fill="#F22C2C"/>
<path d="M71 6.86177L66.083 13.2145L68.3298 14.9676L73.2468 8.61482L71 6.86177Z" fill="#501E50"/>
<path d="M61.2277 3.34957H57.8916V6.69914H61.2277V3.34957Z" fill="#F22C2C"/>
<path d="M49.3556 11.428H45.5615V15.2373H49.3556V11.428Z" fill="#C12727"/>
<path d="M42.2255 6.66631H35.5859V0H42.2255V6.66631ZM37.483 4.76165H40.3285V1.90466H37.483V4.76165Z" fill="#501E50"/>
</g>
<defs>
<clipPath id="clip0">
<rect width="101" height="62" fill="white"/>
</clipPath>
</defs>
</svg>
