<svg width="80" height="80" viewBox="0 0 80 80" fill="none" xmlns="http://www.w3.org/2000/svg">
<g clip-path="url(#clip0)">
<path d="M53.3331 57.3334H43.9998V53.3334C43.9998 52.2032 43.5219 51.1264 42.684 50.3679C41.8461 49.6095 40.727 49.2403 39.6026 49.3523C37.505 49.6342 35.9542 51.4467 35.9998 53.5626V57.3334H26.6664C24.4581 57.3308 22.669 55.5417 22.6664 53.3334V46.6667H21.3331C19.4516 46.6667 17.658 45.8718 16.3943 44.4779C15.1306 43.0847 14.5147 41.2221 14.6977 39.3497C15.1189 35.8881 18.0753 33.297 21.5623 33.3334H22.6664V26.6667C22.669 24.4584 24.4581 22.6694 26.6664 22.6667H35.9998V26.6667C35.9998 27.797 36.4776 28.8738 37.3155 29.6322C38.1534 30.3907 39.2725 30.7598 40.3969 30.6479C42.4945 30.366 44.0453 28.5535 43.9998 26.4376V22.6667H53.3331C55.5414 22.6694 57.3305 24.4584 57.3331 26.6667V33.3334H58.4373C61.9242 33.297 64.8806 35.8881 65.3018 39.3497C65.4848 41.2221 64.8689 43.0847 63.6052 44.4779C62.3415 45.8718 60.5479 46.6667 58.6664 46.6667H57.3331V53.3334C57.3305 55.5417 55.5414 57.3308 53.3331 57.3334ZM46.6664 54.6667H53.3331C54.0694 54.6661 54.6658 54.0697 54.6664 53.3334V44.0001H58.6664C59.7966 44.0001 60.8741 43.5216 61.6326 42.6843C62.391 41.8464 62.7602 40.7266 62.6482 39.6023C62.3656 37.5046 60.5531 35.9545 58.4373 36.0001H54.6664V26.6667C54.6658 25.9304 54.0694 25.3341 53.3331 25.3334H46.6664V26.4376C46.7022 29.9246 44.1111 32.8809 40.6495 33.3028C38.7771 33.4858 36.9145 32.8692 35.5212 31.6055C34.128 30.3419 33.3331 28.5483 33.3331 26.6667V25.3334H26.6664C25.9301 25.3341 25.3337 25.9304 25.3331 26.6667V36.0001H21.5623C19.4464 35.9545 17.6339 37.5046 17.3513 39.6023C17.2393 40.7266 17.6085 41.8464 18.3669 42.6843C19.1254 43.5216 20.2029 44.0001 21.3331 44.0001H25.3331V53.3334C25.3337 54.0697 25.9301 54.6661 26.6664 54.6667H33.3331V53.5626C33.2973 50.0756 35.8884 47.1192 39.35 46.6973C41.2224 46.5144 43.085 47.1309 44.4783 48.3946C45.8715 49.6583 46.6664 51.4519 46.6664 53.3334V54.6667Z" fill="#501E50"/>
<path d="M9.33333 57.3334H0V54.6667H9.33333C10.0697 54.6661 10.666 54.0697 10.6667 53.3334V46.6667H9.33333C7.45182 46.6667 5.6582 45.8718 4.39453 44.4779C3.13086 43.0847 2.51497 41.2221 2.69792 39.3497C3.11914 35.8881 6.07552 33.297 9.5625 33.3334H10.6667V26.6667C10.666 25.9304 10.0697 25.3341 9.33333 25.3334H0V22.6667H9.33333C11.5417 22.6694 13.3307 24.4584 13.3333 26.6667V36.0001H9.5625C7.44661 35.9545 5.63411 37.5046 5.35156 39.6023C5.23958 40.7266 5.60872 41.8464 6.36719 42.6843C7.12565 43.5216 8.20312 44.0001 9.33333 44.0001H13.3333V53.3334C13.3307 55.5417 11.5417 57.3308 9.33333 57.3334Z" fill="#501E50"/>
<path d="M39.986 21.3327C39.7751 21.3327 39.5628 21.3229 39.3506 21.3027C35.889 20.8809 33.2979 17.9245 33.3337 14.4375V13.3333H26.667C24.4587 13.3307 22.6696 11.5417 22.667 9.33333V0H25.3337V9.33333C25.3343 10.0697 25.9307 10.666 26.667 10.6667H36.0003V14.4375C35.9548 16.5534 37.5055 18.3659 39.6032 18.6478C40.7308 18.7643 41.8545 18.3926 42.6904 17.6269C43.5238 16.8678 43.999 15.7936 44.0003 14.6667V10.6667H53.3337C54.07 10.666 54.6663 10.0697 54.667 9.33333V0H57.3337V9.33333C57.3311 11.5417 55.542 13.3307 53.3337 13.3333H46.667V14.6667C46.6676 16.4375 45.9632 18.1354 44.71 19.3861C43.4561 20.6367 41.7568 21.3372 39.986 21.3327Z" fill="#501E50"/>
<path d="M80.0003 57.3334H70.667C68.4587 57.3308 66.6696 55.5417 66.667 53.3334V44.0001H70.4378C72.5537 44.0457 74.3662 42.4955 74.6488 40.3979C74.7607 39.2735 74.3916 38.1537 73.6331 37.3158C72.8747 36.4786 71.7972 36.0001 70.667 36.0001H66.667V26.6667C66.6696 24.4584 68.4587 22.6694 70.667 22.6667H80.0003V25.3334H70.667C69.9307 25.3341 69.3343 25.9304 69.3337 26.6667V33.3334H70.667C72.5485 33.3334 74.3421 34.1283 75.6058 35.5222C76.8695 36.9154 77.4854 38.7781 77.3024 40.6505C76.8812 44.1121 73.9248 46.7032 70.4378 46.6667H69.3337V53.3334C69.3343 54.0697 69.9307 54.6661 70.667 54.6667H80.0003V57.3334Z" fill="#501E50"/>
<path d="M57.3337 79.9999H54.667V70.6666C54.6663 69.9302 54.07 69.3339 53.3337 69.3332H44.0003V65.5624C44.0459 63.4465 42.4951 61.634 40.3975 61.3521C39.2731 61.2401 38.154 61.6093 37.3161 62.3677C36.4782 63.1262 36.0003 64.203 36.0003 65.3332V69.3332H26.667C25.9307 69.3339 25.3343 69.9302 25.3337 70.6666V79.9999H22.667V70.6666C22.6696 68.4582 24.4587 66.6692 26.667 66.6666H33.3337V65.3332C33.3337 63.4517 34.1286 61.6581 35.5218 60.3944C36.915 59.1307 38.7777 58.5142 40.6501 58.6972C44.1117 59.119 46.7028 62.0754 46.667 65.5624V66.6666H53.3337C55.542 66.6692 57.3311 68.4582 57.3337 70.6666V79.9999Z" fill="#501E50"/>
</g>
<defs>
<clipPath id="clip0">
<rect width="80" height="80" fill="white"/>
</clipPath>
</defs>
</svg>
