<svg width="30" height="30" viewBox="0 0 30 30" fill="none" xmlns="http://www.w3.org/2000/svg">
<g clip-path="url(#clip0)">
<path d="M29.3723 12.6288C27.779 6.93045 23.8482 2.79391 20.0274 2.79391C19.7205 2.79391 19.4139 2.82063 19.1152 2.87345C18.9458 2.90319 18.7977 3.00276 18.706 3.14725C18.6146 3.29265 18.5888 3.46932 18.6353 3.63446L19.4218 6.4478C19.4977 6.71948 19.7597 6.90313 20.0319 6.89069L20.0945 6.88947C21.5115 6.88947 24.1011 9.01314 25.4213 13.7331C25.4735 13.9204 25.5229 14.1119 25.5706 14.3117C24.0886 13.5783 22.3207 13.4086 20.7198 13.8545C17.1081 14.8651 14.9923 18.6249 16.002 22.236C16.8203 25.1619 19.512 27.2061 22.5475 27.2061C23.1658 27.2061 23.7833 27.1208 24.3828 26.9529C26.7645 26.2872 28.5552 24.3099 29.4251 21.3863C30.2104 18.7487 30.1907 15.5569 29.3723 12.6288Z" fill="#501E50"/>
<path d="M4.27639 2.79489C3.9701 2.79489 3.66321 2.821 3.36481 2.87382C3.19573 2.90296 3.0473 3.00313 2.95593 3.14762C2.86456 3.29302 2.83875 3.46969 2.8849 3.63483L3.67171 6.44817C3.7476 6.71985 4.00471 6.9035 4.28185 6.89106L4.34378 6.88984C5.76077 6.88984 8.3507 9.01351 9.67086 13.7335C9.72337 13.922 9.77285 14.1135 9.82021 14.3121C8.33765 13.5787 6.57035 13.409 4.9694 13.8549C1.35832 14.8654 -0.758064 18.6253 0.252166 22.2364C1.07055 25.1623 3.76217 27.2064 6.79771 27.2064C7.41605 27.2064 8.03349 27.1212 8.63331 26.9533C11.0147 26.2876 12.8054 24.3102 13.6757 21.3867C14.4606 18.7491 14.4412 15.5569 13.6225 12.6285C12.0283 6.93082 8.09814 2.79489 4.27639 2.79489Z" fill="#501E50"/>
</g>
<defs>
<clipPath id="clip0">
<rect width="30" height="30" fill="white"/>
</clipPath>
</defs>
</svg>
