<svg width="43" height="43" viewBox="0 0 43 43" fill="none" xmlns="http://www.w3.org/2000/svg">
<path d="M39.6587 16.9406C40.4373 16.1817 40.7122 15.0678 40.3762 14.0337C40.0402 12.9996 39.1631 12.2601 38.0871 12.1038L28.6783 10.7366C28.4936 10.7098 28.334 10.5938 28.2513 10.4264L24.0436 1.9007C23.5625 0.925642 22.5881 0.319946 21.5007 0.319946C20.4134 0.319946 19.439 0.925642 18.9579 1.9007L14.7502 10.4265C14.6674 10.5938 14.5079 10.7098 14.3231 10.7367L4.91451 12.1038C3.8385 12.2601 2.96145 12.9996 2.62534 14.0337C2.28924 15.0678 2.5642 16.1817 3.34291 16.9406L10.1511 23.577C10.2847 23.7073 10.3458 23.895 10.3142 24.079L8.70699 33.4497C8.52323 34.5214 8.95541 35.5841 9.83507 36.2232C10.7147 36.8625 11.8593 36.945 12.8215 36.4392L21.2369 32.015C21.4021 31.9281 21.5994 31.9281 21.7648 32.015L30.1802 36.4392C30.5988 36.6592 31.0517 36.768 31.5024 36.7679C32.0878 36.7679 32.6695 36.5845 33.1664 36.2231C34.0461 35.5839 34.4783 34.5212 34.2945 33.4496L32.6873 24.079C32.6558 23.895 32.7168 23.7072 32.8504 23.5769L39.6587 16.9406ZM30.4516 24.4626L32.0588 33.8334C32.1125 34.147 31.9189 34.3258 31.8332 34.388C31.7473 34.4502 31.5174 34.5793 31.2359 34.4311L22.8205 30.0069C22.4074 29.7898 21.9542 29.6811 21.5009 29.6811C21.0477 29.6811 20.5944 29.7898 20.1814 30.0068L11.766 34.431C11.4844 34.579 11.2545 34.4501 11.1687 34.3879C11.083 34.3256 10.8893 34.1468 10.9432 33.8332L12.5504 24.4626C12.7082 23.5426 12.4034 22.6043 11.7348 21.9526L4.9266 15.3163C4.69875 15.0941 4.75032 14.8356 4.78315 14.7349C4.81582 14.634 4.9261 14.3946 5.24095 14.3489L14.6495 12.9817C15.5732 12.8475 16.3715 12.2676 16.7847 11.4304L20.9924 2.90465C21.1332 2.61935 21.3949 2.58853 21.501 2.58853C21.6069 2.58853 21.8686 2.61927 22.0095 2.90465V2.90473L26.2172 11.4305C26.6303 12.2677 27.4285 12.8476 28.3523 12.9818L37.761 14.3489C38.0758 14.3946 38.186 14.6341 38.2188 14.7349C38.2515 14.8358 38.3032 15.0943 38.0752 15.3164L31.267 21.9527C30.5985 22.6043 30.2937 23.5426 30.4516 24.4626Z" fill="#501E50"/>
<path d="M34.7513 1.90015C34.2443 1.53197 33.5351 1.64434 33.1669 2.1511L31.9628 3.80828C31.5946 4.31504 31.7069 5.02446 32.2137 5.39264C32.4152 5.53886 32.6485 5.60932 32.8796 5.60932C33.2304 5.60932 33.5762 5.44715 33.7981 5.14178L35.0022 3.4846C35.3704 2.97776 35.2581 2.26834 34.7513 1.90015Z" fill="#501E50"/>
<path d="M11.0324 3.80157L9.82836 2.14439C9.46026 1.63779 8.75093 1.52542 8.244 1.89344C7.73723 2.26163 7.62486 2.97104 7.99305 3.47781L9.19714 5.13499C9.41911 5.4406 9.76495 5.60269 10.1158 5.60269C10.3471 5.60269 10.5804 5.53223 10.7816 5.38593C11.2883 5.01783 11.4007 4.30841 11.0324 3.80157Z" fill="#501E50"/>
<path d="M4.16158 25.7688C3.96799 25.1731 3.32812 24.847 2.73225 25.0406L0.784061 25.6736C0.188192 25.8672 -0.137751 26.5073 0.0558326 27.103C0.21154 27.5824 0.656237 27.8871 1.13436 27.8871C1.25051 27.8871 1.36868 27.8691 1.48516 27.8312L3.43335 27.1981C4.02913 27.0045 4.35516 26.3647 4.16158 25.7688Z" fill="#501E50"/>
<path d="M21.5005 38.3628C20.8741 38.3628 20.3662 38.8706 20.3662 39.4971V41.5456C20.3662 42.1721 20.8741 42.6799 21.5005 42.6799C22.1269 42.6799 22.6348 42.1721 22.6348 41.5456V39.4971C22.6348 38.8706 22.127 38.3628 21.5005 38.3628Z" fill="#501E50"/>
<path d="M42.2156 25.6753L40.2674 25.0422C39.6718 24.8488 39.0316 25.1747 38.8381 25.7705C38.6445 26.3664 38.9704 27.0063 39.5663 27.1999L41.5145 27.8329C41.631 27.8707 41.749 27.8887 41.8652 27.8887C42.3434 27.8887 42.7881 27.5839 42.9438 27.1045C43.1374 26.5087 42.8114 25.8689 42.2156 25.6753Z" fill="#501E50"/>
</svg>
