<svg width="209" height="209" viewBox="0 0 209 209" fill="none" xmlns="http://www.w3.org/2000/svg">
<path d="M68.5781 65.3125V71.8438C68.5781 79.727 74.1983 86.3235 81.6406 87.842V104.5C81.6406 110.711 84.1388 116.344 88.1719 120.466V120.828C88.2829 120.828 88.3874 120.799 88.4952 120.795C92.6229 124.848 98.2725 127.359 104.5 127.359C117.105 127.359 127.359 117.102 127.359 104.5V101.234V78.375C127.359 69.3717 120.035 62.0469 111.031 62.0469H71.8438C70.0411 62.0469 68.5781 63.5066 68.5781 65.3125ZM104.5 120.828C101.512 120.828 98.746 119.963 96.3359 118.555C101.192 115.724 104.5 110.515 104.5 104.5H97.9688C97.9688 108.873 95.0721 112.54 91.1077 113.797C89.2691 111.155 88.1719 107.958 88.1719 104.5V88.1719H107.766C107.766 96.0551 113.386 102.652 120.828 104.17V104.5C120.828 113.503 113.503 120.828 104.5 120.828ZM75.1094 68.5781H111.031C116.433 68.5781 120.828 72.9737 120.828 78.375V97.4103C117.027 96.0616 114.297 92.4303 114.297 88.1719V84.9062C114.297 83.1004 112.834 81.6406 111.031 81.6406H84.9062C79.5049 81.6406 75.1094 77.2451 75.1094 71.8438V68.5781Z" fill="#BB6BD9"/>
<path d="M200.215 179.609C205.506 176.096 209 170.093 209 163.281C209 152.475 200.212 143.688 189.406 143.688C182.594 143.688 176.592 147.185 173.078 152.472C169.564 147.182 163.562 143.688 156.75 143.688C154.164 143.688 151.678 144.239 149.347 145.196C147.214 138.658 141.131 133.891 133.891 133.891H79.3645L61.3154 121.857L47.7369 94.7031H52.25V88.1719H42.4531H39.1875V61.7856C44.0925 61.0802 48.5043 58.827 51.8875 55.5156H55.5156C64.519 55.5156 71.8438 48.1908 71.8438 39.1875V32.6562C71.8438 30.8504 70.3808 29.3906 68.5781 29.3906H58.7812V26.125C58.7812 24.3191 57.3182 22.8594 55.5156 22.8594H16.3281C14.5255 22.8594 13.0625 24.3191 13.0625 26.125V29.3906H3.26562C1.463 29.3906 0 30.8504 0 32.6562V39.1875C0 48.1908 7.3248 55.5156 16.3281 55.5156H19.9562C23.3427 58.827 27.7513 61.0802 32.6562 61.7856V88.1719H26.125H19.5938V94.7031H23.973L42.7176 138.443C42.9495 138.985 43.3218 139.455 43.7986 139.798L49.4546 143.913C43.8149 144.723 38.9426 147.926 35.9219 152.475C32.4081 147.185 26.4058 143.688 19.5938 143.688C8.7878 143.688 0 152.475 0 163.281C0 170.093 3.49748 176.096 8.78453 179.609C3.49748 183.123 0 189.125 0 195.938V209H6.53125V195.938C6.53125 188.734 12.3898 182.875 19.5938 182.875C26.7977 182.875 32.6562 188.734 32.6562 195.938V209H39.1875V195.938C39.1875 188.734 45.046 182.875 52.25 182.875C59.454 182.875 65.3125 188.734 65.3125 195.938V209H71.8438V195.938C71.8438 189.125 68.3463 183.123 63.0592 179.609C68.3495 176.096 71.8438 170.093 71.8438 163.281C71.8438 162.151 71.7262 161.051 71.5433 159.973L78.375 164.943V205.734C78.375 207.54 79.838 209 81.6406 209H146.953C148.756 209 150.219 207.54 150.219 205.734V184.661C152.198 183.509 154.418 182.875 156.75 182.875C163.954 182.875 169.812 188.734 169.812 195.938V209H176.344V195.938C176.344 188.734 182.202 182.875 189.406 182.875C196.61 182.875 202.469 188.734 202.469 195.938V209H209V195.938C209 189.125 205.503 183.123 200.215 179.609ZM65.3125 35.9219V39.1875C65.3125 44.2198 61.4852 48.328 56.5965 48.8766C57.9844 45.9277 58.7812 42.6523 58.7812 39.1875V35.9219H65.3125ZM6.53125 39.1875V35.9219H13.0625V39.1875C13.0625 42.6523 13.8593 45.9277 15.2472 48.8766C10.3586 48.328 6.53125 44.2198 6.53125 39.1875ZM19.5938 39.1875V29.3906H52.25V39.1875C52.25 48.1908 44.9252 55.5156 35.9219 55.5156C26.9185 55.5156 19.5938 48.1908 19.5938 39.1875ZM6.53125 163.281C6.53125 156.077 12.3898 150.219 19.5938 150.219C26.7977 150.219 32.6562 156.077 32.6562 163.281C32.6562 170.485 26.7977 176.344 19.5938 176.344C12.3898 176.344 6.53125 170.485 6.53125 163.281ZM35.9219 185.128C34.4687 182.94 32.5909 181.063 30.403 179.609C32.5909 178.156 34.4687 176.278 35.9219 174.09C37.3751 176.278 39.2528 178.156 41.4408 179.609C39.2528 181.063 37.3751 182.94 35.9219 185.128ZM52.25 176.344C45.046 176.344 39.1875 170.485 39.1875 163.281C39.1875 156.077 45.046 150.219 52.25 150.219C59.454 150.219 65.3125 156.077 65.3125 163.281C65.3125 170.485 59.454 176.344 52.25 176.344ZM189.406 150.219C196.61 150.219 202.469 156.077 202.469 163.281C202.469 170.485 196.61 176.344 189.406 176.344C182.202 176.344 176.344 170.485 176.344 163.281C176.344 156.077 182.202 150.219 189.406 150.219ZM169.812 163.281C169.812 170.485 163.954 176.344 156.75 176.344C154.418 176.344 152.198 175.71 150.219 174.561V152.002C152.198 150.852 154.418 150.219 156.75 150.219C163.954 150.219 169.812 156.077 169.812 163.281ZM101.234 154.542L96.1008 140.422H101.234V154.542ZM107.766 140.422H112.899L107.766 154.542V140.422ZM143.688 202.469H130.625V156.75H124.094V202.469H84.9062V163.281C84.9062 162.236 84.4066 161.257 83.5608 160.639L48.3639 135.043L31.079 94.7031H40.435L55.8618 125.553C56.1165 126.06 56.4986 126.494 56.9721 126.811L76.5658 139.873C77.0981 140.229 77.7317 140.422 78.375 140.422H89.1483L101.43 174.195C101.901 175.485 103.128 176.344 104.5 176.344C105.872 176.344 107.099 175.485 107.57 174.195L119.852 140.422H133.891C139.292 140.422 143.688 144.817 143.688 150.219V202.469ZM173.078 185.128C171.625 182.94 169.747 181.063 167.559 179.609C169.747 178.156 171.625 176.278 173.078 174.09C174.531 176.278 176.409 178.156 178.597 179.609C176.409 181.063 174.531 182.94 173.078 185.128Z" fill="#BB6BD9"/>
<path d="M88.1719 26.125H94.7031V16.3281H104.5V9.79688H94.7031V0H88.1719V9.79688H78.375V16.3281H88.1719V26.125Z" fill="#BB6BD9"/>
</svg>
