<svg width="31" height="32" viewBox="0 0 31 32" fill="none" xmlns="http://www.w3.org/2000/svg">
<g clip-path="url(#clip0)">
<path d="M27.2568 3.58029C24.8063 1.1004 20.8446 -0.101194 15.4797 0.00708099C10.0702 0.116907 6.45416 1.09702 4.09998 3.09164C1.82378 5.02001 0.763672 7.84178 0.763672 11.9719V16.187C0.763672 21.0627 3.29472 26.423 8.13214 27.2341C8.69061 27.3284 9.2167 26.9365 9.30739 26.3599C9.39808 25.7835 9.01894 25.2403 8.46047 25.1467C4.79188 24.5316 2.81233 20.0713 2.81233 16.187V11.9719C2.81233 6.04974 4.93815 2.33612 15.5199 2.12126C20.3171 2.02313 23.7796 3.02284 25.8223 5.09022C27.4141 6.70151 28.1879 8.95244 28.1879 11.9719V16.187C28.1879 22.5698 25.4126 25.3851 18.2942 26.2141H13.2465C12.9749 26.2141 12.7143 26.3255 12.5223 26.5238L8.96567 30.1952C8.56564 30.6081 8.56564 31.2776 8.96567 31.6906C9.16562 31.897 9.42785 32.0003 9.68994 32.0003C9.95203 32.0003 10.2143 31.8971 10.4142 31.6906L13.6709 28.3288H18.3514C18.3891 28.3288 18.4269 28.3267 18.4645 28.3224C22.5383 27.8553 25.328 26.7608 27.2435 24.8779C29.2576 22.8979 30.2367 20.0551 30.2367 16.1868V11.9719C30.2367 8.40514 29.2341 5.58182 27.2568 3.58029Z" fill="#501E50"/>
<path d="M16.1397 6.90647C16.1398 6.90647 16.1398 6.90647 16.1401 6.90647C17.7906 6.90647 19.3424 7.57008 20.5096 8.77492C21.6769 9.9799 22.3198 11.582 22.3197 13.2861C22.3197 13.87 22.7782 14.3435 23.3439 14.3435C23.344 14.3435 23.344 14.3435 23.344 14.3435C23.9097 14.3435 24.3683 13.8702 24.3683 13.2862C24.3685 11.0173 23.5125 8.88404 21.9583 7.27965C20.4042 5.67527 18.338 4.79187 16.1401 4.79187C16.14 4.79187 16.1396 4.79187 16.1394 4.79187C15.5737 4.79187 15.1152 5.26529 15.1152 5.84924C15.1154 6.43305 15.574 6.90647 16.1397 6.90647Z" fill="#501E50"/>
<path d="M16.1394 10.6248C17.5609 10.625 18.7176 11.8189 18.7177 13.2861C18.7179 13.87 19.1764 14.3435 19.7422 14.3433C20.308 14.3433 20.7665 13.8698 20.7664 13.2858C20.766 10.6528 18.6906 8.51043 16.1397 8.51001H16.1396C15.5739 8.51001 15.1154 8.98329 15.1152 9.56724C15.1152 10.1512 15.5737 10.6248 16.1394 10.6248Z" fill="#501E50"/>
<path d="M11.5456 12.4365C11.0787 12.7661 10.9589 13.4241 11.2781 13.9061C11.5972 14.3881 12.2348 14.5116 12.7017 14.1821C13.069 13.923 13.9292 13.3159 13.8688 12.1024C13.8306 11.376 13.1959 10.339 12.6702 9.59682C11.9013 8.51097 11.2386 7.85695 10.7047 7.65422C10.2062 7.46262 9.68489 7.45854 9.15415 7.64238C8.05485 8.02472 7.25669 8.71568 6.84614 9.64053C6.44638 10.5408 6.45525 11.5755 6.87195 12.6333C7.85613 15.1256 9.23392 17.3076 10.9762 19.128C12.7306 20.9169 14.8442 22.3391 17.2596 23.3556C17.7823 23.5751 18.2994 23.6849 18.7964 23.6849C19.273 23.6849 19.7312 23.584 20.1582 23.382C21.0541 22.958 21.7233 22.1343 22.0942 20.9981C22.2717 20.4515 22.2677 19.9137 22.0836 19.4026C21.8859 18.8475 21.2522 18.1636 20.2004 17.3699C19.4813 16.8273 18.4766 16.1721 17.7703 16.1325C16.5971 16.0716 16.0095 16.958 15.7585 17.3371C15.4392 17.8191 15.5587 18.477 16.0256 18.8068C16.4927 19.1366 17.13 19.0131 17.4494 18.531C17.5609 18.3628 17.6245 18.2864 17.661 18.253C18.236 18.4432 19.8756 19.6867 20.1707 20.1632C20.178 20.1937 20.1796 20.24 20.1523 20.3245C20.0231 20.7205 19.7711 21.2389 19.3047 21.4597C18.8678 21.6661 18.3713 21.5395 18.0324 21.3972C15.868 20.4863 13.9785 19.2168 12.4248 17.6326C10.8813 16.0199 9.65143 14.0694 8.76955 11.8361C8.63134 11.4853 8.50855 10.9725 8.70864 10.522C8.92238 10.0405 9.42471 9.78024 9.80713 9.64715C9.8888 9.61896 9.93374 9.62051 9.96488 9.62826C10.4266 9.93349 11.6306 11.625 11.8149 12.2187C11.7824 12.2558 11.7086 12.3216 11.5456 12.4365Z" fill="#501E50"/>
</g>
<defs>
<clipPath id="clip0">
<rect width="31" height="32" fill="white"/>
</clipPath>
</defs>
</svg>
