<svg xmlns="http://www.w3.org/2000/svg" xmlns:xlink="http://www.w3.org/1999/xlink" viewBox="0 0 101.6 112.35"><defs><style>.cls-1{fill:#fff;}.cls-2{fill:#e08064;}.cls-3{fill:#f3d89c;}.cls-4{fill:#e4c58f;}.cls-5{clip-path:url(#clip-path);}.cls-6{fill:#3a3a3a;}.cls-7{clip-path:url(#clip-path-2);}.cls-8{clip-path:url(#clip-path-3);}.cls-9{fill:#bc5c42;}.cls-10{fill:#9e4830;}</style><clipPath id="clip-path"><path class="cls-1" d="M62.55,61a17.66,17.66,0,0,1,7.62,1.71A9.31,9.31,0,1,0,56.63,62,17.57,17.57,0,0,1,62.55,61Z"/></clipPath><clipPath id="clip-path-2"><path class="cls-1" d="M37.08,61a17.66,17.66,0,0,1,7.62,1.71A9.31,9.31,0,1,0,31.16,62,17.57,17.57,0,0,1,37.08,61Z"/></clipPath><clipPath id="clip-path-3"><path class="cls-2" d="M50.13,98h0c-11,0-19.86-7.6-19.86-17v0c0-6.65,8.21-11,15.16-8h0a11.9,11.9,0,0,0,9.4,0h0c7-3,15.15,1.32,15.15,8v0C70,90.43,61.09,98,50.13,98Z"/></clipPath></defs><title>face</title><g id="Слой_2" data-name="Слой 2"><g id="Слой_2-2" data-name="Слой 2"><circle class="cls-3" cx="92.3" cy="63.27" r="9.3"/><circle class="cls-4" cx="92.3" cy="63.27" r="5.4"/><circle class="cls-3" cx="9.3" cy="63.27" r="9.3"/><circle class="cls-4" cx="9.3" cy="63.27" r="5.4"/><circle class="cls-3" cx="50.4" cy="66.22" r="40.76"/><path class="cls-1" d="M62.55,61a17.66,17.66,0,0,1,7.62,1.71A9.31,9.31,0,1,0,56.63,62,17.57,17.57,0,0,1,62.55,61Z"/><g class="cls-5"><circle class="cls-6" cx="63.69" cy="58.45" r="3.61"/></g><path class="cls-1" d="M37.08,61a17.66,17.66,0,0,1,7.62,1.71A9.31,9.31,0,1,0,31.16,62,17.57,17.57,0,0,1,37.08,61Z"/><g class="cls-7"><circle class="cls-6" cx="38.22" cy="58.45" r="3.61"/></g><path class="cls-2" d="M50.13,98h0c-11,0-19.86-7.6-19.86-17v0c0-6.65,8.21-11,15.16-8h0a11.9,11.9,0,0,0,9.4,0h0c7-3,15.15,1.32,15.15,8v0C70,90.43,61.09,98,50.13,98Z"/><g class="cls-8"><ellipse class="cls-9" cx="50.56" cy="99.15" rx="15.44" ry="13.2"/></g><path class="cls-10" d="M42.47,26.6a33.7,33.7,0,0,1,7.9-.94,34.38,34.38,0,0,1,4.08.25c-.19-.18-.39-.39-.62-.63A10,10,0,0,1,51.61,19a14,14,0,0,1,.86-5.08,13.8,13.8,0,0,1,1.24-2.57,10.76,10.76,0,0,1,1.74-2.19A8.22,8.22,0,0,1,60.57,7a8.71,8.71,0,0,1,5.86,1.76A7,7,0,0,1,69.33,14a7.52,7.52,0,0,1-2.22,5.79,6.12,6.12,0,0,1-5.66,1.46,6.43,6.43,0,0,1-2.64-1.34,5.09,5.09,0,0,1-1.55-2.27,5.47,5.47,0,0,1,.71-4.9l.35-.44a5.54,5.54,0,0,1,.42-.42,4.16,4.16,0,0,1,.86-.6,4.52,4.52,0,0,1,1.84-.53,4.89,4.89,0,0,1,2.69.6,4.19,4.19,0,0,1,.62.43l.21.16-.18-.19a6.15,6.15,0,0,0-.58-.51,5.18,5.18,0,0,0-2.76-1,5.32,5.32,0,0,0-2.15.34,4.77,4.77,0,0,0-1.13.6c-.2.13-.34.25-.51.38l-.51.5a6.91,6.91,0,0,0-1.64,6.05,7,7,0,0,0,1.74,3.4,8.93,8.93,0,0,0,3.37,2.31,9.35,9.35,0,0,0,8.82-1.17,11.73,11.73,0,0,0,4.64-8.56,12,12,0,0,0-.78-5.21,12.59,12.59,0,0,0-3-4.49A15.08,15.08,0,0,0,60.74,0a15.79,15.79,0,0,0-10.16,2.8,18.37,18.37,0,0,0-3.66,3.45,21.91,21.91,0,0,0-2.57,3.88,23.38,23.38,0,0,0-2.54,8.16,21.57,21.57,0,0,0,.46,7.57A7.15,7.15,0,0,0,42.47,26.6Z"/></g></g></svg>