<svg xmlns="http://www.w3.org/2000/svg" viewBox="0 0 44.7 26.41"><defs><style>.cls-1{fill:none;stroke:#ff7c3b;stroke-miterlimit:10;stroke-width:2px;}</style></defs><title>4</title><g id="Слой_2" data-name="Слой 2"><g id="Слой_2-2" data-name="Слой 2"><path class="cls-1" d="M11.22,21.27A6.71,6.71,0,1,1,9.05,9c.17,0,.33.08.5.12M27.33,5.57A9.69,9.69,0,0,0,9.42,10.69m1.68,8.52a6.21,6.21,0,0,0,12.41,0m13.05-7.36A9.07,9.07,0,0,0,28,5.63,9.21,9.21,0,0,0,25.31,6M22.78,22.16a9.06,9.06,0,0,0,11.84-1.31h0a5.09,5.09,0,0,0,3.11.87,6,6,0,1,0,0-11.94,6.06,6.06,0,0,0-2,.33"/></g></g></svg>