<svg xmlns="http://www.w3.org/2000/svg" viewBox="0 0 37.13 37.71"><defs><style>.cls-1{fill:none;stroke:#ff7c3b;stroke-miterlimit:10;stroke-width:2px;}</style></defs><title>9</title><g id="Слой_2" data-name="Слой 2"><g id="Слой_2-2" data-name="Слой 2"><path class="cls-1" d="M17.78,6.92a2.34,2.34,0,0,0,1.06,1A2.67,2.67,0,0,0,20.76,8,3.08,3.08,0,0,0,22.9,5.2a3.8,3.8,0,0,0-.17-1.37A4,4,0,0,0,20.9,1.55,4.07,4.07,0,0,0,19.42,1,5.09,5.09,0,0,0,15.1,2.59a5.22,5.22,0,0,0-1.39,2.78A6.54,6.54,0,0,0,15,10.26a13.52,13.52,0,0,0-9.07,8.52,4.43,4.43,0,0,0-.9-.1,4,4,0,1,0,0,8,3.81,3.81,0,0,0,.59-.05,13.46,13.46,0,0,0,26.08,0,4.12,4.12,0,0,0,.51,0,4,4,0,0,0,0-7.95,3.86,3.86,0,0,0-.84.09,13.5,13.5,0,0,0-11.85-9,3.76,3.76,0,0,1-2.34-.92l0,0a4.2,4.2,0,0,1-1-1.35,4.35,4.35,0,0,1-.35-1.84,3.42,3.42,0,0,1,2.42-3,3,3,0,0,1,2.13.07,2.93,2.93,0,0,1,1.49,1.51,2.66,2.66,0,0,1,.09,2A2.51,2.51,0,0,1,20.6,7.54M5.31,21a14.21,14.21,0,0,0-.19,2.37c0,.33,0,.65.06,1m7.26-3.68a1.81,1.81,0,0,1,3.61,0m8.42,5.85a6,6,0,0,1-11.73,0m8.32-5.85a1.8,1.8,0,1,1,3.6,0M32,24.34c0-.37.06-.74.06-1.11a13.84,13.84,0,0,0-.2-2.25"/></g></g></svg>