<svg xmlns="http://www.w3.org/2000/svg" viewBox="0 0 33.64 33.64"><defs><style>.cls-1{fill:none;stroke:#ff7c3b;stroke-miterlimit:10;stroke-width:2px;}</style></defs><title>3</title><g id="Слой_2" data-name="Слой 2"><g id="Слой_2-2" data-name="Слой 2"><path class="cls-1" d="M20.55,5.46c0,2.46-1.67,8.37-3.73,8.37s-3.73-5.91-3.73-8.37S14.76,1,16.82,1,20.55,3,20.55,5.46Z"/><path class="cls-1" d="M13.09,28.18c0-2.46,1.67-8.37,3.73-8.37s3.73,5.91,3.73,8.37-1.67,4.46-3.73,4.46S13.09,30.65,13.09,28.18Z"/><path class="cls-1" d="M28.18,20.55c-2.46,0-8.37-1.67-8.37-3.73s5.91-3.73,8.37-3.73,4.46,1.67,4.46,3.73S30.65,20.55,28.18,20.55Z"/><path class="cls-1" d="M5.46,13.09c2.46,0,8.37,1.67,8.37,3.73s-5.91,3.73-8.37,3.73S1,18.88,1,16.82,3,13.09,5.46,13.09Z"/><path class="cls-1" d="M27.49,11.42c-1.74,1.74-7.1,4.74-8.56,3.29s1.55-6.82,3.29-8.56,4.33-2,5.79-.52S29.23,9.68,27.49,11.42Z"/><path class="cls-1" d="M6.15,22.22c1.74-1.74,7.1-4.74,8.56-3.29s-1.55,6.82-3.29,8.56-4.33,2-5.79.52S4.41,24,6.15,22.22Z"/><path class="cls-1" d="M22.22,27.49c-1.74-1.74-4.74-7.1-3.29-8.56s6.82,1.55,8.56,3.29,2,4.33.52,5.79S24,29.23,22.22,27.49Z"/><path class="cls-1" d="M11.42,6.15c1.74,1.74,4.74,7.1,3.29,8.56s-6.82-1.55-8.56-3.29-2-4.33-.52-5.79S9.68,4.41,11.42,6.15Z"/></g></g></svg>