<svg xmlns="http://www.w3.org/2000/svg" viewBox="0 0 35 42"><defs><style>.cls-1{fill:none;stroke:#ff7c3b;stroke-miterlimit:10;stroke-width:2px;}</style></defs><title>8</title><g id="Слой_2" data-name="Слой 2"><g id="Слой_2-2" data-name="Слой 2"><rect class="cls-1" x="7" y="15" width="20" height="15"/><rect class="cls-1" x="7" y="30" width="8" height="11"/><line class="cls-1" x1="7" y1="38" x2="14" y2="38"/><rect class="cls-1" x="11" y="3" width="13" height="9" rx="3.65"/><rect class="cls-1" x="1" y="11" width="6" height="10"/><path class="cls-1" d="M7,5V6.52A2.48,2.48,0,0,1,4.52,9h-1A2.48,2.48,0,0,1,1,6.52V5"/><rect class="cls-1" x="27" y="15" width="6" height="10"/><rect class="cls-1" x="19" y="30" width="8" height="11"/><line class="cls-1" x1="19" y1="38" x2="27" y2="38"/><line class="cls-1" x1="16" y1="1" x2="20" y2="1"/><line class="cls-1" x1="15" y1="14" x2="19" y2="14"/><path class="cls-1" d="M28,31V29a3,3,0,0,1,3-3h0a3,3,0,0,1,3,3v2"/></g></g></svg>