<svg xmlns="http://www.w3.org/2000/svg" viewBox="0 0 33 33"><title>question</title><g id="Слой_2" data-name="Слой 2"><g id="Слой_2-2" data-name="Слой 2"><path d="M16.5,33A16.5,16.5,0,1,1,33,16.5,16.52,16.52,0,0,1,16.5,33Zm0-32A15.5,15.5,0,1,0,32,16.5,15.51,15.51,0,0,0,16.5,1Z"/><path d="M16.51,7.05c3.39,0,5.72,2.07,5.72,5,0,2.6-1.63,4-3.39,5.6s-1.91,2-1.91,4.73H15.84v-.31c0-2.63.45-3.44,2.27-5.15,1.4-1.31,3-2.74,3-4.84,0-2.35-1.91-4-4.59-4-3.56,0-5,2.8-5,5.6H10.44C10.44,10.16,12.31,7.05,16.51,7.05ZM17,27.4H15.73V25.55H17Z"/></g></g></svg>