<svg xmlns="http://www.w3.org/2000/svg" viewBox="0 0 34 47.06"><defs><style>.cls-1{fill:#ff7c3b;stroke:#fff;stroke-miterlimit:10;stroke-width:2px;}</style></defs><title>rabota</title><g id="Слой_2" data-name="Слой 2"><g id="Слой_2-2" data-name="Слой 2"><path class="cls-1" d="M18,40H2.69A1.68,1.68,0,0,1,1,38.31V2.69A1.68,1.68,0,0,1,2.69,1H31.31A1.68,1.68,0,0,1,33,2.69V38.31A1.68,1.68,0,0,1,31.31,40H26"/><path class="cls-1" d="M18,34V45.69a.36.36,0,0,0,.63.25l2.6-2.78a.38.38,0,0,1,.54,0l2.6,2.78a.36.36,0,0,0,.63-.25V34"/><line class="cls-1" x1="7" y1="9" x2="26" y2="9"/><line class="cls-1" x1="7" y1="16" x2="26" y2="16"/><circle class="cls-1" cx="21.5" cy="29.5" r="5.5"/></g></g></svg>