<svg xmlns="http://www.w3.org/2000/svg" viewBox="0 0 37.83 44.83"><defs><style>.cls-1{fill:#ff7c3b;stroke:#fff;stroke-miterlimit:10;stroke-width:2px;}</style></defs><title>sklad</title><g id="Слой_2" data-name="Слой 2"><g id="Слой_2-2" data-name="Слой 2"><rect class="cls-1" x="1" y="1" width="35.83" height="35.83" rx="1.43"/><line class="cls-1" x1="1.41" y1="8.29" x2="37.45" y2="8.29"/><line class="cls-1" x1="1.41" y1="15.41" x2="37.45" y2="15.41"/><line class="cls-1" x1="1.41" y1="22.53" x2="37.45" y2="22.53"/><line class="cls-1" x1="1.41" y1="29.64" x2="37.45" y2="29.64"/><line class="cls-1" x1="1.84" y1="1.18" x2="36.79" y2="36.13"/><path class="cls-1" d="M33.85,37.77a6.06,6.06,0,1,1-12.12,0"/><path class="cls-1" d="M29,37.77a1.21,1.21,0,0,1-2.41,0"/><path class="cls-1" d="M17.09,37.77A6.06,6.06,0,0,1,5,37.77"/><path class="cls-1" d="M12.23,37.77a1.21,1.21,0,0,1-2.41,0"/></g></g></svg>