<svg width="53" height="94" viewBox="0 0 53 94" fill="none" xmlns="http://www.w3.org/2000/svg">
<path fill-rule="evenodd" clip-rule="evenodd" d="M44.4443 46C49.7041 41.1572 53 34.2134 53 26.5C53 11.8644 41.1357 0 26.5 0C11.8643 0 0 11.8644 0 26.5C0 34.2134 3.2959 41.1572 8.55566 46C13.2764 41.6541 19.5781 39 26.5 39C33.4219 39 39.7236 41.6541 44.4443 46Z" fill="#27AE60"/>
<path d="M12.3672 30H11.1367V26.8408H7.95801V30H6.72266V22.8906H7.95801V25.8496H11.1367V22.8906H12.3672V30ZM13.4951 27.3096C13.4951 26.792 13.5977 26.3265 13.8027 25.9131C14.0078 25.4964 14.2959 25.1774 14.667 24.9561C15.0381 24.7314 15.4645 24.6191 15.9463 24.6191C16.6592 24.6191 17.237 24.8486 17.6797 25.3076C18.1257 25.7666 18.3665 26.3753 18.4023 27.1338L18.4072 27.4121C18.4072 27.9329 18.3063 28.3984 18.1045 28.8086C17.9059 29.2188 17.6195 29.5361 17.2451 29.7607C16.874 29.9854 16.4443 30.0977 15.9561 30.0977C15.2106 30.0977 14.6133 29.8503 14.1641 29.3555C13.7181 28.8574 13.4951 28.195 13.4951 27.3682V27.3096ZM14.6816 27.4121C14.6816 27.9557 14.7939 28.3822 15.0186 28.6914C15.2432 28.9974 15.5557 29.1504 15.9561 29.1504C16.3564 29.1504 16.6673 28.9941 16.8887 28.6816C17.1133 28.3691 17.2256 27.9118 17.2256 27.3096C17.2256 26.7757 17.11 26.3525 16.8789 26.04C16.651 25.7275 16.3402 25.5713 15.9463 25.5713C15.5589 25.5713 15.2513 25.7259 15.0234 26.0352C14.7956 26.3411 14.6816 26.8001 14.6816 27.4121ZM19.501 30V24.7168H21.6445C22.3672 24.7168 22.9173 24.8438 23.2949 25.0977C23.6725 25.3483 23.8613 25.7096 23.8613 26.1816C23.8613 26.4258 23.7848 26.6455 23.6318 26.8408C23.4821 27.0329 23.2591 27.181 22.9629 27.2852C23.3079 27.3568 23.5814 27.5016 23.7832 27.7197C23.985 27.9378 24.0859 28.195 24.0859 28.4912C24.0859 28.9827 23.9036 29.3571 23.5391 29.6143C23.1777 29.8714 22.6569 30 21.9766 30H19.501ZM20.6875 27.749V29.0625H21.9863C22.5951 29.0625 22.8994 28.8444 22.8994 28.4082C22.8994 27.9688 22.5902 27.749 21.9717 27.749H20.6875ZM20.6875 26.8994H21.6641C22.3379 26.8994 22.6748 26.7008 22.6748 26.3037C22.6748 25.887 22.3558 25.6722 21.7178 25.6592H20.6875V26.8994ZM28.4121 24.7168H29.5938V30H28.4121V26.4746L26.3418 30H25.1602V24.7168H26.3418V28.2422L28.4121 24.7168ZM35.3311 30H34.1445V27.8662H32.0889V30H30.9023V24.7168H32.0889V26.9189H34.1445V24.7168H35.3311V30ZM38.4756 27.9102H37.875V30H36.6885V24.7168H37.875V26.8262H38.3975L39.8574 24.7168H41.3223L39.4131 27.2461L41.4834 30H39.9404L38.4756 27.9102ZM45.292 30C45.2399 29.8991 45.1943 29.7347 45.1553 29.5068C44.7777 29.9007 44.3154 30.0977 43.7686 30.0977C43.238 30.0977 42.805 29.9463 42.4697 29.6436C42.1344 29.3408 41.9668 28.9665 41.9668 28.5205C41.9668 27.9574 42.1751 27.526 42.5918 27.2266C43.0117 26.9238 43.6107 26.7725 44.3887 26.7725H45.1162V26.4258C45.1162 26.1523 45.0397 25.9342 44.8867 25.7715C44.7337 25.6055 44.501 25.5225 44.1885 25.5225C43.9183 25.5225 43.6969 25.5908 43.5244 25.7275C43.3519 25.861 43.2656 26.0319 43.2656 26.2402H42.0791C42.0791 25.9505 42.1751 25.6803 42.3672 25.4297C42.5592 25.1758 42.8197 24.9772 43.1484 24.834C43.4805 24.6908 43.8499 24.6191 44.2568 24.6191C44.8753 24.6191 45.3685 24.7754 45.7363 25.0879C46.1042 25.3971 46.293 25.8333 46.3027 26.3965V28.7793C46.3027 29.2546 46.3695 29.6338 46.5029 29.917V30H45.292ZM43.9883 29.1455C44.2227 29.1455 44.4424 29.0885 44.6475 28.9746C44.8558 28.8607 45.012 28.7077 45.1162 28.5156V27.5195H44.4766C44.0371 27.5195 43.7067 27.596 43.4854 27.749C43.264 27.902 43.1533 28.1185 43.1533 28.3984C43.1533 28.6263 43.2282 28.8086 43.3779 28.9453C43.5309 29.0788 43.7344 29.1455 43.9883 29.1455Z" fill="white"/>
<circle cx="26.5" cy="67.5" r="26.5" fill="#FDCE40"/>
<path d="M17.0586 69.3447H14.3047L13.7285 71H12.4443L15.1299 63.8906H16.2383L18.9287 71H17.6396L17.0586 69.3447ZM14.6514 68.3486H16.7119L15.6816 65.3994L14.6514 68.3486ZM21.2676 68.9102H20.667V71H19.4805V65.7168H20.667V67.8262H21.1895L22.6494 65.7168H24.1143L22.2051 68.2461L24.2754 71H22.7324L21.2676 68.9102ZM24.9736 65.7168H26.1602V70.0527H28.2207V65.7168H29.4072V70.0527H30.125L30.0273 72.5674H28.9482V71H24.9736V65.7168ZM34.2607 65.7168H35.4424V71H34.2607V67.4746L32.1904 71H31.0088V65.7168H32.1904V69.2422L34.2607 65.7168ZM40.9355 65.7168V71H39.7539V69.0615H38.6455L37.5176 71H36.2871L37.5322 68.8662C37.2067 68.7295 36.9561 68.5342 36.7803 68.2803C36.6077 68.0264 36.5215 67.735 36.5215 67.4062C36.5215 66.9147 36.7103 66.5127 37.0879 66.2002C37.4688 65.8844 37.9814 65.7233 38.626 65.7168H40.9355ZM37.708 67.4355C37.708 67.6569 37.7894 67.8376 37.9521 67.9775C38.1182 68.1143 38.3298 68.1826 38.5869 68.1826H39.7539V66.6592H38.6602C38.3704 66.6592 38.1393 66.7324 37.9668 66.8789C37.7943 67.0254 37.708 67.2109 37.708 67.4355Z" fill="#46474D"/>
</svg>
