<svg width="7" height="15" viewBox="0 0 7 15" fill="none" xmlns="http://www.w3.org/2000/svg">
<path d="M6.7364 0.003121L5.05742 0C3.17114 0 1.95214 1.44892 1.95214 3.69152V5.39356H0.264004C0.118128 5.39356 -4.52164e-08 5.53057 -4.52164e-08 5.69957V8.16563C-4.52164e-08 8.33463 0.118263 8.47149 0.264004 8.47149H1.95214V14.6941C1.95214 14.8631 2.07027 15 2.21615 15H4.41869C4.56457 15 4.6827 14.863 4.6827 14.6941V8.47149H6.65653C6.8024 8.47149 6.92053 8.33463 6.92053 8.16563L6.92134 5.69957C6.92134 5.61843 6.89346 5.54071 6.84402 5.48329C6.79459 5.42586 6.72724 5.39356 6.6572 5.39356H4.6827V3.95072C4.6827 3.25723 4.82534 2.90518 5.60509 2.90518L6.73613 2.90472C6.88187 2.90472 7 2.7677 7 2.59886V0.308979C7 0.140289 6.88201 0.0034331 6.7364 0.003121Z" fill="white"/>
</svg>
