<svg width="46" height="29" viewBox="0 0 46 29" fill="none" xmlns="http://www.w3.org/2000/svg">
<path d="M42.7799 12.2941L41.5887 7.54529C41.9143 7.47634 42.1587 7.18837 42.1587 6.84337V6.0777C42.1587 4.41528 40.8016 3.06285 39.1337 3.06285H33.7078V1.48352C33.7078 0.665471 33.0401 -3.1698e-07 32.2193 -3.1698e-07H4.56156C3.74074 -3.1698e-07 3.07302 0.665471 3.07302 1.48352V14.5001C3.07302 14.8965 3.39547 15.218 3.7933 15.218C4.19104 15.218 4.51358 14.8966 4.51358 14.5001V1.48352C4.51358 1.4571 4.53505 1.4357 4.56156 1.4357H32.2192C32.2457 1.4357 32.2672 1.4571 32.2672 1.48352V14.5003C32.2672 14.8967 32.5896 15.2182 32.9875 15.2182C33.3852 15.2182 33.7077 14.8968 33.7077 14.5003V13.6866H42.2042C42.2049 13.6866 42.2054 13.6867 42.2061 13.6867C42.2068 13.6867 42.2074 13.6867 42.208 13.6867C43.2536 13.6874 44.1413 14.3713 44.4462 15.3137H42.2066C41.8089 15.3137 41.4863 15.6351 41.4863 16.0316V17.5629C41.4863 18.8031 42.4987 19.8121 43.7431 19.8121H44.5594V22.9705H42.6761C42.0575 21.1901 40.3593 19.9077 38.3652 19.9077C36.3712 19.9077 34.6729 21.1901 34.0544 22.9705H33.7076V17.5628C33.7076 17.1664 33.3851 16.845 32.9873 16.845C32.5895 16.845 32.267 17.1663 32.267 17.5628V22.9703H17.3234C16.7048 21.1899 15.0066 19.9075 13.0125 19.9075C11.0185 19.9075 9.32023 21.1899 8.70165 22.9703H4.56156C4.53505 22.9703 4.51358 22.9489 4.51358 22.9225V21.3432H7.63467C8.03241 21.3432 8.35495 21.0219 8.35495 20.6254C8.35495 20.2289 8.0325 19.9075 7.63467 19.9075H0.720279C0.32254 19.9075 0 20.2289 0 20.6254C0 21.0219 0.32245 21.3432 0.720279 21.3432H3.07311V22.9225C3.07311 23.7405 3.74083 24.406 4.56165 24.406H8.45225C8.45207 24.4219 8.45099 24.4378 8.45099 24.4538C8.45099 26.9606 10.4974 29 13.0125 29C15.5277 29 17.5741 26.9606 17.5741 24.4538C17.5741 24.4377 17.573 24.4219 17.5728 24.406H33.8049C33.8048 24.4219 33.8037 24.4378 33.8037 24.4538C33.8037 26.9606 35.8501 29 38.3652 29C40.8804 29 42.9268 26.9606 42.9268 24.4538C42.9268 24.4377 42.9257 24.4219 42.9255 24.406H45.2797C45.6775 24.406 46 24.0846 46 23.6881V16.0314C46.0001 14.141 44.6006 12.5703 42.7799 12.2941ZM33.7078 4.49846H39.1337C40.0074 4.49846 40.7183 5.20692 40.7183 6.0777V6.12552H33.7078V4.49846ZM33.7078 12.2509V7.56113H40.1079L41.2843 12.2509H33.7078ZM13.0125 27.5646C11.2916 27.5646 9.89146 26.1692 9.89146 24.454C9.89146 22.7387 11.2916 21.3434 13.0125 21.3434C14.7335 21.3434 16.1336 22.7387 16.1336 24.454C16.1336 26.1692 14.7335 27.5646 13.0125 27.5646ZM38.3654 27.5646C36.6445 27.5646 35.2443 26.1692 35.2443 24.454C35.2443 22.7387 36.6445 21.3434 38.3654 21.3434C40.0864 21.3434 41.4865 22.7387 41.4865 24.454C41.4865 26.1692 40.0864 27.5646 38.3654 27.5646ZM44.5596 18.3764H43.7433C43.2932 18.3764 42.927 18.0114 42.927 17.5628V16.7492H44.5595V18.3764H44.5596Z" fill="#27AE60"/>
<path d="M13.012 22.9705C12.1912 22.9705 11.5234 23.6359 11.5234 24.454C11.5234 25.272 12.1912 25.9375 13.012 25.9375C13.8328 25.9375 14.5005 25.272 14.5005 24.454C14.5005 23.6359 13.8328 22.9705 13.012 22.9705Z" fill="#27AE60"/>
<path d="M38.3635 22.9706C37.5427 22.9706 36.875 23.6361 36.875 24.4541C36.875 25.2722 37.5427 25.9377 38.3635 25.9377C39.1843 25.9377 39.8521 25.2722 39.8521 24.4541C39.8521 23.6361 39.1843 22.9706 38.3635 22.9706Z" fill="#27AE60"/>
<path d="M29.9174 19.9078H19.1617C18.7639 19.9078 18.4414 20.2291 18.4414 20.6256C18.4414 21.0221 18.7639 21.3435 19.1617 21.3435H29.9174C30.3152 21.3435 30.6377 21.0221 30.6377 20.6256C30.6377 20.2291 30.3153 19.9078 29.9174 19.9078Z" fill="#27AE60"/>
<path d="M11.4805 16.845H2.26129C1.86356 16.845 1.54102 17.1664 1.54102 17.5629C1.54102 17.9594 1.86347 18.2807 2.26129 18.2807H11.4805C11.8783 18.2807 12.2008 17.9594 12.2008 17.5629C12.2008 17.1664 11.8783 16.845 11.4805 16.845Z" fill="#27AE60"/>
<path d="M25.0517 7.10142C24.7705 6.82116 24.3143 6.82116 24.0331 7.10151L17.628 13.485L14.2959 10.1642C14.0146 9.88383 13.5586 9.88383 13.2774 10.1642C12.9961 10.4445 12.9961 10.899 13.2774 11.1793L17.1187 15.0077C17.2594 15.148 17.4437 15.218 17.628 15.218C17.8123 15.218 17.9967 15.148 18.1372 15.0077L25.0516 8.11664C25.3329 7.8362 25.3329 7.38178 25.0517 7.10142Z" fill="#27AE60"/>
</svg>
