<svg width="46" height="52" viewBox="0 0 46 52" fill="none" xmlns="http://www.w3.org/2000/svg">
<path d="M27 0H3C1.34315 0 0 1.34315 0 3V49C0 50.6569 1.34315 52 3 52H37C38.6569 52 40 50.6569 40 49V13L27 0Z" fill="#E9E9E9"/>
<path d="M27 10V0L40 13H30C28.3431 13 27 11.6569 27 10Z" fill="#CBCBCB"/>
<rect x="6" y="23" width="40" height="19" rx="2" fill="#F83453"/>
<path d="M18.958 33.3584V36H17.7227V28.8906H20.4424C21.2367 28.8906 21.8665 29.0973 22.332 29.5107C22.8008 29.9242 23.0352 30.471 23.0352 31.1514C23.0352 31.848 22.8057 32.39 22.3467 32.7773C21.891 33.1647 21.2513 33.3584 20.4277 33.3584H18.958ZM18.958 32.3672H20.4424C20.8818 32.3672 21.2171 32.2646 21.4482 32.0596C21.6794 31.8512 21.7949 31.5518 21.7949 31.1611C21.7949 30.777 21.6777 30.471 21.4434 30.2432C21.209 30.012 20.8867 29.8932 20.4766 29.8867H18.958V32.3672ZM24.1191 36V28.8906H26.2188C26.847 28.8906 27.4036 29.0306 27.8887 29.3105C28.377 29.5905 28.7546 29.9876 29.0215 30.502C29.2884 31.0163 29.4219 31.6055 29.4219 32.2695V32.626C29.4219 33.2998 29.2868 33.8923 29.0166 34.4033C28.7497 34.9144 28.3672 35.3083 27.8691 35.585C27.3743 35.8617 26.8063 36 26.165 36H24.1191ZM25.3545 29.8867V35.0137H26.1602C26.8079 35.0137 27.3044 34.8118 27.6494 34.4082C27.9977 34.0013 28.1751 33.4186 28.1816 32.6602V32.2646C28.1816 31.4932 28.014 30.904 27.6787 30.4971C27.3434 30.0902 26.8568 29.8867 26.2188 29.8867H25.3545ZM34.749 32.9873H31.8877V36H30.6523V28.8906H35.1689V29.8867H31.8877V32.001H34.749V32.9873Z" fill="white"/>
</svg>
