<svg width="17" height="19" viewBox="0 0 17 19" fill="none" xmlns="http://www.w3.org/2000/svg">
<path fill-rule="evenodd" clip-rule="evenodd" d="M16.2273 10.2929H8.39025C8.22186 10.9722 7.83731 11.5746 7.29733 12.0049C6.75735 12.4352 6.09279 12.6688 5.40871 12.6688C4.72464 12.6688 4.06007 12.4352 3.5201 12.0049C2.98012 11.5746 2.59552 10.9722 2.42713 10.2929H0.772727C0.567787 10.2929 0.371252 10.2095 0.226338 10.061C0.0814233 9.91255 0 9.71118 0 9.50121C0 9.29124 0.0814233 9.08986 0.226338 8.94139C0.371252 8.79292 0.567787 8.70951 0.772727 8.70951H2.42713C2.59552 8.03021 2.98012 7.42779 3.5201 6.9975C4.06007 6.56721 4.72464 6.33359 5.40871 6.33359C6.09279 6.33359 6.75735 6.56721 7.29733 6.9975C7.83731 7.42779 8.22186 8.03021 8.39025 8.70951H16.2273C16.4322 8.70951 16.6287 8.79292 16.7737 8.94139C16.9186 9.08986 17 9.29124 17 9.50121C17 9.71118 16.9186 9.91255 16.7737 10.061C16.6287 10.2095 16.4322 10.2929 16.2273 10.2929ZM5.40909 7.91781C5.10343 7.91781 4.80463 8.01068 4.55048 8.18467C4.29633 8.35865 4.09823 8.60594 3.98126 8.89527C3.86429 9.1846 3.83372 9.50297 3.89335 9.81012C3.95298 10.1173 4.10018 10.3994 4.31631 10.6208C4.53245 10.8423 4.80779 10.9931 5.10757 11.0542C5.40736 11.1153 5.71813 11.0839 6.00052 10.9641C6.28292 10.8442 6.52429 10.6413 6.69411 10.3809C6.86392 10.1205 6.95455 9.81438 6.95455 9.50121C6.95455 9.08127 6.7917 8.67852 6.50187 8.38158C6.21204 8.08463 5.81897 7.91781 5.40909 7.91781ZM16.2273 3.95931H14.5721C14.4037 4.63862 14.0191 5.24103 13.4791 5.67132C12.9392 6.10161 12.2746 6.33523 11.5905 6.33523C10.9065 6.33523 10.2419 6.10161 9.70191 5.67132C9.16194 5.24103 8.77734 4.63862 8.60895 3.95931H0.772727C0.567787 3.95931 0.371252 3.8759 0.226338 3.72743C0.0814233 3.57896 0 3.37759 0 3.16761C0 2.95764 0.0814233 2.75627 0.226338 2.6078C0.371252 2.45932 0.567787 2.37591 0.772727 2.37591H8.60895C8.77734 1.69661 9.16194 1.0942 9.70191 0.663908C10.2419 0.233618 10.9065 -5.02504e-06 11.5905 -5.02504e-06C12.2746 -5.02504e-06 12.9392 0.233618 13.4791 0.663908C14.0191 1.0942 14.4037 1.69661 14.5721 2.37591H16.2273C16.4322 2.37591 16.6287 2.45932 16.7737 2.6078C16.9186 2.75627 17 2.95764 17 3.16761C17 3.37759 16.9186 3.57896 16.7737 3.72743C16.6287 3.8759 16.4322 3.95931 16.2273 3.95931ZM11.5909 1.58422C11.2852 1.58422 10.9864 1.67708 10.7323 1.85107C10.4781 2.02506 10.2801 2.27235 10.1631 2.56167C10.0461 2.851 10.0155 3.16937 10.0752 3.47652C10.1348 3.78367 10.282 4.0658 10.4981 4.28725C10.7143 4.50869 10.9896 4.65949 11.2894 4.72058C11.5892 4.78168 11.8999 4.75033 12.1823 4.63049C12.4647 4.51064 12.7061 4.3077 12.8759 4.04731C13.0457 3.78692 13.1364 3.48078 13.1364 3.16761C13.1364 2.74767 12.9735 2.34493 12.6837 2.04798C12.3939 1.75104 12.0008 1.58422 11.5909 1.58422ZM0.772727 15.0431H8.60895C8.77791 14.3643 9.16271 13.7625 9.70262 13.3327C10.2425 12.9029 10.9068 12.6696 11.5905 12.6696C12.2743 12.6696 12.9385 12.9029 13.4784 13.3327C14.0183 13.7625 14.4031 14.3643 14.5721 15.0431H16.2273C16.4322 15.0431 16.6287 15.1265 16.7737 15.275C16.9186 15.4235 17 15.6248 17 15.8348C17 16.0448 16.9186 16.2461 16.7737 16.3946C16.6287 16.5431 16.4322 16.6265 16.2273 16.6265H14.5721C14.4031 17.3053 14.0183 17.9071 13.4784 18.3369C12.9385 18.7667 12.2743 19 11.5905 19C10.9068 19 10.2425 18.7667 9.70262 18.3369C9.16271 17.9071 8.77791 17.3053 8.60895 16.6265H0.772727C0.567787 16.6265 0.371252 16.5431 0.226338 16.3946C0.0814233 16.2461 0 16.0448 0 15.8348C0 15.6248 0.0814233 15.4235 0.226338 15.275C0.371252 15.1265 0.567787 15.0431 0.772727 15.0431ZM11.5909 17.4182C11.8966 17.4182 12.1954 17.3253 12.4495 17.1513C12.7037 16.9774 12.9018 16.7301 13.0187 16.4407C13.1357 16.1514 13.1663 15.833 13.1067 15.5259C13.047 15.2187 12.8998 14.9366 12.6837 14.7152C12.4676 14.4937 12.1922 14.3429 11.8924 14.2818C11.5926 14.2207 11.2819 14.2521 10.9995 14.3719C10.7171 14.4918 10.4757 14.6947 10.3059 14.9551C10.1361 15.2155 10.0455 15.5216 10.0455 15.8348C10.0455 16.2547 10.2083 16.6575 10.4981 16.9544C10.788 17.2514 11.181 17.4182 11.5909 17.4182Z" fill="#14AAE6"/>
</svg>
