<svg width="22" height="21" viewBox="0 0 22 21" fill="none" xmlns="http://www.w3.org/2000/svg">
<path d="M17.4189 15.2773C15.9063 15.2773 14.6758 16.5608 14.6758 18.1384C14.6758 19.7159 15.9064 20.9994 17.4189 20.9994C18.9315 20.9994 20.1621 19.7159 20.1621 18.1384C20.1621 16.5608 18.9315 15.2773 17.4189 15.2773ZM17.4189 19.2828C16.8138 19.2828 16.3217 18.7695 16.3217 18.1384C16.3217 17.5072 16.8138 16.994 17.4189 16.994C18.0241 16.994 18.5162 17.5072 18.5162 18.1384C18.5162 18.7695 18.0241 19.2828 17.4189 19.2828Z" fill="#2A3642"/>
<path d="M21.8251 4.22028C21.6693 4.01229 21.4304 3.89098 21.1772 3.89098H5.0798L4.33914 0.658879C4.25054 0.272658 3.91942 5.00631e-10 3.53867 5.00631e-10H0.822943C0.368416 -4.48151e-05 0 0.384204 0 0.858263C0 1.33232 0.368416 1.71657 0.822943 1.71657H2.88911L5.56367 13.3885C5.65227 13.775 5.98339 14.0474 6.36414 14.0474H19.1747C19.553 14.0474 19.8827 13.7784 19.9735 13.3956L21.976 4.95553C22.0366 4.69923 21.9809 4.42827 21.8251 4.22028ZM18.5309 12.3308H7.0137L5.47313 5.60759H20.1257L18.5309 12.3308Z" fill="#2A3642"/>
<path d="M7.46189 15.2773C5.9493 15.2773 4.71875 16.5608 4.71875 18.1384C4.71875 19.7159 5.94934 20.9994 7.46189 20.9994C8.97444 20.9994 10.205 19.7159 10.205 18.1384C10.205 16.5608 8.97444 15.2773 7.46189 15.2773ZM7.46189 19.2828C6.85676 19.2828 6.36463 18.7695 6.36463 18.1384C6.36463 17.5072 6.85676 16.994 7.46189 16.994C8.06702 16.994 8.55915 17.5072 8.55915 18.1384C8.55915 18.7695 8.06702 19.2828 7.46189 19.2828Z" fill="#2A3642"/>
</svg>
