<svg width="18" height="25" viewBox="0 0 18 25" fill="none" xmlns="http://www.w3.org/2000/svg">
<path d="M9 0C4.0374 0 0 3.94277 0 8.78906C0 10.4265 0.46445 12.0244 1.34345 13.4107L8.4877 24.6538C8.62455 24.8691 8.86565 25 9.12495 25C9.12695 25 9.1289 25 9.1309 25C9.39245 24.998 9.63405 24.8631 9.7684 24.6439L16.7305 13.292C17.5611 11.935 18 10.3779 18 8.78906C18 3.94277 13.9626 0 9 0ZM15.4433 12.5399L9.1136 22.8606L2.61835 12.639C1.8867 11.4851 1.49 10.1538 1.49 8.78906C1.49 4.75049 4.8645 1.45508 9 1.45508C13.1355 1.45508 16.505 4.75049 16.505 8.78906C16.505 10.1133 16.1344 11.4105 15.4433 12.5399Z" fill="#14AAE6"/>
<path d="M9 4.39453C6.5187 4.39453 4.5 6.36592 4.5 8.78906C4.5 11.1967 6.48585 13.1836 9 13.1836C11.5451 13.1836 13.5 11.1703 13.5 8.78906C13.5 6.36592 11.4813 4.39453 9 4.39453ZM9 11.7285C7.33715 11.7285 5.99 10.4085 5.99 8.78906C5.99 7.17363 7.3458 5.84961 9 5.84961C10.6542 5.84961 12.005 7.17363 12.005 8.78906C12.005 10.3849 10.6892 11.7285 9 11.7285Z" fill="#14AAE6"/>
</svg>
