<svg width="24" height="23" viewBox="0 0 24 23" fill="none" xmlns="http://www.w3.org/2000/svg">
<path d="M19.0042 16.7329C17.3541 16.7329 16.0117 18.1386 16.0117 19.8664C16.0117 21.5942 17.3542 22.9999 19.0042 22.9999C20.6543 22.9999 21.9968 21.5942 21.9968 19.8664C21.9968 18.1386 20.6543 16.7329 19.0042 16.7329ZM19.0042 21.1198C18.3441 21.1198 17.8072 20.5577 17.8072 19.8664C17.8072 19.1752 18.3441 18.613 19.0042 18.613C19.6644 18.613 20.2012 19.1752 20.2012 19.8664C20.2012 20.5577 19.6644 21.1198 19.0042 21.1198Z" fill="#0B9CD6"/>
<path d="M23.8092 4.62222C23.6393 4.39442 23.3786 4.26155 23.1024 4.26155H5.5416L4.73361 0.721629C4.63695 0.298626 4.27573 5.48311e-10 3.86037 5.48311e-10H0.897756C0.401909 -4.90832e-05 0 0.420795 0 0.940003C0 1.45921 0.401909 1.88005 0.897756 1.88005H3.15175L6.06946 14.6636C6.16612 15.0869 6.52734 15.3852 6.9427 15.3852H20.9179C21.3306 15.3852 21.6902 15.0907 21.7893 14.6714L23.9739 5.42748C24.0399 5.14677 23.9792 4.85001 23.8092 4.62222ZM20.2155 13.5051H7.65131L5.97069 6.14165H21.9553L20.2155 13.5051Z" fill="#0B9CD6"/>
<path d="M8.12924 16.7329C6.47913 16.7329 5.13672 18.1386 5.13672 19.8664C5.13672 21.5942 6.47918 22.9999 8.12924 22.9999C9.77929 22.9999 11.1218 21.5942 11.1218 19.8664C11.1218 18.1386 9.77929 16.7329 8.12924 16.7329ZM8.12924 21.1198C7.46909 21.1198 6.93223 20.5577 6.93223 19.8664C6.93223 19.1752 7.46909 18.613 8.12924 18.613C8.78938 18.613 9.32624 19.1752 9.32624 19.8664C9.32624 20.5577 8.78938 21.1198 8.12924 21.1198Z" fill="#0B9CD6"/>
</svg>
