<svg width="18" height="16" viewBox="0 0 18 16" fill="none" xmlns="http://www.w3.org/2000/svg">
<path fill-rule="evenodd" clip-rule="evenodd" d="M16.2019 8.93313L9.1483 16H8.84878L1.28904 8.51483L1.29902 8.5098C0.460954 7.56302 -0.00114117 6.33829 0.00112287 5.06988C-0.0267243 3.75615 0.464352 2.48501 1.36647 1.5357C2.26859 0.586403 3.50796 0.0365856 4.81233 0.00703871C5.68932 0.0175615 6.54644 0.271494 7.28941 0.740905C8.03238 1.21032 8.63241 1.87702 9.0235 2.66767C9.40958 1.87589 10.006 1.2074 10.7466 0.736476C11.4872 0.265549 12.3429 0.0106165 13.2187 0C14.5141 0.0295512 15.745 0.575528 16.6412 1.51811C17.5374 2.46069 18.0257 3.72287 17.999 5.02765C18.0014 5.77142 17.8418 6.50666 17.5312 7.18149C17.2207 7.85631 16.7669 8.45426 16.2019 8.93313ZM14.9269 7.32428L9.11335 13.281H8.86875L2.76764 7.03871L2.78561 7.0186C2.51354 6.71672 2.30529 6.36224 2.17355 5.97673C2.0418 5.59123 1.9893 5.18276 2.01926 4.77617C2.04921 4.36959 2.16098 3.97339 2.34777 3.61169C2.53457 3.24999 2.79247 2.93034 3.1058 2.6722C3.41913 2.41406 3.78133 2.22283 4.17036 2.11013C4.55939 1.99743 4.96712 1.96563 5.36874 2.01666C5.77036 2.06769 6.15747 2.20048 6.50653 2.40696C6.85558 2.61343 7.15928 2.88927 7.39913 3.2177L7.40712 3.21066L7.44406 3.26898C7.52428 3.3844 7.59634 3.50537 7.65971 3.63097L9.04946 5.96682L10.3214 3.71543C10.388 3.57206 10.4658 3.43421 10.554 3.30317C10.7966 2.94972 11.1116 2.65269 11.4777 2.43207C11.8438 2.21145 12.2526 2.07234 12.6765 2.0241C13.1005 1.97587 13.5297 2.01962 13.9355 2.15242C14.3412 2.28523 14.7141 2.504 15.0288 2.79402C15.3436 3.08405 15.5931 3.4386 15.7605 3.83384C15.9279 4.22908 16.0093 4.65584 15.9993 5.08541C15.9893 5.51499 15.888 5.93742 15.7023 6.32429C15.5167 6.71116 15.2509 7.05351 14.9229 7.32831L14.9269 7.32428Z" fill="#14AAE6"/>
</svg>
