<svg width="33" height="44" viewBox="0 0 33 44" fill="none" xmlns="http://www.w3.org/2000/svg">
<path d="M33 0H0V44H33V0Z" fill="#B7E5FF"/>
<path d="M29.9981 20.8422H2.99808C2.58407 20.8422 2.24805 20.4963 2.24805 20.0702C2.24805 19.6441 2.58407 19.2982 2.99808 19.2982H29.9981C30.4121 19.2982 30.7481 19.6441 30.7481 20.0702C30.7481 20.4963 30.4121 20.8422 29.9981 20.8422Z" fill="#6B778A"/>
<path d="M29.9981 23.9298H25.4981C25.0841 23.9298 24.748 23.584 24.748 23.1578C24.748 22.7317 25.0841 22.3859 25.4981 22.3859H29.9981C30.4121 22.3859 30.7482 22.7317 30.7482 23.1578C30.7482 23.584 30.4121 23.9298 29.9981 23.9298Z" fill="#6B778A"/>
<path d="M29.998 27.0175H16.4981C16.0841 27.0175 15.748 26.6717 15.748 26.2455C15.748 25.8194 16.0841 25.4736 16.4981 25.4736H29.9981C30.4121 25.4736 30.7481 25.8194 30.7481 26.2455C30.7481 26.6717 30.412 27.0175 29.998 27.0175Z" fill="#6B778A"/>
<path d="M29.9961 30.1053H26.9961C26.5821 30.1053 26.2461 29.7594 26.2461 29.3333C26.2461 28.9072 26.5821 28.5613 26.9961 28.5613H29.9961C30.4101 28.5613 30.7461 28.9072 30.7461 29.3333C30.7461 29.7594 30.4101 30.1053 29.9961 30.1053Z" fill="#6B778A"/>
<path d="M24 30.1053H9.75003C9.33602 30.1053 9 29.7594 9 29.3333C9 28.9072 9.33602 28.5613 9.75003 28.5613H24C24.414 28.5613 24.7501 28.9072 24.7501 29.3333C24.75 29.7594 24.414 30.1053 24 30.1053Z" fill="#6B778A"/>
<path d="M19.4981 33.193H2.99808C2.58407 33.193 2.24805 32.8471 2.24805 32.421C2.24805 31.9949 2.58407 31.649 2.99808 31.649H19.4981C19.9121 31.649 20.2481 31.9949 20.2481 32.421C20.2481 32.8471 19.9121 33.193 19.4981 33.193Z" fill="#6B778A"/>
<path d="M20.252 8.49114H12.752C12.338 8.49114 12.002 8.14529 12.002 7.71917C12.002 7.29305 12.338 6.9472 12.752 6.9472H20.252C20.666 6.9472 21.002 7.29305 21.002 7.71917C21.0019 8.14529 20.666 8.49114 20.252 8.49114Z" fill="#8994A3"/>
<path d="M10.5 17.7544H6.00003C5.58602 17.7544 5.25 17.4086 5.25 16.9825C5.25 16.5564 5.58602 16.2105 6.00003 16.2105H10.5001C10.9141 16.2105 11.2501 16.5564 11.2501 16.9825C11.25 17.4087 10.914 17.7544 10.5 17.7544Z" fill="#6B778A"/>
<path d="M29.998 17.7544H13.4981C13.0841 17.7544 12.748 17.4086 12.748 16.9825C12.748 16.5564 13.0841 16.2105 13.4981 16.2105H29.9981C30.4121 16.2105 30.7481 16.5564 30.7481 16.9825C30.748 17.4087 30.412 17.7544 29.998 17.7544Z" fill="#6B778A"/>
<path d="M22.4981 23.9299H2.99808C2.58407 23.9299 2.24805 23.584 2.24805 23.1579C2.24805 22.7318 2.58407 22.3859 2.99808 22.3859H22.4981C22.9121 22.3859 23.2481 22.7318 23.2481 23.1579C23.2481 23.584 22.9121 23.9299 22.4981 23.9299Z" fill="#6B778A"/>
<path d="M13.4981 27.0176H2.99808C2.58407 27.0176 2.24805 26.6717 2.24805 26.2456C2.24805 25.8195 2.58407 25.4736 2.99808 25.4736H13.4981C13.9121 25.4736 14.2481 25.8195 14.2481 26.2456C14.2481 26.6717 13.9121 27.0176 13.4981 27.0176Z" fill="#6B778A"/>
<path d="M6.74809 30.1054H2.99808C2.58407 30.1054 2.24805 29.7595 2.24805 29.3334C2.24805 28.9073 2.58407 28.5615 2.99808 28.5615H6.74809C7.1621 28.5615 7.49812 28.9073 7.49812 29.3334C7.49812 29.7595 7.1621 30.1054 6.74809 30.1054Z" fill="#6B778A"/>
<path d="M23.2519 5.40355H9.75199C9.33797 5.40355 9.00195 5.05771 9.00195 4.63159C9.00195 4.20547 9.33797 3.85962 9.75199 3.85962H23.252C23.666 3.85962 24.0021 4.20547 24.0021 4.63159C24.0021 5.05771 23.6659 5.40355 23.2519 5.40355Z" fill="#8994A3"/>
<path d="M30.002 13.123H21.002C20.588 13.123 20.252 12.7771 20.252 12.351C20.252 11.9249 20.588 11.579 21.002 11.579H30.002C30.416 11.579 30.752 11.9249 30.752 12.351C30.752 12.7771 30.416 13.123 30.002 13.123Z" fill="#8994A3"/>
<path d="M29.6564 19.2982H29.9999C30.414 19.2982 30.75 19.6441 30.75 20.0702C30.75 20.4963 30.414 20.8422 29.9999 20.8422H28.6499C28.2921 21.3655 27.9232 21.8804 27.5444 22.386H29.9999C30.414 22.386 30.75 22.7319 30.75 23.158C30.75 23.5841 30.414 23.93 29.9999 23.93H26.325C25.8892 24.4564 25.4415 24.9713 24.9802 25.4738H29.9999C30.414 25.4738 30.75 25.8197 30.75 26.2458C30.75 26.6719 30.414 27.0177 29.9999 27.0177H23.4959C22.9582 27.5481 22.4062 28.0622 21.8407 28.5616H24C24.414 28.5616 24.75 28.9074 24.75 29.3336C24.75 29.7597 24.414 30.1055 24 30.1055H19.9913C19.3058 30.6428 18.603 31.1577 17.8838 31.6494H19.5C19.914 31.6494 20.25 31.9952 20.25 32.4213C20.25 32.8475 19.914 33.1933 19.5 33.1933H15.4342C10.6822 35.9681 5.43079 37.7173 0 38.3341V44H33V12.6597C32.0812 14.9716 30.9622 17.1933 29.6564 19.2982ZM29.9999 30.1053H27C26.586 30.1053 26.2499 29.7595 26.2499 29.3334C26.2499 28.9073 26.586 28.5614 27 28.5614H29.9999C30.414 28.5614 30.75 28.9073 30.75 29.3334C30.75 29.7595 30.414 30.1053 29.9999 30.1053Z" fill="#99C8E0"/>
<path d="M30.002 20.8423C30.416 20.8423 30.7521 20.4964 30.7521 20.0703C30.7521 19.6442 30.416 19.2983 30.002 19.2983H29.6585C29.3345 19.8209 29 20.335 28.6543 20.8422H30.002V20.8423Z" fill="#535B6D"/>
<path d="M29.9994 23.9299C30.4134 23.9299 30.7494 23.5841 30.7494 23.158C30.7494 22.7318 30.4134 22.386 29.9994 22.386H27.5461C27.1517 22.9109 26.7459 23.4258 26.3281 23.9298H29.9994V23.9299Z" fill="#535B6D"/>
<path d="M23.4961 27.0176H30.0001C30.4141 27.0176 30.7501 26.6718 30.7501 26.2457C30.7501 25.8195 30.4141 25.4737 30.0001 25.4737H24.9841C24.5011 26.0018 24.0053 26.5167 23.4961 27.0176Z" fill="#535B6D"/>
<path d="M29.9981 28.5615H26.9981C26.5841 28.5615 26.248 28.9074 26.248 29.3335C26.248 29.7596 26.5841 30.1055 26.9981 30.1055H29.9981C30.4121 30.1055 30.7481 29.7596 30.7481 29.3335C30.7481 28.9074 30.4121 28.5615 29.9981 28.5615Z" fill="#535B6D"/>
<path d="M23.999 30.1055C24.413 30.1055 24.7491 29.7596 24.7491 29.3335C24.7491 28.9074 24.413 28.5615 23.999 28.5615H21.8397C21.2398 29.0934 20.6233 29.6106 19.9902 30.1054H23.999V30.1055Z" fill="#535B6D"/>
<path d="M19.4993 33.1931C19.9133 33.1931 20.2493 32.8473 20.2493 32.4211C20.2493 31.995 19.9133 31.6492 19.4993 31.6492H17.8831C17.0866 32.1941 16.2683 32.7059 15.4336 33.193H19.4993V33.1931Z" fill="#535B6D"/>
<path d="M29.252 39.3685H18.752C18.338 39.3685 18.002 39.0226 18.002 38.5965C18.002 38.1704 18.338 37.8245 18.752 37.8245H29.252C29.666 37.8245 30.002 38.1704 30.002 38.5965C30.0019 39.0226 29.666 39.3685 29.252 39.3685Z" fill="#8994A3"/>
</svg>
