<svg width="34" height="40" viewBox="0 0 34 40" fill="none" xmlns="http://www.w3.org/2000/svg">
<path d="M21.7515 40H3.09465C1.3855 40 0 38.5386 0 36.7359V3.26414C0 1.46138 1.3855 0 3.09465 0H21.7515C23.4607 0 24.8462 1.46138 24.8462 3.26414V36.7359C24.8462 38.5386 23.4607 40 21.7515 40Z" fill="#3C494E"/>
<path d="M32.5591 27.5862H24.8457V5.51727H32.5591C33.3542 5.51727 33.9995 6.19796 33.9995 7.03658V26.0662C33.9995 26.9055 33.3542 27.5862 32.5591 27.5862Z" fill="#556080"/>
<path d="M30.0763 5.51727H27.4609V27.5862H30.0763V5.51727Z" fill="#3C494E"/>
<path d="M32.0386 9.65519C32.3997 9.65519 32.6925 9.34642 32.6925 8.96553C32.6925 8.58465 32.3997 8.27588 32.0386 8.27588C31.6775 8.27588 31.3848 8.58465 31.3848 8.96553C31.3848 9.34642 31.6775 9.65519 32.0386 9.65519Z" fill="#A4E869"/>
<path d="M32.0386 13.1034C32.3997 13.1034 32.6925 12.7947 32.6925 12.4138C32.6925 12.0329 32.3997 11.7241 32.0386 11.7241C31.6775 11.7241 31.3848 12.0329 31.3848 12.4138C31.3848 12.7947 31.6775 13.1034 32.0386 13.1034Z" fill="#ED7161"/>
<path d="M21.5772 6.20685H3.26953V13.7931H21.5772V6.20685Z" fill="#B1D194"/>
<path d="M6.53786 4.13792H2.61478C2.25386 4.13792 1.96094 3.82964 1.96094 3.44826C1.96094 3.06688 2.25386 2.75861 2.61478 2.75861H6.53786C6.89878 2.75861 7.19171 3.06688 7.19171 3.44826C7.19171 3.82964 6.89878 4.13792 6.53786 4.13792Z" fill="#8697CB"/>
<path d="M7.8469 16.5518H3.92383V20H7.8469V16.5518Z" fill="#FDFDFD"/>
<path d="M14.384 16.5518H10.4609V20H14.384V16.5518Z" fill="#FDFDFD"/>
<path d="M20.9231 16.5518H17V20H20.9231V16.5518Z" fill="#F65246"/>
<path d="M7.8469 22.069H3.92383V25.5173H7.8469V22.069Z" fill="#FDFDFD"/>
<path d="M14.384 22.069H10.4609V25.5173H14.384V22.069Z" fill="#FDFDFD"/>
<path d="M20.9231 22.069H17V25.5173H20.9231V22.069Z" fill="#F5D758"/>
<path d="M7.8469 27.5862H3.92383V31.0345H7.8469V27.5862Z" fill="#FDFDFD"/>
<path d="M14.384 27.5862H10.4609V31.0345H14.384V27.5862Z" fill="#FDFDFD"/>
<path d="M7.8469 33.1035H3.92383V36.5518H7.8469V33.1035Z" fill="#FDFDFD"/>
<path d="M14.384 33.1035H10.4609V36.5518H14.384V33.1035Z" fill="#FDFDFD"/>
<path d="M20.9231 27.5862H17V37.2414H20.9231V27.5862Z" fill="#1FD483"/>
</svg>
