<svg width="14" height="17" viewBox="0 0 14 17" fill="none" xmlns="http://www.w3.org/2000/svg">
<path d="M11.8419 12.4349H10.92L10.9243 11.893C10.9243 11.6522 11.1197 11.4552 11.3585 11.4552H11.4173C11.6566 11.4552 11.8526 11.6522 11.8526 11.893L11.8419 12.4349ZM8.38376 11.2736C8.14987 11.2736 7.95853 11.4327 7.95853 11.6274V14.263C7.95853 14.4574 8.14987 14.616 8.38376 14.616C8.61859 14.616 8.81011 14.4574 8.81011 14.263V11.6274C8.81011 11.4325 8.61859 11.2736 8.38376 11.2736ZM14 9.79937V14.8132C14 16.0159 12.9694 17 11.7096 17H2.29059C1.0304 17 0 16.0159 0 14.8132V9.79937C0 8.59671 1.0304 7.61241 2.29059 7.61241H11.7096C12.9694 7.61241 14 8.59671 14 9.79937ZM2.91891 15.3576L2.91816 10.0761L4.08576 10.0765V9.2939L0.97328 9.28918V10.0585L1.94488 10.0614V15.3576H2.91891ZM6.41891 10.8628H5.44544V13.6831C5.44544 14.0911 5.46989 14.2951 5.44395 14.3671C5.3648 14.5858 5.00901 14.8181 4.87032 14.3907C4.8468 14.3159 4.86752 14.0902 4.86715 13.7026L4.86323 10.8628H3.89517L3.89816 13.658C3.89891 14.0864 3.88864 14.4058 3.90152 14.5512C3.92523 14.8076 3.91683 15.1064 4.15184 15.2771C4.58976 15.5964 5.4292 15.2295 5.6392 14.7732L5.63733 15.3555L6.41909 15.3565L6.41891 10.8628ZM9.53307 14.0924L9.53101 11.7451C9.53027 10.8505 8.86891 10.3148 7.97123 11.0387L7.97515 9.29352L7.0028 9.29503L6.99813 15.3187L7.79781 15.307L7.87061 14.9319C8.89224 15.8803 9.53456 15.2303 9.53307 14.0924ZM12.5797 13.7813L11.8498 13.7853C11.8494 13.8146 11.8483 13.8484 11.8479 13.8852V14.2974C11.8479 14.518 11.6678 14.6976 11.449 14.6976H11.306C11.0869 14.6976 10.9067 14.518 10.9067 14.2974V14.2517V13.7983V13.2133H12.5782V12.5768C12.5782 12.1116 12.5664 11.6465 12.5283 11.3806C12.4087 10.5392 11.2416 10.4057 10.6521 10.8364C10.4671 10.9709 10.3258 11.1509 10.2437 11.3926C10.1608 11.6346 10.1196 11.9652 10.1196 12.3851V13.7847C10.1199 16.1115 12.9129 15.7826 12.5797 13.7813ZM8.83549 6.18271C8.88571 6.30624 8.96373 6.40636 9.06957 6.48191C9.17411 6.55633 9.30776 6.59373 9.46792 6.59373C9.60829 6.59373 9.73261 6.55539 9.84088 6.47624C9.94877 6.39748 10.0397 6.2798 10.114 6.12283L10.0955 6.5093H11.1806V1.83978H10.3264V5.474C10.3264 5.67082 10.1662 5.83194 9.97043 5.83194C9.77573 5.83194 9.61501 5.67082 9.61501 5.474V1.83978H8.72349V4.98931C8.72349 5.39051 8.73077 5.65798 8.74253 5.7936C8.75467 5.92828 8.78528 6.05748 8.83549 6.18271ZM5.54717 3.54544C5.54717 3.09721 5.58413 2.7472 5.65749 2.49484C5.73141 2.24343 5.86413 2.04132 6.0564 1.88889C6.24811 1.7357 6.49357 1.65901 6.79205 1.65901C7.04312 1.65901 7.25816 1.70888 7.43773 1.80653C7.61824 1.90476 7.75749 2.03226 7.854 2.1896C7.95237 2.34751 8.0192 2.50977 8.05485 2.6758C8.09125 2.8441 8.10917 3.09797 8.10917 3.44042V4.62136C8.10917 5.05448 8.092 5.37313 8.05859 5.57543C8.02555 5.7783 7.95461 5.96643 7.84467 6.14286C7.7364 6.31739 7.59659 6.44791 7.42709 6.53121C7.25573 6.61527 7.05973 6.65644 6.83835 6.65644C6.59101 6.65644 6.38269 6.62188 6.21096 6.54972C6.03867 6.47794 5.90557 6.36971 5.81075 6.22597C5.71499 6.08203 5.6476 5.90674 5.60691 5.70237C5.56603 5.49818 5.54661 5.19104 5.54661 4.78172L5.54717 3.54544ZM6.39707 5.40033C6.39707 5.66478 6.59157 5.88068 6.82845 5.88068C7.06552 5.88068 7.25928 5.66478 7.25928 5.40033V2.91456C7.25928 2.65049 7.06552 2.43459 6.82845 2.43459C6.59157 2.43459 6.39707 2.65049 6.39707 2.91456V5.40033ZM3.39397 6.6555H4.41765L4.41877 3.07417L5.62837 0.00623333H4.50875L3.86568 2.28499L3.21347 0H2.10541L3.39229 3.07587L3.39397 6.6555Z" fill="white"/>
</svg>
