<svg width="20" height="20" viewBox="0 0 20 20" fill="none" xmlns="http://www.w3.org/2000/svg">
<path d="M19.5513 15.8058L16.4626 12.7168C15.8474 12.1041 14.8286 12.1227 14.1919 12.7596L12.6358 14.3153C12.5375 14.2611 12.4358 14.2045 12.3288 14.1445C11.3461 13.6 10.0012 12.8537 8.58593 11.4374C7.16647 10.0182 6.41951 8.67115 5.87337 7.68786C5.81574 7.58369 5.76052 7.48325 5.70599 7.38787L6.75036 6.34506L7.26381 5.83098C7.90143 5.19319 7.91901 4.17468 7.30524 3.56016L4.21655 0.470783C3.60278 -0.142874 2.58352 -0.124258 1.94591 0.513532L1.07541 1.38903L1.0992 1.41264C0.807306 1.78509 0.563395 2.21465 0.381883 2.67788C0.214564 3.11882 0.110392 3.53959 0.0627585 3.96122C-0.345082 7.34231 1.19998 10.4324 5.39307 14.6255C11.1892 20.4213 15.8601 19.9834 16.0616 19.962C16.5005 19.9096 16.9211 19.8047 17.3485 19.6387C17.8077 19.4593 18.237 19.2158 18.6092 18.9245L18.6282 18.9414L19.5101 18.0779C20.1464 17.4402 20.1647 16.4213 19.5513 15.8058Z" fill="white"/>
</svg>
