<svg width="30" height="50" viewBox="0 0 30 50" fill="none" xmlns="http://www.w3.org/2000/svg">
<path d="M14.9995 7.85718C12.8566 7.85718 12.8566 7.85718 12.8566 11.4283C12.8566 14.9995 14.0225 15 14.9995 15C15.9765 15 17.1423 14.9995 17.1423 11.4283C17.1423 7.85718 17.1423 7.85718 14.9995 7.85718Z" fill="black"/>
<path d="M14.9996 0C7.104 0 0.680359 7.11601 0.680359 15.8629V34.1373C0.680359 42.884 7.104 50.0002 14.9996 50.0002C22.8953 50.0002 29.3189 42.8842 29.3189 34.1373V15.8629C29.3191 7.11601 22.8954 0 14.9996 0ZM26.5925 34.1373C26.5925 41.3807 21.392 47.2736 14.9998 47.2736C8.60743 47.2736 3.40712 41.3807 3.40712 34.1373V15.8629C3.40712 8.61944 8.60761 2.72658 14.9998 2.72658C21.392 2.72658 26.5925 8.61944 26.5925 15.8629V34.1373Z" fill="black"/>
</svg>
