<svg width="190" height="190" viewBox="0 0 190 190" fill="none" xmlns="http://www.w3.org/2000/svg">
<path d="M69.829 27.6068C69.829 36.5755 62.6562 43.8461 53.8081 43.8461C44.9601 43.8461 37.3503 36.5755 37.3503 27.6068C37.3503 18.6381 44.9601 11.3675 53.8081 11.3675C62.6562 11.3675 69.829 18.6381 69.829 27.6068Z" fill="#F05596" fill-opacity="0.3"/>
<path d="M151.026 27.6068C151.026 36.5755 143.853 43.8461 135.005 43.8461C126.157 43.8461 118.547 36.5755 118.547 27.6068C118.547 18.6381 126.157 11.3675 135.005 11.3675C143.853 11.3675 151.026 18.6381 151.026 27.6068Z" fill="#F05596" fill-opacity="0.5"/>
<path d="M42.2223 55.2137C42.2223 64.1824 35.0495 71.453 26.2014 71.453C17.3534 71.453 9.74365 64.1824 9.74365 55.2137C9.74365 46.245 17.3534 38.9744 26.2014 38.9744C35.0495 38.9744 42.2223 46.245 42.2223 55.2137Z" fill="#F05596" fill-opacity="0.2"/>
<path d="M32.4786 92.5641C32.4786 101.533 25.3059 108.803 16.4578 108.803C7.60971 108.803 0 101.533 0 92.5641C0 83.5954 7.60971 76.3248 16.4578 76.3248C25.3059 76.3248 32.4786 83.5954 32.4786 92.5641Z" fill="#F05596" fill-opacity="0.1"/>
<path d="M189.479 95.2393C189.479 104.208 182.306 111.479 173.458 111.479C164.61 111.479 157 104.208 157 95.2393C157 86.2706 164.61 79 173.458 79C182.306 79 189.479 86.2706 189.479 95.2393Z" fill="url(#paint0_linear)" fill-opacity="0.7"/>
<path d="M42.2223 136.41C42.2223 145.379 35.0495 152.65 26.2014 152.65C17.3534 152.65 9.74365 145.379 9.74365 136.41C9.74365 127.442 17.3534 120.171 26.2014 120.171C35.0495 120.171 42.2223 127.442 42.2223 136.41Z" fill="#17A5F4"/>
<path d="M69.829 162.393C69.829 171.362 62.6562 178.632 53.8081 178.632C44.9601 178.632 37.3503 171.362 37.3503 162.393C37.3503 153.424 44.9601 146.154 53.8081 146.154C62.6562 146.154 69.829 153.424 69.829 162.393Z" fill="#17A5F4"/>
<path d="M151.026 162.393C151.026 171.362 143.853 178.632 135.005 178.632C126.157 178.632 118.547 171.362 118.547 162.393C118.547 153.424 126.157 146.154 135.005 146.154C143.853 146.154 151.026 153.424 151.026 162.393Z" fill="url(#paint1_linear)" fill-opacity="0.9"/>
<path d="M179.479 136.239C179.479 145.208 172.306 152.479 163.458 152.479C154.61 152.479 147 145.208 147 136.239C147 127.271 154.61 120 163.458 120C172.306 120 179.479 127.271 179.479 136.239Z" fill="url(#paint2_linear)" fill-opacity="0.8"/>
<path d="M178.479 55.2393C178.479 64.208 171.306 71.4786 162.458 71.4786C153.61 71.4786 146 64.208 146 55.2393C146 46.2706 153.61 39 162.458 39C171.306 39 178.479 46.2706 178.479 55.2393Z" fill="#F05596" fill-opacity="0.6"/>
<path d="M110.427 173.761C110.427 182.729 103.255 190 94.4065 190C85.5584 190 77.9487 182.729 77.9487 173.761C77.9487 164.792 85.5584 157.521 94.4065 157.521C103.255 157.521 110.427 164.792 110.427 173.761Z" fill="#17A5F4"/>
<path d="M110.427 16.2393C110.427 25.208 103.255 32.4786 94.4065 32.4786C85.5584 32.4786 77.9487 25.208 77.9487 16.2393C77.9487 7.27059 85.5584 0 94.4065 0C103.255 0 110.427 7.27059 110.427 16.2393Z" fill="#F05596" fill-opacity="0.4"/>
<defs>
<linearGradient id="paint0_linear" x1="142.5" y1="97" x2="308.916" y2="103.244" gradientUnits="userSpaceOnUse">
<stop stop-color="#F05596"/>
<stop offset="1" stop-color="#17A5F4"/>
</linearGradient>
<linearGradient id="paint1_linear" x1="105.5" y1="122" x2="160.938" y2="200.748" gradientUnits="userSpaceOnUse">
<stop stop-color="#F05596"/>
<stop offset="1" stop-color="#17A5F4"/>
</linearGradient>
<linearGradient id="paint2_linear" x1="138.5" y1="120" x2="200.328" y2="169.834" gradientUnits="userSpaceOnUse">
<stop stop-color="#F05596"/>
<stop offset="1" stop-color="#17A5F4"/>
</linearGradient>
</defs>
</svg>
