<svg xmlns="http://www.w3.org/2000/svg" xmlns:xlink="http://www.w3.org/1999/xlink" preserveAspectRatio="xMidYMid" width="500" height="247.34" viewBox="171.7 300.37 500 247.34">
  <defs>
    <style>
      .cls-1 {
        fill: #e3503c;
        stroke: #fff;
        stroke-width: 2px;
        fill-rule: evenodd;
      }
    </style>
  </defs>
  <path d="M35.172,477.025 C34.509,478.577 84.174,439.768 139.325,480.964 C168.636,502.859 165.459,516.050 200.025,525.557 C236.083,535.473 250.544,509.963 285.627,516.237 C320.710,522.511 354.628,542.474 401.602,528.785 C448.695,515.061 466.460,509.895 515.470,522.720 C566.780,536.145 609.798,563.866 656.929,531.925 C691.482,508.508 708.576,492.710 721.246,478.593 C733.915,464.476 767.001,435.763 791.415,457.807 C811.395,475.846 813.826,68.428 813.826,68.428 C813.826,68.428 745.601,11.956 733.907,15.093 C722.212,18.230 149.192,0.982 149.192,0.982 L1.048,43.326 L4.953,331.931 L35.172,477.025 Z" class="cls-1"/>
</svg>
