<?xml version="1.0" encoding="iso-8859-1"?>
<!-- Generator: Adobe Illustrator 16.0.0, SVG Export Plug-In . SVG Version: 6.00 Build 0)  -->
<!DOCTYPE svg PUBLIC "-//W3C//DTD SVG 1.1//EN" "http://www.w3.org/Graphics/SVG/1.1/DTD/svg11.dtd">
<svg version="1.1" id="Capa_1" xmlns="http://www.w3.org/2000/svg" xmlns:xlink="http://www.w3.org/1999/xlink" x="0px" y="0px"
	 width="100.27px" height="100.27px" viewBox="0 0 100.27 100.27" style="enable-background:new 0 0 100.27 100.27;"
	 xml:space="preserve">
<g>
	<g>
		<circle cx="27.452" cy="89.518" r="8.062"/>
		<path d="M53.762,81.455c4.456,0,8.062,3.61,8.062,8.062c0,4.455-3.606,8.062-8.062,8.062c-4.452,0-8.062-3.607-8.062-8.062
			C45.699,85.065,49.31,81.455,53.762,81.455z"/>
		<path d="M99.934,5.568c-0.948-2.354-3.627-3.498-5.996-2.539L77.08,9.843c-0.39,0.157-0.725,0.373-1.047,0.616
			c-1.19,0.603-2.129,1.687-2.43,3.097l-2.416,12.148c-0.342-0.041-0.667-0.109-1.013-0.109H8.697C3.899,25.595,0,29.729,0,34.804
			v0.955L11.209,68.7c1.451,4.935,4.546,8.104,8.987,8.104h43.011c4.161,0,7.625-3.101,8.487-7.221
			c0.144-0.312,0.28-0.64,0.355-0.988L83.61,17.128l13.78-5.571C99.749,10.609,100.885,7.923,99.934,5.568z M66.533,49.115
			l-3.856,18.199v0.287H21.4l-0.698-0.954L9.623,34.811h59.751L66.533,49.115z"/>
	</g>
</g>
<g>
</g>
<g>
</g>
<g>
</g>
<g>
</g>
<g>
</g>
<g>
</g>
<g>
</g>
<g>
</g>
<g>
</g>
<g>
</g>
<g>
</g>
<g>
</g>
<g>
</g>
<g>
</g>
<g>
</g>
</svg>
