<svg height="512pt" viewBox="0 0 512 512.00072" width="512pt" xmlns="http://www.w3.org/2000/svg"><path d="m306.703125 512c-12.703125 0-25.300781-3.609375-36.167969-10.574219-8.832031-5.664062-20.242187-5.664062-29.070312 0-15.820313 10.140625-35.300782 13.167969-53.453125 8.304688-18.148438-4.863281-33.507813-17.226563-42.136719-33.917969-4.816406-9.320312-14.710938-15.027344-25.175781-14.535156-18.769531.867187-37.15625-6.25-50.441407-19.535156-13.285156-13.285157-20.40625-31.671876-19.535156-50.441407.488282-10.480469-5.214844-20.359375-14.535156-25.179687-16.691406-8.625-29.054688-23.984375-33.914062-42.136719-4.863282-18.148437-1.835938-37.628906 8.304687-53.449219 5.660156-8.828125 5.660156-20.242187 0-29.074218-10.140625-15.816407-13.167969-35.296876-8.304687-53.449219 4.859374-18.148438 17.222656-33.507813 33.914062-42.136719 9.320312-4.816406 15.023438-14.699219 14.535156-25.175781-.871094-18.769531 6.25-37.15625 19.535156-50.441407 13.285157-13.285156 31.695313-20.40625 50.441407-19.535156 10.46875.492188 20.359375-5.214844 25.175781-14.535156 8.632812-16.691406 23.988281-29.050781 42.140625-33.914062 18.148437-4.863282 37.628906-1.839844 53.449219 8.304687 8.828125 5.660156 20.242187 5.660156 29.070312 0 15.820313-10.144531 35.300782-13.167969 53.449219-8.304687 18.152344 4.863281 33.507813 17.222656 42.140625 33.914062 4.816406 9.320312 14.714844 15.023438 25.175781 14.539062 18.769531-.871093 37.152344 6.246094 50.441407 19.53125 13.285156 13.289063 20.40625 31.671876 19.53125 50.441407-.484376 10.480469 5.21875 20.363281 14.539062 25.179687 16.691406 8.628906 29.050781 23.988282 33.914062 42.136719 4.863282 18.148437 1.835938 37.632813-8.304687 53.449219-5.660156 8.832031-5.660156 20.242187 0 29.074218 10.140625 15.816407 13.167969 35.296876 8.304687 53.449219-4.863281 18.148438-17.222656 33.507813-33.914062 42.136719-9.816406 5.074219-21.882812 1.226562-26.953125-8.585938-5.074219-9.8125-1.230469-21.878906 8.582031-26.953124 6.8125-3.519532 11.660156-9.542969 13.644532-16.953126 1.988281-7.410156.800781-15.046874-3.339844-21.507812-14.070313-21.945312-14.070313-50.304688 0-72.25 4.140625-6.460938 5.328125-14.097656 3.339844-21.507812-1.984376-7.410157-6.832032-13.433594-13.644532-16.953126-23.160156-11.972656-37.339844-36.535156-36.125-62.574218.355469-7.664063-2.4375-14.871094-7.859375-20.296875-5.425781-5.425781-12.636719-8.214844-20.296875-7.859375-25.996094 1.214844-50.601562-12.96875-62.574218-36.125-3.519532-6.816406-9.542969-11.660156-16.953126-13.648438-7.410156-1.984375-15.046874-.796875-21.507812 3.34375-21.945312 14.066406-50.304688 14.066406-72.25 0-6.460938-4.140625-14.101562-5.328125-21.507812-3.34375-7.410157 1.988282-13.433594 6.832032-16.953126 13.648438-11.496093 22.238281-34.605468 36.195312-59.480468 36.199218-1.03125 0-2.058594-.027343-3.09375-.074218-7.644532-.359375-14.871094 2.4375-20.296875 7.859375-5.425781 5.425781-8.214844 12.632812-7.859375 20.296875 1.214844 26.039062-12.96875 50.601562-36.125 62.574218-6.8125 3.519532-11.660156 9.542969-13.648438 16.953126-1.984375 7.410156-.796875 15.046874 3.34375 21.507812 14.066406 21.945312 14.066406 50.304688 0 72.25-4.140625 6.460938-5.328125 14.097656-3.34375 21.507812 1.988282 7.410157 6.835938 13.429688 13.648438 16.953126 23.15625 11.972656 37.339844 36.535156 36.125 62.574218-.355469 7.664063 2.4375 14.871094 7.859375 20.296875 5.425781 5.425781 12.640625 8.21875 20.296875 7.859375 26.003906-1.195312 50.601562 12.96875 62.570312 36.125 3.523438 6.8125 9.546875 11.660156 16.957032 13.648438 7.410156 1.984375 15.046874.796875 21.507812-3.34375 21.941406-14.066406 50.304688-14.066406 72.25 0 6.460938 4.140625 14.097656 5.328125 21.507812 3.34375 7.410157-1.988282 13.433594-6.835938 16.953126-13.648438 11.972656-23.15625 36.507812-37.339844 62.574218-36.125 5.683594.261719 11.195313-1.226562 15.921875-4.3125 9.25-6.035156 21.644531-3.429687 27.679688 5.820313 6.039062 9.253906 3.429687 21.644531-5.820313 27.683593-11.800781 7.699219-25.507812 11.421876-39.640625 10.765626-10.484375-.492188-20.363281 5.21875-25.179687 14.535156-8.628906 16.695312-23.984375 29.054687-42.136719 33.917968-5.679687 1.523438-11.492187 2.273438-17.28125 2.273438zm-82.707031-327.003906c0-27.574219-22.429688-50.003906-50.003906-50.003906-27.570313 0-50.003907 22.429687-50.003907 50.003906 0 27.570312 22.433594 50.003906 50.003907 50.003906 27.574218 0 50.003906-22.433594 50.003906-50.003906zm-40.003906 0c0 5.515625-4.484376 10-10 10-5.515626 0-10-4.484375-10-10s4.484374-10 10-10c5.515624 0 10 4.484375 10 10zm205.015624 140.011718c0-27.574218-22.429687-50.003906-50.003906-50.003906-27.570312 0-50.003906 22.429688-50.003906 50.003906 0 27.570313 22.433594 50.003907 50.003906 50.003907 27.574219 0 50.003906-22.433594 50.003906-50.003907zm-40 0c0 5.511719-4.488281 10-10.003906 10-5.511718 0-10-4.488281-10-10 0-5.515624 4.488282-10.003906 10-10.003906 5.515625 0 10.003906 4.488282 10.003906 10.003906zm-126.605468 39.511719 108.113281-200.015625c5.253906-9.71875 1.636719-21.855468-8.082031-27.105468-9.71875-5.253907-21.855469-1.632813-27.105469 8.085937l-108.117187 200.011719c-5.253907 9.71875-1.632813 21.855468 8.082031 27.109375 3.027343 1.632812 6.28125 2.410156 9.496093 2.410156 7.109376-.003906 13.996094-3.804687 17.613282-10.496094zm0 0"/></svg>