<?xml version="1.0" encoding="iso-8859-1"?>
<!-- Generator: Adobe Illustrator 19.0.0, SVG Export Plug-In . SVG Version: 6.00 Build 0)  -->
<svg version="1.1" id="Capa_1" xmlns="http://www.w3.org/2000/svg" xmlns:xlink="http://www.w3.org/1999/xlink" x="0px" y="0px"
	 viewBox="0 0 384 384" style="enable-background:new 0 0 384 384;" xml:space="preserve">
<g>
	<g>
		<path d="M192,0C108.184,0,40,69.648,40,155.256c0,42.728,17.504,84.008,47.68,112.928L170.16,352h-29.904c-8.832,0-16,7.168-16,16
			c0,8.832,7.168,16,16,16h103.496c8.832,0,16-7.168,16-16c0-8.832-7.168-16-16-16H213.84l82.304-83.656
			C326.56,239.136,344,197.928,344,155.256C344,69.648,275.816,0,192,0z M273.832,245.4c-0.12,0.112-0.232,0.224-0.344,0.336
			L192,328.568l-81.84-83.16C85.552,221.824,72,189.808,72,155.256C72,87.296,125.832,32,192,32s120,55.296,120,123.256
			C312,189.328,298.088,222.184,273.832,245.4z"/>
	</g>
</g>
<g>
	<g>
		<path d="M192,62.048c-48.928,0-88.728,40.584-88.728,90.472s39.8,90.472,88.728,90.472s88.728-40.592,88.728-90.472
			C280.728,102.64,240.928,62.048,192,62.048z M192,210.992c-31.28,0-56.728-26.232-56.728-58.472
			c0-32.24,25.448-58.472,56.728-58.472c31.28,0,56.728,26.232,56.728,58.472C248.728,184.76,223.28,210.992,192,210.992z"/>
	</g>
</g>
<g>
</g>
<g>
</g>
<g>
</g>
<g>
</g>
<g>
</g>
<g>
</g>
<g>
</g>
<g>
</g>
<g>
</g>
<g>
</g>
<g>
</g>
<g>
</g>
<g>
</g>
<g>
</g>
<g>
</g>
</svg>
