<svg xmlns="http://www.w3.org/2000/svg" xmlns:xlink="http://www.w3.org/1999/xlink" preserveAspectRatio="xMidYMid" width="35.687" height="34.313" viewBox="0 0 35.687 34.313">
  <path fill="#f4c24b" d="M34.916,15.551 C35.619,14.864 35.867,13.855 35.564,12.917 C35.260,11.979 34.469,11.311 33.497,11.168 L24.856,9.907 C24.487,9.853 24.170,9.621 24.005,9.286 L20.142,1.425 C19.708,0.543 18.828,-0.006 17.846,-0.006 C16.866,-0.006 15.986,0.543 15.552,1.425 L11.688,9.288 C11.523,9.623 11.205,9.854 10.837,9.908 L2.195,11.168 C1.224,11.311 0.432,11.980 0.128,12.919 C-0.175,13.855 0.073,14.865 0.776,15.552 L7.028,21.670 C7.295,21.932 7.417,22.308 7.354,22.674 L5.879,31.315 C5.748,32.075 5.947,32.815 6.437,33.398 C7.199,34.307 8.529,34.585 9.592,34.023 L17.320,29.942 C17.643,29.773 18.050,29.776 18.372,29.942 L26.101,34.023 C26.477,34.221 26.878,34.322 27.292,34.322 C28.047,34.322 28.763,33.984 29.256,33.398 C29.746,32.815 29.944,32.074 29.814,31.315 L28.338,22.674 C28.275,22.307 28.397,21.932 28.664,21.670 L34.916,15.551 Z" class="cls-1"/>
</svg>
