<?xml version="1.0" standalone="no"?>
<!DOCTYPE svg PUBLIC "-//W3C//DTD SVG 20010904//EN"
 "http://www.w3.org/TR/2001/REC-SVG-20010904/DTD/svg10.dtd">
<svg version="1.0" xmlns="http://www.w3.org/2000/svg"
 width="700.000000pt" height="700.000000pt" viewBox="0 0 700.000000 700.000000"
 preserveAspectRatio="xMidYMid meet">
<metadata>
Created by potrace 1.11, written by Peter Selinger 2001-2013
</metadata>
<g transform="translate(0.000000,700.000000) scale(0.100000,-0.100000)"
fill="#000000" stroke="none">
<path d="M0 3500 l0 -3500 3500 0 3500 0 0 3500 0 3500 -3500 0 -3500 0 0
-3500z m3990 1490 l0 -109 -36 -10 c-20 -6 -99 -25 -175 -42 l-139 -33 0
-1198 0 -1198 23 -5 c12 -3 83 -19 157 -35 74 -17 143 -33 153 -36 15 -5 17
-19 17 -115 l0 -109 -540 0 -540 0 0 109 c0 96 2 110 18 115 9 2 80 19 157 36
77 17 148 33 158 36 16 5 17 71 17 1203 l0 1197 -137 33 c-76 18 -155 37 -175
42 l-38 10 0 109 0 110 540 0 540 0 0 -110z"/>
</g>
</svg>
