<svg width="174" height="174" viewBox="0 0 174 174" fill="none" xmlns="http://www.w3.org/2000/svg">
<g opacity="0.2" clip-path="url(#clip0)">
<path d="M170.799 45.4982C170.799 45.4982 170.799 45.4982 170.799 45.4982L170.793 45.4925L159.609 43.8969C158.037 43.673 156.944 42.2171 157.168 40.6452C157.276 39.8898 157.679 39.2084 158.29 38.7506L167.329 31.9713C168.599 31.0186 168.856 29.2167 167.904 27.9463L157.554 14.1462C156.601 12.8759 154.799 12.6185 153.529 13.5712L144.492 20.3505C143.227 21.3104 141.424 21.0632 140.464 19.7982C139.998 19.184 139.798 18.4081 139.91 17.6451L141.508 6.46134C141.733 4.88943 140.642 3.43288 139.07 3.20719C139.069 3.20719 139.068 3.20683 139.067 3.20683L122.001 0.768818C120.43 0.54313 118.972 1.6342 118.747 3.20611C118.747 3.20647 118.747 3.20647 118.747 3.20683L117.148 14.3906C116.924 15.9625 115.468 17.0554 113.896 16.8315C113.141 16.7241 112.46 16.3205 112.002 15.7103L105.225 6.67122C104.273 5.40082 102.471 5.14351 101.2 6.09621L92.561 12.5794C88.6524 12.1639 84.7108 12.1639 80.8022 12.5794C55.2053 15.505 35.1323 35.9184 32.6371 61.5609C32.5595 62.3746 32.5308 63.1824 32.4905 63.9903H31.628C30.2638 63.9928 29.089 64.9538 28.8162 66.2903L26.8296 75.7376L18.8716 70.2492C17.7295 69.4611 16.187 69.6016 15.2059 70.5827L6.58091 79.2078C5.60125 80.1885 5.46109 81.7288 6.24741 82.8705L11.7099 90.8142L2.25977 92.8008C0.937979 93.0905 -0.00286844 94.2624 6.57094e-06 95.6155V107.116C-0.000712182 108.475 0.951995 109.65 2.28277 109.93L11.7329 111.917L6.27041 119.86C5.48409 121.002 5.62425 122.542 6.60391 123.523L15.2289 132.148C16.21 133.129 17.7525 133.27 18.8946 132.482L26.8382 127.005L28.8249 136.455C29.0976 137.792 30.2724 138.752 31.6366 138.755H43.1367C44.4966 138.756 45.671 137.803 45.9513 136.472L47.9379 127.022L55.8816 132.485C57.0233 133.271 58.5636 133.131 59.5444 132.151L64.0093 127.672V135.866C64.0222 139.956 66.2133 143.729 69.7593 145.767V161.741C69.7593 168.092 74.9081 173.241 81.2593 173.241H92.7594C99.1106 173.241 104.259 168.092 104.259 161.741V145.767C107.805 143.729 109.997 139.956 110.009 135.866V124.486C110.087 119.698 112.592 115.278 116.659 112.751C119.045 111.203 121.308 109.472 123.427 107.576L119.592 103.292C117.696 104.991 115.671 106.539 113.534 107.923C107.826 111.506 104.331 117.747 104.259 124.486V135.866C104.259 139.041 101.685 141.616 98.5094 141.616H75.5093C72.3335 141.616 69.7593 139.041 69.7593 135.866V124.248C69.6928 117.636 66.2532 111.516 60.6397 108.021C37.8528 93.7029 30.9872 63.6234 45.3055 40.8364C54.1893 26.6982 69.6935 18.0929 86.3912 18.0333C86.3485 18.1357 86.3107 18.2403 86.2791 18.3466C86.1724 19.1013 86.37 19.8679 86.8282 20.477L93.6046 29.5132C94.3191 30.4379 94.3877 31.7079 93.7771 32.7044C93.1892 33.7071 92.0525 34.2541 90.9021 34.0873L79.7183 32.4888C78.1464 32.2635 76.6899 33.3549 76.4642 34.9265C76.4642 34.9275 76.4638 34.9286 76.4638 34.9297L74.0229 52.0044C73.7976 53.576 74.889 55.0329 76.4606 55.2586C76.4617 55.2586 76.4627 55.2589 76.4638 55.2589L87.6476 56.8574C89.2195 57.0813 90.3124 58.5371 90.0885 60.1091C89.981 60.8645 89.5775 61.5458 88.9672 62.0037L79.9311 68.7801C78.6607 69.7328 78.4034 71.5347 79.3561 72.8051L89.7061 86.6052C90.6588 87.8756 92.4607 88.1329 93.7311 87.1802L102.77 80.4038C104.042 79.4529 105.844 79.7127 106.794 80.9845C107.249 81.5929 107.445 82.357 107.339 83.1092L105.743 94.293C105.517 95.8645 106.608 97.3218 108.18 97.5475C108.181 97.5475 108.181 97.5475 108.181 97.5475L125.259 99.9883C125.393 100.006 125.528 100.014 125.664 100.014C127.095 100.016 128.31 98.9645 128.513 97.5475L130.109 86.3637C130.333 84.7918 131.788 83.6989 133.36 83.9228C134.116 84.0302 134.797 84.4338 135.255 85.044L142.034 94.0802C142.987 95.3506 144.789 95.6079 146.059 94.6552L159.859 84.3052C161.13 83.3525 161.387 81.5505 160.434 80.2801L153.658 71.244C152.947 70.3179 152.878 69.05 153.485 68.0527C154.061 67.0368 155.208 66.4862 156.36 66.6727L167.544 68.2683C169.116 68.494 170.573 67.4026 170.799 65.831C170.799 65.8307 170.799 65.8307 170.799 65.8303L173.237 48.7528C173.462 47.1808 172.371 45.7239 170.799 45.4982ZM75.5093 147.366H98.5094V153.116H75.5093V147.366ZM75.5093 158.866H98.5094V161.741C98.5094 164.917 95.9352 167.491 92.7594 167.491H81.2593C78.0835 167.491 75.5093 164.917 75.5093 161.741V158.866ZM52.6213 109.286C54.1911 110.57 55.8313 111.765 57.5347 112.866C60.2513 114.582 62.2961 117.179 63.3279 120.223L57.161 126.378L51.1896 122.261C48.5748 120.459 44.9943 121.118 43.192 123.733C42.76 124.36 42.4567 125.067 42.3 125.812L40.7935 132.991H33.9596L32.4531 125.823C31.7991 122.716 28.7498 120.727 25.6422 121.381C24.8972 121.537 24.1907 121.841 23.5636 122.273L17.5893 126.378L12.3511 121.151L16.4652 115.183C18.2689 112.569 17.612 108.988 14.9982 107.185C14.3708 106.751 13.6635 106.447 12.9174 106.29L5.75003 104.781V97.95L12.9174 96.4406C16.0239 95.7819 18.0084 92.7297 17.3496 89.6228C17.1933 88.8858 16.8939 88.1868 16.4681 87.5654L12.3511 81.5797L17.5893 76.3529L23.5665 80.4699C26.1824 82.27 29.7628 81.6087 31.563 78.9929C31.9942 78.3665 32.2968 77.6606 32.4531 76.9164L32.9563 74.5244C33.417 77.8371 34.1799 81.1002 35.2361 84.2735C25.7763 85.4013 19.0218 93.9846 20.1495 103.444C21.2772 112.904 29.8606 119.659 39.3205 118.531C45.0151 117.852 50 114.387 52.6213 109.286ZM48.1564 105.235C46.0095 111.203 39.4319 114.3 33.4644 112.153C27.497 110.006 24.3999 103.429 26.5464 97.4612C28.1888 92.8961 32.5232 89.8554 37.3748 89.8654C37.4122 89.8654 37.4467 89.8654 37.484 89.8654C40.128 95.5662 43.7386 100.766 48.1564 105.235ZM165.497 62.1618L157.16 60.9716C152.444 60.2981 148.075 63.5752 147.402 68.2906C147.078 70.5551 147.668 72.8554 149.041 74.6854L154.092 81.4215L144.892 88.3215L139.838 81.5883C136.98 77.7771 131.574 77.0041 127.763 79.8618C125.933 81.2339 124.723 83.277 124.399 85.5414L123.234 93.8904L111.852 92.2632L113.043 83.9257C113.718 79.2103 110.443 74.8403 105.727 74.1653C103.461 73.8408 101.16 74.4302 99.3288 75.8037L92.5926 80.8551L85.6926 71.6551L92.4259 66.6008C96.2371 63.7431 97.0101 58.337 94.1523 54.5261C92.7802 52.6962 90.7372 51.4862 88.4727 51.162L80.1352 49.9718L81.7625 38.5896L90.1 39.7799C94.8154 40.4551 99.1854 37.1798 99.8603 32.4644C100.185 30.1985 99.5954 27.8971 98.2219 26.066L93.1533 19.3241L102.353 12.4241L107.408 19.1603C110.265 22.9715 115.671 23.7445 119.482 20.8867C121.312 19.5146 122.522 17.4716 122.846 15.2071L124.037 6.86959L135.419 8.49397L134.229 16.8315C133.555 21.5472 136.832 25.9158 141.548 26.5893C143.812 26.9127 146.112 26.3234 147.942 24.9505L154.678 19.8991L161.579 29.0992L154.842 34.1535C151.031 37.0112 150.258 42.4173 153.116 46.2281C154.488 48.0581 156.531 49.2681 158.796 49.5923L167.133 50.7825L165.497 62.1618Z" fill="white"/>
<path d="M123.626 27.374C110.923 27.374 100.625 37.6716 100.625 50.3741C100.625 63.0766 110.923 73.3742 123.626 73.3742C136.328 73.3742 146.626 63.0766 146.626 50.3741C146.611 37.6773 136.322 27.388 123.626 27.374ZM123.626 67.6242C114.099 67.6242 106.376 59.9012 106.376 50.3741C106.376 40.847 114.099 33.124 123.626 33.124C133.153 33.124 140.876 40.847 140.876 50.3741C140.865 59.8965 133.148 67.613 123.626 67.6242Z" fill="white"/>
<path d="M89.8843 127.24H84.1343V135.865H89.8843V127.24Z" fill="white"/>
<path d="M74.434 99.0047C56.6862 92.0717 47.9192 72.0637 54.8527 54.3159C57.5394 47.4389 62.3611 41.6052 68.6093 37.6721L65.5359 32.8076C46.7275 44.6566 41.0857 69.5093 52.9347 88.3176C57.5236 95.6018 64.3273 101.223 72.3468 104.355C79.4452 107.075 84.1325 113.889 84.1343 121.49H89.8843C89.8933 111.517 83.7473 102.572 74.434 99.0047Z" fill="white"/>
<path d="M161.76 107.115H141.635V112.865H161.76V107.115Z" fill="white"/>
<path d="M140.6 122.155L136.92 126.572L154.171 140.945L157.852 136.527L140.6 122.155Z" fill="white"/>
<path d="M130.135 130.115H124.385V150.24H130.135V130.115Z" fill="white"/>
<path d="M25.9343 43.9492L2.93579 49.6982L4.32947 55.2736L27.328 49.5245L25.9343 43.9492Z" fill="white"/>
<path d="M11.0519 15.6546L7.71167 20.3311L27.8352 34.7046L31.1754 30.0282L11.0519 15.6546Z" fill="white"/>
<path d="M37.9156 0.0239616L32.345 1.44824L38.2251 24.4466L43.7957 23.0223L37.9156 0.0239616Z" fill="white"/>
</g>
<defs>
<clipPath id="clip0">
<rect width="173.266" height="173.266" fill="white"/>
</clipPath>
</defs>
</svg>
