<svg width="212" height="212" viewBox="0 0 212 212" fill="none" xmlns="http://www.w3.org/2000/svg">
<g opacity="0.2">
<path d="M197.867 10.5996H35.3333C27.5278 10.5996 21.2 16.9274 21.2 24.7329V137.8H3.53333C1.58205 137.8 0 139.382 0 141.333C0 149.139 6.32776 155.466 14.1333 155.466H116.6V197.866C116.6 199.818 118.182 201.399 120.134 201.399C121.071 201.399 121.969 201.026 122.631 200.364L141.333 181.662L160.035 200.364C160.698 201.027 161.596 201.4 162.533 201.4C162.998 201.401 163.458 201.31 163.887 201.131C165.207 200.584 166.067 199.295 166.067 197.866V155.466H176.667C184.472 155.466 190.8 149.139 190.8 141.333V28.2663H208.467C210.418 28.2663 212 26.6842 212 24.7329C212 16.9274 205.672 10.5996 197.867 10.5996ZM183.733 24.7329V137.8H169.6V144.866H182.783C181.521 147.052 179.19 148.398 176.667 148.4H166.067V144.866H159V189.337L143.831 174.168C142.452 172.789 140.215 172.789 138.835 174.168L123.667 189.337V144.866H116.6V148.4H14.1333C11.6101 148.398 9.27898 147.052 8.01713 144.866H24.7333H113.067V137.8H28.2667V24.7329C28.2667 20.8299 31.4303 17.6663 35.3333 17.6663H185.698C184.426 19.8053 183.748 22.2446 183.733 24.7329ZM191.75 21.1996C193.705 17.8217 198.028 16.6681 201.407 18.6234C202.476 19.2421 203.364 20.1308 203.983 21.1996H191.75Z" fill="white"/>
<path d="M174.642 121.176L170.116 113.067L174.66 104.965C175.617 103.264 175.015 101.11 173.315 100.152C173.23 100.104 173.142 100.059 173.052 100.018L164.618 96.156L163.53 86.934C163.3 84.9964 161.542 83.6122 159.604 83.8424C159.514 83.853 159.425 83.8671 159.336 83.8848L150.227 85.6903L143.927 78.8674C142.517 77.4351 140.212 77.417 138.78 78.8272C138.766 78.8405 138.753 78.8542 138.74 78.8674L132.44 85.6903L123.331 83.8848C121.417 83.5062 119.558 84.7513 119.179 86.6655C119.162 86.7543 119.148 86.8439 119.137 86.934L118.049 96.156L109.615 100.025C107.84 100.837 107.061 102.934 107.873 104.708C107.914 104.798 107.958 104.886 108.007 104.972L112.551 113.067L108.007 121.168C107.049 122.869 107.651 125.023 109.351 125.981C109.437 126.029 109.525 126.074 109.615 126.115L118.049 129.984L119.137 139.213C119.367 141.151 121.125 142.535 123.063 142.305C123.153 142.294 123.242 142.28 123.331 142.262L132.44 140.457L138.74 147.28C140.065 148.712 142.301 148.799 143.733 147.474C143.8 147.411 143.865 147.347 143.927 147.28L150.227 140.457L159.336 142.262C160.301 142.46 161.305 142.239 162.099 141.655C162.889 141.073 163.4 140.188 163.512 139.213L164.6 129.991L173.034 126.122C174.809 125.31 175.589 123.213 174.776 121.439C174.735 121.349 174.69 121.261 174.642 121.176ZM162.986 114.791L166.621 121.278L159.866 124.377C158.746 124.891 157.975 125.951 157.831 127.175L156.961 134.57L149.658 133.125C148.454 132.875 147.208 133.278 146.379 134.185L141.333 139.655L136.288 134.192C135.619 133.469 134.679 133.058 133.694 133.058C133.464 133.057 133.234 133.081 133.009 133.129L125.705 134.574L124.836 127.179C124.692 125.955 123.921 124.894 122.801 124.38L116.045 121.282L119.681 114.794C120.289 113.717 120.303 112.408 119.681 111.339V111.353L116.045 104.866L122.801 101.767C123.921 101.253 124.692 100.192 124.836 98.9686L125.705 91.5733L133.009 93.0184C134.212 93.2653 135.457 92.863 136.288 91.9584L141.333 86.4782L146.379 91.9408C147.208 92.8484 148.454 93.2512 149.658 93.0008L156.961 91.5556L157.831 98.9509C157.975 100.175 158.746 101.235 159.866 101.749L166.621 104.848L162.986 111.335C162.384 112.408 162.384 113.718 162.986 114.791Z" fill="white"/>
<path d="M141.333 95.4004C131.577 95.4004 123.667 103.31 123.667 113.067C123.678 122.819 131.581 130.722 141.333 130.734C151.09 130.734 159 122.824 159 113.067C159 103.31 151.09 95.4004 141.333 95.4004ZM141.333 123.667C135.479 123.667 130.733 118.921 130.733 113.067C130.733 107.213 135.479 102.467 141.333 102.467C147.188 102.467 151.933 107.213 151.933 113.067C151.933 118.921 147.188 123.667 141.333 123.667Z" fill="white"/>
<path d="M134.267 31.7998H77.7334V38.8665H134.267V31.7998Z" fill="white"/>
<path d="M169.6 53H42.3999V60.0667H169.6V53Z" fill="white"/>
<path d="M169.6 67.1328H42.3999V74.1995H169.6V67.1328Z" fill="white"/>
<path d="M91.8667 113.066H45.9333V120.133H91.8667V113.066Z" fill="white"/>
</g>
</svg>
