<svg width="184" height="184" viewBox="0 0 184 184" fill="none" xmlns="http://www.w3.org/2000/svg">
<g opacity="0.2" clip-path="url(#clip0)">
<path d="M74.3664 0C64.214 0 55.9548 8.25919 55.9548 18.4116C55.9548 28.564 64.2144 36.8231 74.3664 36.8231C84.5188 36.8231 92.778 28.564 92.778 18.4116C92.778 8.25919 84.5188 0 74.3664 0ZM74.3664 31.4321C67.1868 31.4321 61.3458 25.5912 61.3458 18.4116C61.3458 11.2319 67.1871 5.39101 74.3664 5.39101C81.546 5.39101 87.387 11.2323 87.387 18.4116C87.387 25.5908 81.546 31.4321 74.3664 31.4321Z" fill="white"/>
<path d="M143.391 112.224C142.328 111.182 140.622 111.198 139.579 112.261L116.955 135.335L108.965 126.975C107.937 125.899 106.23 125.86 105.154 126.889C104.078 127.918 104.039 129.624 105.068 130.7L114.982 141.073C116.033 142.173 117.788 142.185 118.855 141.098L143.429 116.036C144.471 114.972 144.454 113.266 143.391 112.224Z" fill="white"/>
<path d="M158.263 130.228C156.804 129.938 155.384 130.886 155.094 132.346C152.004 147.898 141.03 161.185 126.455 167.024C125.074 167.577 124.402 169.146 124.956 170.529C125.509 171.911 127.079 172.582 128.46 172.028C145.24 165.306 157.005 150.393 160.382 133.397C160.672 131.937 159.723 130.518 158.263 130.228Z" fill="white"/>
<path d="M153.636 88.6918C146.426 92.7654 139.625 92.9012 133.42 89.0958C128.488 86.0709 125.724 81.6402 125.614 81.4612C124.706 79.9745 123.155 79.0609 121.427 78.9775C116.412 64.9371 108.043 55.1843 101.738 49.3779C97.717 45.6748 92.4977 43.6357 87.0413 43.6357C84.4208 43.6357 64.2432 43.6357 61.692 43.6357C55.8665 43.6357 50.3217 45.8247 46.0792 49.7991C37.3442 57.9828 22.677 75.861 22.5911 103.644C22.5728 109.47 27.198 114.337 32.9009 114.494C38.8583 114.668 43.8076 109.888 43.8076 103.89C43.8076 93.4629 46.7362 83.6473 52.3403 75.1099V174.649C52.3403 179.805 56.5357 184.001 61.6924 184.001H67.7108C70.3127 184.001 72.6702 182.933 74.3672 181.212C76.0642 182.933 78.4213 184.001 81.0236 184.001H87.042C92.1987 184.001 96.3941 179.805 96.3941 174.649V160.438C101.38 165.448 107.317 169.4 113.877 172.028C115.26 172.582 116.829 171.909 117.382 170.528C117.936 169.147 117.264 167.577 115.882 167.024C98.5281 160.071 86.3204 142.834 86.3204 122.919V93.5377C97.2332 99.5817 107.799 98.1075 116.431 90.0524C118.411 88.2333 120.025 86.3081 121.116 84.5975C121.132 84.5716 121.155 84.5389 121.17 84.5159C121.944 85.7115 125.178 90.3637 130.604 93.6915C136.06 97.0387 144.881 99.7078 156.019 93.5373V120.293C156.019 121.782 157.226 122.989 158.714 122.989C160.203 122.989 161.41 121.782 161.41 120.293V93.2279C161.409 89.2439 157.111 86.73 153.636 88.6918ZM79.1059 49.0268L75.8784 52.8606C75.0881 53.7989 73.6456 53.7989 72.8549 52.8606L69.627 49.0268H79.1059ZM96.3934 91.6078V75.8075C99.4988 80.6835 101.724 85.9387 103.042 91.5151C100.881 91.9888 98.669 92.0182 96.3934 91.6078ZM108.108 89.5357C105.943 80.8844 101.792 72.9562 95.7397 65.9275C94.1099 64.035 91.0013 65.198 91.0013 67.6863V89.8666C89.8402 89.338 88.384 88.529 88.3441 88.5104C84.9192 86.8986 80.9273 89.393 80.9273 93.2282V93.321V122.92C80.9273 134.203 84.4164 144.995 91.0013 154.102V174.649H91.0027C91.0027 176.833 89.226 178.61 87.0417 178.61H81.0232C78.8393 178.61 77.0622 176.834 77.0622 174.649V119.255C77.0622 117.766 75.8554 116.56 74.3668 116.56C72.8783 116.56 71.6715 117.766 71.6715 119.255V174.649C71.6715 176.833 69.8948 178.61 67.7105 178.61H61.692C59.5081 178.61 57.7309 176.834 57.7309 174.649V67.1566C57.7309 64.6772 54.6507 63.5182 53.0141 65.3733C43.4637 76.1963 38.4159 89.5155 38.4159 103.89C38.4159 106.792 36.0462 109.177 33.049 109.106C30.2458 109.028 27.9724 106.586 27.9818 103.662C28.0615 77.9023 41.6636 61.3235 49.765 53.7339C53.0048 50.6986 57.24 49.0268 61.6916 49.0268H62.5797L68.7307 56.3322C71.6751 59.8303 77.0611 59.8256 80.0019 56.3322L86.1526 49.0268H87.0406C91.1407 49.0268 95.063 50.5599 98.0857 53.3432C104.057 58.8424 112.025 68.1499 116.635 81.5952C114.582 84.6927 111.452 87.6486 108.108 89.5357Z" fill="white"/>
</g>
<defs>
<clipPath id="clip0">
<rect width="184" height="184" fill="white"/>
</clipPath>
</defs>
</svg>
