<svg width="152" height="152" viewBox="0 0 152 152" fill="none" xmlns="http://www.w3.org/2000/svg">
<g opacity="0.4" clip-path="url(#clip0)">
<path d="M125.462 10.8875C125.292 10.8875 125.123 10.9049 124.957 10.9388C108.447 14.3197 91.2693 11.2751 76.9268 2.42622L73.5851 0.374087C72.7722 -0.124696 71.748 -0.124696 70.9351 0.374087L67.5934 2.42622C53.2497 11.2716 36.072 14.3124 19.5634 10.9286C18.1925 10.6487 16.8541 11.5332 16.5745 12.9041C16.54 13.0736 16.5229 13.2462 16.5232 13.4191V91.2988C16.5188 101.307 19.1808 111.137 24.2352 119.775C30.0226 129.726 38.8253 137.577 49.37 142.194L71.2467 151.789C71.8928 152.071 72.6275 152.071 73.2735 151.789L95.1579 142.194C96.3891 141.655 97.6002 141.069 98.7808 140.444C100.017 139.787 100.487 138.253 99.8309 137.017C99.1747 135.781 97.6407 135.311 96.4044 135.967C95.3336 136.534 94.2398 137.063 93.1235 137.553L72.2601 146.701L51.4044 137.56C41.8373 133.368 33.852 126.242 28.6029 117.211C24.0033 109.347 21.5826 100.399 21.5902 91.2886V16.4463C38.4443 19.1381 55.7047 15.6926 70.2333 6.73538L72.2601 5.4965L74.2869 6.73285C88.8137 15.6945 106.076 19.1413 122.93 16.4463V91.2883C122.93 92.6874 124.064 93.8218 125.464 93.8218C126.863 93.8218 127.997 92.6874 127.997 91.2883V13.4187C127.996 12.0196 126.861 10.8862 125.462 10.8875Z" fill="white"/>
<path d="M72.0758 19.0196C71.4221 17.7823 69.8894 17.3092 68.6524 17.9629C68.5868 17.9974 68.5226 18.0351 68.4602 18.0753C56.7738 24.9211 42.9865 27.256 29.6977 24.6396C28.3267 24.3596 26.9884 25.2441 26.7088 26.6151C26.6746 26.7829 26.6575 26.9536 26.6575 27.1249V87.6502C26.6622 95.5813 28.8641 103.356 33.0191 110.112C37.871 118.022 45.1001 124.196 53.6721 127.75C54.963 128.291 56.4476 127.683 56.9885 126.392C57.5294 125.102 56.9214 123.617 55.6305 123.076C48.0389 119.931 41.6361 114.466 37.3387 107.462C33.6737 101.503 31.7305 94.6458 31.7245 87.6502V30.1246C45.3148 32.1004 59.173 29.3911 71.019 22.443C72.256 21.7897 72.7291 20.2569 72.0758 19.0196Z" fill="white"/>
<path d="M134.605 127.417C133.655 126.592 132.244 126.588 131.291 127.409L119.176 139.524C118.331 139.27 117.431 139.27 116.586 139.524L94.3372 117.275C93.3308 116.303 91.7267 116.331 90.7548 117.337C89.8067 118.319 89.8067 119.875 90.7548 120.857L113.001 143.106C112.251 145.766 113.8 148.53 116.459 149.28C116.916 149.409 117.389 149.472 117.863 149.468C120.662 149.468 122.93 147.199 122.93 144.401C122.924 143.963 122.86 143.527 122.74 143.106L134.855 130.991C135.773 129.935 135.661 128.335 134.605 127.417Z" fill="white"/>
<path d="M112.054 56.4705L101.92 46.3365C100.931 45.3475 99.3271 45.3475 98.3378 46.3365L67.1935 77.4808L58.8507 69.138C57.8614 68.1489 56.2577 68.1489 55.2683 69.138L45.1343 79.2719C44.1453 80.2613 44.1453 81.865 45.1343 82.8543L65.4023 103.122C65.8773 103.597 66.5215 103.865 67.1935 103.865C67.8655 103.865 68.5097 103.597 68.9847 103.122L112.054 60.0528C113.043 59.0635 113.043 57.4598 112.054 56.4705ZM67.1935 97.7487L50.518 81.0631L57.0595 74.5115L65.4201 82.8543C66.4094 83.8433 68.0131 83.8433 69.0024 82.8543L100.129 51.71L106.691 58.2617L67.1935 97.7487Z" fill="white"/>
</g>
<defs>
<clipPath id="clip0">
<rect width="152" height="152" fill="white"/>
</clipPath>
</defs>
</svg>
