<svg width="51" height="80" viewBox="0 0 51 80" fill="none" xmlns="http://www.w3.org/2000/svg">
<path d="M42.6323 0H8.43197C4.14606 0 0.65918 3.50456 0.65918 7.81221V72.1848C0.65918 76.4925 4.14606 79.9971 8.43197 79.9971H42.6323C46.9182 79.9971 50.4051 76.4925 50.4051 72.1848V7.81221C50.4051 3.50456 46.9182 0 42.6323 0ZM38.7101 3.12489L36.9964 6.13993C36.1072 7.20411 34.8118 7.81221 33.4245 7.81221H17.6398C16.2523 7.81221 14.9569 7.20411 14.0679 6.13993L12.3541 3.12489H38.7101ZM47.296 72.1848C47.296 74.7694 45.2038 76.8722 42.6323 76.8722H8.43197C5.86042 76.8722 3.7683 74.7694 3.7683 72.1848V7.81221C3.7683 5.22762 5.86042 3.12489 8.43197 3.12489H8.77336C8.77336 3.12489 11.5182 7.94111 11.5686 8.00439C13.0524 9.86823 15.2652 10.9371 17.6398 10.9371H33.4243C35.7989 10.9371 38.0118 9.86823 39.4955 8.00439C39.5458 7.94111 42.2909 3.12489 42.2909 3.12489H42.6323C45.2038 3.12489 47.296 5.22762 47.296 7.81221V72.1848Z" fill="#F84A51"/>
<path d="M25.5321 17.187C15.2459 17.187 6.87744 25.598 6.87744 35.9363C6.87744 46.2747 15.2459 54.6856 25.5321 54.6856C35.8184 54.6856 44.1869 46.2747 44.1869 35.9363C44.1869 25.598 35.8184 17.187 25.5321 17.187ZM25.5321 51.5607C16.9602 51.5607 9.98656 44.5518 9.98656 35.9363C9.98656 27.3209 16.9602 20.3119 25.5321 20.3119C34.1041 20.3119 41.0777 27.3209 41.0777 35.9363C41.0777 44.5518 34.1041 51.5607 25.5321 51.5607Z" fill="#F84A51"/>
<path d="M28.6416 58.123H23.9779C23.1195 58.123 22.4233 58.8227 22.4233 59.6855C22.4233 60.5483 23.1195 61.2479 23.9779 61.2479H28.6416C29.5 61.2479 30.1961 60.5483 30.1961 59.6855C30.1961 58.8227 29.5 58.123 28.6416 58.123Z" fill="#F84A51"/>
<path d="M17.7594 58.123H8.432C7.57357 58.123 6.87744 58.8227 6.87744 59.6855C6.87744 60.5483 7.57357 61.2479 8.432 61.2479H17.7594C18.6178 61.2479 19.3139 60.5483 19.3139 59.6855C19.3139 58.8227 18.6178 58.123 17.7594 58.123Z" fill="#F84A51"/>
<path d="M42.632 58.123H34.8592C34.0008 58.123 33.3047 58.8227 33.3047 59.6855C33.3047 60.5483 34.0008 61.2479 34.8592 61.2479H42.632C43.4905 61.2479 44.1866 60.5483 44.1866 59.6855C44.1866 58.8227 43.4905 58.123 42.632 58.123Z" fill="#F84A51"/>
<path d="M42.6323 64.3726H8.432C7.57357 64.3726 6.87744 65.0722 6.87744 65.935C6.87744 66.7978 7.57357 67.4974 8.432 67.4974H42.6323C43.4907 67.4974 44.1869 66.7978 44.1869 65.935C44.1869 65.0722 43.4907 64.3726 42.6323 64.3726Z" fill="#F84A51"/>
<path d="M39.5228 70.6226C38.6663 70.6226 37.9683 71.3241 37.9683 72.185C37.9683 73.0459 38.6663 73.7474 39.5228 73.7474C40.3794 73.7474 41.0774 73.0459 41.0774 72.185C41.0774 71.3241 40.3794 70.6226 39.5228 70.6226Z" fill="#F84A51"/>
<path d="M33.3049 70.6226H8.432C7.57373 70.6226 6.87744 71.3241 6.87744 72.185C6.87744 73.0459 7.57373 73.7474 8.432 73.7474H33.3049C34.1615 73.7474 34.8595 73.0459 34.8595 72.185C34.8595 71.3241 34.1615 70.6226 33.3049 70.6226Z" fill="#F84A51"/>
<path d="M19.2563 36.0803C18.6112 35.7048 17.8846 35.4398 17.1616 35.2631C16.7264 35.1569 16.0054 34.9191 16.0054 34.366C16.0054 33.7096 16.7753 33.4687 17.3004 33.4687C17.6825 33.4687 18.0926 33.5541 18.5307 33.7249C19.0967 33.9458 19.6046 34.1664 19.955 33.5199C20.1214 33.2124 20.2046 32.9429 20.2046 32.7104C20.2046 32.3415 19.9054 32.0275 19.3075 31.7678C18.7091 31.5084 18.0279 31.3784 17.2634 31.3784C16.1164 31.3784 15.2776 31.6845 14.7473 32.296C14.2171 32.9077 13.952 33.6374 13.952 34.4853C13.952 35.4895 14.5502 36.4601 15.506 36.8277C16.2888 37.1293 17.1617 37.2712 17.883 37.7147C18.2721 37.9541 18.4889 38.4828 18.2229 38.8953C17.9685 39.2898 17.3884 39.3295 16.9697 39.3295C16.5079 39.3295 16.1087 39.2581 15.7716 39.115C15.1714 38.86 14.3945 38.0454 13.881 38.8889C13.7185 39.1553 13.6377 39.4116 13.6377 39.6575C13.6377 40.1222 13.9645 40.532 14.6182 40.887C15.2717 41.242 16.0611 41.4198 16.9861 41.4198C18.059 41.4198 18.8943 41.1485 19.4928 40.6057C20.0908 40.0634 20.3899 39.3191 20.3899 38.3728C20.3898 37.4952 20.0467 36.5403 19.2563 36.0803Z" fill="#F84A51"/>
<path d="M25.5319 31.3784C23.3148 31.3784 21.5176 33.3524 21.5176 35.5384C21.5176 35.5384 21.5176 37.2177 21.5176 37.2188C21.5176 39.3778 23.3443 41.4198 25.5319 41.4198C27.7287 41.4198 29.5463 39.3728 29.5463 37.2188V35.5384C29.5463 33.3582 27.7329 31.3784 25.5319 31.3784ZM25.5321 39.0836C24.5746 39.0836 23.9041 38.105 23.9041 37.2127C23.9041 37.2127 23.9041 35.5472 23.9041 35.5448C23.9041 34.6594 24.6015 33.7146 25.5319 33.7146C26.4494 33.7146 27.1598 34.6805 27.1598 35.5448C27.1598 35.5448 27.1598 37.2112 27.1598 37.2127C27.1598 38.1025 26.4828 39.0834 25.5321 39.0836Z" fill="#F84A51"/>
<path d="M36.9346 36.9477C36.48 36.1282 35.5547 35.7142 34.6859 35.4636C34.1839 35.3189 33.6532 35.2166 33.2097 34.9242C32.7491 34.6206 32.822 34.0728 33.2095 33.748C33.7909 33.2608 34.7681 33.4776 35.4018 33.7251C35.9602 33.943 36.4739 34.17 36.8262 33.5201C36.9927 33.2126 37.0759 32.943 37.0759 32.7106C37.0759 32.3417 36.7766 32.0276 36.1787 31.7679C35.5802 31.5084 34.8989 31.3784 34.1343 31.3784C32.9874 31.3784 32.1485 31.6845 31.6184 32.296C30.8029 33.2368 30.4691 34.9439 31.2763 35.9906C32.1389 37.1091 33.6378 37.0263 34.7541 37.7147C35.1271 37.9447 35.3492 38.4839 35.1005 38.8852C34.8504 39.2888 34.2627 39.3297 33.8408 39.3297C33.1237 39.3297 32.4245 39.092 31.8285 38.695C31.4089 38.4158 31.0238 38.4424 30.7521 38.8891C30.5896 39.1555 30.5088 39.4117 30.5088 39.6576C30.5088 40.1223 30.8356 40.5321 31.4893 40.8871C32.1428 41.2421 32.9322 41.4199 33.8572 41.4199C34.9301 41.4199 35.7654 41.1487 36.3639 40.6059C36.9619 40.0636 37.261 39.3192 37.261 38.373C37.261 37.8149 37.152 37.3398 36.9346 36.9477Z" fill="#F84A51"/>
</svg>
