<svg width="80" height="80" viewBox="0 0 80 80" fill="none" xmlns="http://www.w3.org/2000/svg">
<path d="M78.6667 56H62.6667V48H78.6667C79.4667 48 80 47.4667 80 46.6667C80 45.8667 79.4667 45.3334 78.6667 45.3334H62.6667V41.3334C62.6667 40.5334 62.1334 40.0002 61.3334 40.0002H49.2V33.4002C55.5447 30.8294 60 24.6195 60 17.3333C60 7.73328 52.2667 0 42.6667 0C33.0667 0 25.3333 7.73328 25.3333 17.3333C25.3333 24.5684 29.7262 30.7425 36 33.3456V40H24C23.2 40 22.6667 40.5333 22.6667 41.3333V45.3708C10.0806 46.0603 0 56.4428 0 69.0667V78.6667C0 79.4667 0.533281 80 1.33328 80C2.13328 80 2.66656 79.4667 2.66656 78.6667V69.0667C2.66656 57.8667 11.5998 48.6667 22.6666 48V55.7333C15.9998 56.5333 10.6666 62.1333 10.6666 69.0666V78.6666C10.6666 79.4666 11.1998 79.9998 11.9998 79.9998C12.7998 79.9998 13.3331 79.4666 13.3331 78.6666V69.0666C13.3331 63.6516 17.4234 59.1486 22.6664 58.4869V62.6666C22.6664 63.4666 23.1997 63.9998 23.9997 63.9998H61.333C62.133 63.9998 62.6662 63.4666 62.6662 62.6666V58.6666H78.6662C79.4662 58.6666 79.9995 58.1333 79.9995 57.3333C79.9995 56.5333 79.4667 56 78.6667 56ZM46.5122 31.4825C46.4348 31.503 46.3578 31.5256 46.2803 31.5448C46.2652 31.5487 46.2497 31.5522 46.2345 31.5561C45.0406 31.8497 43.8333 31.9975 42.6256 31.9995C42.58 31.9994 42.5345 31.9983 42.4891 31.9978C42.3955 31.9972 42.3017 31.9945 42.2081 31.992C39.7839 31.9161 37.4936 31.2413 35.488 30.1072C37.2217 27.858 39.8778 26.6667 42.6666 26.6667C45.4555 26.6667 48.1114 27.858 49.8452 30.1072C48.8041 30.6959 47.6859 31.1608 46.5122 31.4825ZM28 17.3333C28 9.2 34.6667 2.66656 42.6667 2.66656C50.8 2.66656 57.3334 9.19984 57.3334 17.3333C57.3334 21.8442 55.282 25.8622 52.0905 28.5472C49.7969 25.6702 46.4408 24 42.6667 24C39.0323 24 35.6047 25.6498 33.2891 28.5859C30.0711 25.9011 28 21.8661 28 17.3333ZM38.6667 34.2062C38.7555 34.2272 38.845 34.2459 38.9342 34.2655C39.033 34.287 39.1317 34.3083 39.2309 34.3281C39.3284 34.3477 39.4261 34.3662 39.5241 34.3841C39.6128 34.4002 39.702 34.415 39.7913 34.4298C39.9362 34.4539 40.0819 34.4761 40.228 34.4966C40.3305 34.5109 40.433 34.5248 40.5359 34.5373C40.623 34.548 40.7103 34.5578 40.7977 34.567C40.9361 34.5817 41.0752 34.5947 41.2147 34.6063C41.2833 34.6119 41.352 34.6173 41.4208 34.6222C41.582 34.6336 41.7439 34.6425 41.9064 34.6494C41.9637 34.6519 42.0211 34.6541 42.0784 34.6559C42.2738 34.6623 42.4695 34.6669 42.6664 34.6669C42.8639 34.6669 43.0603 34.6623 43.2561 34.6559C43.3117 34.6541 43.3673 34.652 43.4228 34.6497C43.598 34.6422 43.7725 34.6328 43.9463 34.6202C43.985 34.6173 44.0238 34.6144 44.0625 34.6114C44.2344 34.5978 44.4053 34.5812 44.5756 34.5627C44.6312 34.5566 44.6867 34.5503 44.7422 34.5438C45.3956 34.4664 46.0378 34.3533 46.6666 34.2058V40H38.6666V34.2062H38.6667ZM60 61.3333H25.3333V57.0666V46.6666V42.6666H37.3333H48H60V46.6666V57.3333V61.3333Z" fill="#F84A51"/>
<path d="M53.3336 46.6665H32.0003C31.2003 46.6665 30.667 47.1998 30.667 47.9998V55.9998C30.667 56.7998 31.2003 57.3331 32.0003 57.3331H53.3336C54.1336 57.3331 54.6668 56.7998 54.6668 55.9998V47.9998C54.667 47.1998 54.1336 46.6665 53.3336 46.6665ZM52.0003 54.6665H33.3336V49.3332H52.0003V54.6665Z" fill="#F84A51"/>
<path d="M33.3336 17.3333C33.3336 16.6666 32.8003 16 32.0003 16C31.2003 16 30.667 16.5333 30.667 17.3333C30.667 18.1333 31.2003 18.6666 32.0003 18.6666C32.8003 18.6667 33.3336 18.1333 33.3336 17.3333Z" fill="#F84A51"/>
<path d="M53.3333 18.6666C54.1333 18.6666 54.6666 18.1333 54.6666 17.3333C54.6666 16.6666 54.1333 16 53.3333 16C52.5333 16 52 16.5333 52 17.3333C52 18.1333 52.5333 18.6666 53.3333 18.6666Z" fill="#F84A51"/>
<path d="M34.6663 12.0001C35.4663 12.0001 35.9996 11.4668 35.9996 10.6668C35.9996 10.0001 35.4663 9.3335 34.6663 9.3335C33.8663 9.3335 33.333 9.86678 33.333 10.6668C33.333 11.4668 33.8663 12.0001 34.6663 12.0001Z" fill="#F84A51"/>
<path d="M42.6663 8.00006C43.4663 8.00006 43.9996 7.46678 43.9996 6.66678C43.9996 6.00006 43.4663 5.3335 42.6663 5.3335C41.8663 5.3335 41.333 5.86678 41.333 6.66678C41.333 7.46678 41.8663 8.00006 42.6663 8.00006Z" fill="#F84A51"/>
<path d="M50.6673 12.0001C51.4673 12.0001 52.0005 11.4668 52.0005 10.6668C52.0005 10.0001 51.4673 9.3335 50.6673 9.3335C49.8673 9.3335 49.334 9.86678 49.334 10.6668C49.334 11.4668 49.8673 12.0001 50.6673 12.0001Z" fill="#F84A51"/>
<path d="M41.5996 20.8003C41.8663 21.2003 42.7996 21.2003 43.3329 20.9336C43.8661 20.5336 43.9996 19.6003 43.4661 19.0669L39.0661 13.7336C38.6661 13.2003 37.7328 13.0669 37.1994 13.6003C36.6661 14.0003 36.5327 14.9336 37.0661 15.467L41.5996 20.8003Z" fill="#F84A51"/>
</svg>
