<svg width="67" height="80" viewBox="0 0 67 80" fill="none" xmlns="http://www.w3.org/2000/svg">
<path d="M54.0593 67.7625L54.0253 67.7973C53.418 68.407 53.418 69.3963 54.0253 70.0066C54.3289 70.3118 54.7266 70.4644 55.1244 70.4644C55.5221 70.4644 55.9199 70.3118 56.2235 70.0066L56.2575 69.9725C56.8648 69.3621 56.8648 68.3728 56.2575 67.7625C55.6509 67.1527 54.6665 67.1527 54.0593 67.7625Z" fill="#F84A51"/>
<path d="M66.1046 43.6964C65.5751 35.4295 62.0658 27.6484 56.2228 21.785C53.172 18.7236 49.6336 16.3061 45.7065 14.6002C45.1211 14.3463 44.441 14.4769 43.9898 14.9304C43.5392 15.3839 43.4099 16.0681 43.6637 16.6558C48.727 28.3943 46.1741 41.8246 37.1595 50.8709C28.1436 59.9184 14.7586 62.4805 3.05753 57.3977C2.47275 57.1438 1.79202 57.2744 1.34144 57.7279C0.890864 58.1814 0.761519 58.8656 1.01474 59.4533C2.71504 63.3954 5.124 66.9463 8.17482 70.0071C14.7459 76.6017 23.4593 79.997 32.2304 79.997C38.8585 79.997 45.5201 78.0574 51.3126 74.0933C52.0225 73.6074 52.2059 72.6358 51.7231 71.9223C51.2398 71.2089 50.273 71.0245 49.5631 71.5104C37.3362 79.8767 20.8536 78.3149 10.3719 67.7959C8.51913 65.9368 6.92693 63.8806 5.61405 61.6523C10.7234 63.183 16.1231 63.4851 21.439 62.5153C28.2487 61.2727 34.4444 58.0111 39.3559 53.0821C44.2685 48.1525 47.5197 41.9344 48.7579 35.1C49.7241 29.7651 49.4235 24.3466 47.8981 19.2192C50.1206 20.5369 52.1719 22.1353 54.0264 23.9962C64.8816 34.89 66.0797 52.3424 56.8131 64.5923C56.2933 65.2789 56.4263 66.2597 57.1094 66.7815C57.7932 67.304 58.7684 67.1703 59.2876 66.4837C64.2082 59.9794 66.6293 51.8864 66.1046 43.6964Z" fill="#F84A51"/>
<path d="M1.74537 16.651L10.3707 20.9917L14.6962 29.6473C14.9597 30.1747 15.4971 30.5079 16.085 30.5079C16.6734 30.5079 17.2102 30.1753 17.4743 29.6473L21.7998 20.9917L30.4252 16.651C30.9516 16.3861 31.2838 15.8454 31.2838 15.254C31.2838 14.6625 30.9516 14.1218 30.4252 13.8569L21.8004 9.51625L17.4743 0.861174C17.2102 0.33324 16.6728 0 16.085 0C15.4978 0 14.9597 0.33324 14.6962 0.861174L10.3707 9.51625L1.74537 13.8569C1.21888 14.1218 0.886719 14.6625 0.886719 15.254C0.886719 15.846 1.21888 16.3861 1.74537 16.651ZM12.2241 12.0778C12.5234 11.9271 12.767 11.6829 12.9175 11.382L16.085 5.04315L19.2536 11.382C19.4036 11.6829 19.6471 11.9271 19.9465 12.0778L26.2576 15.254L19.9465 18.4301C19.6471 18.5809 19.4036 18.825 19.253 19.1259L16.085 25.4654L12.9169 19.1259C12.767 18.825 12.5234 18.5809 12.2241 18.4301L5.91292 15.254L12.2241 12.0778Z" fill="#F84A51"/>
<path d="M29.7292 28.9355C29.1413 28.9355 28.6039 29.2688 28.3398 29.7967L26.1798 34.1197L21.8713 36.2882C21.3455 36.5531 21.0127 37.0938 21.0127 37.6852C21.0127 38.2766 21.3455 38.8174 21.8713 39.0823L26.1798 41.2502L28.3398 45.5731C28.6039 46.1011 29.1413 46.4343 29.7292 46.4343C30.317 46.4343 30.8544 46.1011 31.1185 45.5731L33.2791 41.2502L37.5876 39.0823C38.1135 38.8174 38.4456 38.2766 38.4456 37.6852C38.4456 37.0938 38.1135 36.5531 37.5876 36.2882L33.2791 34.1197L31.1185 29.7967C30.8544 29.2688 30.317 28.9355 29.7292 28.9355ZM33.4194 37.6852L31.4252 38.6886C31.1258 38.8394 30.8829 39.0835 30.7323 39.3844L29.7292 41.3911L28.7266 39.3844C28.576 39.0835 28.3325 38.8394 28.0331 38.6886L26.0395 37.6852L28.0331 36.6818C28.3331 36.5311 28.576 36.287 28.7266 35.9861L29.7292 33.9793L30.7323 35.9861C30.8829 36.287 31.1258 36.5311 31.4252 36.6818L33.4194 37.6852Z" fill="#F84A51"/>
<path d="M1.74537 48.0104L5.40162 49.8505L7.23551 53.5198C7.49906 54.0478 8.03648 54.3804 8.62429 54.3804C9.21211 54.3804 9.74953 54.0472 10.0137 53.5192L11.847 49.8505L15.5038 48.0104C16.0303 47.7455 16.3625 47.2048 16.3625 46.6134C16.3625 46.022 16.0297 45.4812 15.5038 45.2163L11.8476 43.3762L10.0137 39.7069C9.75013 39.1789 9.21211 38.8457 8.62429 38.8457C8.03648 38.8457 7.49906 39.1789 7.23551 39.7069L5.40162 43.3762L1.74537 45.2163C1.21888 45.4812 0.886719 46.022 0.886719 46.6134C0.886719 47.2048 1.21888 47.7455 1.74537 48.0104ZM7.25555 45.9377C7.55493 45.787 7.79783 45.5435 7.94842 45.2426L8.6249 43.8895L9.30077 45.2426C9.45137 45.5435 9.69427 45.787 9.99425 45.9377L11.3363 46.6134L9.99364 47.289C9.69427 47.4397 9.45137 47.6839 9.30077 47.9848L8.6249 49.3379L7.94842 47.9848C7.79783 47.6839 7.55493 47.4397 7.25555 47.289L5.91292 46.6134L7.25555 45.9377Z" fill="#F84A51"/>
<path d="M5.00285 6.32486C5.30648 6.63185 5.70544 6.78566 6.10501 6.78566C6.50155 6.78566 6.89808 6.63368 7.2011 6.33035C7.80956 5.72185 7.8126 4.73251 7.20656 4.12096L7.17741 4.09166C6.57199 3.4795 5.58764 3.47706 4.97917 4.08556C4.37071 4.69406 4.36767 5.6834 4.97371 6.29495L5.00285 6.32486Z" fill="#F84A51"/>
<path d="M5.00384 24.1819L4.97469 24.2118C4.36865 24.8227 4.36987 25.8121 4.97773 26.4212C5.28074 26.7251 5.67788 26.8777 6.07563 26.8777C6.47399 26.8777 6.87234 26.7245 7.17597 26.4181L7.20512 26.3888C7.81176 25.7779 7.81054 24.7886 7.20269 24.1794C6.59483 23.5703 5.60987 23.5709 5.00384 24.1819Z" fill="#F84A51"/>
<path d="M26.0955 26.8777C26.4938 26.8777 26.8922 26.7245 27.1958 26.4181C27.8024 25.8078 27.8012 24.8185 27.1934 24.2087L27.1636 24.1794C26.5558 23.5703 25.5714 23.5709 24.9654 24.1819C24.3587 24.7928 24.36 25.7822 24.9684 26.3913L24.9976 26.4212C25.3012 26.7251 25.6983 26.8777 26.0955 26.8777Z" fill="#F84A51"/>
<path d="M26.0653 6.78565C26.463 6.78565 26.8608 6.63246 27.1644 6.3279L27.1942 6.298C27.8008 5.68767 27.8008 4.69894 27.1942 4.08861C26.5869 3.47828 25.6032 3.47828 24.9953 4.08861L24.9662 4.11851C24.3589 4.72823 24.3589 5.71757 24.9662 6.3279C25.2698 6.63307 25.6676 6.78565 26.0653 6.78565Z" fill="#F84A51"/>
</svg>
