<svg width="61" height="80" viewBox="0 0 61 80" fill="none" xmlns="http://www.w3.org/2000/svg">
<path d="M60.2663 47.6234L60.2096 46.8406C59.2978 34.9107 53.771 27.4321 48.8953 20.8356C44.3806 14.7274 40.4813 9.4526 40.4813 1.6696C40.4813 1.04463 40.1331 0.473397 39.5809 0.186845C39.027 -0.101269 38.3615 -0.0540832 37.858 0.313872C30.5354 5.58055 24.4256 14.4573 22.2914 22.9269C20.8097 28.8236 20.6137 35.4526 20.5862 39.8307C13.8239 38.3789 12.292 28.2116 12.2758 28.101C12.1997 27.5737 11.8791 27.1146 11.4127 26.864C10.9416 26.6167 10.3877 26.5987 9.90994 26.8363C9.55535 27.0088 1.20597 31.273 0.720169 48.3004C0.686124 48.8668 0.68457 49.4332 0.68457 50.0011C0.68457 66.5419 14.0748 80 30.5321 80C46.9894 80 60.3796 66.5419 60.3796 50.0011C60.3796 49.1711 60.323 48.3965 60.2663 47.6234ZM30.5321 76.6668C25.0458 76.6668 20.5829 71.8884 20.5829 66.0146C20.5829 65.8144 20.5814 65.6126 20.5958 65.3652C20.6622 62.8881 21.1303 61.1971 21.6436 60.0725C22.6056 62.1493 24.3268 64.0582 27.1186 64.0582C28.0352 64.0582 28.7768 63.3128 28.7768 62.3916C28.7768 60.0186 28.8255 57.2812 29.4133 54.8105C29.9364 52.6182 31.1864 50.2891 32.7702 48.4207C33.4746 50.8458 34.8479 52.8085 36.1887 54.7242C38.1076 57.465 40.0912 60.2985 40.4395 65.1307C40.4604 65.4171 40.4816 65.7052 40.4816 66.0144C40.4813 71.8884 36.0185 76.6668 30.5321 76.6668ZM41.0117 74.4893C42.7329 72.1301 43.7978 69.214 43.7978 66.0146C43.7978 65.6224 43.7735 65.2577 43.7249 64.5759C43.3314 59.135 40.9784 55.7725 38.9009 52.8055C37.131 50.2795 35.604 48.0971 35.604 45.0014C35.604 44.3683 35.2477 43.7906 34.6842 43.509C34.1239 43.2257 33.4471 43.2893 32.9466 43.6718C29.7663 46.087 27.1138 50.1527 26.1876 54.0344C25.7147 56.0249 25.5496 58.1782 25.4913 59.9489C24.3415 58.7055 23.9852 56.4009 23.9821 56.3699C23.9077 55.8345 23.5806 55.3673 23.1029 55.1184C22.6284 54.8711 22.0601 54.8645 21.5823 55.1119C21.1645 55.3267 17.4935 57.4426 17.2831 65.2254C17.2684 65.4891 17.2669 65.7527 17.2669 66.0147C17.2669 69.2141 18.3318 72.1303 20.053 74.4894C10.6224 70.3966 4.00138 60.9645 4.00138 50.0014C4.00138 49.5017 3.99982 49.0038 4.03371 48.4487C4.31866 38.4587 7.49913 33.5045 9.57509 31.3188C11.0227 36.5269 14.8152 43.3349 22.2415 43.3349C23.158 43.3349 23.8997 42.5895 23.8997 41.6683C23.8997 36.0907 24.0244 29.6456 25.5078 23.7441C27.1918 17.0581 31.8053 9.83837 37.3742 4.95089C38.2988 12.0894 42.1674 17.3236 46.2336 22.8229C51.0674 29.3623 56.0646 36.1247 56.9018 47.075L56.9585 47.8724C57.0103 48.5658 57.0638 49.2575 57.0638 50.0013C57.0633 60.9643 50.4423 70.3964 41.0117 74.4893Z" fill="#F84A51"/>
</svg>
