<svg width="73" height="80" viewBox="0 0 73 80" fill="none" xmlns="http://www.w3.org/2000/svg">
<path d="M72.8322 71.483C72.8099 70.6355 72.1196 69.9621 71.2787 69.9621C71.2719 69.9621 71.265 69.9621 71.2583 69.9623C70.8728 69.9673 70.4863 69.9745 70.1003 69.9823C70.101 69.8984 70.1017 69.8134 70.1033 69.7248C70.1709 65.8823 68.6159 62.7222 65.4816 60.3323C62.8856 58.3529 59.5379 57.1181 56.5842 56.0286C54.0009 55.0756 51.5498 54.1716 50.2562 53.0163L46.27 29.8575L69.1415 2.56912C69.5311 2.1043 69.6172 1.45463 69.3621 0.90356C69.1071 0.352331 68.5571 0 67.9526 0H38.9989C38.5055 0 38.0415 0.235304 37.7484 0.634352L32.5483 7.7119C32.547 7.71362 32.5456 7.7155 32.5444 7.71722L24.8773 18.1523C24.5641 17.4183 24.3077 16.6799 24.1143 15.9468C23.9683 15.3932 23.5328 14.9641 22.979 14.8288C22.425 14.6935 21.8422 14.8735 21.4598 15.2979L5.13751 33.4005L0.463259 38.0306C0.166649 38.3244 -0.000155347 38.7256 1.08562e-07 39.1442C0.00031102 39.5628 0.167582 39.9638 0.464502 40.2573L19.6984 59.2691H12.8114C11.953 59.2691 11.2569 59.9686 11.2569 60.8315C11.2569 61.6944 11.953 62.394 12.8114 62.394H22.8598L27.6856 67.1641H20.4236C19.5652 67.1641 18.8691 67.8636 18.8691 68.7265C18.8691 69.5895 19.5652 70.289 20.4236 70.289H30.8471L33.5946 73.0048C33.6327 73.0425 33.6727 73.0781 33.7145 73.1115C41.3154 79.214 50.6869 79.9966 58.0021 79.9967H58.0035C61.6213 79.9967 65.2427 79.7757 68.7445 79.5618C69.6819 79.5046 70.612 79.4479 71.5326 79.3958C72.3719 79.3485 73.0217 78.639 72.9994 77.7943L72.8322 71.483ZM39.7835 3.12489H64.6104L52.4423 17.6428C49.504 15.8888 46.0633 13.9206 42.7222 12.0094C40.3242 10.6376 38.0326 9.32669 36.0712 8.17751L39.7835 3.12489ZM34.2134 10.7059C36.2525 11.9041 38.6597 13.2811 41.1843 14.7252C44.3461 16.5339 47.5962 18.3934 50.4115 20.0658L43.885 27.8526C43.6631 27.8552 43.4398 27.8573 43.2191 27.8601C38.202 27.9246 33.8687 27.9804 30.4745 25.4484C29.0239 24.3664 27.648 22.8693 26.5203 21.1764L34.2134 10.7059ZM22.0034 19.3484C22.1615 19.7205 22.3317 20.0911 22.5141 20.4592C22.7236 20.8819 22.95 21.2991 23.1884 21.7101C23.2456 21.8525 23.3241 21.9867 23.4233 22.1089C24.8313 24.4246 26.6653 26.499 28.6215 27.9579C32.8586 31.1187 37.9107 31.0537 43.2589 30.9848C43.2753 30.9846 43.2921 30.9845 43.3086 30.9842L44.5457 38.1719H37.4381C36.5797 38.1719 35.8836 38.8714 35.8836 39.7343C35.8836 40.5973 36.5795 41.2968 37.4381 41.2968H45.0838L45.6992 44.8726H39.8572C38.9988 44.8726 38.3026 45.5721 38.3026 46.435C38.3026 47.2979 38.9988 47.9975 39.8572 47.9975H46.2371L47.2774 54.0416C47.3281 54.3361 47.4618 54.6097 47.6625 54.8302C49.3576 56.6917 52.3476 57.7944 55.513 58.962C61.2134 61.0646 67.1078 63.2389 66.9948 69.6695C66.9923 69.809 66.9914 69.9399 66.9909 70.0663C66.6865 70.0759 66.3818 70.0855 66.0807 70.0952C63.9592 70.1634 61.7653 70.2341 59.6553 70.2341C50.5034 70.2341 43.1146 68.9068 36.8011 62.4294C36.7939 62.4221 36.7868 62.4149 36.7796 62.4079L8.41498 34.419L22.0034 19.3484ZM68.5557 76.443C65.1 76.6539 61.527 76.8722 58.0032 76.8722H58.002C51.2142 76.872 42.5534 76.1714 35.7165 70.7197L3.77027 39.1423L6.26223 36.674L34.5908 64.6273C42.0776 72.3008 51.0615 73.359 59.655 73.359C61.8149 73.359 64.0338 73.2876 66.1799 73.2186C67.3567 73.1807 68.5616 73.142 69.7652 73.1146L69.8512 76.3644C69.421 76.3902 68.9892 76.4164 68.5557 76.443Z" fill="#F84A51"/>
<path d="M7.98864 59.269H7.90905C7.05062 59.269 6.35449 59.9685 6.35449 60.8315C6.35449 61.6944 7.05062 62.3939 7.90905 62.3939H7.98864C8.84707 62.3939 9.5432 61.6944 9.5432 60.8315C9.5432 59.9685 8.84723 59.269 7.98864 59.269Z" fill="#F84A51"/>
<path d="M15.7676 67.1641H15.6879C14.8294 67.1641 14.1333 67.8636 14.1333 68.7265C14.1333 69.5894 14.8294 70.2889 15.6879 70.2889H15.7676C16.6262 70.2889 17.3222 69.5894 17.3222 68.7265C17.3222 67.8636 16.6262 67.1641 15.7676 67.1641Z" fill="#F84A51"/>
</svg>
