<svg width="60" height="65" viewBox="0 0 60 65" fill="none" xmlns="http://www.w3.org/2000/svg">
<path d="M59.3569 57.444C59.339 56.763 58.7825 56.2218 58.1048 56.2218C58.0993 56.2218 58.0938 56.2218 58.0884 56.222C57.7777 56.226 57.4662 56.2318 57.1551 56.238C57.1556 56.1706 57.1563 56.1023 57.1575 56.0311C57.212 52.9433 55.9587 50.4038 53.4326 48.4833C51.3404 46.8926 48.6422 45.9003 46.2617 45.0248C44.1796 44.259 42.2041 43.5325 41.1616 42.6041L37.9488 23.9936L56.3823 2.06456C56.6963 1.69102 56.7657 1.16895 56.5601 0.726105C56.3546 0.283134 55.9114 0 55.4241 0H32.0886C31.6909 0 31.3169 0.189091 31.0807 0.509768L26.8896 6.19732C26.8886 6.1987 26.8875 6.20021 26.8865 6.20159L20.7071 14.5873C20.4546 13.9974 20.248 13.404 20.0922 12.8149C19.9745 12.37 19.6235 12.0252 19.1772 11.9165C18.7306 11.8078 18.2609 11.9524 17.9527 12.2934L4.79761 26.8408L1.03035 30.5616C0.791295 30.7976 0.656857 31.1201 0.656983 31.4564C0.657233 31.7928 0.792047 32.1151 1.03135 32.3509L16.5332 47.6289H10.9825C10.2906 47.6289 9.72958 48.191 9.72958 48.8845C9.72958 49.5779 10.2906 50.14 10.9825 50.14H19.0811L22.9705 53.9733H17.1176C16.4258 53.9733 15.8647 54.5355 15.8647 55.2289C15.8647 55.9224 16.4258 56.4845 17.1176 56.4845H25.5186L27.733 58.667C27.7636 58.6972 27.7958 58.7259 27.8295 58.7527C33.9555 63.6567 41.5086 64.2856 47.4044 64.2857H47.4056C50.3214 64.2857 53.24 64.108 56.0623 63.9362C56.8178 63.8902 57.5675 63.8446 58.3094 63.8028C58.9859 63.7648 59.5096 63.1946 59.4917 62.5158L59.3569 57.444ZM32.7209 2.51117H52.7305L42.9234 14.1778C40.5553 12.7683 37.7822 11.1866 35.0894 9.6508C33.1567 8.5484 31.3098 7.49497 29.729 6.57148L32.7209 2.51117ZM28.2316 8.60327C29.8751 9.56618 31.8152 10.6727 33.8499 11.8333C36.3982 13.2867 39.0177 14.781 41.2867 16.125L36.0266 22.3824C35.8477 22.3846 35.6678 22.3862 35.4899 22.3885C31.4463 22.4403 27.9538 22.4851 25.2182 20.4505C24.0491 19.581 22.9402 18.3779 22.0313 17.0174L28.2316 8.60327ZM18.3909 15.5484C18.5183 15.8475 18.6555 16.1453 18.8024 16.4411C18.9713 16.7808 19.1537 17.116 19.3459 17.4464C19.3921 17.5607 19.4553 17.6686 19.5353 17.7668C20.67 19.6277 22.1482 21.2947 23.7248 22.4671C27.1397 25.0071 31.2115 24.9549 35.5219 24.8995C35.5352 24.8994 35.5488 24.8993 35.562 24.899L36.5591 30.6751H30.8307C30.1388 30.6751 29.5777 31.2372 29.5777 31.9307C29.5777 32.6241 30.1387 33.1862 30.8307 33.1862H36.9927L37.4888 36.0598H32.7803C32.0885 36.0598 31.5274 36.6219 31.5274 37.3154C31.5274 38.0088 32.0885 38.571 32.7803 38.571H37.9223L38.7607 43.4281C38.8016 43.6647 38.9093 43.8846 39.0711 44.0618C40.4372 45.5577 42.8471 46.4438 45.3983 47.3821C49.9926 49.0718 54.7433 50.8191 54.6522 55.9867C54.6502 56.0988 54.6494 56.204 54.649 56.3056C54.4037 56.3133 54.1582 56.321 53.9155 56.3288C52.2056 56.3836 50.4374 56.4404 48.7368 56.4404C41.3608 56.4404 35.4057 55.3738 30.3172 50.1685C30.3114 50.1626 30.3057 50.1569 30.2999 50.1512L7.43913 27.6593L18.3909 15.5484ZM55.9102 61.4299C53.125 61.5994 50.2453 61.7748 47.4053 61.7748H47.4043C41.9336 61.7747 34.9534 61.2117 29.4431 56.8307L3.69567 31.4549L5.70409 29.4713L28.5358 51.9348C34.5699 58.1012 41.8106 58.9516 48.7365 58.9516C50.4773 58.9516 52.2658 58.8942 53.9954 58.8387C54.9439 58.8083 55.915 58.7772 56.885 58.7552L56.9543 61.3667C56.6076 61.3874 56.2595 61.4085 55.9102 61.4299Z" fill="#F84A51"/>
</svg>
