<svg width="65" height="65" viewBox="0 0 65 65" fill="none" xmlns="http://www.w3.org/2000/svg">
<g clip-path="url(#clip0)">
<path d="M47.5093 18.9226C49.3574 19.7649 50.8384 21.2496 51.6789 23.1016C51.8313 23.4584 52.1649 23.7048 52.5507 23.7456C52.9365 23.7859 53.3134 23.6137 53.5363 23.2962C53.7593 22.9781 53.7932 22.5643 53.6251 22.2143C52.5711 19.8894 50.7115 18.0264 48.3916 16.9707C48.0418 16.7985 47.6263 16.8305 47.3068 17.0544C46.9873 17.2783 46.815 17.6586 46.8568 18.0468C46.8985 18.435 47.1475 18.7698 47.5072 18.9205L47.5093 18.9226Z" fill="#F84A51"/>
<path d="M49.2048 11.6457C48.6457 11.4783 48.0564 11.7911 47.8799 12.3483C47.7029 12.9054 48.0052 13.5018 48.558 13.6881C52.5302 14.9525 55.6421 18.071 56.9049 22.0517C57.0448 22.4969 57.4567 22.8009 57.9224 22.8014C58.0315 22.8019 58.1395 22.7846 58.2434 22.7512C58.8057 22.5722 59.1168 21.9711 58.9393 21.4077C57.4698 16.7621 53.8395 13.122 49.2048 11.6457Z" fill="#F84A51"/>
<path d="M64.1174 20.5644C62.4286 13.5945 56.9983 8.15212 50.0432 6.4592C49.469 6.31847 48.89 6.67055 48.7496 7.2455C48.6087 7.82096 48.96 8.40114 49.5342 8.54187C55.7157 10.0459 60.5425 14.883 62.0428 21.0776C62.1597 21.5568 62.5878 21.8943 63.0801 21.8953C63.1662 21.8953 63.2518 21.8849 63.3359 21.8639C63.6115 21.7959 63.8491 21.6207 63.9957 21.3769C64.1419 21.1331 64.1858 20.8407 64.1174 20.5644Z" fill="#F84A51"/>
<path d="M42.7654 33.2149V37.5005C42.7654 38.6839 43.7229 39.6433 44.9037 39.6433H49.1802C50.3611 39.6433 51.3185 38.6839 51.3185 37.5005V31.072C51.3107 24.5661 46.0501 19.2938 39.558 19.2865H34.2123C33.6219 19.2865 33.1432 18.8067 33.1432 18.215V17.1436C34.9145 17.1436 36.3506 15.7044 36.3506 13.9294C36.3506 12.1543 34.9145 10.7151 33.1432 10.7151H29.9358V8.5723C30.8431 8.56916 31.706 8.17994 32.3095 7.50088H40.6272C42.3984 7.50088 43.8346 6.06169 43.8346 4.28664C43.8346 2.51158 42.3984 1.07239 40.6272 1.07239H32.3095C31.706 0.393341 30.8431 0.00359232 29.9358 0.000976562H21.3827C20.4754 0.00359232 19.6125 0.393341 19.009 1.07239H10.6914C8.92008 1.07239 7.48395 2.51158 7.48395 4.28664C7.48395 6.06169 8.92008 7.50088 10.6914 7.50088H19.009C19.6125 8.17994 20.4754 8.56916 21.3827 8.5723V10.7151H18.1753C16.404 10.7151 14.9679 12.1543 14.9679 13.9294C14.9679 15.7044 16.404 17.1436 18.1753 17.1436V18.215C18.1753 18.8067 17.6966 19.2865 17.1062 19.2865H8.55309V18.215C8.55309 17.0317 7.59567 16.0722 6.41481 16.0722H1.06914C0.47871 16.0722 0 16.5519 0 17.1436V32.1434C0 32.7351 0.47871 33.2149 1.06914 33.2149H6.41481C7.59567 33.2149 8.55309 32.2554 8.55309 31.072V30.0006H14.8525C15.3594 30.0142 15.8444 30.2114 16.2166 30.5567C18.8957 32.7618 22.1992 34.0665 25.6593 34.2863C29.1188 34.0671 32.4218 32.7623 35.1009 30.5578C35.4736 30.212 35.9586 30.0142 36.466 30.0006H39.558C41.3293 30.0006 42.7654 31.4398 42.7654 33.2149ZM33.1432 3.21522H40.6272C41.2176 3.21522 41.6963 3.69495 41.6963 4.28664C41.6963 4.87832 41.2176 5.35805 40.6272 5.35805H33.1432V3.21522ZM18.1753 5.35805H10.6914C10.1009 5.35805 9.62222 4.87832 9.62222 4.28664C9.62222 3.69495 10.1009 3.21522 10.6914 3.21522H18.1753V5.35805ZM2.13827 31.072V18.215H6.41481V31.072H2.13827ZM20.3136 5.35805V3.21522C20.3136 2.62354 20.7923 2.14381 21.3827 2.14381H29.9358C30.5262 2.14381 31.0049 2.62354 31.0049 3.21522V5.35805C31.0049 5.94974 30.5262 6.42947 29.9358 6.42947H21.3827C20.7923 6.42947 20.3136 5.94974 20.3136 5.35805ZM27.7975 8.5723V10.7151H23.521V8.5723H27.7975ZM17.1062 13.9294C17.1062 13.3377 17.5849 12.858 18.1753 12.858H33.1432C33.7336 12.858 34.2123 13.3377 34.2123 13.9294C34.2123 14.5211 33.7336 15.0008 33.1432 15.0008H18.1753C17.5849 15.0008 17.1062 14.5211 17.1062 13.9294ZM33.6861 28.9496C31.4033 30.8178 28.5994 31.9331 25.6593 32.1434C22.7186 31.9331 19.9147 30.8172 17.6313 28.9485C16.8681 28.258 15.8804 27.8703 14.8525 27.8578H8.55309V21.4293H17.1062C18.8775 21.4293 20.3136 19.9901 20.3136 18.215V17.1436H31.0049V18.215C31.0049 19.9901 32.4411 21.4293 34.2123 21.4293H39.558C44.8698 21.435 49.1745 25.7489 49.1802 31.072V37.5005H44.9037V33.2149C44.9 30.2575 42.5091 27.8614 39.558 27.8578H36.466C35.4376 27.8703 34.4494 28.2585 33.6861 28.9496Z" fill="#F84A51"/>
<path d="M47.0421 42.4097L46.2841 43.1735C46.0095 43.4497 39.5581 50.0121 39.5581 55.7145C39.5581 61.082 42.3562 64.2858 47.0421 64.2858C51.7279 64.2858 54.526 61.082 54.526 55.7145C54.526 50.0121 48.0746 43.4497 47.8001 43.1787L47.0421 42.4097ZM47.0421 62.143C43.595 62.143 41.6964 59.8594 41.6964 55.7145C41.6964 51.9399 45.4065 47.3456 47.0421 45.5046C48.6776 47.3456 52.3877 51.9399 52.3877 55.7145C52.3877 59.8594 50.4891 62.143 47.0421 62.143Z" fill="#F84A51"/>
</g>
<defs>
<clipPath id="clip0">
<rect width="64.1489" height="64.2857" fill="white"/>
</clipPath>
</defs>
</svg>
