<svg width="65" height="57" viewBox="0 0 65 57" fill="none" xmlns="http://www.w3.org/2000/svg">
<path d="M51.6757 36.2139C52.5811 36.2139 53.3151 35.4784 53.3151 34.5711C53.3151 33.6638 52.5811 32.9282 51.6757 32.9282C50.7703 32.9282 50.0364 33.6638 50.0364 34.5711C50.0364 35.4784 50.7703 36.2139 51.6757 36.2139Z" fill="#F84A51"/>
<path d="M28.0716 13.7855L19.9573 5.65381L18.9493 6.66395L27.0636 14.7956L28.0716 13.7855Z" fill="#F84A51"/>
<path d="M26.4426 8.13972L22.8643 4.55371L21.8563 5.56385L25.4346 9.14986L26.4426 8.13972Z" fill="#F84A51"/>
<path d="M59.8724 14.7144L58.9458 15.7858C61.2267 17.8572 62.5809 20.8572 62.5809 23.9286H64.0064C64.0064 20.4286 62.5096 17.0715 59.8724 14.7144Z" fill="#F84A51"/>
<path d="M44.4054 15.7858L43.4788 14.7144C40.8415 17.0715 39.3447 20.4286 39.3447 23.9286H40.7703C40.699 20.8572 42.0532 17.8572 44.4054 15.7858Z" fill="#F84A51"/>
<path d="M57.3778 17.2856L56.4512 18.3571C58.0905 19.7856 59.0171 21.7856 59.0171 23.9285H60.4427C60.4427 21.3571 59.3022 18.9285 57.3778 17.2856Z" fill="#F84A51"/>
<path d="M46.9002 18.2858L45.9736 17.2144C43.9778 18.9286 42.8374 21.3572 42.8374 23.9286H44.2629C44.2629 21.7858 45.1895 19.7144 46.9002 18.2858Z" fill="#F84A51"/>
<path d="M46.0448 23.7141V24.2141C45.9735 26.4999 45.332 28.7856 44.1203 30.7856L42.9799 32.7141H60.4426L59.1597 30.6427C57.948 28.5713 57.3065 26.2856 57.3065 23.857V23.7856C57.3065 21.2141 55.5246 18.9999 53.1724 18.357C53.2437 18.2141 53.2437 17.9999 53.2437 17.857C53.2437 17.357 53.0299 16.9284 52.6735 16.6427V6.64272H34.7831V54.4999H21.3118V48.0713H32.5022V0.0712891H0.570312V48.0713H19.1735V56.6427H36.8501V8.78557H50.6065V16.6427C50.2501 16.9284 50.0363 17.357 50.0363 17.857C50.0363 17.9999 50.0363 18.2141 50.1075 18.357C47.7554 18.9999 46.0448 21.2141 46.0448 23.7141ZM3.42138 2.92843H29.6512V20.9284H19.5299V19.1427H13.7565V20.9284H3.42138V2.92843ZM3.42138 45.2142V23.7856H29.6512V45.2142H21.3118V40.2142C22.1671 39.857 22.7373 38.9999 22.7373 37.9999C22.7373 36.6427 21.5969 35.4999 20.2427 35.4999C18.8884 35.4999 17.748 36.6427 17.748 37.9999C17.748 38.9999 18.3182 39.7856 19.1022 40.2142V45.2856H3.42138V45.2142ZM48.5395 23.7856C48.5395 22.0713 49.965 20.6427 51.6756 20.6427H51.7469C53.4575 20.6427 54.8831 22.0713 54.8831 23.7856V23.857C54.8831 26.0713 55.3107 28.2141 56.2373 30.2141H47.1852C47.9692 28.357 48.4682 26.357 48.5395 24.357V23.7856Z" fill="#F84A51"/>
</svg>
