<svg width="65" height="70" viewBox="0 0 65 70" fill="none" xmlns="http://www.w3.org/2000/svg">
<path d="M47.116 44.2856L46.498 41.357L47.3907 41.0713C47.8028 40.9284 48.1461 40.6427 48.3521 40.2142C48.5581 39.7856 48.5581 39.357 48.4208 38.9284L46.086 32.857L46.1546 32.7856C46.5667 32.5713 46.91 32.2142 47.0474 31.7856C47.1847 31.357 47.1847 30.857 46.9787 30.4284L43.5451 23.5713C43.3391 23.1427 42.9958 22.857 42.5837 22.7142C42.1717 22.5713 41.691 22.6427 41.3476 22.857L41.1416 22.9284L40.1802 20.857C40.0429 20.5713 39.8369 20.357 39.5622 20.1427L35.6479 17.6427C35.0986 17.2856 34.3432 17.357 33.7938 17.7856L31.665 19.5713H31.5963C31.3216 19.2142 30.9783 18.9284 30.4976 18.857L25.6906 17.9999C25.4159 17.9284 25.0725 17.9999 24.7979 18.0713L17.862 20.9999C17.5187 21.1427 17.244 21.357 17.1067 21.7142L10.1022 33.857C9.96484 34.1427 9.89617 34.4284 9.89617 34.7142C9.89617 36.2142 9.8275 40.0713 9.75883 41.9284L0.831554 48.7856C0.14484 49.357 0.00749755 50.357 0.488197 51.1427C0.831554 51.5713 1.31225 51.7856 1.79295 51.7856C2.13631 51.7856 2.47967 51.6427 2.75435 51.4284L12.1623 43.9999C12.5057 43.7142 12.7117 43.2856 12.7804 42.857C12.9177 41.4284 12.9864 36.6427 12.9864 35.0713L19.5102 23.857L25.5532 21.2856L29.1928 21.9284L33.8625 29.4999L33.9311 31.357L30.7723 32.857L26.9267 29.2856C26.3086 28.7142 25.4159 28.7142 24.7979 29.2856C24.1798 29.857 24.0425 30.7856 24.5232 31.4284L25.2099 32.5713L24.7979 36.4284L22.6004 39.9999C22.1197 40.7856 22.3257 41.7856 23.0811 42.2856C23.8365 42.7856 24.7979 42.5713 25.2786 41.7856L25.9653 40.6427L26.1026 40.7856C26.3773 40.9999 26.652 41.1427 26.9953 41.1427L29.1241 45.857C29.3988 46.4284 29.9482 46.7856 30.5662 46.7856C30.7036 46.7856 30.9096 46.7856 31.0469 46.7142L31.8023 46.4284L33.1071 50.357C33.3818 51.1427 34.1372 51.6427 34.8925 51.4999L36.4033 51.2142L33.1758 54.4284L24.3858 53.857C23.9738 53.857 23.5618 53.9999 23.2184 54.2856L9.8275 66.6427C9.14079 67.2856 9.07211 68.2856 9.69016 68.9999C10.0335 69.357 10.4455 69.5713 10.9262 69.5713C11.2696 69.5713 11.6816 69.4284 11.9563 69.1427L25.0039 57.2856L33.7938 57.857C34.2058 57.857 34.6865 57.7142 35.0299 57.4284L41.897 50.5713L43.9572 49.9284C44.3005 49.857 44.5752 49.6427 44.7812 49.357L44.8499 49.2856C44.8499 49.2142 44.9186 49.2142 44.9186 49.1427L46.91 45.4999C47.116 45.1427 47.1847 44.7142 47.116 44.2856ZM43.3391 30.4284L37.1587 33.2142C37.2274 32.9999 37.296 32.7142 37.296 32.4999L37.1587 29.357L41.485 26.7856L43.3391 30.4284ZM34.9612 21.2856L37.502 22.9284L38.1201 24.357L35.4419 25.9284L33.3818 22.6427L34.9612 21.2856ZM28.1627 34.9284L29.3302 35.9999C29.5362 36.2142 29.7422 36.2856 30.0169 36.357L27.8881 37.357C27.8881 37.2856 27.8881 37.2142 27.8881 37.2142L28.1627 34.9284ZM30.4289 40.857L43.4078 34.7856L44.7812 38.4284L31.459 43.0713L30.4289 40.857ZM42.5837 46.7856L35.7853 47.9999L35.1672 46.0713L43.4765 42.4999L43.8885 44.357L42.5837 46.7856Z" fill="#F84A51"/>
<path d="M63.5285 33.9284L55.4939 29.2856L61.331 17.7142C61.6057 17.1427 61.537 16.4999 61.1937 15.9999C60.8503 15.4999 60.2323 15.2142 59.6829 15.2856L47.8714 17.0713L49.8629 2.35701C49.9316 1.64273 49.5882 0.999869 49.0388 0.642726C48.4208 0.285583 47.6654 0.42844 47.1847 0.92844L37.4334 10.4284L31.3216 1.85701C30.9096 1.28558 30.2916 1.0713 29.6735 1.21415C29.0555 1.35701 28.5748 1.92844 28.4374 2.5713L26.652 13.9999C26.5146 14.9284 27.1327 15.7856 27.9567 15.9284C28.8495 16.0713 29.6735 15.4284 29.8109 14.5713L30.9783 7.0713L35.9226 13.9999C36.1973 14.357 36.6093 14.6427 37.09 14.6427C37.5707 14.7142 37.9827 14.4999 38.3261 14.2142L46.0173 6.5713L44.3692 18.7856C44.3005 19.2856 44.4379 19.857 44.8499 20.2142C45.1932 20.5713 45.7426 20.7856 46.2233 20.7142L57.0047 19.0713L51.923 29.1427C51.511 29.9284 51.7857 30.9284 52.5411 31.357L59.6142 35.4284L51.7857 40.4284C51.1676 40.857 50.893 41.6427 51.099 42.4284L54.1892 51.4284L47.3907 49.7856C46.498 49.5713 45.6739 50.1427 45.4679 50.9999C45.2619 51.9284 45.8113 52.7856 46.6353 52.9999L56.318 55.4284C56.4553 55.4284 56.5927 55.4999 56.6614 55.4999C57.1421 55.4999 57.5541 55.2856 57.8288 54.9284C58.2408 54.4999 58.3095 53.857 58.1721 53.2142L54.5325 42.6427L63.5972 36.857C64.0779 36.5713 64.3525 35.9999 64.3525 35.4284C64.3525 34.7856 64.0779 34.2142 63.5285 33.9284Z" fill="#F84A51"/>
</svg>
