<svg width="65" height="65" viewBox="0 0 65 65" fill="none" xmlns="http://www.w3.org/2000/svg">
<path d="M63.0798 45H50.25V38.5714H63.0798C63.7213 38.5714 64.1489 38.1429 64.1489 37.5C64.1489 36.8572 63.7213 36.4287 63.0798 36.4287H50.25V33.2144C50.25 32.5715 49.8224 32.143 49.1809 32.143H39.4516V26.8394C44.5392 24.7736 48.1117 19.7836 48.1117 13.9285C48.1117 6.21424 41.9107 0 34.2128 0C26.5149 0 20.3138 6.21424 20.3138 13.9285C20.3138 19.7425 23.8363 24.7038 28.867 26.7956V32.1429H19.2447C18.6032 32.1429 18.1756 32.5714 18.1756 33.2142V36.4587C8.08327 37.0127 0 45.3558 0 55.5V63.2143C0 63.8572 0.427618 64.2857 1.06911 64.2857C1.7106 64.2857 2.13821 63.8572 2.13821 63.2143V55.5C2.13821 46.5 9.30147 39.1072 18.1754 38.5714V44.7857C12.8297 45.4285 8.55311 49.9285 8.55311 55.4999V63.2142C8.55311 63.8571 8.98073 64.2856 9.62222 64.2856C10.2637 64.2856 10.6913 63.8571 10.6913 63.2142V55.4999C10.6913 51.1486 13.9712 47.5301 18.1753 46.9984V50.3571C18.1753 50.9999 18.6029 51.4284 19.2444 51.4284H49.1806C49.822 51.4284 50.2497 50.9999 50.2497 50.3571V47.1428H63.0794C63.7209 47.1428 64.1486 46.7142 64.1486 46.0714C64.1486 45.4285 63.7213 45 63.0798 45ZM37.2963 25.2984C37.2343 25.3149 37.1726 25.3331 37.1104 25.3485C37.0983 25.3517 37.0858 25.3544 37.0737 25.3576C36.1164 25.5935 35.1482 25.7123 34.1799 25.7139C34.1433 25.7138 34.1068 25.7129 34.0704 25.7125C33.9953 25.712 33.9201 25.7099 33.8451 25.7079C31.9012 25.6469 30.0647 25.1046 28.4564 24.1933C29.8467 22.3859 31.9765 21.4286 34.2127 21.4286C36.449 21.4286 38.5787 22.3859 39.9689 24.1933C39.1341 24.6664 38.2375 25.0399 37.2963 25.2984ZM22.4521 13.9285C22.4521 7.39286 27.7979 2.14277 34.2128 2.14277C40.7346 2.14277 45.9735 7.39273 45.9735 13.9285C45.9735 17.5534 44.3285 20.7821 41.7693 22.9397C39.9302 20.6278 37.2391 19.2857 34.2128 19.2857C31.2985 19.2857 28.55 20.6115 26.6932 22.9708C24.1129 20.8134 22.4521 17.571 22.4521 13.9285ZM31.0054 27.4872C31.0765 27.504 31.1483 27.5191 31.2199 27.5347C31.299 27.5521 31.3782 27.5692 31.4578 27.5851C31.536 27.6008 31.6143 27.6157 31.6928 27.63C31.764 27.643 31.8355 27.6549 31.9071 27.6668C32.0233 27.6862 32.1401 27.704 32.2573 27.7205C32.3395 27.732 32.4216 27.7432 32.5042 27.7532C32.574 27.7618 32.644 27.7697 32.7141 27.7771C32.8251 27.7889 32.9366 27.7993 33.0485 27.8086C33.1035 27.8131 33.1586 27.8175 33.2137 27.8214C33.343 27.8306 33.4728 27.8377 33.6031 27.8432C33.6491 27.8453 33.6951 27.847 33.7411 27.8485C33.8977 27.8537 34.0547 27.8573 34.2126 27.8573C34.3709 27.8573 34.5284 27.8537 34.6854 27.8485C34.73 27.847 34.7746 27.8454 34.8191 27.8435C34.9595 27.8375 35.0995 27.8299 35.2388 27.8198C35.2699 27.8175 35.301 27.8151 35.332 27.8127C35.4698 27.8018 35.6069 27.7885 35.7435 27.7736C35.7881 27.7687 35.8326 27.7636 35.877 27.7584C36.401 27.6962 36.916 27.6053 37.4201 27.4868V32.1429H31.0052V27.4872H31.0054ZM48.1117 49.2857H20.3138V45.8571V37.4999V34.2856H29.9361H38.4894H48.1117V37.4999V46.0714V49.2857Z" fill="#F84A51"/>
<path d="M42.7658 37.5H25.6594C25.018 37.5 24.5903 37.9285 24.5903 38.5714V45C24.5903 45.6428 25.018 46.0714 25.6594 46.0714H42.7658C43.4073 46.0714 43.8349 45.6428 43.8349 45V38.5714C43.835 37.9285 43.4073 37.5 42.7658 37.5ZM41.6967 43.9286H26.7285V39.6429H41.6967V43.9286Z" fill="#F84A51"/>
<path d="M26.7285 13.9288C26.7285 13.3931 26.3009 12.8574 25.6594 12.8574C25.018 12.8574 24.5903 13.286 24.5903 13.9288C24.5903 14.5717 25.018 15.0002 25.6594 15.0002C26.3009 15.0003 26.7285 14.5717 26.7285 13.9288Z" fill="#F84A51"/>
<path d="M42.7659 15.0002C43.4074 15.0002 43.835 14.5717 43.835 13.9288C43.835 13.3931 43.4074 12.8574 42.7659 12.8574C42.1244 12.8574 41.6968 13.286 41.6968 13.9288C41.6968 14.5717 42.1244 15.0002 42.7659 15.0002Z" fill="#F84A51"/>
<path d="M27.7979 9.64277C28.4394 9.64277 28.867 9.21424 28.867 8.57139C28.867 8.03563 28.4394 7.5 27.7979 7.5C27.1564 7.5 26.7288 7.92853 26.7288 8.57139C26.7288 9.21424 27.1564 9.64277 27.7979 9.64277Z" fill="#F84A51"/>
<path d="M34.2129 6.42842C34.8544 6.42842 35.282 5.99989 35.282 5.35703C35.282 4.82128 34.8544 4.28564 34.2129 4.28564C33.5714 4.28564 33.1438 4.71417 33.1438 5.35703C33.1438 5.99989 33.5714 6.42842 34.2129 6.42842Z" fill="#F84A51"/>
<path d="M40.6277 9.64277C41.2692 9.64277 41.6968 9.21424 41.6968 8.57139C41.6968 8.03563 41.2692 7.5 40.6277 7.5C39.9862 7.5 39.5586 7.92853 39.5586 8.57139C39.5586 9.21424 39.9862 9.64277 40.6277 9.64277Z" fill="#F84A51"/>
<path d="M33.3574 16.7143C33.5713 17.0358 34.3197 17.0358 34.7473 16.8214C35.1749 16.5 35.2819 15.7501 34.8542 15.3214L31.326 11.0357C31.0052 10.6072 30.2569 10.5 29.8291 10.9286C29.4015 11.2501 29.2945 12 29.7222 12.4287L33.3574 16.7143Z" fill="#F84A51"/>
</svg>
