<svg width="49" height="65" viewBox="0 0 49 65" fill="none" xmlns="http://www.w3.org/2000/svg">
<path d="M48.0381 38.2688L47.9924 37.6398C47.2576 28.0533 42.8034 22.0436 38.8739 16.7429C35.2354 11.8345 32.0928 7.59584 32.0928 1.34165C32.0928 0.839432 31.8122 0.380409 31.3672 0.150144C30.9208 -0.0813768 30.3844 -0.0434597 29.9786 0.252219C24.0771 4.48437 19.1531 11.6174 17.4331 18.4234C16.239 23.1618 16.081 28.4887 16.0588 32.0068C10.6088 30.8402 9.37428 22.67 9.36125 22.5811C9.29986 22.1574 9.04152 21.7885 8.66566 21.5871C8.28592 21.3884 7.83952 21.3739 7.45452 21.5649C7.16874 21.7035 0.439741 25.1301 0.0482213 38.8128C0.0207836 39.2679 0.0195312 39.7231 0.0195312 40.1795C0.0195312 53.4712 10.8111 64.2857 24.0745 64.2857C37.3379 64.2857 48.1294 53.4712 48.1294 40.1795C48.1294 39.5125 48.0838 38.89 48.0381 38.2688ZM24.0745 61.6073C19.6529 61.6073 16.0562 57.7675 16.0562 53.0474C16.0562 52.8866 16.0549 52.7244 16.0666 52.5256C16.1201 50.5351 16.4973 49.1762 16.911 48.2725C17.6863 49.9413 19.0734 51.4754 21.3235 51.4754C22.0621 51.4754 22.6599 50.8763 22.6599 50.1361C22.6599 48.2292 22.6991 46.0295 23.1728 44.0441C23.5944 42.2825 24.6018 40.4108 25.8782 38.9095C26.4459 40.8582 27.5527 42.4354 28.6333 43.9748C30.1798 46.1773 31.7785 48.4542 32.0591 52.3372C32.076 52.5673 32.0931 52.7988 32.0931 53.0473C32.0928 57.7675 28.4961 61.6073 24.0745 61.6073ZM32.5203 59.8574C33.9075 57.9617 34.7657 55.6184 34.7657 53.0474C34.7657 52.7323 34.7461 52.4392 34.7069 51.8913C34.3898 47.5192 32.4935 44.8171 30.8191 42.433C29.3928 40.4032 28.1621 38.6495 28.1621 36.1619C28.1621 35.6531 27.8749 35.1888 27.4208 34.9626C26.9692 34.735 26.4237 34.7861 26.0204 35.0934C23.4573 37.0342 21.3196 40.3012 20.5731 43.4205C20.192 45.02 20.0589 46.7503 20.012 48.1732C19.0853 47.174 18.7982 45.3221 18.7957 45.2973C18.7357 44.867 18.4721 44.4916 18.0871 44.2916C17.7047 44.0928 17.2466 44.0876 16.8616 44.2863C16.5249 44.4589 13.5664 46.1592 13.3967 52.4132C13.3849 52.6252 13.3837 52.837 13.3837 53.0475C13.3837 55.6185 14.2419 57.9618 15.6291 59.8576C8.0287 56.5687 2.69264 48.9893 2.69264 40.1797C2.69264 39.7782 2.69139 39.378 2.7187 38.932C2.94835 30.9043 5.51158 26.9233 7.18465 25.1669C8.35132 29.352 11.4078 34.8227 17.3928 34.8227C18.1315 34.8227 18.7293 34.2237 18.7293 33.4834C18.7293 29.0014 18.8298 23.8224 20.0252 19.0801C21.3825 13.7074 25.1006 7.90583 29.5887 3.97839C30.3339 9.71467 33.4517 13.9207 36.7288 18.3398C40.6244 23.5947 44.6519 29.0288 45.3265 37.8281L45.3723 38.4689C45.414 39.0261 45.4571 39.5819 45.4571 40.1796C45.4567 48.9892 40.1206 56.5686 32.5203 59.8574Z" fill="#F84A51"/>
</svg>
