<svg width="176" height="176" viewBox="0 0 176 176" fill="none" xmlns="http://www.w3.org/2000/svg">
<g opacity="0.2" clip-path="url(#clip0)">
<path d="M58.6668 0C34.3663 0 14.6667 19.6995 14.6667 44V76.2667C14.6796 87.6014 23.8653 96.7872 35.2001 96.8H38.1334V90.9333H35.2001C27.1041 90.9238 20.5429 84.3627 20.5334 76.2667V44C20.5334 22.9394 37.6062 5.86667 58.6668 5.86667C79.7274 5.86667 96.8001 22.9394 96.8001 44V76.2667C96.7906 84.3627 90.2294 90.9238 82.1334 90.9333H79.2001V96.8H82.1334C93.4682 96.7872 102.654 87.6014 102.667 76.2667V44C102.667 19.6995 82.9672 0 58.6668 0Z" fill="white"/>
<path d="M24.1737 138.245L26.3179 134.869L21.3635 131.725L19.2193 135.104C12.734 145.324 13.2155 158.482 20.4307 168.201V176H26.2974V167.2C26.2978 166.534 26.0712 165.887 25.655 165.367C19.4188 157.571 18.8236 146.674 24.1737 138.245Z" fill="white"/>
<path d="M161.333 0H123.2C115.104 0.00953333 108.543 6.57067 108.533 14.6667V44C108.543 52.096 115.104 58.6571 123.2 58.6667H129.067V70.4C129.066 71.5862 129.781 72.6561 130.877 73.1104C131.233 73.2589 131.614 73.3344 132 73.3333C132.778 73.3333 133.524 73.0239 134.074 72.4739L147.881 58.6667H161.333C169.429 58.6571 175.991 52.096 176 44V14.6667C175.991 6.57067 169.429 0.00953333 161.333 0ZM170.133 44C170.133 48.8602 166.194 52.8 161.333 52.8H146.667C145.889 52.8 145.143 53.1095 144.593 53.6595L134.933 63.3189V55.7333C134.933 54.1134 133.62 52.8 132 52.8H123.2C118.34 52.8 114.4 48.8602 114.4 44V14.6667C114.4 9.8065 118.34 5.86667 123.2 5.86667H161.333C166.194 5.86667 170.133 9.8065 170.133 14.6667V44Z" fill="white"/>
<path d="M143.733 14.667H123.2V20.5337H143.733V14.667Z" fill="white"/>
<path d="M161.333 14.667H149.6V20.5337H161.333V14.667Z" fill="white"/>
<path d="M161.333 26.4004H123.2V32.2671H161.333V26.4004Z" fill="white"/>
<path d="M143.733 38.1338H123.2V44.0005H143.733V38.1338Z" fill="white"/>
<path d="M98.1141 135.104L95.9698 131.725L91.0154 134.869L93.1597 138.248C98.5101 146.676 97.9149 157.572 91.6783 165.367C91.2621 165.887 91.0355 166.534 91.0359 167.2V176H96.9026V168.201C104.118 158.482 104.599 145.324 98.1141 135.104Z" fill="white"/>
<path d="M173.067 99.7332H146.667C135.661 99.7461 126.622 108.434 126.174 119.431L117.333 135.347V123.2C117.32 111.865 108.135 102.679 96.8 102.667H86.0787L85.9995 102.605L85.9467 102.667H79.2C75.9598 102.667 73.3333 100.04 73.3333 96.7999V89.8978C82.397 84.6647 87.9861 74.999 88 64.5332V41.0666C87.9956 36.2064 86.7863 31.4232 84.48 27.145C83.7412 25.7839 82.0714 25.2314 80.6667 25.8837L31.0171 49.2447C29.9889 49.7287 29.333 50.7631 29.3333 51.8994V64.5332C29.3473 74.999 34.9364 84.6647 44 89.8978V96.7999C44 100.04 41.3736 102.667 38.1333 102.667H20.5333C9.19857 102.679 0.0128333 111.865 0 123.2V176H5.86667V123.2C5.8762 115.104 12.4373 108.543 20.5333 108.533H29.8672L56.2819 145.44C56.8245 146.199 57.6957 146.654 58.6285 146.667H58.6667C59.5899 146.667 60.4593 146.232 61.0133 145.493L88.88 108.533H96.8C104.896 108.543 111.457 115.104 111.467 123.2V146.667C111.468 148.286 112.783 149.599 114.403 149.597C115.467 149.596 116.447 149.019 116.964 148.089L130.791 123.2H147.608L119.008 176H125.682L154.293 123.2H155.467C166.801 123.187 175.987 114.001 176 102.667C176 101.047 174.687 99.7332 173.067 99.7332ZM35.2 64.5332V53.762L80.4936 32.4485C81.5771 35.1926 82.1333 38.1164 82.1333 41.0666V64.5332C82.1333 77.4934 71.6269 87.9999 58.6667 87.9999C45.7065 87.9999 35.2 77.4934 35.2 64.5332ZM58.7283 138.782L49.676 126.133H68.2616L58.7283 138.782ZM72.6997 120.267H45.4667L37.0685 108.533H38.1333C44.6134 108.533 49.8667 103.28 49.8667 96.7999V92.5143C55.5947 94.3172 61.7386 94.3172 67.4667 92.5143V96.7999C67.4667 103.28 72.7199 108.533 79.2 108.533H81.5467L72.6997 120.267ZM155.467 117.333H132.293C133.696 110.508 139.699 105.608 146.667 105.6H169.84C168.438 112.425 162.434 117.326 155.467 117.333Z" fill="white"/>
</g>
<defs>
<clipPath id="clip0">
<rect width="176" height="176" fill="white"/>
</clipPath>
</defs>
</svg>
