<svg width="184" height="184" viewBox="0 0 184 184" fill="none" xmlns="http://www.w3.org/2000/svg">
<g opacity="0.4" clip-path="url(#clip0)">
<path d="M171.734 36.7998C164.968 36.7998 159.467 42.3015 159.467 49.0664C159.467 55.8312 164.969 61.3329 171.734 61.3329C178.498 61.3329 184 55.8316 184 49.0664C184 42.3015 178.498 36.7998 171.734 36.7998ZM171.734 55.1998C168.351 55.1998 165.6 52.4492 165.6 49.0664C165.6 45.6839 168.351 42.9329 171.734 42.9329C175.116 42.9329 177.867 45.6836 177.867 49.0664C177.867 52.4492 175.116 55.1998 171.734 55.1998Z" fill="white"/>
<path d="M12.2665 138C5.50167 138 0 143.502 0 150.267C0 157.031 5.50167 162.533 12.2665 162.533C19.0318 162.533 24.5331 157.031 24.5331 150.267C24.5331 143.502 19.0318 138 12.2665 138ZM12.2665 156.4C8.88411 156.4 6.13309 153.649 6.13309 150.267C6.13309 146.884 8.88375 144.133 12.2665 144.133C15.649 144.133 18.4 146.884 18.4 150.267C18.4 153.649 15.6493 156.4 12.2665 156.4Z" fill="white"/>
<path d="M165.787 40.6759L139.331 27.9033C137.804 27.1641 135.973 27.8081 135.237 29.3326C134.501 30.8567 135.142 32.6906 136.666 33.4266L163.122 46.1991C163.552 46.4076 164.006 46.5057 164.453 46.5057C165.594 46.5057 166.689 45.8678 167.216 44.7699C167.952 43.2458 167.311 41.4119 165.787 40.6759Z" fill="white"/>
<path d="M138 159.466C131.235 159.466 125.733 164.967 125.733 171.732C125.733 178.497 131.235 183.999 138 183.999C144.765 183.999 150.266 178.498 150.266 171.733C150.266 164.968 144.765 159.466 138 159.466ZM138 177.866C134.618 177.866 131.866 175.115 131.866 171.732C131.866 168.35 134.618 165.599 138 165.599C141.382 165.599 144.133 168.35 144.133 171.733C144.133 175.116 141.382 177.866 138 177.866Z" fill="white"/>
<path d="M132.054 163.343L105.597 150.571C104.07 149.832 102.239 150.473 101.503 152C100.767 153.524 101.408 155.358 102.933 156.094L129.389 168.867C129.818 169.075 130.272 169.173 130.72 169.173C131.86 169.173 132.955 168.535 133.483 167.437C134.218 165.913 133.578 164.079 132.054 163.343Z" fill="white"/>
<path d="M91.9999 82.7998C85.2347 82.7998 79.7334 88.3015 79.7334 95.0664C79.7334 101.832 85.2351 107.333 91.9999 107.333C98.7652 107.333 104.266 101.831 104.266 95.0664C104.266 88.3015 98.7652 82.7998 91.9999 82.7998ZM91.9999 101.2C88.6175 101.2 85.8665 98.4492 85.8665 95.0664C85.8665 91.6839 88.6171 88.9329 91.9999 88.9329C95.3824 88.9329 98.1334 91.6836 98.1334 95.0664C98.1334 98.4492 95.3824 101.2 91.9999 101.2Z" fill="white"/>
<path d="M86.6086 87.0198L66.286 71.1803C64.9487 70.1468 63.0232 70.3768 61.9803 71.714C60.9406 73.0513 61.1767 74.9768 62.514 76.0197L82.8366 91.8591C83.398 92.2947 84.0603 92.5064 84.7198 92.5064C85.6336 92.5064 86.5353 92.1017 87.1423 91.3258C88.182 89.9882 87.9459 88.0623 86.6086 87.0198Z" fill="white"/>
<path d="M147.2 79.7334C128.601 79.7334 113.467 94.8674 113.467 113.467C113.467 132.066 128.601 147.2 147.2 147.2C165.799 147.2 180.933 132.066 180.933 113.467C180.933 94.8674 165.799 79.7334 147.2 79.7334ZM147.2 141.066C131.98 141.066 119.6 128.686 119.6 113.466C119.6 98.2466 131.98 85.8665 147.2 85.8665C162.42 85.8665 174.8 98.2466 174.8 113.466C174.8 128.686 162.42 141.066 147.2 141.066Z" fill="white"/>
<path d="M147.2 92C140.435 92 134.933 97.5017 134.933 104.267C134.933 111.032 140.435 116.533 147.2 116.533C153.965 116.533 159.466 111.031 159.466 104.267C159.466 97.5017 153.965 92 147.2 92ZM147.2 110.4C143.817 110.4 141.066 107.649 141.066 104.267C141.066 100.884 143.817 98.1331 147.2 98.1331C150.582 98.1331 153.333 100.884 153.333 104.267C153.333 107.649 150.582 110.4 147.2 110.4Z" fill="white"/>
<path d="M156.096 122.667H138.304C133.063 122.667 128.8 126.816 128.8 131.913V139.997C128.8 141.091 129.383 142.103 130.33 142.653C135.47 145.627 141.303 147.2 147.2 147.2C153.097 147.2 158.93 145.627 164.07 142.653C165.017 142.107 165.6 141.091 165.6 140V131.916C165.6 126.816 161.338 122.667 156.096 122.667ZM159.467 138.169C151.834 141.972 142.566 141.972 134.933 138.169V131.916C134.933 130.199 136.445 128.8 138.303 128.8H156.096C157.954 128.8 159.466 130.199 159.466 131.916V138.169H159.467Z" fill="white"/>
<path d="M73.5999 116.534C55.0005 116.534 39.8665 131.668 39.8665 150.268C39.8665 168.867 55.0005 184.001 73.5999 184.001C92.1993 184.001 107.333 168.867 107.333 150.267C107.333 131.668 92.1993 116.534 73.5999 116.534ZM73.5999 177.867C58.38 177.867 45.9999 165.487 45.9999 150.267C45.9999 135.047 58.38 122.667 73.5999 122.667C88.8198 122.667 101.2 135.047 101.2 150.267C101.2 165.487 88.8198 177.867 73.5999 177.867Z" fill="white"/>
<path d="M73.6 128.8C66.8348 128.8 61.3335 134.301 61.3335 141.066C61.3335 147.832 66.8352 153.333 73.6 153.333C80.3649 153.333 85.8666 147.831 85.8666 141.066C85.8666 134.301 80.3653 128.8 73.6 128.8ZM73.6 147.2C70.2176 147.2 67.4666 144.449 67.4666 141.066C67.4666 137.684 70.2172 134.933 73.6 134.933C76.9825 134.933 79.7335 137.684 79.7335 141.066C79.7335 144.449 76.9825 147.2 73.6 147.2Z" fill="white"/>
<path d="M82.4963 159.466H64.7036C59.4629 159.466 55.2 163.615 55.2 168.712V176.796C55.2 177.89 55.7825 178.902 56.7302 179.451C61.87 182.426 67.7026 183.999 73.6 183.999C79.4973 183.999 85.33 182.426 90.4697 179.451C91.4174 178.906 92 177.891 92 176.799V168.715C92 163.615 87.7374 159.466 82.4963 159.466ZM85.8665 174.968C78.2334 178.77 68.9662 178.77 61.333 174.968V168.715C61.333 166.998 62.8449 165.599 64.7033 165.599H82.4959C84.3543 165.599 85.8661 166.998 85.8661 168.715V174.968H85.8665Z" fill="white"/>
<path d="M33.7335 39.8672C15.134 39.8672 0 55.0012 0 73.6006C0 92.2001 15.134 107.334 33.7335 107.334C52.3329 107.334 67.4669 92.2001 67.4669 73.6006C67.4665 55.0012 52.3325 39.8672 33.7335 39.8672ZM33.7335 101.201C18.5136 101.201 6.13345 88.8205 6.13345 73.6006C6.13345 58.3807 18.5136 46.0006 33.7335 46.0006C48.9533 46.0006 61.3335 58.3807 61.3335 73.6006C61.3335 88.8205 48.9533 101.201 33.7335 101.201Z" fill="white"/>
<path d="M33.7336 52.1328C26.9684 52.1328 21.467 57.6345 21.467 64.3994C21.467 71.1642 26.9687 76.6659 33.7336 76.6659C40.4988 76.6659 46.0001 71.1642 46.0001 64.3994C46.0001 57.6345 40.4985 52.1328 33.7336 52.1328ZM33.7336 70.5328C30.3511 70.5328 27.6001 67.7822 27.6001 64.3994C27.6001 61.0166 30.3508 58.2659 33.7336 58.2659C37.116 58.2659 39.867 61.0166 39.867 64.3994C39.867 67.7822 37.116 70.5328 33.7336 70.5328Z" fill="white"/>
<path d="M42.6298 82.7998H24.8372C19.5964 82.7998 15.3335 86.9491 15.3335 92.0458V100.13C15.3335 101.224 15.916 102.236 16.8637 102.785C22.0035 105.76 27.8362 107.333 33.7335 107.333C39.6308 107.333 45.4635 105.76 50.6033 102.785C51.551 102.239 52.1335 101.224 52.1335 100.133V92.049C52.1335 86.9491 47.8706 82.7998 42.6298 82.7998ZM46 98.3018C38.3673 102.104 29.0997 102.104 21.4666 98.3018V92.049C21.4666 90.3316 22.9785 88.9333 24.8368 88.9333H42.6295C44.4878 88.9333 45.9997 90.3316 45.9997 92.049V98.3018H46Z" fill="white"/>
<path d="M107.333 0C88.7338 0 73.5999 15.134 73.5999 33.7335C73.5999 52.3329 88.7338 67.4669 107.333 67.4669C125.933 67.4669 141.067 52.3329 141.067 33.7335C141.066 15.134 125.932 0 107.333 0ZM107.333 61.3335C92.1134 61.3335 79.7333 48.9533 79.7333 33.7335C79.7333 18.5136 92.1134 6.13345 107.333 6.13345C122.553 6.13345 134.933 18.5136 134.933 33.7335C134.933 48.9533 122.553 61.3335 107.333 61.3335Z" fill="white"/>
<path d="M107.333 12.2666C100.568 12.2666 95.0669 17.7683 95.0669 24.5331C95.0669 31.298 100.569 36.7997 107.333 36.7997C114.098 36.7997 119.6 31.2984 119.6 24.5335C119.6 17.7686 114.098 12.2666 107.333 12.2666ZM107.333 30.6666C103.951 30.6666 101.2 27.9159 101.2 24.5331C101.2 21.1507 103.951 18.3997 107.333 18.3997C110.716 18.3997 113.467 21.1503 113.467 24.5331C113.467 27.9159 110.716 30.6666 107.333 30.6666Z" fill="white"/>
<path d="M116.23 42.9336H98.437C93.1963 42.9336 88.9333 47.0829 88.9333 52.1796V60.2634C88.9333 61.358 89.5159 62.37 90.4636 62.9192C95.6034 65.8937 101.436 67.467 107.333 67.467C113.231 67.467 119.063 65.8937 124.203 62.9192C125.151 62.3733 125.733 61.358 125.733 60.2666V52.1828C125.733 47.0826 121.47 42.9336 116.23 42.9336ZM119.6 58.4356C111.967 62.2381 102.7 62.2381 95.0664 58.4356V52.1828C95.0664 50.4654 96.5783 49.067 98.4367 49.067H116.229C118.088 49.067 119.6 50.4654 119.6 52.1828V58.4356H119.6Z" fill="white"/>
<path d="M79.0004 31.7371C77.8997 30.4552 75.9644 30.3017 74.6764 31.4029L53.4244 49.5883C52.1364 50.6891 51.9862 52.6243 53.087 53.9123C53.6943 54.6206 54.5529 54.9858 55.4175 54.9858C56.123 54.9858 56.8313 54.7435 57.411 54.2465L78.663 36.0611C79.9513 34.9603 80.1016 33.0251 79.0004 31.7371Z" fill="white"/>
<path d="M146.586 80.9627L128.186 56.4293C127.171 55.0708 125.249 54.8038 123.893 55.8158C122.537 56.8311 122.265 58.7537 123.28 60.106L141.68 84.6395C142.284 85.443 143.204 85.866 144.136 85.866C144.774 85.866 145.421 85.6666 145.973 85.2526C147.329 84.2377 147.602 82.3151 146.586 80.9627Z" fill="white"/>
<path d="M121.418 123.608C120.403 122.253 118.48 121.98 117.125 122.995L99.9946 135.841C98.639 136.856 98.3663 138.779 99.3812 140.131C99.9853 140.935 100.905 141.358 101.837 141.358C102.478 141.358 103.122 141.156 103.675 140.744L120.805 127.898C122.161 126.884 122.434 124.961 121.418 123.608Z" fill="white"/>
<path d="M42.9336 147.2H21.4667C19.774 147.2 18.4001 148.571 18.4001 150.267C18.4001 151.963 19.774 153.333 21.4667 153.333H42.9332C44.6259 153.333 45.9998 151.963 45.9998 150.267C45.9998 148.571 44.6263 147.2 42.9336 147.2Z" fill="white"/>
<path d="M33.7335 0C26.9682 0 21.4666 5.50167 21.4666 12.2665C21.4666 19.0318 26.9682 24.5331 33.7331 24.5331C40.4983 24.5331 45.9996 19.0314 45.9996 12.2665C46 5.50167 40.4983 0 33.7335 0ZM33.7335 18.4C30.351 18.4 27.6 15.6493 27.6 12.2665C27.6 8.88411 30.3507 6.13309 33.7335 6.13309C37.1159 6.13309 39.8669 8.88375 39.8669 12.2665C39.8666 15.6493 37.1159 18.4 33.7335 18.4Z" fill="white"/>
<path d="M33.7335 18.3994C32.0409 18.3994 30.667 19.7701 30.667 21.466V42.9325C30.667 44.6284 32.0409 45.9991 33.7335 45.9991C35.4262 45.9991 36.8001 44.6284 36.8001 42.9325V21.466C36.8001 19.7701 35.4262 18.3994 33.7335 18.3994Z" fill="white"/>
</g>
<defs>
<clipPath id="clip0">
<rect width="184" height="184" fill="white"/>
</clipPath>
</defs>
</svg>
