<svg width="176" height="176" viewBox="0 0 176 176" fill="none" xmlns="http://www.w3.org/2000/svg">
<g opacity="0.2" clip-path="url(#clip0)">
<path d="M165.003 39.2386C164.026 37.5857 161.893 37.0392 160.24 38.0181C158.587 38.9956 158.041 41.1293 159.018 42.7809C164.99 52.8678 168.398 64.2976 168.96 76.0361H162.081C160.16 76.0361 158.603 77.5937 158.603 79.5139C158.603 81.4341 160.16 82.9917 162.081 82.9917H168.963C168.125 100.7 160.909 117.296 148.425 130.041C135.367 143.375 117.983 151.034 99.3883 151.68C98.7666 147.654 96.2596 143.368 93.0719 141.143L66.646 122.7C62.7533 119.984 57.5782 120.05 53.7688 122.865C52.469 123.827 51.2524 124.892 50.1298 126.052C44.1357 119.17 39.4373 111.075 36.4443 102.428C33.4552 93.7957 32.1447 84.5359 32.5985 75.4265C32.6711 75.4359 32.7436 75.4453 32.8161 75.4547C39.7999 76.3544 46.3701 72.0601 48.4393 65.2429L52.7389 51.0887C52.7389 51.086 52.7402 51.0833 52.7415 51.0806L57.7635 34.5429C59.1117 30.1051 57.4896 25.3127 53.7271 22.6057C53.4962 22.4351 53.2558 22.2713 53.0155 22.1061C64.7634 13.123 78.6343 8.07009 93.3512 7.38259V13.7433C93.3512 15.6648 94.9088 17.2211 96.829 17.2211C98.7491 17.2211 100.307 15.6648 100.307 13.7433V7.38259C115.334 8.08352 129.464 13.3271 141.362 22.6594C142.873 23.8437 145.059 23.5805 146.245 22.0699C147.429 20.5579 147.166 18.3732 145.654 17.1875C131.607 6.16738 114.723 0.34375 96.829 0.34375C79.1137 0.34375 62.3639 6.06398 48.3909 16.8854C47.6712 17.4427 46.973 18.055 46.2976 18.7089C32.9208 13.9783 17.8589 19.5079 10.8858 32.2065C10.8751 32.224 10.8657 32.2428 10.8563 32.2602C10.6414 32.6684 10.4199 33.0901 10.1956 33.552C9.98886 33.9776 9.80087 34.3966 9.60214 34.841C8.16134 37.9093 7.50338 39.7838 6.50838 42.6171L6.29756 43.22C6.0572 43.894 0.402768 59.8677 0.0630458 70.5616C-0.601629 91.4901 4.02021 111.835 13.4304 129.394C23.4166 148.032 38.5323 162.82 57.1472 172.163C57.5057 172.352 57.9461 172.583 58.4094 172.809C62.4646 174.777 66.8179 175.77 71.1953 175.77C74.4247 175.77 77.6675 175.23 80.8096 174.141C88.2083 171.58 94.1676 166.288 97.589 159.243C97.6803 159.055 97.7635 158.864 97.8495 158.675C98.1664 158.672 98.4403 158.669 98.6122 158.665C119.384 158.206 138.839 149.769 153.395 134.908C167.972 120.023 176 100.351 176 79.5139C176 65.3181 172.198 51.3894 165.003 39.2386V39.2386ZM91.333 156.205C88.724 161.579 84.1773 165.615 78.5336 167.569C72.8899 169.523 66.8219 169.162 61.4481 166.551C61.0721 166.37 60.7163 166.182 60.3591 165.993C60.3376 165.982 60.3162 165.971 60.296 165.961C42.9567 157.266 28.871 143.485 19.5602 126.11C10.726 109.624 6.38753 90.4925 7.01326 70.7818C7.31807 61.181 12.7926 45.7095 12.8517 45.5416L13.0705 44.9213C14.0642 42.0934 14.6107 40.5344 15.9105 37.7683C15.9199 37.7482 15.9414 37.6998 15.9508 37.6797C16.1119 37.3198 16.2717 36.9586 16.4516 36.5907C16.6289 36.2254 16.8129 35.8763 16.9955 35.5272C22.7318 25.1153 35.6131 21.0373 46.3365 26.2446C47.5289 26.8233 48.63 27.4853 49.6075 28.2104C49.6236 28.2212 49.6397 28.2332 49.6558 28.244C51.008 29.2121 51.5921 30.9309 51.1087 32.5221L46.9998 46.0506L38.9552 44.415C37.0713 44.0324 35.2371 45.2476 34.8544 47.1301C34.4717 49.0114 35.6869 50.847 37.5682 51.231L44.9695 52.7349L41.7845 63.222C40.7049 66.7777 37.3036 69.0214 33.7036 68.5568C32.5932 68.4145 31.4814 68.1836 30.4018 67.872C29.4135 67.5874 28.35 67.7539 27.4973 68.3286C26.6433 68.9033 26.0888 69.8258 25.98 70.849C24.7836 82.1874 26.129 93.8951 29.8714 104.704C33.6177 115.526 39.8025 125.566 47.7545 133.737C48.4702 134.472 49.4746 134.854 50.4991 134.78C51.5223 134.706 52.4609 134.182 53.0638 133.351C54.424 131.473 56.0515 129.826 57.9032 128.458C59.3077 127.419 61.2225 127.397 62.6647 128.404L89.0905 146.846C90.7703 148.018 92.3642 150.943 92.5643 153.108C92.238 154.154 91.8244 155.193 91.333 156.205V156.205Z" fill="white"/>
<path d="M97.6427 100.273C98.1046 99.6473 98.3382 98.9168 98.3382 98.1031C98.3382 97.2383 98.1019 96.4931 97.6333 95.8888C97.1445 95.2591 96.5389 94.9395 95.8353 94.9395H73.3653V91.4939C73.3653 90.1444 73.952 88.7426 75.1082 87.3273C76.2952 85.8717 77.7857 84.5182 79.5407 83.3003L85.5013 79.0571C87.6309 77.4699 89.6249 75.8626 91.4256 74.2808C93.2558 72.6735 94.8054 70.6889 96.034 68.382C97.268 66.0604 97.8951 63.6044 97.8951 61.08C97.8951 56.8825 96.3818 53.3469 93.3995 50.5714C90.4239 47.8026 86.6695 46.3994 82.2424 46.3994C78.1147 46.3994 74.5778 47.624 71.7284 50.0383C68.8616 52.4674 67.4087 55.6243 67.4087 59.419C67.4087 62.7074 69.1288 63.399 70.5723 63.399C71.6411 63.399 72.5139 63.1183 73.1679 62.5651C73.8393 61.9985 74.1803 61.3271 74.1803 60.5697C74.1803 58.0306 74.9296 56.0688 76.408 54.7421C77.8985 53.4047 79.8616 52.7266 82.2424 52.7266C85.0501 52.7266 87.2281 53.5873 88.7159 55.2859C90.2144 56.998 90.9744 59.0229 90.9744 61.3029C90.9744 63.4433 90.1352 65.585 88.4809 67.669C86.7971 69.7906 84.7305 71.7323 82.3337 73.443L75.1149 78.7966C72.7395 80.5409 70.6851 82.5268 69.0106 84.6968C67.308 86.903 66.4446 89.1857 66.4446 91.4832V98.6912C66.4446 99.4539 66.8058 100.088 67.5175 100.575C68.1862 101.034 68.8857 101.268 69.5961 101.268H95.8527C96.5564 101.267 97.1579 100.932 97.6427 100.273V100.273Z" fill="white"/>
<path d="M119.999 100.626C120.669 101.052 121.466 101.267 122.371 101.267C123.274 101.267 124.073 101.052 124.743 100.626C125.465 100.17 125.832 99.5291 125.832 98.7221V88.9641H129.411C130.122 88.9641 130.741 88.5948 131.251 87.8671C131.737 87.1782 131.982 86.4088 131.982 85.579C131.982 84.7048 131.764 83.9247 131.333 83.2613C130.87 82.5523 130.224 82.1925 129.411 82.1925H125.832V70.2163C125.832 69.4052 125.462 68.7728 124.735 68.3404C124.063 67.9429 123.268 67.7415 122.371 67.7415C121.473 67.7415 120.678 67.9429 120.008 68.3404C119.28 68.7728 118.911 69.4039 118.911 70.2163V82.1925H107.002L122.97 50.4022C123.196 50.0048 123.311 49.5979 123.311 49.1924C123.311 48.3854 122.926 47.7033 122.163 47.1661C121.439 46.6572 120.686 46.3994 119.925 46.3994C118.558 46.3994 117.506 47.0601 116.799 48.372L98.5101 84.5141C98.2295 84.964 98.0872 85.5011 98.0872 86.1107C98.0872 86.9567 98.3289 87.6495 98.8082 88.1692C99.293 88.6969 99.9402 88.9655 100.731 88.9655H118.911V98.7221C118.911 99.5304 119.278 100.171 119.999 100.626V100.626Z" fill="white"/>
<path d="M79.7542 109.299C77.9736 110.02 77.1156 112.048 77.8367 113.828L77.9226 114.04C78.4705 115.393 79.7716 116.213 81.1466 116.213C81.5817 116.213 82.0235 116.131 82.4505 115.958C84.231 115.237 85.089 113.209 84.3679 111.429L84.282 111.217C83.5609 109.437 81.5347 108.578 79.7542 109.299Z" fill="white"/>
<path d="M95.313 114.041C95.8609 115.393 97.162 116.214 98.537 116.214C98.9721 116.214 99.4139 116.132 99.8409 115.958C101.621 115.237 102.479 113.21 101.758 111.429L101.672 111.217C100.951 109.438 98.9237 108.58 97.1432 109.3C95.364 110.022 94.506 112.05 95.2271 113.829L95.313 114.041Z" fill="white"/>
<path d="M114.535 109.299C112.754 110.02 111.896 112.048 112.617 113.828L112.703 114.04C113.251 115.393 114.552 116.213 115.927 116.213C116.362 116.213 116.804 116.131 117.231 115.958C119.012 115.237 119.87 113.209 119.149 111.429L119.063 111.217C118.342 109.437 116.315 108.578 114.535 109.299Z" fill="white"/>
<path d="M150.258 31.1612C150.806 32.5134 152.107 33.3338 153.482 33.3338C153.917 33.3338 154.359 33.2519 154.787 33.0787C156.566 32.3576 157.424 30.33 156.703 28.5495L156.64 28.3924C155.918 26.6132 153.892 25.7539 152.111 26.4749C150.331 27.196 149.473 29.2249 150.194 31.0041L150.258 31.1612Z" fill="white"/>
<path d="M49.5349 144.586C48.8139 142.805 46.7863 141.947 45.0071 142.668C43.2266 143.39 42.3685 145.417 43.0896 147.196L43.1541 147.355C43.7019 148.707 45.0031 149.527 46.3781 149.527C46.8118 149.527 47.2549 149.444 47.6819 149.272C49.4624 148.55 50.3205 146.522 49.5994 144.743L49.5349 144.586Z" fill="white"/>
<path d="M75.9516 157.318C70.3817 158.479 64.4668 155.069 58.9063 151.211C57.3286 150.117 55.1613 150.509 54.067 152.086C52.9726 153.664 53.3647 155.831 54.9425 156.926C58.6552 159.501 65.8525 164.494 73.7548 164.494C74.9458 164.494 76.1543 164.38 77.3682 164.127C79.2494 163.736 80.4566 161.894 80.0645 160.014C79.6737 158.134 77.8314 156.929 75.9516 157.318V157.318Z" fill="white"/>
</g>
<defs>
<clipPath id="clip0">
<rect width="176" height="176" fill="white"/>
</clipPath>
</defs>
</svg>
