<svg width="14" height="15" viewBox="0 0 14 15" fill="none" xmlns="http://www.w3.org/2000/svg">
<path d="M4 0.5C4.06771 0.5 4.125 0.526042 4.17187 0.578125C4.22396 0.625 4.25 0.682292 4.25 0.75V12.25C4.25 12.3542 4.20573 12.4271 4.11719 12.4687L0.367188 14.4688C0.330729 14.4896 0.291667 14.5 0.25 14.5C0.182292 14.5 0.122396 14.474 0.0703125 14.4219C0.0234375 14.375 0 14.3177 0 14.25V2.75C0 2.64583 0.0442708 2.57292 0.132813 2.53125L3.88281 0.53125C3.91927 0.510417 3.95833 0.5 4 0.5ZM13.75 0.5C13.8177 0.5 13.875 0.526042 13.9219 0.578125C13.974 0.625 14 0.682292 14 0.75V12.25C14 12.3542 13.9557 12.4271 13.8672 12.4687L10.1172 14.4688C10.0807 14.4896 10.0417 14.5 10 14.5C9.93229 14.5 9.8724 14.474 9.82031 14.4219C9.77344 14.375 9.75 14.3177 9.75 14.25V2.75C9.75 2.64583 9.79427 2.57292 9.88281 2.53125L13.6328 0.53125C13.6693 0.510417 13.7083 0.5 13.75 0.5ZM5 0.5C5.04167 0.5 5.07812 0.507812 5.10938 0.523438L9.10937 2.52344C9.20312 2.57552 9.25 2.65104 9.25 2.75V14.25C9.25 14.3177 9.22396 14.375 9.17187 14.4219C9.125 14.474 9.06771 14.5 9 14.5C8.95833 14.5 8.92188 14.4922 8.89062 14.4766L4.89063 12.4766C4.79687 12.4245 4.75 12.349 4.75 12.25V0.75C4.75 0.682292 4.77344 0.625 4.82031 0.578125C4.8724 0.526042 4.93229 0.5 5 0.5Z" fill="#626666"/>
</svg>
