<svg width="14" height="12" viewBox="0 0 14 12" fill="none" xmlns="http://www.w3.org/2000/svg">
<path d="M14 4.04688V10.25C14 10.5937 13.8776 10.888 13.6328 11.1328C13.388 11.3776 13.0937 11.5 12.75 11.5H1.25C0.90625 11.5 0.611979 11.3776 0.367188 11.1328C0.122396 10.888 0 10.5937 0 10.25V4.04688C0.229167 4.30208 0.492188 4.52865 0.789063 4.72656C2.67448 6.00781 3.96875 6.90625 4.67188 7.42188C4.96875 7.64063 5.20833 7.8125 5.39062 7.9375C5.57812 8.05729 5.82552 8.18229 6.13281 8.3125C6.4401 8.4375 6.72656 8.5 6.99219 8.5H7H7.00781C7.27344 8.5 7.5599 8.4375 7.86719 8.3125C8.17448 8.18229 8.41927 8.05729 8.60156 7.9375C8.78906 7.8125 9.03125 7.64063 9.32812 7.42188C10.2135 6.78125 11.5104 5.88281 13.2187 4.72656C13.5156 4.52344 13.776 4.29687 14 4.04688ZM14 1.75C14 2.16146 13.8724 2.55469 13.6172 2.92969C13.362 3.30469 13.0443 3.625 12.6641 3.89063C10.7057 5.25 9.48698 6.09635 9.00781 6.42969C8.95573 6.46615 8.84375 6.54687 8.67187 6.67188C8.50521 6.79167 8.36458 6.89062 8.25 6.96875C8.14063 7.04167 8.00521 7.125 7.84375 7.21875C7.6875 7.3125 7.53906 7.38281 7.39844 7.42969C7.25781 7.47656 7.1276 7.5 7.00781 7.5H7H6.99219C6.8724 7.5 6.74219 7.47656 6.60156 7.42969C6.46094 7.38281 6.3099 7.3125 6.14844 7.21875C5.99219 7.125 5.85677 7.04167 5.74219 6.96875C5.63281 6.89062 5.49219 6.79167 5.32031 6.67188C5.15365 6.54687 5.04427 6.46615 4.99219 6.42969C4.51823 6.09635 3.83594 5.6224 2.94531 5.00781C2.05469 4.38802 1.52083 4.01562 1.34375 3.89063C1.02083 3.67188 0.716146 3.3724 0.429688 2.99219C0.143229 2.60677 0 2.25 0 1.92187C0 1.51562 0.106771 1.17708 0.320313 0.90625C0.539062 0.635416 0.848958 0.5 1.25 0.5H12.75C13.0885 0.5 13.3802 0.622396 13.625 0.867188C13.875 1.11198 14 1.40625 14 1.75Z" fill="#626666"/>
</svg>
