<svg width="16" height="16" viewBox="0 0 16 16" fill="none" xmlns="http://www.w3.org/2000/svg">
<path d="M3.6958 7.0318C4.8478 9.2958 6.7038 11.1518 8.9678 12.3038L10.7278 10.5438C10.9518 10.3198 11.2638 10.2558 11.5438 10.3438C12.4398 10.6398 13.3998 10.7998 14.3998 10.7998C14.612 10.7998 14.8155 10.8841 14.9655 11.0341C15.1155 11.1841 15.1998 11.3876 15.1998 11.5998V14.3998C15.1998 14.612 15.1155 14.8155 14.9655 14.9655C14.8155 15.1155 14.612 15.1998 14.3998 15.1998C10.7929 15.1998 7.33365 13.767 4.78315 11.2165C2.23266 8.66596 0.799805 5.20675 0.799805 1.5998C0.799805 1.38763 0.88409 1.18415 1.03412 1.03412C1.18415 0.88409 1.38763 0.799805 1.5998 0.799805H4.3998C4.61198 0.799805 4.81546 0.88409 4.96549 1.03412C5.11552 1.18415 5.1998 1.38763 5.1998 1.5998C5.1998 2.5998 5.3598 3.5598 5.6558 4.4558C5.7438 4.7358 5.6798 5.0478 5.4558 5.2718L3.6958 7.0318Z" fill="#F84A51"/>
</svg>
