<svg width="54" height="65" viewBox="0 0 54 65" fill="none" xmlns="http://www.w3.org/2000/svg">
<path d="M43.7436 54.3284L43.7162 54.3564C43.2268 54.8463 43.2268 55.6414 43.7162 56.1318C43.9609 56.3771 44.2815 56.4997 44.602 56.4997C44.9226 56.4997 45.2432 56.3771 45.4879 56.1318L45.5153 56.1044C46.0047 55.6139 46.0047 54.8189 45.5153 54.3284C45.0264 53.8384 44.233 53.8384 43.7436 54.3284Z" fill="#F84A51"/>
<path d="M53.4515 34.9886C53.0248 28.3453 50.1964 22.0924 45.4872 17.3805C43.0284 14.9204 40.1766 12.9776 37.0115 11.6068C36.5397 11.4028 35.9916 11.5077 35.6279 11.8721C35.2648 12.2366 35.1605 12.7864 35.3651 13.2587C39.4459 22.6917 37.3884 33.4843 30.123 40.7539C22.8566 48.0245 12.0688 50.0835 2.63825 45.9989C2.16695 45.7949 1.61831 45.8998 1.25516 46.2643C0.892013 46.6287 0.787767 47.1785 0.991854 47.6508C2.36222 50.8187 4.30374 53.6722 6.76258 56.1318C12.0586 61.4313 19.0812 64.1597 26.1504 64.1597C31.4924 64.1597 36.8613 62.601 41.5298 59.4155C42.1019 59.0251 42.2498 58.2443 41.8607 57.6709C41.4711 57.0976 40.6919 56.9494 40.1198 57.3399C30.2654 64.0631 16.9811 62.808 8.53329 54.3549C7.04008 52.861 5.75682 51.2086 4.6987 49.4179C8.81666 50.648 13.1686 50.8908 17.4529 50.1114C22.9412 49.1129 27.9348 46.4918 31.8932 42.5309C35.8526 38.5694 38.4729 33.5726 39.4708 28.0804C40.2495 23.7933 40.0072 19.439 38.7778 15.3186C40.5691 16.3775 42.2223 17.662 43.717 19.1575C52.4659 27.9117 53.4315 41.9364 45.963 51.7805C45.544 52.3322 45.6512 53.1204 46.2018 53.5398C46.7529 53.9596 47.5389 53.8522 47.9573 53.3004C51.9231 48.0736 53.8744 41.5701 53.4515 34.9886Z" fill="#F84A51"/>
<path d="M1.58071 13.2548L8.53239 16.7429L12.0185 23.6987C12.2309 24.1224 12.6641 24.3902 13.1378 24.3902C13.6121 24.3902 14.0447 24.1229 14.2576 23.6987L17.7437 16.7429L24.6954 13.2548C25.1197 13.0419 25.3874 12.6074 25.3874 12.1321C25.3874 11.6569 25.1197 11.2223 24.6954 11.0095L17.7442 7.52129L14.2576 0.566064C14.0447 0.141815 13.6116 -0.125977 13.1378 -0.125977C12.6645 -0.125977 12.2309 0.141815 12.0185 0.566064L8.53239 7.52129L1.58071 11.0095C1.15638 11.2223 0.888672 11.6569 0.888672 12.1321C0.888672 12.6079 1.15638 13.0419 1.58071 13.2548ZM10.0261 9.57976C10.2674 9.45862 10.4636 9.26243 10.585 9.02063L13.1378 3.9267L15.6916 9.02063C15.8125 9.26243 16.0087 9.45862 16.25 9.57976L21.3365 12.1321L16.25 14.6845C16.0087 14.8056 15.8125 15.0018 15.6911 15.2436L13.1378 20.338L10.5845 15.2436C10.4636 15.0018 10.2674 14.8056 10.0261 14.6845L4.93958 12.1321L10.0261 9.57976Z" fill="#F84A51"/>
<path d="M24.1345 23.127C23.6607 23.127 23.2276 23.3947 23.0147 23.819L21.2738 27.2929L17.8014 29.0355C17.3776 29.2484 17.1094 29.6829 17.1094 30.1582C17.1094 30.6335 17.3776 31.068 17.8014 31.2809L21.2738 33.023L23.0147 36.4969C23.2276 36.9212 23.6607 37.189 24.1345 37.189C24.6082 37.189 25.0414 36.9212 25.2543 36.4969L26.9956 33.023L30.468 31.2809C30.8919 31.068 31.1596 30.6335 31.1596 30.1582C31.1596 29.6829 30.8919 29.2484 30.468 29.0355L26.9956 27.2929L25.2543 23.819C25.0414 23.3947 24.6082 23.127 24.1345 23.127ZM27.1087 30.1582L25.5014 30.9645C25.2601 31.0857 25.0644 31.2819 24.943 31.5236L24.1345 33.1363L23.3265 31.5236C23.2051 31.2819 23.0088 31.0857 22.7675 30.9645L21.1608 30.1582L22.7675 29.3519C23.0093 29.2307 23.2051 29.0346 23.3265 28.7928L24.1345 27.1801L24.943 28.7928C25.0644 29.0346 25.2601 29.2307 25.5014 29.3519L27.1087 30.1582Z" fill="#F84A51"/>
<path d="M1.58071 38.4556L4.52749 39.9343L6.00553 42.883C6.21794 43.3072 6.65107 43.5745 7.12483 43.5745C7.59859 43.5745 8.03172 43.3067 8.24462 42.8825L9.72217 39.9343L12.6694 38.4556C13.0938 38.2427 13.3615 37.8082 13.3615 37.3329C13.3615 36.8577 13.0933 36.4231 12.6694 36.2103L9.72266 34.7315L8.24462 31.7829C8.03221 31.3586 7.59859 31.0908 7.12483 31.0908C6.65107 31.0908 6.21794 31.3586 6.00553 31.7829L4.52749 34.7315L1.58071 36.2103C1.15638 36.4231 0.888672 36.8577 0.888672 37.3329C0.888672 37.8082 1.15638 38.2427 1.58071 38.4556ZM6.02168 36.79C6.26297 36.6688 6.45873 36.4731 6.58011 36.2313L7.12532 35.144L7.67004 36.2313C7.79142 36.4731 7.98718 36.6688 8.22896 36.79L9.31057 37.3329L8.22847 37.8759C7.98718 37.997 7.79142 38.1932 7.67004 38.435L7.12532 39.5223L6.58011 38.435C6.45873 38.1932 6.26297 37.997 6.02168 37.8759L4.93958 37.3329L6.02168 36.79Z" fill="#F84A51"/>
<path d="M4.20598 4.95689C4.45069 5.20359 4.77224 5.32719 5.09428 5.32719C5.41387 5.32719 5.73346 5.20507 5.97768 4.96131C6.46808 4.47232 6.47052 3.67728 5.98208 3.18584L5.95859 3.16229C5.47064 2.67036 4.67729 2.6684 4.1869 3.15739C3.6965 3.64638 3.69405 4.44142 4.18249 4.93286L4.20598 4.95689Z" fill="#F84A51"/>
<path d="M4.20702 19.3071L4.18353 19.3312C3.69509 19.8221 3.69607 20.6171 4.18598 21.1066C4.4302 21.3509 4.75027 21.4735 5.07084 21.4735C5.3919 21.4735 5.71296 21.3504 5.95767 21.1042L5.98116 21.0806C6.47009 20.5897 6.46911 19.7946 5.9792 19.3052C5.4893 18.8157 4.69546 18.8162 4.20702 19.3071Z" fill="#F84A51"/>
<path d="M21.206 21.4735C21.5271 21.4735 21.8481 21.3504 22.0929 21.1042C22.5818 20.6137 22.5808 19.8187 22.0909 19.3287L22.0669 19.3052C21.577 18.8157 20.7837 18.8162 20.2952 19.3071C19.8063 19.7981 19.8073 20.5931 20.2977 21.0826L20.3212 21.1066C20.5659 21.3509 20.886 21.4735 21.206 21.4735Z" fill="#F84A51"/>
<path d="M21.1819 5.32719C21.5024 5.32719 21.823 5.20408 22.0677 4.95934L22.0917 4.93531C22.5806 4.44485 22.5806 3.6503 22.0917 3.15984C21.6023 2.66938 20.8094 2.66938 20.3195 3.15984L20.296 3.18387C19.8066 3.67384 19.8066 4.46888 20.296 4.95934C20.5407 5.20457 20.8613 5.32719 21.1819 5.32719Z" fill="#F84A51"/>
</svg>
