<svg width="65" height="58" viewBox="0 0 65 58" fill="none" xmlns="http://www.w3.org/2000/svg">
<g clip-path="url(#clip0)">
<path d="M48.0394 22.1553L46.5977 23.5591L53.1545 28.9134C54.6981 30.1784 55.578 31.9608 55.5785 33.8286V57.1429H57.7168V33.8286C57.7141 31.4262 56.583 29.1353 54.597 27.5093L48.0394 22.1553Z" fill="#F84A51"/>
<path d="M39.5413 0H11.7434C8.7926 0.00333333 6.40145 2.13333 6.39771 4.76191V52.381C6.40145 55.0095 8.7926 57.1395 11.7434 57.1429H38.4722V55.4391C38.4671 51.1488 39.8928 46.9529 42.5691 43.3857C42.8525 43.0076 42.7955 42.5045 42.4355 42.1838L34.9515 35.5171C34.2597 34.9002 33.893 34.0519 33.9414 33.1812C33.99 32.31 34.4495 31.4986 35.2059 30.9457C36.6629 29.9536 38.7234 30.0952 39.9925 31.274L50.5461 40.6752L52.0578 39.3286L44.8871 32.939V4.76191C44.8833 2.13333 42.4922 0.00333333 39.5413 0ZM42.7488 31.0343L41.5043 29.9257C39.4531 28.059 36.1543 27.8645 33.8449 29.4748C32.6234 30.369 31.8822 31.6819 31.805 33.0893C31.728 34.4964 32.3214 35.8671 33.4397 36.8638L40.3143 42.9879C37.7505 46.6681 36.3756 50.9071 36.3414 55.2381H11.7434C9.9724 55.2381 8.536 53.9586 8.536 52.381V49.5238H35.2647V47.6191H8.536V7.61905H42.7488V31.0343ZM42.7488 5.71429H8.536V4.76191C8.536 3.18429 9.9724 1.90476 11.7434 1.90476H39.5413C41.3124 1.90476 42.7488 3.18429 42.7488 4.76191V5.71429Z" fill="#F84A51"/>
<path d="M12.8126 17.1425H17.0892C18.2704 17.1425 19.2275 16.2899 19.2275 15.2377V11.4282C19.2275 10.3761 18.2704 9.52344 17.0892 9.52344H12.8126C11.6315 9.52344 10.6743 10.3761 10.6743 11.4282V15.2377C10.6743 16.2899 11.6315 17.1425 12.8126 17.1425ZM12.8126 11.4282H17.0892V15.2377H12.8126V11.4282Z" fill="#F84A51"/>
<path d="M23.504 17.1425H27.7806C28.9618 17.1425 29.9189 16.2899 29.9189 15.2377V11.4282C29.9189 10.3761 28.9618 9.52344 27.7806 9.52344H23.504C22.3229 9.52344 21.3657 10.3761 21.3657 11.4282V15.2377C21.3657 16.2899 22.3229 17.1425 23.504 17.1425ZM23.504 11.4282H27.7806V15.2377H23.504V11.4282Z" fill="#F84A51"/>
<path d="M34.1957 17.1425H38.4723C39.6534 17.1425 40.6106 16.2899 40.6106 15.2377V11.4282C40.6106 10.3761 39.6534 9.52344 38.4723 9.52344H34.1957C33.0145 9.52344 32.0574 10.3761 32.0574 11.4282V15.2377C32.0574 16.2899 33.0145 17.1425 34.1957 17.1425ZM34.1957 11.4282H38.4723V15.2377H34.1957V11.4282Z" fill="#F84A51"/>
<path d="M12.8126 26.6669H17.0892C18.2704 26.6669 19.2275 25.8143 19.2275 24.7621V20.9526C19.2275 19.9005 18.2704 19.0479 17.0892 19.0479H12.8126C11.6315 19.0479 10.6743 19.9005 10.6743 20.9526V24.7621C10.6743 25.8143 11.6315 26.6669 12.8126 26.6669ZM12.8126 20.9526H17.0892V24.7621H12.8126V20.9526Z" fill="#F84A51"/>
<path d="M12.8126 36.1903H17.0892C18.2704 36.1903 19.2275 35.3377 19.2275 34.2856V30.476C19.2275 29.4239 18.2704 28.5713 17.0892 28.5713H12.8126C11.6315 28.5713 10.6743 29.4239 10.6743 30.476V34.2856C10.6743 35.3377 11.6315 36.1903 12.8126 36.1903ZM12.8126 30.476H17.0892V34.2856H12.8126V30.476Z" fill="#F84A51"/>
<path d="M23.504 26.6669H27.7806C28.9618 26.6669 29.9189 25.8143 29.9189 24.7621V20.9526C29.9189 19.9005 28.9618 19.0479 27.7806 19.0479H23.504C22.3229 19.0479 21.3657 19.9005 21.3657 20.9526V24.7621C21.3657 25.8143 22.3229 26.6669 23.504 26.6669ZM23.504 20.9526H27.7806V24.7621H23.504V20.9526Z" fill="#F84A51"/>
<path d="M34.1957 26.6669H38.4723C39.6534 26.6669 40.6106 25.8143 40.6106 24.7621V20.9526C40.6106 19.9005 39.6534 19.0479 38.4723 19.0479H34.1957C33.0145 19.0479 32.0574 19.9005 32.0574 20.9526V24.7621C32.0574 25.8143 33.0145 26.6669 34.1957 26.6669ZM34.1957 20.9526H38.4723V24.7621H34.1957V20.9526Z" fill="#F84A51"/>
<path d="M23.504 36.1903H27.7806C28.9618 36.1903 29.9189 35.3377 29.9189 34.2856V30.476C29.9189 29.4239 28.9618 28.5713 27.7806 28.5713H23.504C22.3229 28.5713 21.3657 29.4239 21.3657 30.476V34.2856C21.3657 35.3377 22.3229 36.1903 23.504 36.1903ZM23.504 30.476H27.7806V34.2856H23.504V30.476Z" fill="#F84A51"/>
<path d="M12.8126 45.7147H17.0892C18.2704 45.7147 19.2275 44.8621 19.2275 43.81V40.0005C19.2275 38.9483 18.2704 38.0957 17.0892 38.0957H12.8126C11.6315 38.0957 10.6743 38.9483 10.6743 40.0005V43.81C10.6743 44.8621 11.6315 45.7147 12.8126 45.7147ZM12.8126 40.0005H17.0892V43.81H12.8126V40.0005Z" fill="#F84A51"/>
<path d="M23.504 45.7147H27.7806C28.9618 45.7147 29.9189 44.8621 29.9189 43.81V40.0005C29.9189 38.9483 28.9618 38.0957 27.7806 38.0957H23.504C22.3229 38.0957 21.3657 38.9483 21.3657 40.0005V43.81C21.3657 44.8621 22.3229 45.7147 23.504 45.7147ZM23.504 40.0005H27.7806V43.81H23.504V40.0005Z" fill="#F84A51"/>
<path d="M24.5732 51.4287H26.7115V53.3335H24.5732V51.4287Z" fill="#F84A51"/>
</g>
<defs>
<clipPath id="clip0">
<rect width="64.1489" height="57.1429" fill="white"/>
</clipPath>
</defs>
</svg>
