<svg width="65" height="65" viewBox="0 0 65 65" fill="none" xmlns="http://www.w3.org/2000/svg">
<g clip-path="url(#clip0)">
<path d="M42.8975 34.0706C40.0109 29.5579 35.0947 26.8633 29.7463 26.8633C24.3985 26.8633 19.4818 29.5579 16.5957 34.0706L9.6401 44.9446C8.48605 46.749 7.95357 48.833 8.0999 50.9709C8.24624 53.1093 9.05818 55.1006 10.4476 56.7304C11.8381 58.3597 13.6753 59.4731 15.7608 59.9508C17.8462 60.428 19.9839 60.2244 21.9426 59.3617L22.0703 59.3048C26.9992 57.1757 32.6329 57.1949 37.5496 59.3617C38.8177 59.9204 40.1612 60.2029 41.5168 60.2029C42.2539 60.2029 42.9954 60.119 43.73 59.9513C45.8154 59.474 47.6527 58.3607 49.0436 56.7314C50.4335 55.1021 51.246 53.1103 51.3928 50.9719C51.5396 48.833 51.0071 46.749 49.8531 44.9441L42.8975 34.0706ZM46.1859 54.282C44.4166 56.3547 41.5545 57.01 39.0634 55.9123C36.1024 54.6072 32.9241 53.9549 29.7449 53.9549C26.5686 53.9549 23.3908 54.6067 20.4318 55.9103L20.3476 55.9476C17.8755 56.9952 15.0555 56.3317 13.3058 54.282C11.5386 52.2088 11.3374 49.2739 12.8057 46.9781L19.7617 36.1041C21.9534 32.6777 25.6857 30.632 29.7463 30.632C33.807 30.632 37.5398 32.6777 39.7319 36.1041L46.687 46.9776C48.1558 49.2744 47.9542 52.2098 46.1859 54.282Z" fill="#F84A51"/>
<path d="M11.5136 34.0558C13.5829 33.2593 15.1549 31.5883 15.9404 29.3503C16.6872 27.2208 16.6261 24.8165 15.7671 22.58C14.9077 20.345 13.3445 18.5205 11.3658 17.4419C9.28626 16.3095 7.00215 16.1251 4.93632 16.923C0.780184 18.5244 -1.12708 23.6713 0.685237 28.3988C2.13293 32.1617 5.50943 34.537 8.92311 34.537C9.79477 34.537 10.6689 34.382 11.5136 34.0558ZM4.19436 27.0452C3.12645 24.2594 4.06467 21.296 6.28711 20.4396C6.68843 20.2847 7.11276 20.2077 7.54589 20.2077C8.21444 20.2077 8.905 20.3906 9.56963 20.753C10.7648 21.4039 11.7196 22.5339 12.258 23.9342C12.7959 25.3354 12.8438 26.8147 12.3926 28.1002C11.979 29.2782 11.1876 30.1444 10.1648 30.5382L10.1628 30.5392C7.9433 31.3965 5.2657 29.8285 4.19436 27.0452Z" fill="#F84A51"/>
<path d="M25.0097 25.5366C30.2053 25.5366 34.4324 20.7104 34.4324 14.7783C34.4324 8.8447 30.2053 4.01758 25.0097 4.01758C19.8145 4.01758 15.5879 8.8447 15.5879 14.7783C15.5879 20.7104 19.8145 25.5366 25.0097 25.5366ZM25.0097 7.78579C28.1317 7.78579 30.6722 10.9228 30.6722 14.7783C30.6722 18.6323 28.1317 21.7683 25.0097 21.7683C21.8877 21.7683 19.3481 18.6323 19.3481 14.7783C19.3481 10.9228 21.8877 7.78579 25.0097 7.78579Z" fill="#F84A51"/>
<path d="M41.2828 28.1801H41.2833C42.0825 28.446 42.8979 28.573 43.7098 28.573C47.4989 28.573 51.1916 25.8092 52.6006 21.5619C53.412 19.1169 53.3587 16.5317 52.4503 14.2829C51.4999 11.9292 49.7385 10.2204 47.4901 9.47101C45.2417 8.72256 42.8088 9.0345 40.6412 10.3499C38.5705 11.607 36.9838 13.6453 36.1738 16.0903C34.4633 21.248 36.7552 26.6715 41.2828 28.1801V28.1801ZM39.7421 17.2787C40.2712 15.6822 41.2823 14.3668 42.5896 13.5732C43.7989 12.839 45.1184 12.6521 46.3042 13.047C47.4896 13.4423 48.4342 14.383 48.9647 15.6964C49.5378 17.1158 49.5623 18.7765 49.0323 20.373C47.9756 23.559 45.0313 25.4571 42.4692 24.6042C39.909 23.7508 38.6855 20.4647 39.7421 17.2787Z" fill="#F84A51"/>
<path d="M61.1262 26.9244L61.1247 26.923C57.5417 24.2705 52.1831 25.4202 49.1786 29.4871C46.177 33.5559 46.6463 39.0261 50.224 41.6804C51.5287 42.6491 53.0704 43.1121 54.6483 43.1121C57.3983 43.1121 60.2595 41.7054 62.1716 39.1188C65.1732 35.0499 64.7043 29.5798 61.1262 26.9244V26.9244ZM59.1495 36.8769C57.3753 39.2767 54.3757 40.0727 52.4616 38.6518C50.5489 37.2329 50.4324 34.1264 52.2017 31.728C53.3778 30.136 55.0956 29.2502 56.6789 29.2502C57.4796 29.2502 58.246 29.4768 58.8901 29.954C60.8012 31.3744 60.9172 34.48 59.1495 36.8769V36.8769Z" fill="#F84A51"/>
</g>
<defs>
<clipPath id="clip0">
<rect width="64.1489" height="64.2857" fill="white"/>
</clipPath>
</defs>
</svg>
