<svg width="65" height="65" viewBox="0 0 65 65" fill="none" xmlns="http://www.w3.org/2000/svg">
<g clip-path="url(#clip0)">
<path d="M45.8564 0H18.2924C14.8381 0 12.0278 2.81627 12.0278 6.2779V58.0078C12.0278 61.4694 14.8381 64.2857 18.2924 64.2857H45.8564C49.3106 64.2857 52.1209 61.4694 52.1209 58.0078V6.2779C52.1209 2.81627 49.3106 0 45.8564 0ZM42.6953 2.51116L41.3141 4.93405C40.5974 5.78923 39.5534 6.2779 38.4353 6.2779H25.7135C24.5953 6.2779 23.5512 5.78923 22.8347 4.93405L21.4535 2.51116H42.6953ZM49.6151 58.0078C49.6151 60.0848 47.9289 61.7746 45.8564 61.7746H18.2924C16.2198 61.7746 14.5336 60.0848 14.5336 58.0078V6.2779C14.5336 4.20092 16.2198 2.51116 18.2924 2.51116H18.5675C18.5675 2.51116 20.7798 6.38149 20.8204 6.43234C22.0163 7.93012 23.7997 8.78906 25.7135 8.78906H38.4351C40.349 8.78906 42.1325 7.93012 43.3282 6.43234C43.3688 6.38149 45.5812 2.51116 45.5812 2.51116H45.8564C47.9289 2.51116 49.6151 4.20092 49.6151 6.2779V58.0078Z" fill="#F84A51"/>
<path d="M32.0745 13.8115C23.7842 13.8115 17.0396 20.5706 17.0396 28.8785C17.0396 37.1864 23.7842 43.9455 32.0745 43.9455C40.3647 43.9455 47.1094 37.1864 47.1094 28.8785C47.1094 20.5706 40.3647 13.8115 32.0745 13.8115ZM32.0745 41.4343C25.1658 41.4343 19.5454 35.8019 19.5454 28.8785C19.5454 21.9551 25.1658 16.3227 32.0745 16.3227C38.9831 16.3227 44.6035 21.9551 44.6035 28.8785C44.6035 35.8019 38.9831 41.4343 32.0745 41.4343Z" fill="#F84A51"/>
<path d="M34.5802 46.708H30.8215C30.1297 46.708 29.5686 47.2703 29.5686 47.9636C29.5686 48.6569 30.1297 49.2192 30.8215 49.2192H34.5802C35.2721 49.2192 35.8331 48.6569 35.8331 47.9636C35.8331 47.2703 35.2721 46.708 34.5802 46.708Z" fill="#F84A51"/>
<path d="M25.8099 46.708H18.2925C17.6006 46.708 17.0396 47.2703 17.0396 47.9636C17.0396 48.6569 17.6006 49.2192 18.2925 49.2192H25.8099C26.5018 49.2192 27.0628 48.6569 27.0628 47.9636C27.0628 47.2703 26.5018 46.708 25.8099 46.708Z" fill="#F84A51"/>
<path d="M45.8566 46.708H39.592C38.9002 46.708 38.3391 47.2703 38.3391 47.9636C38.3391 48.6569 38.9002 49.2192 39.592 49.2192H45.8566C46.5484 49.2192 47.1095 48.6569 47.1095 47.9636C47.1095 47.2703 46.5484 46.708 45.8566 46.708Z" fill="#F84A51"/>
<path d="M45.8565 51.7295H18.2925C17.6006 51.7295 17.0396 52.2917 17.0396 52.9851C17.0396 53.6784 17.6006 54.2407 18.2925 54.2407H45.8565C46.5483 54.2407 47.1094 53.6784 47.1094 52.9851C47.1094 52.2917 46.5483 51.7295 45.8565 51.7295Z" fill="#F84A51"/>
<path d="M43.3506 56.752C42.6602 56.752 42.0977 57.3157 42.0977 58.0075C42.0977 58.6994 42.6602 59.2631 43.3506 59.2631C44.0409 59.2631 44.6035 58.6994 44.6035 58.0075C44.6035 57.3157 44.0409 56.752 43.3506 56.752Z" fill="#F84A51"/>
<path d="M38.339 56.752H18.2925C17.6007 56.752 17.0396 57.3157 17.0396 58.0075C17.0396 58.6994 17.6007 59.2631 18.2925 59.2631H38.339C39.0294 59.2631 39.5919 58.6994 39.5919 58.0075C39.5919 57.3157 39.0294 56.752 38.339 56.752Z" fill="#F84A51"/>
<path d="M27.0164 28.9942C26.4965 28.6925 25.9109 28.4796 25.3281 28.3376C24.9774 28.2522 24.3963 28.0611 24.3963 27.6166C24.3963 27.0891 25.0168 26.8955 25.44 26.8955C25.748 26.8955 26.0785 26.9642 26.4316 27.1015C26.8878 27.279 27.2971 27.4563 27.5795 26.9367C27.7137 26.6896 27.7807 26.473 27.7807 26.2862C27.7807 25.9898 27.5395 25.7374 27.0576 25.5287C26.5754 25.3203 26.0264 25.2158 25.4102 25.2158C24.4858 25.2158 23.8097 25.4618 23.3824 25.9532C22.955 26.4448 22.7414 27.0311 22.7414 27.7125C22.7414 28.5195 23.2235 29.2995 23.9938 29.5949C24.6247 29.8372 25.3283 29.9512 25.9096 30.3077C26.2232 30.5001 26.3979 30.925 26.1835 31.2564C25.9785 31.5735 25.5109 31.6054 25.1735 31.6054C24.8013 31.6054 24.4795 31.548 24.2079 31.433C23.7242 31.228 23.098 30.5734 22.6841 31.2513C22.5532 31.4654 22.488 31.6713 22.488 31.8689C22.488 32.2423 22.7514 32.5717 23.2782 32.8569C23.805 33.1422 24.4412 33.2851 25.1867 33.2851C26.0514 33.2851 26.7246 33.0671 27.207 32.6309C27.689 32.1951 27.93 31.5969 27.93 30.8366C27.9299 30.1313 27.6534 29.3639 27.0164 28.9942Z" fill="#F84A51"/>
<path d="M32.0745 25.2158C30.2876 25.2158 28.8391 26.8021 28.8391 28.5588C28.8391 28.5588 28.8391 29.9083 28.8391 29.9092C28.8391 31.6441 30.3114 33.2851 32.0745 33.2851C33.845 33.2851 35.3099 31.6401 35.3099 29.9092V28.5588C35.3099 26.8068 33.8484 25.2158 32.0745 25.2158ZM32.0746 31.4077C31.303 31.4077 30.7626 30.6213 30.7626 29.9043C30.7626 29.9043 30.7626 28.5658 30.7626 28.564C30.7626 27.8524 31.3246 27.0932 32.0745 27.0932C32.814 27.0932 33.3866 27.8694 33.3866 28.564C33.3866 28.564 33.3866 29.903 33.3866 29.9043C33.3866 30.6193 32.8409 31.4076 32.0746 31.4077Z" fill="#F84A51"/>
<path d="M41.2641 29.6913C40.8978 29.0328 40.152 28.7001 39.4518 28.4987C39.0472 28.3824 38.6195 28.3002 38.262 28.0652C37.8908 27.8213 37.9495 27.3811 38.2619 27.12C38.7305 26.7285 39.5181 26.9027 40.0287 27.1016C40.4788 27.2767 40.8929 27.4592 41.1768 26.9368C41.311 26.6897 41.378 26.4732 41.378 26.2863C41.378 25.9899 41.1368 25.7375 40.6549 25.5288C40.1726 25.3203 39.6234 25.2158 39.0072 25.2158C38.0828 25.2158 37.4068 25.4618 36.9795 25.9532C36.3223 26.7092 36.0533 28.0811 36.7038 28.9222C37.399 29.821 38.6071 29.7545 39.5068 30.3077C39.8073 30.4925 39.9864 30.9258 39.7859 31.2483C39.5843 31.5726 39.1107 31.6055 38.7707 31.6055C38.1927 31.6055 37.6292 31.4145 37.1488 31.0955C36.8106 30.8711 36.5003 30.8924 36.2813 31.2514C36.1504 31.4655 36.0852 31.6714 36.0852 31.869C36.0852 32.2424 36.3486 32.5718 36.8754 32.857C37.4021 33.1423 38.0384 33.2852 38.7838 33.2852C39.6486 33.2852 40.3218 33.0672 40.8042 32.631C41.2862 32.1952 41.5272 31.5971 41.5272 30.8367C41.5272 30.3882 41.4394 30.0064 41.2641 29.6913Z" fill="#F84A51"/>
</g>
<defs>
<clipPath id="clip0">
<rect width="64.1489" height="64.2857" fill="white"/>
</clipPath>
</defs>
</svg>
