<svg width="67" height="70" viewBox="0 0 67 70" fill="none" xmlns="http://www.w3.org/2000/svg">
<path d="M21.9273 5.72754C12.523 5.72754 4.8728 13.7203 4.8728 23.5457C4.8728 33.3712 12.523 41.3639 21.9273 41.3639C31.3317 41.3639 38.9819 33.3712 38.9819 23.5457C38.9819 13.7203 31.3317 5.72754 21.9273 5.72754ZM23.1455 38.7535V36.273C23.1455 35.5692 22.601 35.0003 21.9273 35.0003C21.2537 35.0003 20.7092 35.5692 20.7092 36.273V38.7535C13.2173 38.1032 7.30917 31.5384 7.30917 23.5457C7.30917 15.553 13.2173 8.98827 20.7092 8.3379V10.8184C20.7092 11.5223 21.2537 12.0912 21.9273 12.0912C22.601 12.0912 23.1455 11.5223 23.1455 10.8184V8.3379C30.6373 8.98827 36.5455 15.5543 36.5455 23.5457C36.5455 31.5372 30.6373 38.1032 23.1455 38.7535Z" fill="#F84A51"/>
<path d="M15.8364 18.4551C13.149 18.4551 10.9636 20.7384 10.9636 23.546C10.9636 26.3536 13.149 28.6369 15.8364 28.6369C18.5237 28.6369 20.7091 26.3536 20.7091 23.546C20.7091 20.7384 18.5237 18.4551 15.8364 18.4551ZM15.8364 26.0914C14.4927 26.0914 13.4 24.9498 13.4 23.546C13.4 22.1422 14.4927 21.0005 15.8364 21.0005C17.18 21.0005 18.2727 22.1422 18.2727 23.546C18.2727 24.9498 17.18 26.0914 15.8364 26.0914Z" fill="#F84A51"/>
<path d="M28.0182 18.4551C25.3309 18.4551 23.1455 20.7384 23.1455 23.546C23.1455 26.3536 25.3309 28.6369 28.0182 28.6369C30.7055 28.6369 32.891 26.3536 32.891 23.546C32.891 20.7384 30.7055 18.4551 28.0182 18.4551ZM28.0182 26.0914C26.6746 26.0914 25.5819 24.9498 25.5819 23.546C25.5819 22.1422 26.6746 21.0005 28.0182 21.0005C29.3619 21.0005 30.4546 22.1422 30.4546 23.546C30.4546 24.9498 29.3619 26.0914 28.0182 26.0914Z" fill="#F84A51"/>
<path d="M63.5282 33.7276H60.9091V22.9094C60.9091 21.1544 59.5435 19.7276 57.8636 19.7276C56.1838 19.7276 54.8182 21.1544 54.8182 22.9094V33.7276H51.1636V22.9094C51.1636 21.1544 49.7981 19.7276 48.1182 19.7276C46.4383 19.7276 45.0727 21.1544 45.0727 22.9094V33.7276H43.8545V0.636719H0V46.4549H38.9818V51.2455C38.9818 55.6211 42.3903 59.1822 46.5784 59.1822H48.7273V64.2731H50.9395C50.4352 65.7507 49.0952 66.8185 47.5091 66.8185H41.4182C39.4033 66.8185 37.7636 65.1055 37.7636 63.0004V61.7276C37.7636 56.8162 33.9373 52.8185 29.2364 52.8185H28.0182C23.3172 52.8185 19.4909 56.8162 19.4909 61.7276C19.4909 62.4315 20.0354 63.0004 20.7091 63.0004C21.3827 63.0004 21.9273 62.4315 21.9273 61.7276C21.9273 58.2187 24.6597 55.364 28.0182 55.364H29.2364C32.5949 55.364 35.3273 58.2187 35.3273 61.7276V63.0004C35.3273 66.5093 38.0597 69.364 41.4182 69.364H47.5091C50.4498 69.364 52.9105 67.1736 53.477 64.2731H57.2545V59.1822H59.4034C63.5915 59.1822 67 55.6211 67 51.2455V37.3549C67 35.3542 65.4432 33.7276 63.5282 33.7276ZM57.2545 22.9094C57.2545 22.5594 57.5286 22.2731 57.8636 22.2731C58.1986 22.2731 58.4727 22.5594 58.4727 22.9094V33.7276V36.2731H57.2545V33.7276V22.9094ZM47.5091 22.9094C47.5091 22.5594 47.7832 22.2731 48.1182 22.2731C48.4532 22.2731 48.7273 22.5594 48.7273 22.9094V33.7276V36.2731H47.5091V33.7276V22.9094ZM45.0727 36.2731V38.8185H51.1636V36.2731H54.8182V38.8185H60.9091V36.2731H63.5282C64.0995 36.2731 64.5636 36.758 64.5636 37.3549V40.0913H41.4182V37.3969C41.4182 36.7784 41.9006 36.2731 42.4938 36.2731H43.8545H45.0727ZM2.43636 43.9095V3.18217H41.4182V33.9045C41.3597 33.9249 41.3049 33.9542 41.2476 33.9771C41.1758 34.0064 41.1051 34.0344 41.0357 34.0687C40.9029 34.1324 40.7774 34.2062 40.6544 34.2851C40.6008 34.3194 40.5447 34.35 40.4936 34.3882C40.3243 34.5116 40.1647 34.6465 40.0197 34.7967C40.0014 34.8158 39.988 34.8374 39.9698 34.8565C39.8443 34.9927 39.7286 35.1391 39.625 35.2931C39.586 35.3504 39.5531 35.4115 39.5178 35.4713C39.4423 35.5973 39.3741 35.7271 39.3144 35.8633C39.2839 35.9333 39.2547 36.0033 39.2279 36.0758C39.1755 36.2184 39.1329 36.3647 39.0975 36.5149C39.0817 36.5824 39.0622 36.6485 39.0488 36.7185C39.0074 36.9387 38.9818 37.164 38.9818 37.3969V43.9095H2.43636ZM54.8182 61.7276H51.1636V59.1822H54.8182V61.7276ZM59.4034 56.6367H57.2545H48.7273H46.5784C43.7327 56.6367 41.4182 54.2185 41.4182 51.2455V46.4549V42.6367H64.5636V51.2455C64.5636 54.2185 62.2491 56.6367 59.4034 56.6367Z" fill="#F84A51"/>
</svg>
