<svg width="16" height="16" viewBox="0 0 16 16" fill="none" xmlns="http://www.w3.org/2000/svg">
<path d="M6.905 10.0025L5.3075 8.405L4.5125 9.2L6.8975 11.585L11.3975 7.085L10.6025 6.29L6.905 10.0025ZM8 14.105C6.60761 14.105 5.27226 13.5519 4.28769 12.5673C3.30312 11.5827 2.75 10.2474 2.75 8.855C2.75 7.46261 3.30312 6.12726 4.28769 5.14269C5.27226 4.15812 6.60761 3.605 8 3.605C9.39239 3.605 10.7277 4.15812 11.7123 5.14269C12.6969 6.12726 13.25 7.46261 13.25 8.855C13.25 10.2474 12.6969 11.5827 11.7123 12.5673C10.7277 13.5519 9.39239 14.105 8 14.105ZM8 2.105C6.20979 2.105 4.4929 2.81616 3.22703 4.08203C1.96116 5.3479 1.25 7.06479 1.25 8.855C1.25 10.6452 1.96116 12.3621 3.22703 13.628C4.4929 14.8938 6.20979 15.605 8 15.605C9.79021 15.605 11.5071 14.8938 12.773 13.628C14.0388 12.3621 14.75 10.6452 14.75 8.855C14.75 7.06479 14.0388 5.3479 12.773 4.08203C11.5071 2.81616 9.79021 2.105 8 2.105ZM4.91 1.6475L3.95 0.5L0.5 3.3875L1.4675 4.535L4.91 1.6475ZM15.5 3.395L12.05 0.5L11.0825 1.6475L14.5325 4.5425L15.5 3.395Z" fill="#BEC2C3"/>
</svg>
