<svg width="25" height="28" viewBox="0 0 25 28" fill="none" xmlns="http://www.w3.org/2000/svg">
<path d="M12.3932 15.0872C12.4236 15.0872 12.454 15.0872 12.4906 15.0872C12.5027 15.0872 12.5149 15.0872 12.5271 15.0872C12.5453 15.0872 12.5697 15.0872 12.5879 15.0872C14.3712 15.0582 15.8137 14.461 16.8788 13.3187C19.2221 10.8023 18.8325 6.48832 18.7899 6.07664C18.6378 2.98614 17.104 1.50756 15.838 0.817564C14.8947 0.301513 13.793 0.0231933 12.5636 0H12.521C12.5149 0 12.5027 0 12.4966 0H12.4601C11.7845 0 10.4577 0.10437 9.18567 0.79437C7.90753 1.48437 6.34943 2.96294 6.19727 6.07664C6.15467 6.48832 5.76514 10.8023 8.10838 13.3187C9.16741 14.461 10.6099 15.0582 12.3932 15.0872ZM7.82233 6.2216C7.82233 6.20421 7.82841 6.18681 7.82841 6.17521C8.02926 2.01782 11.1272 1.57135 12.454 1.57135H12.4784C12.4906 1.57135 12.5088 1.57135 12.5271 1.57135C14.1704 1.60614 16.964 2.24395 17.1527 6.17521C17.1527 6.19261 17.1527 6.21 17.1588 6.2216C17.1649 6.26219 17.5909 10.205 15.6555 12.2808C14.8886 13.1042 13.8661 13.5101 12.521 13.5217C12.5088 13.5217 12.5027 13.5217 12.4906 13.5217C12.4784 13.5217 12.4723 13.5217 12.4601 13.5217C11.1211 13.5101 10.0925 13.1042 9.33174 12.2808C7.40237 10.2166 7.81624 6.25639 7.82233 6.2216Z" fill="#8D9293"/>
<path d="M24.9983 22.2423C24.9983 22.2365 24.9983 22.2307 24.9983 22.2249C24.9983 22.1785 24.9922 22.1321 24.9922 22.0799C24.9557 20.9319 24.8766 18.2472 22.2351 17.3891C22.2168 17.3833 22.1925 17.3775 22.1742 17.3717C19.4293 16.7049 17.1469 15.1973 17.1226 15.1799C16.7513 14.9306 16.24 15.0176 15.9783 15.3713C15.7166 15.725 15.8079 16.212 16.1792 16.4614C16.2826 16.5309 18.705 18.1371 21.736 18.8793C23.1541 19.3605 23.3124 20.8043 23.355 22.1263C23.355 22.1785 23.355 22.2249 23.3611 22.2713C23.3672 22.7931 23.3306 23.5991 23.2333 24.063C22.2473 24.5964 18.3824 26.4403 12.503 26.4403C6.64795 26.4403 2.75877 24.5906 1.7667 24.0572C1.66932 23.5933 1.62671 22.7873 1.63888 22.2655C1.63888 22.2191 1.64497 22.1727 1.64497 22.1205C1.68758 20.7985 1.84582 19.3547 3.26394 18.8735C6.29494 18.1313 8.71731 16.5193 8.82078 16.4556C9.19204 16.2062 9.28334 15.7192 9.02163 15.3655C8.75991 15.0118 8.24866 14.9248 7.87739 15.1741C7.85305 15.1915 5.58284 16.6991 2.82572 17.3659C2.80138 17.3717 2.78312 17.3775 2.76486 17.3833C0.123384 18.2472 0.0442611 20.9319 0.00774298 22.0741C0.00774298 22.1263 0.00774284 22.1727 0.00165649 22.2191C0.00165649 22.2249 0.00165649 22.2307 0.00165649 22.2365C-0.00442986 22.538 -0.0105161 24.0862 0.31206 24.8631C0.372924 25.0139 0.482478 25.1415 0.628551 25.2284C0.811141 25.3444 5.18723 28 12.5091 28C19.831 28 24.2071 25.3386 24.3897 25.2284C24.5296 25.1415 24.6453 25.0139 24.7062 24.8631C25.0105 24.092 25.0044 22.5438 24.9983 22.2423Z" fill="#8D9293"/>
</svg>
