<svg width="32" height="32" viewBox="0 0 32 32" fill="none" xmlns="http://www.w3.org/2000/svg">
<path d="M11.2138 19.948C10.9604 19.948 10.7204 19.908 10.5204 19.8413C10.3071 19.7613 10.1338 19.668 9.98711 19.5213C9.84044 19.388 9.72044 19.228 9.64044 19.028C9.56044 18.8414 9.52044 18.6281 9.52044 18.4014H7.78711C7.78711 18.8814 7.88044 19.308 8.06711 19.668C8.25378 20.0279 8.50711 20.3346 8.81378 20.5879C9.13378 20.8279 9.49378 21.0145 9.90711 21.1345C10.3071 21.2678 10.7338 21.3345 11.1871 21.3345C11.6804 21.3345 12.1471 21.2678 12.5604 21.1345C12.9871 21.0012 13.3604 20.8012 13.6671 20.5479C13.9738 20.2946 14.2271 19.9746 14.4004 19.588C14.5738 19.2014 14.6671 18.7747 14.6671 18.2948C14.6671 18.0415 14.6404 17.7882 14.5738 17.5482C14.5071 17.3082 14.4138 17.0816 14.2671 16.8683C14.1338 16.655 13.9471 16.4683 13.7338 16.295C13.5071 16.1217 13.2404 15.9884 12.9204 15.8817C13.1871 15.7617 13.4138 15.6151 13.6138 15.4417C13.8138 15.2684 13.9738 15.0818 14.1071 14.8818C14.2404 14.6818 14.3338 14.4818 14.4004 14.2685C14.4671 14.0552 14.4938 13.8419 14.4938 13.6286C14.4938 13.1486 14.4138 12.722 14.2538 12.3487C14.0938 11.9754 13.8671 11.6688 13.5738 11.4288C13.3071 11.1755 12.9471 10.9889 12.5471 10.8555C12.1338 10.7355 11.6804 10.6689 11.1871 10.6689C10.7071 10.6689 10.2671 10.7355 9.85378 10.8822C9.45378 11.0288 9.09378 11.2288 8.80044 11.4821C8.52044 11.7354 8.29378 12.0287 8.12044 12.3754C7.96044 12.722 7.88044 13.0953 7.88044 13.5086H9.61378C9.61378 13.282 9.65378 13.082 9.73378 12.9087C9.81378 12.7353 9.92044 12.5754 10.0671 12.4554C10.2138 12.3354 10.3738 12.2287 10.5738 12.1621C10.7738 12.0954 10.9738 12.0554 11.2138 12.0554C11.7471 12.0554 12.1471 12.1887 12.4004 12.4687C12.6538 12.7353 12.7871 13.122 12.7871 13.6153C12.7871 13.8552 12.7471 14.0685 12.6804 14.2685C12.6138 14.4685 12.4938 14.6285 12.3471 14.7618C12.2004 14.8951 12.0138 15.0018 11.8004 15.0818C11.5871 15.1618 11.3204 15.2018 11.0271 15.2018H10.0004V16.575H11.0271C11.3204 16.575 11.5871 16.6016 11.8271 16.6683C12.0671 16.7349 12.2671 16.8416 12.4271 16.9749C12.5871 17.1216 12.7204 17.2949 12.8138 17.5082C12.9071 17.7215 12.9471 17.9748 12.9471 18.2681C12.9471 18.8147 12.7871 19.228 12.4804 19.508C12.1738 19.8146 11.7471 19.948 11.2138 19.948Z" fill="#0F63E1"/>
<path d="M23.6133 13.6553C23.3733 13.0286 23.04 12.4954 22.6133 12.0554C22.1867 11.6155 21.68 11.2688 21.0933 11.0288C20.52 10.7889 19.8667 10.6689 19.1467 10.6689H16V21.3345H19.0667C19.8 21.3345 20.48 21.2145 21.08 20.9745C21.68 20.7345 22.2 20.4012 22.6267 19.9613C23.0533 19.5213 23.3867 18.9881 23.6133 18.3748C23.84 17.7482 23.96 17.0549 23.96 16.2817V15.7484C23.96 14.9751 23.84 14.2819 23.6133 13.6553ZM22.1067 16.2683C22.1067 16.8283 22.04 17.3216 21.92 17.7748C21.7867 18.2148 21.6 18.6014 21.3467 18.9081C21.0933 19.2147 20.7733 19.4547 20.4 19.6147C20.0133 19.7746 19.5733 19.8546 19.08 19.8546H17.8667V12.1487H19.16C20.12 12.1487 20.8533 12.4554 21.3467 13.0686C21.8533 13.6819 22.1067 14.5618 22.1067 15.7217V16.2683Z" fill="#0F63E1"/>
<path d="M20.2011 5.12269L21.9744 3.34953C26.0944 5.29601 29.0944 9.17562 29.8278 13.8285C29.9078 14.3751 30.4144 14.7484 30.9744 14.6551C31.5211 14.5751 31.8944 14.0551 31.8011 13.5085C31.0011 8.42903 27.8544 4.16279 23.4811 1.84302C21.2544 0.656469 18.3744 -0.170115 15.1211 0.0298651L20.2011 5.12269Z" fill="#F7D33C"/>
<path d="M11.8018 26.8672L10.0285 28.6404C5.90847 26.6939 2.90847 22.8143 2.17514 18.1614C2.09514 17.6148 1.58847 17.2415 1.02847 17.3349C0.481808 17.4149 0.108475 17.9348 0.201808 18.4814C1.00181 23.5609 4.14847 27.8271 8.52181 30.1469C10.7485 31.3335 13.6285 32.16 16.8818 31.9601L11.8018 26.8672Z" fill="#F7D33C"/>
</svg>
