<svg width="44" height="41" viewBox="0 0 44 41" fill="none" xmlns="http://www.w3.org/2000/svg">
<path d="M38.0884 6.00561C34.277 2.13369 29.2073 0 23.8208 0C18.3347 0 13.2016 2.19807 9.37215 6.18955C8.95571 6.6218 8.96476 7.32077 9.39026 7.75303C9.81575 8.17609 10.5038 8.16689 10.9293 7.73463C14.3513 4.17542 18.9231 2.21646 23.8208 2.21646C33.752 2.20727 41.8273 10.4109 41.8273 20.5C41.8273 30.5891 33.752 38.7927 23.8208 38.7927C13.8896 38.7927 5.81431 30.5891 5.81431 20.5V20.2701L7.60681 22.0911C7.81503 22.3026 8.09567 22.413 8.37632 22.413C8.65696 22.413 8.92855 22.3026 9.14583 22.0911C9.57132 21.6588 9.57132 20.9598 9.14583 20.5276L5.50651 16.8212C5.08101 16.389 4.39298 16.389 3.96749 16.8212L0.319119 20.5276C-0.106373 20.9598 -0.106373 21.6588 0.319119 22.0911C0.744612 22.5233 1.43264 22.5233 1.85813 22.0911L3.65064 20.2701V20.5C3.65064 25.9722 5.75094 31.1225 9.56227 34.9944C13.3736 38.8663 18.4433 41 23.8298 41C29.2164 41 34.2861 38.8663 38.0974 34.9944C41.9087 31.1225 44 25.9722 44 20.5C44 15.0278 41.8997 9.87752 38.0884 6.00561Z" fill="#F7D33C"/>
<path d="M30.0846 13.3097L16.329 26.2053C15.8903 26.6168 15.8903 27.2821 16.329 27.6936C16.5436 27.8949 16.8329 28 17.1222 28C17.4115 28 17.6915 27.8949 17.9154 27.6936L31.671 14.7892C32.1097 14.3778 32.1097 13.7124 31.671 13.301C31.2324 12.8982 30.5232 12.8982 30.0846 13.3097Z" fill="#F7D33C"/>
<path d="M26.1672 22.1735C24.6109 23.7288 24.6109 26.2712 26.1672 27.8265C26.922 28.5809 27.9284 29 29 29C30.0716 29 31.078 28.5809 31.8328 27.8265C33.3891 26.2712 33.3891 23.7288 31.8328 22.1735C31.078 21.4191 30.0716 21 29 21C27.9284 21 26.9313 21.4191 26.1672 22.1735ZM30.2487 26.2526C29.9132 26.5879 29.4752 26.7648 29 26.7648C28.5248 26.7648 28.0868 26.5786 27.7513 26.2526C27.0617 25.5634 27.0617 24.4459 27.7513 23.7567C28.0868 23.4214 28.5248 23.2445 29 23.2445C29.4752 23.2445 29.9132 23.4307 30.2487 23.7567C30.9383 24.4459 30.9383 25.5634 30.2487 26.2526Z" fill="#F7D33C"/>
<path d="M19 12C17.9302 12 16.9256 12.4186 16.1721 13.1721C15.4186 13.9256 15 14.9302 15 16C15 17.0698 15.4186 18.0744 16.1721 18.8279C16.9256 19.5814 17.9302 20 19 20C20.0698 20 21.0744 19.5814 21.8279 18.8279C22.5814 18.0744 23 17.0698 23 16C23 14.9302 22.5814 13.9256 21.8279 13.1721C21.0651 12.4186 20.0698 12 19 12ZM20.2465 17.2465C19.9116 17.5814 19.4744 17.7581 19 17.7581C18.5256 17.7581 18.0884 17.5721 17.7535 17.2465C17.4186 16.9116 17.2419 16.4744 17.2419 16C17.2419 15.5256 17.4279 15.0884 17.7535 14.7535C18.0884 14.4186 18.5256 14.2419 19 14.2419C19.4744 14.2419 19.9116 14.4279 20.2465 14.7535C20.5814 15.0884 20.7581 15.5256 20.7581 16C20.7581 16.4651 20.5814 16.9116 20.2465 17.2465Z" fill="#F7D33C"/>
</svg>
