<svg width="44" height="44" viewBox="0 0 44 44" fill="none" xmlns="http://www.w3.org/2000/svg">
<path d="M30.8906 0H13.1094C11.3955 0 10 1.4498 10 3.23033V40.7689C10 42.5502 11.3955 44 13.1094 44H30.8899C32.6045 44 34 42.5502 34 40.7697V3.23033C34 1.4498 32.6045 0 30.8906 0ZM11.4118 5.86667H32.5882V33.7333H11.4118V5.86667ZM13.1094 1.46667H30.8899C31.8266 1.46667 32.5882 2.25793 32.5882 3.23033V4.4H11.4118V3.23033C11.4118 2.25793 12.1734 1.46667 13.1094 1.46667ZM30.8906 42.5333H13.1094C12.1734 42.5333 11.4118 41.7421 11.4118 40.7697V35.2H32.5882V40.7697C32.5882 41.7421 31.8266 42.5333 30.8906 42.5333Z" fill="#F7D33C"/>
<path d="M22 36C20.3455 36 19 37.3455 19 39C19 40.6545 20.3455 42 22 42C23.6545 42 25 40.6545 25 39C25 37.3455 23.6545 36 22 36ZM22 40.5C21.1727 40.5 20.5 39.8273 20.5 39C20.5 38.1727 21.1727 37.5 22 37.5C22.8273 37.5 23.5 38.1727 23.5 39C23.5 39.8273 22.8273 40.5 22 40.5Z" fill="#F7D33C"/>
<path d="M18.8333 4H22.1667C22.6275 4 23 3.553 23 3C23 2.447 22.6275 2 22.1667 2H18.8333C18.3725 2 18 2.447 18 3C18 3.553 18.3725 4 18.8333 4Z" fill="#F7D33C"/>
<path d="M24.6667 4H25.3333C25.702 4 26 3.553 26 3C26 2.447 25.702 2 25.3333 2H24.6667C24.298 2 24 2.447 24 3C24 3.553 24.298 4 24.6667 4Z" fill="#F7D33C"/>
<path d="M41.3405 4.20741C41.0335 3.93086 40.5373 3.93086 40.2303 4.20741C39.9232 4.48396 39.9232 4.93097 40.2303 5.20751C43.1638 7.84994 43.1638 12.1495 40.2303 14.7927C39.9232 15.0692 39.9232 15.5162 40.2303 15.7928C40.3834 15.9307 40.5844 16 40.7854 16C40.9864 16 41.1874 15.9307 41.3405 15.7928C44.8865 12.5994 44.8865 7.40152 41.3405 4.20741Z" fill="#F7D33C"/>
<path d="M38.2162 4.23106C37.9377 3.92298 37.4874 3.92298 37.2089 4.23106C36.9304 4.53915 36.9304 5.03713 37.2089 5.34522C38.0901 6.31991 38.5752 7.61844 38.5752 9.00049C38.5752 10.3825 38.0901 11.6803 37.2089 12.655C36.9304 12.9631 36.9304 13.461 37.2089 13.7691C37.3478 13.9228 37.5302 14 37.7126 14C37.8949 14 38.0773 13.9228 38.2162 13.7691C39.3667 12.4974 40 10.8033 40 9.00049C40 7.19768 39.3674 5.50281 38.2162 4.23106Z" fill="#F7D33C"/>
<path d="M3.76974 5.20751C4.07675 4.93097 4.07675 4.48396 3.76974 4.20741C3.46273 3.93086 2.96648 3.93086 2.65947 4.20741C-0.88649 7.40152 -0.88649 12.5987 2.65947 15.7928C2.81258 15.9307 3.01359 16 3.2146 16C3.41562 16 3.61663 15.9307 3.76974 15.7928C4.07675 15.5162 4.07675 15.0692 3.76974 14.7927C0.835451 12.1502 0.835451 7.85064 3.76974 5.20751Z" fill="#F7D33C"/>
<path d="M6.7911 4.23106C6.51256 3.92298 6.06233 3.92298 5.78379 4.23106C4.6333 5.50281 4 7.19689 4 8.99971C4 10.8025 4.6333 12.4966 5.78379 13.7691C5.92271 13.9228 6.10508 14 6.28744 14C6.46981 14 6.65218 13.9228 6.7911 13.7691C7.06963 13.461 7.06963 12.9631 6.7911 12.655C5.90988 11.6803 5.42476 10.3818 5.42476 8.99971C5.42476 7.61765 5.90917 6.31991 6.7911 5.34522C7.06892 5.03792 7.06892 4.53915 6.7911 4.23106Z" fill="#F7D33C"/>
</svg>
