<svg width="40" height="44" viewBox="0 0 40 44" fill="none" xmlns="http://www.w3.org/2000/svg">
<path d="M1.41935 4.25806H22.7097V9.22581C22.7097 9.61842 23.0267 9.93548 23.4194 9.93548H28.3871V15.6129H29.8064V9.22581C29.8064 9.02933 29.7264 8.85191 29.5978 8.72335L23.9225 3.04801C23.7933 2.91876 23.6158 2.83871 23.4194 2.83871H4.25806V1.41935H31.2258V17.0323H32.6452V0.709677C32.6452 0.317068 32.3281 0 31.9355 0H3.54839C3.15578 0 2.83871 0.317068 2.83871 0.709677V2.83871H0.709677C0.317068 2.83871 0 3.15578 0 3.54839V43.2903C0 43.6829 0.317068 44 0.709677 44H24.8387V42.5806H1.41935V4.25806ZM24.129 5.26159L27.3836 8.51613H24.129V5.26159Z" fill="#0F63E1"/>
<path d="M39.0318 21.2904H37.9631C34.7942 21.2904 31.8138 19.8946 29.7856 17.461L29.6421 17.2884C29.3732 16.9641 28.8202 16.9641 28.5513 17.2884L28.4078 17.4603C26.3789 19.8946 23.3985 21.2904 20.2295 21.2904H19.1608C18.7682 21.2904 18.4512 21.6075 18.4512 22.0001V33.4939C18.4512 36.2886 19.9585 38.8861 22.3849 40.2722L28.7443 43.9065C28.8531 43.9689 28.9751 44.0001 29.0963 44.0001C29.2176 44.0001 29.3396 43.9689 29.4484 43.9065L35.8078 40.2722C38.2341 38.8861 39.7415 36.2886 39.7415 33.4939V22.0001C39.7415 21.6075 39.4244 21.2904 39.0318 21.2904ZM38.3221 33.4939C38.3221 35.7806 37.0896 37.9055 35.1036 39.0393L29.0963 42.4737L23.089 39.0403C21.1031 37.9055 19.8705 35.7806 19.8705 33.4939V22.7098H20.2295C23.6161 22.7098 26.8141 21.3025 29.0963 18.827C31.3778 21.3025 34.5766 22.7098 37.9631 22.7098H38.3221V33.4939Z" fill="#0F63E1"/>
<path d="M29.0975 23.4194C24.7933 23.4194 21.291 26.9217 21.291 31.2259C21.291 35.53 24.7933 39.0323 29.0975 39.0323C33.4016 39.0323 36.9039 35.53 36.9039 31.2259C36.9039 26.9217 33.4016 23.4194 29.0975 23.4194ZM29.0975 37.613C25.5754 37.613 22.7104 34.7479 22.7104 31.2259C22.7104 27.7038 25.5754 24.8388 29.0975 24.8388C32.6195 24.8388 35.4846 27.7038 35.4846 31.2259C35.4846 34.7479 32.6195 37.613 29.0975 37.613Z" fill="#0F63E1"/>
<path d="M28.759 33.4321L27.4703 32.1434L26.4668 33.1469L28.5958 35.2759C28.7299 35.4107 28.9115 35.4838 29.0976 35.4838C29.1551 35.4838 29.2133 35.4769 29.2709 35.4627C29.5134 35.4014 29.705 35.217 29.7775 34.9779L31.9065 27.8811L30.5467 27.4736L28.759 33.4321Z" fill="#0F63E1"/>
<path d="M2.83789 11.3547H21.2895V12.7741H2.83789V11.3547Z" fill="#0F63E1"/>
<path d="M2.83789 14.1936H21.2895V15.613H2.83789V14.1936Z" fill="#0F63E1"/>
<path d="M2.83789 17.0322H21.2895V18.4516H2.83789V17.0322Z" fill="#0F63E1"/>
<path d="M2.83789 19.8708H17.0314V21.2902H2.83789V19.8708Z" fill="#0F63E1"/>
<path d="M2.83789 22.7097H17.0314V24.1291H2.83789V22.7097Z" fill="#0F63E1"/>
<path d="M2.83789 25.5483H17.0314V26.9677H2.83789V25.5483Z" fill="#0F63E1"/>
<path d="M2.83789 34.0645H17.0314V35.4838H2.83789V34.0645Z" fill="#0F63E1"/>
<path d="M2.83789 36.9033H17.0314V38.3227H2.83789V36.9033Z" fill="#0F63E1"/>
<path d="M2.83789 39.7419H17.0314V41.1613H2.83789V39.7419Z" fill="#0F63E1"/>
<path d="M3.54883 5.67749H4.96818V7.09685H3.54883V5.67749Z" fill="#0F63E1"/>
<path d="M6.38672 5.67749H7.80607V7.09685H6.38672V5.67749Z" fill="#0F63E1"/>
<path d="M9.22656 5.67749H10.6459V7.09685H9.22656V5.67749Z" fill="#0F63E1"/>
<path d="M12.0645 5.67749H21.2903V7.09685H12.0645V5.67749Z" fill="#0F63E1"/>
</svg>
