<svg width="44" height="30" viewBox="0 0 44 30" fill="none" xmlns="http://www.w3.org/2000/svg">
<path d="M43.6089 1.99903C43.3645 1.82715 43.0512 1.78505 42.7701 1.88894L35.2972 4.60672C34.3707 4.94334 33.633 5.6219 33.2203 6.51703C33.143 6.68487 33.0922 6.85923 33.0413 7.03334C31.7581 6.66854 29.3733 5.90662 27.0033 4.68553C23.4221 2.84019 20.6861 3.75164 18.3394 5.54155C17.1504 5.56493 15.5116 5.70552 13.9006 5.84749C12.8729 5.93816 11.9018 6.0216 11.1142 6.06964C11.0949 5.59664 10.9842 5.12725 10.78 4.68381C10.3673 3.7886 9.62975 3.11003 8.70317 2.7735L1.23003 0.0555489C0.949869 -0.0474045 0.634736 -0.00529451 0.391274 0.165636C0.145922 0.337597 0 0.617753 0 0.916731V19.2501C0 19.7568 0.410009 20.1668 0.916697 20.1668H3.59417C4.73293 20.1668 5.79237 19.6297 6.47721 18.7624C6.84201 19.0398 7.27411 19.3646 7.72726 19.7049C8.79701 20.5097 9.96791 21.3878 10.4817 21.8184C13.8951 24.6758 17.9986 27.7615 18.8159 28.2986C19.5794 28.7999 20.9544 29.3335 22 29.3335C22.4091 29.3335 23.4395 29.3335 24.1628 28.722C24.9085 29.0147 25.7124 29.0005 26.4599 28.671C27.2055 28.3424 27.8089 27.723 28.1598 26.9701C28.8759 27.1169 29.6986 27.0095 30.4443 26.6353C31.1434 26.2853 31.6581 25.7553 31.9338 25.1359C32.5962 25.1967 33.3035 24.981 33.9364 24.4967C34.8406 23.8055 35.2546 22.7847 35.1375 21.7777L37.4627 20.4913C38.1437 21.4143 39.226 22 40.4058 22H43.0833C43.59 22 44 21.59 44 21.0833V2.75012C44.0001 2.45106 43.8542 2.17091 43.6089 1.99903ZM5.31112 17.1437C5.04437 17.8554 4.3542 18.3335 3.59417 18.3335H1.83331V2.22548L8.07634 4.49569C8.54006 4.6649 8.9089 5.00418 9.11472 5.45175C9.32149 5.89931 9.33945 6.40067 9.16663 6.86164L5.31112 17.1437ZM32.8237 23.0404C32.5131 23.2785 32.078 23.411 31.8847 23.2176C31.8748 23.2078 31.8595 23.2087 31.8494 23.1993C31.8318 23.183 31.8232 23.1611 31.8042 23.146C31.1489 22.6285 28.2127 19.6243 26.3982 17.7319C26.0481 17.3658 25.4672 17.3523 25.1028 17.7041C24.7367 18.0542 24.7242 18.6342 25.0751 18.9995C25.501 19.444 28.9199 23.0049 30.2883 24.2502C30.1861 24.6527 29.813 24.9012 29.6235 24.9963C29.0363 25.2908 28.424 25.2416 28.1948 25.0285C28.188 25.0222 28.1778 25.0225 28.1708 25.0163C28.1596 25.0063 28.1546 24.9923 28.1428 24.9829C27.0435 24.1047 24.2855 21.1739 23.6615 20.4953C23.3186 20.122 22.7395 20.0987 22.3661 20.4407C21.9938 20.7836 21.9687 21.3637 22.3116 21.7361C22.3416 21.7686 25.0446 24.6843 26.5626 26.0385C26.4135 26.4672 26.1095 26.8222 25.7195 26.9943C25.4317 27.1222 24.9816 27.1878 24.4672 26.8077C23.1508 25.6915 20.509 22.8794 19.9894 22.3233C19.6448 21.9526 19.063 21.9339 18.6941 22.2795C18.3244 22.625 18.3047 23.2051 18.6503 23.5748C19.2663 24.2341 21.087 26.1639 22.4712 27.4706C22.3166 27.4894 22.1542 27.5002 22 27.5002C21.3931 27.5002 20.3502 27.1126 19.823 26.7661C19.1803 26.3435 15.1447 23.3322 11.6598 20.4138C11.1325 19.9716 9.92941 19.0666 8.82829 18.2394C8.23816 17.7964 7.69443 17.388 7.2937 17.0797L10.7259 7.92598C11.6168 7.88705 12.8045 7.78435 14.0616 7.67349C14.7725 7.61085 15.4842 7.54974 16.1644 7.49681C15.119 8.56991 13.5648 10.4919 13.7697 12.2935C13.8637 13.1135 14.3122 13.7966 15.0687 14.2692C16.5663 15.2064 19.3387 14.4205 20.6743 12.7778C21.5363 12.6534 22.1192 12.4332 22.7547 12.1181C23.8289 13.1279 25.2692 14.3149 26.7821 15.5619C29.4158 17.7318 32.4012 20.1918 33.1908 21.5712C33.6302 22.3385 33.0207 22.89 32.8237 23.0404ZM34.3963 20.0923C33.1749 18.4585 30.5274 16.2725 27.9476 14.1467C26.228 12.7296 24.6041 11.3912 23.5648 10.352C23.2784 10.0673 22.8388 10.0028 22.4843 10.1917C21.5506 10.6921 21.1299 10.8989 20.0754 11.0045C19.7943 11.0331 19.5419 11.1889 19.3915 11.4279C18.6726 12.5684 16.6746 13.1109 16.0408 12.7152C15.6809 12.4896 15.6111 12.2604 15.5914 12.0859C15.5028 11.3062 16.2923 9.95626 17.602 8.64571C20.8453 5.40242 23.1638 4.76777 26.1636 6.31465C29.0136 7.7841 31.8264 8.61494 33.0072 8.92879C33.0413 9.06611 33.0661 9.20482 33.1164 9.33948L36.6757 18.8314L34.3963 20.0923ZM42.1668 20.1668H40.4059C39.6459 20.1668 38.9557 19.6887 38.689 18.977L34.8334 8.69589C34.6606 8.23398 34.6785 7.73271 34.8853 7.28506C35.0912 6.83749 35.46 6.49821 35.9237 6.329L42.1667 4.05878V20.1668H42.1668Z" fill="#0F63E1"/>
</svg>
