<svg width="44" height="44" viewBox="0 0 44 44" fill="none" xmlns="http://www.w3.org/2000/svg">
<path d="M33.0001 0H3.66668C1.64267 0.00238334 0.00238336 1.64267 2.22748e-08 3.66668V27.1334C-0.000183312 28.8059 1.13135 30.2664 2.75074 30.6842L3.11741 29.2645C2.14547 29.0139 1.46631 28.1372 1.46667 27.1334V3.66668C1.46667 2.45163 2.45163 1.46667 3.66668 1.46667H33.0001C34.2152 1.46667 35.2001 2.45163 35.2001 3.66668V4.40002H36.6668V3.66668C36.6644 1.64267 35.0241 0.00238334 33.0001 0Z" fill="#0F63E1"/>
<path d="M4.40027 2.93335H2.93359V4.40002H4.40027V2.93335Z" fill="#0F63E1"/>
<path d="M7.33386 2.93335H5.86719V4.40002H7.33386V2.93335Z" fill="#0F63E1"/>
<path d="M10.2675 2.93335H8.80078V4.40002H10.2675V2.93335Z" fill="#0F63E1"/>
<path d="M43.0526 40.5484L36.0969 33.5927C36.4623 32.9405 36.7545 32.2498 36.9681 31.5335H38.1341V30.0668H37.2834C37.5596 28.2917 37.3467 26.4748 36.6674 24.8117V17.6001H35.2008V22.27C34.7652 21.7136 34.2738 21.2035 33.7341 20.7476V14.6667H32.2674V19.7224C31.798 19.4503 31.3075 19.2161 30.8007 19.022V11.7334H29.3341V18.5769C28.8508 18.4726 28.3607 18.4037 27.8674 18.3708V13.2001H26.4007V18.3708C25.9075 18.4037 25.4173 18.4726 24.934 18.5769V16.1334H23.4674V19.022C22.9606 19.2161 22.4702 19.4503 22.0007 19.7224V15.4001H20.534V20.7476C19.9943 21.2035 19.5029 21.7136 19.0674 22.27V16.8668H17.6007V24.8117C16.9214 26.4748 16.7085 28.2917 16.9847 30.0668H7.33398V31.5335H17.3C18.9084 36.9585 24.6101 40.0525 30.035 38.4441C31.1041 38.1271 32.1142 37.6378 33.0257 36.9954L39.8156 43.7853C40.102 44.0716 40.5662 44.0716 40.8526 43.7853L43.0526 41.5853C43.3389 41.2989 43.3389 40.8347 43.0526 40.5484ZM27.1341 37.4002C22.2761 37.3949 18.3392 33.4581 18.334 28.6001C18.334 23.74 22.274 19.8001 27.1341 19.8001C31.9941 19.8001 35.9341 23.74 35.9341 28.6001C35.9341 33.4602 31.9941 37.4002 27.1341 37.4002ZM40.3341 42.2299L34.1653 36.0611C34.5649 35.6834 34.934 35.2747 35.2689 34.8386L41.4972 41.0668L40.3341 42.2299Z" fill="#0F63E1"/>
<path d="M27.1341 21.2668C23.084 21.2668 19.8008 24.5501 19.8008 28.6002C19.8008 32.6503 23.084 35.9336 27.1341 35.9336C31.1843 35.9336 34.4675 32.6503 34.4675 28.6002C34.4631 24.5519 31.1824 21.2712 27.1341 21.2668ZM27.1341 34.4669C25.0408 34.4642 23.1076 33.3464 22.0609 31.5335H32.2074C31.1607 33.3464 29.2274 34.4642 27.1341 34.4669ZM21.4603 30.0669C20.8703 27.8339 21.6581 25.4634 23.4675 24.0279V28.6002H24.9341V23.1655C25.4044 22.9752 25.8975 22.847 26.4008 22.7841V28.6002H27.8675V22.7841C28.3708 22.847 28.8639 22.9752 29.3341 23.1655V28.6002H30.8008V24.0279C32.6101 25.4634 33.398 27.8339 32.808 30.0669H21.4603Z" fill="#0F63E1"/>
<path d="M37.4005 5.8667H8.06707C6.04306 5.86908 4.40277 7.50937 4.40039 9.53338V33.0001C4.40277 35.0241 6.04306 36.6644 8.06707 36.6668H17.6004V35.2001H8.06707C6.85202 35.2001 5.86706 34.2152 5.86706 33.0001V9.53338C5.86706 8.31833 6.85202 7.33337 8.06707 7.33337H37.4005C38.6156 7.33337 39.6005 8.31833 39.6005 9.53338V33.0001C39.6004 33.5359 39.4049 34.0532 39.0505 34.4551L40.1505 35.4253C40.7416 34.7557 41.0676 33.8932 41.0672 33.0001V9.53338C41.0648 7.50937 39.4245 5.86908 37.4005 5.8667Z" fill="#0F63E1"/>
<path d="M8.80066 8.80005H7.33398V10.2667H8.80066V8.80005Z" fill="#0F63E1"/>
<path d="M11.7343 8.80005H10.2676V10.2667H11.7343V8.80005Z" fill="#0F63E1"/>
<path d="M14.6659 8.80005H13.1992V10.2667H14.6659V8.80005Z" fill="#0F63E1"/>
<path d="M10.2675 24.2002H8.80078V28.6002H10.2675V24.2002Z" fill="#0F63E1"/>
<path d="M13.201 19.8H11.7344V28.6001H13.201V19.8Z" fill="#0F63E1"/>
<path d="M16.1327 22H14.666V28.6H16.1327V22Z" fill="#0F63E1"/>
</svg>
