<svg width="39" height="44" viewBox="0 0 39 44" fill="none" xmlns="http://www.w3.org/2000/svg">
<path d="M32.2669 28.5997C32.2628 24.9563 29.3103 22.0038 25.6669 21.9998H12.4671C8.82212 21.9998 5.86719 24.9546 5.86719 28.5997C5.86719 32.2447 8.82212 35.1996 12.4671 35.1996H18.3337V41.7995C18.3338 42.2045 18.6621 42.5327 19.0672 42.5327C19.2616 42.5327 19.448 42.4554 19.5855 42.318L21.7994 40.1041L23.5403 43.594C23.7212 43.9563 24.1614 44.1035 24.5239 43.9228C24.5241 43.9227 24.5242 43.9226 24.5244 43.9225L27.4577 42.4558C27.8201 42.2751 27.9673 41.8347 27.7865 41.4723C27.7864 41.4721 27.7863 41.4719 27.7862 41.4717L26.1201 38.1329H29.3336C29.7385 38.1328 30.0668 37.8045 30.0667 37.3994C30.0667 37.205 29.9894 37.0186 29.852 36.8811L27.8097 34.8388C30.4736 33.9221 32.2633 31.4169 32.2669 28.5997ZM24.9336 36.6662C24.5286 36.664 24.1986 36.9906 24.1963 37.3955C24.1956 37.5107 24.2221 37.6243 24.2736 37.7274L26.1458 41.4717L24.5244 42.282L22.6603 38.5384C22.5548 38.3274 22.3542 38.18 22.1213 38.1424C22.0814 38.1358 22.0408 38.1326 22.0003 38.1329C21.8058 38.1329 21.6194 38.2103 21.4819 38.3478L19.8003 40.0293V28.9033L27.5633 36.6662H24.9336ZM26.6122 33.6405L19.5855 26.6146C19.299 26.3282 18.8347 26.3283 18.5484 26.6147C18.411 26.7522 18.3337 26.9387 18.3337 27.133V33.7329H12.4671C9.63208 33.7329 7.33384 31.4347 7.33384 28.5997C7.33384 25.7646 9.63208 23.4664 12.4671 23.4664H25.6669C28.502 23.4797 30.7894 25.7887 30.7761 28.6236C30.7646 31.0758 29.0203 33.1775 26.6122 33.6405Z" fill="#0F63E1"/>
<path d="M3.66662 27.8662H0.733324C0.328346 27.8662 0 28.1946 0 28.5995C0 29.0045 0.328346 29.3329 0.733324 29.3329H3.66662C4.0716 29.3329 4.39995 29.0045 4.39995 28.5995C4.39995 28.1946 4.0716 27.8662 3.66662 27.8662Z" fill="#0F63E1"/>
<path d="M4.92321 31.3766C4.80037 30.9907 4.38797 30.7774 4.00206 30.9002C3.98308 30.9062 3.96438 30.913 3.94596 30.9206L1.18939 31.9238C0.806232 32.055 0.60191 32.4719 0.733083 32.8551C0.864256 33.2383 1.28115 33.4426 1.6644 33.3114C1.67339 33.3084 1.68228 33.3051 1.69108 33.3017L4.44691 32.2978C4.83264 32.175 5.04595 31.7626 4.92321 31.3766Z" fill="#0F63E1"/>
<path d="M4.44678 24.9015L1.69095 23.8975C1.3131 23.7517 0.8886 23.9397 0.74276 24.3176C0.59692 24.6954 0.784926 25.1199 1.16277 25.2657C1.17157 25.2691 1.18046 25.2723 1.18945 25.2755L3.94601 26.2786C4.02622 26.3085 4.11119 26.3237 4.19681 26.3234C4.60179 26.3222 4.92922 25.9929 4.92803 25.5879C4.92702 25.281 4.73507 25.0071 4.44678 24.9015Z" fill="#0F63E1"/>
<path d="M37.399 27.8662H34.4657C34.0608 27.8662 33.7324 28.1946 33.7324 28.5995C33.7324 29.0045 34.0608 29.3329 34.4657 29.3329H37.399C37.804 29.3329 38.1324 29.0045 38.1324 28.5995C38.1324 28.1946 37.804 27.8662 37.399 27.8662Z" fill="#0F63E1"/>
<path d="M37.3982 24.3472C37.267 23.964 36.8501 23.7597 36.467 23.8908C36.458 23.8938 36.4491 23.8971 36.4403 23.9005L33.6845 24.9044C33.3041 25.0436 33.1088 25.4649 33.248 25.8452C33.3536 26.1334 33.6275 26.3254 33.9345 26.3263C34.0201 26.3266 34.1051 26.3115 34.1853 26.2816L36.9419 25.2784C37.325 25.1472 37.5293 24.7303 37.3982 24.3472Z" fill="#0F63E1"/>
<path d="M36.9691 31.9335C36.9603 31.9301 36.9514 31.9268 36.9424 31.9238L34.1859 30.9206C33.8112 30.7668 33.3828 30.9458 33.229 31.3205C33.0752 31.6951 33.2542 32.1235 33.6288 32.2774C33.6472 32.285 33.6659 32.2917 33.6849 32.2978L36.4407 33.3017C36.8186 33.4476 37.2431 33.2596 37.389 32.8818C37.535 32.504 37.347 32.0794 36.9691 31.9335Z" fill="#0F63E1"/>
<path d="M9.53381 11H8.06716C7.66218 11 7.33384 10.6716 7.33384 10.2666V9.53332C7.33384 9.12834 7.66218 8.8 8.06716 8.8H9.53381C9.93879 8.8 10.2671 9.12834 10.2671 9.53332C10.2671 9.9383 10.5955 10.2666 11.0005 10.2666C11.4054 10.2666 11.7338 9.9383 11.7338 9.53332C11.7338 8.31829 10.7488 7.33335 9.53381 7.33335V6.60002C9.53381 6.19505 9.20546 5.8667 8.80049 5.8667C8.39551 5.8667 8.06716 6.19505 8.06716 6.60002V7.33335C6.85213 7.33335 5.86719 8.31829 5.86719 9.53332V10.2666C5.86719 11.4817 6.85213 12.4666 8.06716 12.4666H9.53381C9.93879 12.4666 10.2671 12.795 10.2671 13.1999V13.9333C10.2671 14.3382 9.93879 14.6666 9.53381 14.6666H8.06716C7.66218 14.6666 7.33384 14.3382 7.33384 13.9333C7.33384 13.5283 7.00549 13.1999 6.60051 13.1999C6.19553 13.1999 5.86719 13.5283 5.86719 13.9333C5.86719 15.1483 6.85213 16.1332 8.06716 16.1332V16.8666C8.06716 17.2715 8.39551 17.5999 8.80049 17.5999C9.20546 17.5999 9.53381 17.2715 9.53381 16.8666V16.1332C10.7488 16.1332 11.7338 15.1483 11.7338 13.9333V13.1999C11.7338 11.9849 10.7488 11 9.53381 11Z" fill="#0F63E1"/>
<path d="M8.79989 2.93335C3.93988 2.93335 0 6.87323 0 11.7332C0.00522494 16.5911 3.94199 20.5279 8.79989 20.5331C13.6599 20.5331 17.5998 16.5933 17.5998 11.7332C17.5998 6.87323 13.6599 2.93335 8.79989 2.93335ZM8.79989 19.0665C4.74983 19.0665 1.46665 15.7833 1.46665 11.7332C1.47114 7.68502 4.75167 4.40449 8.79989 4.4C12.85 4.4 16.1331 7.68318 16.1331 11.7332C16.1331 15.7833 12.85 19.0665 8.79989 19.0665Z" fill="#0F63E1"/>
<path d="M30.067 8.06662H28.6004C28.1954 8.06662 27.867 7.73827 27.867 7.3333V6.59997C27.867 6.19499 28.1954 5.86665 28.6004 5.86665H30.067C30.472 5.86665 30.8003 6.19499 30.8003 6.59997C30.8003 7.00495 31.1287 7.3333 31.5337 7.3333C31.9386 7.3333 32.267 7.00495 32.267 6.59997C32.267 5.38494 31.282 4.4 30.067 4.4V3.66667C30.067 3.2617 29.7387 2.93335 29.3337 2.93335C28.9287 2.93335 28.6004 3.2617 28.6004 3.66667V4.4C27.3853 4.4 26.4004 5.38494 26.4004 6.59997V7.3333C26.4004 8.54832 27.3853 9.53327 28.6004 9.53327H30.067C30.472 9.53327 30.8003 9.86161 30.8003 10.2666V10.9999C30.8003 11.4049 30.472 11.7332 30.067 11.7332H28.6004C28.1954 11.7332 27.867 11.4049 27.867 10.9999C27.867 10.5949 27.5387 10.2666 27.1337 10.2666C26.7287 10.2666 26.4004 10.5949 26.4004 10.9999C26.4004 12.2149 27.3853 13.1999 28.6004 13.1999V13.9332C28.6004 14.3382 28.9287 14.6665 29.3337 14.6665C29.7387 14.6665 30.067 14.3382 30.067 13.9332V13.1999C31.282 13.1999 32.267 12.2149 32.267 10.9999V10.2666C32.267 9.05157 31.282 8.06662 30.067 8.06662Z" fill="#0F63E1"/>
<path d="M29.3331 0C24.4731 0 20.5332 3.93988 20.5332 8.79989C20.5384 13.6578 24.4752 17.5946 29.3331 17.5998C34.1931 17.5998 38.133 13.6599 38.133 8.79989C38.133 3.93988 34.1931 0 29.3331 0ZM29.3331 16.1331C25.283 16.1331 21.9999 12.8499 21.9999 8.79989C22.0043 4.75167 25.2849 1.47114 29.3331 1.46665C33.3832 1.46665 36.6663 4.74983 36.6663 8.79989C36.6663 12.8499 33.3832 16.1331 29.3331 16.1331Z" fill="#0F63E1"/>
</svg>
