<svg width="380" height="263" viewBox="0 0 380 263" fill="none" xmlns="http://www.w3.org/2000/svg">
<rect x="16" y="194" width="364" height="1" fill="#E6E6E7"/>
<rect x="16" y="262" width="364" height="1" fill="#E6E6E7"/>
<rect x="16" y="228" width="364" height="1" fill="#E6E6E7"/>
<rect x="16" y="160" width="364" height="1" fill="#E6E6E7"/>
<rect x="16" y="125" width="364" height="1" fill="#E6E6E7"/>
<rect x="16" y="90" width="364" height="1" fill="#E6E6E7"/>
<rect x="16" y="55" width="364" height="1" fill="#E6E6E7"/>
<rect x="16" y="21" width="364" height="1" fill="#E6E6E7"/>
<rect x="20" width="263" height="0.999988" transform="rotate(90 20 0)" fill="#E6E6E7"/>
<path d="M48 262L90.9589 150.612L120.412 113.466L150.365 168.272L177.322 153.657L209.272 151.83L235.73 159.746L264.684 127.472L293.638 123.209L322.592 86.6716L350.548 93.8507L364.774 64.9254L379 36" stroke="#67D864" stroke-width="2"/>
<path d="M8.338 259.148C8.518 259.466 8.608 259.826 8.608 260.228C8.608 260.63 8.518 260.99 8.338 261.308C8.158 261.626 7.918 261.878 7.618 262.064C7.318 262.25 6.988 262.391 6.628 262.487C6.268 262.583 5.893 262.631 5.503 262.631C5.113 262.631 4.738 262.583 4.378 262.487C4.018 262.391 3.691 262.25 3.397 262.064C3.097 261.878 2.857 261.626 2.677 261.308C2.497 260.99 2.407 260.63 2.407 260.228C2.407 259.826 2.497 259.466 2.677 259.148C2.857 258.83 3.097 258.578 3.397 258.392C3.691 258.206 4.018 258.065 4.378 257.969C4.738 257.873 5.113 257.825 5.503 257.825C5.893 257.825 6.268 257.873 6.628 257.969C6.988 258.065 7.318 258.206 7.618 258.392C7.918 258.578 8.158 258.83 8.338 259.148ZM7.06 261.236C7.468 261.02 7.672 260.684 7.672 260.228C7.672 259.772 7.468 259.436 7.06 259.22C6.652 259.004 6.133 258.896 5.503 258.896C5.101 258.896 4.744 258.938 4.432 259.022C4.12 259.1 3.862 259.244 3.658 259.454C3.448 259.658 3.343 259.916 3.343 260.228C3.343 260.54 3.448 260.801 3.658 261.011C3.862 261.215 4.12 261.359 4.432 261.443C4.744 261.521 5.101 261.56 5.503 261.56C6.133 261.56 6.652 261.452 7.06 261.236Z" fill="#959CB0"/>
<path d="M8 224.203L8 228.55L7.172 228.55C6.224 227.296 5.522 226.444 5.066 225.994C4.604 225.538 4.169 225.31 3.761 225.31C3.467 225.31 3.242 225.418 3.086 225.634C2.924 225.844 2.843 226.099 2.843 226.399C2.843 227.059 3.083 227.599 3.563 228.019L2.87 228.631C2.558 228.373 2.321 228.049 2.159 227.659C1.991 227.263 1.907 226.849 1.907 226.417C1.907 225.805 2.072 225.289 2.402 224.869C2.732 224.449 3.185 224.239 3.761 224.239C4.277 224.239 4.79 224.455 5.3 224.887C5.81 225.319 6.401 225.979 7.073 226.867L7.073 224.203L8 224.203ZM8.108 220.911C8.108 221.877 7.799 222.621 7.181 223.143L6.461 222.54C6.935 222.12 7.172 221.58 7.172 220.92C7.172 220.548 7.073 220.251 6.875 220.029C6.671 219.801 6.419 219.687 6.119 219.687C5.795 219.687 5.537 219.798 5.345 220.02C5.147 220.236 5.048 220.527 5.048 220.893C5.048 221.403 5.222 221.841 5.57 222.207L5.354 222.954L1.997 222.954L1.997 219.021L2.924 219.021L2.924 221.901L4.661 221.901C4.313 221.553 4.139 221.1 4.139 220.542C4.139 220.014 4.316 219.564 4.67 219.192C5.018 218.814 5.486 218.625 6.074 218.625C6.692 218.625 7.187 218.838 7.559 219.264C7.925 219.684 8.108 220.233 8.108 220.911ZM7.838 214.399C8.018 214.717 8.108 215.077 8.108 215.479C8.108 215.881 8.018 216.241 7.838 216.559C7.658 216.877 7.418 217.129 7.118 217.315C6.818 217.501 6.488 217.642 6.128 217.738C5.768 217.834 5.393 217.882 5.003 217.882C4.613 217.882 4.238 217.834 3.878 217.738C3.518 217.642 3.191 217.501 2.897 217.315C2.597 217.129 2.357 216.877 2.177 216.559C1.997 216.241 1.907 215.881 1.907 215.479C1.907 215.077 1.997 214.717 2.177 214.399C2.357 214.081 2.597 213.829 2.897 213.643C3.191 213.457 3.518 213.316 3.878 213.22C4.238 213.124 4.613 213.076 5.003 213.076C5.393 213.076 5.768 213.124 6.128 213.22C6.488 213.316 6.818 213.457 7.118 213.643C7.418 213.829 7.658 214.081 7.838 214.399ZM6.56 216.487C6.968 216.271 7.172 215.935 7.172 215.479C7.172 215.023 6.968 214.687 6.56 214.471C6.152 214.255 5.633 214.147 5.003 214.147C4.601 214.147 4.244 214.189 3.932 214.273C3.62 214.351 3.362 214.495 3.158 214.705C2.948 214.909 2.843 215.167 2.843 215.479C2.843 215.791 2.948 216.052 3.158 216.262C3.362 216.466 3.62 216.61 3.932 216.694C4.244 216.772 4.601 216.811 5.003 216.811C5.633 216.811 6.152 216.703 6.56 216.487Z" fill="#959CB0"/>
<path d="M8.108 192.264C8.108 193.23 7.799 193.974 7.181 194.496L6.461 193.893C6.935 193.473 7.172 192.933 7.172 192.273C7.172 191.901 7.073 191.604 6.875 191.382C6.671 191.154 6.419 191.04 6.119 191.04C5.795 191.04 5.537 191.151 5.345 191.373C5.147 191.589 5.048 191.88 5.048 192.246C5.048 192.756 5.222 193.194 5.57 193.56L5.354 194.307L1.997 194.307L1.997 190.374L2.924 190.374L2.924 193.254L4.661 193.254C4.313 192.906 4.139 192.453 4.139 191.895C4.139 191.367 4.316 190.917 4.67 190.545C5.018 190.167 5.486 189.978 6.074 189.978C6.692 189.978 7.187 190.191 7.559 190.617C7.925 191.037 8.108 191.586 8.108 192.264ZM7.838 185.752C8.018 186.07 8.108 186.43 8.108 186.832C8.108 187.234 8.018 187.594 7.838 187.912C7.658 188.23 7.418 188.482 7.118 188.668C6.818 188.854 6.488 188.995 6.128 189.091C5.768 189.187 5.393 189.235 5.003 189.235C4.613 189.235 4.238 189.187 3.878 189.091C3.518 188.995 3.191 188.854 2.897 188.668C2.597 188.482 2.357 188.23 2.177 187.912C1.997 187.594 1.907 187.234 1.907 186.832C1.907 186.43 1.997 186.07 2.177 185.752C2.357 185.434 2.597 185.182 2.897 184.996C3.191 184.81 3.518 184.669 3.878 184.573C4.238 184.477 4.613 184.429 5.003 184.429C5.393 184.429 5.768 184.477 6.128 184.573C6.488 184.669 6.818 184.81 7.118 184.996C7.418 185.182 7.658 185.434 7.838 185.752ZM6.56 187.84C6.968 187.624 7.172 187.288 7.172 186.832C7.172 186.376 6.968 186.04 6.56 185.824C6.152 185.608 5.633 185.5 5.003 185.5C4.601 185.5 4.244 185.542 3.932 185.626C3.62 185.704 3.362 185.848 3.158 186.058C2.948 186.262 2.843 186.52 2.843 186.832C2.843 187.144 2.948 187.405 3.158 187.615C3.362 187.819 3.62 187.963 3.932 188.047C4.244 188.125 4.601 188.164 5.003 188.164C5.633 188.164 6.152 188.056 6.56 187.84ZM7.838 180.206C8.018 180.524 8.108 180.884 8.108 181.286C8.108 181.688 8.018 182.048 7.838 182.366C7.658 182.684 7.418 182.936 7.118 183.122C6.818 183.308 6.488 183.449 6.128 183.545C5.768 183.641 5.393 183.689 5.003 183.689C4.613 183.689 4.238 183.641 3.878 183.545C3.518 183.449 3.191 183.308 2.897 183.122C2.597 182.936 2.357 182.684 2.177 182.366C1.997 182.048 1.907 181.688 1.907 181.286C1.907 180.884 1.997 180.524 2.177 180.206C2.357 179.888 2.597 179.636 2.897 179.45C3.191 179.264 3.518 179.123 3.878 179.027C4.238 178.931 4.613 178.883 5.003 178.883C5.393 178.883 5.768 178.931 6.128 179.027C6.488 179.123 6.818 179.264 7.118 179.45C7.418 179.636 7.658 179.888 7.838 180.206ZM6.56 182.294C6.968 182.078 7.172 181.742 7.172 181.286C7.172 180.83 6.968 180.494 6.56 180.278C6.152 180.062 5.633 179.954 5.003 179.954C4.601 179.954 4.244 179.996 3.932 180.08C3.62 180.158 3.362 180.302 3.158 180.512C2.948 180.716 2.843 180.974 2.843 181.286C2.843 181.598 2.948 181.859 3.158 182.069C3.362 182.273 3.62 182.417 3.932 182.501C4.244 182.579 4.601 182.618 5.003 182.618C5.633 182.618 6.152 182.51 6.56 182.294Z" fill="#959CB0"/>
<path d="M8 158.759L8 159.911L2.924 157.643L2.924 160.757L1.997 160.757L1.997 156.428L2.726 156.428L8 158.759ZM8.108 153.474C8.108 154.44 7.799 155.184 7.181 155.706L6.461 155.103C6.935 154.683 7.172 154.143 7.172 153.483C7.172 153.111 7.073 152.814 6.875 152.592C6.671 152.364 6.419 152.25 6.119 152.25C5.795 152.25 5.537 152.361 5.345 152.583C5.147 152.799 5.048 153.09 5.048 153.456C5.048 153.966 5.222 154.404 5.57 154.77L5.354 155.517L1.997 155.517L1.997 151.584L2.924 151.584L2.924 154.464L4.661 154.464C4.313 154.116 4.139 153.663 4.139 153.105C4.139 152.577 4.316 152.127 4.67 151.755C5.018 151.377 5.486 151.188 6.074 151.188C6.692 151.188 7.187 151.401 7.559 151.827C7.925 152.247 8.108 152.796 8.108 153.474ZM7.838 146.961C8.018 147.279 8.108 147.639 8.108 148.041C8.108 148.443 8.018 148.803 7.838 149.121C7.658 149.439 7.418 149.691 7.118 149.877C6.818 150.063 6.488 150.204 6.128 150.3C5.768 150.396 5.393 150.444 5.003 150.444C4.613 150.444 4.238 150.396 3.878 150.3C3.518 150.204 3.191 150.063 2.897 149.877C2.597 149.691 2.357 149.439 2.177 149.121C1.997 148.803 1.907 148.443 1.907 148.041C1.907 147.639 1.997 147.279 2.177 146.961C2.357 146.643 2.597 146.391 2.897 146.205C3.191 146.019 3.518 145.878 3.878 145.782C4.238 145.686 4.613 145.638 5.003 145.638C5.393 145.638 5.768 145.686 6.128 145.782C6.488 145.878 6.818 146.019 7.118 146.205C7.418 146.391 7.658 146.643 7.838 146.961ZM6.56 149.049C6.968 148.833 7.172 148.497 7.172 148.041C7.172 147.585 6.968 147.249 6.56 147.033C6.152 146.817 5.633 146.709 5.003 146.709C4.601 146.709 4.244 146.751 3.932 146.835C3.62 146.913 3.362 147.057 3.158 147.267C2.948 147.471 2.843 147.729 2.843 148.041C2.843 148.353 2.948 148.614 3.158 148.824C3.362 149.028 3.62 149.172 3.932 149.256C4.244 149.334 4.601 149.373 5.003 149.373C5.633 149.373 6.152 149.265 6.56 149.049Z" fill="#959CB0"/>
<path d="M8 123.219L8 124.272L3.365 124.272L4.382 125.253L3.743 125.865L1.997 124.137L1.997 123.219L8 123.219ZM7.838 118.729C8.018 119.047 8.108 119.407 8.108 119.809C8.108 120.211 8.018 120.571 7.838 120.889C7.658 121.207 7.418 121.459 7.118 121.645C6.818 121.831 6.488 121.972 6.128 122.068C5.768 122.164 5.393 122.212 5.003 122.212C4.613 122.212 4.238 122.164 3.878 122.068C3.518 121.972 3.191 121.831 2.897 121.645C2.597 121.459 2.357 121.207 2.177 120.889C1.997 120.571 1.907 120.211 1.907 119.809C1.907 119.407 1.997 119.047 2.177 118.729C2.357 118.411 2.597 118.159 2.897 117.973C3.191 117.787 3.518 117.646 3.878 117.55C4.238 117.454 4.613 117.406 5.003 117.406C5.393 117.406 5.768 117.454 6.128 117.55C6.488 117.646 6.818 117.787 7.118 117.973C7.418 118.159 7.658 118.411 7.838 118.729ZM6.56 120.817C6.968 120.601 7.172 120.265 7.172 119.809C7.172 119.353 6.968 119.017 6.56 118.801C6.152 118.585 5.633 118.477 5.003 118.477C4.601 118.477 4.244 118.519 3.932 118.603C3.62 118.681 3.362 118.825 3.158 119.035C2.948 119.239 2.843 119.497 2.843 119.809C2.843 120.121 2.948 120.382 3.158 120.592C3.362 120.796 3.62 120.94 3.932 121.024C4.244 121.102 4.601 121.141 5.003 121.141C5.633 121.141 6.152 121.033 6.56 120.817ZM7.838 113.183C8.018 113.501 8.108 113.861 8.108 114.263C8.108 114.665 8.018 115.025 7.838 115.343C7.658 115.661 7.418 115.913 7.118 116.099C6.818 116.285 6.488 116.426 6.128 116.522C5.768 116.618 5.393 116.666 5.003 116.666C4.613 116.666 4.238 116.618 3.878 116.522C3.518 116.426 3.191 116.285 2.897 116.099C2.597 115.913 2.357 115.661 2.177 115.343C1.997 115.025 1.907 114.665 1.907 114.263C1.907 113.861 1.997 113.501 2.177 113.183C2.357 112.865 2.597 112.613 2.897 112.427C3.191 112.241 3.518 112.1 3.878 112.004C4.238 111.908 4.613 111.86 5.003 111.86C5.393 111.86 5.768 111.908 6.128 112.004C6.488 112.1 6.818 112.241 7.118 112.427C7.418 112.613 7.658 112.865 7.838 113.183ZM6.56 115.271C6.968 115.055 7.172 114.719 7.172 114.263C7.172 113.807 6.968 113.471 6.56 113.255C6.152 113.039 5.633 112.931 5.003 112.931C4.601 112.931 4.244 112.973 3.932 113.057C3.62 113.135 3.362 113.279 3.158 113.489C2.948 113.693 2.843 113.951 2.843 114.263C2.843 114.575 2.948 114.836 3.158 115.046C3.362 115.25 3.62 115.394 3.932 115.478C4.244 115.556 4.601 115.595 5.003 115.595C5.633 115.595 6.152 115.487 6.56 115.271ZM7.838 107.637C8.018 107.955 8.108 108.315 8.108 108.717C8.108 109.119 8.018 109.479 7.838 109.797C7.658 110.115 7.418 110.367 7.118 110.553C6.818 110.739 6.488 110.88 6.128 110.976C5.768 111.072 5.393 111.12 5.003 111.12C4.613 111.12 4.238 111.072 3.878 110.976C3.518 110.88 3.191 110.739 2.897 110.553C2.597 110.367 2.357 110.115 2.177 109.797C1.997 109.479 1.907 109.119 1.907 108.717C1.907 108.315 1.997 107.955 2.177 107.637C2.357 107.319 2.597 107.067 2.897 106.881C3.191 106.695 3.518 106.554 3.878 106.458C4.238 106.362 4.613 106.314 5.003 106.314C5.393 106.314 5.768 106.362 6.128 106.458C6.488 106.554 6.818 106.695 7.118 106.881C7.418 107.067 7.658 107.319 7.838 107.637ZM6.56 109.725C6.968 109.509 7.172 109.173 7.172 108.717C7.172 108.261 6.968 107.925 6.56 107.709C6.152 107.493 5.633 107.385 5.003 107.385C4.601 107.385 4.244 107.427 3.932 107.511C3.62 107.589 3.362 107.733 3.158 107.943C2.948 108.147 2.843 108.405 2.843 108.717C2.843 109.029 2.948 109.29 3.158 109.5C3.362 109.704 3.62 109.848 3.932 109.932C4.244 110.01 4.601 110.049 5.003 110.049C5.633 110.049 6.152 109.941 6.56 109.725Z" fill="#959CB0"/>
<path d="M8 88.219L8 89.272L3.365 89.272L4.382 90.253L3.743 90.865L1.997 89.137L1.997 88.219L8 88.219ZM8 80.4725L8 84.8195L7.172 84.8195C6.224 83.5655 5.522 82.7135 5.066 82.2635C4.604 81.8075 4.169 81.5795 3.761 81.5795C3.467 81.5795 3.242 81.6875 3.086 81.9035C2.924 82.1135 2.843 82.3685 2.843 82.6685C2.843 83.3285 3.083 83.8685 3.563 84.2885L2.87 84.9005C2.558 84.6425 2.321 84.3185 2.159 83.9285C1.991 83.5325 1.907 83.1185 1.907 82.6865C1.907 82.0745 2.072 81.5585 2.402 81.1385C2.732 80.7185 3.185 80.5085 3.761 80.5085C4.277 80.5085 4.79 80.7245 5.3 81.1565C5.81 81.5885 6.401 82.2485 7.073 83.1365L7.073 80.4725L8 80.4725ZM8.108 77.181C8.108 78.147 7.799 78.891 7.181 79.413L6.461 78.81C6.935 78.39 7.172 77.85 7.172 77.19C7.172 76.818 7.073 76.521 6.875 76.299C6.671 76.071 6.419 75.957 6.119 75.957C5.795 75.957 5.537 76.068 5.345 76.29C5.147 76.506 5.048 76.797 5.048 77.163C5.048 77.673 5.222 78.111 5.57 78.477L5.354 79.224L1.997 79.224L1.997 75.291L2.924 75.291L2.924 78.171L4.661 78.171C4.313 77.823 4.139 77.37 4.139 76.812C4.139 76.284 4.316 75.834 4.67 75.462C5.018 75.084 5.486 74.895 6.074 74.895C6.692 74.895 7.187 75.108 7.559 75.534C7.925 75.954 8.108 76.503 8.108 77.181ZM7.838 70.6685C8.018 70.9865 8.108 71.3465 8.108 71.7485C8.108 72.1505 8.018 72.5105 7.838 72.8285C7.658 73.1465 7.418 73.3985 7.118 73.5845C6.818 73.7705 6.488 73.9115 6.128 74.0075C5.768 74.1035 5.393 74.1515 5.003 74.1515C4.613 74.1515 4.238 74.1035 3.878 74.0075C3.518 73.9115 3.191 73.7705 2.897 73.5845C2.597 73.3985 2.357 73.1465 2.177 72.8285C1.997 72.5105 1.907 72.1505 1.907 71.7485C1.907 71.3465 1.997 70.9865 2.177 70.6685C2.357 70.3505 2.597 70.0985 2.897 69.9125C3.191 69.7265 3.518 69.5855 3.878 69.4895C4.238 69.3935 4.613 69.3455 5.003 69.3455C5.393 69.3455 5.768 69.3935 6.128 69.4895C6.488 69.5855 6.818 69.7265 7.118 69.9125C7.418 70.0985 7.658 70.3505 7.838 70.6685ZM6.56 72.7565C6.968 72.5405 7.172 72.2045 7.172 71.7485C7.172 71.2925 6.968 70.9565 6.56 70.7405C6.152 70.5245 5.633 70.4165 5.003 70.4165C4.601 70.4165 4.244 70.4585 3.932 70.5425C3.62 70.6205 3.362 70.7645 3.158 70.9745C2.948 71.1785 2.843 71.4365 2.843 71.7485C2.843 72.0605 2.948 72.3215 3.158 72.5315C3.362 72.7355 3.62 72.8795 3.932 72.9635C4.244 73.0415 4.601 73.0805 5.003 73.0805C5.633 73.0805 6.152 72.9725 6.56 72.7565Z" fill="#959CB0"/>
<path d="M8 53.219L8 54.272L3.365 54.272L4.382 55.253L3.743 55.865L1.997 54.137L1.997 53.219L8 53.219ZM8.108 47.5335C8.108 48.4995 7.799 49.2435 7.181 49.7655L6.461 49.1625C6.935 48.7425 7.172 48.2025 7.172 47.5425C7.172 47.1705 7.073 46.8735 6.875 46.6515C6.671 46.4235 6.419 46.3095 6.119 46.3095C5.795 46.3095 5.537 46.4205 5.345 46.6425C5.147 46.8585 5.048 47.1495 5.048 47.5155C5.048 48.0255 5.222 48.4635 5.57 48.8295L5.354 49.5765L1.997 49.5765L1.997 45.6435L2.924 45.6435L2.924 48.5235L4.661 48.5235C4.313 48.1755 4.139 47.7225 4.139 47.1645C4.139 46.6365 4.316 46.1865 4.67 45.8145C5.018 45.4365 5.486 45.2475 6.074 45.2475C6.692 45.2475 7.187 45.4605 7.559 45.8865C7.925 46.3065 8.108 46.8555 8.108 47.5335ZM7.838 41.021C8.018 41.339 8.108 41.699 8.108 42.101C8.108 42.503 8.018 42.863 7.838 43.181C7.658 43.499 7.418 43.751 7.118 43.937C6.818 44.123 6.488 44.264 6.128 44.36C5.768 44.456 5.393 44.504 5.003 44.504C4.613 44.504 4.238 44.456 3.878 44.36C3.518 44.264 3.191 44.123 2.897 43.937C2.597 43.751 2.357 43.499 2.177 43.181C1.997 42.863 1.907 42.503 1.907 42.101C1.907 41.699 1.997 41.339 2.177 41.021C2.357 40.703 2.597 40.451 2.897 40.265C3.191 40.079 3.518 39.938 3.878 39.842C4.238 39.746 4.613 39.698 5.003 39.698C5.393 39.698 5.768 39.746 6.128 39.842C6.488 39.938 6.818 40.079 7.118 40.265C7.418 40.451 7.658 40.703 7.838 41.021ZM6.56 43.109C6.968 42.893 7.172 42.557 7.172 42.101C7.172 41.645 6.968 41.309 6.56 41.093C6.152 40.877 5.633 40.769 5.003 40.769C4.601 40.769 4.244 40.811 3.932 40.895C3.62 40.973 3.362 41.117 3.158 41.327C2.948 41.531 2.843 41.789 2.843 42.101C2.843 42.413 2.948 42.674 3.158 42.884C3.362 43.088 3.62 43.232 3.932 43.316C4.244 43.394 4.601 43.433 5.003 43.433C5.633 43.433 6.152 43.325 6.56 43.109ZM7.838 35.4751C8.018 35.7931 8.108 36.1531 8.108 36.5551C8.108 36.9571 8.018 37.3171 7.838 37.6351C7.658 37.9531 7.418 38.2051 7.118 38.3911C6.818 38.5771 6.488 38.7181 6.128 38.8141C5.768 38.9101 5.393 38.9581 5.003 38.9581C4.613 38.9581 4.238 38.9101 3.878 38.8141C3.518 38.7181 3.191 38.5771 2.897 38.3911C2.597 38.2051 2.357 37.9531 2.177 37.6351C1.997 37.3171 1.907 36.9571 1.907 36.5551C1.907 36.1531 1.997 35.7931 2.177 35.4751C2.357 35.1571 2.597 34.9051 2.897 34.7191C3.191 34.5331 3.518 34.3921 3.878 34.2961C4.238 34.2001 4.613 34.1521 5.003 34.1521C5.393 34.1521 5.768 34.2001 6.128 34.2961C6.488 34.3921 6.818 34.5331 7.118 34.7191C7.418 34.9051 7.658 35.1571 7.838 35.4751ZM6.56 37.5631C6.968 37.3471 7.172 37.0111 7.172 36.5551C7.172 36.0991 6.968 35.7631 6.56 35.5471C6.152 35.3311 5.633 35.2231 5.003 35.2231C4.601 35.2231 4.244 35.2651 3.932 35.3491C3.62 35.4271 3.362 35.5711 3.158 35.7811C2.948 35.9851 2.843 36.2431 2.843 36.5551C2.843 36.8671 2.948 37.1281 3.158 37.3381C3.362 37.5421 3.62 37.6861 3.932 37.7701C4.244 37.8481 4.601 37.8871 5.003 37.8871C5.633 37.8871 6.152 37.7791 6.56 37.5631Z" fill="#959CB0"/>
<path d="M8 19.219L8 20.272L3.365 20.272L4.382 21.253L3.743 21.865L1.997 20.137L1.997 19.219L8 19.219ZM8 14.0285L8 15.1805L2.924 12.9125L2.924 16.0265L1.997 16.0265L1.997 11.6975L2.726 11.6975L8 14.0285ZM8.108 8.74349C8.108 9.70949 7.799 10.4535 7.181 10.9755L6.461 10.3725C6.935 9.95249 7.172 9.41249 7.172 8.75249C7.172 8.38049 7.073 8.08349 6.875 7.86149C6.671 7.63349 6.419 7.51949 6.119 7.51949C5.795 7.51949 5.537 7.63049 5.345 7.85249C5.147 8.06849 5.048 8.35949 5.048 8.72549C5.048 9.23549 5.222 9.67349 5.57 10.0395L5.354 10.7865L1.997 10.7865L1.997 6.85349L2.924 6.85349L2.924 9.73349L4.661 9.73349C4.313 9.38549 4.139 8.93249 4.139 8.37449C4.139 7.84649 4.316 7.39649 4.67 7.02449C5.018 6.64649 5.486 6.45749 6.074 6.45749C6.692 6.45749 7.187 6.67049 7.559 7.09649C7.925 7.51649 8.108 8.06549 8.108 8.74349ZM7.838 2.23101C8.018 2.54901 8.108 2.90901 8.108 3.31101C8.108 3.71301 8.018 4.07301 7.838 4.39101C7.658 4.70901 7.418 4.96101 7.118 5.14701C6.818 5.33301 6.488 5.47401 6.128 5.57001C5.768 5.66601 5.393 5.71401 5.003 5.71401C4.613 5.71401 4.238 5.66601 3.878 5.57001C3.518 5.47401 3.191 5.33301 2.897 5.14701C2.597 4.96101 2.357 4.70901 2.177 4.39101C1.997 4.07301 1.907 3.71301 1.907 3.31101C1.907 2.90901 1.997 2.54901 2.177 2.23101C2.357 1.91301 2.597 1.66101 2.897 1.47501C3.191 1.28901 3.518 1.14801 3.878 1.05201C4.238 0.956008 4.613 0.908007 5.003 0.908007C5.393 0.908007 5.768 0.956008 6.128 1.05201C6.488 1.14801 6.818 1.28901 7.118 1.47501C7.418 1.66101 7.658 1.91301 7.838 2.23101ZM6.56 4.31901C6.968 4.10301 7.172 3.76701 7.172 3.31101C7.172 2.85501 6.968 2.51901 6.56 2.30301C6.152 2.08701 5.633 1.97901 5.003 1.97901C4.601 1.97901 4.244 2.02101 3.932 2.10501C3.62 2.18301 3.362 2.32701 3.158 2.53701C2.948 2.74101 2.843 2.99901 2.843 3.31101C2.843 3.62301 2.948 3.88401 3.158 4.09401C3.362 4.29801 3.62 4.44201 3.932 4.52601C4.244 4.60401 4.601 4.64301 5.003 4.64301C5.633 4.64301 6.152 4.53501 6.56 4.31901Z" fill="#959CB0"/>
</svg>
