<svg width="46" height="46" viewBox="0 0 46 46" fill="none" xmlns="http://www.w3.org/2000/svg">
<path d="M27 22.9918C26.9955 20.7859 25.2059 19 23 19C20.7909 19 19 20.7909 19 23C19 25.2091 20.7909 27 23 27C25.2091 27 27 25.2091 27 23C27 22.9972 27 22.9946 27 22.9918ZM23 25.3525C21.6962 25.3525 20.6393 24.2956 20.6393 22.9918C20.6393 21.688 21.6962 20.6311 23 20.6311C24.3038 20.6311 25.3607 21.688 25.3607 22.9918C25.3607 24.2956 24.3038 25.3525 23 25.3525Z" fill="#0F63E1"/>
<path d="M45.1533 22.1576H41.0554C40.6081 12.8473 33.1612 5.40032 23.8509 4.95306V0.846678C23.8509 0.3791 23.4718 0 23.0042 0C22.5367 0 22.1576 0.3791 22.1576 0.846678V4.9446C12.8442 5.39217 5.39609 12.844 4.95306 22.1576H0.846678C0.3791 22.1576 0 22.5367 0 23.0042C0 23.4718 0.3791 23.8509 0.846678 23.8509H4.9446C5.39217 33.1643 12.844 40.6124 22.1576 41.0554V45.1533C22.1576 45.6209 22.5367 46 23.0042 46C23.4718 46 23.8509 45.6209 23.8509 45.1533V41.0554C33.1612 40.6081 40.6081 33.1612 41.0554 23.8509H45.1533C45.6209 23.8509 46 23.4718 46 23.0042C46 22.5367 45.6209 22.1576 45.1533 22.1576ZM35.3488 23.8509H39.362C38.919 32.2271 32.2271 38.919 23.8509 39.362V35.3488C23.8509 34.8812 23.4718 34.5021 23.0042 34.5021C22.5367 34.5021 22.1576 34.8812 22.1576 35.3488V39.362C13.7814 38.919 7.08944 32.2271 6.64642 23.8509H10.6597C11.1272 23.8509 11.5063 23.4718 11.5063 23.0042C11.5063 22.5367 11.1272 22.1576 10.6597 22.1576H6.64642C7.08944 13.7814 13.7814 7.08944 22.1576 6.64642V10.6597C22.1576 11.1272 22.5367 11.5063 23.0042 11.5063C23.4718 11.5063 23.8509 11.1272 23.8509 10.6597V6.64642C32.2271 7.08944 38.919 13.7814 39.362 22.1576H35.3488C34.8812 22.1576 34.5021 22.5367 34.5021 23.0042C34.5021 23.4718 34.8812 23.8509 35.3488 23.8509Z" fill="#0F63E1"/>
</svg>
