<svg width="42" height="36" viewBox="0 0 42 36" fill="none" xmlns="http://www.w3.org/2000/svg">
<path d="M32.5 10C37.9186 10 42 7.85205 42 5C42 2.14795 37.9186 0 32.5 0C27.0814 0 23 2.14795 23 5C23 7.85205 27.0814 10 32.5 10ZM32.5 2.14795C37.0184 2.14795 39.9025 3.84136 39.9025 5.00891C39.9025 6.17647 37.0184 7.86988 32.5 7.86988C27.9816 7.86988 25.0975 6.17647 25.0975 5.00891C25.0975 3.84136 27.9816 2.14795 32.5 2.14795Z" fill="#0F63E1"/>
<path d="M41.2992 10.0614C40.7488 9.87209 40.1362 10.1355 39.932 10.6458C39.4793 11.7899 36.4964 13.0246 32.4659 13.0246C28.542 13.0246 25.6035 11.8558 25.0353 10.7281C24.7868 10.2343 24.1476 10.0202 23.6149 10.2507C23.0823 10.4812 22.8514 11.0738 23.1 11.5677C24.1387 13.6254 27.9028 15 32.4659 15C34.641 15 36.7538 14.6708 38.4317 14.0617C40.2783 13.395 41.4945 12.4484 41.9384 11.3207C42.1337 10.8187 41.8496 10.2507 41.2992 10.0614Z" fill="#0F63E1"/>
<path d="M41.2992 15.0614C40.7488 14.8721 40.1362 15.1355 39.932 15.6458C39.4793 16.7899 36.4964 18.0246 32.4659 18.0246C28.542 18.0246 25.6035 16.8558 25.0353 15.7281C24.7868 15.2343 24.1476 15.0203 23.6149 15.2507C23.0823 15.4812 22.8514 16.0738 23.1 16.5677C24.1387 18.6254 27.9028 20 32.4659 20C34.641 20 36.7538 19.6708 38.4317 19.0617C40.2783 18.395 41.4945 17.4484 41.9384 16.3207C42.1337 15.8187 41.8496 15.2507 41.2992 15.0614Z" fill="#0F63E1"/>
<path d="M41.2992 20.0737C40.7488 19.8465 40.1362 20.1626 39.932 20.775C39.4793 22.1479 36.4964 23.6295 32.4659 23.6295C28.542 23.6295 25.6035 22.2269 25.0353 20.8737C24.7868 20.2811 24.1476 20.0243 23.6149 20.3009C23.0823 20.5774 22.8514 21.2886 23.1 21.8812C24.1387 24.3505 27.9028 26 32.4659 26C34.641 26 36.7538 25.6049 38.4317 24.874C40.2783 24.0739 41.4945 22.9381 41.9384 21.5849C42.1337 20.9824 41.8496 20.3009 41.2992 20.0737Z" fill="#0F63E1"/>
<path d="M41.2992 26.0614C40.7488 25.8721 40.1362 26.1355 39.932 26.6458C39.4793 27.7899 36.4964 29.0246 32.4659 29.0246C28.542 29.0246 25.6035 27.8558 25.0353 26.7281C24.7868 26.2343 24.1476 26.0202 23.6149 26.2507C23.0823 26.4812 22.8514 27.0738 23.1 27.5677C24.1387 29.6254 27.9028 31 32.4659 31C34.641 31 36.7538 30.6708 38.4317 30.0617C40.2783 29.395 41.4945 28.4484 41.9384 27.3207C42.1337 26.8104 41.8496 26.2425 41.2992 26.0614Z" fill="#0F63E1"/>
<path d="M41.2992 31.0614C40.7488 30.8721 40.1362 31.1355 39.932 31.6458C39.4793 32.7899 36.4964 34.0246 32.4659 34.0246C28.542 34.0246 25.6035 32.8558 25.0353 31.7281C24.7868 31.2343 24.1476 31.0202 23.6149 31.2507C23.0823 31.4812 22.8514 32.0738 23.1 32.5677C24.1387 34.6254 27.9028 36 32.4659 36C34.641 36 36.7538 35.6708 38.4317 35.0617C40.2783 34.395 41.4945 33.4484 41.9384 32.3207C42.1337 31.8187 41.8496 31.2507 41.2992 31.0614Z" fill="#0F63E1"/>
<path d="M18.2992 20.0737C17.7488 19.8465 17.1362 20.1626 16.932 20.775C16.4793 22.1479 13.4964 23.6295 9.46593 23.6295C5.54201 23.6295 2.60351 22.2269 2.03534 20.8737C1.78676 20.2811 1.14757 20.0243 0.614913 20.3009C0.0822535 20.5774 -0.148565 21.2886 0.100009 21.8812C1.13869 24.3505 4.90282 26 9.46593 26C11.641 26 13.7538 25.6049 15.4317 24.874C17.2783 24.0739 18.4945 22.9381 18.9384 21.5849C19.1337 20.9824 18.8496 20.3009 18.2992 20.0737Z" fill="#0F63E1"/>
<path d="M18.2992 26.0614C17.7488 25.8721 17.1362 26.1355 16.932 26.6458C16.4793 27.7899 13.4964 29.0246 9.46593 29.0246C5.54201 29.0246 2.60351 27.8558 2.03534 26.7281C1.78676 26.2343 1.14757 26.0202 0.614913 26.2507C0.0822535 26.4812 -0.148565 27.0738 0.100009 27.5677C1.13869 29.6254 4.90282 31 9.46593 31C11.641 31 13.7538 30.6708 15.4317 30.0617C17.2783 29.395 18.4945 28.4484 18.9384 27.3207C19.1337 26.8104 18.8496 26.2425 18.2992 26.0614Z" fill="#0F63E1"/>
<path d="M18.2992 31.0614C17.7488 30.8721 17.1362 31.1355 16.932 31.6458C16.4793 32.7899 13.4964 34.0246 9.46593 34.0246C5.54201 34.0246 2.60351 32.8558 2.03534 31.7281C1.78676 31.2343 1.14757 31.0202 0.614913 31.2507C0.0822535 31.4812 -0.148565 32.0738 0.100009 32.5677C1.13869 34.6254 4.90282 36 9.46593 36C11.641 36 13.7538 35.6708 15.4317 35.0617C17.2783 34.395 18.4945 33.4484 18.9384 32.3207C19.1337 31.8187 18.8496 31.2507 18.2992 31.0614Z" fill="#0F63E1"/>
<path d="M9.5 11C4.08142 11 0 12.9332 0 15.5C0 18.0668 4.08142 20 9.5 20C14.9186 20 19 18.0668 19 15.5C19 12.9332 14.9186 11 9.5 11ZM9.5 18.0749C4.9816 18.0749 2.09752 16.5508 2.09752 15.5C2.09752 14.4492 4.9816 12.9251 9.5 12.9251C14.0184 12.9251 16.9025 14.4492 16.9025 15.5C16.9025 16.5508 14.0184 18.0749 9.5 18.0749Z" fill="#0F63E1"/>
</svg>
