<svg width="42" height="45" viewBox="0 0 42 45" fill="none" xmlns="http://www.w3.org/2000/svg">
<path d="M22.2159 28.2822C22.9909 28.2218 23.6974 27.8265 24.156 27.196L31.1266 17.5594C31.3402 17.2638 31.3082 16.8558 31.0492 16.5968C30.7901 16.3384 30.3821 16.3064 30.0865 16.5193L20.4485 23.4922C19.8201 23.9493 19.4248 24.6558 19.3645 25.4308C19.3042 26.2058 19.5849 26.9644 20.1335 27.5131C20.6331 28.0134 21.3069 28.2903 22.0074 28.2903C22.0766 28.2903 22.1459 28.2874 22.2159 28.2822ZM20.849 25.5469C20.8751 25.2067 21.0493 24.8962 21.3232 24.6967L27.2024 20.4435L22.9507 26.3212C22.7497 26.5974 22.4392 26.7709 22.099 26.7977C21.7602 26.82 21.4275 26.7024 21.1855 26.4604C20.9458 26.2199 20.8222 25.8864 20.849 25.5469Z" fill="#0F63E1"/>
<path d="M38.8923 14.5651C38.8849 14.5494 38.8849 14.5331 38.8767 14.5174C38.8678 14.5025 38.8536 14.4943 38.844 14.4802C38.0913 13.1893 37.2009 11.9884 36.1899 10.9L37.789 9.30157L38.8417 10.3543L41.9998 7.19543L38.8417 4.03733L35.6829 7.19543L36.7363 8.24887L35.1372 9.84727C34.0487 8.83627 32.8486 7.94512 31.557 7.19245C31.5428 7.18277 31.5346 7.16863 31.5197 7.15969C31.5041 7.15076 31.4877 7.1515 31.4721 7.14331C29.1694 5.81665 26.5823 4.93294 23.824 4.60909V3.72241H24.9407C25.9674 3.72241 26.8019 2.88785 26.8019 1.86121C26.8019 0.834565 25.9666 0 24.94 0H18.2396C17.213 0 16.3784 0.834565 16.3784 1.86121C16.3784 2.88785 17.213 3.72241 18.2396 3.72241H19.3564V4.58304C18.5523 4.66865 17.7498 4.79968 16.9562 4.98133C16.5556 5.07291 16.3047 5.47269 16.3971 5.87323C16.4886 6.27376 16.8884 6.52539 17.2889 6.43233C17.9739 6.27525 18.6655 6.15687 19.3586 6.07721L20.1574 6.01542C20.4016 5.99681 20.6265 5.98341 20.8453 5.97299V7.44483C20.8453 7.85653 21.1781 8.18931 21.5898 8.18931C22.0015 8.18931 22.3343 7.85653 22.3343 7.44483V5.9782C25.1343 6.10699 27.7728 6.85892 30.1186 8.09625L29.3846 9.36708C29.1791 9.72369 29.3012 10.1786 29.657 10.384C29.7739 10.4518 29.902 10.4838 30.0285 10.4838C30.2861 10.4838 30.5363 10.3505 30.674 10.1116L31.4058 8.84371C33.7353 10.3215 35.7141 12.3003 37.1919 14.6298L35.9241 15.3617C35.569 15.5671 35.4469 16.022 35.6531 16.3786C35.7916 16.6176 36.041 16.7509 36.2986 16.7509C36.4251 16.7509 36.5532 16.7189 36.6701 16.6511L37.9409 15.917C39.1954 18.2964 39.9495 20.978 40.0619 23.8227H38.5916C38.1799 23.8227 37.8471 24.1555 37.8471 24.5672C37.8471 24.9789 38.1799 25.3117 38.5916 25.3117H40.0619C39.9495 28.1563 39.1954 30.838 37.9409 33.2173L36.6701 32.4833C36.3142 32.2778 35.8586 32.3984 35.6531 32.7558C35.4476 33.1124 35.5697 33.5672 35.9256 33.7727L37.1934 34.5045C35.7156 36.834 33.7368 38.8129 31.4073 40.2907L30.6755 39.0228C30.4693 38.6655 30.0129 38.5441 29.6585 38.7503C29.3019 38.9558 29.1798 39.4114 29.386 39.7673L30.1201 41.0381C27.7742 42.2755 25.1358 43.0274 22.3358 43.1562V41.691C22.3358 41.2793 22.003 40.9466 21.5913 40.9466C21.1796 40.9466 20.8468 41.2793 20.8468 41.691V43.1621C19.6579 43.1212 18.4652 42.9723 17.2912 42.7028C16.8906 42.6068 16.4909 42.8614 16.3993 43.2619C16.307 43.6624 16.5579 44.0622 16.9584 44.1538C18.4444 44.4963 19.9624 44.669 21.4685 44.669C21.5049 44.669 21.5399 44.6667 21.5764 44.666C21.5816 44.666 21.5854 44.669 21.5898 44.669C21.5958 44.669 21.601 44.6652 21.6069 44.6652C25.1857 44.6407 28.5433 43.6743 31.4483 42.0052C31.4713 41.9948 31.4959 41.9896 31.5182 41.9762C31.5331 41.9672 31.5413 41.9531 31.5555 41.9434C34.5624 40.1909 37.0751 37.6813 38.8313 34.6765C38.8454 34.6564 38.8633 34.6408 38.876 34.6185C38.8849 34.6028 38.8842 34.5864 38.8916 34.5708C40.592 31.6227 41.5695 28.2085 41.5695 24.5679C41.5695 20.9274 40.592 17.5132 38.8923 14.5651ZM38.841 6.14273L39.8937 7.19543L38.841 8.24887L37.7875 7.19543L38.841 6.14273ZM20.8453 4.48253V2.23345H18.2396C18.0349 2.23345 17.8674 2.06594 17.8674 1.86121C17.8674 1.65647 18.0349 1.48897 18.2396 1.48897H24.94C25.1447 1.48897 25.3122 1.65647 25.3122 1.86121C25.3122 2.06594 25.1447 2.23345 24.94 2.23345H22.3343V4.48253C22.0752 4.47211 21.8281 4.4669 21.5898 4.4669C21.569 4.4669 21.5452 4.46839 21.5243 4.46839C21.5057 4.46839 21.4871 4.4669 21.4685 4.4669C21.3464 4.4669 21.2243 4.47509 21.1022 4.47732C21.0158 4.47955 20.9347 4.47881 20.8453 4.48253Z" fill="#0F63E1"/>
<path d="M14.8897 10.4228H11.1673C10.7556 10.4228 10.4229 10.7555 10.4229 11.1672C10.4229 11.5789 10.7556 11.9117 11.1673 11.9117H14.8897C15.3014 11.9117 15.6342 11.5789 15.6342 11.1672C15.6342 10.7555 15.3014 10.4228 14.8897 10.4228Z" fill="#0F63E1"/>
<path d="M14.8895 15.6341H7.44468C7.03298 15.6341 6.7002 15.9669 6.7002 16.3786C6.7002 16.7903 7.03298 17.1231 7.44468 17.1231H14.8895C15.3012 17.1231 15.634 16.7903 15.634 16.3786C15.634 15.9669 15.3012 15.6341 14.8895 15.6341Z" fill="#0F63E1"/>
<path d="M14.8893 20.8455H3.72202C3.31032 20.8455 2.97754 21.1783 2.97754 21.59C2.97754 22.0017 3.31032 22.3345 3.72202 22.3345H14.8893C15.301 22.3345 15.6337 22.0017 15.6337 21.59C15.6337 21.1783 15.301 20.8455 14.8893 20.8455Z" fill="#0F63E1"/>
<path d="M14.8897 26.0569H0.744483C0.332784 26.0569 0 26.3897 0 26.8014C0 27.2131 0.332784 27.5459 0.744483 27.5459H14.8897C15.3014 27.5459 15.6341 27.2131 15.6341 26.8014C15.6341 26.3897 15.3014 26.0569 14.8897 26.0569Z" fill="#0F63E1"/>
<path d="M14.8896 31.2683H5.21128C4.79958 31.2683 4.4668 31.6011 4.4668 32.0128C4.4668 32.4245 4.79958 32.7572 5.21128 32.7572H14.8896C15.3013 32.7572 15.634 32.4245 15.634 32.0128C15.634 31.6011 15.3013 31.2683 14.8896 31.2683Z" fill="#0F63E1"/>
<path d="M14.8895 36.4797H9.67808C9.26638 36.4797 8.93359 36.8124 8.93359 37.2241C8.93359 37.6358 9.26638 37.9686 9.67808 37.9686H14.8895C15.3012 37.9686 15.6339 37.6358 15.6339 37.2241C15.6339 36.8124 15.3012 36.4797 14.8895 36.4797Z" fill="#0F63E1"/>
</svg>
