<svg width="32" height="44" viewBox="0 0 32 44" fill="none" xmlns="http://www.w3.org/2000/svg">
<path d="M28.595 18.2636C27.533 18.1631 26.4739 18.5122 25.6893 19.2218C25.5924 19.3096 25.5005 19.4019 25.4139 19.4983C24.8261 18.4065 23.7442 17.6232 22.4816 17.5033C21.4196 17.4028 20.3605 17.7519 19.5759 18.4615C19.4789 18.5493 19.387 18.6417 19.3005 18.738C18.7873 17.785 17.8977 17.0671 16.8399 16.8203C18.6732 15.0072 19.7732 12.5063 19.7732 9.83577C19.7732 4.41236 15.338 0 9.88653 0C4.43505 0 0 4.41236 0 9.83585C0 13.8149 2.4406 17.4193 6.11342 18.9295V23.1537L3.36056 25.11C1.72951 26.2691 1.05955 28.319 1.69341 30.2106L4.40844 38.3142C5.54806 41.715 8.73456 44 12.3378 44H23.6418C28.2506 44 32 40.2698 32 35.6847V22.1307C32 20.1433 30.5044 18.4449 28.595 18.2636ZM1.4328 9.83585C1.4328 5.19843 5.22517 1.42553 9.88653 1.42553C14.5479 1.42553 18.3403 5.19843 18.3403 9.83585C18.3403 13.0368 16.4933 15.9538 13.6596 17.3634V15.4998C15.555 14.2469 16.7164 12.1139 16.7164 9.83585C16.7164 6.08925 13.6525 3.04106 9.88653 3.04106C6.12059 3.04106 3.05667 6.08925 3.05667 9.83585C3.05667 12.1137 4.21814 14.2468 6.11342 15.4998V17.3634C3.27996 15.9538 1.4328 13.0368 1.4328 9.83585ZM10.2547 6.09965C9.19255 5.99893 8.13352 6.34801 7.34901 7.05776C6.56381 7.76803 6.11342 8.78063 6.11342 9.83585V13.6724C5.09076 12.6733 4.48955 11.2921 4.48955 9.83585C4.48955 6.87523 6.91063 4.46658 9.88653 4.46658C12.8624 4.46658 15.2835 6.87523 15.2835 9.83585C15.2835 11.2922 14.6823 12.6734 13.6596 13.6725V9.96665C13.6597 7.97927 12.1641 6.28063 10.2547 6.09965ZM23.6418 42.5744H12.3378C9.3521 42.5744 6.71187 40.6812 5.76773 37.8634L3.05269 29.7599C2.61889 28.4656 3.07731 27.0631 4.19335 26.27L6.11342 24.9055V31.1233C6.11342 31.5169 6.43407 31.836 6.82986 31.836C7.22557 31.836 7.54631 31.5169 7.54631 31.1233V9.83585C7.54631 9.18127 7.82575 8.55307 8.31285 8.11255C8.8066 7.66594 9.44841 7.45496 10.1187 7.51873C11.3009 7.63079 12.2269 8.70604 12.2269 9.96656V25.0411C12.2269 25.4347 12.5476 25.7538 12.9434 25.7538C13.3391 25.7538 13.6598 25.4347 13.6598 25.0411V20.4795C13.6598 19.8249 13.9393 19.1967 14.4264 18.7562C14.92 18.3097 15.5611 18.0982 16.2322 18.1624C17.4144 18.2745 18.3404 19.3498 18.3404 20.6103V21.2398V25.8013C18.3404 26.1949 18.661 26.5141 19.0568 26.5141C19.4526 26.5141 19.7732 26.195 19.7732 25.8013V21.2398C19.7732 20.5852 20.0527 19.957 20.5398 19.5165C21.0334 19.07 21.6746 18.8585 22.3457 18.9227C23.5278 19.0348 24.4538 20.1101 24.4538 21.3706V21.9999V26.5615C24.4538 26.955 24.7744 27.2742 25.1702 27.2742C25.566 27.2742 25.8867 26.9551 25.8867 26.5615V21.9999C25.8867 21.3453 26.166 20.7171 26.6532 20.2766C27.1469 19.8301 27.788 19.6186 28.4591 19.6828C29.6412 19.7949 30.5672 20.8702 30.5672 22.1307V35.6845H30.5675C30.5672 39.4837 27.4605 42.5744 23.6418 42.5744Z" fill="#0F63E1"/>
</svg>
