<svg width="44" height="44" viewBox="0 0 44 44" fill="none" xmlns="http://www.w3.org/2000/svg">
<path d="M0.75 0.000244141C0.335812 0.000244141 0 0.336057 0 0.750244V9.00024H1.5V1.50024H9V0.000244141H0.75Z" fill="#0F63E1"/>
<path d="M43.25 0H35V1.5H42.5V9H44V0.75C44 0.335812 43.6642 0 43.25 0Z" fill="#0F63E1"/>
<path d="M1.5 42.5V35H0V43.25C0 43.6642 0.335812 44 0.75 44H9V42.5H1.5Z" fill="#0F63E1"/>
<path d="M42.5 35V42.5H35V44H43.25C43.6642 44 44 43.6642 44 43.25V35H42.5Z" fill="#0F63E1"/>
<path d="M42.515 21.2669C42.1186 10.5103 33.49 1.88161 22.7333 1.48524V0.000244141H21.2667V1.48524C10.51 1.88161 1.88137 10.5103 1.485 21.2669H0V22.7336H1.485C1.88137 33.4902 10.51 42.1189 21.2667 42.5152V44.0002H22.7333V42.5152C33.49 42.1189 42.1186 33.4902 42.515 22.7336H44V21.2669H42.515ZM6.44087 33.0002C5.95907 32.3206 5.52237 31.6102 5.13333 30.8736V28.0869C5.13333 26.7504 6.21683 25.6669 7.55333 25.6669H9.18353L8.11947 28.3274C8.01048 28.6 8.07455 28.9113 8.28227 29.1187L9.74893 30.5854C10.0353 30.8717 10.4995 30.8717 10.7859 30.5854L12.2525 29.1187C12.4603 28.9113 12.5243 28.6 12.4153 28.3274L11.3498 25.6669H12.98C14.3165 25.6669 15.4 26.7504 15.4 28.0869V33.0002H6.44087ZM11.2779 19.3558L13.8989 20.9288C13.6048 22.724 11.3923 24.2002 10.2667 24.2002C8.63106 23.9217 7.27045 22.7875 6.70193 21.2288C7.9574 21.1254 10.2241 20.7448 11.2779 19.3558ZM6.64043 19.7577C6.83714 17.3001 7.99361 16.1336 10.2667 16.1336C12.3479 16.1336 13.4933 17.1177 13.8211 19.171L11.3777 17.7044C11.0303 17.496 10.5799 17.6087 10.3715 17.956C10.344 18.0018 10.3217 18.0504 10.3048 18.1011C9.93373 19.2136 7.93036 19.6352 6.64043 19.7577ZM10.8724 28.4235L10.2667 29.03L9.66093 28.4235L10.2667 26.9077L10.8724 28.4235ZM22.7333 41.0486V39.6002H21.2667V41.0486C15.9929 40.8463 11.0402 38.4625 7.5922 34.4669H16.1333C16.5383 34.4669 16.8667 34.1386 16.8667 33.7336V30.0669H27.1333V33.7336C27.1333 34.1386 27.4617 34.4669 27.8667 34.4669H36.4078C32.9598 38.4625 28.0071 40.8463 22.7333 41.0486ZM23.0113 14.9558L25.6322 16.5288C25.3381 18.324 23.1257 19.8002 22 19.8002C20.3644 19.5217 19.0038 18.3875 18.4353 16.8288C19.6907 16.7254 21.9575 16.3448 23.0113 14.9558ZM18.3738 15.3577C18.5705 12.9001 19.7269 11.7336 22 11.7336C24.0812 11.7336 25.2267 12.7177 25.5545 14.771L23.111 13.3044C22.7637 13.096 22.3132 13.2087 22.1049 13.556C22.0774 13.6018 22.055 13.6504 22.0381 13.7011C21.6671 14.8136 19.6637 15.2352 18.3738 15.3577ZM22.6057 24.0235L22 24.63L21.3943 24.0235L22 22.5077L22.6057 24.0235ZM20.9169 21.2669L19.8528 23.9274C19.7438 24.2 19.8079 24.5113 20.0156 24.7187L21.4823 26.1854C21.7686 26.4717 22.2328 26.4717 22.5192 26.1854L23.9859 24.7187C24.1936 24.5113 24.2577 24.2 24.1487 23.9274L23.0831 21.2669H24.7133C26.0498 21.2669 27.1333 22.3504 27.1333 23.6869V28.6002H16.8667V23.6869C16.8667 22.3504 17.9502 21.2669 19.2867 21.2669H20.9169ZM38.8667 30.8736C38.4776 31.6102 38.0409 32.3206 37.5591 33.0002H28.6V28.0869C28.6 26.7504 29.6835 25.6669 31.02 25.6669H32.6502L31.5861 28.3274C31.4771 28.6 31.5412 28.9113 31.7489 29.1187L33.2156 30.5854C33.502 30.8717 33.9662 30.8717 34.2525 30.5854L35.7192 29.1187C35.9269 28.9113 35.991 28.6 35.882 28.3274L34.8165 25.6669H36.4467C37.7832 25.6669 38.8667 26.7504 38.8667 28.0869V30.8736ZM34.7446 19.3558L37.3655 20.9288C37.0715 22.724 34.859 24.2002 33.7333 24.2002C32.0977 23.9217 30.7371 22.7875 30.1686 21.2288C31.4241 21.1254 33.6908 20.7448 34.7446 19.3558ZM30.1071 19.7577C30.3038 17.3001 31.4603 16.1336 33.7333 16.1336C35.8145 16.1336 36.96 17.1177 37.2878 19.171L34.8443 17.7044C34.497 17.496 34.0466 17.6087 33.8382 17.956C33.8107 18.0018 33.7883 18.0504 33.7715 18.1011C33.4004 19.2136 31.397 19.6352 30.1071 19.7577ZM34.3391 28.4235L33.7333 29.03L33.1276 28.4235L33.7333 26.9077L34.3391 28.4235ZM41.0483 22.7336C40.9887 24.3283 40.728 25.9092 40.2725 27.4386C39.9937 25.7481 38.6336 24.4439 36.9329 24.2362C38.0774 23.3355 38.7814 21.9876 38.8667 20.5336C38.8667 15.6848 36.0749 14.6669 33.7333 14.6669C31.3918 14.6669 28.6 15.6848 28.6 20.5336C28.6853 21.9876 29.3893 23.3355 30.5338 24.2362C29.9371 24.3097 29.3656 24.5211 28.8647 24.8536C28.7716 24.916 28.6865 24.9856 28.6 25.0553V23.6869C28.6039 21.7274 27.1442 20.0736 25.1995 19.834C26.3435 18.9337 27.0474 17.5868 27.1333 16.1336C27.1333 11.2848 24.3415 10.2669 22 10.2669C19.6585 10.2669 16.8667 11.2848 16.8667 16.1336C16.9519 17.5876 17.6559 18.9355 18.8005 19.8362C16.8566 20.0757 15.3972 21.7283 15.4 23.6869V25.0524C15.3135 24.9834 15.2284 24.913 15.1353 24.8507C14.6344 24.5181 14.063 24.3067 13.4662 24.2332C14.61 23.3332 15.3139 21.9866 15.4 20.5336C15.4 15.6848 12.6082 14.6669 10.2667 14.6669C7.92513 14.6669 5.13333 15.6848 5.13333 20.5336C5.21858 21.9876 5.92258 23.3355 7.06713 24.2362C5.36644 24.4439 4.00629 25.7481 3.72753 27.4386C3.27204 25.9092 3.01134 24.3283 2.95167 22.7336H4.4V21.2669H2.95167C3.34583 11.3197 11.3195 3.34608 21.2667 2.95191V4.40024H22.7333V2.95191C32.6805 3.34608 40.6542 11.3197 41.0483 21.2669H39.6V22.7336H41.0483Z" fill="#0F63E1"/>
</svg>
