<svg width="40" height="47" viewBox="0 0 40 47" fill="none" xmlns="http://www.w3.org/2000/svg">
<path d="M39.1999 27.4167H33.5999V0.783333C33.5999 0.350737 33.2417 0 32.7999 0H7.20006C6.75826 0 6.40006 0.350737 6.40006 0.783333V27.4167H0.800091C0.581992 27.4167 0.373293 27.5038 0.222394 27.658C-0.0833044 27.9704 -0.0725043 28.4662 0.246494 28.7656L19.4464 46.7822C19.5954 46.922 19.7937 47 20 47C20.2063 47 20.4047 46.922 20.5536 46.7822L39.7535 28.7656C39.911 28.6178 40 28.4135 40 28.1999C39.9999 27.7673 39.6417 27.4167 39.1999 27.4167ZM20 45.1318L2.79048 28.9833H7.20006C7.64186 28.9833 8.00006 28.6326 8.00006 28.2V1.56667H31.9999V28.2C31.9999 28.6326 32.3581 28.9833 32.7999 28.9833H37.2095L20 45.1318Z" fill="#0F63E1"/>
<path d="M19.5 12.0769C21.1568 12.0769 22.5 13.4545 22.5 15.1538H24C23.996 12.9041 22.4124 10.9845 20.25 10.6077V9H18.75V10.6077C16.302 11.0473 14.6648 13.439 15.0935 15.9499C15.4687 18.1483 17.324 19.7563 19.5 19.7692C21.1568 19.7692 22.5 21.1468 22.5 22.8462C22.5 24.5455 21.1568 25.9231 19.5 25.9231C17.8432 25.9231 16.5 24.5455 16.5 22.8462H15C15.004 25.0959 16.5876 27.0155 18.75 27.3923V29H20.25V27.3923C22.698 26.9527 24.3352 24.561 23.9065 22.0501C23.5312 19.8517 21.676 18.2437 19.5 18.2308C17.8432 18.2308 16.5 16.8532 16.5 15.1538C16.5 13.4545 17.8432 12.0769 19.5 12.0769Z" fill="#0F63E1"/>
<path d="M11 3H10V5H11V3Z" fill="#0F63E1"/>
<path d="M14 3H13V5H14V3Z" fill="#0F63E1"/>
<path d="M18 3H16V5H18V3Z" fill="#0F63E1"/>
<path d="M20 3H19V5H20V3Z" fill="#0F63E1"/>
<path d="M23 3H22V5H23V3Z" fill="#0F63E1"/>
<path d="M27 3H25V5H27V3Z" fill="#0F63E1"/>
<path d="M30 3H28V5H30V3Z" fill="#0F63E1"/>
</svg>
