<svg width="36" height="47" viewBox="0 0 36 47" fill="none" xmlns="http://www.w3.org/2000/svg">
<path d="M35.7071 33.6953L15.708 14.2838C15.42 14.0082 14.992 13.9228 14.618 14.0742C14.244 14.2237 14 14.5789 14 14.971V41.8482C14 42.2189 14.218 42.5567 14.562 42.7198C14.906 42.8828 15.316 42.8421 15.6139 42.613L20.6917 38.7598L25.1235 46.5011C25.3076 46.8195 25.6475 47 25.9995 47C26.1495 47 26.3035 46.967 26.4475 46.8971L32.4473 43.9854C32.6913 43.867 32.8752 43.6573 32.9553 43.4049C33.0352 43.1506 33.0052 42.8769 32.8753 42.646L28.6995 35.3531H34.9992C35.4032 35.3531 35.7672 35.1162 35.9232 34.7533C36.0791 34.3902 35.9931 33.9729 35.7071 33.6953ZM27.0015 33.4139C26.6475 33.4139 26.3194 33.5963 26.1395 33.8933C25.9595 34.1884 25.9535 34.5553 26.1255 34.8561L30.6193 42.7042L26.4094 44.7482L21.8756 36.8244C21.7336 36.5759 21.4856 36.3993 21.1996 36.343C21.1316 36.3294 21.0656 36.3236 20.9996 36.3236C20.7796 36.3236 20.5597 36.3954 20.3836 36.5293L15.9998 39.8564V17.3139L32.5871 33.4139H27.0015Z" fill="#0F63E1"/>
<path d="M15 0C14.448 0 14 0.448028 14 1.00002V6.99998C14 7.55197 14.448 8 15 8C15.552 8 16 7.55197 16 6.99998V1.00002C15.9999 0.448028 15.552 0 15 0Z" fill="#0F63E1"/>
<path d="M6.99998 14H1.00002C0.448028 14 0 14.448 0 15C0 15.552 0.448028 16 1.00002 16H6.99998C7.55197 16 8 15.552 8 15C8 14.448 7.55197 14 6.99998 14Z" fill="#0F63E1"/>
<path d="M28 14H22C21.448 14 21 14.448 21 15C21 15.552 21.448 16 22 16H28C28.552 16 29 15.552 29 15C29 14.448 28.552 14 28 14Z" fill="#0F63E1"/>
<path d="M9.71889 8.3597L5.64011 4.28122C5.26529 3.90626 4.65593 3.90626 4.28111 4.28122C3.9063 4.65619 3.9063 5.26578 4.28111 5.64075L8.35989 9.71923C8.5483 9.90572 8.79427 10 9.04034 10C9.2864 10 9.53238 9.9077 9.71889 9.71923C10.0937 9.34426 10.0937 8.73467 9.71889 8.3597Z" fill="#0F63E1"/>
<path d="M9.71889 19.3281C9.34407 18.8906 8.73471 18.8906 8.35989 19.3281L4.28111 24.0863C3.9063 24.5238 3.9063 25.235 4.28111 25.6724C4.46952 25.89 4.71549 26 4.96156 26C5.20762 26 5.4536 25.8901 5.64011 25.6724L9.71889 20.9142C10.0937 20.4767 10.0937 19.7656 9.71889 19.3281Z" fill="#0F63E1"/>
<path d="M25.6721 4.28258C25.235 3.90581 24.5243 3.90581 24.0849 4.28258L19.3279 8.36009C18.8907 8.73497 18.8907 9.34441 19.3279 9.71929C19.5476 9.90574 19.8345 10 20.1215 10C20.4084 10 20.6953 9.90772 20.9151 9.71929L25.6721 5.64178C26.1093 5.2669 26.1093 4.65944 25.6721 4.28258Z" fill="#0F63E1"/>
</svg>
