<svg width="44" height="40" viewBox="0 0 44 40" fill="none" xmlns="http://www.w3.org/2000/svg">
<path d="M43.2667 38.5366V10H34.4667V38.5366H32.2667V15.8537H23.4667V38.5366H21.2667V21.7073H12.4667V38.5366H10.2667V28.2927H1.46667V38.5366H0.733333C0.328533 38.5366 0 38.8637 0 39.2683C0 39.6729 0.328533 40 0.733333 40H1.46667H10.2667H12.4667H21.2667H23.4667H32.2667H34.4667H43.2667C43.6715 40 44 39.6729 44 39.2683C44 38.8637 43.6715 38.5366 43.2667 38.5366ZM2.93333 38.5366V29.7561H8.8V38.5366H2.93333ZM13.9333 38.5366V23.1707H19.8V38.5366H13.9333ZM24.9333 38.5366V17.3171H30.8V38.5366H24.9333ZM35.9333 38.5366V11.4634H41.8V38.5366H35.9333Z" fill="#0F63E1"/>
<path d="M5.7332 19C5.85695 19 5.98364 18.9677 6.09861 18.8995L32.658 3.19252L30.9957 6.93549C30.8281 7.31279 30.9906 7.75759 31.359 7.92861C31.4571 7.97512 31.5603 7.99612 31.6621 7.99612C31.9404 7.99612 32.2062 7.8326 32.3292 7.55657L34.9377 1.68333C34.9457 1.66458 34.9443 1.64433 34.9508 1.62483C34.9648 1.58507 34.9757 1.54682 34.9831 1.50481C34.9867 1.48381 34.9984 1.46656 34.9999 1.4448C35.0006 1.4358 34.997 1.4283 34.9977 1.4193C34.9992 1.3908 34.9962 1.36454 34.9948 1.33604C34.9926 1.29479 34.986 1.25578 34.9772 1.21453C34.9713 1.18602 34.9699 1.15677 34.9604 1.12901C34.9516 1.10201 34.9362 1.07951 34.9245 1.05326C34.915 1.036 34.915 1.01575 34.9047 0.997748C34.8945 0.979746 34.8769 0.969245 34.8652 0.951992C34.8498 0.928739 34.8381 0.903986 34.8198 0.882984C34.8007 0.860481 34.7766 0.844729 34.7546 0.824476C34.7246 0.796723 34.6945 0.77122 34.6609 0.748717C34.6382 0.733715 34.6177 0.717213 34.5928 0.704461C34.5847 0.700711 34.5803 0.69321 34.5722 0.689459C34.5539 0.681208 34.5342 0.682709 34.5159 0.675958C34.4756 0.660956 34.436 0.650455 34.3943 0.642954C34.3753 0.639203 34.3599 0.627952 34.3401 0.626452L28.0702 0.00387385C27.6638 -0.0381314 27.3094 0.266407 27.2706 0.677458C27.231 1.09001 27.5262 1.45681 27.9282 1.49656L31.9236 1.89336L5.36632 17.6003C5.01555 17.8074 4.89619 18.2664 5.0983 18.625C5.23378 18.8657 5.47982 19 5.7332 19Z" fill="#0F63E1"/>
</svg>
