<svg width="48" height="46" viewBox="0 0 48 46" fill="none" xmlns="http://www.w3.org/2000/svg">
<path d="M27.9217 9.35923C29.0925 8.37385 29.8333 6.95923 29.8333 5.38462C29.8333 2.41615 27.2167 0 24 0C20.7833 0 18.1667 2.41615 18.1667 5.38462C18.1667 6.95923 18.9075 8.37385 20.0783 9.35923C16.6208 9.97462 14 12.7854 14 16.1538V19.2308C14 19.6562 14.3733 20 14.8333 20H33.1667C33.6267 20 34 19.6562 34 19.2308V16.1538C34 12.7854 31.3792 9.97462 27.9217 9.35923ZM19.8333 5.38462C19.8333 3.26385 21.7025 1.53846 24 1.53846C26.2975 1.53846 28.1667 3.26385 28.1667 5.38462C28.1667 7.50538 26.2975 9.23077 24 9.23077C21.7025 9.23077 19.8333 7.50538 19.8333 5.38462ZM32.3333 18.4615H15.6667V16.1538C15.6667 13.1854 18.2833 10.7692 21.5 10.7692H26.5C29.7167 10.7692 32.3333 13.1854 32.3333 16.1538V18.4615Z" fill="#0F63E1"/>
<path d="M42.2256 35.3592C43.3379 34.3738 44.0417 32.9592 44.0417 31.3846C44.0417 28.4162 41.5558 26 38.5 26C35.4442 26 32.9583 28.4162 32.9583 31.3846C32.9583 32.9592 33.6621 34.3738 34.7744 35.3592C31.4898 35.9746 29 38.7854 29 42.1538V45.2308C29 45.6562 29.3547 46 29.7917 46H47.2083C47.6453 46 48 45.6562 48 45.2308V42.1538C48 38.7854 45.5102 35.9746 42.2256 35.3592ZM34.5417 31.3846C34.5417 29.2638 36.3174 27.5385 38.5 27.5385C40.6826 27.5385 42.4583 29.2638 42.4583 31.3846C42.4583 33.5054 40.6826 35.2308 38.5 35.2308C36.3174 35.2308 34.5417 33.5054 34.5417 31.3846ZM46.4167 44.4615H30.5833V42.1538C30.5833 39.1854 33.0692 36.7692 36.125 36.7692H40.875C43.9308 36.7692 46.4167 39.1854 46.4167 42.1538V44.4615Z" fill="#0F63E1"/>
<path d="M13.2256 35.3592C14.3379 34.3738 15.0417 32.9592 15.0417 31.3846C15.0417 28.4162 12.5558 26 9.5 26C6.44417 26 3.95833 28.4162 3.95833 31.3846C3.95833 32.9592 4.66212 34.3738 5.77442 35.3592C2.48979 35.9746 0 38.7854 0 42.1538V45.2308C0 45.6562 0.354667 46 0.791667 46H18.2083C18.6453 46 19 45.6562 19 45.2308V42.1538C19 38.7854 16.5102 35.9746 13.2256 35.3592ZM5.54167 31.3846C5.54167 29.2638 7.31738 27.5385 9.5 27.5385C11.6826 27.5385 13.4583 29.2638 13.4583 31.3846C13.4583 33.5054 11.6826 35.2308 9.5 35.2308C7.31738 35.2308 5.54167 33.5054 5.54167 31.3846ZM17.4167 44.4615H1.58333V42.1538C1.58333 39.1854 4.06917 36.7692 7.125 36.7692H11.875C14.9308 36.7692 17.4167 39.1854 17.4167 42.1538V44.4615Z" fill="#0F63E1"/>
<path d="M44.8586 25L43 25.0363C43.0251 25.3566 43.0763 25.6811 43.1526 26L45 25.8894C44.9293 25.5951 44.8819 25.2957 44.8586 25Z" fill="#0F63E1"/>
<path d="M43.1517 21C43.0763 21.6344 43.0242 22.2828 43 22.9274L44.8595 23C44.8827 22.4047 44.9302 21.8065 45 21.2195L43.1517 21Z" fill="#0F63E1"/>
<path d="M37.1389 8C36.7503 8.29627 36.3673 8.61314 36 8.94281L36.9499 10C37.2881 9.69591 37.6412 9.4032 38 9.13037L37.1389 8Z" fill="#0F63E1"/>
<path d="M41.6186 15C41.394 15.4769 41.1863 15.9683 41 16.4636L42.4296 17C42.6014 16.5437 42.7931 16.0904 43 15.6517L41.6186 15Z" fill="#0F63E1"/>
<path d="M42.4075 18C42.2501 18.5474 42.1135 19.1114 42 19.6729L43.624 20C43.7284 19.4824 43.8542 18.9623 44 18.4563L42.4075 18Z" fill="#0F63E1"/>
<path d="M38.972 10C38.6324 10.3574 38.3063 10.7298 38 11.1078L39.1024 12C39.3846 11.6511 39.6866 11.3064 40 10.9766L38.972 10Z" fill="#0F63E1"/>
<path d="M34.3114 6C33.8692 6.23602 33.4284 6.49543 33 6.77092L33.7924 8C34.1871 7.74498 34.5936 7.50603 35 7.289L34.3114 6Z" fill="#0F63E1"/>
<path d="M40.8026 13C40.5189 13.4144 40.2489 13.844 40 14.2787L41.2591 15C41.4884 14.5994 41.738 14.2025 42 13.8208L40.8026 13Z" fill="#0F63E1"/>
<path d="M26.3453 42L26 43.7149C26.5883 43.8338 27.1932 43.9292 27.7972 44L28 42.2632C27.4449 42.1976 26.8872 42.1093 26.3453 42Z" fill="#0F63E1"/>
<path d="M21.6537 42C21.1121 42.1099 20.5565 42.1997 20 42.2678L20.2102 44C20.812 43.9267 21.4139 43.829 22 43.7104L21.6537 42Z" fill="#0F63E1"/>
<path d="M24.923 42C24.3083 42.0247 23.6869 42.0277 23.076 42.003L23 43.9802C23.3203 43.9941 23.6436 44 23.9707 44C24.3151 43.998 24.6585 43.9911 25 43.9772L24.923 42Z" fill="#0F63E1"/>
<path d="M9.94517 9L9 10.0531C9.33675 10.356 9.6636 10.6745 9.97276 11L11 10.0269C10.6647 9.67304 10.3102 9.32767 9.94517 9Z" fill="#0F63E1"/>
<path d="M8.1123 11L7 11.8992C7.28541 12.2516 7.56152 12.6226 7.82046 13L9 12.1916C8.7196 11.7834 8.42132 11.3824 8.1123 11Z" fill="#0F63E1"/>
<path d="M4.9792 23L3 23.0751C3.01288 23.3784 3.01882 23.6846 3.01882 23.9899C3.01882 24.3028 3.01288 24.6139 3 24.9249L4.9792 25C4.99307 24.6649 5 24.3279 5 23.988C5 23.6577 4.99307 23.3274 4.9792 23Z" fill="#0F63E1"/>
<path d="M6.28783 14L5 14.7379C5.23516 15.1479 5.45623 15.5729 5.65801 16L7 15.3667C6.7819 14.904 6.54229 14.4442 6.28783 14Z" fill="#0F63E1"/>
<path d="M5.48277 17L4 17.5576C4.17743 18.0297 4.33743 18.5152 4.47683 19L6 18.5636C5.84951 18.0376 5.67525 17.5117 5.48277 17Z" fill="#0F63E1"/>
<path d="M4.71328 20L3 20.3441C3.11014 20.8908 3.1993 21.448 3.26399 22L5 21.7939C4.9292 21.1965 4.83304 20.593 4.71328 20Z" fill="#0F63E1"/>
<path d="M12.1666 7L11 8.20747C11.5752 8.45441 12.144 8.72075 12.6923 9L14 7.85786C13.4065 7.55564 12.7903 7.26777 12.1666 7Z" fill="#0F63E1"/>
<path d="M14.5995 5L14 7.05766C14.4364 7.34407 14.8705 7.6608 15.2919 8L16 6.02097C15.5442 5.65256 15.0726 5.30887 14.5995 5Z" fill="#0F63E1"/>
</svg>
