<svg width="46" height="14" viewBox="0 0 46 14" fill="none" xmlns="http://www.w3.org/2000/svg">
<path d="M5.74531 4.9874V6.48545H9.44546C9.33219 7.32581 9.04272 7.94086 8.60223 8.37323C8.06105 8.89693 7.21782 9.46936 5.74531 9.46936C3.46732 9.46936 1.68646 7.69119 1.68646 5.48675C1.68646 3.28231 3.46732 1.50414 5.74531 1.50414C6.9724 1.50414 7.87227 1.97304 8.53301 2.57591L9.62166 1.52241C8.70291 0.657679 7.46953 0 5.74531 0C2.62409 0 -3.75079e-10 2.46021 -3.75079e-10 5.48066C-3.75079e-10 8.50111 2.62409 10.9613 5.74531 10.9613C7.43177 10.9613 8.70291 10.4254 9.69717 9.42673C10.7166 8.44021 11.0375 7.04569 11.0375 5.9252C11.0375 5.57809 11.0124 5.25534 10.9557 4.9874H5.74531Z" fill="#4285F4"/>
<path d="M15.6628 3.76941C13.6428 3.76941 11.9941 5.25528 11.9941 7.30748C11.9941 9.34141 13.6428 10.8455 15.6628 10.8455C17.6828 10.8455 19.3315 9.3475 19.3315 7.30748C19.3315 5.25528 17.6828 3.76941 15.6628 3.76941ZM15.6628 9.45103C14.5553 9.45103 13.5988 8.56803 13.5988 7.30748C13.5988 6.03475 14.5553 5.16393 15.6628 5.16393C16.7704 5.16393 17.7269 6.03475 17.7269 7.30748C17.7269 8.56803 16.7704 9.45103 15.6628 9.45103Z" fill="#EA4335"/>
<path d="M33.6473 4.56106H33.5906C33.2319 4.14697 32.5397 3.76941 31.665 3.76941C29.8401 3.76941 28.248 5.31008 28.248 7.30748C28.248 9.29269 29.8401 10.8455 31.665 10.8455C32.5397 10.8455 33.2319 10.468 33.5906 10.0417H33.6473V10.535C33.6473 11.8869 32.8984 12.6115 31.6965 12.6115C30.7148 12.6115 30.1044 11.9295 29.8527 11.351L28.4557 11.9112C28.8584 12.849 29.9219 14 31.6965 14C33.578 14 35.1701 12.9282 35.1701 10.3158V3.9521H33.6473V4.56106ZM31.8035 9.45103C30.6959 9.45103 29.8527 8.53758 29.8527 7.30748C29.8527 6.05911 30.6959 5.16393 31.8035 5.16393C32.8984 5.16393 33.7542 6.07738 33.7542 7.31966C33.7605 8.55585 32.8984 9.45103 31.8035 9.45103Z" fill="#4285F4"/>
<path d="M23.8435 3.76941C21.8235 3.76941 20.1748 5.25528 20.1748 7.30748C20.1748 9.34141 21.8235 10.8455 23.8435 10.8455C25.8635 10.8455 27.5122 9.3475 27.5122 7.30748C27.5122 5.25528 25.8635 3.76941 23.8435 3.76941ZM23.8435 9.45103C22.736 9.45103 21.7795 8.56803 21.7795 7.30748C21.7795 6.03475 22.736 5.16393 23.8435 5.16393C24.951 5.16393 25.9075 6.03475 25.9075 7.30748C25.9075 8.56803 24.951 9.45103 23.8435 9.45103Z" fill="#FBBC05"/>
<path d="M36.4287 0.146118H38.0082V10.8456H36.4287V0.146118Z" fill="#34A853"/>
<path d="M42.8844 9.45103C42.0663 9.45103 41.4874 9.09174 41.1098 8.37925L45.9993 6.42448L45.8357 6.02257C45.5337 5.23092 44.6023 3.76941 42.7082 3.76941C40.8267 3.76941 39.2598 5.20047 39.2598 7.30748C39.2598 9.29269 40.8078 10.8455 42.8844 10.8455C44.5583 10.8455 45.5274 9.85294 45.9301 9.28052L44.6841 8.47669C44.2688 9.06129 43.7025 9.45103 42.8844 9.45103ZM42.7711 5.09695C43.4193 5.09695 43.9731 5.4197 44.1555 5.87642L40.8518 7.19787C40.8518 5.712 41.9405 5.09695 42.7711 5.09695Z" fill="#EA4335"/>
</svg>
