<svg width="13" height="22" viewBox="0 0 13 22" fill="none" xmlns="http://www.w3.org/2000/svg">
<path d="M5.43432 15.4957C3.75598 15.3178 2.24271 14.8978 0.947106 13.8681C0.786346 13.74 0.620372 13.6165 0.47367 13.4734C-0.0934102 12.9199 -0.150549 12.2861 0.298172 11.6329C0.682045 11.0739 1.32644 10.9244 1.99624 11.2453C2.12594 11.3075 2.24951 11.3852 2.36787 11.4686C4.78244 13.1545 8.09944 13.201 10.5231 11.5444C10.7632 11.3573 11.0199 11.2048 11.3174 11.1269C11.8958 10.976 12.4352 11.1919 12.7456 11.7061C13.1002 12.2935 13.0957 12.8667 12.6588 13.3227C11.9885 14.0218 11.1824 14.5275 10.2868 14.8805C9.43993 15.2141 8.51233 15.3821 7.59426 15.4936C7.7328 15.6468 7.7981 15.7222 7.88471 15.8106C9.13134 17.0834 10.3834 18.3509 11.6259 19.6276C12.0493 20.0626 12.1377 20.602 11.9046 21.108C11.6498 21.6609 11.0793 22.0248 10.5199 21.9858C10.1655 21.9609 9.88911 21.7817 9.64355 21.5303C8.7028 20.5683 7.74436 19.6241 6.82266 18.644C6.55442 18.359 6.42541 18.4129 6.18869 18.6603C5.24227 19.6504 4.28043 20.6253 3.31293 21.5946C2.87849 22.0298 2.36152 22.1082 1.8577 21.8595C1.32214 21.5957 0.981344 21.0402 1.00765 20.4819C1.02579 20.1043 1.20854 19.8158 1.46362 19.5571C2.69732 18.3053 3.92762 17.0502 5.15838 15.7964C5.23978 15.7129 5.31573 15.6245 5.43432 15.4957Z" fill="white"/>
<path d="M6.45669 11.1354C3.46257 11.1251 1.00741 8.60277 1.02487 5.5554C1.04211 2.47438 3.49885 -0.00850322 6.52245 2.18879e-05C9.55217 0.00831658 11.984 2.52691 11.9688 5.63996C11.9534 8.68111 9.4812 11.146 6.45669 11.1354ZM9.17781 5.56277C9.1726 4.04968 7.98674 2.8451 6.50068 2.84372C5.00214 2.84211 3.80563 4.06857 3.81719 5.59549C3.8283 7.10282 5.02437 8.29887 6.51451 8.29334C8.00012 8.28804 9.1828 7.07563 9.17781 5.56277Z" fill="white"/>
</svg>
