<svg width="24" height="14" viewBox="0 0 24 14" fill="none" xmlns="http://www.w3.org/2000/svg">
<path d="M20.6554 8.90189C21.4515 9.70311 22.2917 10.4569 23.0058 11.3389C23.3212 11.7308 23.6198 12.1353 23.8482 12.5901C24.172 13.2367 23.8788 13.9483 23.3163 13.9869L19.8199 13.9852C18.9181 14.0623 18.1987 13.6882 17.5939 13.0526C17.1098 12.5443 16.6615 12.0034 16.196 11.478C16.0052 11.2633 15.8054 11.0612 15.5669 10.9015C15.0896 10.5821 14.6753 10.6799 14.4025 11.193C14.1247 11.7149 14.0617 12.2928 14.0344 12.8745C13.9969 13.7231 13.7481 13.9463 12.9211 13.9851C11.1536 14.071 9.47626 13.7954 7.918 12.8764C6.54419 12.0662 5.47891 10.9223 4.55164 9.62744C2.74634 7.10604 1.36377 4.33537 0.12121 1.4871C-0.158493 0.845379 0.0460692 0.500917 0.732974 0.488692C1.87358 0.465838 3.01405 0.467481 4.15601 0.48705C4.6196 0.494056 4.92649 0.768118 5.10551 1.21956C5.72262 2.78367 6.47772 4.27178 7.42553 5.65113C7.67796 6.01835 7.93535 6.38561 8.30181 6.64407C8.70728 6.93026 9.016 6.83541 9.20673 6.36981C9.32776 6.07459 9.38078 5.75661 9.40806 5.44046C9.49844 4.35267 9.51034 3.26671 9.35186 2.18273C9.25455 1.50623 8.88489 1.06827 8.23 0.940276C7.89583 0.874998 7.94556 0.746809 8.10738 0.550202C8.38839 0.211103 8.65272 0 9.17964 0H13.1311C13.7532 0.126546 13.8913 0.41462 13.9765 1.05982L13.9799 5.58421C13.9731 5.83396 14.1009 6.57522 14.5373 6.74051C14.8867 6.85822 15.1169 6.57014 15.3265 6.34184C16.2726 5.30681 16.9478 4.08358 17.5511 2.81696C17.8188 2.26 18.049 1.68162 18.2721 1.10369C18.4373 0.674863 18.6967 0.463857 19.1653 0.473182L22.9684 0.476661C23.0811 0.476661 23.1952 0.478352 23.3044 0.497631C23.9453 0.610213 24.1209 0.894374 23.923 1.53942C23.6111 2.55145 23.0043 3.39485 22.411 4.24211C21.7768 5.14668 21.0985 6.02033 20.4695 6.93026C19.8917 7.76134 19.9376 8.18016 20.6554 8.90189Z" fill="white"/>
</svg>
