<svg width="9" height="5" viewBox="0 0 9 5" fill="none" xmlns="http://www.w3.org/2000/svg">
<path d="M0.0898962 0.910563L4.29266 4.91406C4.35271 4.97132 4.42179 5 4.49994 5C4.57808 5 4.64729 4.97132 4.70737 4.91406L8.90979 0.910563C8.96999 0.853209 9 0.787399 9 0.712923C9 0.638477 8.9699 0.572577 8.90979 0.515343L8.45898 0.0859103C8.39887 0.0286469 8.32969 3.00407e-05 8.25155 3.00407e-05C8.1734 3.00407e-05 8.10423 0.0286469 8.04412 0.0859103L4.49994 3.46221L0.955631 0.0856996C0.895553 0.0284362 0.826345 0 0.748326 0C0.670053 0 0.600878 0.0286164 0.5408 0.0856996L0.0899286 0.515314C0.02985 0.572547 0 0.638477 0 0.712893C-3.14713e-05 0.787399 0.0298185 0.853299 0.0898962 0.910563Z" fill="white"/>
</svg>
