<svg width="58" height="58" viewBox="0 0 58 58" fill="none" xmlns="http://www.w3.org/2000/svg">
<path d="M58 29C58 13.0099 44.9901 0 29 0C13.0099 0 0 13.0099 0 29C0 37.4459 3.63185 45.0586 9.41287 50.363L9.38545 50.3872L10.3261 51.1803C10.3873 51.2319 10.4537 51.2741 10.5149 51.3247C11.0147 51.7392 11.5325 52.1325 12.0598 52.5132C12.2306 52.6366 12.4015 52.76 12.5755 52.8802C13.1386 53.2683 13.7165 53.6363 14.307 53.9853C14.4357 54.0613 14.5654 54.1351 14.6951 54.2089C15.3415 54.5769 16.0017 54.9239 16.6776 55.2424C16.7272 55.2656 16.7778 55.2867 16.8274 55.3099C19.0303 56.3338 21.382 57.0857 23.8412 57.5297C23.9055 57.5413 23.9698 57.5529 24.0352 57.5645C24.7987 57.6963 25.5706 57.8017 26.352 57.8724C26.4469 57.8808 26.5419 57.8861 26.6378 57.8945C27.4161 57.9589 28.2028 58 29 58C29.7899 58 30.5692 57.9589 31.3432 57.8967C31.4413 57.8882 31.5393 57.8829 31.6374 57.8745C32.4125 57.8039 33.1781 57.7016 33.9342 57.5719C33.9996 57.5603 34.066 57.5487 34.1314 57.536C36.5537 57.1015 38.8716 56.3665 41.0461 55.3689C41.1262 55.332 41.2074 55.2972 41.2876 55.2592C41.9382 54.9534 42.5741 54.6233 43.1973 54.2722C43.3524 54.1847 43.5063 54.0961 43.6603 54.0054C44.2276 53.6711 44.7855 53.322 45.3275 52.9508C45.5226 52.818 45.7135 52.6777 45.9065 52.5385C46.3694 52.2053 46.8239 51.8615 47.2658 51.5019C47.3639 51.4228 47.4693 51.3543 47.5653 51.2731L48.5302 50.4674L48.5017 50.4431C54.3333 45.1367 58 37.4891 58 29ZM2.10909 29C2.10909 14.172 14.172 2.10909 29 2.10909C43.828 2.10909 55.8909 14.172 55.8909 29C55.8909 36.9903 52.3845 44.1739 46.8334 49.1028C46.5234 48.8887 46.2112 48.6968 45.8917 48.5365L36.9629 44.0726C36.1614 43.6719 35.6637 42.8662 35.6637 41.9709V38.8526C35.8704 38.5974 36.0887 38.3085 36.3143 37.9911C37.4701 36.3586 38.3971 34.5427 39.073 32.5886C40.4091 31.9538 41.2717 30.6229 41.2717 29.1202V25.3819C41.2717 24.4676 40.9364 23.5807 40.3364 22.8836V17.9621C40.3912 17.4148 40.5852 14.326 38.3507 11.7782C36.4071 9.55945 33.2614 8.43636 29 8.43636C24.7386 8.43636 21.5929 9.55945 19.6493 11.7772C17.4148 14.3249 17.6088 17.4137 17.6636 17.961V22.8826C17.0647 23.5796 16.7283 24.4665 16.7283 25.3808V29.1192C16.7283 30.2802 17.2492 31.3632 18.1413 32.094C18.9955 35.4401 20.7535 37.9731 21.4031 38.8315V41.8834C21.4031 42.7439 20.9338 43.5348 20.1777 43.9482L11.8394 48.4964C11.5736 48.6409 11.31 48.8096 11.0464 48.9984C5.56378 44.0716 2.10909 36.9323 2.10909 29ZM44.7749 50.7574C44.4059 51.0252 44.0304 51.2847 43.6497 51.5325C43.4747 51.6464 43.3007 51.7603 43.1225 51.871C42.6247 52.1789 42.1185 52.4721 41.6018 52.7463C41.4879 52.8064 41.373 52.8633 41.258 52.9224C40.0706 53.5308 38.8421 54.0539 37.5798 54.4789C37.5355 54.4936 37.4912 54.5095 37.4459 54.5242C36.7847 54.7436 36.115 54.9387 35.438 55.1063C35.4359 55.1063 35.4338 55.1074 35.4317 55.1074C34.7483 55.2761 34.0565 55.4164 33.3605 55.5313C33.3416 55.5345 33.3226 55.5387 33.3036 55.5419C32.6487 55.6484 31.9886 55.7253 31.3263 55.7833C31.2093 55.7939 31.0922 55.8013 30.9741 55.8097C30.3192 55.8593 29.6612 55.8909 29 55.8909C28.3314 55.8909 27.6649 55.8582 27.0016 55.8087C26.8867 55.8002 26.7717 55.7928 26.6579 55.7823C25.9893 55.7232 25.3239 55.6441 24.6648 55.5366C24.6352 55.5313 24.6057 55.526 24.5762 55.5208C23.1821 55.2877 21.8101 54.945 20.474 54.4968C20.4329 54.4831 20.3907 54.4683 20.3496 54.4546C19.6863 54.2289 19.0303 53.979 18.386 53.7027C18.3818 53.7006 18.3765 53.6985 18.3723 53.6964C17.7628 53.4338 17.1648 53.1428 16.5743 52.8359C16.4973 52.7958 16.4193 52.7579 16.3433 52.7167C15.8045 52.4288 15.2772 52.1177 14.7573 51.7929C14.6033 51.6959 14.4504 51.5979 14.2986 51.4987C13.8198 51.1855 13.3474 50.8597 12.8876 50.5148C12.8401 50.479 12.7948 50.441 12.7473 50.4052C12.7811 50.3862 12.8148 50.3672 12.8486 50.3482L21.1869 45.8C22.6211 45.0175 23.5121 43.5169 23.5121 41.8834L23.5111 38.0849L23.2685 37.7917C23.2453 37.7654 20.9654 34.9919 20.1039 31.2367L20.0079 30.8191L19.6483 30.586C19.1411 30.2581 18.8373 29.7097 18.8373 29.1181V25.3797C18.8373 24.8894 19.0451 24.4328 19.4247 24.09L19.7727 23.7758V17.902L19.7632 17.7638C19.7601 17.7385 19.449 15.2023 21.2354 13.166C22.7603 11.4281 25.3734 10.5455 29 10.5455C32.6129 10.5455 35.2176 11.4207 36.7467 13.146C38.531 15.1612 38.2389 17.7448 38.2368 17.7659L38.2273 23.7779L38.5753 24.0921C38.9539 24.4338 39.1627 24.8915 39.1627 25.3819V29.1202C39.1627 29.8721 38.6512 30.5544 37.9172 30.7811L37.3931 30.9425L37.2244 31.4645C36.6022 33.3975 35.7164 35.1828 34.5923 36.7709C34.316 37.1611 34.0471 37.507 33.8161 37.7717L33.5546 38.0701V41.9709C33.5546 43.6708 34.4995 45.1999 36.0201 45.9592L44.9489 50.4231C45.0059 50.4516 45.0618 50.4811 45.1177 50.5106C45.0048 50.596 44.8888 50.6751 44.7749 50.7574Z" fill="#27AE60"/>
</svg>
