<svg width="59" height="23" viewBox="0 0 59 23" fill="none" xmlns="http://www.w3.org/2000/svg">
<path d="M8.64075 10.88H7.35381C5.3316 10.88 3.37059 9.60015 3.37059 6.39985C3.37059 3.06677 5.2092 1.70668 7.07798 1.70668H8.64075V10.88ZM10.663 1.19209e-06H7.17021C3.73781 1.19209e-06 0.827737 2.26706 0.827737 6.66691C0.827737 9.30682 2.23708 11.2536 4.74976 12.2131L0.0614434 19.5731C-0.0919831 19.8132 0.0614433 20 0.306255 20H2.48189C2.6655 20 2.78875 19.9467 2.84995 19.8132L7.109 12.5866H8.64075V19.8132C8.64075 19.8935 8.73298 20 8.85538 20H10.7552C10.9388 20 11 19.9197 11 19.7869V0.266328C11 0.0802648 10.8776 1.19209e-06 10.663 1.19209e-06Z" fill="#ED1E24"/>
<path d="M19.8177 7H18.2043C18.0739 7 17.9963 7.10366 17.9963 7.18176V12.1375H15.0037V7.18176C15.0037 7.05183 14.9517 7 14.8214 7H13.2079C13.0783 7 13 7.0781 13 7.18176V19.7927C13 19.9219 13.052 20 13.1816 20H14.8214C14.9253 20 15.0037 19.9219 15.0037 19.7927V13.7726H17.9963V19.7927C17.9963 19.9219 18.0739 20 18.2043 20H19.8177C19.948 20 20 19.8956 20 19.7927V7.18176C20 7.0781 19.9217 7 19.8177 7Z" fill="#231F20"/>
<path d="M58.9882 19.8267L58.7308 18.9205C58.6982 18.8402 58.6664 18.8132 58.5695 18.8132C58.4082 18.8132 57.539 19.1065 56.2819 19.1065C53.8338 19.1065 52.6411 17.1598 52.6411 14.0668C52.6411 11.3466 53.6399 8.65341 55.3157 8.65341C55.7662 8.65341 56.3145 8.75994 57.1837 9.42685C57.2807 9.50711 57.345 9.53338 57.442 9.53338C57.539 9.53338 57.635 9.48012 57.732 9.34659L58.6021 8.17329C58.6664 8.09376 58.6982 8.0135 58.6982 7.93324C58.6982 7.82671 58.5695 7.74717 58.3764 7.66691C57.055 7.10653 56.1532 7 55.3801 7C52.352 7 50 9.9865 50 14.6534C50 18.6797 52.255 21 55.477 21C56.8302 21 58.2795 20.4666 58.8595 20.12C58.9882 20.0398 59.0208 19.9332 58.9882 19.8267Z" fill="#231F20"/>
<path d="M47.1225 12.8646L49.5717 7.18176C49.6124 7.10437 49.5918 7 49.5102 7H48.3063C47.959 7 47.8367 7.1562 47.7144 7.49345L45.8779 12.3456C45.7757 12.631 45.6735 12.8127 45.5713 12.8908V7.18176C45.5713 7.0781 45.5306 7 45.449 7H44.1223C44.0614 7 44 7.0781 44 7.18176V19.8182C44 19.8963 44.0408 20 44.1223 20H45.449C45.5306 20 45.5713 19.9219 45.5713 19.8182V13.3055C45.6327 13.3573 45.6735 13.4354 45.7143 13.5391L48.0405 19.6109C48.1634 19.9219 48.3471 20 48.6123 20H49.9184C50 20 50.0206 19.8963 49.9793 19.8182L47.1225 12.8646Z" fill="#231F20"/>
<path d="M28.7228 18.6994H24.6271C26.0679 16.3759 26.6329 13.7578 26.8307 10.5521C26.8872 9.85779 26.915 9.13713 26.915 8.68252H28.7228V18.6994ZM31.7735 18.6994H31.435C31.0107 18.6994 30.8978 18.5394 30.8978 18.2185V7.18711C30.8978 7.05335 30.8414 7 30.7286 7H25.0793C24.9379 7 24.8528 7.07966 24.8528 7.18711V8.14823C24.8528 11.3802 24.6557 15.5478 22.8479 18.6994H22.2257C22.0564 18.6994 22 18.7798 22 18.9128V22.8129C22 22.9466 22.1128 23 22.1979 23H23.5536C23.8643 23 23.9771 22.7866 23.9771 22.5995V20.3819H30.0221V22.8129C30.0221 22.9196 30.1071 23 30.22 23H31.6607C31.83 23 32 22.8662 32 22.5995V18.9128C32 18.7798 31.915 18.6994 31.7735 18.6994Z" fill="#231F20"/>
<path d="M36.9871 12.7865C36.3552 12.7865 35.3652 12.893 35.3652 12.893C35.3652 12.893 35.3652 12.4932 35.4202 12.0663C35.6676 9.79985 36.2446 8.65277 37.2075 8.65277C38.0868 8.65277 38.6367 9.82612 38.7744 11.8802C38.8014 12.3064 38.8014 12.7865 38.8014 12.7865H36.9871ZM37.2895 7C34.3204 7 33.001 10.6266 33.001 14.5735C33.001 18.6 34.8703 21 37.6197 21C38.9662 21 40.1487 20.4936 40.7535 20.12C40.8633 20.0667 40.8912 19.9872 40.8633 19.8799L40.6437 18.9736C40.6158 18.8671 40.5609 18.8138 40.4233 18.8138C40.3134 18.8138 39.5161 19.1072 38.3892 19.1072C36.2724 19.1072 35.2825 17.3201 35.2825 14.9734V14.3422C35.2825 14.3422 36.3552 14.467 36.9871 14.467H41.001V13.3469C41.001 9.21318 39.489 7 37.2895 7Z" fill="#231F20"/>
</svg>
