<svg width="106" height="46" viewBox="0 0 106 46" fill="none" xmlns="http://www.w3.org/2000/svg">
<path d="M30.4483 30.4047H21.9819L18.1099 16.6733L14.2518 30.4047H5.76809L-2.11954e-07 4.70648H8.54622L10.7653 16.3198L14.0122 4.70648H22.1938L25.4477 16.3129L27.6702 4.70648H36.1817L30.4483 30.4047ZM22.9196 29.1826H29.4586L34.6433 5.93544H28.6877L25.6699 21.699L21.2527 5.93544H14.9533L10.5395 21.7265L7.52526 5.93544H1.54186L6.77516 29.1895H13.3142L18.1065 12.1145L22.9196 29.1826Z" fill="white"/>
<path d="M59.5831 30.4047H37.4727V4.70648H59.2115V11.1533H46.3627V13.831H58.2704V20.0444H46.3766V23.6489H59.5727L59.5831 30.4047ZM38.7055 29.1826H58.3468V24.8607H45.1507V18.8154H57.0619V15.0393H45.1403V9.93126H57.9892V5.93544H38.7089L38.7055 29.1826Z" fill="white"/>
<path d="M11.379 34.7712L9.29538 35.1454C9.25347 34.7886 9.08342 34.4585 8.81616 34.2151C8.54216 33.9984 8.19786 33.8874 7.84728 33.9027C7.60914 33.8927 7.37178 33.936 7.15291 34.0293C6.93405 34.1226 6.73931 34.2636 6.58323 34.4417C6.26838 34.801 6.11095 35.404 6.11095 36.2508C6.11095 37.1891 6.2707 37.8528 6.59018 38.2418C6.74378 38.4309 6.93995 38.5818 7.16305 38.6825C7.38614 38.7832 7.62997 38.831 7.87506 38.822C8.2359 38.835 8.58832 38.7123 8.8613 38.4787C9.16433 38.1575 9.35434 37.7481 9.40304 37.3115L11.4866 37.6548C11.3359 38.4887 10.8964 39.2449 10.2434 39.7935C9.52982 40.3071 8.65938 40.5628 7.77783 40.5178C7.25889 40.5419 6.7407 40.4568 6.25757 40.268C5.77443 40.0792 5.3374 39.7911 4.97539 39.4227C4.28086 38.6927 3.9336 37.6811 3.9336 36.3881C3.9336 35.0951 4.28086 34.0778 4.97539 33.3363C5.34338 32.9674 5.78601 32.6795 6.27433 32.4914C6.76264 32.3033 7.28563 32.2192 7.80908 32.2447C8.63179 32.2016 9.44693 32.4193 10.1358 32.866C10.7555 33.3445 11.1935 34.0159 11.379 34.7712Z" fill="white"/>
<path d="M12.4938 36.2816C12.4968 35.5766 12.6757 34.8833 13.0147 34.2631C13.3438 33.631 13.8581 33.1117 14.4906 32.7732C15.1445 32.4259 15.877 32.2487 16.6193 32.2583C17.1705 32.2391 17.7198 32.3329 18.2326 32.5338C18.7454 32.7346 19.2105 33.0382 19.5988 33.4255C19.9834 33.8142 20.2844 34.2759 20.4837 34.7827C20.6831 35.2894 20.7766 35.8308 20.7587 36.3743C20.7758 36.9229 20.6806 37.4693 20.4789 37.9807C20.2772 38.4922 19.9731 38.9581 19.5849 39.3505C19.2023 39.7385 18.7424 40.0437 18.2344 40.247C17.7263 40.4503 17.1811 40.5471 16.6332 40.5314C15.9095 40.5303 15.196 40.3622 14.5496 40.0405C13.9014 39.7305 13.3691 39.2259 13.0286 38.5988C12.6569 37.8828 12.473 37.0861 12.4938 36.2816ZM14.6642 36.3949C14.6201 37.0442 14.8219 37.6866 15.2302 38.1971C15.4036 38.3926 15.6172 38.5492 15.8568 38.6565C16.0963 38.7638 16.3563 38.8193 16.6193 38.8193C16.8823 38.8193 17.1423 38.7638 17.3818 38.6565C17.6214 38.5492 17.835 38.3926 18.0084 38.1971C18.4163 37.6799 18.6167 37.032 18.5709 36.3777C18.6138 35.7333 18.4134 35.096 18.0084 34.5892C17.835 34.3937 17.6214 34.2371 17.3818 34.1298C17.1423 34.0225 16.8823 33.967 16.6193 33.967C16.3563 33.967 16.0963 34.0225 15.8568 34.1298C15.6172 34.2371 15.4036 34.3937 15.2302 34.5892C14.8219 35.0997 14.6201 35.7421 14.6642 36.3914V36.3949Z" fill="white"/>
<path d="M22.2578 32.4335H24.2094V33.5148C24.4977 33.1271 24.8735 32.8114 25.307 32.5926C25.7404 32.3739 26.2196 32.2583 26.7063 32.255C27.1706 32.2434 27.6301 32.3511 28.0398 32.5673C28.4322 32.7915 28.7533 33.1197 28.967 33.5148C29.2779 33.1261 29.6654 32.8037 30.106 32.5673C30.5089 32.3592 30.9572 32.2519 31.4118 32.255C31.9316 32.2352 32.4473 32.3538 32.905 32.5982C33.3139 32.835 33.6343 33.1963 33.8183 33.6281C33.993 34.157 34.0672 34.7134 34.0371 35.269V40.329H31.9188V35.8251C31.9188 35.0401 31.8458 34.5332 31.7 34.3044C31.6025 34.1572 31.4672 34.0384 31.3079 33.9599C31.1486 33.8815 30.9712 33.8464 30.7936 33.8581C30.4933 33.8592 30.2007 33.9528 29.9567 34.1258C29.6848 34.3184 29.4857 34.595 29.3907 34.912C29.2523 35.4465 29.1938 35.9982 29.217 36.5494V40.3496H27.0987V36.0139C27.1232 35.5145 27.0847 35.0141 26.9841 34.5241C26.9267 34.3241 26.8047 34.1481 26.6368 34.0229C26.4437 33.9038 26.2182 33.8463 25.9909 33.8581C25.6769 33.8544 25.3692 33.9454 25.1089 34.119C24.8415 34.3003 24.6434 34.565 24.5463 34.8708C24.409 35.4031 24.3516 35.9525 24.3761 36.5014V40.3461H22.2578V32.4335Z" fill="white"/>
<path d="M36.0898 32.4335H38.0658V33.5973C38.3277 33.1951 38.6854 32.8627 39.1076 32.6292C39.5503 32.3788 40.0526 32.2496 40.5626 32.255C41.0137 32.2511 41.46 32.346 41.8696 32.533C42.2791 32.72 42.6416 32.9943 42.931 33.3364C43.5792 34.0573 43.9033 35.0608 43.9033 36.347C43.9033 37.6697 43.5769 38.6996 42.924 39.4365C42.6356 39.7826 42.2727 40.0607 41.8618 40.2508C41.4509 40.4408 41.0024 40.5379 40.5487 40.535C40.1333 40.5405 39.7221 40.4513 39.3472 40.2741C38.9172 40.0455 38.5325 39.742 38.2116 39.3781V43.3534H36.0933L36.0898 32.4335ZM38.1734 36.2577C38.1734 37.1479 38.3517 37.8048 38.7082 38.2281C38.8614 38.4269 39.0589 38.5879 39.2854 38.6987C39.5119 38.8094 39.7612 38.8669 40.0139 38.8667C40.2505 38.8699 40.4847 38.8188 40.698 38.7176C40.9112 38.6163 41.0979 38.4676 41.2433 38.2831C41.5697 37.894 41.7329 37.2544 41.7329 36.3641C41.7329 35.5334 41.5639 34.9177 41.2259 34.5172C41.0789 34.3279 40.8895 34.1748 40.6726 34.07C40.4557 33.9652 40.2172 33.9115 39.9758 33.9131C39.7295 33.9091 39.4856 33.9605 39.2624 34.0634C39.0392 34.1663 38.8426 34.3179 38.6874 34.507C38.3146 35.0129 38.1361 35.6335 38.1839 36.2577H38.1734Z" fill="white"/>
<path d="M47.1652 34.8502L45.2413 34.507C45.3954 33.8223 45.7904 33.214 46.356 32.7905C46.8839 32.4221 47.6675 32.2379 48.707 32.2379C49.4275 32.2025 50.1473 32.3195 50.8184 32.5811C51.225 32.7532 51.5664 33.0474 51.7942 33.4222C51.9817 33.7632 52.0755 34.388 52.0755 35.2965L52.0512 37.7407C52.0376 38.2553 52.0713 38.77 52.1519 39.2786C52.2338 39.6466 52.3621 40.003 52.5339 40.3393H50.4503C50.3947 40.1997 50.3264 39.9938 50.2454 39.7214C50.2107 39.5979 50.1864 39.5155 50.169 39.4743C49.8342 39.8066 49.4397 40.0743 49.0057 40.2638C48.5883 40.4387 48.1393 40.5274 47.6861 40.5247C46.9741 40.5639 46.2748 40.3261 45.7379 39.8622C45.5053 39.6522 45.3203 39.3958 45.1952 39.11C45.0701 38.8242 45.0077 38.5155 45.0121 38.2041C45.0042 37.7828 45.1161 37.3677 45.3351 37.0061C45.5516 36.6546 45.868 36.374 46.2449 36.1993C46.7838 35.9687 47.3495 35.8049 47.9291 35.7119C48.6301 35.6033 49.3195 35.4309 49.9884 35.197V34.9876C50.0044 34.8309 49.9856 34.6726 49.9334 34.5238C49.8812 34.375 49.7969 34.2392 49.6863 34.1259C49.3459 33.9179 48.9453 33.8274 48.5473 33.8684C48.2374 33.8508 47.9296 33.9275 47.6652 34.0881C47.4242 34.2862 47.2498 34.552 47.1652 34.8502ZM49.9988 36.5667C49.5751 36.6943 49.1451 36.8009 48.7105 36.8859C48.3093 36.9469 47.9203 37.0697 47.5576 37.2498C47.4311 37.3282 47.3269 37.437 47.2546 37.5661C47.1824 37.6952 47.1444 37.8403 47.1443 37.9878C47.1456 38.1312 47.1771 38.2728 47.2369 38.4034C47.2967 38.5341 47.3835 38.6509 47.4916 38.7465C47.6034 38.853 47.7357 38.9361 47.8807 38.991C48.0256 39.0458 48.1803 39.0713 48.3354 39.0658C48.7314 39.0611 49.1151 38.9298 49.4293 38.6916C49.6708 38.5247 49.8491 38.2832 49.9363 38.005C50.0077 37.6665 50.0357 37.3205 50.0197 36.9752L49.9988 36.5667Z" fill="white"/>
<path d="M61.4519 40.3496H59.3336V36.3092C59.3634 35.753 59.3179 35.1954 59.1981 34.6511C59.1181 34.415 58.9635 34.2104 58.7571 34.0675C58.5396 33.9239 58.2823 33.8508 58.0209 33.8581C57.6688 33.8542 57.3241 33.9586 57.0347 34.1568C56.7501 34.3456 56.5385 34.6238 56.4339 34.9463C56.2973 35.5429 56.2424 36.1548 56.2707 36.7657V40.3496H54.1523V32.4335H56.1213V33.5972C56.5549 33.0053 57.178 32.5755 57.8896 32.3774C58.6012 32.1792 59.3596 32.2244 60.042 32.5056C60.3855 32.6402 60.6881 32.8602 60.9206 33.1441C61.1196 33.4049 61.2605 33.7044 61.3338 34.0229C61.4246 34.4865 61.4642 34.9584 61.4519 35.4304V40.3496Z" fill="white"/>
<path d="M74.4531 24.1706C74.734 23.9296 74.9563 23.6292 75.1036 23.2916C75.2509 22.9541 75.3194 22.5881 75.3039 22.2208C75.3157 21.8729 75.2459 21.5271 75.1001 21.2103C74.9544 20.8935 74.7365 20.6143 74.4636 20.3945C73.9033 19.9368 72.9217 19.7079 71.5187 19.7079H67.4453V24.9018H71.5326C72.9124 24.8972 73.8859 24.6535 74.4531 24.1706Z" fill="white"/>
<path d="M73.5433 14.1743C73.7955 13.9388 73.992 13.6512 74.1187 13.3319C74.2454 13.0126 74.2991 12.6696 74.276 12.3274C74.294 12 74.2376 11.6728 74.1107 11.3698C73.9839 11.0668 73.79 10.7958 73.5433 10.5767C73.0548 10.1579 72.2029 9.94846 70.9874 9.94846H67.4453V14.8128H70.918C72.1658 14.8174 73.0409 14.6045 73.5433 14.1743Z" fill="white"/>
<path d="M82.7159 5.74231e-05C77.5879 -0.00775627 72.6022 1.66687 68.5405 4.7614H74.3641C76.8645 4.7614 78.7848 5.37359 80.1253 6.59797C80.7715 7.16847 81.2855 7.87027 81.6319 8.65532C81.9783 9.44036 82.1491 10.2901 82.1325 11.1465C82.1631 12.5777 81.6516 13.9686 80.6983 15.0462C79.9342 15.85 78.9704 16.4418 77.9028 16.7626C79.7665 17.2066 81.1382 17.9675 82.0179 19.0454C82.9252 20.2072 83.3921 21.6466 83.3375 23.1133C83.3569 24.3707 83.033 25.61 82.3999 26.7006C81.7861 27.751 80.9002 28.6207 79.8336 29.2203C78.8819 29.6868 77.8499 29.9721 76.7915 30.0614C75.6014 30.2366 74.4029 30.3512 73.2008 30.4047H60.6992C62.3034 35.05 65.3655 39.068 69.4399 41.8738C69.6946 41.5506 69.879 41.179 69.9816 40.7821L66.9361 32.8454H69.1899L71.1068 38.465L72.9751 32.8454H75.1698L72.3431 40.4629L71.836 41.836C71.697 42.2059 71.5189 42.5603 71.3047 42.8933L71.2318 42.9929C74.3292 44.7342 77.7897 45.749 81.3466 45.9591C84.9035 46.1692 88.4617 45.5688 91.7468 44.2044C95.0318 42.84 97.9559 40.7479 100.294 38.0896C102.631 35.4312 104.32 32.2776 105.23 28.872C106.14 25.4664 106.246 21.8997 105.541 18.447C104.835 14.9943 103.337 11.748 101.162 8.95822C98.9862 6.16849 96.1917 3.90994 92.9935 2.35677C89.7954 0.803596 86.2791 -0.00270264 82.7159 5.74231e-05Z" fill="white"/>
</svg>
