<svg width="45" height="38" viewBox="0 0 45 38" fill="none" xmlns="http://www.w3.org/2000/svg">
<path d="M41.4618 0H3.53831C1.58722 0 0 1.86964 0 4.16779V33.8321C0 36.1304 1.58722 38 3.53831 38H41.4617C43.4128 38 45 36.1303 45 33.8321V4.16779C45.0001 1.86964 43.4129 0 41.4618 0ZM8.85711 34.8925H3.53831C3.04208 34.8924 2.63822 34.4167 2.63822 33.8321V4.16779C2.63822 3.58316 3.04208 3.10754 3.53831 3.10754H8.85711V34.8925ZM42.3619 33.8322C42.3619 34.4168 41.958 34.8925 41.4618 34.8925H11.4954V9.31445H42.3619V33.8322ZM42.3619 6.2068H11.4954V3.10754H41.4618C41.958 3.10754 42.3619 3.58316 42.3619 4.16779V6.2068Z" fill="#DADCE4"/>
</svg>
