<svg width="45" height="38" viewBox="0 0 45 38" fill="none" xmlns="http://www.w3.org/2000/svg">
<path d="M37.4997 13.2644C37.1828 13.0429 36.7661 12.9542 36.3645 13.0226C27.7908 14.4858 21.5912 20.9188 21.5912 28.3976V31.6667H6.3674C5.61213 31.6667 5 32.1889 5 32.8333C5 33.4777 5.61213 34 6.3674 34H22.9586C23.7138 34 24.326 33.4777 24.326 32.8333V31.4267C27.7359 30.6604 30.7773 29.0936 33.176 26.8584C33.5111 26.5461 33.6215 26.1035 33.4644 25.7015L33.0603 24.6667H34.3718C34.861 24.6667 35.3129 24.4437 35.5568 24.0819C37.1553 21.7112 38 19.0096 38 16.2689V14.1667C38 13.8174 37.8163 13.4862 37.4997 13.2644ZM35.2652 16.2692C35.2652 18.3795 34.6769 20.4622 33.5581 22.3334H31.163C30.7236 22.3334 30.3105 22.5135 30.0537 22.818C29.7966 23.1221 29.7269 23.5131 29.8657 23.8689L30.6085 25.7705C28.8334 27.268 26.6947 28.3657 24.326 28.9992V28.3976C24.326 22.5427 28.8359 17.4009 35.2652 15.6691V16.2692Z" fill="#DADCE4"/>
<path d="M41.0449 0H3.95508C1.77429 0 0 1.49829 0 3.33984V34.6602C0 36.5017 1.77429 38 3.95508 38H41.0449C43.2257 38 45 36.5017 45 34.6602V3.33984C45 1.49829 43.2257 0 41.0449 0ZM3.95508 2.22656H41.0449C41.7717 2.22656 42.3633 2.72609 42.3633 3.33984V8.90625H2.63672V3.33984C2.63672 2.72609 3.22826 2.22656 3.95508 2.22656ZM41.0449 35.7734H3.95508C3.22826 35.7734 2.63672 35.2739 2.63672 34.6602V11.1328H42.3633V34.6602C42.3633 35.2739 41.7717 35.7734 41.0449 35.7734Z" fill="#DADCE4"/>
<path d="M7 5C7 5.55234 6.55208 6 6 6C5.44766 6 5 5.55234 5 5C5 4.44766 5.44766 4 6 4C6.55208 4 7 4.44766 7 5Z" fill="#DADCE4"/>
<path d="M13 5C13 5.55234 12.1042 6 11 6C9.89531 6 9 5.55234 9 5C9 4.44766 9.89531 4 11 4C12.1042 4 13 4.44766 13 5Z" fill="#DADCE4"/>
<path d="M19 5C19 5.55234 18.1042 6 17 6C15.8953 6 15 5.55234 15 5C15 4.44766 15.8953 4 17 4C18.1042 4 19 4.44766 19 5Z" fill="#DADCE4"/>
<path d="M26.25 6H38.75C39.4404 6 40 5.55234 40 5C40 4.44766 39.4404 4 38.75 4H26.25C25.5596 4 25 4.44766 25 5C25 5.55234 25.5596 6 26.25 6Z" fill="#DADCE4"/>
</svg>
