<svg width="30" height="39" viewBox="0 0 30 39" fill="none" xmlns="http://www.w3.org/2000/svg">
<path d="M28.8108 7.06225L22.5249 1.12287C21.869 0.502937 20.5991 0 19.6906 0H1.64595C0.736565 0 0 0.728 0 1.625V37.375C0 38.272 0.736565 39 1.64595 39H28.354C29.2626 39 30 38.272 30 37.375V9.81094C30.0008 8.91394 29.4684 7.683 28.8108 7.06225ZM26.4966 33.3872C26.4966 34.2842 25.7592 35.0122 24.8506 35.0122H4.96502C4.05646 35.0122 3.31907 34.2842 3.31907 33.3872V4.69219C3.31907 3.79519 4.05646 3.06719 4.96502 3.06719H18.5598C19.4684 3.06719 20.2057 3.79519 20.2057 4.69219V7.3905C20.2057 8.28831 20.9431 9.0155 21.8517 9.0155H24.8515C25.76 9.0155 26.4974 9.7435 26.4974 10.6405V33.3872H26.4966Z" fill="#DADCE4"/>
<path d="M5.26847 20H23.7315C24.4309 20 25 19.5513 25 19C25 18.4487 24.4309 18 23.7315 18H5.26847C4.56912 18 4 18.4487 4 19C4 19.5513 4.56828 20 5.26847 20Z" fill="#DADCE4"/>
<path d="M23.7315 23H5.26847C4.56912 23 4 23.673 4 24.5C4 25.327 4.56912 26 5.26847 26H23.7315C24.4309 26 25 25.327 25 24.5C25 23.673 24.4317 23 23.7315 23Z" fill="#DADCE4"/>
<path d="M20.8072 29H8.19205C7.53483 29 7 29.673 7 30.5C7 31.327 7.53483 32 8.19205 32H20.8079C21.466 32 22 31.327 22 30.5C22 29.673 21.4652 29 20.8072 29Z" fill="#DADCE4"/>
<path d="M10.5 15C13.5325 15 16 12.5325 16 9.5C16 6.46745 13.5325 4 10.5 4C7.46745 4 5 6.46745 5 9.5C5 12.5325 7.46745 15 10.5 15ZM10.5 6.47488C12.1681 6.47488 13.5251 7.83193 13.5251 9.5C13.5251 11.1681 12.1681 12.5251 10.5 12.5251C8.83193 12.5251 7.47488 11.1681 7.47488 9.5C7.47488 7.83193 8.83193 6.47488 10.5 6.47488Z" fill="#DADCE4"/>
</svg>
