<svg width="45" height="38" viewBox="0 0 45 38" fill="none" xmlns="http://www.w3.org/2000/svg">
<path d="M43.3569 0H1.64314C0.737114 0 0 0.725764 0 1.61784V36.3822C0 37.2742 0.737114 38 1.64314 38H43.3569C44.2629 38 45 37.2742 45 36.3822V1.61784C45 0.725764 44.2629 0 43.3569 0ZM42.3633 2.59612V4.53476L26.9495 4.5716C26.5378 4.57262 26.1451 4.72541 25.8433 5.00226L23.6749 6.99498H2.63672V2.59612H42.3633ZM2.63672 35.4039V9.59076H24.0734C24.4868 9.59076 24.8809 9.43797 25.1831 9.1601L27.3525 7.16671L42.3636 7.13054V35.4039H2.63672Z" fill="#DADCE4"/>
<path d="M9.02005 5.79301C9.02604 5.84068 9.03411 5.88874 9.04401 5.93602C9.05339 5.98173 9.06484 6.02901 9.07682 6.07395C9.08932 6.11888 9.10339 6.16382 9.11875 6.2068C9.13411 6.24978 9.15078 6.29198 9.16875 6.33301C9.18672 6.37404 9.20677 6.41389 9.22734 6.45101C9.24818 6.48891 9.27005 6.52603 9.29349 6.5612C9.31615 6.59598 9.34063 6.62919 9.36615 6.66006C9.39141 6.69093 9.41797 6.72023 9.44531 6.74719C9.47214 6.77415 9.50078 6.79994 9.52943 6.82299C9.55807 6.84605 9.58802 6.86715 9.61797 6.88512C9.64792 6.90427 9.67865 6.92107 9.71016 6.93514C9.74141 6.9492 9.77344 6.96132 9.80469 6.97109C9.83672 6.98124 9.86953 6.98828 9.90208 6.99297C9.93464 6.99805 9.96797 7 10 7C10.0326 7 10.0659 6.99805 10.0987 6.99297C10.1307 6.98828 10.1633 6.98124 10.1953 6.97109C10.2273 6.96132 10.2594 6.9492 10.2906 6.93514C10.3214 6.92107 10.3529 6.90427 10.3826 6.88512C10.4128 6.86715 10.4427 6.84605 10.4714 6.82299C10.5 6.79994 10.5281 6.77415 10.5555 6.74719C10.5826 6.72023 10.6094 6.69093 10.6341 6.66006C10.6602 6.62919 10.6841 6.59598 10.7073 6.5612C10.7307 6.52603 10.7529 6.48891 10.7734 6.45101C10.794 6.41389 10.8133 6.37404 10.832 6.33301C10.8495 6.29198 10.8667 6.24978 10.882 6.2068C10.8974 6.16382 10.9115 6.11888 10.9234 6.07395C10.9359 6.02901 10.9474 5.98173 10.9568 5.93602C10.9661 5.88874 10.974 5.84068 10.9807 5.79301C10.9875 5.74494 10.9919 5.69571 10.9953 5.64765C10.9987 5.59881 11 5.54879 11 5.49995C11 5.45072 10.9987 5.40188 10.9953 5.35264C10.9919 5.3038 10.9875 5.25457 10.9807 5.20651C10.974 5.15884 10.9659 5.11077 10.9568 5.06467C10.9474 5.01778 10.9359 4.97167 10.9234 4.92674C10.9115 4.88063 10.8974 4.83648 10.882 4.79349C10.8667 4.75051 10.8495 4.70753 10.832 4.66768C10.8133 4.62665 10.794 4.5864 10.7734 4.5485C10.7526 4.5106 10.7307 4.47348 10.7073 4.43948C10.6841 4.40432 10.6602 4.3715 10.6341 4.34063C10.6094 4.30937 10.5826 4.27928 10.5555 4.25232C10.5281 4.22536 10.5 4.20035 10.4714 4.1773C10.4427 4.15424 10.4128 4.13354 10.3826 4.11439C10.3529 4.09642 10.3214 4.07922 10.2906 4.06555C10.2594 4.05031 10.2273 4.03859 10.1953 4.02921C10.1633 4.01944 10.1307 4.01241 10.0987 4.00733C10.0333 3.99756 9.96745 3.99756 9.90208 4.00733C9.86953 4.01241 9.83672 4.01944 9.80469 4.02921C9.77344 4.03859 9.74141 4.05031 9.71016 4.06555C9.67865 4.07922 9.64792 4.09642 9.61797 4.11439C9.58802 4.13354 9.55807 4.15424 9.52943 4.1773C9.50078 4.20035 9.47214 4.22536 9.44531 4.25232C9.41797 4.27928 9.39141 4.30937 9.36615 4.34063C9.34063 4.3715 9.31615 4.40432 9.29349 4.43948C9.27005 4.47348 9.24818 4.5106 9.22734 4.5485C9.20677 4.5864 9.18672 4.62665 9.16875 4.66768C9.15078 4.70753 9.13411 4.75051 9.11875 4.79349C9.10339 4.83648 9.08958 4.88063 9.07682 4.92674C9.06484 4.97167 9.05339 5.01778 9.04401 5.06467C9.03411 5.11077 9.02604 5.15884 9.02005 5.20651C9.01328 5.25457 9.00885 5.3038 9.00547 5.35264C9.00208 5.40188 9 5.45072 9 5.49995C9 5.54879 9.00208 5.59881 9.00547 5.64765C9.00885 5.6961 9.01354 5.74494 9.02005 5.79301Z" fill="#DADCE4"/>
<path d="M4.54883 6.65971C4.58711 6.69097 4.62695 6.71988 4.66797 6.74683C4.70781 6.77379 4.75117 6.79997 4.79414 6.82302C4.83711 6.84568 4.88203 6.86678 4.92695 6.88475C4.97188 6.90389 5.01797 6.92069 5.06484 6.93476C5.11211 6.94882 5.15898 6.96093 5.20703 6.9707C5.25508 6.98086 5.30391 6.98789 5.35312 6.99297C5.40195 6.99766 5.45078 7 5.5 7C5.54883 7 5.59883 6.99766 5.64805 6.99297C5.69609 6.98789 5.74492 6.98086 5.79297 6.9707C5.84102 6.96093 5.88906 6.94882 5.93594 6.93476C5.98203 6.92069 6.02891 6.90389 6.07383 6.88475C6.11875 6.86678 6.16406 6.84568 6.20703 6.82302C6.25 6.79997 6.29219 6.77379 6.3332 6.74683C6.37383 6.71988 6.41406 6.69097 6.45117 6.65971C6.48906 6.62885 6.52617 6.59564 6.56094 6.56087C6.59609 6.5257 6.62891 6.48898 6.66016 6.45069C6.69102 6.41397 6.71992 6.37373 6.74688 6.3327C6.77383 6.29168 6.8 6.24988 6.82305 6.2069C6.84609 6.16393 6.8668 6.11861 6.88516 6.07368C6.90391 6.02875 6.92109 5.98187 6.93516 5.93576C6.94883 5.88888 6.96094 5.84083 6.97109 5.79277C6.98086 5.74472 6.98789 5.69588 6.99297 5.64783C6.99805 5.5986 7 5.54859 7 5.49976C7 5.45053 6.99805 5.40169 6.99297 5.35247C6.98789 5.30363 6.98086 5.25479 6.97109 5.20674C6.96094 5.15868 6.94883 5.1118 6.93516 5.06453C6.92109 5.01765 6.90391 4.97154 6.88516 4.92662C6.8668 4.88051 6.84609 4.83676 6.82305 4.79378C6.8 4.75042 6.77383 4.70744 6.74688 4.66759C6.71992 4.62657 6.69102 4.58672 6.66016 4.54843C6.62891 4.51053 6.59609 4.47342 6.56094 4.43943C6.52617 4.40466 6.48906 4.37145 6.45117 4.33941C6.41406 4.30972 6.37383 4.27964 6.3332 4.25268C6.29219 4.22533 6.25 4.20033 6.20703 4.17767C6.16406 4.15462 6.11875 4.13352 6.07383 4.11437C6.02891 4.0964 5.98203 4.0796 5.93594 4.06554C5.88906 4.05069 5.84102 4.03858 5.79297 4.02959C5.74492 4.01944 5.69609 4.0124 5.64805 4.00733C5.55 3.99756 5.45078 3.99756 5.35312 4.00733C5.30391 4.0124 5.25508 4.01944 5.20703 4.02959C5.15898 4.03858 5.11211 4.05069 5.06484 4.06554C5.01797 4.0796 4.97188 4.0964 4.92695 4.11437C4.88203 4.13352 4.83711 4.15462 4.79414 4.17767C4.75117 4.20033 4.7082 4.22533 4.66797 4.25268C4.62695 4.27964 4.58711 4.30972 4.54883 4.33941C4.51094 4.37145 4.47383 4.40466 4.43984 4.43943C4.40508 4.47342 4.37188 4.51053 4.34102 4.54843C4.31016 4.58672 4.28008 4.62657 4.25313 4.66759C4.22617 4.70744 4.20117 4.75042 4.17813 4.79378C4.15508 4.83676 4.13398 4.88051 4.11484 4.92662C4.09688 4.97154 4.08008 5.01765 4.06602 5.06453C4.05117 5.1118 4.03906 5.15868 4.03008 5.20674C4.01992 5.25479 4.01328 5.30363 4.0082 5.35247C4.00313 5.40169 4 5.45053 4 5.49976C4 5.89474 4.16016 6.28074 4.43984 6.56087C4.47383 6.59564 4.51094 6.62885 4.54883 6.65971Z" fill="#DADCE4"/>
<path d="M13.0301 5.79301C13.0391 5.84068 13.0508 5.88874 13.066 5.93602C13.0801 5.98173 13.0969 6.02901 13.1149 6.07395C13.134 6.11888 13.1547 6.16382 13.1778 6.2068C13.2008 6.24978 13.2258 6.29198 13.2528 6.33301C13.2801 6.37404 13.3098 6.41389 13.3411 6.45101C13.3719 6.48891 13.4051 6.52603 13.4399 6.5612C13.4739 6.59598 13.511 6.62919 13.5489 6.66006C13.5872 6.69093 13.627 6.72023 13.6681 6.74719C13.7079 6.77415 13.7509 6.79994 13.7939 6.82299C13.8372 6.84605 13.8818 6.86715 13.9271 6.88512C13.972 6.90427 14.0181 6.92107 14.065 6.93514C14.1123 6.9492 14.1599 6.96132 14.2068 6.97109C14.2549 6.98124 14.3041 6.98828 14.3529 6.99297C14.4021 6.99805 14.4521 7 14.5002 7C14.549 7 14.599 6.99805 14.6479 6.99297C14.6971 6.98828 14.7451 6.98124 14.794 6.97109C14.8413 6.96132 14.8889 6.9492 14.9362 6.93514C14.9831 6.92107 15.0292 6.90427 15.0741 6.88512C15.119 6.86715 15.164 6.84605 15.2069 6.82299C15.2503 6.79994 15.2929 6.77415 15.3331 6.74719C15.3741 6.72023 15.414 6.69093 15.4523 6.66006C15.4902 6.62919 15.5273 6.59598 15.5613 6.5612C15.596 6.52603 15.6292 6.48891 15.6601 6.45101C15.6914 6.41389 15.7203 6.37404 15.748 6.33301C15.7742 6.29198 15.8004 6.24978 15.823 6.2068C15.8461 6.16382 15.8672 6.11888 15.8851 6.07395C15.9043 6.02901 15.9211 5.98173 15.9351 5.93602C15.9492 5.88874 15.9609 5.84068 15.9711 5.79301C15.9812 5.74494 15.9883 5.69571 15.993 5.64765C15.998 5.59881 16 5.54879 16 5.49995C16 5.45072 15.998 5.40188 15.993 5.35264C15.9883 5.3038 15.9812 5.25457 15.9711 5.20651C15.9609 5.15884 15.9492 5.11156 15.9351 5.06467C15.9211 5.01778 15.9043 4.97167 15.8851 4.92674C15.8672 4.8818 15.8461 4.83648 15.823 4.79349C15.8004 4.75051 15.7742 4.70753 15.748 4.66768C15.7203 4.62665 15.6914 4.5864 15.6601 4.5485C15.6292 4.5106 15.596 4.47348 15.5613 4.43948C15.5273 4.40432 15.4902 4.3715 15.4523 4.34063C15.414 4.30937 15.3741 4.27928 15.3331 4.25232C15.2933 4.22536 15.2503 4.20035 15.2069 4.1773C15.164 4.15424 15.119 4.13354 15.0741 4.11439C15.0292 4.09642 14.9831 4.07922 14.9362 4.06555C14.8889 4.05148 14.8413 4.03859 14.794 4.02921C14.7451 4.01944 14.6971 4.01241 14.6479 4.00733C14.5502 3.99756 14.451 3.99756 14.3529 4.00733C14.3041 4.01241 14.2552 4.01944 14.2068 4.02921C14.1599 4.03859 14.1123 4.05148 14.065 4.06555C14.0181 4.07922 13.972 4.09642 13.9271 4.11439C13.8818 4.13354 13.8372 4.15424 13.7939 4.1773C13.7509 4.20035 13.7079 4.22536 13.6681 4.25232C13.627 4.27928 13.5868 4.30937 13.5489 4.34063C13.511 4.3715 13.4739 4.40432 13.4399 4.43948C13.4047 4.47348 13.3719 4.5106 13.3411 4.5485C13.3098 4.5864 13.2801 4.62665 13.2528 4.66768C13.2258 4.70753 13.2008 4.75051 13.1778 4.79349C13.1551 4.83648 13.134 4.8818 13.1149 4.92674C13.0969 4.97167 13.0797 5.01778 13.066 5.06467C13.0508 5.11156 13.0391 5.15884 13.0301 5.20651C13.0199 5.25457 13.0129 5.3038 13.0078 5.35264C13.0027 5.40188 13 5.45072 13 5.49995C13 5.54879 13.0027 5.59881 13.0078 5.64765C13.0129 5.6961 13.0199 5.74494 13.0301 5.79301Z" fill="#DADCE4"/>
<path d="M16.6501 16.4074C16.1634 15.8861 15.3507 15.8618 14.8346 16.3536L9.42108 21.5126C9.15352 21.7681 9 22.1285 9 22.5007C9.00033 22.8729 9.15419 23.2329 9.42209 23.4881L14.8346 28.6464C15.0828 28.8827 15.3992 29 15.7152 29C16.0567 29 16.3972 28.8631 16.6501 28.5923C17.1367 28.071 17.1126 27.2492 16.5965 26.7574L12.1292 22.5L16.5965 18.2426C17.1129 17.7508 17.1367 16.929 16.6501 16.4074Z" fill="#DADCE4"/>
<path d="M25.2541 16.1126C24.6198 15.8209 23.8771 16.1153 23.5947 16.7704L19.1091 27.1736C18.8266 27.8287 19.1117 28.5957 19.746 28.8874C19.9119 28.9638 20.0857 29 20.2566 29C20.7377 29 21.1969 28.713 21.4054 28.2296L25.891 17.8264C26.1734 17.1713 25.888 16.4044 25.2541 16.1126Z" fill="#DADCE4"/>
<path d="M30.1653 16.3536C29.6492 15.8618 28.8365 15.8861 28.3498 16.4074C27.8632 16.929 27.8873 17.7508 28.4033 18.2423L32.8708 22.5L28.4033 26.7574C27.8873 27.2492 27.8632 28.0707 28.3498 28.5923C28.6027 28.8631 28.9432 29 29.2847 29C29.6004 29 29.9171 28.8827 30.1653 28.6464L35.5779 23.4881C35.8458 23.2329 35.9997 22.8729 36 22.5007C36 22.1282 35.8465 21.7681 35.5779 21.5119L30.1653 16.3536Z" fill="#DADCE4"/>
</svg>
