<svg width="38" height="38" viewBox="0 0 38 38" fill="none" xmlns="http://www.w3.org/2000/svg">
<path d="M15.228 28.893L30.6101 19.7C30.8514 19.5563 31 19.2891 31 19.0014C31 18.7136 30.8514 18.4464 30.6101 18.3023L15.228 9.10807C14.9866 8.96398 14.6895 8.96398 14.4481 9.10807C14.2068 9.25216 14.0582 9.51894 14.0582 9.80712V14.0874H0.779884C0.349388 14.0874 0 14.449 0 14.8946V23.1057C0 23.5513 0.349388 23.9129 0.779884 23.9129H14.0586V28.1928C14.0586 28.4818 14.2071 28.7477 14.4485 28.8918C14.5694 28.9645 14.7039 29 14.8385 29C14.973 29 15.1075 28.9645 15.228 28.893Z" fill="#DADCE4"/>
<path d="M32.0937 0H15.7997C15.3583 0 15 0.355901 15 0.794422V3.17769C15 3.61621 15.3583 3.97211 15.7997 3.97211H32.0937C33.1461 3.97211 34.0014 4.82254 34.0014 5.86721V32.1328C34.0014 33.1779 33.1453 34.0279 32.0937 34.0279H15.7997C15.3583 34.0279 15 34.3838 15 34.8223V37.2056C15 37.6441 15.3583 38 15.7997 38H32.0937C35.3509 38 38 35.3677 38 32.1328V5.8676C38 2.63232 35.3505 0 32.0937 0Z" fill="#DADCE4"/>
</svg>
