<svg width="46" height="44" viewBox="0 0 46 44" fill="none" xmlns="http://www.w3.org/2000/svg">
<path d="M24.434 15.434H23.566V14.566C23.566 14.2534 23.3127 14 23 14C22.6873 14 22.434 14.2534 22.434 14.566V15.434H21.566C21.2534 15.434 21 15.6873 21 16C21 16.3127 21.2534 16.566 21.566 16.566H22.434V17.434C22.434 17.7466 22.6873 18 23 18C23.3127 18 23.566 17.7466 23.566 17.434V16.566H24.434C24.7466 16.566 25 16.3127 25 16C24.9999 15.6873 24.7466 15.434 24.434 15.434Z" fill="#F7D33C"/>
<path d="M33.434 34.7924H32.566V33.7076C32.566 33.3167 32.3127 33 32 33C31.6873 33 31.434 33.3167 31.434 33.7076V34.7924H30.566C30.2534 34.7924 30 35.1091 30 35.5C30 35.8909 30.2534 36.2076 30.566 36.2076H31.434V37.2924C31.434 37.6833 31.6873 38 32 38C32.3127 38 32.566 37.6833 32.566 37.2924V36.2076H33.434C33.7466 36.2076 34 35.8909 34 35.5C33.9999 35.1091 33.7466 34.7924 33.434 34.7924Z" fill="#F7D33C"/>
<path d="M15.434 34.7924H14.566V33.7076C14.566 33.3167 14.3127 33 14 33C13.6873 33 13.434 33.3167 13.434 33.7076V34.7924H12.566C12.2534 34.7924 12 35.1091 12 35.5C12 35.8909 12.2534 36.2076 12.566 36.2076H13.434V37.2924C13.434 37.6833 13.6873 38 14 38C14.3127 38 14.566 37.6833 14.566 37.2924V36.2076H15.434C15.7466 36.2076 16 35.8909 16 35.5C15.9999 35.1091 15.7466 34.7924 15.434 34.7924Z" fill="#F7D33C"/>
<path d="M45.4037 30.8894C45.0345 30.8458 44.6978 31.1108 44.6542 31.4818C43.4825 41.4331 31.7166 46.1095 24.0379 39.7241C27.3104 36.3409 28.6233 31.6306 27.692 27.1338C31.8381 25.6682 35.0948 22.299 36.4081 18.0791C40.7905 19.6686 44.0813 23.6189 44.6542 28.4845C44.6978 28.8555 45.0341 29.1209 45.4037 29.0769C45.7742 29.0333 46.039 28.697 45.9953 28.3263C45.3559 22.8956 41.6579 18.4955 36.7474 16.765C38.418 8.69371 32.8112 0.962263 24.7012 0.00481721C24.3329 -0.0386376 23.9952 0.22623 23.9516 0.59717C23.9079 0.96802 24.1727 1.30414 24.5431 1.34778C31.8245 2.20743 36.8809 9.11566 35.4474 16.377C31.0855 15.304 26.4873 16.3793 23.0467 19.3113C19.5088 16.2965 14.877 15.3345 10.6461 16.3779C9.21158 9.11557 14.2689 2.20743 21.5499 1.34778C21.9203 1.30414 22.1852 0.96793 22.1414 0.59717C22.0979 0.22632 21.7621 -0.0394473 21.3919 0.00481721C13.2664 0.964152 7.67768 8.71089 9.34625 16.767C3.90793 18.6895 0 23.8876 0 29.9831C0 37.7087 6.27657 43.994 13.9914 43.994C17.4421 43.994 20.6043 42.736 23.0465 40.6548C31.5305 47.8845 44.6908 42.7189 45.9952 31.6399C46.0389 31.2692 45.7742 30.933 45.4037 30.8894ZM35.115 17.688C33.9378 21.4586 31.043 24.4766 27.3524 25.8197C26.6928 23.7016 25.5432 21.7984 24.0378 20.2422C27.1948 17.617 31.31 16.7553 35.115 17.688ZM23.0466 21.1602C24.4149 22.568 25.4602 24.2923 26.0597 26.212C24.084 26.6977 22.0114 26.6982 20.0336 26.212C20.633 24.2922 21.6783 22.568 23.0466 21.1602ZM22.0553 20.2421C20.5499 21.7984 19.4003 23.7016 18.7408 25.8197C15.0502 24.4768 12.1558 21.4592 10.9784 17.6889C14.8055 16.7481 18.9172 17.6327 22.0553 20.2421ZM1.35044 29.9831C1.35044 24.5165 4.82892 19.8485 9.68568 18.0812C10.9995 22.3002 14.2559 25.6685 18.4013 27.1338C17.4704 31.6287 18.7814 36.3392 22.0553 39.7241C13.8408 46.5549 1.35044 40.6672 1.35044 29.9831ZM19.7012 27.5229C21.8945 28.0638 24.1964 28.0644 26.392 27.5229C27.1834 31.5293 26.015 35.7519 23.0466 38.8061C20.0781 35.7517 18.9099 31.5291 19.7012 27.5229Z" fill="#F7D33C"/>
</svg>
