<svg width="46" height="46" viewBox="0 0 46 46" fill="none" xmlns="http://www.w3.org/2000/svg">
<path d="M30.6668 4.29773H15.3335V5.73815H30.6668V4.29773Z" fill="#F7D33C"/>
<path d="M37.9501 29.7948C37.9501 28.4049 36.7462 27.274 35.2668 27.274H33.7335V17.1907H32.2001V27.274H30.2835C28.804 27.274 27.6001 28.405 27.6001 29.7948C27.6001 30.5004 27.9124 31.1373 28.4115 31.5954C27.9124 32.0534 27.6001 32.6903 27.6001 33.3959C27.6001 33.8815 27.7539 34.3313 28.0083 34.7165C27.0912 35.1177 26.4501 35.9859 26.4501 36.9971C26.4501 37.3852 26.5518 37.7487 26.7193 38.0774H20.7001C20.7001 35.8752 19.5254 33.9263 17.7338 32.7545C19.4663 32.1341 20.7001 30.5572 20.7001 28.7144C20.7001 28.3167 20.3572 27.9942 19.9335 27.9942H13.8001V20.7919H12.2668V27.9942C10.9985 27.9942 9.9668 28.9635 9.9668 30.1549V46H11.5001V30.1549C11.5001 29.7579 11.8438 29.4347 12.2668 29.4347H19.0694C18.7287 30.6757 17.5263 31.5954 16.1001 31.5954H13.8001C13.3764 31.5954 13.0335 31.9178 13.0335 32.3156C13.0335 32.7133 13.3764 33.0358 13.8001 33.0358C16.759 33.0358 19.1668 35.2974 19.1668 38.0774V38.7977C19.1668 39.1954 19.5097 39.5179 19.9335 39.5179H24.4193C24.2518 39.8466 24.1501 40.2101 24.1501 40.5982C24.1501 41.9881 25.3541 43.1191 26.8335 43.1191V46H28.3668V43.1191H31.4335H31.8168C33.2963 43.1191 34.5001 41.988 34.5001 40.5982C34.5001 40.206 34.396 39.839 34.225 39.5076C35.6534 39.4529 36.8001 38.3521 36.8001 36.9971C36.8001 36.5116 36.6463 36.0617 36.392 35.6765C37.3091 35.2753 37.9501 34.4071 37.9501 33.3959C37.9501 32.6903 37.6379 32.0534 37.1388 31.5954C37.6379 31.1373 37.9501 30.5004 37.9501 29.7948ZM31.8168 41.6786H31.4335H27.6001H26.8335C26.1993 41.6786 25.6835 41.194 25.6835 40.5982C25.6835 40.0025 26.1993 39.5179 26.8335 39.5179H29.1335H31.8168C32.4509 39.5179 32.9668 40.0025 32.9668 40.5982C32.9668 41.194 32.4509 41.6786 31.8168 41.6786ZM34.1168 38.0774H31.8168H29.1335C28.4993 38.0774 27.9835 37.5928 27.9835 36.9971C27.9835 36.4014 28.4993 35.9167 29.1335 35.9167H30.2835H34.1168C34.7509 35.9167 35.2668 36.4014 35.2668 36.9971C35.2668 37.5928 34.7509 38.0774 34.1168 38.0774ZM35.2668 34.4763H34.1168H30.2835C29.6493 34.4763 29.1335 33.9917 29.1335 33.3959C29.1335 32.8002 29.6493 32.3156 30.2835 32.3156H35.2668C35.9009 32.3156 36.4168 32.8002 36.4168 33.3959C36.4168 33.9917 35.9009 34.4763 35.2668 34.4763ZM35.2668 30.8751H30.2835C29.6493 30.8751 29.1335 30.3905 29.1335 29.7948C29.1335 29.1991 29.6493 28.7144 30.2835 28.7144H35.2668C35.9009 28.7144 36.4168 29.1991 36.4168 29.7948C36.4168 30.3905 35.9009 30.8751 35.2668 30.8751Z" fill="#F7D33C"/>
<path d="M11.4976 10.4212C11.4819 10.2144 11.3725 10.0238 11.1966 9.89861L10.3985 9.33026C10.2076 8.42231 9.35923 7.73584 8.34474 7.73584C7.20001 7.73584 6.2663 8.61011 6.25135 9.6901C5.63888 9.58954 5.05343 9.3687 4.52932 9.03703L4.26204 8.86751C4.02772 8.71878 3.72374 8.70257 3.47294 8.82843C3.22291 8.9533 3.06642 9.19809 3.06642 9.46431V10.0552C3.06642 10.9231 3.34491 11.751 3.86155 12.4463L3.28808 12.9914C3.07025 13.1978 3.00652 13.507 3.12564 13.7753C3.24457 14.0432 3.52383 14.2179 3.83309 14.2179H7.54817C9.02985 14.2179 10.2547 13.1569 10.4194 11.7953L11.2782 10.9791C11.4332 10.8317 11.5133 10.6284 11.4976 10.4212ZM9.12636 10.9748C8.98414 11.1095 8.90469 11.2917 8.90469 11.4812C8.90469 12.1959 8.29596 12.7775 7.54807 12.7775H5.59777C5.71909 12.5151 5.66667 12.1986 5.43983 11.9831C5.08199 11.6427 4.82592 11.2143 4.69635 10.7525C5.42785 11.0423 6.21398 11.1929 7.01811 11.1929C7.44189 11.1929 7.78478 10.8704 7.78478 10.4726V9.71648C7.78478 9.41857 8.03635 9.17631 8.34483 9.17631C8.65332 9.17631 8.90489 9.41857 8.90489 9.71648C8.90489 9.94191 9.0172 10.1543 9.2081 10.2904L9.57352 10.5503L9.12636 10.9748Z" fill="#F7D33C"/>
<path d="M25.3002 14.3335V12.893H23.0002C22.5764 12.893 22.2335 13.2155 22.2335 13.6132V15.7739H20.7002V17.2144H22.2335V20.0952H23.7668V17.2144H25.3002V15.7739H23.7668V14.3335H25.3002Z" fill="#F7D33C"/>
<path d="M27.6001 9.4549H18.4001C17.1318 9.4549 16.1001 10.4241 16.1001 11.6156V20.2584C16.1001 21.4498 17.1318 22.4191 18.4001 22.4191H27.6001C28.8683 22.4191 29.9001 21.4498 29.9001 20.2584V11.6156C29.9001 10.4241 28.8683 9.4549 27.6001 9.4549ZM28.3668 20.2584C28.3668 20.6554 28.0231 20.9786 27.6001 20.9786H18.4001C17.9771 20.9786 17.6334 20.6554 17.6334 20.2584V11.6156C17.6334 11.2186 17.9771 10.8954 18.4001 10.8954H27.6001C28.0231 10.8954 28.3668 11.2186 28.3668 11.6156V20.2584Z" fill="#F7D33C"/>
<path d="M11.5 4.29773H2.3C1.03174 4.29773 0 5.26698 0 6.45843V15.1012C0 16.2927 1.03174 17.2619 2.3 17.2619H11.5C12.7682 17.2619 13.8 16.2927 13.8 15.1012V6.45843C13.8 5.26698 12.7682 4.29773 11.5 4.29773ZM12.2667 15.1012C12.2667 15.4983 11.923 15.8215 11.5 15.8215H2.3C1.87699 15.8215 1.53333 15.4983 1.53333 15.1012V6.45843C1.53333 6.0614 1.87699 5.7382 2.3 5.7382H11.5C11.923 5.7382 12.2667 6.0614 12.2667 6.45843V15.1012Z" fill="#F7D33C"/>
<path d="M43.7002 0H34.5002C33.2319 0 32.2002 0.969254 32.2002 2.1607V10.8035C32.2002 11.9949 33.2319 12.9642 34.5002 12.9642H43.7002C44.9684 12.9642 46.0002 11.9949 46.0002 10.8035V2.1607C46.0002 0.969254 44.9684 0 43.7002 0ZM44.4669 10.8035C44.4669 11.2005 44.1232 11.5237 43.7002 11.5237H34.5002C34.0772 11.5237 33.7335 11.2005 33.7335 10.8035V7.20233H35.3444C35.7006 8.84392 37.2492 10.0833 39.1002 10.0833C40.9512 10.0833 42.4998 8.84392 42.856 7.20233H44.4669V10.8035ZM36.8002 6.4821C36.8002 5.29065 37.8319 4.3214 39.1002 4.3214C40.3684 4.3214 41.4002 5.29065 41.4002 6.4821C41.4002 7.67355 40.3684 8.6428 39.1002 8.6428C37.8319 8.6428 36.8002 7.67355 36.8002 6.4821ZM44.4669 5.76187H42.856C42.4998 4.12028 40.9512 2.88093 39.1002 2.88093C37.2492 2.88093 35.7006 4.12028 35.3444 5.76187H33.7335V2.1607C33.7335 1.76367 34.0772 1.44047 34.5002 1.44047H43.7002C44.1232 1.44047 44.4669 1.76367 44.4669 2.1607V5.76187Z" fill="#F7D33C"/>
<path d="M23.7667 35.241H22.2334V36.6814H23.7667V35.241Z" fill="#F7D33C"/>
</svg>
