<svg width="46" height="46" viewBox="0 0 46 46" fill="none" xmlns="http://www.w3.org/2000/svg">
<path d="M45.4381 19.9652L42.6667 19.1871C42.4893 18.2612 42.246 17.3491 41.939 16.4578L43.9443 14.4043C44.1651 14.1778 44.225 13.8395 44.0956 13.5509C43.4476 12.1063 42.6531 10.732 41.7244 9.44979C41.5396 9.19281 41.2158 9.07588 40.9094 9.15554L38.1297 9.86744C37.5117 9.15612 36.8446 8.48911 36.1334 7.87112L36.8453 5.09144C36.9236 4.78515 36.807 4.46209 36.5511 4.27648C35.2688 3.34748 33.8947 2.55266 32.45 1.90462C32.1616 1.77391 31.8225 1.83402 31.5967 2.05584L29.5431 4.06121C28.6515 3.75424 27.7392 3.51103 26.8131 3.33352L26.0349 0.56212C25.9416 0.229625 25.6383 -9.62891e-05 25.2929 3.02776e-08H20.7073C20.3619 -9.62891e-05 20.0586 0.229625 19.9653 0.56212L19.1872 3.33352C18.2613 3.51094 17.3493 3.75414 16.4579 4.06121L14.4044 2.05584C14.1784 1.83411 13.8395 1.77401 13.5511 1.90462C12.1064 2.55246 10.7321 3.347 9.44991 4.27571C9.19399 4.46132 9.07735 4.78437 9.15565 5.09067L9.86755 7.87035C9.15623 8.48833 8.48912 9.15544 7.87114 9.86676L5.09145 9.15486C4.78506 9.07453 4.46094 9.19156 4.27649 9.44912C3.34749 10.7313 2.55266 12.1055 1.90462 13.5502C1.77517 13.8388 1.83518 14.1771 2.05584 14.4035L4.06122 16.457C3.75425 17.3487 3.51114 18.261 3.33352 19.1871L0.562121 19.9652C0.229626 20.0585 -9.62893e-05 20.3617 3.02776e-08 20.7071V25.2921C-9.62893e-05 25.6375 0.229626 25.9407 0.562121 26.0341L3.33352 26.8121C3.51094 27.7382 3.75415 28.6506 4.06122 29.5422L2.05584 31.5957C1.83518 31.8222 1.77517 32.1605 1.90462 32.449C2.55247 33.8937 3.34701 35.2679 4.27572 36.5501C4.46104 36.8064 4.78438 36.9232 5.09068 36.8444L7.87037 36.1325C8.48835 36.8438 9.15546 37.5109 9.86678 38.1289L9.15488 40.9086C9.07658 41.2149 9.19322 41.5379 9.44914 41.7235C10.7313 42.6525 12.1055 43.4473 13.5502 44.0954C13.8388 44.2244 14.1769 44.1645 14.4035 43.9442L16.4571 41.9388C17.3487 42.2458 18.261 42.4889 19.1871 42.6665L19.9652 45.4379C20.0585 45.7704 20.3619 46.0001 20.7072 46H25.2922C25.6376 46.0001 25.9408 45.7704 26.0341 45.4379L26.8122 42.6672C27.7383 42.4892 28.6506 42.2458 29.5423 41.9388L31.5958 43.9442C31.8222 44.1648 32.1606 44.2248 32.4491 44.0954C33.8937 43.4474 35.268 42.6529 36.5502 41.7242C36.8061 41.5386 36.9228 41.2155 36.8444 40.9092L36.1325 38.1296C36.8439 37.5116 37.5109 36.8445 38.1289 36.1332L40.9086 36.8451C41.2148 36.9239 41.5382 36.8072 41.7235 36.5509C42.6526 35.2687 43.4473 33.8944 44.0954 32.4497C44.2248 32.1611 44.1648 31.8229 43.9442 31.5964L41.9388 29.5429C42.2458 28.6512 42.4889 27.7389 42.6665 26.8128L45.4379 26.0347C45.7704 25.9414 46.0001 25.6382 46 25.2928V20.7071C46.0003 20.3618 45.7706 20.0585 45.4381 19.9652ZM44.459 24.7089L41.7853 25.4599C41.4978 25.5405 41.2828 25.7802 41.2337 26.0747C41.041 27.2317 40.7381 28.3676 40.3292 29.467C40.2245 29.7463 40.2908 30.0611 40.4993 30.2744L42.4701 32.2926C41.9829 33.3113 41.4168 34.2902 40.777 35.2205L38.0439 34.5207C37.7548 34.4454 37.4484 34.5453 37.2591 34.7765C36.5117 35.6805 35.6802 36.5118 34.7759 37.2589C34.5459 37.4492 34.4462 37.7553 34.5201 38.0445L35.2199 40.7776C34.2898 41.4175 33.3108 41.9833 32.292 42.4699L30.2737 40.4992C30.0607 40.2901 29.7456 40.2237 29.4663 40.3291C28.3669 40.738 27.231 41.0411 26.074 41.2343C25.7795 41.2837 25.5401 41.4985 25.4592 41.7859L24.7082 44.4588H21.2911L20.5401 41.7852C20.4595 41.4977 20.2199 41.2827 19.9253 41.2335C18.7683 41.0408 17.6324 40.7379 16.5331 40.329C16.2538 40.2234 15.9386 40.2898 15.7256 40.4991L13.7074 42.4699C12.6888 41.9827 11.7099 41.4166 10.7795 40.7768L11.4794 38.0437C11.5533 37.7547 11.4536 37.4489 11.2235 37.2589C10.3195 36.5115 9.48825 35.6801 8.7411 34.7757C8.55058 34.5459 8.24476 34.4463 7.95551 34.5199L5.22245 35.2197C4.58279 34.2894 4.01691 33.3104 3.53011 32.2918L5.50081 30.2736C5.70925 30.0601 5.77551 29.7454 5.67091 29.4661C5.26184 28.3668 4.95901 27.2309 4.76637 26.0738C4.71725 25.7793 4.50226 25.5397 4.21475 25.459L1.54111 24.7081V21.291L4.21475 20.54C4.50226 20.4594 4.71725 20.2197 4.76637 19.9252C4.95911 18.7682 5.26203 17.6323 5.67091 16.5329C5.77561 16.2536 5.70934 15.9388 5.50081 15.7255L3.53001 13.7073C4.0172 12.6886 4.58327 11.7097 5.22312 10.7794L7.95619 11.4792C8.24524 11.5533 8.55115 11.4536 8.741 11.2234C9.48844 10.3194 10.3199 9.48813 11.2242 8.74098C11.4542 8.55065 11.5539 8.24465 11.48 7.9554L10.7802 5.22234C11.7105 4.58268 12.6895 4.01681 13.7082 3.53001L15.7264 5.5007C15.9393 5.70991 16.2545 5.77627 16.5338 5.6708C17.633 5.26212 18.7686 4.95919 19.9253 4.76627C20.2199 4.71714 20.4594 4.50216 20.5401 4.21465L21.2911 1.54111H24.709L25.46 4.21474C25.5406 4.50225 25.7802 4.71724 26.0748 4.76636C27.2318 4.9591 28.3676 5.26202 29.467 5.6709C29.7463 5.77646 30.0615 5.7101 30.2745 5.5008L32.2927 3.53001C33.3113 4.01719 34.2902 4.58326 35.2206 5.22311L34.5207 7.95617C34.4468 8.24522 34.5464 8.55104 34.7766 8.74098C35.6806 9.48842 36.5119 10.3198 37.259 11.2242C37.4487 11.4551 37.7552 11.5549 38.0446 11.48L40.7777 10.7802C41.4176 11.7103 41.9834 12.6893 42.47 13.7081L40.4993 15.7263C40.2909 15.9398 40.2246 16.2545 40.3292 16.5338C40.7379 17.633 41.0408 18.7686 41.2337 19.9253C41.2828 20.2198 41.4978 20.4594 41.7853 20.5401L44.459 21.2911V24.7089Z" fill="#F7D33C"/>
<path d="M23 8C14.7157 8 8 14.7157 8 23C8.00919 31.2805 14.7195 37.9908 23 38C31.2843 38 38 31.2843 38 23C38 14.7157 31.2843 8 23 8ZM33.0463 31.9858L31.4851 30.4246L30.4245 31.4852L31.9857 33.0464C29.7098 35.09 26.8042 36.295 23.7499 36.4621V34.2501H22.2499V36.4621C19.1957 36.2951 16.2901 35.09 14.0141 33.0464L15.5753 31.4852L14.5147 30.4246L12.9535 31.9858C10.9099 29.7099 9.70484 26.8043 9.53778 23.75H11.7498V22.25H9.53797C9.70503 19.1958 10.9101 16.2902 12.9537 14.0142L14.5149 15.5754L15.5755 14.5148L14.0142 12.9536C16.2902 10.91 19.1958 9.70503 22.2501 9.53787V11.7499H23.7501V9.53797C26.8043 9.70503 29.7099 10.9101 31.9859 12.9537L30.4247 14.5149L31.4853 15.5755L33.0465 14.0142C35.0901 16.2902 36.2952 19.1958 36.4622 22.2501H34.2502V23.7501H36.4622C36.295 26.8042 35.0899 29.7098 33.0463 31.9858Z" fill="#F7D33C"/>
<path d="M29.6572 18.1291C29.3989 17.957 29.0624 17.957 28.8041 18.1291L23.2212 21.8514C23.1731 21.8484 23.1258 21.8461 23.077 21.8461C21.3776 21.8461 20 23.2237 20 24.923C20 26.6224 21.3776 28 23.077 28C24.7756 27.9983 26.1522 26.6217 26.1539 24.923C26.1539 24.875 26.1517 24.8269 26.1486 24.7796L29.8709 19.1958C30.1064 18.8423 30.0108 18.3647 29.6572 18.1291ZM24.7107 24.1621C24.6055 24.3271 24.5634 24.5244 24.5921 24.7179C24.6051 24.7856 24.6129 24.8542 24.6153 24.923C24.6153 25.7728 23.9266 26.4615 23.0769 26.4615C22.2271 26.4615 21.5384 25.7728 21.5384 24.923C21.5384 24.0733 22.2271 23.3845 23.0769 23.3845C23.1508 23.3874 23.2244 23.396 23.297 23.4101C23.486 23.4377 23.6786 23.3946 23.8378 23.2892L26.4565 21.5434L24.7107 24.1621Z" fill="#F7D33C"/>
</svg>
