<svg width="46" height="46" viewBox="0 0 46 46" fill="none" xmlns="http://www.w3.org/2000/svg">
<path d="M1.5 5.92H25.5V7.4H27V3.7C27 1.65982 25.3177 0 23.25 0H3.75C1.68225 0 0 1.65982 0 3.7V37H1.5V5.92ZM1.5 3.7C1.5 2.47604 2.5095 1.48 3.75 1.48H23.25C24.4905 1.48 25.5 2.47604 25.5 3.7V4.44H1.5V3.7Z" fill="#F7D33C"/>
<path d="M0 42.5C0 44.4299 1.68225 46 3.75 46H23.25C25.3177 46 27 44.4299 27 42.5V39.0001H0V42.5ZM1.5 40.4001H25.5V42.5C25.5 43.6578 24.4905 44.6 23.25 44.6H3.75C2.5095 44.6 1.5 43.6578 1.5 42.5V40.4001Z" fill="#F7D33C"/>
<path d="M17 42.0001H10V43H17V42.0001Z" fill="#F7D33C"/>
<path d="M33.5 22.9999C31.0182 22.9999 29 25.0182 29 27.4999C29 29.9817 31.0182 31.9999 33.5 31.9999C35.9818 31.9999 38 29.9817 38 27.4999C38 25.0182 35.9818 22.9999 33.5 22.9999ZM33.5 30.4999C31.8455 30.4999 30.5 29.1544 30.5 27.4999C30.5 25.8454 31.8455 24.4999 33.5 24.4999C35.1545 24.4999 36.5 25.8454 36.5 27.4999C36.5 29.1544 35.1545 30.4999 33.5 30.4999Z" fill="#F7D33C"/>
<path d="M12.5 12.9999C10.5701 12.9999 9 14.7944 9 17C9 19.2056 10.5701 21 12.5 21C14.4299 21 16 19.2056 16 17C16 14.7944 14.4299 12.9999 12.5 12.9999ZM12.5 19.4C11.3422 19.4 10.4 18.3232 10.4 17C10.4 15.6768 11.3422 14.6 12.5 14.6C13.6578 14.6 14.6 15.6768 14.6 17C14.6 18.3232 13.6578 19.4 12.5 19.4Z" fill="#F7D33C"/>
<path d="M15.1942 24.3109C15.3268 24.2593 15.4585 24.2025 15.5896 24.1414L17.8222 25.6647L20.6943 22.7257L19.2057 20.4411C19.2655 20.3062 19.3209 20.1714 19.3713 20.0365L22 19.4985V15.3421L19.3713 14.8041C19.2698 14.5351 19.1502 14.2661 19.0141 14.0001L17.7394 14.6862C17.9057 15.0112 18.0411 15.3406 18.1391 15.6634L18.2666 16.0812L20.5596 16.5507V18.2899L18.2658 18.7593L18.1384 19.1772C18.0404 19.5 17.9057 19.8287 17.7387 20.1544L17.5399 20.5421L18.8398 22.5377L17.6386 23.7677L15.6883 22.4368L15.3102 22.6402C14.994 22.8104 14.6721 22.9482 14.3545 23.0499L13.9469 23.1804L13.4881 25.5268H11.7878L11.329 23.1804L10.9214 23.0499C10.6038 22.9482 10.2818 22.8104 9.96569 22.6402L9.58759 22.4368L7.63732 23.7677L6.01834 22.1103L5 23.1524L7.4544 25.6639L9.68697 24.1406C9.81805 24.2018 9.94984 24.2585 10.0824 24.3101L10.6081 27H14.6692L15.1942 24.3109Z" fill="#F7D33C"/>
<path d="M3 15.0789V19.5548L5.78331 20.1342C5.89083 20.4238 6.01741 20.7135 6.16153 21L7.51125 20.2612C7.3351 19.9112 7.19174 19.5564 7.08803 19.2088L6.95306 18.7588L4.5251 18.2533V16.3804L6.95382 15.8749L7.0888 15.4249C7.1925 15.0773 7.3351 14.7233 7.51201 14.3726L7.72247 13.9551L6.34607 11.806L7.61877 10.4815L9.68452 11.9148L10.0849 11.6949C10.4189 11.5124 10.7589 11.364 11.0952 11.2545L11.5268 11.114L12.0126 8.58716H13.813L14.2987 11.114L14.7303 11.2545C15.0666 11.364 15.4075 11.5124 15.7407 11.6949L16.141 11.9148L18.2068 10.4815L19.9218 12.2663L21 11.1442L18.402 8.43955L16.0373 10.0791C15.8978 10.0133 15.759 9.95296 15.6187 9.89661L15.0628 6.99994H10.7628L10.2061 9.89661C10.0658 9.95296 9.92701 10.0133 9.78746 10.0791L7.42279 8.43955L4.3825 11.6037L5.9587 14.0639C5.8954 14.2091 5.83669 14.3543 5.78331 14.4995L3 15.0789Z" fill="#F7D33C"/>
<path d="M13 28H12V30.0001H13V28Z" fill="#F7D33C"/>
<path d="M13 31H12V33.0001H13V31Z" fill="#F7D33C"/>
<path d="M13 34H12V36.0001H13V34Z" fill="#F7D33C"/>
<path d="M34 12H33V13H34V12Z" fill="#F7D33C"/>
<path d="M34 9H33V9.99995H34V9Z" fill="#F7D33C"/>
<path d="M34 6H33V6.99995H34V6Z" fill="#F7D33C"/>
<path d="M46 30.1129V24.3817L42.3577 23.6428C42.2728 23.426 42.179 23.2115 42.0778 22.9999L40.7492 23.6563C40.8881 23.9474 41.0107 24.2445 41.1111 24.5415L41.2499 24.9473L44.523 25.612V28.8819L41.2499 29.5473L41.1111 29.9531C41.0099 30.2502 40.8881 30.548 40.7492 30.8383L40.5639 31.2247L42.4168 34.0475L40.14 36.3602L37.3602 34.4788L36.9799 34.6671C36.6941 34.8082 36.4009 34.9327 36.1085 35.0347L35.7089 35.1757L35.0554 38.4997H31.8355L31.1804 35.175L30.7809 35.034C30.4884 34.9312 30.1953 34.8074 29.9095 34.6664L29.5291 34.4781L26.7494 36.3595L24.0442 33.6124L23 34.6731L26.5618 38.2904L29.6525 36.1975C29.7329 36.2327 29.8142 36.2672 29.8954 36.3002L30.6243 40H36.2672L36.9947 36.3002C37.0759 36.2672 37.1571 36.2327 37.2376 36.1975L40.3283 38.2904L44.3184 34.2388L42.2573 31.0986C42.292 31.0169 42.3259 30.9344 42.3584 30.8518L46 30.1129Z" fill="#F7D33C"/>
<path d="M22.6816 20.4223L24.7429 23.377C24.7082 23.454 24.6742 23.5316 24.6417 23.6093L21 24.3054V29.7002L24.6424 30.3956C24.7274 30.5997 24.8211 30.8016 24.9223 31L26.2509 30.3822C26.1121 30.109 25.9895 29.8287 25.8891 29.5491L25.7502 29.1671L22.4771 28.5416V25.4633L25.7502 24.8371L25.8891 24.4551C25.9902 24.1755 26.1121 23.8959 26.2509 23.622L26.4363 23.2577L24.5833 20.6016L26.8602 18.4249L29.6393 20.1956L30.0204 20.0191C30.3055 19.8864 30.5994 19.7692 30.8933 19.6718L31.2914 19.539L31.9443 16.4121H35.165L35.8193 19.5397L36.2174 19.6725C36.5106 19.7699 36.8053 19.8871 37.0903 20.0198L37.4714 20.1964L40.2505 18.4256L42.9557 21.0118L44 20.0135L40.4381 16.609L37.3466 18.5788C37.2668 18.5457 37.1856 18.5139 37.1044 18.4828L36.3754 15H30.7338L30.0056 18.4821C29.9244 18.5132 29.8431 18.545 29.7634 18.5781L26.6719 16.6083L22.6816 20.4223Z" fill="#F7D33C"/>
</svg>
