<svg width="15" height="15" viewBox="0 0 15 15" fill="none" xmlns="http://www.w3.org/2000/svg">
<path d="M15 1.5V13.5C15 14.3143 14.3143 15 13.5 15H1.5C0.685714 15 0 14.3143 0 13.5V1.5C0 0.685714 0.685714 0 1.5 0H13.5C14.3143 0 15 0.685714 15 1.5ZM7.5 13.0286C10.2857 13.0286 11.5714 10.8 11.5714 8.57143C11.5714 5.44286 9.42857 1.92857 7.5 1.92857C5.61429 1.92857 3.42857 5.48571 3.42857 8.61429C3.42857 10.8 4.67143 13.0286 7.5 13.0286Z" fill="#B9BAC3"/>
<path d="M11.5725 8.57142C11.5725 10.8 10.2868 13.0286 7.50112 13.0286C4.67254 13.0286 3.42969 10.8 3.42969 8.61427C3.42969 5.4857 5.6154 1.92856 7.50112 1.92856C9.42969 1.92856 11.5725 5.44284 11.5725 8.57142Z" fill="white"/>
</svg>
