<svg width="48" height="60" viewBox="0 0 48 60" fill="none" xmlns="http://www.w3.org/2000/svg">
<path d="M10.0878 15.9829C8.1122 16.6887 7.4042 19.4972 8.4976 22.6285C9.1624 24.5313 10.32 26.0344 11.5942 26.6491C11.8818 26.7881 12.117 26.8816 12.4058 26.9297C13.2694 28.6895 14.4 30.4439 15.6 31.9645V36.6667H10.8032C4.872 36.6667 0 41.6905 0 47.6818V53.2729C0 53.8861 0.374 54.444 0.9234 54.7049C9.437 58.7477 17.4838 60.0002 24.1726 60C27.6936 60 30.8482 59.6527 33.4962 59.1828C41.8352 57.7028 47.0224 54.7766 47.2406 54.6527C47.7348 54.3725 48 53.8451 48 53.2729V47.6818C48 41.6905 43.2612 36.6667 37.3296 36.6667H32.6V31.5493C33.8 30.1315 34.732 28.5382 35.5174 26.939C36.2392 26.8364 36.9784 26.4505 37.6412 25.8035C38.436 25.0277 39.1222 23.9 39.567 22.6275C40.3694 20.3283 40.238 18.217 39.329 16.9772C39.329 5.55478 31.6414 0.00024236 23.9998 0.00024236C20.6008 0.00024236 10.334 0.0016565 10.2308 0.00024236C9.7584 -0.00824248 9.309 0.206505 9.0082 0.574181C8.7068 0.941656 8.5864 1.42691 8.6796 1.89479C9.1738 4.37579 10.0926 6.61317 11.4112 8.59074L10.0878 15.9829ZM15.332 12.82C15.324 14.434 14.9714 15.5667 14.3364 16.0105C14.008 16.2402 13.598 16.3065 13.2146 16.301L14.0354 11.698C14.4462 12.0871 14.8794 12.4606 15.332 12.82ZM18.8 38.3988V34.841C20.4 35.9036 22.0714 36.5554 23.9288 36.5554C25.923 36.5554 27.8 35.8045 29.4 34.6002V38.3988C29.4 38.8144 29.6084 39.1913 29.8678 39.4735C29.5242 41.779 26.5156 45.7475 24.0418 48.4552C21.536 45.7097 18.6714 41.8895 18.2136 39.6396C18.5768 39.3499 18.8 38.9024 18.8 38.3988ZM36.9064 18.8538C36.9952 19.2835 37.0156 20.4305 36.6162 21.575C36.152 22.9033 35.4814 23.58 35.1846 23.7614C34.8502 23.6251 34.477 23.6083 34.1284 23.7188C33.6986 23.855 33.3476 24.1715 33.165 24.5877C31.3842 28.6487 27.9152 33.3905 23.9998 33.3905C21.1856 33.3905 18.6 30.9368 16.7078 28.0509C18.0644 28.6055 19.3554 28.7491 20.344 28.7695C20.7402 29.2859 21.3584 29.596 22.0554 29.596H24.8254C26.0214 29.596 27.0004 28.6637 27.0004 27.4556V26.7669C27.0004 25.5588 26.0214 24.5455 24.8254 24.5455H22.0554C21.2668 24.5455 20.5788 24.9895 20.2 25.6259C19.6114 25.6012 18.8738 25.5047 18.0962 25.2113C15.912 24.3875 14.306 22.4562 13.3102 19.4637C14.1834 19.4552 15.1772 19.2592 16.0914 18.6301C17.2542 17.8303 17.9926 16.5453 18.3004 14.7974C20.2354 15.8772 22.4336 16.7574 24.888 17.4218C29.1294 18.5703 34.4854 18.8247 36.9064 18.8538ZM24.001 3.15438C29.4518 3.15438 35.7872 6.56589 36.1986 15.6568C36.1948 15.6568 36.1914 15.6568 36.1876 15.6568C31.3242 15.6568 16.051 14.7146 12.2522 3.15438C15.455 3.18509 21.5284 3.15438 24.001 3.15438ZM44.8 52.3018C43.2 53.1337 38.807 55.0317 32.7678 56.0881C25.7406 57.3178 15 57.6196 3.2 52.2582V47.682C3.2 43.4358 6.5994 39.8992 10.8032 39.8992H15.1322C15.9214 44.5457 22.201 51.0543 22.9594 51.8196C23.2652 52.1283 23.6658 52.303 24.0666 52.303C24.4672 52.303 24.868 52.118 25.1738 51.8093C25.9322 51.044 32.2118 44.5457 33.0012 39.8992H37.3298C41.5338 39.8992 44.8002 43.436 44.8002 47.682V52.3018H44.8Z" fill="#F7D33C"/>
</svg>
