<svg width="40" height="49" viewBox="0 0 40 49" fill="none" xmlns="http://www.w3.org/2000/svg">
<path d="M39.9813 8.20695C39.9667 7.55848 39.5097 6.99911 38.8714 6.91047C35.8961 6.49503 32.9618 5.77227 30.0853 4.70118C27.2224 3.63521 24.0548 2.14715 20.6382 0.187311C20.2044 -0.0616724 19.7964 -0.0632007 19.363 0.187311C15.9702 2.14616 12.8252 3.63109 9.93967 4.70118C7.06227 5.76822 4.12938 6.49556 1.1778 6.91047C0.539432 7.00011 0.0915215 7.55848 0.0204755 8.20695C-0.262663 20.5243 2.39107 30.6026 7.95606 38.4368C10.9877 42.7043 14.7816 46.168 19.363 48.8092C19.7172 49.0735 20.2725 49.0535 20.6856 48.8092C25.2323 46.124 29.0212 42.6853 32.0458 38.4368C37.6182 30.6077 40.2503 20.5248 39.9813 8.20695ZM29.92 36.9241C27.2909 40.6163 23.9923 43.6949 20.0009 46.168C16.0094 43.6949 12.6952 40.6276 10.0817 36.9241C5.01906 29.7502 2.54774 20.5724 2.64192 9.38356C5.42867 8.92719 8.19227 8.15878 10.9554 7.12616C13.7184 6.09401 16.7415 4.67713 20.0009 2.87663C23.2602 4.67713 26.2595 6.09401 29.0227 7.12616C31.7858 8.15884 34.5725 8.92719 37.3598 9.38356C37.454 20.6446 34.967 29.8352 29.92 36.9241Z" fill="#F7D33C"/>
</svg>
