<svg width="50" height="42" viewBox="0 0 50 42" fill="none" xmlns="http://www.w3.org/2000/svg">
<path d="M47.7794 6.22355H38.4882C37.7577 6.22355 37.1652 6.81393 37.1652 7.54185V16.5049H30.5199V1.3183C30.5199 0.590379 29.9274 0 29.1969 0H19.9055C19.175 0 18.5825 0.590379 18.5825 1.3183V26.2633H11.9372V15.0574C11.9372 14.3293 11.3447 13.7391 10.6142 13.7391H1.323C0.592265 13.7391 0 14.3293 0 15.0574V40.2946C0 41.0228 0.592484 41.6129 1.323 41.6129H10.6142H19.9054H29.1968H38.4881H47.7793C48.51 41.6129 49.1023 41.0225 49.1023 40.2946V7.54185C49.1024 6.81393 48.5101 6.22355 47.7794 6.22355ZM9.2913 38.9763H2.646V16.3757H9.2913V38.9763ZM18.5827 38.9763H11.9374V28.8999H18.5827V38.9763ZM27.874 17.8232V38.9763H21.2286V2.6366H27.874V17.8232ZM37.1654 38.9763H30.5201V19.1415H37.1654V38.9763ZM46.4566 38.9763H39.8114V17.8232V8.86015H46.4567V38.9763H46.4566Z" fill="#F7D33C"/>
</svg>
