<svg width="56" height="26" viewBox="0 0 56 26" fill="none" xmlns="http://www.w3.org/2000/svg">
<path d="M42.6087 0H13.3913C6.00783 0 0 5.83227 0 13C0 20.1677 6.00783 26 13.3913 26H42.6087C49.9922 26 56 20.1677 56 13C56 5.83227 49.9922 0 42.6087 0ZM13.3913 23.6364C7.35061 23.6364 2.43478 18.8654 2.43478 13C2.43478 7.13464 7.35061 2.36364 13.3913 2.36364H34.933C31.483 4.71782 29.2174 8.60364 29.2174 13C29.2174 17.3964 31.483 21.2822 34.933 23.6364H13.3913ZM42.6087 23.6364C36.568 23.6364 31.6522 18.8654 31.6522 13C31.6522 7.13464 36.568 2.36364 42.6087 2.36364C48.6494 2.36364 53.5652 7.13464 53.5652 13C53.5652 18.8654 48.6494 23.6364 42.6087 23.6364Z" fill="#F7D33C"/>
</svg>
