<svg width="49" height="49" viewBox="0 0 49 49" fill="none" xmlns="http://www.w3.org/2000/svg">
<path d="M46.4919 19.3564L43.0526 18.7729C42.6943 17.6163 42.2337 16.5005 41.6707 15.436L43.6975 12.6006C44.5573 11.3927 44.4242 9.74473 43.3699 8.70065L40.3196 5.6503C39.7464 5.07708 38.9889 4.75977 38.1803 4.75977C37.5456 4.75977 36.9417 4.95425 36.4299 5.32275L33.5843 7.34949C32.4788 6.76603 31.3221 6.28494 30.1245 5.92668L29.5513 2.52831C29.3057 1.06455 28.0466 0 26.5624 0H22.2531C20.7688 0 19.5098 1.06455 19.2641 2.52831L18.6705 6.00856C17.524 6.36683 16.4083 6.83769 15.3438 7.4109L12.5289 5.38417C12.0171 5.01567 11.4029 4.82118 10.7683 4.82118C9.95962 4.82118 9.19192 5.1385 8.62894 5.71172L5.56838 8.76206C4.52431 9.80614 4.38101 11.4541 5.24083 12.662L7.28803 15.5383C6.72505 16.6131 6.27467 17.7288 5.92664 18.8855L2.52829 19.4587C1.06454 19.7044 0 20.9634 0 22.4477V26.7571C0 28.2413 1.06454 29.5003 2.52829 29.746L6.00853 30.3397C6.36679 31.4861 6.83765 32.6018 7.41086 33.6664L5.39437 36.4711C4.53455 37.6789 4.66761 39.3269 5.72192 40.371L8.77225 43.4213C9.34546 43.9946 10.1029 44.3119 10.9116 44.3119C11.5462 44.3119 12.1501 44.1174 12.6619 43.7489L15.5382 41.7017C16.5721 42.2442 17.6571 42.6844 18.7728 43.0324L19.346 46.4717C19.5917 47.9355 20.8507 49 22.3349 49H26.6545C28.1388 49 29.3978 47.9355 29.6434 46.4717L30.2269 43.0324C31.3836 42.6741 32.4993 42.2135 33.5638 41.6505L36.3992 43.6772C36.911 44.0457 37.5252 44.2402 38.1598 44.2402C38.9684 44.2402 39.7259 43.9229 40.2991 43.3497L43.3494 40.2994C44.3935 39.2553 44.5368 37.6073 43.677 36.3994L41.6503 33.5538C42.2132 32.479 42.6841 31.3633 43.0321 30.2168L46.4714 29.6436C47.9352 29.398 48.9997 28.1389 48.9997 26.6547V22.3453C49.0202 20.8611 47.9556 19.602 46.4919 19.3564ZM46.2565 26.6547C46.2565 26.7878 46.1643 26.9004 46.0313 26.9208L41.7322 27.6374C41.1896 27.7295 40.7597 28.1287 40.6267 28.6507C40.2377 30.1554 39.644 31.5987 38.8456 32.9396C38.5692 33.4105 38.5897 33.9939 38.907 34.4443L41.4353 38.0065C41.507 38.1088 41.4967 38.2624 41.4046 38.3545L38.3543 41.4048C38.2826 41.4765 38.211 41.4867 38.1598 41.4867C38.0984 41.4867 38.0472 41.4663 38.0062 41.4356L34.4544 38.9072C34.0142 38.5899 33.4205 38.5695 32.9497 38.8458C31.6088 39.6442 30.1655 40.2379 28.6608 40.6269C28.1285 40.76 27.7293 41.2001 27.6474 41.7324L26.9207 46.0315C26.9002 46.1646 26.7876 46.2567 26.6545 46.2567H22.3452C22.2121 46.2567 22.0995 46.1646 22.079 46.0315L21.3625 41.7324C21.2704 41.1899 20.8712 40.76 20.3492 40.6269C18.8854 40.2482 17.4728 39.6647 16.1524 38.9072C15.9374 38.7844 15.6918 38.723 15.4564 38.723C15.18 38.723 14.8934 38.8049 14.6579 38.9789L11.0753 41.5277C11.0242 41.5584 10.973 41.5789 10.9218 41.5789C10.8809 41.5789 10.799 41.5686 10.7273 41.497L7.677 38.4466C7.58487 38.3545 7.57464 38.2112 7.64629 38.0986L10.1643 34.5672C10.4817 34.1168 10.5021 33.5231 10.2258 33.0522C9.42735 31.7215 8.81319 30.2783 8.42422 28.7736C8.28092 28.2515 7.85101 27.8523 7.31874 27.7602L2.98891 27.0232C2.85584 27.0027 2.76372 26.8901 2.76372 26.7571V22.4477C2.76372 22.3146 2.85584 22.202 2.98891 22.1815L7.25732 21.465C7.79983 21.3729 8.23998 20.9737 8.37304 20.4414C8.75178 18.9367 9.33523 17.4832 10.1234 16.1423C10.3998 15.6714 10.3691 15.0879 10.0517 14.6478L7.50298 11.0652C7.43133 10.9628 7.44157 10.8093 7.53369 10.7172L10.584 7.66681C10.6557 7.59515 10.7273 7.58492 10.7785 7.58492C10.8399 7.58492 10.8911 7.60539 10.932 7.6361L14.4635 10.1542C14.9138 10.4715 15.5075 10.492 15.9784 10.2156C17.3091 9.41717 18.7523 8.80301 20.257 8.41404C20.7791 8.27073 21.1783 7.84082 21.2704 7.30854L22.0074 2.97869C22.0279 2.84562 22.1405 2.7535 22.2735 2.7535H26.5829C26.7159 2.7535 26.8285 2.84562 26.849 2.97869L27.5655 7.24713C27.6577 7.78964 28.0569 8.22979 28.5891 8.36286C30.1348 8.75183 31.6088 9.35576 32.9804 10.1644C33.4512 10.4408 34.0347 10.4203 34.4851 10.103L38.0165 7.56445C38.0677 7.53374 38.1188 7.51327 38.17 7.51327C38.211 7.51327 38.2929 7.5235 38.3645 7.59515L41.4148 10.6455C41.507 10.7376 41.5172 10.8809 41.4455 10.9935L38.9173 14.5454C38.5999 14.9856 38.5795 15.5793 38.8558 16.0501C39.6542 17.3911 40.2479 18.8343 40.6369 20.339C40.77 20.8713 41.2101 21.2705 41.7424 21.3524L46.0415 22.0792C46.1746 22.0996 46.2667 22.2122 46.2667 22.3453V26.6547H46.2565Z" fill="#F7D33C"/>
<path d="M24.5035 13.921C18.669 13.921 13.9297 18.6603 13.9297 24.4949C13.9297 30.3294 18.669 35.0687 24.5035 35.0687C30.338 35.0687 35.0773 30.3294 35.0773 24.4949C35.0773 18.6603 30.338 13.921 24.5035 13.921ZM24.5035 32.305C20.1941 32.305 16.6934 28.8042 16.6934 24.4949C16.6934 20.1855 20.1941 16.6848 24.5035 16.6848C28.8128 16.6848 32.3135 20.1855 32.3135 24.4949C32.3135 28.8042 28.8128 32.305 24.5035 32.305Z" fill="#F7D33C"/>
</svg>
