<svg width="71" height="35" viewBox="0 0 71 35" fill="none" xmlns="http://www.w3.org/2000/svg">
<path d="M36.8417 30.3438C35.4695 30.2513 33.8873 30.0082 32.6394 29.6429C32.4056 29.5744 31.4377 29.2148 31.1915 29.1006C26.8469 27.0665 23.8203 22.626 23.8203 17.4743C23.8203 10.4083 29.5077 4.65281 36.5029 4.65281C43.4359 4.65281 49.085 10.3102 49.1821 17.2962H53.7639C53.6667 7.75773 45.9634 0.0273919 36.5029 0.0273919C26.9858 0.0273919 19.2396 7.85248 19.2396 17.4743C19.2396 24.1077 22.9303 29.8769 28.3343 32.8243C29.31 33.3459 30.7104 33.8836 31.1859 34.0309C32.7263 34.4943 34.6169 34.8025 36.2996 34.9315C36.871 34.9749 38.8666 34.9977 39.4482 35H71V30.3871H39.5013C39.0823 30.3871 37.2516 30.3712 36.8417 30.3438ZM39.5013 23.1008C39.1681 23.1008 37.4255 23.0894 37.1037 23.062C36.5582 23.0152 35.7677 22.933 35.2594 22.8155C34.6857 22.6602 34.147 22.4547 33.9042 22.32C32.2023 21.3897 31.0425 19.5701 31.0425 17.4743C31.0425 14.4253 33.4852 11.9528 36.5029 11.9528C39.4572 11.9528 41.8594 14.3283 41.9554 17.2962H46.3576C46.265 11.874 41.8921 7.50432 36.5029 7.50432C31.0538 7.50432 26.6369 11.9676 26.6369 17.4743C26.6369 21.3577 28.8391 24.7115 32.0464 26.3542C32.54 26.6464 33.4683 26.9523 33.7326 27.0219C34.6383 27.2628 35.8546 27.4272 36.8417 27.5002C37.2065 27.5311 38.9931 27.5448 39.3703 27.547V27.5539H70.9989V23.1008H39.5013ZM16.4162 34.9829H11.804V4.66309H5.06401V-4.03384e-06H16.4162V34.9829ZM0 6.99292V11.4768H5.06401V34.9829H9.49558V6.99292H0Z" fill="#F7D33C"/>
<path d="M62.8477 0.325702C61.1864 0.325702 59.8086 1.6647 59.8086 3.34501C59.8086 5.02532 61.1864 6.41797 62.8477 6.41797C64.5598 6.41797 65.8845 5.02532 65.8845 3.34501C65.8845 1.6647 64.5598 0.325702 62.8477 0.325702ZM62.8477 5.92255C61.4755 5.92255 60.2931 4.8324 60.2931 3.34501C60.2931 1.93296 61.4755 0.815412 62.8477 0.815412C64.2187 0.815412 65.3955 1.93296 65.3955 3.34501C65.3955 4.8324 64.2187 5.92255 62.8477 5.92255Z" fill="#F7D33C"/>
<path d="M64.0052 4.1724C64.0052 3.83337 63.9555 3.51831 63.5715 3.39388C64.0526 3.22494 64.1 2.90646 64.1 2.71354C64.1 1.93389 63.3998 1.83457 63.1118 1.83457H61.7871V4.85388H62.3394V3.61534H62.7742C63.3998 3.61534 63.4518 3.90642 63.4518 4.1724C63.4518 4.68722 63.4518 4.78425 63.5715 4.85388H64.1249C64.0052 4.73174 64.0526 4.63699 64.0052 4.1724ZM62.991 3.17471H62.3394V2.22383H62.8973C63.2835 2.22383 63.5455 2.34711 63.5455 2.71354C63.5455 2.90646 63.4518 3.17471 62.991 3.17471Z" fill="#F7D33C"/>
</svg>
