<svg width="52" height="45" viewBox="0 0 52 45" fill="none" xmlns="http://www.w3.org/2000/svg">
<path d="M52 26.1381C52 18.9973 49.1359 12.5173 44.5031 7.79515C44.467 7.74681 44.4285 7.69951 44.3846 7.65546C44.3408 7.61141 44.2939 7.57267 44.2459 7.53651C39.5486 2.87913 33.1029 0 26 0C18.8971 0 12.4514 2.8793 7.75397 7.53651C7.70589 7.57284 7.659 7.61158 7.61519 7.65546C7.57137 7.69951 7.53284 7.74664 7.4967 7.79515C2.86409 12.5173 0 18.9973 0 26.1381C0 33.1189 2.70383 39.6815 7.61331 44.6183C7.61399 44.619 7.61468 44.6198 7.61536 44.6205C7.61587 44.6209 7.61621 44.6214 7.61672 44.6217C7.6174 44.6224 7.61809 44.6231 7.61877 44.6238C7.86837 44.8747 8.19554 45 8.52271 45C8.85006 45 9.1774 44.8745 9.427 44.6234C9.44831 44.602 9.46758 44.5792 9.48702 44.5566L13.4274 40.5951C13.9268 40.0929 13.9268 39.2791 13.4274 38.7771C12.9281 38.2752 12.1184 38.2752 11.6192 38.7771L8.5442 41.8684C4.95858 37.8572 2.87841 32.8089 2.59233 27.4236H6.94106C7.64724 27.4236 8.21975 26.8482 8.21975 26.1381C8.21975 25.428 7.64724 24.8526 6.94106 24.8526H2.59267C2.89001 19.3213 5.09344 14.2914 8.55255 10.416L11.6192 13.4989C11.8688 13.7498 12.1961 13.8753 12.5233 13.8753C12.8505 13.8753 13.1778 13.7498 13.4274 13.4989C13.9268 12.9967 13.9268 12.1829 13.4274 11.6809L10.361 8.5978C14.2161 5.12032 19.2192 2.90518 24.7213 2.60644V6.9781C24.7213 7.68819 25.2938 8.26358 26 8.26358C26.7062 8.26358 27.2787 7.68819 27.2787 6.9781V2.60644C32.7808 2.90518 37.7839 5.12049 41.639 8.59797L38.5724 11.6809C38.073 12.1831 38.073 12.9969 38.5724 13.4989C38.822 13.7498 39.1493 13.8753 39.4765 13.8753C39.8037 13.8753 40.131 13.7498 40.3806 13.4989L43.4473 10.416C46.9064 14.2916 49.11 19.3213 49.4072 24.8526H45.0586C44.3524 24.8526 43.7799 25.428 43.7799 26.1381C43.7799 26.8482 44.3524 27.4236 45.0586 27.4236H49.4073C49.1212 32.8089 47.0412 37.8574 43.4556 41.8686L40.3806 38.7771C39.8814 38.2752 39.0718 38.2752 38.5724 38.7771C38.073 39.2793 38.073 40.0931 38.5724 40.5951L42.5764 44.6204C42.826 44.8713 43.1534 44.9967 43.4805 44.9967C43.644 44.9967 43.8077 44.9654 43.9617 44.9026C44.1156 44.8399 44.2598 44.7458 44.3848 44.6204C49.2955 39.6834 52 33.1196 52 26.1381Z" fill="#F7D33C"/>
<path d="M31.8741 11.3966C31.2182 11.1324 30.4742 11.4526 30.2117 12.1118L26.5166 21.3844C26.3444 21.3659 26.1722 21.3532 25.9998 21.3532C24.2001 21.3532 22.5745 22.3554 21.757 23.9685C20.9025 25.6549 21.1214 27.6699 22.3421 29.3581C22.4669 29.5307 22.6238 29.6886 22.7966 29.8149C23.7884 30.5397 24.8961 30.9228 25.9998 30.9228C27.7995 30.9228 29.4254 29.9207 30.2427 28.3075C31.0972 26.6211 30.8783 24.6063 29.6584 22.9192C29.5336 22.7461 29.3764 22.5878 29.203 22.4609C29.1098 22.3927 29.0145 22.3305 28.9192 22.2685L32.5856 13.0677C32.8481 12.4088 32.5297 11.6605 31.8741 11.3966ZM27.9637 27.1404C27.5851 27.8875 26.8325 28.3517 25.9997 28.3517C25.4534 28.3517 24.9036 28.1599 24.3648 27.7814C23.751 26.8955 23.6305 25.935 24.0358 25.1354C24.4143 24.3883 25.1668 23.9242 25.9998 23.9242C26.2655 23.9242 26.5318 23.9704 26.7974 24.0604C26.8061 24.064 26.8141 24.0686 26.823 24.0722C26.8509 24.0834 26.8791 24.0925 26.9072 24.1015C27.151 24.1956 27.3938 24.3252 27.6345 24.4942C28.2481 25.3802 28.3688 26.3409 27.9637 27.1404Z" fill="#F7D33C"/>
</svg>
