<svg width="28" height="28" viewBox="0 0 28 28" fill="none" xmlns="http://www.w3.org/2000/svg">
<path d="M27.9424 17.2021L26.7122 14L27.9406 10.7961C28.0771 10.4426 27.9686 10.0402 27.6746 9.8022L25.0095 7.64296L24.4706 4.25362C24.4111 3.88091 24.1171 3.58695 23.7444 3.52745L20.3548 2.98852L18.1954 0.323588C17.9574 0.0296235 17.5567 -0.0771137 17.2015 0.0576202L13.9991 1.28772L10.795 0.05937C10.4416 -0.0771137 10.0408 0.0296235 9.80285 0.325338L7.64347 2.99027L4.2539 3.5292C3.88117 3.5887 3.58718 3.88266 3.52769 4.25537L2.98872 7.64471L0.32361 9.80395C0.0296255 10.0419 -0.0771188 10.4426 0.057624 10.7961L1.28606 14L0.057624 17.2038C-0.0771188 17.5573 0.0296255 17.958 0.32361 18.1959L2.98872 20.3552L3.52769 23.7445C3.58718 24.1172 3.88117 24.4112 4.2539 24.4707L7.64347 25.0096L9.80285 27.6746C10.0426 27.9703 10.4433 28.0788 10.7968 27.9405L13.9991 26.7122L17.2032 27.9405C17.3047 27.979 17.4114 27.9983 17.5164 27.9983C17.7737 27.9983 18.0274 27.8845 18.1971 27.6746L20.3565 25.0096L23.7461 24.4707C24.1188 24.4112 24.4128 24.1172 24.4723 23.7445L25.0113 20.3552L27.6764 18.1959C27.9704 17.958 28.0771 17.5555 27.9424 17.2021ZM24.9553 14.3132L26.077 17.2353L23.6429 19.2056C23.4749 19.3421 23.3629 19.5345 23.3296 19.748L22.8379 22.8399L19.7458 23.3316C19.5323 23.3648 19.3398 23.4768 19.2033 23.6448L17.2365 26.0788L14.3141 24.9571C14.2126 24.9204 14.1059 24.8994 13.9991 24.8994C13.8924 24.8994 13.7856 24.9186 13.6859 24.9571L10.7635 26.0788L8.79315 23.6448C8.65666 23.4768 8.46417 23.3648 8.25068 23.3316L5.1586 22.8399L4.66688 19.748C4.63363 19.5345 4.52163 19.3421 4.35364 19.2056L1.91952 17.2371L3.04121 14.3149C3.11821 14.1119 3.11821 13.888 3.03946 13.6867L1.91952 10.7628L4.35364 8.79257C4.52163 8.65609 4.63363 8.46361 4.66688 8.25014L5.1586 5.15826L8.25068 4.66657C8.46417 4.63332 8.65666 4.52134 8.79315 4.35336L10.7618 1.92115L13.6841 3.04276C13.8854 3.11975 14.1094 3.11975 14.3106 3.04276L17.233 1.92115L19.2033 4.35511C19.3398 4.52309 19.5323 4.63507 19.7458 4.66832L22.8379 5.16001L23.3296 8.25189C23.3629 8.46536 23.4749 8.65784 23.6429 8.79432L26.077 10.7646L24.9553 13.6867C24.8783 13.888 24.8783 14.1119 24.9553 14.3132Z" fill="#F7D33C"/>
<path d="M11.5 7C10.1217 7 9 8.12167 9 9.5C9 10.8783 10.1217 12 11.5 12C12.8783 12 14 10.8783 14 9.5C14 8.12167 12.8783 7 11.5 7ZM11.5 10.3333C11.04 10.3333 10.6667 9.96 10.6667 9.5C10.6667 9.04 11.04 8.66667 11.5 8.66667C11.96 8.66667 12.3333 9.04 12.3333 9.5C12.3333 9.96 11.96 10.3333 11.5 10.3333Z" fill="#F7D33C"/>
<path d="M16.5 16C15.1217 16 14 17.1217 14 18.5C14 19.8783 15.1217 21 16.5 21C17.8783 21 19 19.8783 19 18.5C19 17.1217 17.8783 16 16.5 16ZM16.5 19.3333C16.04 19.3333 15.6667 18.96 15.6667 18.5C15.6667 18.04 16.04 17.6667 16.5 17.6667C16.96 17.6667 17.3333 18.04 17.3333 18.5C17.3333 18.96 16.96 19.3333 16.5 19.3333Z" fill="#F7D33C"/>
<path d="M18.6512 7.16249C18.2779 6.88245 17.7562 6.97346 17.4895 7.36552L9.15603 19.6173C8.88769 20.0094 8.97436 20.5572 9.3477 20.8372C9.49437 20.9475 9.66437 21 9.83271 21C10.0927 21 10.3494 20.8722 10.5111 20.6342L18.8445 8.38242C19.1129 7.98861 19.0245 7.44253 18.6512 7.16249Z" fill="#F7D33C"/>
</svg>
