<svg width="42" height="38" viewBox="0 0 42 38" fill="none" xmlns="http://www.w3.org/2000/svg">
<path d="M41.825 5.52723C41.6501 5.35453 41.475 5.18175 41.1251 5.18175H7.875L6.99997 0.690884C6.99997 0.345402 6.47497 1.42282e-08 6.12495 1.42282e-08H0.874945C0.350027 -8.09519e-05 0 0.345402 0 0.863585C0 1.38177 0.350027 1.72725 0.875027 1.72725H5.42506L9.62505 22.8001C10.1501 25.5637 12.7751 27.6364 15.575 27.6364H35.7C36.225 27.6364 36.575 27.2909 36.575 26.7728C36.575 26.2546 36.225 25.9091 35.7 25.9091H15.75C14.35 25.9091 12.95 25.2182 12.25 24.0091L37.8 20.5546C38.15 20.5546 38.5 20.2091 38.5 19.8637L42 6.04542C42 6.04542 42 5.69994 41.825 5.52723ZM36.925 19L11.3749 22.2818L8.22495 6.7363H39.9L36.925 19Z" fill="#0F63E1"/>
<path d="M14.875 29.3637C12.425 29.3637 10.5 31.2637 10.5 33.6818C10.5 36.1001 12.425 38 14.875 38C17.325 38 19.2499 36.1 19.2499 33.6818C19.25 31.2637 17.325 29.3637 14.875 29.3637ZM14.875 36.2728C13.4749 36.2728 12.25 35.0636 12.25 33.6818C12.25 32.3001 13.4749 31.0909 14.875 31.0909C16.275 31.0909 17.5 32.3001 17.5 33.6818C17.5 35.0636 16.275 36.2728 14.875 36.2728Z" fill="#0F63E1"/>
<path d="M32.375 29.3637C29.9249 29.3637 28 31.2637 28 33.6819C28 36.1001 29.925 38 32.375 38C34.825 38 36.7499 36.1 36.7499 33.6819C36.7499 31.2637 34.8249 29.3637 32.375 29.3637ZM32.375 36.2728C30.9749 36.2728 29.75 35.0636 29.75 33.6819C29.75 32.3001 30.9749 31.0909 32.375 31.0909C33.775 31.0909 35 32.3001 35 33.6819C35 35.0636 33.7749 36.2728 32.375 36.2728Z" fill="#0F63E1"/>
</svg>
