<svg width="38" height="38" viewBox="0 0 38 38" fill="none" xmlns="http://www.w3.org/2000/svg">
<path d="M37.1935 16.4098H36.2241V9.86449C36.2241 8.32898 35.0143 7.11918 33.5563 7.11918H32.8273V2.74531C32.8273 1.2098 31.6951 0 30.3224 0C30.3224 0 30.2449 0 30.1596 0L2.5049 7.11143C2.49714 7.11143 2.48163 7.11918 2.47388 7.11918C1.10898 7.22776 0 8.39878 0 9.86449V35.2547C0 36.7902 1.2098 38 2.66776 38H33.5563C35.0918 38 36.3016 36.7902 36.3016 35.2547V28.5388H37.1935C37.682 28.5388 38 28.2131 38 27.7322V17.2241C38 16.7355 37.5967 16.4098 37.1935 16.4098ZM30.4776 1.53551C30.8808 1.61306 31.2841 2.10163 31.2841 2.74531V7.11143H8.97265L30.4776 1.53551ZM34.6886 35.2547C34.6886 35.8984 34.2 36.4645 33.5563 36.4645H2.66776C2.02408 36.4645 1.53551 35.8984 1.53551 35.2547V9.86449C1.53551 9.22082 2.02408 8.65469 2.66776 8.65469H33.471C34.1147 8.65469 34.6033 9.22082 34.6033 9.86449V16.4098H26.6C23.2033 16.4098 20.5355 19.0776 20.5355 22.4743C20.5355 25.871 23.2808 28.5388 26.6 28.5388H34.6886V35.2547ZM36.3792 27.0033H26.6C24.1727 27.0033 22.1563 24.9792 22.1563 22.5596C22.1563 20.14 24.1804 18.1159 26.6 18.1159H36.3792V27.0033Z" fill="#0F63E1"/>
<path d="M25.707 22.6372C25.707 23.1257 26.1103 23.4437 26.5136 23.4437H27.2425C27.6458 23.4437 28.0491 23.118 28.0491 22.6372C28.0491 22.1486 27.6458 21.8306 27.2425 21.8306H26.5213C26.0327 21.8306 25.707 22.1563 25.707 22.6372Z" fill="#0F63E1"/>
</svg>
