<svg width="23" height="45" viewBox="0 0 23 45" fill="none" xmlns="http://www.w3.org/2000/svg">
<path d="M22.9263 15.45C22.7913 15.1501 22.5887 15 22.3186 15H14.3501L22.2511 1.125C22.3862 0.9 22.3862 0.600029 22.2511 0.375029C22.116 0.150029 21.9134 0 21.6433 0H10.8386C10.5685 0 10.3659 0.150029 10.2308 0.375029L0.101315 22.875C-0.0337715 23.1 -0.0337715 23.4 0.101315 23.625C0.236401 23.85 0.506494 24 0.709083 24H7.66463L0.101315 44.025C-0.0337715 44.325 0.101315 44.7 0.371408 44.925C0.438911 45 0.573997 45 0.709083 45C0.911673 45 1.11426 44.925 1.24935 44.775L22.8589 16.275C22.9939 16.05 23.0614 15.75 22.9263 15.45ZM3.07257 39.975L9.28535 23.4751C9.35285 23.2501 9.35285 23.0251 9.21784 22.8001C9.08276 22.65 8.88017 22.5001 8.67758 22.5001H1.78953L11.2437 1.50003H20.4278L12.4593 15.375C12.3242 15.6 12.3242 15.8999 12.4593 16.1249C12.5944 16.3499 12.797 16.5 13.067 16.5H20.9005L3.07257 39.975Z" fill="#0F63E1"/>
</svg>
