<svg width="36" height="38" viewBox="0 0 36 38" fill="none" xmlns="http://www.w3.org/2000/svg">
<path d="M35.2574 36.5156H33.6287V12.8796C33.6287 11.7795 32.7332 10.8845 31.6325 10.8845H27.9921C26.8914 10.8845 25.9959 11.7796 25.9959 12.8796V36.5156H21.8604V23.5886C21.8604 22.4884 20.9649 21.5934 19.8642 21.5934H16.2238C15.123 21.5934 14.2276 22.4885 14.2276 23.5886V36.5156H10.092V29.8208C10.092 28.7207 9.19645 27.8257 8.0958 27.8257H4.45532C3.35459 27.8257 2.45912 28.7207 2.45912 29.8208V36.5156H0.742577C0.332452 36.5156 0 36.8479 0 37.2578C0 37.6677 0.332452 38 0.742577 38H35.2574C35.6675 38 36 37.6677 36 37.2578C36 36.8479 35.6675 36.5156 35.2574 36.5156ZM8.60669 36.5156H3.9442V29.8208C3.9442 29.5392 4.17343 29.31 4.45524 29.31H8.09565C8.37746 29.31 8.60669 29.5392 8.60669 29.8208V36.5156ZM20.3751 36.5156H15.7126V23.5886C15.7126 23.3069 15.9419 23.0778 16.2237 23.0778H19.8641C20.1458 23.0778 20.3751 23.3069 20.3751 23.5886V36.5156ZM32.1436 36.5156H27.4811V12.8796C27.4811 12.598 27.7103 12.3689 27.9921 12.3689H31.6325C31.9143 12.3689 32.1436 12.598 32.1436 12.8796V36.5156Z" fill="#0F63E1"/>
<path d="M33.6284 0.780484C33.6388 0.577941 33.5676 0.371984 33.4128 0.217313C33.258 0.0626406 33.052 -0.00868359 32.8493 0.00178125C32.8374 0.00126172 32.8256 0 32.8134 0H28.3208C27.9107 0 27.5782 0.332277 27.5782 0.742188C27.5782 1.1521 27.9107 1.48438 28.3208 1.48438H31.0948L23.754 8.82149L20.9856 6.05462C20.8464 5.91546 20.6575 5.83723 20.4605 5.83723C20.2636 5.83723 20.0747 5.91546 19.9355 6.05462L3.61592 22.3657C3.32594 22.6555 3.32594 23.1255 3.61592 23.4153C3.76095 23.5602 3.95097 23.6326 4.141 23.6326C4.33102 23.6326 4.52112 23.5602 4.66607 23.4152L20.4605 7.62895L23.2289 10.3958C23.5189 10.6856 23.989 10.6856 24.2791 10.3958L32.1451 2.53405V5.04339C32.1451 5.4533 32.4775 5.78557 32.8877 5.78557C33.2978 5.78557 33.6302 5.4533 33.6302 5.04339V0.816406C33.6302 0.804309 33.629 0.792508 33.6284 0.780484Z" fill="#0F63E1"/>
</svg>
