<svg width="42" height="38" viewBox="0 0 42 38" fill="none" xmlns="http://www.w3.org/2000/svg">
<path d="M41.825 5.52723C41.6501 5.35453 41.475 5.18175 41.1251 5.18175H7.875L6.99997 0.690884C6.99997 0.345402 6.47497 1.42282e-08 6.12495 1.42282e-08H0.874945C0.350027 -8.09519e-05 0 0.345402 0 0.863585C0 1.38177 0.350027 1.72725 0.875027 1.72725H5.42506L9.62505 22.8001C10.1501 25.5637 12.7751 27.6364 15.575 27.6364H35.7C36.225 27.6364 36.575 27.2909 36.575 26.7728C36.575 26.2546 36.225 25.9091 35.7 25.9091H15.75C14.35 25.9091 12.95 25.2182 12.25 24.0091L37.8 20.5546C38.15 20.5546 38.5 20.2091 38.5 19.8637L42 6.04542C42 6.04542 42 5.69994 41.825 5.52723ZM36.925 19L11.3749 22.2818L8.22495 6.7363H39.9L36.925 19Z" fill="#ED444A"/>
<path d="M14.875 29.3636C12.425 29.3636 10.5 31.2637 10.5 33.6818C10.5 36.1 12.425 38 14.875 38C17.325 38 19.2499 36.1 19.2499 33.6818C19.25 31.2637 17.325 29.3636 14.875 29.3636ZM14.875 36.2727C13.4749 36.2727 12.25 35.0636 12.25 33.6818C12.25 32.3 13.4749 31.0909 14.875 31.0909C16.275 31.0909 17.5 32.3 17.5 33.6818C17.5 35.0636 16.275 36.2727 14.875 36.2727Z" fill="#ED444A"/>
<path d="M32.375 29.3636C29.9249 29.3636 28 31.2637 28 33.6818C28 36.1 29.925 38 32.375 38C34.825 38 36.7499 36.1 36.7499 33.6818C36.7499 31.2637 34.8249 29.3636 32.375 29.3636ZM32.375 36.2727C30.9749 36.2727 29.75 35.0636 29.75 33.6818C29.75 32.3 30.9749 31.0909 32.375 31.0909C33.775 31.0909 35 32.3 35 33.6818C35 35.0636 33.7749 36.2727 32.375 36.2727Z" fill="#ED444A"/>
</svg>
