<svg width="46" height="46" viewBox="0 0 46 46" fill="none" xmlns="http://www.w3.org/2000/svg">
<path d="M23 0C10.3178 0 0 10.3178 0 23C0 35.6822 10.3178 46 23 46C35.6822 46 46 35.6822 46 23C46 10.3178 35.6822 0 23 0ZM23 44.4667C11.1634 44.4667 1.53333 34.8366 1.53333 23C1.53333 11.1634 11.1634 1.53333 23 1.53333C34.8366 1.53333 44.4667 11.1634 44.4667 23C44.4667 34.8366 34.8366 44.4667 23 44.4667Z" fill="#ED444A"/>
<path d="M23.75 19.7963V11.7895C23.75 11.3529 23.414 11 23 11C22.586 11 22.25 11.3529 22.25 11.7895V19.7963C21.2007 20.0837 20.3795 20.9482 20.1065 22.0526H14.75C14.336 22.0526 14 22.4055 14 22.8421C14 23.2787 14.336 23.6316 14.75 23.6316H20.1065C20.4418 24.9895 21.6065 26 23 26C24.6545 26 26 24.5837 26 22.8421C26 21.3745 25.04 20.1492 23.75 19.7963ZM23 24.4211C22.1727 24.4211 21.5 23.7129 21.5 22.8421C21.5 21.9713 22.1727 21.2632 23 21.2632C23.8273 21.2632 24.5 21.9713 24.5 22.8421C24.5 23.7129 23.8273 24.4211 23 24.4211Z" fill="#ED444A"/>
<path d="M23 8C23.552 8 24 7.553 24 7V6C24 5.447 23.552 5 23 5C22.448 5 22 5.447 22 6V7C22 7.553 22.448 8 23 8Z" fill="#ED444A"/>
<path d="M23 38C22.448 38 22 38.447 22 39V40C22 40.553 22.448 41 23 41C23.552 41 24 40.553 24 40V39C24 38.447 23.552 38 23 38Z" fill="#ED444A"/>
<path d="M40 22H39C38.448 22 38 22.447 38 23C38 23.553 38.448 24 39 24H40C40.552 24 41 23.553 41 23C41 22.447 40.552 22 40 22Z" fill="#ED444A"/>
<path d="M7 22H6C5.448 22 5 22.447 5 23C5 23.553 5.448 24 6 24H7C7.552 24 8 23.553 8 23C8 22.447 7.552 22 7 22Z" fill="#ED444A"/>
<path d="M34.7389 10.2164L34.2166 10.7388C33.9278 11.0277 33.9278 11.4946 34.2166 11.7835C34.3607 11.9276 34.5498 12 34.7389 12C34.928 12 35.1171 11.9276 35.2611 11.7835L35.7834 11.2611C36.0722 10.9722 36.0722 10.5053 35.7834 10.2164C35.4946 9.9275 35.0277 9.92824 34.7389 10.2164Z" fill="#ED444A"/>
<path d="M10.7389 34.2164L10.2166 34.7388C9.92779 35.0277 9.92779 35.4946 10.2166 35.7835C10.3607 35.9276 10.5498 36 10.7389 36C10.928 36 11.1171 35.9276 11.2611 35.7835L11.7834 35.2611C12.0722 34.9722 12.0722 34.5053 11.7834 34.2164C11.4946 33.9275 11.027 33.9282 10.7389 34.2164Z" fill="#ED444A"/>
<path d="M35.2611 34.2166C34.9723 33.9278 34.5054 33.9278 34.2166 34.2166C33.9278 34.5055 33.9278 34.9724 34.2166 35.2612L34.7389 35.7835C34.8829 35.9276 35.072 36 35.2611 36C35.4502 36 35.6393 35.9276 35.7834 35.7835C36.0722 35.4947 36.0722 35.0278 35.7834 34.7389L35.2611 34.2166Z" fill="#ED444A"/>
<path d="M11.2611 10.2166C10.9723 9.92779 10.5054 9.92779 10.2166 10.2166C9.92779 10.5055 9.92779 10.9724 10.2166 11.2612L10.7389 11.7835C10.8829 11.9276 11.072 12 11.2611 12C11.4502 12 11.6393 11.9276 11.7834 11.7835C12.0722 11.4947 12.0722 11.0278 11.7834 10.7389L11.2611 10.2166Z" fill="#ED444A"/>
</svg>
