<svg width="46" height="46" viewBox="0 0 46 46" fill="none" xmlns="http://www.w3.org/2000/svg">
<path d="M14.8888 13.2222H14.111C13.2522 13.2214 12.5563 12.5254 12.5554 11.6666C12.5549 11.2847 12.6966 10.9162 12.953 10.6332L12.9539 10.6319L12.9542 10.6317C13.2489 10.3026 13.6691 10.1133 14.111 10.1111H16.4444C16.874 10.1111 17.2221 9.76287 17.2221 9.33329C17.2221 8.90371 16.874 8.55552 16.4444 8.55552H15.6666V7.77776C15.6666 7.34818 15.3184 7 14.8889 7C14.4593 7 14.1111 7.34818 14.1111 7.77776V8.55552C13.283 8.56145 12.4915 8.89733 11.9119 9.48888C11.8738 9.51722 11.8384 9.54903 11.8063 9.58394L11.7991 9.59042L11.7963 9.59497C11.7754 9.61585 11.7556 9.6379 11.7372 9.66096C10.9539 10.5848 10.7789 11.8795 11.2886 12.9782C11.7983 14.0769 12.9 14.7792 14.1111 14.7777H14.8889C15.7477 14.7785 16.4436 15.4745 16.4445 16.3333C16.4425 16.4751 16.4208 16.6159 16.3801 16.7517C16.3721 16.78 16.3635 16.8078 16.3542 16.8354C16.2631 17.099 16.1029 17.3332 15.8904 17.5138C15.8708 17.5304 15.8514 17.5471 15.8311 17.5627C15.7176 17.6518 15.5919 17.7241 15.4578 17.7773L15.4564 17.7781C15.276 17.8505 15.0834 17.8881 14.8889 17.8889H12.5555C12.1259 17.8889 11.7777 18.2371 11.7777 18.6667C11.7777 19.0963 12.1259 19.4445 12.5555 19.4445H14.1111V20.2222C14.1111 20.6518 14.4593 21 14.8889 21C15.3184 21 15.6666 20.6518 15.6666 20.2222V19.334C15.7739 19.3068 15.8796 19.2739 15.9835 19.2355C15.994 19.2319 16.0049 19.2336 16.0153 19.2295C16.0237 19.2264 16.0309 19.2214 16.0392 19.2182C16.1105 19.1896 16.1768 19.1534 16.2454 19.1199C16.3452 19.0725 16.4423 19.0197 16.5363 18.9618C16.5975 18.9233 16.6562 18.8828 16.7145 18.8403C16.8072 18.7722 16.8959 18.6989 16.9804 18.6208C17.0299 18.5755 17.0808 18.5327 17.1273 18.4843C17.2382 18.3691 17.3401 18.2456 17.4322 18.1149C17.4704 18.0606 17.5018 18.0023 17.5365 17.9455C17.6015 17.841 17.6603 17.7328 17.7126 17.6214C17.7435 17.5541 17.7689 17.485 17.7949 17.4152C17.8358 17.3061 17.8704 17.1948 17.8986 17.0817C17.9147 17.0176 17.9319 16.9548 17.9438 16.8892C17.9795 16.706 17.9983 16.52 18 16.3333C17.998 14.6159 16.6062 13.2241 14.8888 13.2222Z" fill="#ED444A"/>
<path d="M44.2975 36.4932L37.924 30.1313C37.886 30.0936 37.8673 30.0406 37.8731 29.9873C37.8789 29.934 37.9087 29.8863 37.954 29.8576L42.4397 27.0081C43.0188 26.6405 43.3221 25.9625 43.2101 25.2859C43.0982 24.6093 42.5926 24.065 41.9259 23.9034L26.1053 20.062C28.9095 14.556 27.7113 7.85773 23.1724 3.66465C18.6334 -0.528432 11.8598 -1.19425 6.59092 2.03465C1.322 5.26356 -1.15821 11.6003 0.519616 17.5469C2.19735 23.4934 7.62407 27.6003 13.8041 27.6005C15.9826 27.6019 18.1305 27.0867 20.0711 26.0971L23.9174 41.8816C24.0804 42.5476 24.6249 43.0522 25.3015 43.1642C25.9781 43.2761 26.6563 42.9739 27.0252 42.3959L29.8794 37.918C29.9079 37.8719 29.9564 37.8418 30.0104 37.8367C30.0646 37.8292 30.119 37.8481 30.1568 37.8877L36.6756 44.3948C37.7076 45.4225 39.1048 45.9996 40.5613 46C40.649 46 40.7366 45.9978 40.8235 45.9936C42.3729 45.9166 43.8183 45.1912 44.8059 43.995C46.575 41.7308 46.356 38.4982 44.2975 36.4932ZM5.7764 23.075C1.90135 19.7235 0.517819 14.3173 2.30681 9.5171C4.0957 4.71687 8.68032 1.53379 13.8041 1.53442C18.1378 1.53235 22.1508 3.8172 24.3601 7.54454C26.5694 11.2719 26.6469 15.8883 24.5639 19.6877L23.0088 19.3101C24.0139 17.6484 24.5434 15.7427 24.5396 13.8007C24.5396 7.873 19.7332 3.06765 13.804 3.06765C7.87488 3.06765 3.06848 7.87309 3.06848 13.8008C3.06848 19.7286 7.87497 24.5339 13.8041 24.5339C15.7474 24.5377 17.6544 24.0078 19.317 23.0021L19.6957 24.5563C15.2017 27.017 9.65146 26.4264 5.7764 23.075ZM19.3527 18.4225C19.0926 18.3592 18.8184 18.4362 18.6292 18.6255C18.44 18.8148 18.3633 19.089 18.4267 19.349L18.9335 21.4285C17.4209 22.4567 15.6332 23.0046 13.804 23.0006C8.72192 23.0006 4.60208 18.8817 4.60208 13.8008C4.60208 8.71994 8.72192 4.60106 13.804 4.60106C18.8861 4.60106 23.006 8.71994 23.006 13.8008C23.01 15.629 22.4622 17.4159 21.4342 18.9279L19.3527 18.4225ZM43.6242 43.0188C42.9156 43.8873 41.8701 44.4123 40.7501 44.4623C39.6365 44.5095 38.5532 44.0922 37.7592 43.3101L31.2404 36.8029C30.9206 36.482 30.486 36.3018 30.0329 36.3021C29.9694 36.3022 29.9061 36.3057 29.8431 36.3126C29.327 36.3681 28.8643 36.6556 28.5862 37.0937L25.7318 41.5716C25.6952 41.6341 25.6227 41.6661 25.5518 41.6513C25.4797 41.6436 25.4211 41.5896 25.4076 41.5184L20.215 20.2096L41.5634 25.3934C41.6347 25.4065 41.689 25.4645 41.6975 25.5365C41.7128 25.6068 41.6802 25.6789 41.6173 25.7139L37.1316 28.5638C36.6932 28.8418 36.405 29.304 36.3483 29.8201C36.2917 30.3361 36.4727 30.8499 36.8403 31.2164L43.2138 37.5787C44.7175 39.0224 44.8943 41.3658 43.6242 43.0188Z" fill="#ED444A"/>
</svg>
