<svg width="46" height="46" viewBox="0 0 46 46" fill="none" xmlns="http://www.w3.org/2000/svg">
<path d="M15.0699 23.9834L9.68912 29.3653V31.9057H21.8241V29.0642H13.8L17.9108 24.9525C19.1807 23.6823 20.065 22.6003 20.5541 21.7253C21.0433 20.9444 21.2409 20.0599 21.2409 19.0814C21.2409 17.416 20.6576 16.1458 19.5758 15.2614C18.5034 14.2829 17.13 13.8877 15.6625 13.8877C14.195 13.8877 13.0192 14.1794 12.0409 14.7721C11.0625 15.3555 10.2818 16.2399 9.50098 17.416L11.9468 18.7897C12.9251 17.3219 14.101 16.541 15.5685 16.541C16.3492 16.541 17.0359 16.8327 17.6192 17.3219C18.2024 17.8112 18.4 18.3946 18.4 19.0814C18.4 19.7682 18.1083 20.4551 17.6192 21.1325C17.13 21.8288 16.2458 22.8073 15.0699 23.9834Z" fill="#0F63E1"/>
<path d="M34.4482 32.1124V27.6056H36.6024V24.8676H34.4482V21.6309H31.6073V24.8676H27.4024L33.7615 14.3955H30.5349L23.9783 24.9617V27.6056H31.6073V32.1124H34.4482Z" fill="#0F63E1"/>
<path d="M23.0941 1.95705C28.3337 1.95705 33.3853 3.88586 37.2892 7.45183L32.2941 7.04725L32.2 9.00429L40.5157 9.69114L40.0266 1.08202L38.0699 1.17611L38.2863 5.8335C34.0344 2.03232 28.7006 0 23 0C10.2818 0 0 10.2839 0 23.0047H1.95665C1.95665 11.3565 11.3542 1.95705 23.0941 1.95705Z" fill="#0F63E1"/>
<path d="M44.0435 22.9951V23.0045C44.0435 34.6527 34.6459 44.0522 23.0001 44.0522C17.7322 44.0522 12.6901 42.0669 8.81444 38.5668L13.7061 38.962L13.8001 37.0049L5.48438 36.3181L5.97354 44.9272L7.93018 44.8331L7.71382 40.1946C11.9375 43.9393 17.3936 45.9998 23.0001 45.9998C35.7183 45.9998 46.0001 35.7253 46.0001 22.9951H44.0435Z" fill="#0F63E1"/>
</svg>
