<svg width="38" height="46" viewBox="0 0 38 46" fill="none" xmlns="http://www.w3.org/2000/svg">
<path d="M37.5698 21.2762C37.197 20.6317 36.5727 20.1702 35.8457 20.002V16.0341C35.8457 7.20037 28.2806 0 18.983 0C9.68528 0 2.12019 7.20037 2.12019 16.0341V20.002C1.39038 20.1804 0.768426 20.6548 0.404753 21.3104C0.122027 21.8537 -0.0168167 22.4601 0.00162431 23.072V31.8031C-0.0153157 32.4121 0.123421 33.0154 0.404753 33.5561C0.979318 34.5396 2.07248 35.1029 3.2095 35.0013H4.53896C4.59343 35.9057 5.34576 36.6106 6.2544 36.609H7.76399C8.71145 36.609 9.47943 35.8433 9.47943 34.8987V19.8053C9.47943 18.8607 8.71145 18.095 7.76399 18.095H6.21152C5.26406 18.095 4.49608 18.8607 4.49608 19.8053V19.8737H3.80132V16.0341C3.80132 8.13249 10.5945 1.7103 18.9487 1.7103C27.3028 1.7103 34.096 8.13249 34.096 16.0341V19.8737H33.4012V19.8053C33.4012 18.8607 32.6333 18.095 31.6858 18.095H30.2448C29.2974 18.095 28.5294 18.8607 28.5294 19.8053V34.9586C28.55 35.8147 29.2024 36.5236 30.0561 36.6176C29.8925 37.7052 29.409 38.7201 28.6666 39.5336C27.32 41.0216 25.1242 41.8768 22.1651 42.0991V41.7228C22.1188 40.7375 21.2839 39.9738 20.2953 40.0125H16.6157C15.627 39.9738 14.7921 40.7375 14.7458 41.7228V44.2883C14.7921 45.2736 15.627 46.0373 16.6157 45.9986H20.3296C21.3182 46.0373 22.1531 45.2736 22.1994 44.2883V43.8094C25.6732 43.5785 28.2978 42.5352 29.9704 40.6967C31.0126 39.5653 31.6699 38.1347 31.8488 36.609C32.7144 36.5589 33.4064 35.8726 33.4613 35.0099H34.7907C35.9277 35.1114 37.0209 34.5481 37.5955 33.5647C37.8768 33.0239 38.0156 32.4206 37.9986 31.8116V23.072C38.015 22.4463 37.8672 21.8273 37.5698 21.2762ZM6.2544 33.3595V21.5498C6.26319 21.4502 6.26319 21.3501 6.2544 21.2505V19.8395L7.69537 19.7968V34.9073H6.2544V33.3595ZM4.53896 21.5071V33.291H3.2095C2.21454 33.291 1.98296 32.872 1.90576 32.7266C1.76703 32.4361 1.70216 32.116 1.71706 31.7945V23.072C1.69809 22.7484 1.75995 22.4252 1.89719 22.1313C1.97438 21.9945 2.20596 21.5669 3.20092 21.5669L4.53896 21.5071ZM20.5183 42.9714V44.1429C20.4801 44.2125 20.4089 44.2576 20.3296 44.2626H16.6157C16.57 44.2659 16.5241 44.2659 16.4784 44.2626V41.7656C16.5263 41.7263 16.5882 41.7078 16.65 41.7143H20.3639C20.4582 41.7143 20.5183 41.7143 20.5183 41.7143V42.9714ZM31.7201 21.5498V34.9073H31.0425H30.9396H30.871H30.2706V19.8053H31.7458L31.7201 21.5498ZM36.0602 32.7437C35.983 32.8806 35.7514 33.3081 34.7564 33.3081H33.4355V21.584H34.7564C35.7514 21.584 35.983 22.003 36.0602 22.1484C36.1989 22.439 36.2638 22.7591 36.2489 23.0805V31.8116C36.2637 32.1331 36.1989 32.4532 36.0602 32.7437Z" fill="#0F63E1"/>
</svg>
