<svg width="46" height="46" viewBox="0 0 46 46" fill="none" xmlns="http://www.w3.org/2000/svg">
<path d="M42.1387 0C40.0021 0 38.2773 1.72457 38.2773 3.86135C38.2773 5.99814 40.0019 7.72271 42.1387 7.72271C44.2755 7.72271 46.0001 5.99814 46.0001 3.86135C45.9999 1.72457 44.2753 0 42.1387 0ZM42.1387 5.73859C41.1009 5.73859 40.2615 4.89913 40.2615 3.86135C40.2615 2.82358 41.1009 1.98412 42.1387 1.98412C43.1765 1.98412 44.0159 2.82358 44.0159 3.86135C44.0159 4.89913 43.1765 5.73859 42.1387 5.73859Z" fill="#0F63E1"/>
<path d="M3.86135 22.0078C1.72457 22.0078 0 23.7325 0 25.8692C0 28.0058 1.72457 29.7305 3.86135 29.7305C5.99814 29.7305 7.72271 28.006 7.72271 25.8692C7.72271 23.7324 5.998 22.0078 3.86135 22.0078ZM3.86135 27.7464C2.82358 27.7464 1.98412 26.9069 1.98412 25.8692C1.98412 24.8314 2.82358 23.9919 3.86135 23.9919C4.89913 23.9919 5.73859 24.8314 5.73859 25.8692C5.73859 26.9069 4.89913 27.7464 3.86135 27.7464Z" fill="#0F63E1"/>
<path d="M15.3384 10.5308C13.2018 10.5308 11.4771 12.2553 11.4771 14.3921C11.4771 16.5288 13.2016 18.2535 15.3384 18.2535C17.475 18.2535 19.1998 16.5289 19.1998 14.3921C19.1998 12.2553 17.475 10.5308 15.3384 10.5308ZM15.3384 16.2694C14.3006 16.2694 13.4612 15.4299 13.4612 14.3921C13.4612 13.3543 14.3006 12.5149 15.3384 12.5149C16.3762 12.5149 17.2156 13.3543 17.2156 14.3921C17.2156 15.4299 16.3762 16.2694 15.3384 16.2694Z" fill="#0F63E1"/>
<path d="M23.4732 18.6655C21.3365 18.6655 19.6118 20.3901 19.6118 22.5269C19.6118 24.6635 21.3364 26.3882 23.4732 26.3882C25.61 26.3882 27.3345 24.6637 27.3345 22.5269C27.3345 20.3902 25.61 18.6655 23.4732 18.6655ZM23.4732 24.4041C22.4354 24.4041 21.5959 23.5647 21.5959 22.5269C21.5959 21.4891 22.4354 20.6496 23.4732 20.6496C24.5109 20.6496 25.3504 21.4891 25.3504 22.5269C25.3504 23.5647 24.5111 24.4041 23.4732 24.4041Z" fill="#0F63E1"/>
<path d="M39.3932 5.17192L24.8064 19.7876L26.2108 21.1892L40.7975 6.5735L39.3932 5.17192Z" fill="#0F63E1"/>
<path d="M18.0742 15.7155L16.6738 17.1211L20.7606 21.1929L22.161 19.7874L18.0742 15.7155Z" fill="#0F63E1"/>
<path d="M12.6116 15.716L5.19775 23.1299L6.60072 24.5329L14.0146 17.119L12.6116 15.716Z" fill="#0F63E1"/>
<path d="M45.9694 44.0159H0.0305176V46H45.9694V44.0159Z" fill="#0F63E1"/>
<path d="M43.1306 16.2998H41.1465V45.0078H43.1306V16.2998Z" fill="#0F63E1"/>
<path d="M24.9534 30.6614H22.9692V45.0078H24.9534V30.6614Z" fill="#0F63E1"/>
<path d="M4.85326 33.5308H2.86914V45.0078H4.85326V33.5308Z" fill="#0F63E1"/>
<path d="M16.3306 24.9077H14.3464V45.0079H16.3306V24.9077Z" fill="#0F63E1"/>
</svg>
