<svg width="46" height="46" viewBox="0 0 46 46" fill="none" xmlns="http://www.w3.org/2000/svg">
<path d="M7.66657 20.0985H17.6332C18.0572 20.0985 18.3999 19.7551 18.3999 19.3319C18.3999 18.9087 18.0572 18.5652 17.6332 18.5652H7.66657C7.2426 18.5652 6.8999 18.9087 6.8999 19.3319C6.8999 19.7551 7.2426 20.0985 7.66657 20.0985Z" fill="#0F63E1"/>
<path d="M27.5999 23.165H7.66657C7.2426 23.165 6.8999 23.5085 6.8999 23.9317C6.8999 24.3549 7.2426 24.6984 7.66657 24.6984H27.5999C28.0239 24.6984 28.3666 24.3549 28.3666 23.9317C28.3666 23.5085 28.0239 23.165 27.5999 23.165Z" fill="#0F63E1"/>
<path d="M27.5999 27.7651H7.66657C7.2426 27.7651 6.8999 28.1086 6.8999 28.5318C6.8999 28.955 7.2426 29.2985 7.66657 29.2985H27.5999C28.0239 29.2985 28.3666 28.955 28.3666 28.5318C28.3666 28.1086 28.0239 27.7651 27.5999 27.7651Z" fill="#0F63E1"/>
<path d="M41.4552 2.51875L15.2797 2.46509C12.7727 2.46509 10.7333 4.50442 10.7333 7.01142V10.9398L4.54633 10.9529C2.03933 10.9529 0 12.9922 0 15.4992V31.7073C0 34.2143 2.03933 36.2529 4.54633 36.2529H9.2V43.9195C9.2 44.2362 9.39473 44.5206 9.69067 44.6348C9.78037 44.6693 9.8739 44.6862 9.96667 44.6862C10.1783 44.6862 10.386 44.598 10.534 44.4355L17.9737 36.2513L30.7203 36.1992C33.2273 36.1992 35.2667 34.1599 35.2667 31.6536V31.567L39.2993 36.0029C39.4473 36.1655 39.6551 36.2536 39.8667 36.2536C39.9594 36.2536 40.053 36.2368 40.1427 36.2023C40.4386 36.088 40.6333 35.8036 40.6333 35.487V27.8203H41.4537C43.9607 27.8203 46 25.781 46 23.2747V7.06509C46 4.55885 43.9614 2.51952 41.4552 2.51875ZM33.7333 31.6529C33.7333 33.3142 32.3817 34.6651 30.7173 34.6651L17.6303 34.7188C17.4156 34.7195 17.2101 34.8108 17.066 34.9695L10.7333 41.9362V35.4854C10.7333 35.0622 10.3906 34.7188 9.96667 34.7188H4.54633C2.88497 34.7188 1.53333 33.3671 1.53333 31.7065V15.4984C1.53333 13.8371 2.88497 12.4854 4.54787 12.4854L11.5 12.4709C11.5008 12.4709 11.5008 12.4709 11.5015 12.4709L30.7203 12.431C32.3817 12.431 33.7333 13.7826 33.7333 15.444V29.5821V31.6529ZM44.4667 23.2732C44.4667 24.9346 43.115 26.2854 41.4537 26.2854H39.8667C39.4427 26.2854 39.1 26.6289 39.1 27.0521V33.5028L35.2667 29.2862V15.4448C35.2667 12.9378 33.2273 10.8984 30.7188 10.8984L12.2667 10.936V7.01065C12.2667 5.34929 13.6183 3.99765 15.2781 3.99765L41.4529 4.05132C41.4537 4.05132 41.4537 4.05132 41.4544 4.05132C43.1158 4.05132 44.4674 5.40295 44.4674 7.06432V23.2732H44.4667Z" fill="#0F63E1"/>
</svg>
