<svg width="15" height="20" viewBox="0 0 15 20" fill="none" xmlns="http://www.w3.org/2000/svg">
<path d="M7.43493 10.5552C7.45319 10.5552 7.47145 10.5552 7.49336 10.5552C7.50066 10.5552 7.50796 10.5552 7.51527 10.5552C7.52622 10.5552 7.54083 10.5552 7.55179 10.5552C8.62177 10.5363 9.48724 10.1456 10.1263 9.39835C11.5323 7.75218 11.2985 4.93018 11.273 4.66087C11.1817 2.6392 10.2614 1.67198 9.50185 1.22061C8.93582 0.883028 8.27484 0.700963 7.53718 0.685791H7.51162C7.50796 0.685791 7.50066 0.685791 7.49701 0.685791H7.4751C7.06975 0.685791 6.27365 0.754065 5.51042 1.20543C4.74354 1.6568 3.80868 2.62402 3.71739 4.66087C3.69182 4.93018 3.45811 7.75218 4.86405 9.39835C5.49947 10.1456 6.36495 10.5363 7.43493 10.5552ZM4.69242 4.7557C4.69242 4.74432 4.69607 4.73294 4.69607 4.72536C4.81658 2.00576 6.67535 1.7137 7.47145 1.7137H7.48605C7.49336 1.7137 7.50431 1.7137 7.51527 1.7137C8.50126 1.73646 10.1774 2.15369 10.2906 4.72536C10.2906 4.73673 10.2906 4.74811 10.2943 4.7557C10.2979 4.78225 10.5536 7.3615 9.3923 8.7194C8.93217 9.25801 8.31867 9.52352 7.51162 9.53111C7.50431 9.53111 7.50066 9.53111 7.49336 9.53111C7.48605 9.53111 7.4824 9.53111 7.4751 9.53111C6.6717 9.52352 6.05454 9.25801 5.59807 8.7194C4.44044 7.36909 4.68877 4.77846 4.69242 4.7557Z" fill="#0F63E1"/>
<path d="M14.999 15.2359C14.999 15.2321 14.999 15.2283 14.999 15.2245C14.999 15.1942 14.9953 15.1638 14.9953 15.1297C14.9734 14.3787 14.9259 12.6225 13.3411 12.0611C13.3301 12.0573 13.3155 12.0535 13.3045 12.0497C11.6576 11.6136 10.2881 10.6274 10.2735 10.616C10.0508 10.4529 9.74402 10.5098 9.587 10.7412C9.42997 10.9725 9.48474 11.2911 9.70751 11.4542C9.76959 11.4998 11.223 12.5504 13.0416 13.0359C13.8925 13.3508 13.9874 14.2952 14.013 15.16C14.013 15.1942 14.013 15.2245 14.0166 15.2548C14.0203 15.5962 13.9984 16.1234 13.94 16.4269C13.3484 16.7758 11.0295 17.982 7.50181 17.982C3.98877 17.982 1.65526 16.7721 1.06002 16.4231C1.00159 16.1197 0.976027 15.5924 0.983331 15.2511C0.983331 15.2207 0.986983 15.1904 0.986983 15.1562C1.01255 14.2914 1.10749 13.347 1.95836 13.0321C3.77697 12.5466 5.23039 11.4922 5.29247 11.4505C5.51523 11.2874 5.57 10.9687 5.41298 10.7374C5.25595 10.506 4.9492 10.4491 4.72644 10.6122C4.71183 10.6236 3.3497 11.6098 1.69543 12.046C1.68083 12.0497 1.66987 12.0535 1.65892 12.0573C0.0740301 12.6225 0.0265566 14.3787 0.00464579 15.1259C0.00464579 15.16 0.0046457 15.1904 0.000993893 15.2207C0.000993893 15.2245 0.000993893 15.2283 0.000993893 15.2321C-0.00265792 15.4293 -0.00630965 16.4421 0.187236 16.9503C0.223754 17.0489 0.289487 17.1324 0.37713 17.1893C0.486685 17.2651 3.11234 19.0023 7.50546 19.0023C11.8986 19.0023 14.5242 17.2614 14.6338 17.1893C14.7178 17.1324 14.7872 17.0489 14.8237 16.9503C15.0063 16.4459 15.0026 15.4331 14.999 15.2359Z" fill="#0F63E1"/>
</svg>
