<svg width="36" height="14" viewBox="0 0 36 14" fill="none" xmlns="http://www.w3.org/2000/svg">
<path d="M15.8406 5.3064C15.0166 5.3064 14.158 5.89958 14.158 5.89958V5.51787C14.158 5.43453 14.1244 5.40048 14.039 5.40048H12.9879C12.971 5.39846 12.9539 5.39999 12.9376 5.40495C12.9214 5.40991 12.9064 5.41821 12.8936 5.42929C12.8808 5.44037 12.8705 5.45399 12.8635 5.46925C12.8564 5.48452 12.8527 5.50108 12.8525 5.51787V13.654C12.8525 13.7383 12.8862 13.7884 12.9716 13.7884H14.0399C14.057 13.7883 14.0739 13.7846 14.0895 13.7776C14.105 13.7706 14.1189 13.7604 14.1301 13.7477C14.1414 13.735 14.1498 13.72 14.1547 13.7039C14.1597 13.6878 14.1611 13.6708 14.159 13.654V6.6899C14.4926 6.49653 14.8705 6.38985 15.2573 6.37987C15.8306 6.37987 16.2839 6.66033 16.2839 7.23739V13.654C16.2823 13.672 16.2846 13.6901 16.2908 13.7071C16.297 13.7241 16.3069 13.7396 16.3198 13.7524C16.3327 13.7652 16.3483 13.775 16.3655 13.7813C16.3827 13.7875 16.4011 13.79 16.4193 13.7884H17.4704C17.4876 13.7885 17.5045 13.7849 17.5202 13.7779C17.5358 13.7709 17.5497 13.7607 17.561 13.748C17.5722 13.7352 17.5806 13.7203 17.5855 13.7041C17.5904 13.6878 17.5918 13.6708 17.5894 13.654V6.8727C17.5876 5.8512 16.9517 5.3064 15.8406 5.3064Z" fill="#010202"/>
<path d="M24.0195 1.22596H22.9684C22.9515 1.22394 22.9344 1.22547 22.9181 1.23043C22.9019 1.2354 22.8869 1.24369 22.8741 1.25477C22.8613 1.26585 22.851 1.27947 22.844 1.29474C22.8369 1.31 22.8332 1.32657 22.833 1.34335V5.44817C22.4937 5.30684 22.1317 5.22613 21.7637 5.20982C20.0557 5.20982 18.8838 6.82272 18.8838 9.92038C18.8838 12.5754 20.0249 13.9992 21.513 13.9992C22.1408 13.9992 22.6586 13.6408 23.0374 13.311L23.2673 13.6955C23.2787 13.7243 23.2993 13.7487 23.326 13.7649C23.3528 13.781 23.3842 13.7881 23.4154 13.7851H24.0204C24.0375 13.7849 24.0544 13.7813 24.07 13.7742C24.0855 13.7672 24.0994 13.757 24.1106 13.7443C24.1219 13.7316 24.1303 13.7167 24.1352 13.7005C24.1402 13.6844 24.1416 13.6674 24.1394 13.6507V1.34335C24.1394 1.25912 24.1058 1.22596 24.0204 1.22596H24.0195ZM20.2747 9.64887C20.2747 7.94099 20.7807 6.25014 21.8191 6.25014C22.1922 6.25352 22.5522 6.38574 22.8367 6.62379V12.6399C22.5518 12.8046 22.23 12.897 21.9 12.9087C20.7707 12.9078 20.2747 11.5915 20.2747 9.64977V9.64887Z" fill="#010202"/>
<path d="M28.0472 5.23022C26.2956 5.23022 25.4316 7.49187 25.4316 9.95243C25.4316 12.5277 26.6645 13.9721 28.248 13.9721C28.9448 13.9721 29.638 13.7033 30.0931 13.4524C30.1222 13.4389 30.1451 13.4151 30.1572 13.3857C30.1694 13.3563 30.1698 13.3235 30.1586 13.2938L30.0259 12.7499C30.0239 12.7346 30.0188 12.7198 30.0109 12.7064C30.003 12.6931 29.9925 12.6814 29.98 12.6722C29.9675 12.6629 29.9532 12.6562 29.938 12.6525C29.9227 12.6487 29.9069 12.648 29.8915 12.6505C29.8542 12.6505 29.28 12.8162 28.7213 12.8162C27.424 12.8162 26.8289 11.6782 26.8289 10.1666V9.79921C27.1711 9.84684 27.5156 9.87675 27.861 9.88881H30.3085V9.1881C30.3085 6.61104 29.3945 5.23022 28.0463 5.23022H28.0472ZM27.9627 8.83864C27.5757 8.83864 26.8725 8.93272 26.8725 8.93272C26.8725 8.93272 26.8816 8.65494 26.9161 8.38971C27.0678 6.97663 27.4094 6.26158 27.9991 6.26158C28.5114 6.26158 28.863 6.99276 28.9475 8.27323C28.9639 8.54204 28.9639 8.83864 28.9639 8.83864H27.9645H27.9627Z" fill="#010202"/>
<path d="M10.8531 6.28491C10.4643 5.52864 9.77203 5.198 8.978 5.198C8.46833 5.198 7.67249 5.39065 7.14193 5.62631C7.03836 5.67201 6.97204 5.71592 6.97204 5.79387C6.97667 5.84732 6.99411 5.89891 7.02292 5.94441L7.38086 6.70068C7.39039 6.7311 7.40957 6.75771 7.43557 6.77658C7.46157 6.79545 7.49303 6.8056 7.52531 6.80552C7.57759 6.80169 7.62754 6.78267 7.66886 6.75086C8.1867 6.4238 8.56645 6.24459 8.86716 6.24459C9.26509 6.24459 9.53491 6.50534 9.70116 6.89602C9.85652 7.26072 9.91648 7.76519 9.91648 8.34673C9.91648 8.42111 9.91648 8.51788 9.91648 8.51788C9.59033 8.31627 9.02433 8.20516 8.74179 8.20516C7.22279 8.20516 6.40332 9.62988 6.40332 11.1541C6.40332 12.7956 7.36088 13.9999 8.51194 13.9999C9.15334 13.9999 9.73296 13.629 10.1218 13.1603C10.1218 13.1603 10.3289 13.6469 10.3553 13.7051C10.3642 13.732 10.3826 13.7548 10.4071 13.7694C10.4316 13.784 10.4606 13.7895 10.4888 13.7849H11.1039C11.121 13.7848 11.1379 13.7811 11.1534 13.774C11.169 13.767 11.1828 13.7568 11.1941 13.7441C11.2053 13.7314 11.2137 13.7165 11.2187 13.7003C11.2236 13.6842 11.2251 13.6672 11.2229 13.6505V8.93454C11.2229 7.77505 11.1629 6.89064 10.8531 6.2867V6.28491ZM9.91739 12.4677C9.65719 12.7324 9.30418 12.8888 8.93076 12.905C8.60643 12.905 8.35568 12.7571 8.15399 12.4829C7.9087 12.1496 7.7906 11.6353 7.7906 11.0663C7.7906 10.1702 8.12765 9.24279 8.84082 9.24279C9.23069 9.24436 9.60854 9.37606 9.91284 9.61644V12.4677H9.91739Z" fill="#010202"/>
<path d="M35.8635 5.40059H34.9259C34.8859 5.39873 34.8465 5.40992 34.8136 5.43244C34.7808 5.45496 34.7564 5.48755 34.7442 5.52514C34.6851 5.67926 34.2899 6.70883 34.1264 7.13804C34.011 7.4427 33.6985 8.31546 33.6985 8.31546H33.6622C33.6622 8.31546 33.4323 7.68015 33.3088 7.36385C33.2088 7.10758 32.6864 5.75095 32.6201 5.58249C32.5847 5.49289 32.5456 5.40328 32.4112 5.40328H31.3846C31.3607 5.40365 31.3372 5.40962 31.3161 5.42069C31.295 5.43176 31.2769 5.44763 31.2632 5.46697C31.2496 5.48631 31.2407 5.50857 31.2375 5.53193C31.2343 5.55529 31.2367 5.57907 31.2447 5.60131C31.281 5.67747 32.9163 9.35309 32.9163 9.35309C32.9163 9.35309 31.1602 13.4696 31.1093 13.5645C31.097 13.5883 31.091 13.6147 31.0919 13.6413C31.0927 13.6679 31.1004 13.6939 31.1142 13.7168C31.128 13.7397 31.1474 13.7588 31.1707 13.7723C31.194 13.7858 31.2204 13.7932 31.2474 13.7939H32.1468C32.2994 13.7939 32.3603 13.7151 32.4057 13.5869C32.5347 13.2285 32.7273 12.7321 32.9999 11.9642C33.1816 11.4552 33.4659 10.5619 33.4659 10.5619H33.4977C33.4977 10.5619 33.8103 11.4723 33.9265 11.7697C34.22 12.5224 34.5961 13.5063 34.6361 13.6102C34.6761 13.7142 34.736 13.7895 34.8405 13.7895H35.858C35.9589 13.7895 36.0052 13.6757 35.9579 13.5771C35.8444 13.3414 34.8759 11.018 34.2036 9.49108C34.2036 9.49108 35.9489 5.68912 35.9834 5.59504C36.0179 5.50095 36.007 5.40149 35.8635 5.40149V5.40059Z" fill="#010202"/>
<path d="M7.46582 0.000943504H6.28478C6.24437 -0.00331573 6.20375 0.00693236 6.17038 0.0298079C6.13701 0.0526835 6.11312 0.0866541 6.10308 0.125495C6.08763 0.198971 4.3306 5.49017 4.2025 5.93013C4.11165 6.24286 3.81639 7.34411 3.74825 7.60844L3.13683 5.9606C2.98784 5.5072 1.56423 1.58069 1.52244 1.42388C1.49972 1.33427 1.45884 1.23033 1.30621 1.23033H0.145153C0.121458 1.23121 0.0983056 1.23758 0.0775767 1.24894C0.0568478 1.2603 0.0391262 1.27632 0.0258506 1.2957C0.0125751 1.31507 0.00411964 1.33727 0.00117076 1.36047C-0.00177812 1.38368 0.000862643 1.40724 0.00887869 1.42925C0.0379506 1.49019 2.12295 6.96418 2.96513 9.05557V13.6541C2.96513 13.7384 2.99874 13.7885 3.08414 13.7885H4.17434C4.19144 13.7884 4.20832 13.7847 4.22387 13.7777C4.23941 13.7707 4.25327 13.7605 4.26452 13.7478C4.27577 13.735 4.28416 13.7201 4.28913 13.704C4.2941 13.6878 4.29554 13.6709 4.29335 13.6541V9.09231C4.99562 7.15683 7.56394 0.271552 7.58756 0.194492C7.62118 0.100406 7.61118 0.000943504 7.46764 0.000943504H7.46582Z" fill="#E52620"/>
</svg>
