<svg width="120" height="120" viewBox="0 0 120 120" fill="none" xmlns="http://www.w3.org/2000/svg">
<rect width="120" height="120" fill="url(#paint0_linear)"/>
<path fill-rule="evenodd" clip-rule="evenodd" d="M64.6295 57.6583C70.7343 54.0187 77.4729 50.2283 83.8531 39.3874C90.7164 27.6938 86.03 21.3973 72.9424 23.3523C57.9895 25.5829 36.8903 39.9906 34.1886 53.7587C31.5493 67.1837 57.5687 73.4075 52.4458 81.4718C46.684 90.5085 34.6043 94.0337 39.2907 87.4928C44.1537 80.7023 52.3526 78.1277 56.8936 76.5887L54 73.6386C54 73.6386 50.9859 75.8772 43.603 80.4371C36.4123 84.8723 34.6562 88.3559 35.1706 90.7632C35.6849 93.1706 39.3011 98.1673 42.7405 97.9957C46.18 97.8241 54.2643 94.3561 57.8752 88.5275C61.4861 82.6989 62.1356 79.0229 45.1461 66.4974C32.0792 56.8576 58.9091 37.5676 67.1649 32.9297C74.2153 28.9729 82.1178 26.264 83.7596 27.3351C87.7394 29.9348 66.3024 48.1641 56.223 52.984C56.223 52.984 55.0177 53.1868 55.9633 54.445C55.9633 54.445 59.2832 57.6895 59.7456 58.1211C61.3615 59.6133 64.1775 57.9287 64.6295 57.6583Z" fill="white"/>
<defs>
<linearGradient id="paint0_linear" x1="114" y1="7.5" x2="3.39746e-06" y2="120" gradientUnits="userSpaceOnUse">
<stop stop-color="#F05596"/>
<stop offset="1" stop-color="#17A5F4"/>
</linearGradient>
</defs>
</svg>
