<svg width="106" height="106" viewBox="0 0 106 106" fill="none" xmlns="http://www.w3.org/2000/svg">
<path d="M48.1022 78.9043H48.0251C47.6434 80.4356 47.2604 82.3861 46.8392 83.879L45.3086 89.35H51.0097L49.4021 83.879C48.9451 82.3475 48.4852 80.4356 48.1022 78.9043Z" fill="#4E4E4E"/>
<path d="M91.4305 25.4014C91.4245 24.9153 91.2714 24.4347 90.9375 24.0558L70.4981 0.710867C70.494 0.704294 70.488 0.702361 70.482 0.696367C70.36 0.560265 70.2201 0.447554 70.0698 0.34915C70.0252 0.319765 69.9805 0.293859 69.9337 0.268146C69.8017 0.197581 69.6658 0.139196 69.5237 0.0964707C69.4854 0.0852576 69.4508 0.0695981 69.4121 0.058965C69.2559 0.0228127 69.0974 0 68.9352 0H18.7058C16.4143 0 14.5488 1.86542 14.5488 4.15694V101.843C14.5488 104.136 16.4143 106 18.7058 106H87.294C89.5873 106 91.451 104.136 91.451 101.843V25.6343C91.451 25.5562 91.439 25.4797 91.4305 25.4014ZM53.8426 100.332L51.8515 93.7121H44.4679L42.6305 100.332H36.5865L44.4679 74.5434H52.1195L60.1161 100.332H53.8426ZM69.4143 100.332H63.5587V74.5436H69.4143V100.332ZM18.7058 70.5804V4.15694H66.8567V25.4251C66.8567 26.5725 67.7864 27.5036 68.9352 27.5036H87.294L87.296 70.5802H18.7058V70.5804Z" fill="#4E4E4E"/>
<path d="M41.8956 50.8474L39.7516 58.5757H32.6943L41.8956 28.4685H50.8297L60.1663 58.5757H52.8405L50.5175 50.8474H41.8956ZM49.535 45.7555L47.6589 39.3674C47.1226 37.5812 46.5869 35.3477 46.1407 33.5606H46.0514C45.6044 35.3477 45.1576 37.6261 44.6662 39.3674L42.8795 45.7555H49.535Z" fill="#4E4E4E"/>
<path d="M70.7118 30.657C70.7118 32.5335 69.2827 34.0523 67.0492 34.0523C64.9048 34.0523 63.4761 32.5337 63.5196 30.657C63.4751 28.6917 64.9048 27.2172 67.0919 27.2172C69.2817 27.2181 70.6669 28.6917 70.7118 30.657ZM63.6982 58.5757V36.7308H70.4885V58.5757H63.6982Z" fill="#4E4E4E"/>
</svg>
