<svg width="109" height="109" viewBox="0 0 109 109" fill="none" xmlns="http://www.w3.org/2000/svg">
<g clip-path="url(#clip0)">
<g clip-path="url(#clip1)">
<path d="M53.0211 80.9296C51.773 80.9296 50.9646 81.0404 50.4873 81.1508V97.3409C50.9646 97.4515 51.7374 97.4515 52.434 97.4515C57.4995 97.4871 60.8033 94.6976 60.8033 88.7867C60.8413 83.6472 57.8315 80.9296 53.0211 80.9296Z" fill="#4E4E4E"/>
<path d="M78.5045 80.7858C77.1458 80.7858 76.3756 80.8974 75.9707 80.9696V87.8009H78.1737C80.9644 87.8009 82.6152 86.4026 82.6152 84.238C82.6164 81.9587 81.074 80.8212 78.5045 80.7858Z" fill="#4E4E4E"/>
<path d="M95.0184 26.1192C95.0121 25.6195 94.8514 25.1268 94.5071 24.7355L73.4934 0.72904C73.4872 0.723301 73.4811 0.720135 73.4767 0.71499C73.3515 0.574089 73.2054 0.459905 73.0511 0.358187C73.0052 0.328503 72.9592 0.300798 72.9112 0.274676C72.7776 0.20106 72.6377 0.142286 72.4896 0.0983531C72.4499 0.0868753 72.4144 0.0696586 72.3749 0.0611491C72.2162 0.0225599 72.0513 0 71.8843 0H20.2354C17.8789 0 15.9609 1.91719 15.9609 4.2747V104.725C15.9609 107.082 17.8789 109 20.2354 109H90.7647C93.1212 109 95.0394 107.082 95.0394 104.725V26.3588C95.0392 26.2785 95.0268 26.1997 95.0184 26.1192ZM35.6888 97.3077C37.3772 97.3077 39.2514 96.9404 40.3515 96.4979L41.1967 100.868C40.1673 101.382 37.8547 101.933 34.8455 101.933C26.2902 101.933 21.8843 96.6085 21.8843 89.5601C21.8843 81.1134 27.9062 76.4152 35.3971 76.4152C38.296 76.4152 40.4995 77.0018 41.4916 77.5161L40.3525 81.9586C39.2154 81.4827 37.6372 81.0424 35.6549 81.0424C31.2112 81.0424 27.7607 83.7223 27.7607 89.2281C27.7598 94.1851 30.6963 97.3077 35.6888 97.3077ZM62.6401 98.6268C60.0354 100.795 56.0698 101.822 51.2212 101.822C48.3223 101.822 46.2658 101.638 44.8706 101.455V77.1498C46.9265 76.8168 49.6064 76.6363 52.4339 76.6363C57.1321 76.6363 60.1793 77.4805 62.5671 79.2788C65.1363 81.1884 66.7517 84.2378 66.7517 88.6063C66.7519 93.3421 65.0259 96.6085 62.6401 98.6268ZM83.3865 101.565C82.9837 100.868 82.3972 98.8479 81.6626 95.8005C81.0008 92.7136 79.9386 91.8695 77.6594 91.8349H75.9732V101.563H70.4296V77.1498C72.2288 76.8575 74.9075 76.6363 77.8828 76.6363C81.5551 76.6363 84.1244 77.185 85.887 78.5814C87.3542 79.7565 88.162 81.4825 88.162 83.7575C88.162 86.9155 85.9215 89.0818 83.7935 89.8542V89.9628C85.5188 90.6598 86.4736 92.3118 87.0976 94.59C87.8707 97.3807 88.6399 100.611 89.119 101.565H83.3865ZM20.2354 72.5769V4.2747H69.7468V26.1439C69.7468 27.3238 70.705 28.2812 71.8843 28.2812H90.7647V72.5771H20.2354V72.5769Z" fill="#4E4E4E"/>
<path d="M50.1655 55.1053L41.869 46.8058L60.8122 27.8626L59.4784 26.53L39.2038 46.8066L39.2168 46.8197C39.0061 47.0184 38.8489 47.2725 38.7846 47.5517L36.1194 59.1041C36.0072 59.5967 36.1507 60.1068 36.5096 60.4648C36.8686 60.8228 37.3784 60.9701 37.87 60.8553L49.423 58.1889C49.6902 58.1271 49.9347 57.9937 50.1283 57.7984C50.1388 57.7869 50.1497 57.7745 50.1592 57.7618L50.1655 57.7703L70.4423 37.4935L69.1087 36.1609L50.1655 55.1053ZM49.1016 56.7981L41.8154 58.4804L38.4951 55.1597L40.1774 47.8735C40.1774 47.8683 40.1816 47.862 40.1857 47.8578L40.201 47.8489C40.2114 47.8467 40.2233 47.8499 40.2316 47.8578L49.1182 56.7438C49.1271 56.7522 49.1313 56.7646 49.1271 56.7751L49.1923 56.7959L49.219 56.823L49.1016 56.7981ZM64.9614 32.015L47.9536 49.0222L45.2158 46.2846L62.223 29.2762L64.9614 32.015Z" fill="#4E4E4E"/>
</g>
</g>
<defs>
<clipPath id="clip0">
<rect width="109" height="109" fill="white"/>
</clipPath>
<clipPath id="clip1">
<rect width="109" height="109" fill="white" transform="translate(1)"/>
</clipPath>
</defs>
</svg>
