<svg width="514" height="113" viewBox="0 0 514 113" fill="none" xmlns="http://www.w3.org/2000/svg">
<path d="M189.344 100.52V109H187.808V101.864H183.024V109H181.488V100.52H189.344ZM195.948 109.096C195.105 109.096 194.348 108.909 193.676 108.536C193.004 108.163 192.476 107.651 192.092 107C191.719 106.339 191.532 105.592 191.532 104.76C191.532 103.928 191.719 103.187 192.092 102.536C192.476 101.875 193.004 101.363 193.676 101C194.348 100.627 195.105 100.44 195.948 100.44C196.791 100.44 197.543 100.627 198.204 101C198.876 101.363 199.399 101.875 199.772 102.536C200.156 103.187 200.348 103.928 200.348 104.76C200.348 105.592 200.156 106.339 199.772 107C199.399 107.651 198.876 108.163 198.204 108.536C197.543 108.909 196.791 109.096 195.948 109.096ZM195.948 107.752C196.492 107.752 196.977 107.629 197.404 107.384C197.841 107.128 198.183 106.776 198.428 106.328C198.673 105.869 198.796 105.347 198.796 104.76C198.796 104.173 198.673 103.656 198.428 103.208C198.183 102.749 197.841 102.397 197.404 102.152C196.977 101.907 196.492 101.784 195.948 101.784C195.404 101.784 194.913 101.907 194.476 102.152C194.049 102.397 193.708 102.749 193.452 103.208C193.207 103.656 193.084 104.173 193.084 104.76C193.084 105.347 193.207 105.869 193.452 106.328C193.708 106.776 194.049 107.128 194.476 107.384C194.913 107.629 195.404 107.752 195.948 107.752ZM208.806 101.864H204.102V109H202.566V100.52H208.806V101.864ZM213.636 109.096C212.793 109.096 212.036 108.909 211.364 108.536C210.692 108.163 210.164 107.651 209.78 107C209.406 106.339 209.22 105.592 209.22 104.76C209.22 103.928 209.406 103.187 209.78 102.536C210.164 101.875 210.692 101.363 211.364 101C212.036 100.627 212.793 100.44 213.636 100.44C214.478 100.44 215.23 100.627 215.892 101C216.564 101.363 217.086 101.875 217.46 102.536C217.844 103.187 218.036 103.928 218.036 104.76C218.036 105.592 217.844 106.339 217.46 107C217.086 107.651 216.564 108.163 215.892 108.536C215.23 108.909 214.478 109.096 213.636 109.096ZM213.636 107.752C214.18 107.752 214.665 107.629 215.092 107.384C215.529 107.128 215.87 106.776 216.116 106.328C216.361 105.869 216.484 105.347 216.484 104.76C216.484 104.173 216.361 103.656 216.116 103.208C215.87 102.749 215.529 102.397 215.092 102.152C214.665 101.907 214.18 101.784 213.636 101.784C213.092 101.784 212.601 101.907 212.164 102.152C211.737 102.397 211.396 102.749 211.14 103.208C210.894 103.656 210.772 104.173 210.772 104.76C210.772 105.347 210.894 105.869 211.14 106.328C211.396 106.776 211.737 107.128 212.164 107.384C212.601 107.629 213.092 107.752 213.636 107.752ZM220.254 100.52H221.79V104.12H226.622V100.52H228.158V109H226.622V105.448H221.79V109H220.254V100.52ZM231.144 100.52H232.68V104.12H237.512V100.52H239.048V109H237.512V105.448H232.68V109H231.144V100.52ZM245.859 103.4C246.926 103.411 247.742 103.656 248.307 104.136C248.872 104.616 249.155 105.293 249.155 106.168C249.155 107.085 248.846 107.795 248.227 108.296C247.619 108.787 246.744 109.027 245.603 109.016L242.035 109V100.52H243.571V103.384L245.859 103.4ZM250.419 100.52H251.955V109H250.419V100.52ZM245.491 107.848C246.184 107.859 246.707 107.72 247.059 107.432C247.422 107.144 247.603 106.717 247.603 106.152C247.603 105.597 247.427 105.192 247.075 104.936C246.723 104.68 246.195 104.547 245.491 104.536L243.571 104.504V107.832L245.491 107.848ZM254.941 100.52H256.477V106.696L261.677 100.52H263.069V109H261.533V102.824L256.349 109H254.941V100.52ZM258.909 99.416C258.12 99.416 257.506 99.2293 257.069 98.856C256.632 98.472 256.408 97.9227 256.397 97.208H257.437C257.448 97.6027 257.581 97.9227 257.837 98.168C258.104 98.4027 258.456 98.52 258.893 98.52C259.33 98.52 259.682 98.4027 259.949 98.168C260.216 97.9227 260.354 97.6027 260.365 97.208H261.437C261.426 97.9227 261.197 98.472 260.749 98.856C260.301 99.2293 259.688 99.416 258.909 99.416ZM280.123 100.52V109H278.731V102.808L275.563 108.04H274.891L271.755 102.792V109H270.347V100.52H271.931L275.259 106.248L278.683 100.52H280.123ZM290.777 104.808C290.777 104.925 290.766 105.08 290.745 105.272H283.865C283.961 106.019 284.286 106.621 284.841 107.08C285.406 107.528 286.105 107.752 286.937 107.752C287.95 107.752 288.766 107.411 289.385 106.728L290.233 107.72C289.849 108.168 289.369 108.509 288.793 108.744C288.228 108.979 287.593 109.096 286.889 109.096C285.993 109.096 285.198 108.915 284.505 108.552C283.812 108.179 283.273 107.661 282.889 107C282.516 106.339 282.329 105.592 282.329 104.76C282.329 103.939 282.51 103.197 282.873 102.536C283.246 101.875 283.753 101.363 284.393 101C285.044 100.627 285.774 100.44 286.585 100.44C287.396 100.44 288.116 100.627 288.745 101C289.385 101.363 289.881 101.875 290.233 102.536C290.596 103.197 290.777 103.955 290.777 104.808ZM286.585 101.736C285.849 101.736 285.23 101.96 284.729 102.408C284.238 102.856 283.95 103.443 283.865 104.168H289.305C289.22 103.453 288.926 102.872 288.425 102.424C287.934 101.965 287.321 101.736 286.585 101.736ZM299.121 101.864H296.016V109H294.481V101.864H291.377V100.52H299.121V101.864ZM305.187 100.44C306.008 100.44 306.744 100.621 307.395 100.984C308.046 101.347 308.552 101.853 308.915 102.504C309.288 103.155 309.475 103.907 309.475 104.76C309.475 105.613 309.288 106.371 308.915 107.032C308.552 107.683 308.046 108.189 307.395 108.552C306.744 108.915 306.008 109.096 305.187 109.096C304.579 109.096 304.019 108.979 303.507 108.744C303.006 108.509 302.579 108.168 302.227 107.72V112.104H300.691V100.52H302.163V101.864C302.504 101.395 302.936 101.043 303.459 100.808C303.982 100.563 304.558 100.44 305.187 100.44ZM305.059 107.752C305.603 107.752 306.088 107.629 306.515 107.384C306.952 107.128 307.294 106.776 307.539 106.328C307.795 105.869 307.923 105.347 307.923 104.76C307.923 104.173 307.795 103.656 307.539 103.208C307.294 102.749 306.952 102.397 306.515 102.152C306.088 101.907 305.603 101.784 305.059 101.784C304.526 101.784 304.04 101.912 303.603 102.168C303.176 102.413 302.835 102.76 302.579 103.208C302.334 103.656 302.211 104.173 302.211 104.76C302.211 105.347 302.334 105.869 302.579 106.328C302.824 106.776 303.166 107.128 303.603 107.384C304.04 107.629 304.526 107.752 305.059 107.752ZM320.5 100.44C321.321 100.44 322.057 100.621 322.708 100.984C323.358 101.347 323.865 101.853 324.228 102.504C324.601 103.155 324.788 103.907 324.788 104.76C324.788 105.613 324.601 106.371 324.228 107.032C323.865 107.683 323.358 108.189 322.708 108.552C322.057 108.915 321.321 109.096 320.5 109.096C319.892 109.096 319.332 108.979 318.82 108.744C318.318 108.509 317.892 108.168 317.54 107.72V112.104H316.004V100.52H317.476V101.864C317.817 101.395 318.249 101.043 318.772 100.808C319.294 100.563 319.87 100.44 320.5 100.44ZM320.372 107.752C320.916 107.752 321.401 107.629 321.828 107.384C322.265 107.128 322.606 106.776 322.852 106.328C323.108 105.869 323.236 105.347 323.236 104.76C323.236 104.173 323.108 103.656 322.852 103.208C322.606 102.749 322.265 102.397 321.828 102.152C321.401 101.907 320.916 101.784 320.372 101.784C319.838 101.784 319.353 101.912 318.916 102.168C318.489 102.413 318.148 102.76 317.892 103.208C317.646 103.656 317.524 104.173 317.524 104.76C317.524 105.347 317.646 105.869 317.892 106.328C318.137 106.776 318.478 107.128 318.916 107.384C319.353 107.629 319.838 107.752 320.372 107.752ZM334.683 104.808C334.683 104.925 334.673 105.08 334.651 105.272H327.771C327.867 106.019 328.193 106.621 328.747 107.08C329.313 107.528 330.011 107.752 330.843 107.752C331.857 107.752 332.673 107.411 333.291 106.728L334.139 107.72C333.755 108.168 333.275 108.509 332.699 108.744C332.134 108.979 331.499 109.096 330.795 109.096C329.899 109.096 329.105 108.915 328.411 108.552C327.718 108.179 327.179 107.661 326.795 107C326.422 106.339 326.235 105.592 326.235 104.76C326.235 103.939 326.417 103.197 326.779 102.536C327.153 101.875 327.659 101.363 328.299 101C328.95 100.627 329.681 100.44 330.491 100.44C331.302 100.44 332.022 100.627 332.651 101C333.291 101.363 333.787 101.875 334.139 102.536C334.502 103.197 334.683 103.955 334.683 104.808ZM330.491 101.736C329.755 101.736 329.137 101.96 328.635 102.408C328.145 102.856 327.857 103.443 327.771 104.168H333.211C333.126 103.453 332.833 102.872 332.331 102.424C331.841 101.965 331.227 101.736 330.491 101.736ZM341.471 104.584C342.036 104.733 342.473 104.973 342.783 105.304C343.092 105.635 343.247 106.045 343.247 106.536C343.247 107.037 343.076 107.485 342.735 107.88C342.393 108.264 341.919 108.568 341.311 108.792C340.713 109.005 340.041 109.112 339.295 109.112C338.665 109.112 338.047 109.032 337.439 108.872C336.841 108.701 336.308 108.461 335.839 108.152L336.303 106.984C336.708 107.24 337.172 107.443 337.695 107.592C338.217 107.731 338.745 107.8 339.279 107.8C340.004 107.8 340.58 107.677 341.007 107.432C341.444 107.176 341.663 106.835 341.663 106.408C341.663 106.013 341.487 105.709 341.135 105.496C340.793 105.283 340.308 105.176 339.679 105.176H338.127V104.072H339.567C340.143 104.072 340.596 103.971 340.927 103.768C341.257 103.565 341.423 103.288 341.423 102.936C341.423 102.552 341.225 102.253 340.831 102.04C340.447 101.827 339.924 101.72 339.263 101.72C338.42 101.72 337.529 101.939 336.591 102.376L336.175 101.192C337.209 100.669 338.292 100.408 339.423 100.408C340.105 100.408 340.719 100.504 341.263 100.696C341.807 100.888 342.233 101.16 342.543 101.512C342.852 101.864 343.007 102.264 343.007 102.712C343.007 103.128 342.868 103.501 342.591 103.832C342.313 104.163 341.94 104.413 341.471 104.584ZM348.606 100.44C349.779 100.44 350.675 100.728 351.294 101.304C351.923 101.88 352.238 102.739 352.238 103.88V109H350.782V107.88C350.526 108.275 350.158 108.579 349.678 108.792C349.208 108.995 348.648 109.096 347.998 109.096C347.048 109.096 346.286 108.867 345.71 108.408C345.144 107.949 344.862 107.347 344.862 106.6C344.862 105.853 345.134 105.256 345.678 104.808C346.222 104.349 347.086 104.12 348.27 104.12H350.702V103.816C350.702 103.155 350.51 102.648 350.126 102.296C349.742 101.944 349.176 101.768 348.43 101.768C347.928 101.768 347.438 101.853 346.958 102.024C346.478 102.184 346.072 102.403 345.742 102.68L345.102 101.528C345.539 101.176 346.062 100.909 346.67 100.728C347.278 100.536 347.923 100.44 348.606 100.44ZM348.254 107.912C348.84 107.912 349.347 107.784 349.774 107.528C350.2 107.261 350.51 106.888 350.702 106.408V105.224H348.334C347.032 105.224 346.382 105.661 346.382 106.536C346.382 106.963 346.547 107.299 346.878 107.544C347.208 107.789 347.667 107.912 348.254 107.912Z" fill="black"/>
<path d="M1 65L233.5 13.5L414 65L513 30.5" stroke="black" stroke-width="3"/>
<path d="M99.9732 23.3004L97.6452 23.8587L98.3672 26.8694L96.6693 27.2765L95.9473 24.2659L89.1384 25.8988L88.8445 24.6735L93.1883 15.1541L95.0787 14.7007L90.9303 23.8772L95.6388 22.748L95.0008 20.0874L96.6461 19.6928L97.2842 22.3534L99.6122 21.7951L99.9732 23.3004ZM106.784 24.9989C105.816 25.2312 104.893 25.1932 104.017 24.885C103.15 24.5624 102.387 23.9802 101.729 23.1385C101.07 22.2969 100.586 21.2284 100.275 19.9331C99.9646 18.6379 99.9118 17.4659 100.117 16.4171C100.322 15.3684 100.739 14.5094 101.368 13.8402C102.007 13.1565 102.81 12.6985 103.779 12.4663C104.735 12.2368 105.647 12.2834 106.515 12.6061C107.391 12.9143 108.158 13.4892 108.816 14.3309C109.475 15.1725 109.959 16.241 110.27 17.5363C110.58 18.8315 110.633 20.0035 110.428 21.0523C110.223 22.101 109.801 22.9672 109.163 23.6509C108.534 24.3201 107.741 24.7694 106.784 24.9989ZM106.41 23.4411C107.391 23.206 108.076 22.6159 108.466 21.6708C108.868 20.723 108.886 19.4847 108.519 17.956C108.153 16.4274 107.575 15.3318 106.787 14.6694C106.011 14.0041 105.132 13.789 104.152 14.0241C103.16 14.262 102.463 14.8549 102.061 15.8027C101.671 16.7478 101.659 17.9847 102.026 19.5134C102.392 21.042 102.964 22.139 103.74 22.8042C104.529 23.4667 105.419 23.679 106.41 23.4411ZM122.976 21.0788C122.031 21.3054 121.136 21.3041 120.291 21.0748C119.458 20.8427 118.746 20.4211 118.155 19.81C117.562 19.1873 117.156 18.4208 116.938 17.5106C116.719 16.6004 116.735 15.739 116.984 14.9265C117.231 14.1022 117.674 13.4036 118.314 12.8306C118.963 12.243 119.76 11.8359 120.705 11.6093C121.545 11.4078 122.333 11.3979 123.067 11.5796C123.814 11.7585 124.445 12.1254 124.96 12.6805L123.88 13.8096C123.482 13.4361 123.04 13.1903 122.555 13.0721C122.07 12.954 121.565 12.9578 121.04 13.0838C120.434 13.2293 119.917 13.495 119.492 13.8809C119.077 14.2641 118.791 14.7401 118.631 15.309C118.48 15.8635 118.482 16.4616 118.635 17.1034C118.792 17.7569 119.065 18.3023 119.454 18.7398C119.851 19.1627 120.321 19.451 120.864 19.6046C121.419 19.7555 121.999 19.7582 122.606 19.6126C123.131 19.4867 123.583 19.2611 123.962 18.9359C124.34 18.6106 124.622 18.1913 124.808 17.6779L126.278 18.1766C126.071 18.9052 125.676 19.5243 125.095 20.0338C124.523 20.529 123.816 20.8773 122.976 21.0788ZM137.377 7.70356L139.602 16.9805L138.079 17.3457L136.455 10.5718L134.362 17.1266L133.626 17.3029L128.819 12.3845L130.448 19.1759L128.907 19.5453L126.683 10.2683L128.415 9.85278L133.559 15.246L135.802 8.08135L137.377 7.70356Z" fill="#23262A"/>
<path d="M315.561 20.237L313.227 19.705L312.539 22.7236L310.836 22.3356L311.524 19.317L304.697 17.7611L304.977 16.5326L313.092 9.92664L314.988 10.3586L307.2 16.7438L311.921 17.8197L312.529 15.1521L314.179 15.5281L313.571 18.1957L315.905 18.7277L315.561 20.237ZM320.912 24.7797C319.941 24.5584 319.131 24.1153 318.483 23.4506C317.849 22.7769 317.423 21.9168 317.206 20.8704C316.989 19.8241 317.029 18.6515 317.325 17.3528C317.621 16.0541 318.093 14.9803 318.742 14.1312C319.391 13.2822 320.146 12.6973 321.007 12.3766C321.882 12.0468 322.805 11.9926 323.776 12.2139C324.735 12.4326 325.532 12.8788 326.166 13.5525C326.815 14.2172 327.248 15.0728 327.464 16.1191C327.681 17.1655 327.642 18.338 327.346 19.6367C327.05 20.9354 326.577 22.0093 325.928 22.8583C325.28 23.7074 324.518 24.2968 323.642 24.6265C322.782 24.9473 321.872 24.9983 320.912 24.7797ZM321.268 23.2177C322.251 23.4417 323.127 23.2167 323.896 22.5428C324.676 21.8714 325.241 20.7694 325.591 19.2367C325.94 17.7041 325.908 16.4661 325.496 15.5228C325.095 14.5821 324.403 13.9998 323.42 13.7758C322.426 13.5492 321.538 13.7715 320.757 14.4428C319.988 15.1168 319.429 16.2201 319.08 17.7528C318.73 19.2855 318.756 20.5222 319.157 21.4628C319.57 22.4061 320.274 22.9911 321.268 23.2177ZM337.163 28.4466C336.216 28.2306 335.414 27.8325 334.759 27.2524C334.115 26.6749 333.664 25.9813 333.405 25.1716C333.149 24.3502 333.125 23.4832 333.333 22.5706C333.541 21.658 333.937 20.8928 334.521 20.2751C335.108 19.6457 335.815 19.2161 336.643 18.9863C337.485 18.7475 338.38 18.736 339.327 18.952C340.17 19.144 340.88 19.4843 341.458 19.973C342.047 20.4642 342.45 21.073 342.666 21.7991L341.197 22.332C341.006 21.8207 340.719 21.4046 340.337 21.0837C339.955 20.7627 339.5 20.5422 338.974 20.4222C338.365 20.2836 337.785 20.2928 337.232 20.4499C336.691 20.6097 336.223 20.9091 335.827 21.3482C335.446 21.7783 335.182 22.3151 335.036 22.9586C334.886 23.6138 334.889 24.2236 335.043 24.788C335.212 25.3434 335.506 25.8103 335.924 26.1887C336.354 26.5698 336.873 26.8297 337.482 26.9684C338.008 27.0884 338.513 27.0865 338.997 26.9629C339.481 26.8393 339.919 26.5885 340.313 26.2105L341.41 27.3098C340.901 27.8707 340.273 28.2506 339.526 28.4496C338.793 28.6396 338.006 28.6386 337.163 28.4466ZM356.002 22.8447L353.883 32.1462L352.356 31.7982L353.904 25.0064L349.121 29.9533L348.384 29.7853L346.256 23.2449L344.704 30.0543L343.16 29.7024L345.279 20.4009L347.017 20.7968L349.235 27.9117L354.423 22.4848L356.002 22.8447Z" fill="#23262A"/>
<path d="M440.132 32.7316L440.617 34.2207L432.008 37.0243L431.629 35.8604L434.974 29.5652C435.381 28.8015 435.621 28.1808 435.693 27.7031C435.761 27.2141 435.726 26.7584 435.588 26.3363C435.384 25.7087 435.003 25.2962 434.447 25.0988C433.898 24.8863 433.213 24.9138 432.392 25.1814C431.068 25.6124 430.188 26.3786 429.752 27.4799L428.259 26.8491C428.541 26.1262 429.006 25.4824 429.655 24.9177C430.316 24.3492 431.114 23.9127 432.05 23.608C433.305 23.1992 434.401 23.1765 435.34 23.5397C436.275 23.8915 436.91 24.5808 437.244 25.6077C437.452 26.2467 437.512 26.896 437.424 27.5557C437.336 28.2154 437.029 29.0349 436.502 30.0141L433.988 34.7326L440.132 32.7316ZM446.913 32.3216C445.966 32.63 445.044 32.6653 444.146 32.4276C443.256 32.1748 442.45 31.655 441.727 30.8683C441.003 30.0815 440.436 29.0549 440.023 27.7884C439.611 26.5218 439.465 25.3577 439.586 24.296C439.707 23.2343 440.055 22.3449 440.629 21.6279C441.211 20.8957 441.976 20.3754 442.923 20.067C443.858 19.7623 444.771 19.7364 445.661 19.9892C446.559 20.2269 447.369 20.7391 448.093 21.5259C448.816 22.3126 449.383 23.3392 449.796 24.6058C450.208 25.8723 450.354 27.0364 450.233 28.0981C450.112 29.1598 449.76 30.0568 449.178 30.7889C448.604 31.506 447.849 32.0169 446.913 32.3216ZM446.417 30.7983C447.376 30.4862 448.012 29.8435 448.326 28.8705C448.652 27.8936 448.571 26.6579 448.084 25.1631C447.598 23.6684 446.935 22.6221 446.097 22.0243C445.27 21.4228 444.377 21.2781 443.419 21.5903C442.449 21.9061 441.801 22.5524 441.476 23.5293C441.162 24.5024 441.248 25.7363 441.735 27.231C442.221 28.7257 442.878 29.7739 443.705 30.3754C444.543 30.9732 445.448 31.1141 446.417 30.7983ZM462.743 27.1285C461.819 27.4295 460.927 27.4992 460.067 27.3377C459.218 27.1724 458.474 26.8087 457.837 26.2464C457.196 25.6728 456.73 24.9409 456.441 24.051C456.151 23.161 456.098 22.3011 456.282 21.4713C456.462 20.6301 456.849 19.8984 457.441 19.2764C458.041 18.6392 458.804 18.1702 459.728 17.8692C460.549 17.6016 461.334 17.5293 462.08 17.6521C462.838 17.7712 463.497 18.0869 464.055 18.5993L463.067 19.8106C462.641 19.4699 462.181 19.2599 461.688 19.1806C461.196 19.1013 460.692 19.1452 460.179 19.3124C459.586 19.5056 459.092 19.8115 458.698 20.23C458.316 20.6448 458.068 21.1421 457.954 21.7219C457.847 22.2866 457.896 22.8827 458.101 23.5103C458.309 24.1493 458.624 24.6713 459.046 25.0765C459.476 25.4666 459.968 25.7166 460.521 25.8267C461.086 25.9331 461.665 25.8897 462.258 25.6964C462.771 25.5292 463.204 25.2685 463.556 24.9142C463.907 24.5599 464.155 24.1195 464.299 23.593L465.805 23.9735C465.655 24.7162 465.311 25.3646 464.772 25.9188C464.241 26.4577 463.565 26.861 462.743 27.1285ZM476.037 12.6525L478.991 21.7236L477.502 22.2085L475.345 15.5849L473.779 22.2852L473.06 22.5193L467.878 17.9979L470.04 24.6387L468.534 25.1292L465.58 16.0581L467.274 15.5062L472.83 20.4742L474.497 13.1541L476.037 12.6525Z" fill="#23262A"/>
<line x1="2" y1="87" x2="513" y2="87" stroke="black" stroke-width="2"/>
</svg>
