<svg width="34" height="28" viewBox="0 0 34 28" fill="none" xmlns="http://www.w3.org/2000/svg">
<path d="M33.4138 0.517578H0.586207C0.262621 0.517578 0 0.779613 0 1.10379V26.8969C0 27.2211 0.262621 27.4831 0.586207 27.4831H33.4138C33.7374 27.4831 34 27.2211 34 26.8969V1.10379C34 0.779613 33.7374 0.517578 33.4138 0.517578ZM32.8276 26.3107H1.17241V1.68999H32.8276V26.3107Z" fill="black"/>
<path d="M9.3793 13.495C11.1795 13.495 12.6439 12.0306 12.6439 10.231C12.6439 8.43016 11.1795 6.96582 9.3793 6.96582C7.57906 6.96582 6.11472 8.43017 6.11472 10.2304C6.11472 12.0306 7.57906 13.495 9.3793 13.495ZM9.3793 8.13823C10.533 8.13823 11.4715 9.07734 11.4715 10.2304C11.4715 11.3835 10.533 12.3226 9.3793 12.3226C8.22565 12.3226 7.28713 11.3841 7.28713 10.231C7.28713 9.07792 8.22565 8.13823 9.3793 8.13823Z" fill="black"/>
<path d="M4.10345 23.9657C4.24063 23.9657 4.37897 23.9177 4.49035 23.8198L14.0531 15.4007L20.0922 21.4392C20.3215 21.6684 20.6919 21.6684 20.9211 21.4392C21.1503 21.21 21.1503 20.8395 20.9211 20.6103L18.1032 17.7924L23.4852 11.8987L30.0865 17.9501C30.3251 18.1687 30.6961 18.1523 30.9148 17.9137C31.1335 17.6752 31.1176 17.3041 30.8785 17.0854L23.844 10.6372C23.7291 10.5322 23.5761 10.48 23.4219 10.4836C23.2666 10.4906 23.12 10.5592 23.0151 10.6741L17.2738 16.9623L14.4934 14.1819C14.2741 13.9633 13.9236 13.9522 13.6915 14.1562L3.71597 22.9393C3.4727 23.1533 3.44925 23.5237 3.66321 23.767C3.77928 23.8989 3.94107 23.9657 4.10345 23.9657Z" fill="black"/>
</svg>
