<svg width="94" height="98" viewBox="0 0 94 98" fill="none" xmlns="http://www.w3.org/2000/svg">
<path d="M85.2755 94.0352C85.2755 94.5017 85.1347 94.9215 84.8533 95.248C84.525 95.6211 84.1497 95.8077 83.6806 95.8077H82.4611V98H81.1008V95.8077H79.8343C79.3653 95.8077 78.9431 95.6211 78.6617 95.248C78.3803 94.9215 78.1926 94.5017 78.1926 94.0352V92.2627H79.5529V94.0352C79.5529 94.3151 79.6467 94.455 79.8343 94.455H83.6806C83.8683 94.455 83.9621 94.3151 83.9621 94.0352V92.2627H85.3224V94.0352H85.2755Z" fill="black"/>
<path d="M76.1287 96.694C76.3164 96.694 76.4102 96.554 76.4102 96.2742C76.4102 95.9943 76.3164 95.8544 76.1287 95.8544H71.8603V96.694H76.1287ZM76.0349 94.455C76.2226 94.455 76.3164 94.3151 76.3164 94.0352C76.3164 93.7554 76.2226 93.6154 76.0349 93.6154H71.8603V94.455H76.0349ZM77.0669 95.1081C77.5359 95.3879 77.7705 95.8544 77.7705 96.4608C77.7705 96.8806 77.6297 97.2537 77.3483 97.5336C77.0669 97.8601 76.6447 98.0467 76.1287 98.0467H70.5V92.3094H76.0349C76.5509 92.3094 76.973 92.496 77.2545 92.8225C77.5359 93.1023 77.6766 93.4755 77.6766 93.8953C77.6766 94.4084 77.489 94.7815 77.0669 95.1081Z" fill="black"/>
<path d="M69.984 98H68.3423V96.694H69.984V98Z" fill="black"/>
<path d="M67.7794 98H63.3233C62.8073 98 62.3383 97.8134 61.963 97.4869C61.5878 97.1604 61.4001 96.6939 61.4001 96.1809V94.0819C61.4001 93.5688 61.5878 93.149 61.963 92.7758C62.3383 92.4493 62.7604 92.2627 63.3233 92.2627H67.8263V93.6154H63.3233C62.9481 93.6154 62.7604 93.7553 62.7604 94.0819V96.1809C62.7604 96.5074 62.9481 96.6473 63.3233 96.6473H66.466V95.8077H64.6367V94.455H67.8263V98H67.7794Z" fill="black"/>
<path d="M60.8373 98H59.4771L56.006 94.1285V98H54.6926V92.2627H56.006L59.4771 96.1342V92.2627H60.8373V98Z" fill="black"/>
<path d="M54.1297 98H52.7694V92.2627H54.1297V98Z" fill="black"/>
<path d="M52.2535 93.6154H49.6737V98H48.3134V93.6154H45.6866V92.2627H52.2535V93.6154Z" fill="black"/>
<path d="M45.2176 93.6154H42.5909V98H41.2306V93.6154H38.6508V92.2627H45.2176V93.6154Z" fill="black"/>
<path d="M38.0879 96.2275C38.0879 96.6939 37.9472 97.1137 37.6188 97.4869C37.2905 97.8601 36.9152 98 36.4462 98H32.5998C32.1308 98 31.7086 97.8134 31.4272 97.4869C31.1458 97.1137 30.9581 96.7406 30.9581 96.2275V92.2627H32.3184V96.2275C32.3184 96.5074 32.4122 96.6473 32.5998 96.6473H36.4462C36.6338 96.6473 36.7276 96.5074 36.7276 96.2275V92.2627H38.0879V96.2275Z" fill="black"/>
<path d="M30.3953 98H25.8923C25.3763 98 24.9072 97.8134 24.532 97.4869C24.1567 97.1604 23.9691 96.6939 23.9691 96.1809V94.0819C23.9691 93.5688 24.1567 93.149 24.532 92.7758C24.9072 92.4493 25.3294 92.2627 25.8923 92.2627H30.3953V93.6154H25.8923C25.517 93.6154 25.3294 93.7553 25.3294 94.0819V96.1809C25.3294 96.5074 25.517 96.6473 25.8923 96.6473H30.3953V98Z" fill="black"/>
<path fill-rule="evenodd" clip-rule="evenodd" d="M51.8782 2.00571L13.2275 68.5207L11.2106 69.5469L11.3982 67.6811L50.7056 0L51.8782 2.00571Z" fill="#E2001A"/>
<path fill-rule="evenodd" clip-rule="evenodd" d="M5.72256 64.1361L8.81836 70.2932L10.8353 66.4683L10.4132 70.713L14.3064 68.8006L11.492 71.9724L18.2465 72.7187L11.6327 73.6049L14.6816 76.6835L10.7415 75.0043L12.524 82.3274L9.24052 75.564L7.22355 79.3888L7.64571 75.1442L0 79.9019L6.56687 73.9314L0.60978 73.3251L6.42615 72.2989L3.37725 69.2204L7.31737 70.8996L5.72256 64.1361ZM8.81836 72.019C9.28743 71.8791 9.80339 72.159 9.99102 72.6254C10.1317 73.0918 9.8503 73.6049 9.38124 73.7915C8.91218 73.9314 8.39621 73.6516 8.20858 73.1851C8.06786 72.672 8.3493 72.159 8.81836 72.019ZM7.64571 69.3603L8.25549 72.019L6.23852 71.1794L7.78643 72.7653L5.39421 73.1851L8.11477 73.465L5.76946 75.6106L8.44311 73.9781L8.25549 76.1704L9.28743 74.1647L10.507 76.6368L9.8503 73.8848L11.8673 74.771L10.2725 73.1851L12.8523 72.812L10.1786 72.5321L11.5858 70.9462L9.66268 71.8791L9.8503 69.8267L8.81836 71.7858L7.64571 69.3603Z" fill="#E2001A"/>
<path fill-rule="evenodd" clip-rule="evenodd" d="M67.0758 28.3598L66.982 28.4998C62.4321 36.336 52.6756 42.3065 46.7185 50.5626C46.953 50.6559 47.1407 50.7492 47.3752 50.8425C51.4091 44.1257 62.2445 37.5488 67.3572 28.8729L67.0758 28.3598ZM51.6437 53.268C51.8313 53.4079 52.0189 53.5478 52.2534 53.6878C53.3792 51.2623 54.5518 47.624 55.7245 42.8663C55.3962 43.0995 55.2085 43.2861 54.974 43.4726C54.0359 47.2508 53.2385 50.1428 51.6437 53.268ZM65.1995 25.1414L62.948 29.0595C57.8822 37.7354 49.5329 42.4931 44.8892 50.516C47.8443 51.6354 50.5179 53.2213 53.0039 55.1804C55.959 50.0962 57.1317 44.4522 59.993 39.4146C61.5409 36.7092 65.6217 33.5374 67.7794 29.8058C67.7794 29.7592 67.8263 29.7125 67.8263 29.7125L65.1995 25.1414ZM62.4321 20.2903C61.4471 22.0162 60.4151 23.7887 59.477 25.3746C58.3043 27.4269 57.0848 31.3917 56.3812 33.8172C56.0528 34.9367 55.7714 35.5431 55.1616 36.5226C54.3642 37.8287 53.5199 39.0414 52.5818 40.2542C56.3812 36.5693 59.7115 32.4645 62.4321 27.7535C63.0888 26.5873 63.8862 25.2347 64.5898 24.0219L62.4321 20.2903Z" fill="#4B5762"/>
<path fill-rule="evenodd" clip-rule="evenodd" d="M69.0459 51.169C68.9052 50.9824 68.7645 50.8425 68.6238 50.7025L72.3763 44.2656L73.4082 43.6592C71.9541 46.178 70.5 48.6968 69.0459 51.169ZM65.3403 49.1633C65.2465 49.6297 65.7156 50.0495 65.997 50.0962C66.0908 49.9562 66.2784 49.723 66.9351 49.7696C67.7794 48.3237 68.1547 47.6706 68.999 46.2247C67.2635 47.3441 66.2315 47.7173 65.3403 49.1633ZM75.519 43.0995C73.7365 46.2247 71.9072 49.3032 70.1248 52.4284C69.9371 52.5217 69.7026 52.6616 69.515 52.7549C69.5619 52.2884 69.515 51.822 69.2804 51.4022L73.8772 43.426L75.2844 42.633L75.519 43.0995ZM66.7944 52.1485C66.2315 51.5421 66.0439 50.8425 66.4192 50.5626C66.7944 50.2827 67.5918 50.5626 68.1547 51.169C68.7176 51.7754 68.9052 52.475 68.5299 52.7549C68.1547 52.9881 67.3573 52.7082 66.7944 52.1485ZM63.0419 51.3089C62.1976 48.0438 64.3084 45.2918 68.2016 43.9857C65.7156 45.525 62.8074 47.3441 63.0419 51.3089ZM74.9561 42.1666C72.6108 43.5659 70.7814 44.5455 68.6238 45.8515C67.2166 46.7378 65.8094 47.4841 65.012 49.07C63.6048 51.822 65.1527 55.4136 70.2655 52.7549C70.6407 52.1019 70.9691 51.4955 71.3443 50.8425C71.5319 51.9153 71.485 53.0814 71.016 54.574C64.3084 57.326 59.3832 50.1894 68.1078 44.872L74.3463 41.0938L74.9561 42.1666ZM71.5319 36.2894C70.3593 38.9948 69.1397 42.0733 68.4361 43.8924C69.984 43.0528 72.2824 41.4669 74.0649 40.5807L71.5319 36.2894Z" fill="#4B5762"/>
<path fill-rule="evenodd" clip-rule="evenodd" d="M54.0359 5.78391C50.7056 11.5212 46.1088 19.4507 43.6227 23.742C43.3413 24.2085 43.0599 24.7215 42.8253 25.2346C45.4052 22.296 45.8273 25.5611 44.4671 30.3189C44.7954 30.1789 45.0299 30.0857 45.3114 29.9457L56.7096 10.3084L54.0359 5.78391ZM28.8473 50.4693C29.3633 50.8891 29.9261 51.2622 30.6297 51.682C31.5209 51.4488 32.2714 50.9357 32.975 50.5159C31.8962 50.2361 30.9112 49.8163 28.8473 50.4693ZM32.1307 55.1337C31.4271 54.0143 30.9581 52.9414 30.6766 51.9619C31.8024 51.7287 32.4591 51.1689 33.2096 50.6559C35.508 50.6559 36.7744 50.6092 39.2136 49.2565C38.0878 51.7753 36.7744 54.0609 33.1158 52.9414C32.7405 53.5945 32.4122 54.2941 32.1307 55.1337ZM44.3732 39.7411C43.1537 41.5602 40.7615 43.3327 40.011 45.0585C40.0579 45.6649 40.1986 46.5978 39.9641 47.6706C38.7445 49.723 36.4461 49.8163 34.8044 50.1428L38.8383 43.1927C40.8553 42.1666 42.7784 41.0471 44.3732 39.7411ZM33.0689 50.2827C32.0838 49.8629 30.4421 49.3498 28.472 50.2827C30.2076 47.7639 33.2565 46.0381 36.493 44.4055L33.0689 50.2827ZM47.7974 34.7035C46.5309 35.3098 45.2645 35.8696 43.998 36.4759C45.6397 33.9571 47.2345 31.485 48.9231 28.9662C50.002 28.4531 50.987 28.08 51.5499 28.3598C51.3623 29.1528 49.7675 31.6716 47.7974 34.7035ZM43.2944 37.129C44.5609 36.6159 45.8273 36.0561 47.0938 35.5431C46.9531 36.336 46.5309 37.1756 45.8273 38.0619C41.2774 41.4669 36.6806 42.8196 32.1307 46.3646C33.7255 41.4669 35.2265 37.5954 39.0259 34.5635C40.011 33.9105 40.996 33.2575 41.9341 32.6045C44.0449 31.2518 46.2495 30.1323 48.501 29.1061C46.7186 31.7649 44.983 34.4702 43.2944 37.129ZM43.5289 32.2779L38.3223 41.2803C40.2455 40.0676 42.1217 39.4145 44.0449 38.6682C42.9192 38.8082 41.981 39.0414 41.0898 39.3679L45.8742 31.0185L43.5289 32.2779ZM39.7295 33.0243C41.0898 32.1847 42.3563 31.3917 43.998 30.5987C46.2495 21.6897 43.0599 24.2085 41.1836 29.0128C40.7615 30.039 40.5269 31.1118 40.1048 32.0914C39.9641 32.4179 39.8233 32.7444 39.7295 33.0243ZM57.2724 11.3346L46.8124 29.3393C48.4541 28.4997 49.4391 28.1266 50.2365 27.8467L58.492 13.5735L57.2724 11.3346ZM58.8673 14.0866L51.0339 27.6135C51.4092 27.4736 51.7375 27.7534 51.7844 28.0333C53.3792 25.2813 56.5219 19.9172 59.3832 14.9262L58.8673 14.0866Z" fill="#4B5762"/>
<path fill-rule="evenodd" clip-rule="evenodd" d="M30.8174 71.4127H13.9312L16.1357 67.5412H33.0689L30.8174 71.4127Z" fill="#E2001A"/>
<path fill-rule="evenodd" clip-rule="evenodd" d="M37.3842 60.1713H20.451L22.7025 56.2998H39.5888L37.3842 60.1713Z" fill="#E2001A"/>
<path fill-rule="evenodd" clip-rule="evenodd" d="M27.1587 56.2998L18.3872 71.4127H13.9312L22.7026 56.2998H27.1587Z" fill="#E2001A"/>
<path fill-rule="evenodd" clip-rule="evenodd" d="M50.002 71.4127H33.0688L35.3203 67.5412H52.2535L50.002 71.4127Z" fill="#E2001A"/>
<path fill-rule="evenodd" clip-rule="evenodd" d="M56.522 60.1713H39.6357L41.8403 56.2998H58.7735L56.522 60.1713Z" fill="#E2001A"/>
<path fill-rule="evenodd" clip-rule="evenodd" d="M46.3433 56.2998L37.5718 71.4127H33.0688L41.8403 56.2998H46.3433Z" fill="#E2001A"/>
<path fill-rule="evenodd" clip-rule="evenodd" d="M39.5888 56.2998L36.2584 61.9905H31.7554L35.0858 56.2998H39.5888ZM34.1477 65.722L30.8173 71.4127H26.3143L29.6447 65.722H34.1477Z" fill="#E2001A"/>
<path fill-rule="evenodd" clip-rule="evenodd" d="M58.7735 56.2998L55.4431 61.9905H50.9401L54.2705 56.2998H58.7735ZM53.3324 65.722L50.002 71.4127H45.499L48.8294 65.722H53.3324Z" fill="#E2001A"/>
<path fill-rule="evenodd" clip-rule="evenodd" d="M63.2765 60.1713L56.7565 71.4127H52.2535L61.025 56.2998H65.528L72.048 67.5412L78.6148 56.2998H80.8663H83.0709L91.8893 71.4127H87.3863L80.8663 60.1713L74.2994 71.4127H72.048H69.8434L63.2765 60.1713Z" fill="#E2001A"/>
<path d="M91.0918 78.8291H90.2944V74.5845H91.0918V78.8291Z" fill="black"/>
<path d="M94 78.8291H92.8273L91.0449 76.6835L92.7335 74.5845H93.8593L92.1707 76.6835L94 78.8291Z" fill="black"/>
<path d="M89.9192 77.5231C89.9192 77.8962 89.8254 78.1761 89.6378 78.456C89.4502 78.7358 89.2156 78.8291 88.8873 78.8291H85.8384V77.8496H88.9342C89.028 77.8496 89.1218 77.7563 89.1218 77.5231C89.1218 77.2899 89.0749 77.1966 88.9342 77.1966H86.6827C86.4013 77.1966 86.1198 77.0566 85.9322 76.7768C85.7446 76.5435 85.6508 76.217 85.6508 75.8905C85.6508 75.5174 85.7446 75.2375 85.9322 74.9576C86.1198 74.6778 86.3543 74.5845 86.6827 74.5845H89.7785V75.564H86.6827C86.5889 75.564 86.4951 75.6573 86.4951 75.8905C86.4951 76.0771 86.542 76.217 86.6827 76.217H88.9342C89.2156 76.217 89.4971 76.357 89.6847 76.5902C89.8254 76.8234 89.9192 77.1499 89.9192 77.5231Z" fill="black"/>
<path d="M85.3223 78.8291H84.478L82.3673 75.9372V78.8291H81.5229V74.5845H82.3673L84.478 77.4298V74.5845H85.3223V78.8291Z" fill="black"/>
<path d="M81.1947 78.8291H80.3503V74.5845H81.1947V78.8291Z" fill="black"/>
<path d="M79.9751 78.8291H79.1777V76.217L77.6767 78.7358L76.1757 76.217V78.8291H75.3783V74.5845H76.2226L77.6767 77.01L79.1308 74.5845H79.9751V78.8291Z" fill="black"/>
<path d="M71.2505 78.8291H70.1247L68.3423 76.4502H70.5C70.6407 76.4502 70.7345 76.3103 70.7345 76.0304C70.7345 75.7506 70.6407 75.6106 70.5 75.6106H67.9201V78.8758H67.0758V74.6311H70.5469C70.8752 74.6311 71.1097 74.771 71.2974 75.0975C71.485 75.3774 71.5319 75.7039 71.5319 76.0771C71.5319 76.4502 71.4381 76.7767 71.2974 77.0566C71.1097 77.3365 70.8752 77.5231 70.5469 77.5231H70.2185L71.2505 78.8291Z" fill="black"/>
<path d="M66.7476 75.564H63.7456V76.1704H66.513V77.1966H63.7456V77.8029H66.7006V78.8291H62.9012V74.5845H66.7476V75.564Z" fill="black"/>
<path d="M62.5729 75.564H60.9781V78.8291H60.1337V75.564H58.5389V74.5845H62.5729V75.564Z" fill="black"/>
<path d="M58.2575 78.8291H57.4601L55.3024 75.9372V78.8291H54.4581V74.5845H55.3024L57.4601 77.4298V74.5845H58.2575V78.8291Z" fill="black"/>
<path d="M54.1297 75.564H51.1277V76.1704H53.9421V77.1966H51.1277V77.8029H54.1297V78.8291H50.3303V74.5845H54.1297V75.564Z" fill="black"/>
<path d="M49.9551 78.8291H47.1877C46.8593 78.8291 46.5779 78.6892 46.3434 78.456C46.1088 78.2227 46.015 77.8962 46.015 77.4764V75.9372C46.015 75.564 46.1088 75.2375 46.3434 74.9576C46.5779 74.7244 46.8593 74.5845 47.1877 74.5845H49.9551V75.564H47.1877C46.9531 75.564 46.8593 75.7039 46.8593 75.9372V77.4764C46.8593 77.7097 46.9531 77.8496 47.1877 77.8496H49.9551V78.8291Z" fill="black"/>
<path d="M42.2155 78.8291H39.448C39.1197 78.8291 38.8383 78.6892 38.6037 78.456C38.3692 78.2227 38.2754 77.8962 38.2754 77.4764V75.9372C38.2754 75.564 38.3692 75.2375 38.6037 74.9576C38.8383 74.7244 39.1197 74.5845 39.448 74.5845H42.2155V75.564H39.448C39.2135 75.564 39.1197 75.7039 39.1197 75.9372V77.4764C39.1197 77.7097 39.2135 77.8496 39.448 77.8496H41.3712V77.1966H40.2455V76.217H42.2155V78.8291Z" fill="black"/>
<path d="M37.9471 78.8291H37.1028L34.992 75.9372V78.8291H34.1477V74.5845H34.992L37.1028 77.4298V74.5845H37.9471V78.8291Z" fill="black"/>
<path d="M33.8194 78.8291H32.9751V74.5845H33.8194V78.8291Z" fill="black"/>
<path d="M32.5999 75.564H31.005V78.8291H30.1607V75.564H28.5659V74.5845H32.5999V75.564Z" fill="black"/>
<path d="M28.3313 75.564H26.6896V78.8291H25.8922V75.564H24.2505V74.5845H28.3313V75.564Z" fill="black"/>
<path d="M24.016 77.4764C24.016 77.8496 23.9222 78.1295 23.7346 78.4093C23.5469 78.6892 23.3124 78.7825 22.9841 78.7825H20.6387C20.3573 78.7825 20.0759 78.6426 19.8882 78.4093C19.7006 78.1295 19.6068 77.8496 19.6068 77.4764V74.5378H20.4511V77.4764C20.4511 77.7097 20.498 77.803 20.6387 77.803H22.9841C23.0779 77.803 23.1717 77.7097 23.1717 77.4764V74.5378H24.016V77.4764Z" fill="black"/>
<path d="M19.2785 78.8291H16.511C16.1827 78.8291 15.9013 78.6892 15.6667 78.456C15.4322 78.2227 15.3384 77.8962 15.3384 77.4764V75.9372C15.3384 75.564 15.4322 75.2375 15.6667 74.9576C15.9013 74.7244 16.1827 74.5845 16.511 74.5845H19.2785V75.564H16.511C16.2765 75.564 16.1827 75.7039 16.1827 75.9372V77.4764C16.1827 77.7097 16.2765 77.8496 16.511 77.8496H19.2785V78.8291Z" fill="black"/>
</svg>
