<svg width="108" height="109" viewBox="0 0 108 109" fill="none" xmlns="http://www.w3.org/2000/svg">
<g clip-path="url(#clip0)">
<g clip-path="url(#clip1)">
<path d="M52.9053 82.0662C51.5967 82.0662 50.7514 82.1819 50.251 82.2967V99.2602C50.7524 99.3761 51.5602 99.3761 52.2901 99.3761C57.5972 99.4135 61.0597 96.4916 61.0597 90.298C61.0973 84.9121 57.9439 82.0662 52.9053 82.0662Z" fill="#4E4E4E"/>
<path d="M30.2461 81.99C29.0544 81.99 28.2465 82.1048 27.8223 82.2195V89.8753C28.3231 89.99 28.939 90.0296 29.782 90.0296C32.9002 90.0296 34.8225 88.4518 34.8225 85.7979C34.8227 83.4134 33.1678 81.99 30.2461 81.99Z" fill="#4E4E4E"/>
<path d="M94.0184 26.1204C94.0121 25.6205 93.8536 25.1268 93.5103 24.7365L72.4934 0.731019C72.4892 0.724291 72.4811 0.722114 72.4767 0.715979C72.3515 0.576068 72.2076 0.460696 72.053 0.358979C72.0071 0.329295 71.959 0.302579 71.911 0.275468C71.7774 0.203039 71.6375 0.142879 71.4894 0.0989468C71.4518 0.087469 71.4142 0.0712417 71.3747 0.0609512C71.2161 0.0225599 71.0513 0 70.8863 0H19.2354C16.8789 0 14.9609 1.91818 14.9609 4.2747V104.725C14.9609 107.083 16.8789 109 19.2354 109H89.7647C92.1212 109 94.0394 107.083 94.0394 104.725V26.3598C94.0392 26.2795 94.0268 26.2007 94.0184 26.1204ZM38.2453 91.7975C36.2458 93.682 33.2837 94.5296 29.8212 94.5296C29.0529 94.5296 28.3585 94.49 27.822 94.4148V103.684H22.0139V78.1037C23.8208 77.7969 26.361 77.5652 29.9389 77.5652C33.5538 77.5652 36.1314 78.258 37.8618 79.6419C39.5168 80.9504 40.6293 83.1044 40.6293 85.6424C40.6293 88.1824 39.7851 90.3365 38.2453 91.7975ZM62.9802 100.608C60.2523 102.876 56.0979 103.953 51.0219 103.953C47.9825 103.953 45.8296 103.761 44.3654 103.569V78.1037C46.5198 77.7593 49.3291 77.5652 52.2902 77.5652C57.2112 77.5652 60.4046 78.4502 62.9062 80.3347C65.5995 82.3352 67.2923 85.5276 67.2923 90.1047C67.2901 95.0681 65.4826 98.4911 62.9802 100.608ZM86.9887 82.5662H77.0245V88.4895H86.3332V93.2607H77.0245V103.684H71.1409V77.7593H86.9887V82.5662ZM19.2354 72.5779V4.2747H68.749V26.1449C68.749 27.3246 69.705 28.2822 70.8863 28.2822H89.7647L89.7669 72.5779H19.2354Z" fill="#4E4E4E"/>
<path d="M76.4275 45.938C76.3022 45.9264 73.2905 45.6515 68.6675 45.6515C67.2191 45.6515 65.7602 45.6798 64.3199 45.734C55.1905 38.8829 47.7129 32.0265 43.7097 28.184C43.7827 27.7609 43.833 27.4265 43.8564 27.1696C44.3843 21.5959 43.7974 17.8332 42.1177 15.9856C41.0178 14.7783 39.4024 14.3766 37.7179 14.8367C36.6718 15.1108 34.7354 16.1256 34.1154 18.1914C33.4309 20.4743 34.5312 23.245 37.4218 26.458C37.4678 26.5067 38.4487 27.5345 40.2311 29.2762C39.0727 34.8 36.0402 46.7201 34.5688 52.4442C31.113 54.2907 28.2337 56.515 26.0046 59.0667L25.8585 59.2337L25.7641 59.4342C25.5346 59.9164 24.4373 62.4198 25.2611 64.4308C25.6373 65.3451 26.3422 66.013 27.2998 66.3636L27.5565 66.4327C27.5565 66.4327 27.788 66.4828 28.1951 66.4828C29.9781 66.4828 34.3792 65.5457 36.7399 56.8463L37.3118 54.6422C45.5519 50.637 55.8521 49.345 63.318 48.985C67.1583 51.8329 70.9798 54.449 74.6826 56.7658L74.8035 56.8358C74.983 56.9277 76.6067 57.7293 78.5083 57.7311C81.2258 57.7311 83.2107 56.0635 83.9496 53.1572L83.987 52.9585C84.1936 51.2976 83.7762 49.8005 82.7806 48.6302C80.6834 46.1648 76.7783 45.9499 76.4275 45.938ZM28.2616 63.2753C28.2449 63.2555 28.237 63.2369 28.2287 63.2159C28.0514 62.7891 28.2641 61.7537 28.5772 60.9952C29.9213 59.4924 31.5347 58.1128 33.3965 56.8709C31.5834 62.74 28.9467 63.2474 28.2616 63.2753ZM39.7734 24.2806C36.9891 21.1811 37.0308 19.6445 37.1806 19.1272C37.4264 18.2626 38.5358 17.9359 38.5453 17.9329C39.1041 17.7809 39.4433 17.8108 39.7453 18.1423C40.4282 18.8925 41.0148 21.1566 40.7831 25.3096C40.1257 24.649 39.7734 24.2806 39.7734 24.2806ZM38.3347 50.6742L38.3828 50.4906L38.3765 50.4928C39.7706 45.0323 41.7812 37.0368 42.9373 31.9008L42.9791 31.9406L42.9833 31.9161C46.7234 35.4382 52.4584 40.59 59.3251 45.9481L59.2479 45.9513L59.3615 46.037C52.8928 46.5834 45.1666 47.8586 38.3347 50.6742ZM80.8169 52.4656C80.3244 54.2755 79.3769 54.5229 78.5085 54.5229C77.5004 54.5229 76.53 54.1033 76.3087 54.002C73.7874 52.4216 71.2078 50.6995 68.6049 48.8572C68.6257 48.8572 68.6445 48.8572 68.6675 48.8572C73.1298 48.8572 76.1019 49.1281 76.2187 49.1364C76.9639 49.1641 79.3224 49.5124 80.3388 50.7073C80.7374 51.1757 80.89 51.7355 80.8169 52.4656Z" fill="#4E4E4E"/>
</g>
</g>
<defs>
<clipPath id="clip0">
<rect width="108" height="109" fill="white"/>
</clipPath>
<clipPath id="clip1">
<rect width="109" height="109" fill="white"/>
</clipPath>
</defs>
</svg>
