<svg width="90" height="91" viewBox="0 0 90 91" fill="none" xmlns="http://www.w3.org/2000/svg">
<g clip-path="url(#clip0)">
<path d="M56.152 24.9227C56.3973 24.5748 56.5921 24.1939 56.7298 23.7911C57.3473 23.8951 57.9361 24.1302 58.4547 24.481C59.4984 25.1863 60.7223 25.5775 61.9813 25.6097C62.3791 25.6082 62.7753 25.5716 63.1664 25.5013C64.8136 25.22 66.2822 24.2957 67.2475 22.9319C67.7646 22.1167 68.601 21.5572 69.551 21.3894C70.5017 21.2224 71.4787 21.462 72.2426 22.0516C73.6174 23.003 75.313 23.3692 76.9573 23.0696L76.4351 20.115C75.4851 20.2827 74.508 20.0425 73.7441 19.4536C70.8789 17.4929 66.9721 18.1821 64.9499 21.0042C64.4328 21.8194 63.5963 22.379 62.6457 22.5467C62.2128 22.6338 61.7653 22.6229 61.3361 22.5152C62.2238 22.2808 63.0448 21.845 63.7362 21.2415C65.0224 20.1743 65.8317 18.6392 65.9863 16.9751C66.0265 16.0105 66.4711 15.1081 67.2116 14.4885C67.9477 13.8616 68.916 13.5803 69.8725 13.7143C71.5403 13.8659 73.1977 13.3327 74.4641 12.2385L72.5312 9.9416C71.7834 10.5459 70.8247 10.8242 69.8696 10.7143C66.4081 10.4499 63.3686 12.9995 63.028 16.4551C62.9884 17.4182 62.5446 18.3206 61.8063 18.9409C61.0673 19.5606 60.1019 19.8418 59.1461 19.7144C58.2101 19.6419 57.2689 19.7671 56.3849 20.0835C55.9718 19.3672 55.369 18.7783 54.6432 18.3821L61.35 4.98454C61.5829 4.51798 61.5573 3.96426 61.2819 3.52115C61.0065 3.07876 60.5209 2.81069 60.0001 2.81362C58.9432 2.82314 57.9288 2.40053 57.192 1.64393C54.5435 -0.795781 50.4676 -0.795781 47.8199 1.64393C47.0757 2.39394 46.0628 2.81509 45.0066 2.81509C43.9497 2.81509 42.9375 2.39394 42.1934 1.64393C39.5427 -0.794316 35.466 -0.794316 32.8154 1.64393C32.0756 2.40126 31.0583 2.82387 29.9999 2.81362C29.4799 2.81362 28.9965 3.08242 28.7233 3.52481C28.4494 3.96646 28.4244 4.51944 28.6574 4.98454L35.3561 18.3821C34.2209 18.9878 33.4028 20.055 33.1135 21.3089C32.8241 22.5628 33.0915 23.8804 33.8473 24.9227C20.0938 28.617 10.5247 41.0727 10.4998 55.314V82.3142C10.5042 86.4546 13.8594 89.8091 17.9998 89.8143H72.0002C76.1399 89.8091 79.4951 86.4546 79.5003 82.3142V55.314C79.4746 41.0727 69.9055 28.617 56.152 24.9227ZM34.6889 3.9855C35.4338 3.2355 36.4467 2.81362 37.5044 2.81362C38.5612 2.81362 39.5749 3.2355 40.3198 3.9855C42.969 6.42302 47.045 6.42302 49.6949 3.9855C50.4383 3.2355 51.4498 2.81362 52.5059 2.81362C53.5614 2.81362 54.5736 3.2355 55.317 3.9855C56.0333 4.61759 56.858 5.11637 57.7516 5.45695L51.5728 17.8137H38.4265L32.2499 5.45842C33.1442 5.11711 33.9704 4.61832 34.6889 3.9855ZM37.5 23.8138C36.6709 23.8138 35.9999 23.1421 35.9999 22.3138C35.9999 21.4854 36.6709 20.8138 37.5 20.8138H52.5001C53.3284 20.8138 54.0001 21.4854 54.0001 22.3138C54.0001 23.1421 53.3284 23.8138 52.5001 23.8138H37.5ZM76.5003 82.3142C76.5003 84.7993 74.4853 86.8142 72.0002 86.8142H17.9998C15.514 86.8142 13.4998 84.7993 13.4998 82.3142V55.314C13.5166 39.5807 26.2667 26.8314 42 26.8138H48C63.7326 26.8314 76.4827 39.5807 76.5003 55.314V82.3142Z" fill="#23262A"/>
<path d="M34.9387 66.2528L52.9395 48.2527L55.0606 50.3738L37.0605 68.3747L34.9387 66.2528Z" fill="#144E8C"/>
<path d="M51 59.8141C48.5142 59.8141 46.5 61.829 46.5 64.3141C46.5 66.7992 48.5142 68.8142 51 68.8142C53.4852 68.8142 55.5001 66.7992 55.5001 64.3141C55.5001 61.829 53.4852 59.8141 51 59.8141ZM51 65.8141C50.1709 65.8141 49.5 65.1425 49.5 64.3141C49.5 63.4857 50.1709 62.8141 51 62.8141C51.8284 62.8141 52.5 63.4857 52.5 64.3141C52.5 65.1425 51.8284 65.8141 51 65.8141Z" fill="#144E8C"/>
<path d="M39 56.814C41.4851 56.814 43.5 54.7991 43.5 52.314C43.5 49.8289 41.4851 47.814 39 47.814C36.5141 47.814 34.4999 49.8289 34.4999 52.314C34.4999 54.7991 36.5141 56.814 39 56.814ZM39 50.814C39.8284 50.814 40.5 51.4856 40.5 52.314C40.5 53.1424 39.8284 53.814 39 53.814C38.1709 53.814 37.5 53.1424 37.5 52.314C37.5 51.4856 38.1709 50.814 39 50.814Z" fill="#144E8C"/>
<path d="M45 37.3139C33.4013 37.3139 23.9998 46.7161 23.9998 58.3141C23.9998 69.912 33.4013 79.3142 45 79.3142C56.598 79.3142 66.0001 69.912 66.0001 58.3141C65.9877 46.7212 56.5928 37.3264 45 37.3139ZM45 76.3142C35.0587 76.3142 26.9998 68.2553 26.9998 58.3141C26.9998 48.3728 35.0587 40.3139 45 40.3139C54.9405 40.3139 63.0001 48.3728 63.0001 58.3141C62.9891 68.2509 54.9361 76.3032 45 76.3142Z" fill="#144E8C"/>
</g>
<defs>
<clipPath id="clip0">
<rect width="90" height="90" fill="white" transform="translate(0 0.00183105)"/>
</clipPath>
</defs>
</svg>
