<svg width="90" height="91" viewBox="0 0 90 91" fill="none" xmlns="http://www.w3.org/2000/svg">
<path d="M21.0001 59.2513C16.0365 59.2513 12.0001 63.2878 12.0001 68.2513C12.0001 73.2148 16.0365 77.2513 21.0001 77.2513C25.9636 77.2513 30.0001 73.2148 30.0001 68.2513C30.0001 63.2878 25.9634 59.2513 21.0001 59.2513ZM21.0001 74.2512C17.691 74.2512 15.0001 71.5602 15.0001 68.2513C15.0001 64.9422 17.6912 62.2513 21.0001 62.2513C24.309 62.2513 27 64.9424 27 68.2513C27 71.5602 24.309 74.2512 21.0001 74.2512Z" fill="#23262A"/>
<path d="M72 59.2513C67.0365 59.2513 63 63.2878 63 68.2513C63 73.2148 67.0365 77.2513 72 77.2513C76.9635 77.2513 81 73.2148 81 68.2513C81 63.2878 76.9635 59.2513 72 59.2513ZM72 74.2512C68.6909 74.2512 66.0001 71.5602 66.0001 68.2513C66.0001 64.9422 68.6911 62.2513 72 62.2513C75.3091 62.2513 77.9999 64.9424 77.9999 68.2513C77.9999 71.5602 75.3091 74.2512 72 74.2512Z" fill="#23262A"/>
<path d="M89.7615 50.9398L76.2615 29.9398C75.9855 29.5107 75.51 29.2512 74.9999 29.2512H58.5C57.6705 29.2512 57.0001 29.9232 57.0001 30.7512V68.2511C57.0001 69.0806 57.6705 69.751 58.5 69.751H64.4999V66.751H59.9999V32.2513H74.1809L86.9999 52.1923V66.7513H79.4999V69.7512H88.4999C89.3294 69.7512 89.9998 69.0808 89.9998 68.2513V51.7512C90 51.4647 89.9176 51.1812 89.7615 50.9398Z" fill="#23262A"/>
<path d="M66.0001 48.7512V38.2512H78.0001V35.2512H64.5001C63.6706 35.2512 63.0002 35.9232 63.0002 36.7511V50.2511C63.0002 51.0806 63.6706 51.751 64.5001 51.751H87.0001V48.751H66.0001V48.7512Z" fill="#144E8C"/>
<path d="M58.5 18.7513H1.49994C0.672012 18.7513 0 19.4233 0 20.2512V68.2513C0 69.0808 0.672012 69.7512 1.49994 69.7512H13.5V66.7512H3.00006V21.7512H57.0001V66.7512H28.4999V69.7512H58.5C59.3295 69.7512 59.9999 69.0808 59.9999 68.2513V20.2512C59.9999 19.4233 59.3295 18.7513 58.5 18.7513Z" fill="#23262A"/>
<path d="M10.4999 60.7512H1.49994V63.7513H10.4999V60.7512Z" fill="#23262A"/>
<path d="M57.0001 60.7512H31.5V63.7513H57.0001V60.7512Z" fill="#144E8C"/>
<path d="M88.4999 60.7512H82.4999V63.7513H88.4999V60.7512Z" fill="#144E8C"/>
<path d="M58.5 24.7512H5.99994V27.7513H58.5V24.7512Z" fill="#23262A"/>
<path d="M27 12.7512H5.99994V15.7512H27V12.7512Z" fill="#144E8C"/>
</svg>
