<svg width="90" height="91" viewBox="0 0 90 91" fill="none" xmlns="http://www.w3.org/2000/svg">
<g clip-path="url(#clip0)">
<path d="M87.3626 74.0048H13.5345C12.0781 74.0048 10.8978 75.1905 10.8978 76.6535V87.7773C10.8978 89.2403 12.0781 90.4261 13.5345 90.4261C14.9902 90.4261 16.1712 89.2403 16.1712 87.7773V79.3022H84.7259V87.7773C84.7259 89.2403 85.9062 90.4261 87.3626 90.4261C88.819 90.4261 89.9993 89.2403 89.9993 87.7773V76.6535C89.9993 75.1905 88.819 74.0048 87.3626 74.0048Z" fill="#144E8C"/>
<path d="M23.9742 55.5328C22.945 56.5667 22.945 58.2442 23.9742 59.2782L36.9827 72.3451C37.497 72.8625 38.172 73.1211 38.847 73.1211C39.5213 73.1211 40.1962 72.8625 40.7112 72.3451C41.7405 71.3112 41.7405 69.6337 40.7112 68.5997L27.7034 55.5328C26.6734 54.4981 25.0042 54.4981 23.9742 55.5328Z" fill="#144E8C"/>
<path d="M68.1839 61.8014L61.0648 68.9529C60.0348 69.9869 60.0348 71.6644 61.0648 72.6983C61.5798 73.2157 62.254 73.4743 62.929 73.4743C63.6033 73.4743 64.2783 73.2157 64.7933 72.6983L71.9124 65.5468C72.9424 64.5129 72.9424 62.8353 71.9124 61.8014C70.8831 60.7667 69.2132 60.7667 68.1839 61.8014Z" fill="#144E8C"/>
<path d="M16.5179 48.0247C15.4887 49.0593 15.4887 50.7361 16.5179 51.7708L17.287 52.5433C17.802 53.0606 18.4769 53.3193 19.1512 53.3193C19.8262 53.3193 20.5012 53.0606 21.0155 52.5433C22.0454 51.5093 22.0454 49.8318 21.0161 48.7979L20.2471 48.0253C19.2178 46.9907 17.5479 46.9907 16.5179 48.0247Z" fill="#144E8C"/>
<path d="M31.1126 32.1545C31.1126 32.5994 31.2231 33.0181 31.4161 33.3864C31.4181 33.3906 31.4188 33.394 31.4209 33.3981C31.423 33.4009 31.4243 33.4037 31.4257 33.4071C31.4291 33.4126 31.4319 33.4181 31.4346 33.4237C32.3657 35.1826 36.581 43.119 37.048 43.9971C37.5059 44.8593 38.4 45.398 39.3736 45.398H42.5377V61.4668C42.5377 62.9298 43.718 64.1155 45.1744 64.1155H47.8111V68.8832C47.8111 70.3462 48.9922 71.5319 50.4478 71.5319C51.9042 71.5319 53.0846 70.3462 53.0846 68.8832V64.1155H55.7213C57.1777 64.1155 58.358 62.9298 58.358 61.4668V45.398H61.52C62.4943 45.398 63.3897 44.8579 63.8477 43.9937C63.8477 43.9937 68.7195 34.8163 69.4624 33.423C69.4652 33.4181 69.4679 33.4133 69.47 33.4078L69.472 33.405C69.4947 33.3623 69.5126 33.3243 69.527 33.2892C69.6904 32.945 69.7845 32.5608 69.7845 32.1545V10.6117H76.9915C78.4472 10.6117 79.6282 9.42527 79.6282 7.96297V2.66555C79.6282 1.20256 78.4472 0.0168457 76.9915 0.0168457C75.5351 0.0168457 74.3548 1.20256 74.3548 2.66555V5.31426H2.63672C1.18034 5.31426 0 6.49997 0 7.96297C0 9.42527 1.18034 10.6117 2.63672 10.6117H31.1126V32.1545ZM53.0846 58.8181H47.8111V45.398H53.0846V58.8181ZM59.9366 40.1006H40.955C40.7373 39.6902 38.391 35.2702 38.1425 34.8032H62.7484C62.6948 34.9046 60.6246 38.8018 59.9366 40.1006ZM36.386 10.6117H64.511V29.5058H36.386V10.6117Z" fill="#23262A"/>
</g>
<defs>
<clipPath id="clip0">
<rect width="90" height="90.4092" fill="white" transform="translate(0 0.0168457)"/>
</clipPath>
</defs>
</svg>
