<svg width="99" height="99" viewBox="0 0 99 99" fill="none" xmlns="http://www.w3.org/2000/svg">
<rect width="99" height="99" fill="#EEEEEE"/>
<path d="M62.3906 60.833H55.148C55.0205 60.3823 54.8413 59.9535 54.6164 59.5532L59.7386 54.4309C60.3681 53.8019 60.3681 52.7818 59.7386 52.1524C59.1096 51.523 58.0896 51.523 57.4601 52.1524L52.3379 57.2742C51.9376 57.0493 51.5083 56.8706 51.058 56.743V23.6113C51.058 22.7213 50.3363 22 49.4467 22C48.5567 22 47.8354 22.7213 47.8354 23.6113V56.743C47.3847 56.8706 46.9554 57.0493 46.5551 57.2742L41.4324 52.152C40.8034 51.5226 39.7834 51.5226 39.1539 52.152C38.5245 52.781 38.5245 53.8011 39.1539 54.4305L44.2762 59.5532C44.0513 59.9535 43.8721 60.3823 43.745 60.833H36.502C35.6119 60.833 34.8906 61.5543 34.8906 62.4443C34.8906 63.3343 35.6119 64.0557 36.502 64.0557H43.745C43.8725 64.5063 44.0517 64.9352 44.2762 65.3355L39.1539 70.4582C38.5245 71.0876 38.5245 72.1077 39.1539 72.7367C39.4686 73.0514 39.8811 73.2088 40.2932 73.2088C40.7057 73.2088 41.1182 73.0514 41.4329 72.7367L46.5551 67.6144C46.9554 67.8393 47.3847 68.0185 47.8354 68.1457V75.3887C47.8354 76.2787 48.5567 77 49.4467 77C50.3363 77 51.058 76.2787 51.058 75.3887V68.1457C51.5087 68.0185 51.9376 67.8393 52.3379 67.6144L57.4601 72.7367C57.7748 73.0514 58.1873 73.2088 58.5994 73.2088C59.0119 73.2088 59.4244 73.0514 59.7386 72.7367C60.3681 72.1077 60.3681 71.0876 59.7386 70.4582L54.6164 65.3359C54.8413 64.9356 55.0205 64.5063 55.148 64.0557H62.3906C63.2806 64.0557 64.002 63.3343 64.002 62.4443C64.002 61.5543 63.2806 60.833 62.3906 60.833ZM46.7431 62.4443C46.7431 60.9539 47.9558 59.7412 49.4467 59.7412C50.9368 59.7412 52.149 60.953 52.1499 62.4431C52.1499 62.4435 52.1495 62.4439 52.1495 62.4443C52.1495 62.4448 52.1499 62.4452 52.1499 62.4456C52.149 63.9357 50.9363 65.1475 49.4467 65.1475C47.9558 65.1475 46.7431 63.9348 46.7431 62.4443Z" fill="#23262A"/>
</svg>
