<svg width="99" height="99" viewBox="0 0 99 99" fill="none" xmlns="http://www.w3.org/2000/svg">
<rect width="99" height="99" fill="#EEEEEE"/>
<path d="M76.6253 34.2062C76.6253 32.5995 76.003 31.0918 74.8725 29.9618L68.6631 23.7527C67.533 22.6227 66.0258 22 64.4191 22C62.8123 22 61.3051 22.6227 60.175 23.7527L45.4096 38.5186C45.4087 38.5191 45.4079 38.5199 45.4075 38.5203C45.4066 38.5211 45.4062 38.5216 45.4058 38.5224L42.3027 41.6251C41.1723 42.7551 40.55 44.2623 40.55 45.8691C40.55 47.4762 41.1727 48.9835 42.3027 50.1131L44.2682 52.0785L41.5789 54.7679L38.3718 51.5603C37.7428 50.9313 36.7223 50.9309 36.0932 51.5603C35.4638 52.1893 35.4638 53.2098 36.0932 53.8393L39.3004 57.0464L36.6115 59.7353L34.646 57.7698C34.017 57.1408 32.9965 57.1404 32.3675 57.7698C31.738 58.3992 31.738 59.4193 32.3675 60.0487L34.3325 62.0138L31.4888 64.8576C30.5988 64.3536 29.5896 64.0838 28.5393 64.0838C26.936 64.0838 25.4287 64.7082 24.2949 65.8416C23.1615 66.9754 22.5371 68.4826 22.5371 70.086C22.5371 71.6893 23.1615 73.1966 24.2949 74.3304C25.4287 75.4638 26.936 76.0882 28.5393 76.0882C30.1427 76.0882 31.6495 75.4638 32.7833 74.33C34.7291 72.3846 35.0555 69.4255 33.7661 67.1377L36.6111 64.2923L38.577 66.2578C38.8917 66.5725 39.3037 66.7299 39.7162 66.7299C40.1287 66.7299 40.5412 66.5725 40.8555 66.2578C41.4849 65.6288 41.4849 64.6087 40.8555 63.9793L38.89 62.0138L41.5789 59.3249L44.786 62.5325C45.1003 62.8467 45.5128 63.0041 45.9253 63.0041C46.3373 63.0041 46.7498 62.8467 47.0645 62.5325C47.694 61.903 47.694 60.8829 47.0645 60.2535L43.8574 57.0464L46.5467 54.3571L48.5118 56.3225C49.6817 57.4924 51.2188 58.0774 52.7558 58.0774C54.2929 58.0774 55.8299 57.4924 57.0002 56.3225L57.354 55.9684V75.3887C57.354 76.2787 58.0757 77 58.9653 77H67.747C68.637 77 69.3584 76.2787 69.3584 75.3887V43.964L74.8725 38.4498C76.003 37.3202 76.6253 35.8129 76.6253 34.2062ZM30.5048 72.0515C29.9799 72.5764 29.2816 72.8659 28.5393 72.8659C27.797 72.8659 27.0992 72.5768 26.5738 72.0515C26.0489 71.5265 25.7598 70.8287 25.7598 70.086C25.7598 69.3437 26.0489 68.6454 26.5742 68.1205C27.0992 67.5956 27.797 67.3064 28.5393 67.3064C29.2816 67.3064 29.9799 67.5956 30.5048 68.1205C31.5882 69.2044 31.5882 70.968 30.5048 72.0515ZM50.7907 54.0436L47.6868 50.9397C47.6868 50.9397 47.6864 50.9393 47.6864 50.9389C47.686 50.9389 47.6856 50.9384 47.6856 50.9384L44.5813 47.8341C44.0601 47.313 43.7727 46.6147 43.7727 45.8691C43.7727 45.123 44.0601 44.4256 44.5813 43.904L46.5467 41.9385L56.6868 52.0785L54.7217 54.0436C53.6378 55.1275 51.8746 55.1271 50.7907 54.0436ZM60.577 73.7773V52.079V52.0785C60.577 52.0781 60.577 52.0781 60.577 52.0781V41.7018C60.577 40.169 61.8237 38.9219 63.3566 38.9219C64.889 38.9219 66.1361 40.169 66.1361 41.7018V43.2964V43.2972V73.7773H60.577ZM72.594 36.1713L69.0273 39.738C68.2115 37.3903 65.9783 35.6992 63.3566 35.6992C60.0466 35.6992 57.3544 38.3919 57.3544 41.7018V48.1883L48.8257 39.66L62.454 26.0317C62.9752 25.5101 63.6734 25.2227 64.4191 25.2227C65.1647 25.2227 65.863 25.5101 66.3845 26.0317L72.594 32.2403C73.1156 32.7619 73.4026 33.4602 73.4026 34.2058C73.4026 34.9519 73.1152 35.6497 72.594 36.1713Z" fill="#23262A"/>
</svg>
