<svg width="99" height="99" viewBox="0 0 99 99" fill="none" xmlns="http://www.w3.org/2000/svg">
<rect width="99" height="99" fill="#EEEEEE"/>
<path d="M76.3887 67.0103H31.2715C30.3815 67.0103 29.6602 67.7316 29.6602 68.6216V75.3887C29.6602 76.2787 30.3815 77.0001 31.2715 77.0001C32.1611 77.0001 32.8828 76.2787 32.8828 75.3887V70.2329H74.7773V75.3887C74.7773 76.2787 75.4987 77.0001 76.3887 77.0001C77.2787 77.0001 78 76.2787 78 75.3887V68.6216C78 67.7316 77.2787 67.0103 76.3887 67.0103Z" fill="#23262A"/>
<path d="M37.6505 55.7729C37.0215 56.4019 37.0215 57.4224 37.6505 58.0514L45.6001 66.0006C45.9144 66.3153 46.3269 66.4727 46.7394 66.4727C47.1514 66.4727 47.5639 66.3153 47.8786 66.0006C48.5076 65.3716 48.5076 64.3511 47.8786 63.7221L39.9294 55.7729C39.3 55.1434 38.2799 55.1434 37.6505 55.7729Z" fill="#23262A"/>
<path d="M64.6684 59.5863L60.3178 63.9369C59.6883 64.5659 59.6883 65.5864 60.3178 66.2154C60.6325 66.5301 61.0445 66.6875 61.457 66.6875C61.8691 66.6875 62.2816 66.5301 62.5963 66.2154L66.9469 61.8648C67.5763 61.2358 67.5763 60.2153 66.9469 59.5863C66.3179 58.9569 65.2974 58.9569 64.6684 59.5863Z" fill="#23262A"/>
<path d="M33.0938 51.2051C32.4648 51.8345 32.4648 52.8546 33.0938 53.484L33.5638 53.954C33.8785 54.2687 34.291 54.4261 34.7031 54.4261C35.1155 54.4261 35.528 54.2687 35.8423 53.954C36.4717 53.325 36.4717 52.3045 35.8427 51.6755L35.3728 51.2055C34.7438 50.5761 33.7232 50.5761 33.0938 51.2051Z" fill="#23262A"/>
<path d="M42.0133 41.5508C42.0133 41.8214 42.0808 42.0761 42.1987 42.3002C42.2 42.3027 42.2004 42.3048 42.2017 42.3074C42.2029 42.309 42.2038 42.3107 42.2046 42.3128C42.2067 42.3162 42.2084 42.3195 42.2101 42.3229C42.7791 43.3929 45.3551 48.221 45.6404 48.7552C45.9203 49.2797 46.4666 49.6074 47.0617 49.6074H48.9953V59.3828C48.9953 60.2728 49.7166 60.9941 50.6066 60.9941H52.2179V63.8945C52.2179 64.7845 52.9397 65.5059 53.8292 65.5059C54.7192 65.5059 55.4406 64.7845 55.4406 63.8945V60.9941H57.0519C57.9419 60.9941 58.6632 60.2728 58.6632 59.3828V49.6074H60.5956C61.191 49.6074 61.7382 49.2789 62.0181 48.7531C62.0181 48.7531 64.9952 43.1701 65.4493 42.3225C65.4509 42.3195 65.4526 42.3166 65.4539 42.3132C65.4543 42.3128 65.4547 42.312 65.4551 42.3115C65.469 42.2855 65.4799 42.2625 65.4887 42.2411C65.5886 42.0317 65.6461 41.7979 65.6461 41.5508V28.4453H70.0504C70.9399 28.4453 71.6617 27.7236 71.6617 26.834V23.6113C71.6617 22.7213 70.9399 22 70.0504 22C69.1604 22 68.439 22.7213 68.439 23.6113V25.2227H24.6113C23.7213 25.2227 23 25.944 23 26.834C23 27.7236 23.7213 28.4453 24.6113 28.4453H42.0133V41.5508ZM55.4406 57.7715H52.2179V49.6074H55.4406V57.7715ZM59.6279 46.3848H48.028C47.895 46.1351 46.4612 43.4462 46.3093 43.1621H61.3463C61.3135 43.2238 60.0484 45.5946 59.6279 46.3848ZM45.2359 28.4453H62.4234V39.9395H45.2359V28.4453Z" fill="#23262A"/>
</svg>
