<svg width="108" height="109" viewBox="0 0 108 109" fill="none" xmlns="http://www.w3.org/2000/svg">
<g clip-path="url(#clip0)">
<path d="M93.1555 26.1204C93.1492 25.6205 92.9922 25.1268 92.652 24.7365L71.8279 0.731019C71.8238 0.724884 71.8175 0.722114 71.8114 0.715979C71.6873 0.576068 71.5447 0.460696 71.3916 0.358979C71.3461 0.329295 71.3004 0.302579 71.253 0.275468C71.1185 0.203039 70.9798 0.142879 70.8351 0.0989468C70.7959 0.087469 70.7608 0.0712417 70.7214 0.0609512C70.5624 0.0235493 70.401 0 70.2355 0H19.0585C16.7236 0 14.8232 1.91818 14.8232 4.2747V104.726C14.8232 107.083 16.7236 109 19.0585 109H88.9408C91.2776 109 93.1763 107.083 93.1763 104.726V26.3598C93.1761 26.2795 93.1637 26.2007 93.1555 26.1204ZM19.0585 72.5779V4.2747H68.1179V26.1449C68.1179 27.3246 69.0651 28.2822 70.2355 28.2822H88.9408L88.9429 72.5779H19.0585Z" fill="#4E4E4E"/>
<path d="M36.8281 96.0312C36.8281 95.1458 36.5156 94.4688 35.8906 94C35.2656 93.5208 34.1406 93.0208 32.5156 92.5C30.8906 91.9688 29.6042 91.4479 28.6562 90.9375C26.0729 89.5417 24.7812 87.6615 24.7812 85.2969C24.7812 84.0677 25.125 82.974 25.8125 82.0156C26.5104 81.0469 27.5052 80.2917 28.7969 79.75C30.099 79.2083 31.5573 78.9375 33.1719 78.9375C34.7969 78.9375 36.2448 79.2344 37.5156 79.8281C38.7865 80.4115 39.7708 81.2396 40.4688 82.3125C41.1771 83.3854 41.5312 84.6042 41.5312 85.9688H36.8438C36.8438 84.9271 36.5156 84.1198 35.8594 83.5469C35.2031 82.9635 34.2812 82.6719 33.0938 82.6719C31.9479 82.6719 31.0573 82.9167 30.4219 83.4062C29.7865 83.8854 29.4688 84.5208 29.4688 85.3125C29.4688 86.0521 29.8385 86.6719 30.5781 87.1719C31.3281 87.6719 32.4271 88.1406 33.875 88.5781C36.5417 89.3802 38.4844 90.375 39.7031 91.5625C40.9219 92.75 41.5312 94.2292 41.5312 96C41.5312 97.9688 40.7865 99.5156 39.2969 100.641C37.8073 101.755 35.8021 102.312 33.2812 102.312C31.5312 102.312 29.9375 101.995 28.5 101.359C27.0625 100.714 25.9635 99.8333 25.2031 98.7188C24.4531 97.6042 24.0781 96.3125 24.0781 94.8438H28.7812C28.7812 97.3542 30.2812 98.6094 33.2812 98.6094C34.3958 98.6094 35.2656 98.3854 35.8906 97.9375C36.5156 97.4792 36.8281 96.8438 36.8281 96.0312ZM61.8438 83.0469H54.875V102H50.1875V83.0469H43.3125V79.25H61.8438V83.0469ZM69.2188 98.2344H79.1719V102H64.5312V79.25H69.2188V98.2344Z" fill="white"/>
</g>
<defs>
<clipPath id="clip0">
<rect width="108" height="109" fill="white"/>
</clipPath>
</defs>
</svg>
