<svg width="14" height="12" viewBox="0 0 14 12" fill="none" xmlns="http://www.w3.org/2000/svg">
<path d="M14 1.65946C13.4847 1.88778 12.9318 2.04263 12.3509 2.11176C12.9441 1.75656 13.3981 1.19318 13.6133 0.52392C13.0569 0.852852 12.4428 1.0917 11.7884 1.22118C11.2643 0.662158 10.519 0.313965 9.69226 0.313965C8.10618 0.313965 6.82017 1.59998 6.82017 3.18518C6.82017 3.41001 6.84554 3.62959 6.89454 3.83957C4.508 3.7197 2.39178 2.5763 0.975425 0.838852C0.72784 1.26228 0.586993 1.75567 0.586993 2.28234C0.586993 3.27879 1.0944 4.158 1.86426 4.67239C1.39359 4.65665 0.950925 4.52718 0.563386 4.31196V4.34783C0.563386 5.73882 1.5537 6.89972 2.86682 7.16394C2.62624 7.22868 2.37254 7.26455 2.11009 7.26455C1.92463 7.26455 1.74529 7.24618 1.56944 7.21118C1.93511 8.35285 2.99543 9.18306 4.2517 9.20582C3.26925 9.97568 2.03048 10.4332 0.684994 10.4332C0.45317 10.4332 0.224824 10.4192 0 10.3939C1.27114 11.2101 2.78024 11.686 4.40218 11.686C9.6853 11.686 12.5731 7.31005 12.5731 3.51501L12.5635 3.14321C13.1278 2.74075 13.6159 2.2351 14 1.65946Z" fill="white"/>
</svg>
