<svg width="14" height="14" viewBox="0 0 14 14" fill="none" xmlns="http://www.w3.org/2000/svg">
<path d="M13.9933 11.0459C14.023 11.2732 13.9537 11.4708 13.7858 11.6387L11.8147 13.595C11.7257 13.6938 11.6097 13.7779 11.4664 13.847C11.3231 13.9161 11.1824 13.9606 11.0441 13.9803C11.0342 13.9803 11.0045 13.9829 10.9551 13.9878C10.9057 13.9927 10.8415 13.9953 10.7625 13.9953C10.5747 13.9953 10.2708 13.9632 9.8509 13.8989C9.43098 13.8347 8.91721 13.6765 8.30961 13.4246C7.70186 13.1727 7.01271 12.7947 6.24206 12.2908C5.4714 11.787 4.65129 11.0953 3.7818 10.2159C3.09016 9.53418 2.51709 8.88206 2.06259 8.25961C1.60808 7.63711 1.2425 7.06157 0.965847 6.53296C0.689168 6.00435 0.481676 5.52515 0.343349 5.09534C0.205021 4.66554 0.111156 4.29502 0.0617534 3.98378C0.0123507 3.67255 -0.00741041 3.428 0.00247014 3.25015C0.0123507 3.0723 0.0172909 2.9735 0.0172909 2.95374C0.037052 2.81541 0.0815145 2.67461 0.150678 2.53134C0.219842 2.38807 0.303827 2.27198 0.402632 2.18305L2.3738 0.211886C2.51213 0.0735583 2.67022 0.00439453 2.84807 0.00439453C2.97651 0.00439453 3.09014 0.0414466 3.18894 0.115551C3.28775 0.189655 3.37173 0.28105 3.4409 0.389736L5.02673 3.39836C5.11565 3.55645 5.14035 3.72936 5.10083 3.91709C5.06131 4.10482 4.97732 4.26291 4.84888 4.39135L4.12266 5.11757C4.10289 5.13734 4.0856 5.16945 4.07078 5.21391C4.05596 5.25837 4.04855 5.29542 4.04855 5.32507C4.08807 5.53256 4.177 5.76969 4.31533 6.03646C4.43389 6.2736 4.61668 6.5626 4.8637 6.90348C5.11071 7.24436 5.46147 7.63709 5.91597 8.08171C6.3606 8.53627 6.75582 8.88945 7.10164 9.14145C7.44739 9.39331 7.73649 9.57864 7.96868 9.69721C8.20087 9.81577 8.37872 9.88741 8.50221 9.91203L8.68742 9.94911C8.70718 9.94911 8.73936 9.94168 8.78378 9.92688C8.82824 9.91203 8.86035 9.89477 8.88014 9.87498L9.7249 9.01538C9.90285 8.85731 10.1102 8.77827 10.3474 8.77827C10.5154 8.77827 10.6487 8.80788 10.7475 8.86719H10.7623L13.6227 10.5568C13.8303 10.6853 13.9538 10.8483 13.9933 11.0459Z" fill="#010002"/>
</svg>
