<svg width="14" height="8" viewBox="0 0 14 8" fill="none" xmlns="http://www.w3.org/2000/svg">
<path d="M13.4198 6.45621C13.003 5.95625 12.5124 5.52956 12.0483 5.07646C11.6296 4.66805 11.6032 4.43113 11.9398 3.95975C12.3071 3.44528 12.7022 2.95055 13.0729 2.4384C13.4189 1.95977 13.7726 1.48245 13.9547 0.909366C14.0702 0.544771 13.9681 0.383728 13.5942 0.319891C13.5298 0.30872 13.4632 0.30814 13.3976 0.30814L11.1794 0.305528C10.9062 0.301466 10.7552 0.42058 10.6586 0.662724C10.5281 0.990033 10.3936 1.31705 10.2383 1.6329C9.8857 2.34903 9.49194 3.04123 8.9399 3.62736C8.81817 3.75663 8.68354 3.92 8.48013 3.85268C8.22565 3.75983 8.15064 3.34053 8.15485 3.19879L8.15268 0.638495C8.10335 0.272739 8.02225 0.109665 7.6591 0.0385742L5.35488 0.0390095C5.0473 0.0390095 4.89308 0.157833 4.72884 0.350214C4.63411 0.461348 4.60552 0.533455 4.80023 0.570306C5.18267 0.642848 5.39812 0.890361 5.45528 1.27382C5.54697 1.88651 5.54059 2.50166 5.48778 3.11681C5.47225 3.29643 5.44135 3.47561 5.37011 3.64332C5.25869 3.90694 5.07879 3.96062 4.84245 3.79842C4.62845 3.65159 4.47814 3.44441 4.33103 3.23636C3.7784 2.45552 3.33749 1.61346 2.97797 0.728592C2.87409 0.472955 2.69492 0.318005 2.42404 0.313798C1.75855 0.303207 1.0929 0.301466 0.427403 0.314378C0.0269715 0.321923 -0.0924324 0.516335 0.0706417 0.879334C0.79548 2.49165 1.60229 4.05913 2.65545 5.48705C3.19618 6.21986 3.81699 6.86679 4.61902 7.32526C5.52797 7.84495 6.50641 8.00135 7.53694 7.95318C8.01949 7.93055 8.16443 7.80505 8.18677 7.3241C8.20186 6.99505 8.23915 6.66788 8.40149 6.3722C8.5608 6.08203 8.80207 6.02676 9.0802 6.20724C9.21933 6.29763 9.33656 6.41268 9.44726 6.53397C9.71885 6.8311 9.98073 7.13723 10.2626 7.42435C10.6162 7.78416 11.0351 7.9967 11.5617 7.95332L13.6004 7.95376C13.9289 7.93229 14.0992 7.52954 13.9106 7.16291C13.7782 6.90611 13.6043 6.67746 13.4198 6.45621Z" fill="white"/>
</svg>
