<svg width="108" height="109" viewBox="0 0 108 109" fill="none" xmlns="http://www.w3.org/2000/svg">
<g clip-path="url(#clip0)">
<path d="M93.1555 26.1204C93.1492 25.6205 92.9922 25.1268 92.652 24.7365L71.8279 0.731019C71.8238 0.724884 71.8175 0.722114 71.8114 0.715979C71.6873 0.576068 71.5447 0.460696 71.3916 0.358979C71.3461 0.329295 71.3004 0.302579 71.253 0.275468C71.1185 0.203039 70.9798 0.142879 70.8351 0.0989468C70.7959 0.087469 70.7608 0.0712417 70.7214 0.0609512C70.5624 0.0235493 70.401 0 70.2355 0H19.0585C16.7236 0 14.8232 1.91818 14.8232 4.2747V104.726C14.8232 107.083 16.7236 109 19.0585 109H88.9408C91.2776 109 93.1763 107.083 93.1763 104.726V26.3598C93.1761 26.2795 93.1637 26.2007 93.1555 26.1204ZM19.0585 72.5779V4.2747H68.1179V26.1449C68.1179 27.3246 69.0651 28.2822 70.2355 28.2822H88.9408L88.9429 72.5779H19.0585Z" fill="#4E4E4E"/>
<path d="M37.875 97.3125H29.6562L28.0938 102H23.1094L31.5781 79.25H35.9219L44.4375 102H39.4531L37.875 97.3125ZM30.9219 93.5156H36.6094L33.75 85L30.9219 93.5156ZM54.9844 93.6719H51.25V102H46.5625V79.25H55.0156C57.7031 79.25 59.776 79.849 61.2344 81.0469C62.6927 82.2448 63.4219 83.9375 63.4219 86.125C63.4219 87.6771 63.0833 88.974 62.4062 90.0156C61.7396 91.0469 60.724 91.8698 59.3594 92.4844L64.2812 101.781V102H59.25L54.9844 93.6719ZM51.25 89.875H55.0312C56.2083 89.875 57.1198 89.5781 57.7656 88.9844C58.4115 88.3802 58.7344 87.5521 58.7344 86.5C58.7344 85.4271 58.4271 84.5833 57.8125 83.9688C57.2083 83.3542 56.276 83.0469 55.0156 83.0469H51.25V89.875ZM83.3438 83.0469H76.375V102H71.6875V83.0469H64.8125V79.25H83.3438V83.0469Z" fill="white"/>
</g>
<defs>
<clipPath id="clip0">
<rect width="108" height="109" fill="white"/>
</clipPath>
</defs>
</svg>
