<svg width="109" height="109" viewBox="0 0 109 109" fill="none" xmlns="http://www.w3.org/2000/svg">
<g clip-path="url(#clip0)">
<path d="M34.3663 80.3809C33.1804 80.3809 32.4122 80.4854 31.958 80.592V95.9852C32.412 96.0888 33.1458 96.0888 33.808 96.0888C38.6255 96.1253 41.7661 93.4705 41.7661 87.8511C41.8017 82.9646 38.9398 80.3809 34.3663 80.3809Z" fill="#4E4E4E"/>
<path d="M94.4304 25.403C94.4245 24.9163 94.2711 24.4363 93.9374 24.0568L73.498 0.710899C73.4939 0.704933 73.4878 0.702816 73.4816 0.696658C73.3598 0.560213 73.2199 0.448017 73.0696 0.349676C73.0249 0.320232 72.9803 0.294251 72.9335 0.268464C72.8015 0.197451 72.6656 0.139524 72.5236 0.0968008C72.4851 0.0850616 72.4505 0.0692809 72.412 0.0592737C72.2557 0.0229012 72.0975 0 71.9351 0H21.7057C19.4142 0 17.5488 1.86577 17.5488 4.15705V101.843C17.5488 104.136 19.414 106 21.7057 106H90.2938C92.5874 106 94.4506 104.136 94.4506 101.843V25.6353C94.4506 25.5577 94.4385 25.4796 94.4304 25.403ZM43.5126 97.2061C41.0353 99.2672 37.265 100.244 32.6571 100.244C29.8987 100.244 27.9452 100.071 26.6171 99.8944V76.7862C28.5718 76.4715 31.12 76.297 33.8073 76.297C38.2758 76.297 41.1732 77.0987 43.443 78.8119C45.8861 80.6253 47.4222 83.5228 47.4222 87.6765C47.4231 92.1794 45.7823 95.2849 43.5126 97.2061ZM62.1519 100L60.0228 95.7416C59.1501 94.0997 58.5918 92.8767 57.9281 91.518H57.858C57.37 92.8778 56.7753 94.0997 56.0425 95.7416L54.0889 100H48.0136L54.8202 88.0978L48.2576 76.4705H54.3661L56.4247 80.7644C57.1234 82.1955 57.6471 83.3473 58.2052 84.6736H58.2752C58.8333 83.1758 59.2871 82.1264 59.8808 80.7644L61.8699 76.4705H67.9447L61.3117 87.9558L68.2927 100H62.1519ZM85.5363 80.8354H76.4957V86.212H84.9434V90.5394H76.4957V99.9999H71.1536V76.4713H85.535V80.8352H85.5363V80.8354ZM21.7057 70.5815V4.15782H69.8567V25.4269C69.8567 26.574 70.7862 27.5053 71.9351 27.5053H90.2938L90.2959 70.5815H21.7057V70.5815Z" fill="#4E4E4E"/>
<path d="M79.3659 60.9382C76.6917 54.592 74.0136 48.2459 71.3322 41.9025C69.8607 38.4221 68.377 34.9501 66.9075 31.4687C65.3061 27.6787 63.7076 23.8867 62.1275 20.0871C61.7824 19.2559 61.2649 18.682 60.3475 18.5359C60.3048 18.5282 46.6844 18.5856 46.657 18.5856C45.796 18.575 45.3043 19.0748 44.99 19.8034C44.5597 20.806 44.1441 21.8143 43.7236 22.819C42.157 26.5644 40.5913 30.3068 39.0273 34.051C37.0726 38.7284 35.1185 43.4049 33.1649 48.0823C32.9916 48.4949 32.792 48.9014 32.6505 49.3267C32.5749 49.553 32.5253 49.7691 32.4958 49.9771L32.4639 49.9427C32.4639 49.9427 32.4679 50.0143 32.476 50.1457C32.449 50.4511 32.4698 50.7358 32.5343 50.9958L35.763 59.9884C36.7358 63.1428 38.2022 62.1381 39.8773 61.4518C41.5539 60.7659 59.9436 52.9306 59.9436 52.9306L35.8286 52.6864L44.4945 51.9903L52.6423 32.3417L49.0133 20.7637L53.8197 31.0544C54.9265 33.6794 56.0261 36.3063 57.1338 38.9307C59.1239 43.6403 61.1202 48.3456 63.1062 53.059C64.7553 56.9703 64.9047 57.3153 66.5466 61.2307C70.8526 61.2307 75.1565 61.2307 79.4615 61.2307C78.9335 59.9417 79.9057 62.2229 79.3659 60.9382Z" fill="#4E4E4E"/>
</g>
<defs>
<clipPath id="clip0">
<rect width="109" height="109" fill="white"/>
</clipPath>
</defs>
</svg>
