<svg width="110" height="110" viewBox="0 0 110 110" fill="none" xmlns="http://www.w3.org/2000/svg">
<g clip-path="url(#clip0)">
<path d="M94.8814 26.3616C94.8753 25.8565 94.7151 25.3585 94.3686 24.9646L73.1579 0.737726C73.1537 0.731535 73.1473 0.729338 73.1401 0.722548C73.0147 0.581353 72.8683 0.464923 72.7135 0.362272C72.6672 0.332316 72.6207 0.305355 72.5723 0.277995C72.4353 0.204902 72.2941 0.144789 72.1458 0.100454C72.1058 0.0882714 72.0711 0.0718953 72.0309 0.0615104C71.87 0.0237654 71.7036 0 71.536 0H19.4124C17.0344 0 15.0986 1.93578 15.0986 4.31392V105.686C15.0986 108.065 17.0342 110 19.4124 110H90.5887C92.9688 110 94.9024 108.065 94.9024 105.686V26.6027C94.9024 26.5222 94.8898 26.4411 94.8814 26.3616ZM37.0327 99.4831C34.7832 101.354 31.3625 102.24 27.1794 102.24C24.6773 102.24 22.9011 102.082 21.6988 101.924V80.9497C23.4728 80.6631 25.7845 80.5052 28.2241 80.5052C32.2814 80.5052 34.9096 81.2349 36.969 82.7884C39.1874 84.4334 40.5797 87.0642 40.5797 90.8345C40.5797 94.923 39.0937 97.7433 37.0327 99.4831ZM63.6449 102.019H58.416L56.6076 92.8314C56.1968 90.6765 55.8483 88.6798 55.5957 86.2408H55.5325C55.1509 88.6503 54.8032 90.6765 54.2977 92.8314L52.2689 102.019H46.9782L41.9084 80.6643H47.0731L48.6885 89.4727C49.164 92.0076 49.6074 94.7626 49.9567 96.9163H50.0204C50.3699 94.6046 50.8755 92.0392 51.4147 89.4084L53.2203 80.6641H58.354L60.0641 89.6612C60.5393 92.1646 60.8877 94.4466 61.2059 96.8236H61.269C61.5849 94.4466 62.0588 91.9465 62.5044 89.4094L64.2475 80.6651H69.1583L63.6449 102.019ZM89.2387 101.035C87.7494 101.542 84.9313 102.238 82.111 102.238C78.2143 102.238 75.394 101.257 73.4309 99.3565C71.4657 97.5178 70.3873 94.731 70.4211 91.5948C70.4526 84.4987 75.6153 80.4418 82.6187 80.4418C85.3747 80.4418 87.4968 80.9789 88.5437 81.4865L87.5296 85.3517C86.3585 84.8462 84.8998 84.4332 82.5566 84.4332C78.5345 84.4332 75.4899 86.7145 75.4899 91.341C75.4899 95.7442 78.2483 98.3414 82.2081 98.3414C83.3171 98.3414 84.2048 98.216 84.5838 98.0254V93.5567H81.2882V89.7864H89.2395V101.035H89.2387V101.035ZM19.4124 73.2449V4.31472H69.3804V26.3864C69.3804 27.5768 70.345 28.5432 71.5372 28.5432H90.5887L90.5909 73.2449H19.4124V73.2449Z" fill="#4E4E4E"/>
<path d="M28.7323 84.2136C27.6561 84.2136 26.9583 84.3092 26.5459 84.4041V98.3751C26.9593 98.47 27.6243 98.47 28.2253 98.47C32.5985 98.5015 35.4477 96.0943 35.4477 90.9927C35.4809 86.5587 32.8837 84.2136 28.7323 84.2136Z" fill="#4E4E4E"/>
<path d="M91.4799 27.7797H47.4518V19.2318H38.9038V3.15918H36.747V19.2318H28.2016V27.7797H18.334V29.9366H28.2016V38.4819H36.747V76.0221H38.9038V38.4817H47.4518V29.9364H91.4799V27.7797ZM45.2947 36.3249H30.3585V21.3884H45.2947V36.3249Z" fill="#4E4E4E"/>
<path d="M37.8254 32.2808C39.7164 32.2808 41.2494 30.7478 41.2494 28.8568C41.2494 26.9657 39.7164 25.4327 37.8254 25.4327C35.9343 25.4327 34.4014 26.9657 34.4014 28.8568C34.4014 30.7478 35.9343 32.2808 37.8254 32.2808Z" fill="#4E4E4E"/>
</g>
<defs>
<clipPath id="clip0">
<rect width="110" height="110" fill="white"/>
</clipPath>
</defs>
</svg>
