<svg width="108" height="109" viewBox="0 0 108 109" fill="none" xmlns="http://www.w3.org/2000/svg">
<g clip-path="url(#clip0)">
<g clip-path="url(#clip1)">
<path d="M93.0184 26.1204C93.0123 25.6205 92.8536 25.1264 92.5103 24.7365L71.4924 0.731019C71.4882 0.724291 71.4819 0.722114 71.4748 0.715979C71.3505 0.576068 71.2054 0.460301 71.0521 0.358979C71.0061 0.328701 70.96 0.302184 70.9121 0.275468C70.7764 0.203039 70.6365 0.142879 70.4894 0.0989468C70.4499 0.087469 70.4154 0.0712417 70.3757 0.0603576C70.2162 0.0235493 70.0513 0 69.8853 0H18.2354C15.8791 0 13.9609 1.91818 13.9609 4.2747V104.725C13.9609 107.083 15.8789 109 18.2354 109H88.7647C91.1232 109 93.0392 107.083 93.0392 104.725V26.3598C93.0392 26.2795 93.0268 26.2007 93.0184 26.1204ZM41.0601 104.153H24.1396V77.6341H40.5086V82.5525H30.1599V88.0595H39.918V92.9394H30.1599V99.2342H41.0591V104.153H41.0601ZM61.7548 91.9948C59.7094 93.9221 56.6788 94.7883 53.1369 94.7883C52.3499 94.7883 51.6425 94.7487 51.0915 94.6703V104.152H45.149V77.9867C46.9977 77.6736 49.5966 77.437 53.2555 77.437C56.9543 77.437 59.5905 78.1444 61.3604 79.5615C63.0532 80.8983 64.1937 83.1015 64.1937 85.6988C64.1939 88.2964 63.3285 90.4991 61.7548 91.9948ZM74.5011 104.546C71.4706 104.546 68.4816 103.759 66.9853 102.933L68.2063 97.9746C69.8196 98.8 72.2972 99.6266 74.8562 99.6266C77.6091 99.6266 79.0658 98.4869 79.0658 96.7545C79.0658 95.1013 77.8052 94.156 74.6201 93.0163C70.2122 91.4823 67.3402 89.0424 67.3402 85.1865C67.3402 80.6626 71.118 77.1979 77.373 77.1979C80.3639 77.1979 82.5681 77.8292 84.1417 78.5359L82.8038 83.3759C81.7415 82.8646 79.8526 82.1164 77.2562 82.1164C74.6577 82.1164 73.4003 83.2968 73.4003 84.6743C73.4003 86.3669 74.8936 87.1142 78.3207 88.4123C83.0021 90.1447 85.205 92.5826 85.205 96.3208C85.204 100.769 81.7781 104.546 74.5011 104.546ZM18.2354 72.5779V4.2747H67.7492V26.1449C67.7492 27.3246 68.705 28.2822 69.8865 28.2822H88.7647L88.7669 72.5779H18.2354Z" fill="#4E4E4E"/>
<path d="M53.5708 81.9608C52.3494 81.9608 51.5234 82.0788 51.0918 82.1975V90.0275C51.6035 90.1443 52.2331 90.1841 53.0975 90.1841C56.2845 90.1841 58.2528 88.5707 58.2528 85.8552C58.253 83.4175 56.5602 81.9608 53.5708 81.9608Z" fill="#4E4E4E"/>
<path d="M71.479 52.8265L61.0736 40.4101V38.4482H59.4287L48.348 25.2249V22.4485H45.0002V25.7972H47.4355L55.7199 35.6836C53.0191 33.9168 49.8795 32.9297 46.5735 32.8759C42.7284 32.8023 39.028 34.027 35.9749 36.3109H33.4219V39.383H36.4942V37.2531C39.3698 35.0668 42.86 33.9214 46.5565 33.9433C50.8852 34.0142 54.9258 35.7663 57.9377 38.8762C57.9595 38.8998 57.9773 38.9253 58.0003 38.9489V41.5191H60.0081C63.6962 47.3781 63.2536 55.0758 58.76 60.4878H56.464V63.5601H59.5363V61.2246C63.7647 56.1715 64.656 49.2332 62.1661 43.3771L70.2265 52.9957V56.1755H73.5755V52.8261H71.479V52.8265ZM46.0689 23.5171H47.2794V24.7288H46.0689V23.5171ZM72.508 55.1053H71.2975V53.8936H72.508V55.1053Z" fill="#4E4E4E"/>
</g>
</g>
<defs>
<clipPath id="clip0">
<rect width="108" height="109" fill="white"/>
</clipPath>
<clipPath id="clip1">
<rect width="109" height="109" fill="white" transform="translate(-1)"/>
</clipPath>
</defs>
</svg>
