<svg width="25" height="26" viewBox="0 0 25 26" fill="none" xmlns="http://www.w3.org/2000/svg">
<path d="M22.5 0.5H2.5C1.125 0.5 0 1.625 0 3V23C0 24.375 1.125 25.5 2.5 25.5H22.5C23.875 25.5 25 24.375 25 23V3C25 1.625 23.875 0.5 22.5 0.5ZM12.5 8C15.25 8 17.5 10.25 17.5 13C17.5 15.75 15.25 18 12.5 18C9.75 18 7.5 15.75 7.5 13C7.5 10.25 9.75 8 12.5 8ZM3.125 23C2.75 23 2.5 22.75 2.5 22.375V11.75H5.125C5 12.125 5 12.625 5 13C5 17.125 8.375 20.5 12.5 20.5C16.625 20.5 20 17.125 20 13C20 12.625 20 12.125 19.875 11.75H22.5V22.375C22.5 22.75 22.25 23 21.875 23H3.125ZM22.5 6.125C22.5 6.5 22.25 6.75 21.875 6.75H19.375C19 6.75 18.75 6.5 18.75 6.125V3.625C18.75 3.25 19 3 19.375 3H21.875C22.25 3 22.5 3.25 22.5 3.625V6.125Z" fill="white"/>
</svg>
