<svg width="25" height="37" viewBox="0 0 25 37" fill="none" xmlns="http://www.w3.org/2000/svg">
<path d="M12.2178 0C5.48091 0 0 5.56907 0 12.4144C0 15.1652 1.59385 19.3486 5.01596 25.5798C7.35114 29.8315 9.67556 33.4228 9.77362 33.5741L11.4537 36.1616C11.623 36.4226 11.91 36.5796 12.2178 36.5796C12.5255 36.5796 12.8125 36.4226 12.9819 36.1616L14.6619 33.5742C14.759 33.4247 17.0665 29.8644 19.4196 25.5798C22.8417 19.3489 24.4355 15.1655 24.4355 12.4144C24.4355 5.56907 18.9546 0 12.2178 0ZM17.8209 24.6732C15.5005 28.898 13.2295 32.4023 13.1338 32.5496L12.2178 33.9604L11.3021 32.55C11.2058 32.4015 8.91738 28.8657 6.61463 24.6732C3.44035 18.8932 1.83083 14.7687 1.83083 12.4144C1.83083 6.59484 6.49036 1.8603 12.2178 1.8603C17.9452 1.8603 22.6047 6.59484 22.6047 12.4144C22.6047 14.769 20.9952 18.8933 17.8209 24.6732Z" fill="white"/>
<path d="M12.2178 5.45312C8.48253 5.45312 5.44373 8.54112 5.44373 12.3367C5.44373 16.1322 8.48253 19.2202 12.2178 19.2202C15.953 19.2202 18.9918 16.1322 18.9918 12.3367C18.9918 8.54112 15.953 5.45312 12.2178 5.45312ZM12.2178 17.3598C9.49204 17.3598 7.27455 15.1065 7.27455 12.3367C7.27455 9.56688 9.49204 7.31354 12.2178 7.31354C14.9436 7.31354 17.161 9.56688 17.161 12.3367C17.161 15.1065 14.9436 17.3598 12.2178 17.3598Z" fill="white"/>
</svg>
