<svg width="40" height="40" viewBox="0 0 40 40" fill="none" xmlns="http://www.w3.org/2000/svg">
<g clip-path="url(#clip0)">
<path d="M39.9925 15.2938C39.9883 15.2479 39.9792 15.2025 39.9651 15.1585C39.956 15.1192 39.9433 15.0809 39.9272 15.0438C39.9085 15.0077 39.8862 14.9734 39.8605 14.9418C39.8348 14.9042 39.8051 14.8696 39.7719 14.8384C39.7612 14.8291 39.7565 14.8164 39.7452 14.8071L33.3336 9.82755V4.66667C33.3336 3.56208 32.438 2.66657 31.3335 2.66657H24.1084L21.2155 0.42044C20.5009 -0.136932 19.4987 -0.136932 18.7841 0.42044L15.8906 2.66657H8.66552C7.56093 2.66657 6.66542 3.562 6.66542 4.66667V9.82763L0.255797 14.8072C0.244468 14.8166 0.23978 14.8292 0.229155 14.8385C0.19595 14.8696 0.166183 14.9043 0.140478 14.9419C0.114852 14.9735 0.0925071 15.0077 0.0738343 15.0439C0.0576616 15.0809 0.0450047 15.1193 0.0358636 15.1586C0.0219567 15.202 0.0128156 15.2467 0.00851847 15.292C0.00851847 15.306 0.000549316 15.318 0.000549316 15.332V38.0016C0.00148686 38.4257 0.138681 38.8382 0.391897 39.1783C0.395882 39.1843 0.396585 39.1917 0.401195 39.197C0.405882 39.2023 0.415883 39.2083 0.422524 39.2157C0.797074 39.7085 1.3796 39.9991 1.99862 40.0017H38.0004C38.6219 39.9999 39.2068 39.7079 39.5818 39.2124C39.5872 39.2058 39.5952 39.2037 39.5998 39.1971C39.6045 39.1904 39.6051 39.1844 39.6092 39.1784C39.8624 38.8382 39.9996 38.4257 40.0005 38.0017V15.3338C40.0005 15.3199 39.9932 15.3078 39.9925 15.2938ZM19.5994 1.47245C19.8323 1.28744 20.162 1.28744 20.3948 1.47245L21.9328 2.66649H18.066L19.5994 1.47245ZM2.1666 38.6684L19.5995 25.127C19.8325 24.9423 20.162 24.9423 20.3949 25.127L37.8324 38.6684H2.1666ZM38.6671 37.629L21.2155 24.0749C20.5007 23.518 19.4989 23.518 18.7841 24.0749L1.33187 37.629V16.3492L12.2571 24.833C12.5482 25.0587 12.9671 25.0057 13.1929 24.7146C13.4186 24.4235 13.3656 24.0046 13.0745 23.7789L1.97526 15.1605L6.6655 11.5156V16.6672C6.6655 17.0354 6.96403 17.3339 7.33217 17.3339C7.70039 17.3339 7.99884 17.0353 7.99884 16.6672V4.66659C7.99884 4.29837 8.2973 3.99992 8.66552 3.99992H31.3333C31.7015 3.99992 32 4.29837 32 4.66659V16.6672C32 17.0354 32.2984 17.3339 32.6667 17.3339C33.0349 17.3339 33.3333 17.0353 33.3333 16.6672V11.5156L38.0236 15.1605L26.905 23.7943C26.7138 23.9392 26.6151 24.1758 26.6468 24.4137C26.6785 24.6516 26.8357 24.8541 27.0582 24.9439C27.2808 25.0336 27.5345 24.9969 27.7224 24.8476L38.667 16.3492V37.629H38.6671Z" fill="#144E8C"/>
<path d="M27.9993 15.9985V13.3317C27.9993 8.9132 24.4174 5.3313 19.9989 5.3313C15.5804 5.3313 11.9985 8.9132 11.9985 13.3317C11.9985 17.7502 15.5804 21.3321 19.9989 21.3321C20.3672 21.3321 20.6656 21.0337 20.6656 20.6654C20.6656 20.2972 20.3672 19.9988 19.9989 19.9988C16.3169 19.9988 13.332 17.0138 13.332 13.3318C13.332 9.64972 16.3169 6.6648 19.9989 6.6648C23.681 6.6648 26.6659 9.64972 26.6659 13.3318V15.9986C26.6659 16.735 26.0689 17.332 25.3325 17.332C24.596 17.332 23.9991 16.735 23.9991 15.9986V13.3318C23.9991 12.9636 23.7006 12.6651 23.3324 12.6651C22.9642 12.6651 22.6657 12.9636 22.6657 13.3318C22.6657 14.8046 21.4717 15.9986 19.9989 15.9986C18.5261 15.9986 17.3322 14.8046 17.3322 13.3318C17.3322 11.859 18.5261 10.665 19.9989 10.665C20.3672 10.665 20.6656 10.3666 20.6656 9.99833C20.6656 9.63011 20.3672 9.33166 19.9989 9.33166C18.2086 9.32767 16.6336 10.5137 16.143 12.2356C15.6523 13.9574 16.3654 15.7955 17.8889 16.7359C19.4124 17.6762 21.3752 17.4898 22.6944 16.2794C22.8396 17.6893 24.065 18.7376 25.4804 18.6627C26.8959 18.5877 28.0038 17.4159 27.9993 15.9985Z" fill="#144E8C"/>
</g>
<defs>
<clipPath id="clip0">
<rect width="40" height="40" fill="white"/>
</clipPath>
</defs>
</svg>
