<svg width="40" height="40" viewBox="0 0 40 40" fill="none" xmlns="http://www.w3.org/2000/svg">
<g clip-path="url(#clip0)">
<path d="M38.6907 28.4423L33.0427 22.7943C32.1997 21.9513 31.079 21.4871 29.8868 21.4871C28.6947 21.4871 27.574 21.9513 26.7311 22.7943L24.7614 24.7638C24.7614 24.7639 24.7613 24.764 24.7612 24.764C24.7611 24.7641 24.7611 24.7642 24.761 24.7643L23.9742 25.551L14.4427 16.0195L17.1995 13.2628C18.9396 11.5226 18.9396 8.69121 17.1995 6.95106L11.5563 1.30793C9.81621 -0.43199 6.98481 -0.43199 5.24465 1.30793L3.75614 2.79637C-1.24676 7.79934 -1.24676 15.9397 3.75614 20.9427L9.24457 26.4311C9.54965 26.7361 10.0443 26.7361 10.3495 26.4311C10.6546 26.1261 10.6546 25.6314 10.3495 25.3262L4.86106 19.8378C0.81762 15.7944 0.49551 9.41746 3.89434 5.00192L9.82723 10.9349C9.97981 11.0874 10.1797 11.1637 10.3797 11.1637C10.5796 11.1637 10.7796 11.0874 10.9321 10.9349C11.2372 10.6298 11.2372 10.1351 10.9321 9.82996L4.93223 3.83004L6.34949 2.41278C7.48043 1.28199 9.32051 1.28184 10.4514 2.41278L16.0946 8.0559C17.2255 9.18684 17.2255 11.0269 16.0946 12.1579L12.7854 15.467C12.6389 15.6136 12.5565 15.8122 12.5565 16.0194C12.5565 16.2266 12.6389 16.4253 12.7854 16.5718L23.4218 27.2082C23.7269 27.5134 24.2216 27.5133 24.5266 27.2082L25.3136 26.4213L34.9972 36.1049C33.037 37.618 30.6462 38.4382 28.1291 38.4382C25.1191 38.4382 22.2893 37.2661 20.1608 35.1376L14.5943 29.5711C14.2893 29.2661 13.7945 29.2661 13.4894 29.5711C13.1843 29.8761 13.1843 30.3708 13.4894 30.676L19.056 36.2425C21.4795 38.6661 24.7018 40.0007 28.1291 40.0007C31.5565 40.0007 34.7788 38.6661 37.2023 36.2425L38.6907 34.754C39.5337 33.9111 39.9979 32.7904 39.9979 31.5982C39.9979 30.4061 39.5337 29.2854 38.6907 28.4423ZM37.5859 33.6491L36.1686 35.0665L26.4186 25.3165L27.8359 23.8991C28.3837 23.3512 29.1121 23.0495 29.8868 23.0495C30.6616 23.0495 31.39 23.3512 31.9378 23.8991L37.5858 29.5472C38.1337 30.095 38.4354 30.8235 38.4354 31.5982C38.4354 32.3729 38.1338 33.1014 37.5859 33.6491Z" fill="#144E8C"/>
<path d="M32.9333 5.64337C32.8412 4.30368 31.7613 3.22391 30.4217 3.13157C29.6619 3.07993 28.938 3.33547 28.3833 3.85329C27.8364 4.36383 27.5226 5.08563 27.5226 5.83376C27.5226 6.26516 27.8724 6.61501 28.3039 6.61501C28.7354 6.61501 29.0851 6.26516 29.0851 5.83376C29.0851 5.51258 29.2145 5.21485 29.4495 4.99555C29.6841 4.77649 29.9908 4.66844 30.3143 4.69048C30.8798 4.72938 31.3357 5.18532 31.3746 5.75087C31.414 6.32266 31.0392 6.82798 30.4835 6.95235C29.875 7.08829 29.45 7.61735 29.45 8.23868V9.64587C29.45 10.0773 29.7998 10.4271 30.2312 10.4271C30.6627 10.4271 31.0125 10.0773 31.0125 9.64587V8.42813C32.223 8.06704 33.0218 6.92587 32.9333 5.64337Z" fill="#144E8C"/>
<path d="M30.7837 11.8734C30.6384 11.7281 30.4369 11.6453 30.2314 11.6453C30.0259 11.6453 29.8244 11.7282 29.679 11.8734C29.5337 12.0195 29.4501 12.2203 29.4501 12.4266C29.4501 12.632 29.5337 12.8336 29.679 12.9789C29.8244 13.1242 30.0259 13.2078 30.2314 13.2078C30.4369 13.2078 30.6384 13.1243 30.7837 12.9789C30.929 12.8335 31.0126 12.632 31.0126 12.4266C31.0126 12.2203 30.929 12.0195 30.7837 11.8734Z" fill="#144E8C"/>
<path d="M36.0908 0H24.372C22.2181 0 20.4658 1.75234 20.4658 3.90625V12.8104C20.4658 14.9643 22.2181 16.7166 24.372 16.7166H27.3349L29.6218 19.6946C29.7697 19.8872 29.9987 20 30.2415 20C30.2419 20 30.2424 20 30.2429 20C30.4861 19.9995 30.7153 19.8858 30.8628 19.6923L33.1309 16.7166H36.0907C38.2446 16.7166 39.9969 14.9643 39.9969 12.8104V3.90625C39.997 1.75234 38.2447 0 36.0908 0ZM38.4347 12.8104H38.4345C38.4345 14.1027 37.3831 15.1541 36.0908 15.1541H32.7442C32.5004 15.1541 32.2706 15.2679 32.1229 15.4618L30.2393 17.933L28.3397 15.4595C28.1918 15.267 27.9629 15.1541 27.7201 15.1541H24.3722C23.0798 15.1541 22.0284 14.1027 22.0284 12.8104V3.90625C22.0284 2.61391 23.0798 1.5625 24.3722 1.5625H36.0909C37.3833 1.5625 38.4347 2.61391 38.4347 3.90625V12.8104Z" fill="#144E8C"/>
</g>
<defs>
<clipPath id="clip0">
<rect width="40" height="40" fill="white"/>
</clipPath>
</defs>
</svg>
