<svg width="38" height="38" viewBox="0 0 38 38" fill="none" xmlns="http://www.w3.org/2000/svg">
<path d="M22.1668 1.89999H15.8335C15.4839 1.89999 15.2002 2.18373 15.2002 2.5333C15.2002 2.88287 15.4839 3.16661 15.8335 3.16661H22.1668C22.5164 3.16661 22.8001 2.88287 22.8001 2.5333C22.8001 2.18373 22.5164 1.89999 22.1668 1.89999Z" fill="#144E8C"/>
<path d="M26.6 1.89999H25.9667C25.6171 1.89999 25.3334 2.18373 25.3334 2.5333C25.3334 2.88287 25.6171 3.16661 25.9667 3.16661H26.6C26.9496 3.16661 27.2333 2.88287 27.2333 2.5333C27.2333 2.18373 26.9496 1.89999 26.6 1.89999Z" fill="#144E8C"/>
<path d="M19.7866 32.3H18.214C17.2507 32.3 16.4667 33.084 16.4667 34.0473V34.3533C16.4667 35.3165 17.2507 36.1 18.2134 36.1H19.786C20.7492 36.1 21.5333 35.3165 21.5333 34.3533V34.0473C21.5333 33.084 20.7492 32.3 19.7866 32.3ZM20.2667 34.3533C20.2667 34.618 20.0514 34.8333 19.7866 34.8333H18.214C17.9487 34.8333 17.7333 34.618 17.7333 34.3533V34.0473C17.7333 33.782 17.9486 33.5666 18.214 33.5666H19.786C20.0514 33.5666 20.2667 33.7819 20.2667 34.0473V34.3533Z" fill="#144E8C"/>
<path d="M27.4779 0H10.5229C9.26066 0 8.2334 1.02726 8.2334 2.2895V35.7105C8.2334 36.9727 9.26066 38 10.5229 38H27.4772C28.7394 38 29.7667 36.9727 29.7667 35.7112V2.2895C29.7668 1.02726 28.7395 0 27.4779 0ZM28.5001 35.7105C28.5001 36.2742 28.0416 36.7333 27.4779 36.7333H10.5229C9.95861 36.7333 9.50009 36.2741 9.50009 35.7111V2.2895C9.50009 1.72581 9.95861 1.26669 10.5229 1.26669H27.4772C28.0415 1.26669 28.5 1.72588 28.5 2.2895V35.7105H28.5001Z" fill="#144E8C"/>
<path d="M29.1332 3.79999H8.86659C8.51702 3.79999 8.23328 4.08373 8.23328 4.4333V31.0333C8.23328 31.3829 8.51702 31.6666 8.86659 31.6666H29.1333C29.4828 31.6666 29.7666 31.3829 29.7666 31.0333V4.4333C29.7666 4.08373 29.4828 3.79999 29.1332 3.79999ZM28.4999 30.4H9.49989V5.06668H28.4999V30.4Z" fill="#144E8C"/>
</svg>
