<svg width="45" height="45" viewBox="0 0 45 45" fill="none" xmlns="http://www.w3.org/2000/svg">
<path d="M24.6242 16.9921H19.5265V11.8945C19.5265 11.4255 19.1459 11.0449 18.6769 11.0449C18.208 11.0449 17.8273 11.4255 17.8273 11.8945V16.9921H12.7297C12.2607 16.9921 11.8801 17.3728 11.8801 17.8417C11.8801 18.3107 12.2607 18.6913 12.7297 18.6913H17.8273V23.7889C17.8273 24.2579 18.208 24.6385 18.6769 24.6385C19.1459 24.6385 19.5265 24.2579 19.5265 23.7889V18.6913H24.6242C25.0931 18.6913 25.4738 18.3107 25.4738 17.8417C25.4738 17.3728 25.0931 16.9921 24.6242 16.9921Z" fill="white"/>
<path d="M43.9278 43.5616L31.3036 30.4327C34.5236 27.2034 36.5185 22.7515 36.5185 17.8416C36.5185 8.00325 28.5152 0 18.6768 0C8.83845 0 0.835205 8.00325 0.835205 17.8416C0.835205 27.68 8.83845 35.6833 18.6768 35.6833C22.9954 35.6833 26.9588 34.1395 30.0479 31.578L42.7027 44.7392C42.8692 44.9133 43.0918 45 43.3153 45C43.5277 45 43.7392 44.921 43.9041 44.763C44.2422 44.4376 44.2524 43.8998 43.9278 43.5616ZM2.53441 17.8416C2.53441 8.94036 9.77556 1.6992 18.6768 1.6992C27.5781 1.6992 34.8193 8.94036 34.8193 17.8416C34.8193 26.7429 27.5781 33.9841 18.6768 33.9841C9.77556 33.9841 2.53441 26.7429 2.53441 17.8416Z" fill="white"/>
</svg>
