<svg width="109" height="109" viewBox="0 0 109 109" fill="none" xmlns="http://www.w3.org/2000/svg">
<g clip-path="url(#clip0)">
<path d="M57.7518 82.7161H57.685C57.3574 84.0236 57.0317 85.6924 56.6717 86.9677L55.3643 91.6439H60.2366L58.8634 86.9677C58.4708 85.6602 58.0794 84.0238 57.7518 82.7161Z" fill="#4E4E4E"/>
<path d="M94.0175 26.1204C94.0112 25.6205 93.8527 25.1268 93.5093 24.7365L72.4924 0.731019C72.4883 0.724884 72.4819 0.722114 72.4758 0.715979C72.3505 0.576068 72.2066 0.460696 72.0521 0.358979C72.0062 0.329295 71.9601 0.302579 71.9122 0.275468C71.7764 0.203039 71.6365 0.142879 71.4905 0.0989468C71.4509 0.087469 71.4155 0.0712417 71.3757 0.0609512C71.2152 0.0235493 71.0523 0 70.8853 0H19.2345C16.8779 0 14.96 1.91818 14.96 4.2747V104.725C14.96 107.083 16.8779 109 19.2345 109H89.7638C92.1223 109 94.0385 107.083 94.0385 104.725V26.3598C94.0383 26.2795 94.0258 26.2007 94.0175 26.1204ZM40.9127 101.029L40.5856 92.5926C40.4875 89.9428 40.3889 86.7382 40.3889 83.5333H40.2908C39.6037 86.3447 38.6878 89.4849 37.8383 92.0678L35.1558 100.668H31.267L28.9123 92.1335C28.1927 89.5494 27.4417 86.4104 26.9179 83.5333H26.8518C26.7214 86.5086 26.6232 89.9108 26.46 92.6564L26.0675 101.028H21.4576L22.8628 78.9877H29.501L31.6596 86.3449C32.3469 88.8966 33.034 91.6431 33.5234 94.2261H33.6215C34.2435 91.6754 34.9959 88.765 35.7151 86.3145L38.0694 78.9884H44.5771L45.7872 101.029H40.9127V101.029ZM62.6579 101.029L60.9568 95.3717H54.6471L53.0767 101.029H47.9099L54.6471 78.9884H61.1852L68.0196 101.029H62.6579ZM81.7867 101.029L79.7913 97.0405C78.973 95.5031 78.4504 94.3584 77.8294 93.0832H77.7647C77.3056 94.3584 76.7503 95.5033 76.0636 97.0405L74.2321 101.029H68.5415L74.9178 89.8771L68.771 78.9884H74.4929L76.4226 83.0126C77.077 84.3525 77.5662 85.4317 78.0912 86.6734H78.1571C78.6799 85.2676 79.1046 84.2867 79.6609 83.0126L81.5247 78.9884H87.2143L81.001 89.7457L87.5422 101.029H81.7867ZM19.2345 72.5779V4.2747H68.7481V26.1449C68.7481 27.3246 69.7041 28.2822 70.8853 28.2822H89.7638L89.766 72.5779H19.2345Z" fill="#4E4E4E"/>
<path d="M79.5275 38.6146C78.892 33.7389 75.3658 30.1299 70.5777 29.5516C63.788 28.7288 56.8421 28.6916 49.9952 29.0007C45.5014 29.2045 42.0338 31.8888 41.1488 36.6465C40.1114 42.2259 39.1754 47.9472 43.4614 52.7442C44.3667 53.7596 45.8208 54.4571 47.1556 54.884C55.4407 57.5534 63.0067 56.3492 69.8087 50.4478C66.3816 45.9135 62.3836 43.2898 56.4948 44.0553C51.7084 44.6782 47.6185 43.0226 44.0699 38.3025C47.6326 36.2232 50.8266 33.6767 54.4666 32.3625C64.9134 28.5909 75.6163 33.9393 77.0273 43.6108C77.597 47.5194 77.1243 51.6467 76.6661 55.6208C76.1965 59.6948 73.5875 62.3476 69.6116 63.3263C60.4094 65.5918 51.1262 66.1576 41.769 64.2343C37.6047 63.3764 34.3209 61.089 33.592 56.9407C32.4294 50.3334 31.0633 43.5312 31.5048 36.9287C32.1747 26.9155 35.212 24.2133 45.3756 22.7736C53.0271 21.6907 60.8038 21.5235 68.4993 20.7068C69.8372 20.5637 72.0265 20.7078 72.3115 18.4225C72.5984 16.1354 72.2353 15.8938 71.0687 16.1663C60.7205 17.6679 50.3475 19.0174 40.0336 20.7293C33.6037 21.796 29.9512 25.9612 28.6284 32.3423C26.7787 41.2608 27.2101 49.9768 30.4453 58.5284C32.3013 63.431 35.6246 66.514 40.8769 67.6002C50.7074 69.6364 60.4325 69.1155 70.1378 66.85C75.8128 65.5247 79.5508 61.8115 80.1093 56.2974C80.7006 50.4712 80.2894 44.4481 79.5275 38.6146ZM64.1943 49.9798L58.8607 52.0804L58.4556 48.5255L64.1943 49.9798Z" fill="#4E4E4E"/>
<path d="M57.9719 40.039L57.567 36.4821L52.2334 38.5839L57.9719 40.039Z" fill="#4E4E4E"/>
</g>
<defs>
<clipPath id="clip0">
<rect width="109" height="109" fill="white"/>
</clipPath>
</defs>
</svg>
