<svg width="90" height="91" viewBox="0 0 90 91" fill="none" xmlns="http://www.w3.org/2000/svg">
<g clip-path="url(#clip0)">
<path d="M73.2429 56.7397C72.426 56.7397 71.7632 56.0777 71.7632 55.26V54.6971C71.7632 52.9676 69.2955 51.2712 66.7814 51.2712H60.7321C59.9152 51.2712 59.2532 50.61 59.2532 49.7923C59.2532 48.9745 59.9152 48.3126 60.7321 48.3126H66.7814C70.5374 48.3126 74.7218 50.9351 74.7218 54.6971V55.26C74.7218 56.0777 74.0598 56.7397 73.2429 56.7397Z" fill="#144E8C"/>
<path d="M67.3266 38.6961C67.2859 38.6961 67.2453 38.6952 67.2047 38.6918C66.3895 38.6241 65.7833 37.9105 65.8511 37.0961L66.5909 28.0663C66.585 22.9694 62.6436 18.724 57.7989 18.724H50.2226C45.3771 18.724 41.4356 22.9694 41.4356 28.1873L42.1696 37.0961C42.2373 37.9105 41.6312 38.6241 40.816 38.6918C40.0067 38.7587 39.2889 38.1535 39.2211 37.3382L38.4821 28.3084C38.477 21.3381 43.7458 15.7654 50.2226 15.7654H57.7981C64.2757 15.7654 69.5444 21.3381 69.5444 28.1873L68.7995 37.3382C68.736 38.1111 68.0893 38.6961 67.3266 38.6961Z" fill="#144E8C"/>
<path d="M54.0107 52.7509C52.2567 52.7509 50.4892 52.469 48.8986 51.9348C48.124 51.6749 47.7067 50.8352 47.9674 50.0606C48.2281 49.2869 49.0662 48.8721 49.8399 49.1286C51.1309 49.562 52.5725 49.7923 54.0099 49.7923C57.363 49.7923 60.4655 48.5784 62.106 46.6237C64.3425 43.9572 65.8451 40.1512 65.8451 37.1545V31.1925C65.8451 30.4154 65.686 29.8964 65.3728 29.6543C64.2579 28.7858 60.7152 29.6857 57.5898 30.4788C54.7328 31.2043 51.7801 31.9552 49.1043 31.9552C45.7749 31.9552 43.5333 30.7574 42.1916 29.9337C42.1814 30.2647 42.1755 30.6769 42.1755 31.1925V37.1545C42.1755 39.3132 42.9797 41.9992 44.3273 44.339C44.7354 45.0475 44.4916 45.9516 43.7839 46.3588C43.0753 46.7676 42.1712 46.5247 41.7632 45.8153C40.1447 43.004 39.216 39.8473 39.216 37.1545V31.1925C39.216 28.6766 39.2728 27.2223 40.4435 26.5764C41.4873 25.9914 42.4751 26.6196 43.3454 27.1656C44.5017 27.8953 46.2498 28.9966 49.1043 28.9966C51.4094 28.9966 54.1809 28.2914 56.861 27.6108C61.1926 26.5112 64.93 25.5597 67.1894 27.3179C68.2611 28.1509 68.8037 29.4546 68.8037 31.1925V37.1545C68.8037 40.8521 67.065 45.3142 64.3722 48.525C62.1526 51.1713 58.278 52.7509 54.0107 52.7509Z" fill="#144E8C"/>
<path d="M67.5111 71.0756C66.8347 71.0756 66.2235 70.6075 66.0695 69.9201C65.8908 69.1227 66.3928 68.3312 67.1903 68.1534L84.7472 64.2222C85.399 64.107 85.9086 63.7828 86.2489 63.2978C86.5892 62.8127 86.7204 62.2244 86.618 61.6403C86.4825 60.8649 85.9382 60.213 85.2 59.9388C84.4331 59.6552 84.042 58.8044 84.3264 58.0375C84.6109 57.2714 85.465 56.8769 86.2269 57.1647C87.9487 57.8021 89.216 59.3216 89.5326 61.129C89.7721 62.4919 89.4657 63.8649 88.6708 64.9967C87.8768 66.1294 86.6882 66.8836 85.3253 67.1232L67.8362 71.0401C67.7278 71.0638 67.6186 71.0756 67.5111 71.0756Z" fill="#23262A"/>
<path d="M47.4959 79.38H36.2575C36.1499 79.38 36.0424 79.369 35.9366 79.3453L22.6225 76.3867C21.8251 76.2089 21.3214 75.4183 21.4992 74.6217C21.6761 73.8243 22.465 73.3265 23.2633 73.4975L36.42 76.4214H47.4959C53.2692 76.4214 58.9324 74.4346 63.4419 70.8276C63.4816 70.7954 63.5231 70.7666 63.5655 70.7395L85.4625 56.6593C85.5336 56.6128 85.6081 56.5738 85.6851 56.5408C86.2311 56.3097 86.6535 55.8788 86.8762 55.3303C87.0988 54.78 87.0929 54.1756 86.8618 53.6313C86.3835 52.5037 85.0781 51.9764 83.9523 52.4546L61.9714 61.5167C61.7928 61.5903 61.6007 61.6276 61.4077 61.6276H33.2989C32.7655 61.6276 32.2737 61.3414 32.0113 60.8775C31.7489 60.4128 31.7565 59.8431 32.0308 59.3868L36.4691 51.9899C36.7357 51.5455 37.2174 51.272 37.7372 51.272H43.6552C46.4073 51.272 48.7267 49.3843 49.3853 46.8337H33.7831L13.6019 61.6343C12.9417 62.1177 12.0181 61.9721 11.5339 61.316C11.0514 60.6574 11.1936 59.7314 11.8522 59.2471L32.4244 44.1612C32.6775 43.975 32.9839 43.8751 33.2989 43.8751H51.0513C51.8682 43.8751 52.531 44.5371 52.531 45.3548C52.531 50.2494 48.549 54.2315 43.6544 54.2315H38.5752L35.9121 58.6698H61.1148L82.8112 49.7254C85.4261 48.614 88.471 49.8482 89.5859 52.4758C90.126 53.749 90.1387 55.1559 89.6198 56.4392C89.1186 57.6802 88.179 58.6597 86.9667 59.2116L65.2306 73.1877C60.2073 77.1807 53.9134 79.38 47.4959 79.38Z" fill="#23262A"/>
<path d="M16.0069 87.7521C15.9282 87.7521 15.8486 87.7462 15.7699 87.7335C15.3822 87.67 15.0359 87.4559 14.8065 87.1384L0.280198 66.9869C0.0499439 66.6695 -0.0440203 66.2716 0.019469 65.8847C0.0821117 65.4979 0.296282 65.1516 0.614575 64.9214L10.2142 58.0011C10.8787 57.5287 11.8022 57.6743 12.2797 58.3363L26.806 78.4861C27.2843 79.1489 27.1345 80.0733 26.4716 80.5516L16.8721 87.4736C16.6189 87.6556 16.315 87.7521 16.0069 87.7521ZM3.54524 66.457L16.3421 84.2069L23.5418 79.016L10.7449 61.2661L3.54524 66.457Z" fill="#23262A"/>
<path d="M19.9839 77.9011C19.9839 79.5349 18.6591 80.8597 17.0253 80.8597C15.3915 80.8597 14.0667 79.5349 14.0667 77.9011C14.0667 76.2665 15.3915 74.9417 17.0253 74.9417C18.6591 74.9417 19.9839 76.2665 19.9839 77.9011Z" fill="#23262A"/>
<path d="M54.0108 11.3272C53.193 11.3272 52.531 10.666 52.531 9.84828V3.93023C52.531 3.11249 53.193 2.45135 54.0108 2.45135C54.8276 2.45135 55.4896 3.11249 55.4896 3.93023V9.84828C55.4896 10.666 54.8276 11.3272 54.0108 11.3272Z" fill="#144E8C"/>
<path d="M59.9279 11.3271C59.5495 11.3271 59.1711 11.1832 58.8825 10.8937C58.3043 10.3163 58.3043 9.38009 58.8825 8.80191L64.0598 3.62373C64.638 3.0464 65.5742 3.0464 66.1516 3.62373C66.7297 4.20191 66.7297 5.13816 66.1516 5.71634L60.9742 10.8937C60.6847 11.1832 60.3072 11.3271 59.9279 11.3271Z" fill="#144E8C"/>
<path d="M48.0927 11.3271C47.7143 11.3271 47.3359 11.1832 47.0472 10.8937L42.6089 6.45536C42.0307 5.87803 42.0307 4.94178 42.6089 4.3636C43.1862 3.78627 44.1225 3.78627 44.7007 4.3636L49.139 8.80192C49.7163 9.3801 49.7163 10.3164 49.139 10.8937C48.8495 11.1832 48.4711 11.3271 48.0927 11.3271Z" fill="#144E8C"/>
</g>
<defs>
<clipPath id="clip0">
<rect width="90" height="90" fill="white" transform="translate(0 0.00183105)"/>
</clipPath>
</defs>
</svg>
