<svg width="100" height="101" viewBox="0 0 100 101" fill="none" xmlns="http://www.w3.org/2000/svg">
<g clip-path="url(#clip0)">
<path d="M77.8202 47.2881H42.7425V12.2104C42.7425 10.7929 41.6086 9.65894 40.1911 9.65894C18.0407 9.65894 0.010498 27.6892 0.010498 49.8395C0.010498 71.9899 18.0407 90.0201 40.1911 90.0201C62.3414 90.0201 80.3717 71.9899 80.3717 49.8395C80.3717 48.441 79.2188 47.2881 77.8202 47.2881ZM40.1911 84.9172C20.8568 84.9172 5.1134 69.1739 5.1134 49.8395C5.1134 31.3557 19.4771 16.1604 37.6396 14.8563V49.8395C37.6396 51.257 38.7736 52.391 40.1911 52.391H75.1743C73.8702 70.5535 58.6749 84.9172 40.1911 84.9172Z" fill="#23262A"/>
<path d="M90.0105 40.0495C89.9727 30.2973 86.4007 20.9042 79.9559 13.59C72.3204 4.95292 61.3587 0.0012207 49.8299 0.0012207C48.4124 0.0012207 47.2784 1.1352 47.2784 2.55267V40.1818C47.2784 41.5993 48.4124 42.7333 49.8299 42.7333H87.459C88.8765 42.7333 90.0105 41.5993 90.0105 40.1818C90.0105 40.144 90.0105 40.1062 90.0105 40.0495ZM52.3813 37.6493V5.21752C61.491 5.879 70.0336 10.0936 76.1193 16.992C81.2222 22.7564 84.2461 30.0138 84.8131 37.6493H52.3813Z" fill="#144E8C"/>
</g>
<defs>
<clipPath id="clip0">
<rect width="100" height="100" fill="white" transform="translate(0 0.0012207)"/>
</clipPath>
</defs>
</svg>
