<svg width="90" height="91" viewBox="0 0 90 91" fill="none" xmlns="http://www.w3.org/2000/svg">
<g clip-path="url(#clip0)">
<path d="M67.4999 9.37677C59.2157 9.37677 52.5 16.0925 52.5 24.3767C52.5 32.6609 59.2157 39.3768 67.4999 39.3768C75.7803 39.3675 82.4905 32.6572 82.4999 24.3769C82.4999 16.0925 75.7841 9.37677 67.4999 9.37677ZM67.4999 35.6269C61.2868 35.6269 56.2499 30.5901 56.2499 24.3769C56.2499 18.1637 61.2868 13.1269 67.4999 13.1269C73.7106 13.133 78.7438 18.1662 78.7499 24.3769C78.7499 30.5901 73.7131 35.6269 67.4999 35.6269Z" fill="#144E8C"/>
<path d="M71.7994 19.3012L65.6251 25.4755L63.2007 23.0512L60.5494 25.7025L64.2994 29.4524C64.6509 29.8041 65.1278 30.0017 65.6249 30.0017C66.1222 30.0015 66.5989 29.804 66.9505 29.4524L74.4506 21.9523L71.7994 19.3012Z" fill="#144E8C"/>
<path d="M63.7499 48.7518H37.5V52.5017H63.7499V48.7518Z" fill="#23262A"/>
<path d="M41.2501 22.5018H20.6249C13.3796 22.5101 7.50814 28.3815 7.49988 35.6269H11.25C11.2561 30.4517 15.4499 26.2581 20.6249 26.2519H41.2499C43.3209 26.2519 44.9998 27.9308 44.9998 30.0019C44.9998 32.0729 43.3209 33.7518 41.2499 33.7518H20.6249V37.5018H41.2499C45.392 37.5018 48.7499 34.144 48.7499 30.0017C48.7499 25.8594 45.3922 22.5018 41.2501 22.5018Z" fill="#23262A"/>
<path d="M1.87506 30.0019C0.839531 30.0019 0 30.8412 0 31.8768V33.7518H9.37494V30.0019H1.87506Z" fill="#23262A"/>
<path d="M86.2501 54.3768V80.6267C86.2501 83.7333 83.7316 86.2517 80.6251 86.2517H35.6251C32.5185 86.2517 30.0001 83.7333 30.0001 80.6267V35.6267H26.2501V80.6267C26.2563 85.8019 30.4501 89.9955 35.6251 90.0016H80.6251C85.8002 89.9955 89.9939 85.8017 90 80.6267V54.3768H86.2501Z" fill="#23262A"/>
<path d="M80.6251 0.00183105H43.1249C42.6277 0.00200684 42.1509 0.199585 41.7994 0.551147L26.7994 15.5511L29.4507 18.2024L43.9014 3.75177H80.6251C83.7316 3.75177 86.2501 6.27019 86.2501 9.37677V35.6267H90V9.37677C89.9939 4.20177 85.8001 0.0079834 80.6251 0.00183105Z" fill="#23262A"/>
<path d="M44.451 0.551658C43.7189 -0.180647 42.5317 -0.180823 41.7994 0.551306L26.7994 15.5512C26.4477 15.9028 26.2501 16.3797 26.2501 16.8768V24.3769H30.0001V17.6531L41.2501 6.40306V13.1269C41.2501 14.1624 40.4105 15.0019 39.375 15.0019H35.6251V18.7519H39.375C42.4816 18.7519 45 16.2335 45 13.1269V1.87687C44.9998 1.37976 44.8024 0.903045 44.451 0.551658Z" fill="#23262A"/>
<path d="M11.2499 50.6268H7.5C7.50826 57.8722 13.3797 63.7436 20.6251 63.7519V60.002C15.4499 59.9956 11.2561 55.802 11.2499 50.6268Z" fill="#23262A"/>
<path d="M28.1251 60.0018H20.625V63.7517H28.1251V60.0018Z" fill="#23262A"/>
<path d="M0 52.5019V54.377C0 55.4123 0.839531 56.2518 1.87506 56.2518H9.37512V52.5019H0Z" fill="#23262A"/>
<path d="M88.3724 41.0044C86.1742 38.907 82.7161 38.907 80.518 41.0044L54.5023 67.02C53.7704 67.7521 53.7704 68.939 54.5023 69.6713L59.7055 74.8745C60.057 75.2262 60.5339 75.4238 61.031 75.4238C61.5283 75.4236 62.005 75.226 62.3566 74.8745L88.3722 48.8588C88.3731 48.858 88.3742 48.8569 88.375 48.856C90.5426 46.6869 90.5414 43.1718 88.3724 41.0044ZM85.7213 46.2075L61.0312 70.8974L58.4794 68.3456L83.1694 43.6555C83.8833 42.9733 85.0074 42.9733 85.7213 43.6555C85.7216 43.6559 85.722 43.6562 85.7223 43.6566C86.4263 44.3613 86.426 45.5033 85.7213 46.2075Z" fill="#23262A"/>
<path d="M60.1875 71.8725L54.8175 74.5556L57.5063 69.18L54.1518 67.5018L48.9468 77.9137C48.8165 78.1742 48.7488 78.4614 48.749 78.7527C48.7496 79.7882 49.5894 80.6272 50.625 80.6269C50.915 80.6294 51.2017 80.5652 51.4631 80.4393L61.875 75.2269L60.1875 71.8725Z" fill="#23262A"/>
<path d="M76.668 47.513L74.016 50.1642L79.2177 55.3675L81.8697 52.7163L76.668 47.513Z" fill="#23262A"/>
<path d="M50.6251 76.8768H37.5V80.6267H50.6251V76.8768Z" fill="#23262A"/>
<path d="M48.75 67.5018H37.5V71.2518H48.75V67.5018Z" fill="#23262A"/>
<path d="M54.375 58.1269H37.5V61.8768H54.375V58.1269Z" fill="#23262A"/>
<path d="M78.75 76.8768H61.875V80.6267H78.75V76.8768Z" fill="#23262A"/>
<path d="M78.7501 67.5018H71.25V71.2518H78.7501V67.5018Z" fill="#23262A"/>
</g>
<defs>
<clipPath id="clip0">
<rect width="90" height="90" fill="white" transform="translate(0 0.00183105)"/>
</clipPath>
</defs>
</svg>
