<svg width="98" height="98" viewBox="0 0 98 98" fill="none" xmlns="http://www.w3.org/2000/svg">
<rect width="98" height="98" fill="#EEEEEE"/>
<g clip-path="url(#clip0)">
<path d="M74.4423 22H23.5577C22.6975 22 22 22.6975 22 23.5577V27.1923C22 29.769 24.0963 31.8654 26.6731 31.8654H39.1347V38.6154C39.1347 39.4757 39.8321 40.1731 40.6923 40.1731H43.2884V59.3847C43.2884 60.245 43.9859 60.9423 44.8461 60.9423H47.4422V74.4423C47.4422 75.3026 48.1397 76 48.9999 76C49.8601 76 50.5576 75.3025 50.5576 74.4423V60.9423H53.1537C54.0139 60.9423 54.7113 60.2449 54.7113 59.3847V40.1731H57.3075C58.1678 40.1731 58.8651 39.4756 58.8651 38.6154V31.8654H71.3267C73.9034 31.8654 75.9998 29.7691 75.9998 27.1923V23.5577C76 22.6975 75.3025 22 74.4423 22ZM51.5961 57.8269H46.4038V40.1731H51.5961V57.8269ZM55.75 37.0577H42.25V31.8653H55.75V37.0577ZM72.8847 27.1923C72.8847 28.0513 72.1859 28.75 71.327 28.75H26.6731C25.8142 28.75 25.1154 28.0513 25.1154 27.1923V25.1153H72.8847V27.1923Z" fill="black"/>
<path d="M74.442 66.1348H55.2305C54.3702 66.1348 53.6729 66.8322 53.6729 67.6924V74.4424C53.6729 75.3027 54.3703 76.0001 55.2305 76.0001H74.442C75.3024 76.0001 75.9997 75.3026 75.9997 74.4424V67.6924C75.9997 66.8321 75.3023 66.1348 74.442 66.1348ZM72.8844 72.8848H56.7882V69.2501H72.8843V72.8848H72.8844Z" fill="black"/>
<path d="M42.7692 66.1348H23.5577C22.6975 66.1348 22 66.8321 22 67.6924V74.4424C22 75.3026 22.6975 76.0001 23.5577 76.0001H42.7692C43.6295 76.0001 44.3269 75.3026 44.3269 74.4424V67.6924C44.3269 66.8321 43.6296 66.1348 42.7692 66.1348ZM41.2116 72.8848H25.1153V69.2501H41.2114V72.8848H41.2116Z" fill="black"/>
<path d="M62.5636 53.0909C61.9553 52.4827 60.969 52.4827 60.3607 53.0909L57.2453 56.2063C56.637 56.8145 56.637 57.8009 57.2453 58.4092C57.5495 58.7133 57.9482 58.8654 58.3468 58.8654C58.7455 58.8654 59.1442 58.7133 59.4482 58.4091L62.5636 55.2938C63.1719 54.6855 63.1719 53.6992 62.5636 53.0909Z" fill="black"/>
<path d="M62.5631 59.3214C61.9549 58.7132 60.9685 58.7132 60.3603 59.3215L58.2834 61.3984C57.6751 62.0066 57.6751 62.993 58.2834 63.6013C58.5875 63.9054 58.9861 64.0575 59.3848 64.0575C59.7835 64.0575 60.1822 63.9054 60.4862 63.6012L62.5631 61.5243C63.1715 60.9161 63.1715 59.9297 62.5631 59.3214Z" fill="black"/>
<path d="M40.755 56.2058L37.6397 53.0905C37.0314 52.4822 36.0451 52.4822 35.4367 53.0905C34.8284 53.6987 34.8284 54.685 35.4367 55.2934L38.5522 58.4087C38.8562 58.7129 39.2549 58.865 39.6536 58.865C40.0523 58.865 40.4509 58.7129 40.755 58.4087C41.3633 57.8005 41.3633 56.8141 40.755 56.2058Z" fill="black"/>
<path d="M39.7174 61.3988L37.6405 59.3219C37.0323 58.7137 36.046 58.7137 35.4376 59.3219C34.8294 59.9302 34.8294 60.9166 35.4377 61.5248L37.5146 63.6017C37.8187 63.9059 38.2173 64.058 38.616 64.058C39.0147 64.058 39.4134 63.9059 39.7174 63.6017C40.3258 62.9935 40.3258 62.0071 39.7174 61.3988Z" fill="black"/>
</g>
<defs>
<clipPath id="clip0">
<rect width="54" height="54" fill="white" transform="translate(22 22)"/>
</clipPath>
</defs>
</svg>
