<svg width="99" height="99" viewBox="0 0 99 99" fill="none" xmlns="http://www.w3.org/2000/svg">
<rect width="99" height="99" fill="#EEEEEE"/>
<path d="M47.8887 60.8867H51.1113V64.1094H47.8887V60.8867Z" fill="#23262A"/>
<path d="M41.4434 60.8867H44.666V64.1094H41.4434V60.8867Z" fill="#23262A"/>
<path d="M28.5527 60.8867H38.2207V64.1094H28.5527V60.8867Z" fill="#23262A"/>
<path d="M67.2246 22V25.2227H60.7793V22H38.2207V25.2227H31.7754V22H22V70.5547H25.2227V77H73.7773V70.5547H77C77 70.0393 77 25.2203 77 22H67.2246ZM41.4434 25.2227H57.5566V28.4453H41.4434V25.2227ZM47.8887 34.8906V31.668H51.1113V34.8906H47.8887ZM38.2207 28.4453V31.668H44.666V38.1133H47.8887V44.7734H51.1113V38.1133H54.334V31.668H60.7793V28.4453H67.2246V54.4414H64.002V47.9961H34.998V54.4414H31.7754V28.4453H38.2207ZM60.7793 54.4414H38.2207V51.2188H60.7793V54.4414ZM25.2227 25.2227H28.5527V54.4414H25.2227V25.2227ZM70.5547 73.7773H28.4453V70.5547H70.5547V73.7773ZM73.7773 67.332H25.2227V57.6641H73.7773V67.332ZM70.4473 54.4414V25.2227H73.7773V54.4414H70.4473Z" fill="#23262A"/>
</svg>
