<svg width="98" height="98" viewBox="0 0 98 98" fill="none" xmlns="http://www.w3.org/2000/svg">
<rect width="98" height="98" fill="#EEEEEE"/>
<path d="M74.418 66.1918H30.1211C29.2473 66.1918 28.5391 66.9 28.5391 67.7739V74.418C28.5391 75.2918 29.2473 76 30.1211 76C30.9945 76 31.7031 75.2918 31.7031 74.418V69.3559H72.8359V74.418C72.8359 75.2918 73.5441 76 74.418 76C75.2918 76 76 75.2918 76 74.418V67.7739C76 66.9 75.2918 66.1918 74.418 66.1918Z" fill="#23262A"/>
<path d="M36.3831 55.1588C35.7655 55.7764 35.7655 56.7783 36.3831 57.3959L44.1882 65.2006C44.4968 65.5096 44.9018 65.6641 45.3067 65.6641C45.7113 65.6641 46.1163 65.5096 46.4253 65.2006C47.0429 64.583 47.0429 63.5811 46.4253 62.9635L38.6206 55.1588C38.0026 54.5408 37.0011 54.5408 36.3831 55.1588Z" fill="#23262A"/>
<path d="M62.9108 58.9029L58.6393 63.1744C58.0213 63.792 58.0213 64.7939 58.6393 65.4115C58.9483 65.7205 59.3528 65.875 59.7578 65.875C60.1624 65.875 60.5674 65.7205 60.8764 65.4115L65.1478 61.14C65.7658 60.5225 65.7658 59.5205 65.1478 58.9029C64.5303 58.285 63.5283 58.285 62.9108 58.9029Z" fill="#23262A"/>
<path d="M31.9095 50.6743C31.2919 51.2923 31.2919 52.2938 31.9095 52.9118L32.3709 53.3732C32.6799 53.6822 33.0849 53.8367 33.4894 53.8367C33.8944 53.8367 34.2994 53.6822 34.608 53.3732C35.226 52.7557 35.226 51.7537 34.6084 51.1361L34.147 50.6747C33.5294 50.0567 32.5274 50.0567 31.9095 50.6743Z" fill="#23262A"/>
<path d="M40.6676 41.1953C40.6676 41.461 40.7339 41.7111 40.8497 41.9311C40.8509 41.9336 40.8513 41.9357 40.8525 41.9381C40.8538 41.9398 40.8546 41.9414 40.8554 41.9435C40.8575 41.9468 40.8591 41.9501 40.8608 41.9534C41.4194 43.0039 43.9486 47.7443 44.2288 48.2687C44.5036 48.7837 45.04 49.1055 45.6242 49.1055H47.5226V58.7031C47.5226 59.577 48.2308 60.2852 49.1046 60.2852H50.6867V63.1328C50.6867 64.0066 51.3953 64.7148 52.2687 64.7148C53.1425 64.7148 53.8507 64.0066 53.8507 63.1328V60.2852H55.4328C56.3066 60.2852 57.0148 59.577 57.0148 58.7031V49.1055H58.912C59.4966 49.1055 60.0338 48.7829 60.3086 48.2667C60.3086 48.2667 63.2317 42.7852 63.6775 41.953C63.6791 41.9501 63.6808 41.9472 63.682 41.9439C63.6824 41.9435 63.6828 41.9427 63.6832 41.9422C63.6968 41.9167 63.7075 41.894 63.7162 41.873C63.8142 41.6674 63.8707 41.438 63.8707 41.1953V28.3281H68.1949C69.0683 28.3281 69.7769 27.6195 69.7769 26.7461V23.582C69.7769 22.7082 69.0683 22 68.1949 22C67.3211 22 66.6129 22.7082 66.6129 23.582V25.1641H23.582C22.7082 25.1641 22 25.8723 22 26.7461C22 27.6195 22.7082 28.3281 23.582 28.3281H40.6676V41.1953ZM53.8507 57.1211H50.6867V49.1055H53.8507V57.1211ZM57.962 45.9414H46.573C46.4424 45.6963 45.0346 43.0563 44.8855 42.7773H59.649C59.6169 42.8379 58.3748 45.1656 57.962 45.9414ZM43.8316 28.3281H60.7066V39.6133H43.8316V28.3281Z" fill="#23262A"/>
</svg>
