<svg width="99" height="99" viewBox="0 0 99 99" fill="none" xmlns="http://www.w3.org/2000/svg">
<rect width="99" height="99" fill="#EEEEEE"/>
<path d="M49.4971 64.2179C42.9464 64.2179 36.3274 64.8188 29.7444 66.0072L27.92 64.1831L25.1736 66.9291C24.5265 67.073 23.8799 67.2224 23.2341 67.3776L22 67.6747V76.9999H76.9941V67.6747L75.76 67.3776C67.0484 65.2808 58.2121 64.2179 49.4971 64.2179ZM73.7719 73.7776H25.2222V70.221C33.2864 68.3755 41.4467 67.4402 49.4971 67.4402C57.5474 67.4402 65.7077 68.3755 73.7719 70.221V73.7776Z" fill="#23262A"/>
<path d="M74.0108 22.3801C72.1704 21.6181 70.1516 22.0192 68.7429 23.4279L65.9655 26.2057L63.687 23.9272L59.1299 28.4842L56.8514 26.2057L54.5729 28.4842L56.0919 30.0033L45.7622 40.3325L44.2432 38.8135L41.9647 41.092L43.4837 42.6111L40.3538 45.741V51.6328L40.4121 51.6911L37.0342 55.0691L39.3127 57.3476L42.6906 53.9697L42.8165 54.096H48.7083L51.8387 50.9656L53.3577 52.4846L55.6362 50.2061L54.1172 48.6871L64.4465 38.3578L65.9655 39.8768L68.244 37.5983L65.9655 35.3198L70.5225 30.7632L68.244 28.4847L71.0219 25.7068C71.7281 25.0006 72.5442 25.2607 72.7775 25.3573C73.0109 25.4542 73.772 25.8469 73.772 26.8461V54.7892H76.9943V26.8456C76.9943 24.8533 75.8508 23.1425 74.0108 22.3801ZM49.5597 48.6871L47.3735 50.8733H44.1513L43.576 50.298V47.0758L45.7622 44.8896L49.5597 48.6871ZM51.8387 46.4086L48.0411 42.6111L58.3704 32.2818L62.168 36.0793L51.8387 46.4086ZM61.408 30.7628L63.6866 28.4842L65.9651 30.7628L63.6866 33.0413L61.408 30.7628Z" fill="#23262A"/>
<path d="M30.1982 61.9042L34.7553 57.3472L37.0338 59.6257L32.4768 64.1827L30.1982 61.9042Z" fill="#23262A"/>
</svg>
