<svg width="99" height="99" viewBox="0 0 99 99" fill="none" xmlns="http://www.w3.org/2000/svg">
<rect width="99" height="99" fill="#EEEEEE"/>
<path d="M75.4135 22H23.5865C22.7104 22 22 22.7104 22 23.5865V27.2885C22 29.9129 24.1351 32.0481 26.7596 32.0481H39.452V38.9231C39.452 39.7994 40.1624 40.5096 41.0385 40.5096H43.6827V60.077C43.6827 60.9532 44.3931 61.6635 45.2692 61.6635H47.9134V75.4135C47.9134 76.2897 48.6238 77 49.4999 77C50.376 77 51.0864 76.2896 51.0864 75.4135V61.6635H53.7306C54.6067 61.6635 55.3171 60.9531 55.3171 60.077V40.5096H57.9613C58.8375 40.5096 59.5478 39.7993 59.5478 38.9231V32.0481H72.2401C74.8646 32.0481 76.9998 29.913 76.9998 27.2885V23.5865C77 22.7104 76.2896 22 75.4135 22ZM52.1442 58.4903H46.8557V40.5096H52.1442V58.4903ZM56.375 37.3365H42.625V32.048H56.375V37.3365ZM73.827 27.2885C73.827 28.1633 73.1153 28.875 72.2405 28.875H26.7596C25.8848 28.875 25.1731 28.1633 25.1731 27.2885V25.173H73.827V27.2885Z" fill="#23262A"/>
<path d="M75.4126 66.9519H55.8453C54.9691 66.9519 54.2588 67.6623 54.2588 68.5384V75.4134C54.2588 76.2897 54.9692 77 55.8453 77H75.4126C76.2888 77 76.9991 76.2896 76.9991 75.4134V68.5384C76.9991 67.6622 76.2887 66.9519 75.4126 66.9519ZM73.8261 73.8269H57.4318V70.1249H73.826V73.8269H73.8261Z" fill="#23262A"/>
<path d="M43.1538 66.9519H23.5865C22.7104 66.9519 22 67.6622 22 68.5384V75.4134C22 76.2896 22.7104 77 23.5865 77H43.1538C44.0301 77 44.7404 76.2896 44.7404 75.4134V68.5384C44.7404 67.6622 44.0302 66.9519 43.1538 66.9519ZM41.5673 73.8269H25.173V70.1249H41.5672V73.8269H41.5673Z" fill="#23262A"/>
<path d="M63.3141 53.6668C62.6946 53.0473 61.69 53.0473 61.0703 53.6668L57.8973 56.8398C57.2777 57.4593 57.2777 58.4639 57.8973 59.0835C58.2071 59.3932 58.6132 59.5481 59.0192 59.5481C59.4253 59.5481 59.8313 59.3932 60.141 59.0834L63.3141 55.9104C63.9337 55.2909 63.9337 54.2863 63.3141 53.6668Z" fill="#23262A"/>
<path d="M63.3139 60.0127C62.6944 59.3932 61.6898 59.3932 61.0703 60.0128L58.9549 62.1282C58.3353 62.7477 58.3353 63.7523 58.9549 64.3719C59.2646 64.6816 59.6707 64.8365 60.0767 64.8365C60.4828 64.8365 60.8889 64.6816 61.1986 64.3718L63.3139 62.2564C63.9335 61.6369 63.9335 60.6323 63.3139 60.0127Z" fill="#23262A"/>
<path d="M41.1022 56.8396L37.9291 53.6665C37.3096 53.047 36.305 53.047 35.6854 53.6665C35.0658 54.286 35.0658 55.2906 35.6854 55.9103L38.8585 59.0833C39.1682 59.3931 39.5743 59.548 39.9804 59.548C40.3864 59.548 40.7925 59.3931 41.1022 59.0833C41.7218 58.4638 41.7218 57.4592 41.1022 56.8396Z" fill="#23262A"/>
<path d="M40.0454 62.1281L37.93 60.0127C37.3105 59.3932 36.3059 59.3932 35.6863 60.0127C35.0668 60.6323 35.0668 61.6369 35.6864 62.2564L37.8017 64.3718C38.1114 64.6816 38.5175 64.8365 38.9236 64.8365C39.3296 64.8365 39.7357 64.6816 40.0454 64.3718C40.665 63.7523 40.665 62.7477 40.0454 62.1281Z" fill="#23262A"/>
</svg>
