<svg width="29" height="25" viewBox="0 0 29 25" fill="none" xmlns="http://www.w3.org/2000/svg">
<path d="M10.0383 11.1128H6.13446C5.66969 11.1128 5.27456 10.9508 4.94921 10.6267C4.62404 10.3025 4.46124 9.90895 4.46124 9.44577V8.89038C4.46124 7.66328 4.89702 6.61576 5.76852 5.74747C6.63995 4.87949 7.69152 4.44531 8.92304 4.44531H10.0383C10.3404 4.44531 10.6017 4.3353 10.8225 4.11544C11.0433 3.89546 11.1536 3.63511 11.1536 3.33412V1.11137C11.1536 0.81045 11.0432 0.549849 10.8225 0.329873C10.6017 0.110201 10.3404 0 10.0383 0H8.92304C7.71459 0 6.56169 0.234633 5.46361 0.70323C4.36565 1.17213 3.41596 1.80597 2.61418 2.6048C1.81245 3.40327 1.17646 4.34953 0.705888 5.44357C0.235316 6.53749 0 7.68645 0 8.89032V21.114C0 22.0406 0.32517 22.8273 0.975815 23.4758C1.62652 24.1239 2.41677 24.448 3.34619 24.448H10.0388C10.9681 24.448 11.7581 24.1239 12.4089 23.4758C13.0594 22.8273 13.3848 22.0406 13.3848 21.114V14.4467C13.3848 13.5203 13.0594 12.7336 12.4085 12.0851C11.758 11.437 10.9677 11.1128 10.0383 11.1128Z" fill="#E2001A"/>
<path d="M28.0246 12.0851C27.3741 11.437 26.584 11.1128 25.6544 11.1128H21.7506C21.2861 11.1128 20.8906 10.9508 20.5658 10.6267C20.2403 10.3025 20.0778 9.90895 20.0778 9.44577V8.89038C20.0778 7.66328 20.5136 6.61576 21.3846 5.74747C22.2558 4.87949 23.3073 4.44531 24.5394 4.44531H25.6545C25.9566 4.44531 26.2181 4.3353 26.4388 4.11544C26.6593 3.89546 26.7701 3.63511 26.7701 3.33412V1.11137C26.7701 0.81045 26.6594 0.549849 26.4388 0.329873C26.2181 0.110201 25.9566 0 25.6545 0H24.5394C23.3303 0 22.1776 0.234633 21.0792 0.70323C19.9815 1.17213 19.0321 1.80597 18.2303 2.6048C17.4285 3.40327 16.7922 4.34953 16.3218 5.44357C15.8513 6.53749 15.6157 7.68645 15.6157 8.89032V21.114C15.6157 22.0406 15.9412 22.8273 16.5917 23.4758C17.2422 24.1239 18.0323 24.448 18.9618 24.448H25.6541C26.5837 24.448 27.3737 24.1239 28.0241 23.4758C28.6751 22.8273 28.9999 22.0406 28.9999 21.114V14.4467C29 13.5203 28.6751 12.7336 28.0246 12.0851Z" fill="#E2001A"/>
</svg>
