<svg width="60" height="60" viewBox="0 0 60 60" fill="none" xmlns="http://www.w3.org/2000/svg">
<g id="Adobe_Illustrator">
<g id="Adobe_Illustrator_2">
<path id="path0_fill" d="M0 30C0 13.4315 13.4315 0 30 0C46.5685 0 60 13.4315 60 30C60 46.5685 46.5685 60 30 60C13.4315 60 0 46.5685 0 30Z" fill="#F37021"/>
<path id="path0_fill_2" d="M3 30C3 15.0884 15.0884 3 30 3C44.9117 3 57 15.0884 57 30C57 44.9117 44.9117 57 30 57C15.0884 57 3 44.9117 3 30Z" fill="url(#paint0_radial)"/>
<path id="Shape" fill-rule="evenodd" clip-rule="evenodd" d="M37.1847 18.8496C37.1847 17.3351 38.2332 16.4419 39.5924 16.4419C41.0293 16.4419 42.0001 17.4127 42.0001 18.8496C42.0001 20.4029 40.9904 21.2573 39.5536 21.2573C38.1556 21.2573 37.1847 20.4029 37.1847 18.8496ZM18.1684 42.8114L20.0324 35.7547H20.0327H27.5664L29.5081 42.85C29.5467 43.0053 29.6634 43.0507 29.8574 43.0507H33.7407C33.9349 43.0507 33.9737 42.934 33.9349 42.7401L26.4402 17.3358C26.4012 17.1416 26.3235 17.1028 26.1682 17.1028H21.2365C21.1198 17.1028 21.0421 17.1805 21.0421 17.3358C21.0033 18.5008 20.9256 18.8684 20.8091 19.2956L14.1297 42.7012C14.0911 42.9731 14.1297 43.0507 14.3623 43.0507H17.8192C18.0519 43.0507 18.1298 43.0053 18.1684 42.8114ZM25.8526 29.0746L25.8526 29.0746L25.8529 29.0758C26.1445 30.1867 26.4066 31.1854 26.5956 31.9301H21.0424L21.1055 31.6925L21.1055 31.6925C22.0662 28.0798 23.2665 23.5661 23.7607 20.8684H23.7995C24.2151 22.8361 25.1254 26.3041 25.8525 29.0745L25.8526 29.0746ZM37.7201 23.928C37.5259 23.928 37.4482 24.0057 37.4482 24.1999V42.74C37.4482 42.9339 37.5259 43.0507 37.7589 43.0507H41.4128C41.6458 43.0507 41.6846 42.973 41.6846 42.7788V24.1999C41.6846 24.0057 41.607 23.928 41.4128 23.928H37.7201Z" fill="#FF7F18"/>
</g>
</g>
<defs>
<radialGradient id="paint0_radial" cx="0" cy="0" r="1" gradientUnits="userSpaceOnUse" gradientTransform="translate(24.5288 20.9881) scale(35.206)">
<stop stop-color="#1C0A00" stop-opacity="0.85"/>
<stop offset="0.767" stop-color="#1C0A00"/>
</radialGradient>
</defs>
</svg>
