<svg width="30" height="30" viewBox="0 0 30 30" fill="none" xmlns="http://www.w3.org/2000/svg">
<g clip-path="url(#clip0)">
<path d="M11.0261 5.81026C11.0261 6.56627 11.0261 9.94066 11.0261 9.94066H8V14.9913H11.0261V30.0001H17.2422V14.9917H21.4136C21.4136 14.9917 21.8042 12.57 21.9936 9.92203C21.4507 9.92203 17.2657 9.92203 17.2657 9.92203C17.2657 9.92203 17.2657 6.98372 17.2657 6.46869C17.2657 5.95255 17.9435 5.25827 18.6134 5.25827C19.282 5.25827 20.6931 5.25827 22.0002 5.25827C22.0002 4.57061 22.0002 2.19462 22.0002 0.000244159C20.2553 0.000244159 18.2703 0.000244159 17.3953 0.000244159C10.8724 -0.000104586 11.0261 5.05558 11.0261 5.81026Z" fill="white"/>
</g>
<defs>
<clipPath id="clip0">
<rect width="30" height="30" fill="white"/>
</clipPath>
</defs>
</svg>
