<svg width="42" height="55" viewBox="0 0 42 55" fill="none" xmlns="http://www.w3.org/2000/svg">
<path d="M42 20.9999C42 37.8154 23.0168 53.3888 23.0168 53.3888C21.9076 54.2988 20.0924 54.2988 18.9832 53.3888C18.9832 53.3888 0 37.8154 0 20.9999C0.000211216 9.40197 9.40218 0 21.0001 0C32.5979 0 42 9.40197 42 20.9999Z" fill="#00B2FF"/>
<path d="M20.9999 31.5651C15.1742 31.5651 10.4348 26.8255 10.4348 20.9999C10.4348 15.1744 15.1744 10.4346 20.9999 10.4346C26.8255 10.4346 31.5651 15.1742 31.5651 20.9997C31.5651 26.8253 26.8257 31.5651 20.9999 31.5651Z" fill="#1E3645"/>
</svg>
