<svg width="60" height="60" viewBox="0 0 60 60" fill="none" xmlns="http://www.w3.org/2000/svg">
<g id="Invision">
<g id="Invision_2">
<path id="back" d="M0 30C0 13.4315 13.4315 0 30 0C46.5685 0 60 13.4315 60 30C60 46.5685 46.5685 60 30 60C13.4315 60 0 46.5685 0 30Z" fill="#FF3366"/>
<path id="Combined-Shape" fill-rule="evenodd" clip-rule="evenodd" d="M23.2865 18.19C23.2865 16.3809 21.8104 15 20.0481 15C18.2859 15 16.8098 16.3809 16.8098 18.19C16.8098 20.0003 18.2859 21.3815 20.0481 21.3815C21.8104 21.3815 23.2865 20.0003 23.2865 18.19ZM36.8566 40.9065C36.8566 43.5744 38.4276 45.5259 41.7137 45.5259C44.5236 45.5259 46.7619 43.717 48 39.3831L45.9049 38.5743C44.8571 41.4778 43.9521 42.003 43.238 42.003C42.5235 42.003 42.1422 41.5272 42.1422 40.5751C42.1422 40.1467 42.2381 39.6715 42.3803 39.0988L43.9047 33.6251C44.2856 32.3397 44.4285 31.2017 44.4285 30.1544C44.4285 26.0589 41.9518 23.9262 38.9516 23.9262C36.1421 23.9262 33.2844 26.4697 31.856 29.137L32.9035 24.3681H24.7599L23.6169 28.597H27.4268L25.0809 37.968C23.2382 42.0635 19.8539 42.1077 19.4293 42.0126C18.7319 41.8553 18.2859 41.5951 18.2859 40.6891C18.2859 40.1661 18.3811 39.4243 18.6193 38.5187L22.1914 24.3681H13.143L12 28.597H15.762L13.3333 38.4891C13.143 39.2988 13.0474 40.1432 13.0474 40.8564C13.0474 43.6667 14.5714 45.5215 17.8098 45.5215C20.4959 45.5215 22.6733 43.9048 24.2409 41.3294L23.2836 45.1284H28.6172L31.6653 32.9457C32.4271 29.85 33.9034 28.2866 36.1421 28.2866C37.9042 28.2866 38.9995 29.3825 38.9995 31.1915C38.9995 31.7157 38.9516 32.2866 38.7613 32.906L37.1895 38.5254C36.9513 39.3351 36.8566 40.1453 36.8566 40.9065Z" fill="white"/>
</g>
</g>
</svg>
