<svg width="60" height="60" viewBox="0 0 60 60" fill="none" xmlns="http://www.w3.org/2000/svg">
<path d="M0 30C0 13.4315 13.4315 0 30 0C46.5685 0 60 13.4315 60 30C60 46.5685 46.5685 60 30 60C13.4315 60 0 46.5685 0 30Z" fill="white"/>
<path d="M43.671 15H29.2627C29.2627 16.725 29.948 18.3794 31.1677 19.5991C32.3875 20.8189 34.0418 21.5042 35.7669 21.5042H38.421V24.0667C38.4233 27.6556 41.3321 30.5644 44.921 30.5667V16.25C44.921 15.5596 44.3614 15 43.671 15Z" fill="#2684FF"/>
<path d="M36.5416 22.1792H22.1333C22.1356 25.7681 25.0444 28.6769 28.6333 28.6792H31.2875V31.25C31.2921 34.8389 34.2027 37.7459 37.7916 37.7459V23.4292C37.7916 22.7388 37.232 22.1792 36.5416 22.1792Z" fill="url(#paint0_linear)"/>
<path d="M29.4083 29.354H15C15 32.9462 17.912 35.8582 21.5042 35.8582H24.1667V38.4207C24.169 42.0063 27.0727 44.9138 30.6583 44.9207V30.604C30.6583 29.9136 30.0987 29.354 29.4083 29.354Z" fill="url(#paint1_linear)"/>
<defs>
<linearGradient id="paint0_linear" x1="34.3043" y1="19.1576" x2="28.2124" y2="25.5141" gradientUnits="userSpaceOnUse">
<stop offset="0.18" stop-color="#0052CC"/>
<stop offset="1" stop-color="#2684FF"/>
</linearGradient>
<linearGradient id="paint1_linear" x1="471.037" y1="437.423" x2="209.318" y2="696.432" gradientUnits="userSpaceOnUse">
<stop offset="0.18" stop-color="#0052CC"/>
<stop offset="1" stop-color="#2684FF"/>
</linearGradient>
</defs>
</svg>
