<svg width="30" height="30" viewBox="0 0 30 30" fill="none" xmlns="http://www.w3.org/2000/svg">
<path d="M30 18.2426V29.3337H23.57V18.9854C23.57 16.3858 22.64 14.6117 20.3126 14.6117C18.5359 14.6117 17.4785 15.8073 17.0134 16.9639C16.8438 17.3773 16.8001 17.9528 16.8001 18.5316V29.3337H10.368C10.368 29.3337 10.4546 11.807 10.368 9.99111H16.7995V12.7328C16.7864 12.7534 16.7695 12.7755 16.7572 12.7953H16.7995V12.7328C17.654 11.4168 19.18 9.5367 22.5957 9.5367C26.8276 9.53663 30 12.3012 30 18.2426ZM3.63968 0.666992C1.43926 0.666992 0 2.1103 0 4.00829C0 5.86493 1.39762 7.35203 3.55431 7.35203H3.59728C5.84032 7.35203 7.23529 5.86521 7.23529 4.00829C7.19302 2.1103 5.84032 0.666992 3.63968 0.666992ZM0.382012 29.3337H6.8117V9.99111H0.382012V29.3337Z" fill="black"/>
</svg>
