<svg width="60" height="60" viewBox="0 0 60 60" fill="none" xmlns="http://www.w3.org/2000/svg">
<g id="Adobe_Photoshop">
<g id="Adobe_Photoshop_2">
<path id="path0_fill" d="M0 30C0 13.4315 13.4315 0 30 0C46.5685 0 60 13.4315 60 30C60 46.5685 46.5685 60 30 60C13.4315 60 0 46.5685 0 30Z" fill="#31C5F0"/>
<path id="path0_fill_2" d="M3 30C3 15.0884 15.0884 3 30 3C44.9117 3 57 15.0884 57 30C57 44.9117 44.9117 57 30 57C15.0884 57 3 44.9117 3 30Z" fill="url(#paint0_radial)"/>
<path id="Shape" fill-rule="evenodd" clip-rule="evenodd" d="M15 17.392C15 17.2352 15.3362 17.1176 15.5322 17.1176C17.0612 17.0392 19.306 17 21.658 17C28.2443 17 30.8094 20.6068 30.8094 25.2328C30.8094 31.2702 26.4309 33.8577 21.06 33.8577C20.5684 33.8577 20.2516 33.8459 19.9634 33.8353H19.9634L19.9633 33.8353C19.723 33.8264 19.5026 33.8182 19.2174 33.8182V42.9468C19.2174 43.1431 19.139 43.2215 18.943 43.2215H15.2744C15.0784 43.2215 15 43.1431 15 42.9468V17.392ZM19.2174 30.0157C19.7663 30.0547 20.1975 30.0547 21.1384 30.0547C23.9219 30.0547 26.5362 29.0746 26.5362 25.311C26.5362 22.2921 24.6668 20.7634 21.4912 20.7634C20.5503 20.7634 19.6487 20.8023 19.2174 20.8418V30.0155V30.0157ZM37.159 28.918C37.159 28.1339 37.7863 27.193 39.6681 27.193C41.1972 27.193 42.7542 27.585 43.8125 28.2123C44.0477 28.2907 44.1653 28.1729 44.1653 27.9771V24.7224C44.1653 24.5656 44.1261 24.3698 43.9301 24.252C43.146 23.8994 41.7067 23.5858 39.6681 23.5858C35.5127 23.5858 33.1212 26.1343 33.1212 29.1922C33.1212 31.9362 34.5326 33.5828 37.9041 35.1903C40.2956 36.4446 40.8444 37.1897 40.8444 38.0522C40.8444 39.1107 40.0603 39.8948 38.1785 39.8948C36.6102 39.8948 34.8811 39.4633 33.3914 38.4835C33.2346 38.3661 33.117 38.4445 33.117 38.6797V42.1689C33.117 42.3649 33.1562 42.4825 33.313 42.5609C34.3323 43.1487 36.1007 43.5802 38.1785 43.5802C42.0989 43.5802 45 41.5416 45 37.7386C45 35.1906 43.8239 33.4656 40.0995 31.6622C37.5903 30.3683 37.159 29.7804 37.159 28.918Z" fill="#31C5F0"/>
</g>
</g>
<defs>
<radialGradient id="paint0_radial" cx="0" cy="0" r="1" gradientUnits="userSpaceOnUse" gradientTransform="translate(24.5288 20.9881) scale(35.206)">
<stop stop-color="#0E0E17" stop-opacity="0.85"/>
<stop offset="0.767" stop-color="#0E0E17"/>
</radialGradient>
</defs>
</svg>
