<svg width="60" height="60" viewBox="0 0 60 60" fill="none" xmlns="http://www.w3.org/2000/svg">
<path d="M30 60C46.5685 60 60 46.5685 60 30C60 13.4315 46.5685 0 30 0C13.4315 0 0 13.4315 0 30C0 46.5685 13.4315 60 30 60Z" fill="url(#paint0_linear)"/>
<path fill-rule="evenodd" clip-rule="evenodd" d="M12 18.0053C12 14.6887 14.6764 12 18.0053 12H41.9947C45.3113 12 48 14.6764 48 18.0053V41.9947C48 45.3113 45.3236 48 41.9947 48H18.0053C14.6887 48 12 45.3236 12 41.9947V18.0053ZM32.34 18.8411V30.269C32.34 31.4626 33.3068 32.43 34.4995 32.43H41.1605C42.3528 32.43 43.32 31.4625 43.32 30.269V18.8411C43.32 17.6475 42.3532 16.68 41.1605 16.68H34.4995C33.3072 16.68 32.34 17.6476 32.34 18.8411ZM16.68 39.2715V18.8385C16.68 17.6464 17.6472 16.68 18.8395 16.68H25.5006C26.6932 16.68 27.66 17.6465 27.66 18.8385V39.2715C27.66 40.4636 26.6929 41.43 25.5006 41.43H18.8395C17.6469 41.43 16.68 40.4636 16.68 39.2715Z" fill="white"/>
<defs>
<linearGradient id="paint0_linear" x1="0" y1="0" x2="0" y2="60" gradientUnits="userSpaceOnUse">
<stop stop-color="#0091E6"/>
<stop offset="1" stop-color="#0079BF"/>
</linearGradient>
</defs>
</svg>
