<svg width="30" height="26" viewBox="0 0 30 26" fill="none" xmlns="http://www.w3.org/2000/svg">
<path d="M30 3.69959C28.8958 4.18886 27.711 4.52067 26.4662 4.66881C27.7373 3.90768 28.7102 2.70043 29.1713 1.26631C27.9791 1.97116 26.663 2.48297 25.2608 2.76043C24.1379 1.56253 22.5407 0.816406 20.7691 0.816406C17.3704 0.816406 14.6147 3.57214 14.6147 6.969C14.6147 7.45077 14.669 7.92131 14.774 8.37126C9.66 8.11439 5.12525 5.66425 2.0902 1.94116C1.55966 2.84851 1.25784 3.90577 1.25784 5.03435C1.25784 7.16959 2.34515 9.05361 3.99485 10.1559C2.98628 10.1221 2.0377 9.84469 1.20726 9.38351V9.46037C1.20726 12.4411 3.32936 14.9287 6.14319 15.4949C5.62765 15.6336 5.08402 15.7105 4.52162 15.7105C4.12422 15.7105 3.7399 15.6711 3.36309 15.5961C4.14667 18.0425 6.41878 19.8215 9.11079 19.8703C7.00554 21.52 4.35103 22.5005 1.46784 22.5005C0.971079 22.5005 0.481765 22.4705 0 22.4161C2.72387 24.1652 5.95765 25.185 9.43324 25.185C20.7542 25.185 26.9425 15.808 26.9425 7.67577L26.9218 6.87905C28.1309 6.01665 29.177 4.93312 30 3.69959Z" fill="#010002"/>
</svg>
