<?xml version="1.0" standalone="no"?>
<!DOCTYPE svg PUBLIC "-//W3C//DTD SVG 20010904//EN"
 "http://www.w3.org/TR/2001/REC-SVG-20010904/DTD/svg10.dtd">
<svg version="1.0" xmlns="http://www.w3.org/2000/svg"
 width="700.000000pt" height="700.000000pt" viewBox="0 0 700.000000 700.000000"
 preserveAspectRatio="xMidYMid meet">
<metadata>
Created by potrace 1.11, written by Peter Selinger 2001-2013
</metadata>
<g transform="translate(0.000000,700.000000) scale(0.100000,-0.100000)"
fill="#000000" stroke="none">
<path d="M0 3500 l0 -3500 3500 0 3500 0 0 3500 0 3500 -3500 0 -3500 0 0
-3500z m4705 2141 c408 -79 479 -423 192 -926 -211 -368 -477 -657 -812 -882
-95 -64 -298 -189 -352 -216 -51 -27 -144 -48 -181 -41 -25 5 -67 38 -160 125
-127 120 -156 156 -147 181 3 8 31 27 63 42 145 71 391 232 630 414 557 422
972 851 972 1006 0 66 -44 85 -157 66 -153 -24 -358 -96 -597 -209 -547 -259
-1213 -786 -1516 -1200 -229 -312 -270 -571 -122 -766 23 -31 119 -113 249
-215 260 -203 387 -311 376 -320 -22 -19 -142 -100 -148 -100 -4 0 -38 29 -75
64 -38 35 -146 124 -242 199 -229 178 -299 236 -382 315 -158 152 -250 287
-292 427 -88 296 137 755 568 1158 578 540 1401 913 1968 892 63 -2 138 -9
165 -14z m-1683 -3083 c34 -45 60 -97 54 -107 -3 -5 -32 -19 -63 -31 -76 -31
-223 -103 -298 -148 -270 -160 -525 -449 -476 -540 25 -48 127 -37 266 27 201
94 396 261 528 454 56 82 73 136 60 194 -11 48 -26 38 136 94 96 33 92 34 153
-49 53 -71 96 -166 110 -239 9 -49 8 -73 -6 -134 -21 -96 -108 -254 -193 -355
-142 -166 -385 -323 -617 -399 -131 -42 -196 -50 -261 -31 -111 34 -251 170
-326 320 -53 106 -54 168 -5 270 69 141 209 265 536 472 96 61 218 139 270
173 52 33 97 61 101 61 4 0 18 -15 31 -32z"/>
</g>
</svg>
