<svg width="158" height="65" viewBox="0 0 158 65" fill="none" xmlns="http://www.w3.org/2000/svg">
<path d="M14.4057 44H5.11773V42.128L8.14173 41.444V20.888L5.11773 20.168V18.296H14.4057V20.168L11.3817 20.888V41.444L14.4057 42.128V44ZM19.369 18.296H26.713C29.929 18.296 32.353 18.776 33.985 19.736C35.641 20.672 36.469 22.316 36.469 24.668C36.469 26.18 36.049 27.44 35.209 28.448C34.369 29.432 33.157 30.068 31.573 30.356V30.536C32.653 30.704 33.625 31.016 34.489 31.472C35.377 31.928 36.073 32.576 36.577 33.416C37.081 34.256 37.333 35.348 37.333 36.692C37.333 39.02 36.529 40.82 34.921 42.092C33.337 43.364 31.165 44 28.405 44H19.369V18.296ZM22.609 29.24H27.361C29.569 29.24 31.081 28.892 31.897 28.196C32.713 27.476 33.121 26.42 33.121 25.028C33.121 23.612 32.617 22.604 31.609 22.004C30.625 21.38 29.041 21.068 26.857 21.068H22.609V29.24ZM22.609 31.94V41.264H27.793C30.073 41.264 31.657 40.82 32.545 39.932C33.433 39.044 33.877 37.88 33.877 36.44C33.877 35.096 33.409 34.016 32.473 33.2C31.561 32.36 29.917 31.94 27.541 31.94H22.609ZM58.911 44L55.815 36.044H45.627L42.567 44H39.291L49.335 18.188H52.251L62.259 44H58.911ZM54.843 33.164L51.963 25.388C51.891 25.196 51.771 24.848 51.603 24.344C51.435 23.84 51.267 23.324 51.099 22.796C50.955 22.244 50.835 21.824 50.739 21.536C50.571 22.28 50.379 23.012 50.163 23.732C49.947 24.428 49.767 24.98 49.623 25.388L46.707 33.164H54.843ZM86.1512 44H82.3712L68.6192 22.652H68.4752C68.5232 23.492 68.5832 24.536 68.6552 25.784C68.7272 27.032 68.7632 28.316 68.7632 29.636V44H65.7752V18.296H69.5192L83.2352 39.572H83.3792C83.3552 39.188 83.3192 38.612 83.2712 37.844C83.2472 37.076 83.2112 36.236 83.1632 35.324C83.1392 34.412 83.1272 33.572 83.1272 32.804V18.296H86.1512V44ZM111.919 44H108.103L98.9948 31.724L96.3668 34.028V44H93.1268V18.296H96.3668V30.968C97.0868 30.152 97.8188 29.336 98.5628 28.52C99.3068 27.704 100.051 26.888 100.795 26.072L107.743 18.296H111.523L101.335 29.492L111.919 44ZM129.78 44H115.416V18.296H129.78V21.14H118.656V29.168H129.132V31.976H118.656V41.156H129.78V44ZM142.512 18.296C145.704 18.296 148.056 18.908 149.568 20.132C151.104 21.332 151.872 23.156 151.872 25.604C151.872 26.972 151.62 28.112 151.116 29.024C150.612 29.936 149.964 30.668 149.172 31.22C148.404 31.748 147.588 32.168 146.724 32.48L153.78 44H150L143.772 33.38H138.66V44H135.42V18.296H142.512ZM142.332 21.104H138.66V30.644H142.512C144.6 30.644 146.124 30.236 147.084 29.42C148.044 28.58 148.524 27.356 148.524 25.748C148.524 24.068 148.02 22.88 147.012 22.184C146.004 21.464 144.444 21.104 142.332 21.104Z" fill="white"/>
<path d="M38.714 63H43.418V62.482C42.074 62.468 41.766 62.398 41.766 61.488V54.39C41.766 53.466 42.102 53.424 43.418 53.41V52.892H38.714V53.41C40.058 53.424 40.38 53.48 40.38 54.39V61.488C40.38 62.398 40.058 62.468 38.714 62.482V63ZM44.5443 63H47.5543V62.482H47.4843C46.7003 62.482 46.6163 62.244 46.6163 61.432V60.13C46.6163 58.156 47.5683 56.952 48.6043 56.952C49.3323 56.952 49.5703 57.47 49.5703 58.534V61.446C49.5703 62.23 49.5003 62.454 48.6883 62.482V63H51.5023V62.482C50.6763 62.482 50.6483 62.3 50.6483 61.474V58.492C50.6483 56.98 50.0183 56.224 48.8423 56.224C47.8903 56.224 47.2043 56.798 46.7283 57.974H46.6723V56.126C45.3423 56.266 44.6003 56.336 44.4743 56.35V56.882H44.7403C45.4543 56.882 45.5803 57.064 45.5803 57.778V61.446C45.5803 62.272 45.5103 62.482 44.6283 62.482H44.5443V63ZM55.3216 63.224L57.3796 57.834C57.6596 57.106 57.9676 56.756 58.5416 56.742V56.294H55.8256V56.742H55.9796C56.6376 56.742 56.9456 56.924 56.9456 57.4C56.9456 57.596 56.8896 57.904 56.7636 58.24L55.4476 61.642L53.8796 57.386C53.8516 57.302 53.8236 57.218 53.8236 57.12C53.8236 56.784 54.0196 56.742 54.6496 56.742V56.294H51.6116V56.742C52.3396 56.756 52.5776 57.12 52.8856 57.904L54.9716 63.224H55.3216ZM60.4906 59.276C60.5186 57.554 61.2326 56.602 62.2546 56.602C63.1506 56.602 63.7246 57.358 63.7246 58.674C63.7246 59.276 63.5006 59.276 62.4786 59.276H60.4906ZM64.7186 61.25C64.1586 62.23 63.5146 62.692 62.6046 62.692C61.3026 62.692 60.4906 61.74 60.4906 60.018V59.808H64.9706C64.9846 59.668 64.9846 59.542 64.9846 59.416C64.9846 57.372 63.8646 56.112 62.2686 56.112C60.5326 56.112 59.2026 57.61 59.2026 59.864C59.2026 61.964 60.4486 63.294 62.3806 63.294C63.6686 63.294 64.6206 62.664 65.1106 61.488L64.7186 61.25ZM66.1092 63.224L66.4592 63.21C66.5012 62.888 66.6972 62.706 66.9772 62.706C67.3832 62.706 68.0412 63.224 68.9372 63.224C70.2532 63.224 71.1212 62.398 71.1212 61.11C71.1212 60.032 70.5612 59.528 69.3572 59.164L67.9012 58.716C67.1592 58.492 66.8092 58.128 66.8092 57.624C66.8092 57.036 67.2572 56.602 67.9852 56.602C68.9792 56.602 69.8892 57.358 70.2252 58.674H70.5472V56.168H70.2532C70.1552 56.448 69.9592 56.588 69.6652 56.588C69.3012 56.588 68.7972 56.168 67.9572 56.168C66.8932 56.168 66.1932 56.896 66.1932 58.002C66.1932 59.136 66.7812 59.724 68.0552 60.074L69.0632 60.354C70.0012 60.606 70.4212 60.984 70.4212 61.642C70.4212 62.356 69.8612 62.832 69.0352 62.832C67.9852 62.832 67.0612 61.992 66.5012 60.382H66.1092V63.224ZM72.9065 56.91V61.152C72.9065 62.538 73.4805 63.238 74.6145 63.238C75.9025 63.238 76.6305 62.314 76.6305 60.522V60.466H76.2525C76.1265 61.852 75.8045 62.468 74.9785 62.468C74.0965 62.468 73.9985 61.908 73.9985 60.746V56.91H76.0005V56.308H74.0125V53.508H73.5505C73.3965 55.258 72.9905 56.126 71.8145 56.364V56.91H72.9065ZM78.0071 57.68V61.544C78.0071 62.356 77.9511 62.482 77.0551 62.482V63H80.0091V62.482C79.2111 62.468 79.1271 62.286 79.1271 61.544V59.99C79.1271 58.184 79.9391 56.952 80.9191 56.952C81.8711 56.952 82.0111 57.624 82.0111 58.856V61.544C82.0111 62.342 81.9831 62.482 81.1011 62.482V63H83.9571V62.482C83.1731 62.468 83.0891 62.286 83.0891 61.544V59.99C83.0891 58.17 83.8871 56.952 84.8391 56.952C85.7491 56.952 85.9031 57.61 85.9031 58.856V61.544C85.9031 62.342 85.8611 62.482 84.9651 62.482V63H87.8771V62.482C87.0791 62.482 87.0091 62.286 87.0091 61.544V58.968C87.0091 57.106 86.5051 56.224 85.1331 56.224C84.3071 56.224 83.5091 56.826 83.1451 57.862H83.0891C82.8931 56.826 82.1651 56.224 81.2411 56.224C80.4151 56.224 79.7011 56.784 79.2671 57.848H79.1551V56.21H78.8051C78.1611 56.308 77.5171 56.364 76.8731 56.378V56.896H77.1111C77.7691 56.896 78.0071 57.078 78.0071 57.68ZM90.0081 59.276C90.0361 57.554 90.7501 56.602 91.7721 56.602C92.6681 56.602 93.2421 57.358 93.2421 58.674C93.2421 59.276 93.0181 59.276 91.9961 59.276H90.0081ZM94.2361 61.25C93.6761 62.23 93.0321 62.692 92.1221 62.692C90.8201 62.692 90.0081 61.74 90.0081 60.018V59.808H94.4881C94.5021 59.668 94.5021 59.542 94.5021 59.416C94.5021 57.372 93.3821 56.112 91.7861 56.112C90.0501 56.112 88.7201 57.61 88.7201 59.864C88.7201 61.964 89.9661 63.294 91.8981 63.294C93.1861 63.294 94.1381 62.664 94.6281 61.488L94.2361 61.25ZM95.4447 63H98.4547V62.482H98.3847C97.6007 62.482 97.5167 62.244 97.5167 61.432V60.13C97.5167 58.156 98.4687 56.952 99.5047 56.952C100.233 56.952 100.471 57.47 100.471 58.534V61.446C100.471 62.23 100.401 62.454 99.5887 62.482V63H102.403V62.482C101.577 62.482 101.549 62.3 101.549 61.474V58.492C101.549 56.98 100.919 56.224 99.7427 56.224C98.7907 56.224 98.1047 56.798 97.6287 57.974H97.5727V56.126C96.2427 56.266 95.5007 56.336 95.3747 56.35V56.882H95.6407C96.3547 56.882 96.4807 57.064 96.4807 57.778V61.446C96.4807 62.272 96.4107 62.482 95.5287 62.482H95.4447V63ZM104.01 56.91V61.152C104.01 62.538 104.584 63.238 105.718 63.238C107.006 63.238 107.734 62.314 107.734 60.522V60.466H107.356C107.23 61.852 106.908 62.468 106.082 62.468C105.2 62.468 105.102 61.908 105.102 60.746V56.91H107.104V56.308H105.116V53.508H104.654C104.5 55.258 104.094 56.126 102.918 56.364V56.91H104.01Z" fill="white"/>
</svg>
