<svg xmlns="http://www.w3.org/2000/svg" width="42.22" height="56.84" viewBox="0 0 42.22 56.84"><defs><style>.cls-1{fill:#fff;stroke:#fff;stroke-miterlimit:10;stroke-width:0.25px;}</style></defs><title>quality</title><g id="Layer_2" data-name="Layer 2"><g id="Layer_3" data-name="Layer 3"><path class="cls-1" d="M40.39,21.11a10.81,10.81,0,0,1,.81-3.3c.63-1.77,1.28-3.61.59-5.27a4.4,4.4,0,0,0-1.36-1.76.84.84,0,0,0-1.19.13.83.83,0,0,0,.13,1.18,2.87,2.87,0,0,1,.87,1.09c.44,1.07-.08,2.53-.62,4.07a11.88,11.88,0,0,0-.92,3.86A11.94,11.94,0,0,0,39.62,25c.54,1.54,1.06,3,.62,4.06s-1.9,1.81-3.42,2.52a11.65,11.65,0,0,0-3.27,2,11.65,11.65,0,0,0-2,3.27c-.71,1.52-1.38,3-2.52,3.42s-2.52-.08-4.06-.62a12,12,0,0,0-3.86-.92,11.88,11.88,0,0,0-3.86.92c-1.55.54-3,1.06-4.07.62s-1.8-1.9-2.52-3.42a11.63,11.63,0,0,0-2-3.27,11.8,11.8,0,0,0-3.27-2C3.88,30.84,2.45,30.17,2,29s.07-2.52.62-4.06a12,12,0,0,0,.91-3.86,11.87,11.87,0,0,0-.91-3.86c-.55-1.55-1.06-3-.62-4.07s1.9-1.8,3.42-2.52a11.54,11.54,0,0,0,3.27-2,11.77,11.77,0,0,0,2-3.27c.72-1.52,1.39-2.95,2.52-3.42s2.52.07,4.07.62a11.87,11.87,0,0,0,3.86.91A12,12,0,0,0,25,2.6C26.51,2.05,28,1.54,29,2s1.81,1.9,2.52,3.42a11.8,11.8,0,0,0,2,3.27,11.4,11.4,0,0,0,3.27,2l.15.07a.84.84,0,1,0,.72-1.52l-.15-.07a10.27,10.27,0,0,1-2.8-1.67,10,10,0,0,1-1.66-2.79c-.82-1.74-1.67-3.54-3.4-4.26s-3.5,0-5.27.59a11,11,0,0,1-3.3.82A10.84,10.84,0,0,1,17.81,1C16,.38,14.2-.27,12.54.42S10,2.94,9.14,4.68A10,10,0,0,1,7.47,7.47,10,10,0,0,1,4.68,9.14C2.94,10,1.14,10.8.42,12.54s0,3.5.59,5.27a10.84,10.84,0,0,1,.82,3.3A11,11,0,0,1,1,24.41C.38,26.18-.27,28,.42,29.68s2.52,2.58,4.26,3.4c.55.26,1.08.51,1.55.77L4.91,37.8a.83.83,0,0,0,.53,1.06.86.86,0,0,0,.27,0,.84.84,0,0,0,.8-.58l1.14-3.4a11.79,11.79,0,0,1,1.49,2.61c.82,1.74,1.66,3.54,3.4,4.25s3.5,0,5.27-.59a20,20,0,0,1,2.05-.64L15.39,53.87l-4.14-6.94a.84.84,0,0,0-1-.35l-7.49,3,2.87-8.54A.85.85,0,0,0,5.06,40,.84.84,0,0,0,4,40.53L.54,50.81a.84.84,0,0,0,1.11,1l8.52-3.45,4.71,7.89a.83.83,0,0,0,.72.41h.09a.85.85,0,0,0,.71-.57l4.71-14,4.7,14a.86.86,0,0,0,.71.57h.09a.83.83,0,0,0,.72-.41L32,48.41l8.52,3.45a.85.85,0,0,0,1.12-1l-5.7-17c.48-.26,1-.51,1.56-.77,1.74-.82,3.54-1.67,4.25-3.4s0-3.5-.59-5.27a10.88,10.88,0,0,1-.81-3.3ZM32,46.58a.83.83,0,0,0-1,.35l-4.14,6.94L22.35,40.56a19.4,19.4,0,0,1,2.06.64,11.48,11.48,0,0,0,3.71.89,4.23,4.23,0,0,0,1.56-.29c1.73-.72,2.58-2.52,3.4-4.26a11.79,11.79,0,0,1,1.49-2.61L39.5,49.61Z"/><path class="cls-1" d="M21.11,7.23A13.88,13.88,0,1,0,35,21.11,13.89,13.89,0,0,0,21.11,7.23Zm0,26.07A12.2,12.2,0,1,1,33.3,21.11,12.21,12.21,0,0,1,21.11,33.3Z"/><path class="cls-1" d="M28,16.88l-3.07-.44a.56.56,0,0,1-.41-.3L23.1,13.36a2.22,2.22,0,0,0-4,0l-1.38,2.78a.56.56,0,0,1-.4.3l-3.07.44a2.24,2.24,0,0,0-1.8,1.52A2.21,2.21,0,0,0,13,20.67l2.22,2.17a.54.54,0,0,1,.15.47l-.52,3.06A2.23,2.23,0,0,0,17.07,29a2.14,2.14,0,0,0,1-.26l2.75-1.44a.55.55,0,0,1,.5,0l2.74,1.44a2.18,2.18,0,0,0,2.34-.17,2.21,2.21,0,0,0,.89-2.17l-.53-3.06a.52.52,0,0,1,.16-.47l2.22-2.17a2.18,2.18,0,0,0,.56-2.27A2.21,2.21,0,0,0,28,16.88ZM28,19.46l-2.22,2.17a2.25,2.25,0,0,0-.64,2l.53,3.06a.53.53,0,0,1-.22.52.51.51,0,0,1-.56,0l-2.75-1.44a2.23,2.23,0,0,0-2.07,0l-2.74,1.44a.53.53,0,0,1-.78-.56l.52-3.06a2.19,2.19,0,0,0-.64-2l-2.22-2.17a.49.49,0,0,1-.13-.54.51.51,0,0,1,.43-.37l3.07-.45a2.21,2.21,0,0,0,1.67-1.21l1.38-2.78a.53.53,0,0,1,1,0L23,16.89a2.23,2.23,0,0,0,1.67,1.21l3.08.45a.52.52,0,0,1,.43.37.5.5,0,0,1-.14.54Z"/></g></g></svg>