<svg xmlns="http://www.w3.org/2000/svg" width="57" height="53.26" viewBox="0 0 57 53.26"><defs><style>.cls-1{fill:#fff;}</style></defs><title>2-Strength</title><g id="Layer_2" data-name="Layer 2"><g id="Layer_2-2" data-name="Layer 2"><path class="cls-1" d="M50.57,26.92l-6.2-9.58a2.59,2.59,0,0,0-2.18-1.18H14.83a2.59,2.59,0,0,0-2.18,1.18L6.43,26.92a2.6,2.6,0,0,0,.24,3.14L26.56,52.39a2.6,2.6,0,0,0,3.88,0L50.33,30.06a2.6,2.6,0,0,0,.24-3.14Zm-9.64-8.53-5.21,8.06L30.5,18.39Zm-7.26,9H23.33l5.17-8Zm-7.17-9-5.21,8-5.2-8ZM14,19.3l5.23,8.09H8.78ZM9.25,29.61H20.46l5.92,19.23ZM28.5,48.15,22.79,29.61H34.21Zm2.12.69,5.92-19.23H47.75Zm7.14-21.45L43,19.31l5.23,8.08Z"/><path class="cls-1" d="M3.38,27.39H1.11a1.11,1.11,0,1,0,0,2.22H3.38a1.11,1.11,0,1,0,0-2.22Z"/><path class="cls-1" d="M55.89,27.39H53.62a1.11,1.11,0,0,0,0,2.22h2.27a1.11,1.11,0,0,0,0-2.22Z"/><path class="cls-1" d="M48.67,8.35a1.13,1.13,0,0,0-1.58,0l-3.7,3.7a1.13,1.13,0,0,0,0,1.58,1.16,1.16,0,0,0,.79.32,1.14,1.14,0,0,0,.79-.32l3.7-3.7a1.13,1.13,0,0,0,0-1.58Z"/><path class="cls-1" d="M13.65,12,10,8.33A1.12,1.12,0,0,0,8.38,9.91l3.7,3.7a1.14,1.14,0,0,0,.79.32,1.11,1.11,0,0,0,.78-1.9Z"/><path class="cls-1" d="M28.53,0a1.11,1.11,0,0,0-1.11,1.11V8.37a1.11,1.11,0,1,0,2.22,0V1.11A1.11,1.11,0,0,0,28.53,0Z"/><path class="cls-1" d="M29.31,11.35a1.09,1.09,0,0,0-.78-.33,1.13,1.13,0,0,0-.79.33,1.09,1.09,0,0,0-.33.78,1.11,1.11,0,0,0,.33.79,1.13,1.13,0,0,0,.79.33,1.09,1.09,0,0,0,.78-.33,1.11,1.11,0,0,0,.33-.79,1.09,1.09,0,0,0-.33-.78Z"/></g></g></svg>