<svg xmlns="http://www.w3.org/2000/svg" width="42.25" height="44.13" viewBox="0 0 42.25 44.13"><defs><style>.cls-1{fill:#fff;}</style></defs><title>storage</title><g id="Layer_2" data-name="Layer 2"><g id="Layer_3" data-name="Layer 3"><path class="cls-1" d="M42.15,12.34c-.2.37-.67,1.5-1,1.29L21.89,2.83a1.53,1.53,0,0,0-1.52,0L1.15,13.63c-.37.21-.84-.92-1-1.28a.77.77,0,0,1,.29-1L20,.29a2.29,2.29,0,0,1,2.24,0l19.61,11a.8.8,0,0,1,.37.46.78.78,0,0,1-.08.58Z"/><path class="cls-1" d="M37.35,14.46H4.92a.76.76,0,0,0-.76.76V43.37c0,.42,1.34.76,1.76.76a.76.76,0,0,0,.76-.76V17H35.59V43.37a.76.76,0,0,0,.76.76c.42,0,1.76-.34,1.76-.76V15.22a.76.76,0,0,0-.76-.76Z"/><path class="cls-1" d="M33.3,42.56h-.76V34.2a.76.76,0,0,0-.76-.77H29.5V25.07a.76.76,0,0,0-.76-.76H18.09a.76.76,0,0,0-.76.76v3.8H13.52a.76.76,0,0,0-.76.76v3.8H10.48a.76.76,0,0,0-.76.77v8.36H9a.76.76,0,0,0-.76.76l1.52.76H32.54l1.53-.76a.77.77,0,0,0-.77-.76ZM25.7,35h1.52v1.52H25.7Zm-1.52-9.13v1.52H22.65V25.83Zm-5.33,0h2.28v2.28a.76.76,0,0,0,.76.76h3.05a.76.76,0,0,0,.76-.76V25.83H28v7.6H18.85ZM15.05,35h1.52v1.52H15.05Zm-.76-4.57h3v3h-3Zm-3,12.17V35h2.28v2.28a.77.77,0,0,0,.77.76h3a.76.76,0,0,0,.76-.76V35h2.28v7.6Zm10.65,0V35h2.29v2.28a.76.76,0,0,0,.76.76h3a.76.76,0,0,0,.76-.76V35H31v7.6Z"/></g></g></svg>