<svg xmlns="http://www.w3.org/2000/svg" width="42.15" height="41" viewBox="0 0 42.15 41"><defs><style>.cls-1{fill:#fff;}</style></defs><title>5_sound</title><g id="Layer_2" data-name="Layer 2"><g id="Layer_2-2" data-name="Layer 2"><path class="cls-1" d="M29.67,27.39a1.27,1.27,0,0,0,.91-.38l4.68-4.68L40,27a1.29,1.29,0,0,0,2.2-.91,1.29,1.29,0,0,0-.37-.91L37.09,20.5l.17-.17,4.52-4.52a1.27,1.27,0,0,0,.37-.91,1.29,1.29,0,0,0-.37-.91A1.32,1.32,0,0,0,40,14l-4.69,4.69L30.58,14a1.3,1.3,0,0,0-2.21.91,1.28,1.28,0,0,0,.38.91l4.69,4.69-.18.18-4.51,4.51a1.29,1.29,0,0,0-.37.91,1.28,1.28,0,0,0,1.29,1.29Z"/><path class="cls-1" d="M7.89,12.73l-.23-.2a1.16,1.16,0,0,0-.75-.28H1.17A1.17,1.17,0,0,0,0,13.42V27.59a1.16,1.16,0,0,0,1.17,1.16H6.91a1.16,1.16,0,0,0,.75-.28l.23-.19,17,12.5a1.22,1.22,0,0,0,1.22.1,1.17,1.17,0,0,0,.64-1V1.17a1.16,1.16,0,0,0-.64-1,1.15,1.15,0,0,0-1.22.1ZM5.74,26.42H2.33V14.58H5.74ZM24.45,37.54l-16.38-12v-10l.15-.11L24.45,3.47Z"/></g></g></svg>