<svg xmlns="http://www.w3.org/2000/svg" width="55.25" height="37.57" viewBox="0 0 55.25 37.57"><defs><style>.cls-1{fill:#fff;stroke:#fff;stroke-miterlimit:10;stroke-width:0.25px;}</style></defs><title>delivery</title><g id="Layer_2" data-name="Layer 2"><g id="Layer_3" data-name="Layer 3"><path class="cls-1" d="M51,16,49.47,9.84a.93.93,0,0,0,.73-.91V8a3.88,3.88,0,0,0-3.88-3.88h-7V2A1.91,1.91,0,0,0,37.45.13H6A1.9,1.9,0,0,0,4.07,2V18.79a.92.92,0,1,0,1.84,0V2A.07.07,0,0,1,6,2H37.45a.06.06,0,0,1,.06.06V18.79a.93.93,0,0,0,1.85,0V17.74h10.9a3,3,0,0,1,2.87,2.09H50.26a.93.93,0,0,0-.92.93v2a2.89,2.89,0,0,0,2.89,2.89h1.05v4.07H50.86a5.85,5.85,0,0,0-11.06,0h-.44v-7a.93.93,0,1,0-1.85,0v7H21.34a5.84,5.84,0,0,0-11,0H6a.07.07,0,0,1-.07-.06v-2h3a.93.93,0,0,0,0-1.85H1.05a.93.93,0,0,0,0,1.85h3v2A1.9,1.9,0,0,0,6,31.53h4s0,0,0,.07a5.86,5.86,0,0,0,11.71,0s0-.05,0-.07H39.48v.07a5.85,5.85,0,1,0,11.7,0v-.07h3a.93.93,0,0,0,.93-.92V20.76A4.87,4.87,0,0,0,51,16Zm-11.63-10h7a2,2,0,0,1,2,2V8h-9Zm0,10v-6h8.21l1.51,6ZM15.81,35.6a4,4,0,1,1,4-4,4,4,0,0,1-4,4Zm29.52,0a4,4,0,1,1,4-4,4,4,0,0,1-4,4Zm8-11.83H52.23a1,1,0,0,1-1-1V21.68h2.1v2.09Z"/><path class="cls-1" d="M15.81,29.69a1.91,1.91,0,1,0,1.91,1.91,1.9,1.9,0,0,0-1.91-1.91Z"/><path class="cls-1" d="M45.33,29.69a1.91,1.91,0,1,0,1.91,1.91,1.91,1.91,0,0,0-1.91-1.91Z"/><path class="cls-1" d="M34.49,25.74H23.7a.93.93,0,1,0,0,1.85H34.49a.93.93,0,1,0,0-1.85Z"/><path class="cls-1" d="M13.84,21.8H3a.93.93,0,0,0,0,1.85H13.84a.93.93,0,1,0,0-1.85Z"/><path class="cls-1" d="M30.25,9.26a.93.93,0,0,0-1.31,0l-7.21,8.22-4.28-4.27a.9.9,0,0,0-1.3,0,.92.92,0,0,0,0,1.3l4.92,4.93a.93.93,0,0,0,1.31,0l7.87-8.87a.93.93,0,0,0,0-1.31Z"/></g></g></svg>