<svg xmlns="http://www.w3.org/2000/svg" width="49" height="49" viewBox="0 0 49 49"><defs><style>.cls-1{fill:#fff;}</style></defs><title>6_price</title><g id="Layer_2" data-name="Layer 2"><g id="Layer_2-2" data-name="Layer 2"><path class="cls-1" d="M19.94,30.56l-1.8-.6a1.45,1.45,0,0,1-1-1.38,1.64,1.64,0,0,1,3.27,0h1.63a3.27,3.27,0,0,0-2.45-3.15V23.68H18v1.75a3.26,3.26,0,0,0-2.45,3.15,3.09,3.09,0,0,0,2.1,2.93l1.81.6a1.44,1.44,0,0,1,1,1.37,1.64,1.64,0,1,1-3.27,0H15.52A3.25,3.25,0,0,0,18,36.63v1.75H19.6V36.63a3.26,3.26,0,0,0,2.45-3.15,3.08,3.08,0,0,0-2.11-2.92Z"/><path class="cls-1" d="M48.18,18H31.67a18.83,18.83,0,0,0-6.35-5.06V9.39l2.94-2.2a.84.84,0,0,0,.32-.66V.82A.82.82,0,0,0,27.77,0H24.5a.84.84,0,0,0-.58.24L22.87,1.3,21.81.24A.83.83,0,0,0,21.23,0h-4.9a.82.82,0,0,0-.57.24L14.7,1.3,13.64.24A.82.82,0,0,0,13.07,0H9.8A.82.82,0,0,0,9,.82V6.53a.82.82,0,0,0,.33.66l2.94,2.2v3.53C6.07,15.91,0,24,0,34.26,0,43.63,6.85,49,18.78,49a31.06,31.06,0,0,0,5.78-.51.81.81,0,0,0,.76.51H48.18a.82.82,0,0,0,.82-.82V18.78a.82.82,0,0,0-.82-.81ZM10.62,6.13V1.63h2.11L14.12,3a.82.82,0,0,0,1.16,0l1.39-1.4H20.9L22.29,3a.81.81,0,0,0,1.15,0l1.4-1.4H27v4.5l-2.72,2H13.34ZM23.68,9.8v2.45h-9.8V9.8ZM24.5,38a9,9,0,1,1,0-13.84Zm0-19.17V22.1A10.61,10.61,0,1,0,24.5,40v6.87a29.63,29.63,0,0,1-5.72.53c-5.15,0-17.15-1.28-17.15-13.11,0-7.82,4.69-17.54,12.53-20.38h9.26A16.19,16.19,0,0,1,29.49,18H25.32a.82.82,0,0,0-.82.81ZM47.37,47.37H26.13V26.13H47.37Zm0-22.87H26.13V19.6H47.37Z"/><path class="cls-1" d="M31.85,27.77H28.58a.81.81,0,0,0-.81.81v3.27a.82.82,0,0,0,.81.82h3.27a.82.82,0,0,0,.82-.82V28.58a.82.82,0,0,0-.82-.81ZM31,31H29.4V29.4H31Z"/><path class="cls-1" d="M38.38,27.77H35.12a.82.82,0,0,0-.82.81v3.27a.82.82,0,0,0,.82.82h3.26a.82.82,0,0,0,.82-.82V28.58a.82.82,0,0,0-.82-.81ZM37.57,31H35.93V29.4h1.64Z"/><path class="cls-1" d="M44.92,27.77H41.65a.82.82,0,0,0-.82.81v3.27a.82.82,0,0,0,.82.82h3.27a.82.82,0,0,0,.81-.82V28.58a.81.81,0,0,0-.81-.81ZM44.1,31H42.47V29.4H44.1Z"/><path class="cls-1" d="M31.85,34.3H28.58a.82.82,0,0,0-.81.82v3.26a.82.82,0,0,0,.81.82h3.27a.82.82,0,0,0,.82-.82V35.12a.82.82,0,0,0-.82-.82ZM31,37.57H29.4V35.93H31Z"/><path class="cls-1" d="M38.38,34.3H35.12a.82.82,0,0,0-.82.82v3.26a.82.82,0,0,0,.82.82h3.26a.82.82,0,0,0,.82-.82V35.12a.82.82,0,0,0-.82-.82Zm-.81,3.27H35.93V35.93h1.64Z"/><path class="cls-1" d="M31.85,40.83H28.58a.82.82,0,0,0-.81.82v3.27a.81.81,0,0,0,.81.81h3.27a.82.82,0,0,0,.82-.81V41.65a.82.82,0,0,0-.82-.82ZM31,44.1H29.4V42.47H31Z"/><path class="cls-1" d="M38.38,40.83H35.12a.82.82,0,0,0-.82.82v3.27a.82.82,0,0,0,.82.81h3.26a.82.82,0,0,0,.82-.81V41.65a.82.82,0,0,0-.82-.82Zm-.81,3.27H35.93V42.47h1.64Z"/><path class="cls-1" d="M44.92,34.3H41.65a.82.82,0,0,0-.82.82v9.8a.82.82,0,0,0,.82.81h3.27a.81.81,0,0,0,.81-.81v-9.8a.82.82,0,0,0-.81-.82Zm-.82,9.8H42.47V35.93H44.1Z"/><rect class="cls-1" x="44.1" y="21.23" width="1.63" height="1.63"/><rect class="cls-1" x="40.83" y="21.23" width="1.63" height="1.63"/><rect class="cls-1" x="37.57" y="21.23" width="1.63" height="1.63"/></g></g></svg>