<svg xmlns="http://www.w3.org/2000/svg" width="43.8" height="44.44" viewBox="0 0 43.8 44.44"><defs><style>.cls-1{fill:#fff;}</style></defs><title>8_aesthetic</title><g id="Layer_2" data-name="Layer 2"><g id="Layer_2-2" data-name="Layer 2"><path class="cls-1" d="M42.8,0H1A1,1,0,0,0,0,1V6.63a1,1,0,0,0,1,1H2.51L5,12a1.08,1.08,0,0,0,.44.41,8,8,0,0,0-2.79,6A6.57,6.57,0,0,0,9.16,25a5.46,5.46,0,0,0,3.44-1.22v19.7a1,1,0,1,0,2,0V25.33h9v18.1a1,1,0,1,0,2,0V25.33h3.52v7.79c0,.55.45-2,1-2s1,2.55,1,2v-9.4A5.41,5.41,0,0,0,34.63,25a6.56,6.56,0,0,0,6.56-6.55,8,8,0,0,0-2.84-6.09A1.1,1.1,0,0,0,38.7,12l2.44-4.31H42.8a1,1,0,0,0,1-1V1a1,1,0,0,0-1-1ZM14.61,20.51H29.18v2.81H14.61ZM39.18,18.4a4.55,4.55,0,0,1-4.55,4.54,3.44,3.44,0,0,1-3.44-3.43A2.55,2.55,0,0,1,33.74,17a1.83,1.83,0,0,1,1.84,1.83,1,1,0,1,0,2,0A3.84,3.84,0,0,0,33.74,15,4.56,4.56,0,0,0,29.3,18.5H14.5A4.57,4.57,0,0,0,10.05,15,3.85,3.85,0,0,0,6.2,18.79a1,1,0,1,0,2,0A1.84,1.84,0,0,1,10.05,17a2.55,2.55,0,0,1,2.55,2.55,3.44,3.44,0,0,1-3.44,3.43A4.55,4.55,0,0,1,4.61,18.4a6,6,0,0,1,5.94-5.94H33.24a5.94,5.94,0,0,1,5.94,5.94Zm-1.94-7.95H6.41L4.82,7.64h34Zm4.55-4.82H2V2H41.79Z"/><path class="cls-1" d="M19.13,31.39a1,1,0,0,0-1,1v11a1,1,0,1,0,2,0v-11a1,1,0,0,0-1-1Z"/><path class="cls-1" d="M19.13,26.82a1,1,0,0,0-.71.3,1,1,0,0,0-.29.71,1,1,0,0,0,.29.71,1.05,1.05,0,0,0,.71.29,1,1,0,0,0,.71-.29,1,1,0,0,0,.3-.71,1,1,0,0,0-1-1Z"/><path class="cls-1" d="M30.18,37.41a1,1,0,0,0-1,1v5a1,1,0,1,0,2,0v-5a1,1,0,0,0-1-1Z"/><path class="cls-1" d="M30.19,33.38a1,1,0,0,0-.71.29,1,1,0,0,0,0,1.42,1,1,0,0,0,.71.29,1,1,0,0,0,.71-.29,1,1,0,0,0,0-1.42,1,1,0,0,0-.71-.29Z"/></g></g></svg>