<svg xmlns="http://www.w3.org/2000/svg" width="45.72" height="47.64" viewBox="0 0 45.72 47.64"><defs><style>.cls-1{fill:#fff;}</style></defs><title>best-price</title><g id="Layer_2" data-name="Layer 2"><g id="Layer_3" data-name="Layer 3"><path class="cls-1" d="M43.51,24.44a1.4,1.4,0,0,1,0-1.23l1.78-3.64a4.13,4.13,0,0,0-1.79-5.49l-3.57-1.9a1.38,1.38,0,0,1-.72-1l-.7-4a4.15,4.15,0,0,0-4.68-3.4l-4,.57A1.43,1.43,0,0,1,28.65,4l-2.9-2.81a4.14,4.14,0,0,0-5.78,0L17.06,4a1.4,1.4,0,0,1-1.17.38l-4-.57A4.14,4.14,0,0,0,7.21,7.2l-.7,4a1.38,1.38,0,0,1-.72,1l-3.58,1.9A4.13,4.13,0,0,0,.43,19.57L2.2,23.21a1.34,1.34,0,0,1,0,1.23L.43,28.07a4.14,4.14,0,0,0,1.78,5.5l3.58,1.89a1.4,1.4,0,0,1,.72,1l.7,4a4.14,4.14,0,0,0,4.08,3.43,4,4,0,0,0,.59,0l4-.56a1.34,1.34,0,0,1,1.17.38L20,46.47a4.15,4.15,0,0,0,5.78,0l2.9-2.81a1.37,1.37,0,0,1,1.18-.38l4,.56a4.13,4.13,0,0,0,4.68-3.39l.7-4a1.4,1.4,0,0,1,.72-1l3.57-1.89a4.15,4.15,0,0,0,1.79-5.5Zm-1.29,6.7L38.64,33a4.1,4.1,0,0,0-2.14,3l-.7,4a1.4,1.4,0,0,1-1.58,1.15l-4-.57a4.13,4.13,0,0,0-3.47,1.13l-2.9,2.81a1.41,1.41,0,0,1-2,0L19,41.68a4.11,4.11,0,0,0-2.87-1.17c-.2,0-.4,0-.6,0l-4,.57A1.39,1.39,0,0,1,9.92,40l-.7-4a4.12,4.12,0,0,0-2.15-3L3.5,31.14a1.4,1.4,0,0,1-.6-1.86l1.77-3.63a4.11,4.11,0,0,0,0-3.65L2.9,18.36a1.39,1.39,0,0,1,.6-1.85l3.57-1.9a4.14,4.14,0,0,0,2.15-2.95l.7-4A1.4,1.4,0,0,1,11.5,6.52l4,.57A4.11,4.11,0,0,0,19,6l2.91-2.81a1.41,1.41,0,0,1,2,0L26.74,6a4.13,4.13,0,0,0,3.47,1.13l4-.57A1.41,1.41,0,0,1,35.8,7.67l.7,4a4.12,4.12,0,0,0,2.14,2.95l3.58,1.9a1.39,1.39,0,0,1,.6,1.85L41,22a4.18,4.18,0,0,0,0,3.65l1.78,3.63a1.4,1.4,0,0,1-.6,1.86Z"/><path class="cls-1" d="M32.9,13.78a1.39,1.39,0,0,0-1.95,0L12.82,31.92a1.37,1.37,0,0,0,1.94,1.94L32.9,15.73a1.39,1.39,0,0,0,0-2Z"/><path class="cls-1" d="M17.36,11.46a5,5,0,1,0,5,5,5,5,0,0,0-5-5Zm0,7.32a2.29,2.29,0,1,1,2.29-2.29,2.29,2.29,0,0,1-2.29,2.29Z"/><path class="cls-1" d="M28.35,26.11a5,5,0,1,0,5,5,5,5,0,0,0-5-5Zm0,7.33a2.29,2.29,0,1,1,2.29-2.29,2.3,2.3,0,0,1-2.29,2.29Z"/></g></g></svg>