<svg xmlns="http://www.w3.org/2000/svg" width="38.71" height="52" viewBox="0 0 38.71 52"><defs><style>.cls-1,.cls-2{fill:#fff;}.cls-2{fill-rule:evenodd;}</style></defs><title>4-warm</title><g id="Layer_2" data-name="Layer 2"><g id="Layer_2-2" data-name="Layer 2"><path class="cls-1" d="M26,7.33h8.21a.84.84,0,1,0,0-1.67H26a.84.84,0,1,0,0,1.67Z"/><path class="cls-1" d="M26,12.71H37A.84.84,0,0,0,37,11H26a.84.84,0,1,0,0,1.67Z"/><path class="cls-1" d="M26,18.09h8.21a.84.84,0,0,0,.84-.83.85.85,0,0,0-.84-.84H26a.85.85,0,0,0-.84.84.84.84,0,0,0,.84.83Z"/><path class="cls-1" d="M37,23.47a.83.83,0,0,0,.83-.83A.84.84,0,0,0,37,21.8H26a.85.85,0,0,0-.84.84.84.84,0,0,0,.84.83Z"/><path class="cls-1" d="M38.34,38.48l-4.83-6.25a1.69,1.69,0,0,0-1.34-.68,1.72,1.72,0,0,0-1.34.68L26,38.48A1.41,1.41,0,0,0,25.76,40a1.39,1.39,0,0,0,1.33.72h1.14a.29.29,0,0,1,.28.28v6.86a2,2,0,0,0,1.95,1.95h3.16a2,2,0,0,0,1.94-1.95V41a.29.29,0,0,1,.28-.28h1.41A1.41,1.41,0,0,0,38.59,40a1.44,1.44,0,0,0-.25-1.51ZM36.46,39h-.62a2,2,0,0,0-2,2v6.86a.28.28,0,0,1-.27.28H30.46a.29.29,0,0,1-.28-.28V41a2,2,0,0,0-1.95-2h-.39c-.15,0-.09-.08-.09-.08l4.19-5.42s.11-.15.23-.15a.4.4,0,0,1,.25.15L36.59,39s.08.09-.13.09Z"/><path class="cls-2" d="M15.91,33.19V5.66a5.66,5.66,0,1,0-11.31,0V33.19a10.26,10.26,0,1,0,11.31,0ZM10.25,50A8.23,8.23,0,0,1,6.12,34.63a1,1,0,0,0,.51-.88V5.66a3.63,3.63,0,1,1,7.25,0V33.75a1,1,0,0,0,.51.88A8.23,8.23,0,0,1,10.25,50Z"/><path class="cls-2" d="M10.25,21.92a1,1,0,0,0,1-1V5.47a1,1,0,1,0-2,0V20.9a1,1,0,0,0,1,1Z"/><path class="cls-2" d="M11.27,36.61V29a1,1,0,1,0-2,0v7.58a5.23,5.23,0,1,0,2,0Zm-1,8.33a3.2,3.2,0,1,1,3.2-3.2,3.19,3.19,0,0,1-3.2,3.2Z"/><path class="cls-2" d="M10.25,26a1,1,0,1,0-1-1,1,1,0,0,0,1,1Z"/></g></g></svg>