<svg xmlns="http://www.w3.org/2000/svg" width="56" height="55.07" viewBox="0 0 56 55.07"><defs><style>.cls-1{fill:#fff;}</style></defs><title>3-eco</title><g id="Layer_2" data-name="Layer 2"><g id="Layer_2-2" data-name="Layer 2"><path class="cls-1" d="M10,43.16a1.1,1.1,0,1,1-1.09-1.1A1.09,1.09,0,0,1,10,43.16Z"/><path class="cls-1" d="M50.44,9.7H44a6,6,0,0,0-3.83,1.38V7.79A7.79,7.79,0,0,0,32.39,0h-7.3A1.09,1.09,0,0,0,24,1.09v3a7.81,7.81,0,0,0,7.79,7.79H38V23l-.87,0a13.46,13.46,0,0,0-7.94,2.56,1.09,1.09,0,1,0,1.28,1.77,11.36,11.36,0,0,1,6.66-2.15,11,11,0,0,1,1.73.14l.14,0A11.38,11.38,0,0,1,47.11,31a1.11,1.11,0,0,0,1,.57,1.13,1.13,0,0,0,.53-.14A1.1,1.1,0,0,0,49,30a13.64,13.64,0,0,0-8.85-6.66V19.76h5.34a6,6,0,0,0,6-6v-3a1.09,1.09,0,0,0-1.1-1.09ZM38,9.7h-6.2a5.6,5.6,0,0,1-5.6-5.6V2.19h6.2A5.6,5.6,0,0,1,38,7.79Zm11.36,4a3.84,3.84,0,0,1-3.83,3.83H40.18V15.71A3.83,3.83,0,0,1,44,11.89h5.34Z"/><path class="cls-1" d="M55.63,35.5A4.28,4.28,0,0,0,50,33.31h0l-7.15,3.3a1.09,1.09,0,0,0-.54,1.45,1.11,1.11,0,0,0,1.46.54l7.13-3.3a2.1,2.1,0,0,1,1.69,3.85L37.94,45.6a8.45,8.45,0,0,1-7.22-.16l-5.35-2.66a10.65,10.65,0,0,0-9.08-.2l-.1,0-4-9.06,5.55-2.45a11.09,11.09,0,0,1,8.32-.27l10.76,4a1.94,1.94,0,0,1-1.29,3.66l-8.32-2.82a1.09,1.09,0,1,0-.7,2.07l8.32,2.82a4.06,4.06,0,0,0,1.32.22,4.13,4.13,0,0,0,1.43-8l-10.77-4a13.23,13.23,0,0,0-9.95.32l-5.59,2.47A2.68,2.68,0,0,0,10,30.51a2.75,2.75,0,0,0-2.11,0L.65,33.7a1.1,1.1,0,0,0-.65,1V54a1.1,1.1,0,0,0,.52.93,1.08,1.08,0,0,0,.57.17,1.11,1.11,0,0,0,.5-.12l13.94-7a2.79,2.79,0,0,0,1.52-3.27l.13-.06a8.43,8.43,0,0,1,7.21.16l5.36,2.66a10.67,10.67,0,0,0,9.07.21l14.63-6.46a4.28,4.28,0,0,0,2.18-5.65ZM14.92,45.59a.57.57,0,0,1-.3.33l-.06,0L2.19,52.19V47.41l3.23-1.59a1.1,1.1,0,0,0-1-2L2.19,45V35.42l6.53-2.86a.52.52,0,0,1,.44,0,.57.57,0,0,1,.33.3l5.14,11.66h0l.28.64a.52.52,0,0,1,0,.44Z"/></g></g></svg>