<svg xmlns="http://www.w3.org/2000/svg" width="48.83" height="52.19" viewBox="0 0 48.83 52.19"><defs><style>.cls-1,.cls-2,.cls-3{fill:#fff;}.cls-1,.cls-2{stroke:#fff;stroke-miterlimit:10;}.cls-2{stroke-width:1.25px;}</style></defs><title>icon_1</title><g id="Layer_2" data-name="Layer 2"><g id="Layer_2-2" data-name="Layer 2"><path class="cls-1" d="M46.17,19.28,29.49,2.6a7.18,7.18,0,0,0-10.15,0L2.65,19.28C1.3,20.63,0,23.51.71,25.27,1.25,26.59,3.25,26.6,4.54,27V44.51a7.19,7.19,0,0,0,7.18,7.18H37.1a7.19,7.19,0,0,0,7.18-7.18V27c1.3-.4,3.29-.4,3.84-1.72.73-1.76-.6-4.64-1.95-6Zm-.89,3.85a4.23,4.23,0,0,1-2.38.92,1.75,1.75,0,0,0-1.75,1.76v18.7a4.05,4.05,0,0,1-4,4H11.73a4.05,4.05,0,0,1-4.05-4V25.81a1.75,1.75,0,0,0-1.75-1.76,4.19,4.19,0,0,1-2.38-.92c-.09-.22.67-1,1.32-1.63L21.55,4.82a4.06,4.06,0,0,1,5.72,0L44,21.5a1.47,1.47,0,0,1,.32,1.63Z"/><path class="cls-2" d="M30.77,16.3a6.36,6.36,0,0,0-12.71,0V32A8.37,8.37,0,0,0,24.41,45.8h.13A8.37,8.37,0,0,0,30.77,32ZM29.65,37.59a5.3,5.3,0,0,1-5.16,5.07,5.23,5.23,0,0,1-3.76-8.95,1.58,1.58,0,0,0,.47-1.12V16.3a3.22,3.22,0,0,1,6.43,0V32.59a1.58,1.58,0,0,0,.47,1.12,5.21,5.21,0,0,1,1.55,3.88Z"/><path class="cls-3" d="M25.29,36.74V16.68a.88.88,0,0,0-1.76,0V36.74c-.27.24-1.2.56-1.2,1.56a2.39,2.39,0,0,0,2,2,2.4,2.4,0,0,0,2-2,1.86,1.86,0,0,0-1-1.56Z"/></g></g></svg>