<svg xmlns="http://www.w3.org/2000/svg" width="47.92" height="47.92" viewBox="0 0 47.92 47.92"><defs><style>.cls-1{fill:#fff;stroke:#fff;stroke-miterlimit:10;stroke-width:0.5px;}</style></defs><title>7_install</title><g id="Layer_2" data-name="Layer 2"><g id="Layer_2-2" data-name="Layer 2"><path class="cls-1" d="M47,1a2.46,2.46,0,0,0-2.49-.6L9.74,11.48A2.41,2.41,0,0,0,8.1,13.24a2.45,2.45,0,0,0,.65,2.33l10,10-4.54,4.54-.58-.58a1,1,0,0,0-1.34,0L1.51,40.31a4.31,4.31,0,0,0,6.1,6.1L18.4,35.63a1,1,0,0,0,0-1.34l-.59-.58,4.54-4.54,10,10a2.45,2.45,0,0,0,1.73.73,3,3,0,0,0,.59-.07,2.44,2.44,0,0,0,1.76-1.65L47.55,3.46A2.45,2.45,0,0,0,47,1ZM6.28,45.07a2.43,2.43,0,1,1-3.43-3.43L13,31.53,16.39,35Zm10.2-12.7-.93-.93L25.78,21.21a.67.67,0,0,1,.93,0,.65.65,0,0,1,0,.93ZM45.75,2.89,34.64,37.61a.56.56,0,0,1-.41.38.59.59,0,0,1-.54-.15l-10-10,4.36-4.35a2.55,2.55,0,0,0-3.6-3.6l-4.36,4.35-10-10a.59.59,0,0,1-.15-.54.6.6,0,0,1,.38-.41L45,2.17a.54.54,0,0,1,.58.14.54.54,0,0,1,.14.58Z"/><path class="cls-1" d="M33.37,8.36a.94.94,0,0,0-1.18-.61l-.54.17a.95.95,0,0,0,.29,1.85,1,1,0,0,0,.29,0l.53-.17a.94.94,0,0,0,.61-1.19Z"/><path class="cls-1" d="M29.94,9.46a.94.94,0,0,0-1.18-.61L13.64,13.7a.94.94,0,0,0,.29,1.84,1,1,0,0,0,.29,0l15.11-4.85a.94.94,0,0,0,.61-1.19Z"/></g></g></svg>