<svg width="16" height="23" viewBox="0 0 16 23" fill="none" xmlns="http://www.w3.org/2000/svg">
<path d="M7.23553 0.313259L0.316606 7.15767C-0.105535 7.57526 -0.105535 8.25252 0.316606 8.67011C0.738833 9.08779 1.42329 9.08779 1.84552 8.67011L6.91891 3.65136L6.91891 21.9306C6.91891 22.5211 7.40297 23 7.99999 23C8.59692 23 9.08107 22.5211 9.08107 21.9306L9.08107 3.65136L14.1545 8.66994C14.5767 9.08762 15.2611 9.08762 15.6834 8.66994C15.8943 8.46119 16 8.18741 16 7.91372C16 7.64003 15.8943 7.36634 15.6834 7.1575L8.76444 0.313259C8.34222 -0.10442 7.65776 -0.10442 7.23553 0.313259Z" fill="white"/>
</svg>
