<svg width="53" height="53" viewBox="0 0 53 53" fill="none" xmlns="http://www.w3.org/2000/svg">
<circle cx="26.5" cy="26.5" r="26.5" fill="#FDCE40"/>
<path d="M17.0586 28.3447H14.3047L13.7285 30H12.4443L15.1299 22.8906H16.2383L18.9287 30H17.6396L17.0586 28.3447ZM14.6514 27.3486H16.7119L15.6816 24.3994L14.6514 27.3486ZM21.2676 27.9102H20.667V30H19.4805V24.7168H20.667V26.8262H21.1895L22.6494 24.7168H24.1143L22.2051 27.2461L24.2754 30H22.7324L21.2676 27.9102ZM24.9736 24.7168H26.1602V29.0527H28.2207V24.7168H29.4072V29.0527H30.125L30.0273 31.5674H28.9482V30H24.9736V24.7168ZM34.2607 24.7168H35.4424V30H34.2607V26.4746L32.1904 30H31.0088V24.7168H32.1904V28.2422L34.2607 24.7168ZM40.9355 24.7168V30H39.7539V28.0615H38.6455L37.5176 30H36.2871L37.5322 27.8662C37.2067 27.7295 36.9561 27.5342 36.7803 27.2803C36.6077 27.0264 36.5215 26.735 36.5215 26.4062C36.5215 25.9147 36.7103 25.5127 37.0879 25.2002C37.4688 24.8844 37.9814 24.7233 38.626 24.7168H40.9355ZM37.708 26.4355C37.708 26.6569 37.7894 26.8376 37.9521 26.9775C38.1182 27.1143 38.3298 27.1826 38.5869 27.1826H39.7539V25.6592H38.6602C38.3704 25.6592 38.1393 25.7324 37.9668 25.8789C37.7943 26.0254 37.708 26.2109 37.708 26.4355Z" fill="#46474D"/>
</svg>
