<svg width="87" height="79" viewBox="0 0 87 79" fill="none" xmlns="http://www.w3.org/2000/svg">
<path d="M81.1142 33.0088L30.4777 3.98828C27.4944 2.27848 23.6744 3.30711 21.9607 6.25369L3.25582 38.4137C1.53186 41.3778 2.57238 45.1687 5.53797 46.8683L56.1744 75.8888C59.1328 77.5843 62.9617 76.5976 64.6915 73.6234L83.3963 41.4634C85.1071 38.5221 84.1071 34.7241 81.1142 33.0088ZM78.2797 36.1487C76.5429 36.6057 46.6544 44.4717 45.6224 44.7433C44.0136 45.1712 42.3335 44.9516 40.8912 44.125C39.4489 43.2984 38.4173 41.9637 37.9847 40.3616C37.7971 39.6736 29.8044 10.3733 29.1556 7.995L78.2797 36.1487ZM7.27857 39.7495L25.1361 9.04631L31.7579 33.3214L7.27857 39.7495ZM8.37475 43.7297L32.8444 37.3041L33.9712 41.4348C34.6896 44.0963 36.4091 46.3207 38.8129 47.6983C41.2167 49.076 44.017 49.442 46.6929 48.7302L50.8652 47.6321L57.4943 71.8808L8.37475 43.7297ZM61.5148 70.8331L54.8832 46.5748L79.3723 40.1299L61.5148 70.8331Z" fill="black" fill-opacity="0.05"/>
</svg>
