<svg width="20" height="19" viewBox="0 0 20 19" fill="none" xmlns="http://www.w3.org/2000/svg">
<path d="M15.8375 13.8229C14.4624 13.8229 13.3437 14.9841 13.3437 16.4114C13.3437 17.8387 14.4625 19 15.8375 19C17.2126 19 18.3313 17.8387 18.3313 16.4114C18.3313 14.9841 17.2126 13.8229 15.8375 13.8229ZM15.8375 17.4468C15.2874 17.4468 14.84 16.9825 14.84 16.4114C14.84 15.8404 15.2874 15.376 15.8375 15.376C16.3876 15.376 16.835 15.8404 16.835 16.4114C16.835 16.9825 16.3876 17.4468 15.8375 17.4468Z" fill="white"/>
<path d="M19.841 3.81835C19.6994 3.63017 19.4822 3.52041 19.252 3.52041H4.618L3.94467 0.596128C3.86413 0.246691 3.56311 4.52952e-10 3.21697 4.52952e-10H0.74813C0.334924 -4.0547e-05 0 0.347613 0 0.776524C0 1.20543 0.334924 1.55309 0.74813 1.55309H2.62646L5.05788 12.1134C5.13843 12.4631 5.43945 12.7095 5.78558 12.7095H17.4316C17.7755 12.7095 18.0752 12.4662 18.1577 12.1198L19.9782 4.48357C20.0333 4.25168 19.9827 4.00653 19.841 3.81835ZM16.8462 11.1564H6.37609L4.97558 5.07354H18.2961L16.8462 11.1564Z" fill="white"/>
<path d="M6.78283 13.8229C5.40774 13.8229 4.28906 14.9841 4.28906 16.4114C4.28906 17.8387 5.40778 19 6.78283 19C8.15787 19 9.27659 17.8387 9.27659 16.4114C9.27659 14.9841 8.15787 13.8229 6.78283 13.8229ZM6.78283 17.4468C6.23271 17.4468 5.78532 16.9825 5.78532 16.4114C5.78532 15.8404 6.23271 15.376 6.78283 15.376C7.33295 15.376 7.78033 15.8404 7.78033 16.4114C7.78033 16.9825 7.33295 17.4468 6.78283 17.4468Z" fill="white"/>
</svg>
