<svg width="44" height="44" viewBox="0 0 44 44" fill="none" xmlns="http://www.w3.org/2000/svg">
<g filter="url(#filter0_b)">
<rect width="44" height="44" rx="3" fill="black" fill-opacity="0.6"/>
</g>
<path d="M21.7496 12C27.1352 12 31.5006 16.3658 31.5006 21.7517C31.5006 24.0696 30.6891 26.194 29.3404 27.8682L35.6951 34.2218C36.1016 34.6284 36.1016 35.2885 35.6951 35.6951C35.2886 36.1016 34.6285 36.1016 34.2234 35.6951L27.8687 29.34C26.193 30.6902 24.0688 31.5019 21.751 31.5019C16.3655 31.5019 12 27.1361 12 21.7502C12 16.3642 16.364 12 21.7496 12ZM21.7496 30.0031C26.2996 30.0031 30.0005 26.302 30.0005 21.7517C30.0005 17.2014 26.2996 13.5002 21.7496 13.5002C17.1996 13.5002 13.4987 17.2014 13.4987 21.7517C13.4987 26.302 17.1996 30.0031 21.7496 30.0031Z" fill="white"/>
<path d="M17.249 21.0016H20.9994V17.251C20.9994 16.8369 21.3354 16.5009 21.7495 16.5009C22.162 16.5009 22.4995 16.8369 22.4995 17.251V21.0016H26.2499C26.6625 21.0016 27 21.3377 27 21.7518C27 22.1658 26.6625 22.5019 26.2499 22.5019H22.4995V26.2525C22.4995 26.6651 22.162 27.0026 21.7495 27.0026C21.3354 27.0026 20.9994 26.6651 20.9994 26.2525V22.5019H17.249C16.835 22.5019 16.4989 22.1658 16.4989 21.7518C16.4989 21.3377 16.835 21.0016 17.249 21.0016Z" fill="white"/>
<defs>
<filter id="filter0_b" x="-4" y="-4" width="52" height="52" filterUnits="userSpaceOnUse" color-interpolation-filters="sRGB">
<feFlood flood-opacity="0" result="BackgroundImageFix"/>
<feGaussianBlur in="BackgroundImage" stdDeviation="2"/>
<feComposite in2="SourceAlpha" operator="in" result="effect1_backgroundBlur"/>
<feBlend mode="normal" in="SourceGraphic" in2="effect1_backgroundBlur" result="shape"/>
</filter>
</defs>
</svg>
