<svg width="19" height="17" viewBox="0 0 19 17" fill="none" xmlns="http://www.w3.org/2000/svg">
<path d="M17.4858 1.47591C17.1328 1.40037 16.7856 1.62466 16.71 1.97659L16.2352 4.18676C14.7235 1.61429 11.9488 -1.39223e-08 8.90766 -1.39223e-08C4.22426 -1.39223e-08 0.414063 3.80063 0.414063 8.47237C0.414063 8.83227 0.706556 9.12409 1.06742 9.12409C1.42822 9.12409 1.72077 8.83227 1.72077 8.47237C1.72077 4.5194 4.94478 1.30344 8.90766 1.30344C11.4912 1.30344 13.8478 2.68003 15.1237 4.8719L12.9454 4.40626C12.5925 4.33081 12.2452 4.55506 12.1697 4.90699C12.0941 5.25892 12.3189 5.60542 12.6717 5.68081L16.4108 6.48008C16.4743 6.49369 16.5388 6.4976 16.6024 6.49228C16.7083 6.48337 16.8116 6.4487 16.9026 6.38999C17.0481 6.29609 17.1502 6.14838 17.1865 5.97941L17.9879 2.24969C18.0633 1.89781 17.8386 1.55141 17.4858 1.47591Z" fill="#292929"/>
<path d="M16.8255 7.61815C16.4649 7.63004 16.1821 7.93129 16.194 8.29099C16.2574 10.2049 15.5699 12.0287 14.2579 13.4268C12.946 14.8247 11.1669 15.6295 9.24833 15.6927C9.16836 15.6953 9.08881 15.6966 9.00915 15.6966C6.50571 15.6965 4.19953 14.3995 2.89711 12.2982L5.16801 12.9056C5.51653 12.9988 5.87483 12.7926 5.96829 12.4449C6.06174 12.0972 5.85497 11.7399 5.50644 11.6466L1.81296 10.6588C1.6456 10.6141 1.4672 10.6374 1.31719 10.7238C1.16708 10.8101 1.05758 10.9525 1.01268 11.1195L0.0224559 14.8038C-0.0709998 15.1515 0.135774 15.5088 0.484298 15.6021C0.541009 15.6173 0.597877 15.6246 0.653909 15.6246C0.942325 15.6246 1.20633 15.4325 1.28458 15.1414L1.84118 13.0707C3.38958 15.5027 6.08479 17.0001 9.00884 17C9.10276 17 9.19721 16.9985 9.2915 16.9954C11.559 16.9206 13.6615 15.9696 15.212 14.3175C16.7624 12.6653 17.575 10.5098 17.5001 8.24798C17.4882 7.88833 17.1861 7.60538 16.8255 7.61815Z" fill="#292929"/>
</svg>
