<svg width="27" height="24" viewBox="0 0 27 24" fill="none" xmlns="http://www.w3.org/2000/svg">
<path d="M26.7224 20.8844L15.2937 1.03828C14.9237 0.395743 14.24 -7.77228e-08 13.5 -7.77228e-08C12.7602 -7.77228e-08 12.0764 0.395661 11.7064 1.03828L0.277629 20.8844C-0.0925158 21.527 -0.0925158 22.3188 0.277465 22.9615C0.647447 23.6041 1.33121 24 2.07125 24H24.9288C25.6688 24 26.3526 23.6042 26.7226 22.9615C27.0925 22.3188 27.0925 21.527 26.7224 20.8844ZM2.07125 21.923L13.5 2.07689L24.9288 21.923H2.07125Z" fill="#F53B3B"/>
<path d="M12.068 9.22717L12.662 16.0461C12.6967 16.4475 13.0144 16.7783 13.4284 16.8146C13.8922 16.8553 14.301 16.5112 14.3415 16.0461L14.9355 9.22717C14.9419 9.14748 14.9427 9.05817 14.9355 8.97602C14.8663 8.1819 14.1684 7.59449 13.3766 7.66375C12.5848 7.73317 11.9989 8.43322 12.068 9.22717Z" fill="#F53B3B"/>
<path d="M13.4985 19.6198C14.1546 19.6198 14.6864 19.0865 14.6864 18.4286C14.6864 17.7706 14.1546 17.2373 13.4985 17.2373C12.8424 17.2373 12.3105 17.7706 12.3105 18.4286C12.3105 19.0865 12.8424 19.6198 13.4985 19.6198Z" fill="#F53B3B"/>
</svg>
