<svg width="46" height="52" viewBox="0 0 46 52" fill="none" xmlns="http://www.w3.org/2000/svg">
<path d="M27 0H3C1.34315 0 0 1.34315 0 3V49C0 50.6569 1.34315 52 3 52H37C38.6569 52 40 50.6569 40 49V13L27 0Z" fill="#E9E9E9"/>
<path d="M27 10V0L40 13H30C28.3431 13 27 11.6569 27 10Z" fill="#CBCBCB"/>
<rect x="6" y="23" width="40" height="19" rx="2" fill="#F83453"/>
<path d="M20.1689 31.459L21.6631 28.8906H23.0889L20.9404 32.416L23.1377 36H21.6973L20.1689 33.3926L18.6357 36H17.2002L19.4023 32.416L17.249 28.8906H18.6748L20.1689 31.459ZM25.2861 35.0137H28.5137V36H24.0508V28.8906H25.2861V35.0137ZM33.1768 34.1689C33.1768 33.8564 33.0661 33.6156 32.8447 33.4463C32.6266 33.277 32.2311 33.1061 31.6582 32.9336C31.0853 32.7611 30.6296 32.569 30.291 32.3574C29.6432 31.9505 29.3193 31.4199 29.3193 30.7656C29.3193 30.1927 29.5521 29.7207 30.0176 29.3496C30.4863 28.9785 31.0934 28.793 31.8389 28.793C32.3337 28.793 32.7747 28.8841 33.1621 29.0664C33.5495 29.2487 33.8538 29.5091 34.0752 29.8477C34.2965 30.1829 34.4072 30.5557 34.4072 30.9658H33.1768C33.1768 30.5947 33.0596 30.305 32.8252 30.0967C32.5941 29.8851 32.262 29.7793 31.8291 29.7793C31.4255 29.7793 31.1113 29.8656 30.8867 30.0381C30.6654 30.2106 30.5547 30.4515 30.5547 30.7607C30.5547 31.0212 30.6751 31.2393 30.916 31.415C31.1569 31.5876 31.554 31.7568 32.1074 31.9229C32.6608 32.0856 33.1051 32.2728 33.4404 32.4844C33.7757 32.6927 34.0215 32.9336 34.1777 33.207C34.334 33.4772 34.4121 33.7946 34.4121 34.1592C34.4121 34.7516 34.1842 35.2236 33.7285 35.5752C33.276 35.9235 32.6608 36.0977 31.8828 36.0977C31.3685 36.0977 30.8949 36.0033 30.4619 35.8145C30.0322 35.6224 29.6969 35.3587 29.4561 35.0234C29.2184 34.6882 29.0996 34.2975 29.0996 33.8516H30.335C30.335 34.2552 30.4684 34.5677 30.7354 34.7891C31.0023 35.0104 31.3848 35.1211 31.8828 35.1211C32.3125 35.1211 32.6348 35.0348 32.8496 34.8623C33.0677 34.6865 33.1768 34.4554 33.1768 34.1689Z" fill="white"/>
</svg>
