<svg width="46" height="52" viewBox="0 0 46 52" fill="none" xmlns="http://www.w3.org/2000/svg">
<path d="M27 0H3C1.34315 0 0 1.34315 0 3V49C0 50.6569 1.34315 52 3 52H37C38.6569 52 40 50.6569 40 49V13L27 0Z" fill="#E9E9E9"/>
<path d="M27 10V0L40 13H30C28.3431 13 27 11.6569 27 10Z" fill="#CBCBCB"/>
<rect x="6" y="23" width="40" height="19" rx="2" fill="#F83453"/>
<path d="M16.7227 36V28.8906H18.8223C19.4505 28.8906 20.0072 29.0306 20.4922 29.3105C20.9805 29.5905 21.3581 29.9876 21.625 30.502C21.8919 31.0163 22.0254 31.6055 22.0254 32.2695V32.626C22.0254 33.2998 21.8903 33.8923 21.6201 34.4033C21.3532 34.9144 20.9707 35.3083 20.4727 35.585C19.9779 35.8617 19.4098 36 18.7686 36H16.7227ZM17.958 29.8867V35.0137H18.7637C19.4115 35.0137 19.9079 34.8118 20.2529 34.4082C20.6012 34.0013 20.7786 33.4186 20.7852 32.6602V32.2646C20.7852 31.4932 20.6175 30.904 20.2822 30.4971C19.9469 30.0902 19.4603 29.8867 18.8223 29.8867H17.958ZM28.9297 32.6309C28.9297 33.3275 28.8092 33.9395 28.5684 34.4668C28.3275 34.9909 27.9824 35.3945 27.5332 35.6777C27.0872 35.9577 26.5729 36.0977 25.9902 36.0977C25.4141 36.0977 24.8997 35.9577 24.4473 35.6777C23.998 35.3945 23.6497 34.9925 23.4023 34.4717C23.1582 33.9508 23.0345 33.3503 23.0312 32.6699V32.2695C23.0312 31.5762 23.1533 30.9642 23.3975 30.4336C23.6449 29.903 23.9915 29.4977 24.4375 29.2178C24.8867 28.9346 25.401 28.793 25.9805 28.793C26.5599 28.793 27.0726 28.9329 27.5186 29.2129C27.9678 29.4896 28.3145 29.89 28.5586 30.4141C28.8027 30.9349 28.9264 31.542 28.9297 32.2354V32.6309ZM27.6943 32.2598C27.6943 31.472 27.5446 30.8682 27.2451 30.4482C26.9489 30.0283 26.5273 29.8184 25.9805 29.8184C25.4466 29.8184 25.0283 30.0283 24.7256 30.4482C24.4261 30.8649 24.2731 31.4557 24.2666 32.2207V32.6309C24.2666 33.4121 24.418 34.016 24.7207 34.4424C25.0267 34.8688 25.4499 35.082 25.9902 35.082C26.5371 35.082 26.957 34.8737 27.25 34.457C27.5462 34.0404 27.6943 33.4316 27.6943 32.6309V32.2598ZM35.585 33.6855C35.5133 34.444 35.2334 35.0365 34.7451 35.4629C34.2568 35.8861 33.6074 36.0977 32.7969 36.0977C32.2305 36.0977 31.7308 35.9642 31.2979 35.6973C30.8682 35.4271 30.5361 35.0446 30.3018 34.5498C30.0674 34.055 29.9453 33.4805 29.9355 32.8262V32.1621C29.9355 31.4915 30.0544 30.9007 30.292 30.3896C30.5296 29.8786 30.8698 29.4847 31.3125 29.208C31.7585 28.9313 32.2728 28.793 32.8555 28.793C33.64 28.793 34.2715 29.0062 34.75 29.4326C35.2285 29.859 35.5068 30.4613 35.585 31.2393H34.3545C34.2959 30.7282 34.1462 30.3604 33.9053 30.1357C33.6676 29.9079 33.3177 29.7939 32.8555 29.7939C32.3184 29.7939 31.9049 29.9909 31.6152 30.3848C31.3288 30.7754 31.1823 31.3499 31.1758 32.1084V32.7383C31.1758 33.5065 31.3125 34.0924 31.5859 34.4961C31.8626 34.8997 32.2663 35.1016 32.7969 35.1016C33.2819 35.1016 33.6465 34.9925 33.8906 34.7744C34.1348 34.5563 34.2894 34.1934 34.3545 33.6855H35.585Z" fill="white"/>
</svg>
