<svg width="33" height="32" viewBox="0 0 33 32" fill="none" xmlns="http://www.w3.org/2000/svg">
<path d="M30.3298 23.3802C30.204 23.0376 29.8261 22.8623 29.4854 22.9888L22.6487 25.5262C22.3081 25.6526 22.1339 26.0328 22.2596 26.3754C22.3576 26.6425 22.6089 26.8079 22.8764 26.8079C22.9519 26.8079 23.0288 26.7947 23.1039 26.7669L29.9406 24.2295C30.2812 24.1031 30.4554 23.7228 30.3298 23.3802Z" fill="#999999"/>
<path d="M21.6127 26.6152C21.4871 26.2725 21.109 26.0973 20.7683 26.2237L20.4788 26.3311C20.1382 26.4576 19.964 26.8378 20.0896 27.1803C20.1876 27.4474 20.439 27.6129 20.7065 27.6129C20.782 27.6129 20.8589 27.5997 20.934 27.5719L21.2235 27.4644C21.5641 27.338 21.7384 26.9579 21.6127 26.6152Z" fill="#999999"/>
<path d="M30.3295 20.6856C30.2037 20.343 29.8258 20.1679 29.4851 20.2942L24.0823 22.2994C23.7417 22.4258 23.5675 22.806 23.6932 23.1487C23.7912 23.4158 24.0425 23.5812 24.31 23.5812C24.3855 23.5812 24.4624 23.5679 24.5375 23.5401L29.9403 21.5349C30.2809 21.4085 30.4551 21.0283 30.3295 20.6856Z" fill="#999999"/>
<path d="M30.3295 18.0191C30.2037 17.6765 29.8258 17.5014 29.4851 17.6277L24.0823 19.6329C23.7417 19.7593 23.5675 20.1395 23.6932 20.4822C23.7912 20.7493 24.0425 20.9146 24.31 20.9146C24.3855 20.9146 24.4624 20.9014 24.5375 20.8736L29.9403 18.8684C30.2809 18.742 30.4551 18.3618 30.3295 18.0191Z" fill="#999999"/>
<path d="M32.5702 5.9207L16.7276 0.0408431C16.5807 -0.0136144 16.4193 -0.0136144 16.2725 0.0408431L0.429838 5.9207L0.429709 5.92121C0.377824 5.94053 0.327938 5.96608 0.281531 5.99856C0.105123 6.12225 0 6.32485 0 6.54106V25.4589C0 25.7358 0.17151 25.9834 0.429773 26.0793L16.2724 31.9592C16.3463 31.9866 16.4233 32 16.4999 32C16.5773 32 16.6544 31.9859 16.7273 31.9588L16.7276 31.9592L32.5702 26.0793C32.8285 25.9834 33 25.7359 33 25.4589V6.54106C33 6.2641 32.8285 6.01658 32.5702 5.9207ZM15.8426 30.3901L1.31471 24.9981V7.48985L4.27286 8.58782V16.5994C4.27286 16.8763 4.44437 17.1239 4.70263 17.2198L11.8022 19.8548C11.8761 19.8822 11.9531 19.8957 12.0297 19.8957C12.1624 19.8957 12.2939 19.8553 12.4057 19.7769C12.582 19.6533 12.6871 19.4507 12.6871 19.2344V11.7107L15.8425 12.8818V30.3901H15.8426ZM11.3725 11.2227V18.2855L5.58764 16.1385V9.07566L11.3725 11.2227ZM6.82926 8.12162L12.0299 6.19143L17.2304 8.12162L12.0299 10.0518L6.82926 8.12162ZM16.5 11.7161L13.9218 10.7592L19.3571 8.74192C19.6153 8.64603 19.7869 8.39851 19.7869 8.12156C19.7869 7.8446 19.6153 7.59708 19.3571 7.50119L12.2574 4.86623C12.1105 4.81177 11.9492 4.81177 11.8023 4.86623L4.92312 7.41951L2.5564 6.54106L16.5 1.36604L30.4436 6.54112L16.5 11.7161ZM31.6853 24.9981L17.1574 30.39V12.8818L31.6853 7.48985V24.9981Z" fill="#999999"/>
</svg>
