<svg width="21" height="23" viewBox="0 0 21 23" fill="none" xmlns="http://www.w3.org/2000/svg">
<path d="M20.9904 5.42233C20.9904 5.33495 20.9711 5.24757 20.9326 5.16505C20.8556 5 20.7063 4.88835 20.5426 4.85437L10.7359 0.0582524C10.577 -0.0194175 10.3893 -0.0194175 10.2304 0.0582524L0.327373 4.89806C0.134801 4.99029 0.00962857 5.18447 -3.67302e-08 5.40291V5.40777C-3.67302e-08 5.41262 -3.67302e-08 5.41748 -3.67302e-08 5.42718V17.5728C-3.67302e-08 17.7961 0.125172 18 0.327373 18.0971L10.2304 22.9369C10.2352 22.9369 10.2352 22.9369 10.24 22.9417C10.2545 22.9466 10.2689 22.9515 10.2834 22.9612C10.2882 22.9612 10.293 22.966 10.3026 22.966C10.3171 22.9709 10.3315 22.9757 10.3459 22.9806C10.3508 22.9806 10.3556 22.9854 10.3604 22.9854C10.3748 22.9903 10.3941 22.9903 10.4085 22.9951C10.4133 22.9951 10.4182 22.9951 10.423 22.9951C10.4422 22.9951 10.4663 23 10.4856 23C10.5048 23 10.5289 23 10.5481 22.9951C10.553 22.9951 10.5578 22.9951 10.5626 22.9951C10.577 22.9951 10.5963 22.9903 10.6107 22.9854C10.6155 22.9854 10.6204 22.9806 10.6252 22.9806C10.6396 22.9757 10.6541 22.9709 10.6685 22.966C10.6733 22.966 10.6781 22.9612 10.6878 22.9612C10.7022 22.9563 10.7166 22.9515 10.7311 22.9417C10.7359 22.9417 10.7359 22.9417 10.7407 22.9369L20.6726 18.0825C20.87 17.9854 21 17.7816 21 17.5583V5.43689C20.9904 5.43204 20.9904 5.42718 20.9904 5.42233ZM10.4807 1.22816L19.0695 5.42718L15.9065 6.97573L7.31774 2.7767L10.4807 1.22816ZM10.4807 9.62621L1.89202 5.42718L5.99381 3.42233L14.5825 7.62136L10.4807 9.62621ZM1.15543 6.36408L9.90303 10.6408V21.4806L1.15543 17.2039V6.36408ZM11.0585 21.4806V10.6408L15.1651 8.63107V11.466C15.1651 11.7864 15.425 12.0485 15.7428 12.0485C16.0605 12.0485 16.3205 11.7864 16.3205 11.466V8.06311L19.8349 6.34466V17.1845L11.0585 21.4806Z" fill="#14AAE6"/>
</svg>
