<svg width="22" height="21" viewBox="0 0 22 21" fill="none" xmlns="http://www.w3.org/2000/svg">
<path d="M21.9996 7.51765C21.9996 7.51765 22.0805 3.68235 19.938 1.53143C18.9259 0.515261 17.6017 6.78686e-09 16.0024 6.78686e-09H2.79882C1.2555 6.78686e-09 0 1.22175 0 2.72346V17.413C0 19.3909 1.65367 21 3.68623 21H18.3132C20.3458 21 21.9994 19.3909 21.9994 17.413L21.9996 7.51765ZM2.79882 1.43484H16.0024C17.2021 1.43484 18.1418 1.79182 18.8754 2.52626C19.4102 3.06166 19.7717 3.73905 20.0162 4.41955C19.5973 4.20628 19.1298 4.01224 18.3132 4.01224C17.4966 4.01224 3.68623 4.01224 3.68623 4.01224H2.79882C2.06859 4.01224 1.47449 3.43413 1.47449 2.72357C1.47449 2.01301 2.06859 1.43484 2.79882 1.43484ZM20.5249 12.1525H19.2168C18.8096 12.1525 18.4795 12.4737 18.4795 12.8699C18.4795 13.266 18.8096 13.5873 19.2168 13.5873H20.5249V15.0682H18.8445C17.6249 15.0682 16.6327 14.1028 16.6327 12.916V12.8239C16.6327 11.6372 17.6249 10.6717 18.8445 10.6717H20.5249V12.1525ZM20.5249 9.23681H18.8445C16.8119 9.23681 15.1583 10.846 15.1583 12.8238V12.9158C15.1583 14.8937 16.8119 16.5028 18.8445 16.5028H20.5249V17.413C20.5249 18.5997 19.5328 19.5652 18.3132 19.5652H3.68623C2.46665 19.5652 1.47449 18.5997 1.47449 17.413V5.12207C1.86901 5.32914 2.32002 5.44697 2.79882 5.44697H3.68623H18.3132C19.5328 5.44697 20.5249 6.41241 20.5249 7.59915V9.23681Z" fill="#14AAE6"/>
</svg>
