<svg width="18" height="18" viewBox="0 0 18 18" fill="none" xmlns="http://www.w3.org/2000/svg">
<path d="M8.97007 9.54058C11.6302 9.54058 13.7878 7.4009 13.7878 4.76297C13.7878 2.12504 11.6302 -1.20854e-09 8.97007 -1.20854e-09C6.30999 -1.20854e-09 4.15234 2.13968 4.15234 4.76297C4.15234 7.38626 6.30996 9.54058 8.97007 9.54058ZM8.97007 1.2457C10.9208 1.2457 12.5169 2.82846 12.5169 4.76297C12.5169 6.69748 10.9208 8.28021 8.97007 8.28021C7.01935 8.28021 5.42327 6.69745 5.42327 4.76294C5.42327 2.82843 7.01932 1.2457 8.97007 1.2457Z" fill="#14AAE6"/>
<path d="M0.635461 17.9993H17.3645C17.7192 17.9993 18 17.7208 18 17.3691C18 14.0717 15.2956 11.3751 11.9557 11.3751H6.04434C2.71922 11.3751 0 14.057 0 17.3691C0 17.7208 0.280784 17.9993 0.635461 17.9993ZM6.04434 12.6355H11.9557C14.3793 12.6355 16.3744 14.4234 16.6847 16.7389H1.31527C1.6256 14.4381 3.6207 12.6355 6.04434 12.6355Z" fill="#14AAE6"/>
</svg>
