<svg width="17" height="17" viewBox="0 0 17 17" fill="none" xmlns="http://www.w3.org/2000/svg">
<path d="M12.3085 0H4.69128C2.10451 0 0 2.10461 0 4.69139V12.3086C0 14.8955 2.10451 17 4.69128 17H12.3085C14.8955 17 17 14.8954 17 12.3086V4.69139C17.0001 2.10461 14.8955 0 12.3085 0ZM15.4918 12.3086C15.4918 14.0638 14.0638 15.4917 12.3086 15.4917H4.69128C2.9362 15.4918 1.50832 14.0638 1.50832 12.3086V4.69139C1.50832 2.9363 2.9362 1.50832 4.69128 1.50832H12.3085C14.0637 1.50832 15.4917 2.9363 15.4917 4.69139V12.3086H15.4918Z" fill="white"/>
<path d="M8.50156 4.11975C6.08614 4.11975 4.12109 6.08479 4.12109 8.50022C4.12109 10.9155 6.08614 12.8805 8.50156 12.8805C10.917 12.8805 12.882 10.9155 12.882 8.50022C12.882 6.08479 10.917 4.11975 8.50156 4.11975ZM8.50156 11.3721C6.91793 11.3721 5.62942 10.0838 5.62942 8.50012C5.62942 6.91638 6.91783 5.62797 8.50156 5.62797C10.0853 5.62797 11.3737 6.91638 11.3737 8.50012C11.3737 10.0838 10.0852 11.3721 8.50156 11.3721Z" fill="white"/>
<path d="M13.0631 2.84106C12.7725 2.84106 12.4871 2.95871 12.2818 3.16485C12.0756 3.36998 11.957 3.65556 11.957 3.94717C11.957 4.23787 12.0757 4.52335 12.2818 4.72948C12.487 4.93462 12.7725 5.05327 13.0631 5.05327C13.3547 5.05327 13.6393 4.93462 13.8455 4.72948C14.0516 4.52335 14.1692 4.23777 14.1692 3.94717C14.1692 3.65556 14.0516 3.36998 13.8455 3.16485C13.6403 2.95871 13.3547 2.84106 13.0631 2.84106Z" fill="white"/>
</svg>
