<svg width="46" height="20" viewBox="0 0 46 20" fill="none" xmlns="http://www.w3.org/2000/svg">
<path d="M13.2133 13.2195H9.53927L7.85897 7.24937L6.1847 13.2195H2.50312L-9.19796e-08 2.04639H3.70871L4.67168 7.09564L6.08072 2.04639H9.6312L11.0433 7.09266L12.0077 2.04639H15.7014L13.2133 13.2195ZM9.94616 12.6882H12.7838L15.0338 2.58071H12.4493L11.1397 9.43444L9.2228 2.58071H6.48912L4.57373 9.44639L3.26566 2.58071H0.669106L2.94014 12.6912H5.77782L7.85747 5.26728L9.94616 12.6882Z" fill="#BDC2C5"/>
<path d="M26.3528 13.2195H16.7578V2.04639H26.1916V4.84937H20.6157V6.01355H25.7832V8.71504H20.6217V10.2822H26.3483L26.3528 13.2195ZM17.2928 12.6882H25.8164V10.8091H20.0898V8.18071H25.2588V6.53892H20.0853V4.31803H25.6611V2.58071H17.2943L17.2928 12.6882Z" fill="#BDC2C5"/>
<path d="M4.93803 15.1179L4.03383 15.2806C4.01564 15.1255 3.94185 14.982 3.82587 14.8761C3.70696 14.7819 3.55755 14.7336 3.40541 14.7403C3.30207 14.736 3.19907 14.7548 3.10409 14.7954C3.00911 14.8359 2.9246 14.8972 2.85687 14.9746C2.72023 15.1309 2.65192 15.393 2.65192 15.7612C2.65192 16.1692 2.72124 16.4577 2.85988 16.6269C2.92654 16.7091 3.01167 16.7747 3.10848 16.8185C3.2053 16.8623 3.31111 16.883 3.41747 16.8791C3.57406 16.8848 3.72699 16.8314 3.84545 16.7299C3.97696 16.5902 4.05941 16.4122 4.08055 16.2224L4.98474 16.3717C4.91934 16.7342 4.7286 17.063 4.44524 17.3015C4.13557 17.5248 3.75783 17.636 3.37527 17.6164C3.15008 17.6269 2.9252 17.5899 2.71554 17.5078C2.50588 17.4257 2.31622 17.3005 2.15913 17.1403C1.85773 16.8229 1.70703 16.3831 1.70703 15.8209C1.70703 15.2587 1.85773 14.8164 2.15913 14.494C2.31882 14.3337 2.5109 14.2085 2.72281 14.1267C2.93472 14.0449 3.16168 14.0083 3.38884 14.0194C3.74586 14.0007 4.09959 14.0953 4.39852 14.2896C4.66745 14.4976 4.85755 14.7895 4.93803 15.1179Z" fill="#BDC2C5"/>
<path d="M5.42256 15.7747C5.42386 15.4682 5.50151 15.1668 5.64861 14.8971C5.79142 14.6223 6.01464 14.3965 6.28908 14.2494C6.57285 14.0983 6.89075 14.0213 7.21287 14.0255C7.45208 14.0171 7.69045 14.0579 7.91298 14.1452C8.1355 14.2326 8.33737 14.3646 8.50587 14.5329C8.67276 14.702 8.80338 14.9027 8.88988 15.123C8.97639 15.3434 9.01698 15.5788 9.00921 15.815C9.0166 16.0536 8.9753 16.2911 8.88778 16.5135C8.80025 16.7359 8.66831 16.9384 8.49984 17.1091C8.3338 17.2777 8.13423 17.4105 7.91374 17.4988C7.69326 17.5872 7.45666 17.6293 7.2189 17.6225C6.90484 17.622 6.59522 17.5489 6.3147 17.4091C6.03344 17.2743 5.80241 17.0549 5.65464 16.7822C5.49334 16.4709 5.41354 16.1245 5.42256 15.7747ZM6.36443 15.824C6.34531 16.1063 6.43287 16.3856 6.61007 16.6076C6.68532 16.6926 6.77802 16.7607 6.88197 16.8073C6.98593 16.854 7.09874 16.8781 7.21287 16.8781C7.327 16.8781 7.43982 16.854 7.54377 16.8073C7.64773 16.7607 7.74042 16.6926 7.81567 16.6076C7.99271 16.3827 8.07965 16.101 8.0598 15.8165C8.07841 15.5363 7.99142 15.2593 7.81567 15.0389C7.74042 14.9539 7.64773 14.8858 7.54377 14.8392C7.43982 14.7925 7.327 14.7684 7.21287 14.7684C7.09874 14.7684 6.98593 14.7925 6.88197 14.8392C6.77802 14.8858 6.68532 14.9539 6.61007 15.0389C6.43287 15.2609 6.34531 15.5402 6.36443 15.8225V15.824Z" fill="#BDC2C5"/>
<path d="M9.66016 14.1015H10.5071V14.5716C10.6322 14.4031 10.7953 14.2658 10.9834 14.1707C11.1715 14.0756 11.3794 14.0253 11.5906 14.0239C11.7921 14.0189 11.9915 14.0657 12.1693 14.1597C12.3396 14.2572 12.4789 14.3999 12.5717 14.5716C12.7066 14.4026 12.8748 14.2625 13.066 14.1597C13.2408 14.0692 13.4353 14.0226 13.6326 14.0239C13.8582 14.0153 14.082 14.0668 14.2806 14.1731C14.4581 14.2761 14.5971 14.4332 14.6769 14.6209C14.7527 14.8509 14.7849 15.0927 14.7719 15.3343V17.5343H13.8526V15.5761C13.8526 15.2348 13.821 15.0144 13.7577 14.9149C13.7154 14.8509 13.6566 14.7993 13.5875 14.7652C13.5184 14.7311 13.4414 14.7158 13.3643 14.7209C13.234 14.7214 13.1071 14.762 13.0012 14.8373C12.8832 14.921 12.7967 15.0413 12.7555 15.1791C12.6955 15.4115 12.6701 15.6513 12.6802 15.891V17.5433H11.7609V15.6582C11.7715 15.4411 11.7548 15.2235 11.7112 15.0104C11.6862 14.9235 11.6333 14.847 11.5605 14.7925C11.4767 14.7408 11.3788 14.7158 11.2802 14.7209C11.1439 14.7193 11.0104 14.7589 10.8974 14.8343C10.7814 14.9131 10.6954 15.0282 10.6533 15.1612C10.5937 15.3926 10.5688 15.6315 10.5794 15.8701V17.5418H9.66016V14.1015Z" fill="#BDC2C5"/>
<path d="M15.6602 14.1016H16.5176V14.6076C16.6313 14.4327 16.7865 14.2882 16.9697 14.1867C17.1619 14.0778 17.3798 14.0217 17.6012 14.024C17.7969 14.0223 17.9906 14.0636 18.1683 14.1448C18.346 14.2261 18.5033 14.3454 18.6289 14.4941C18.9102 14.8076 19.0509 15.2439 19.0509 15.8031C19.0509 16.3782 18.9092 16.826 18.6259 17.1464C18.5007 17.2968 18.3433 17.4178 18.165 17.5004C17.9866 17.583 17.792 17.6252 17.5951 17.624C17.4148 17.6264 17.2364 17.5876 17.0737 17.5106C16.8871 17.4112 16.7202 17.2792 16.5809 17.121V18.8494H15.6617L15.6602 14.1016ZM16.5644 15.7643C16.5644 16.1514 16.6417 16.4369 16.7964 16.621C16.8629 16.7074 16.9486 16.7774 17.0469 16.8256C17.1452 16.8737 17.2534 16.8987 17.3631 16.8986C17.4657 16.9 17.5673 16.8778 17.6599 16.8338C17.7524 16.7898 17.8334 16.7251 17.8965 16.6449C18.0382 16.4757 18.109 16.1976 18.109 15.8106C18.109 15.4494 18.0357 15.1817 17.889 15.0076C17.8252 14.9253 17.743 14.8587 17.6489 14.8131C17.5548 14.7675 17.4513 14.7442 17.3465 14.7449C17.2396 14.7432 17.1338 14.7655 17.0369 14.8102C16.9401 14.855 16.8547 14.9209 16.7874 15.0031C16.6256 15.2231 16.5482 15.4929 16.5689 15.7643H16.5644Z" fill="#BDC2C5"/>
<path d="M20.4658 15.1522L19.6309 15.0029C19.6977 14.7052 19.8692 14.4408 20.1146 14.2566C20.3437 14.0965 20.6838 14.0164 21.1349 14.0164C21.4475 14.001 21.7599 14.0519 22.0511 14.1656C22.2276 14.2404 22.3757 14.3683 22.4746 14.5313C22.556 14.6795 22.5966 14.9512 22.5966 15.3462L22.5861 16.4089C22.5802 16.6326 22.5948 16.8564 22.6298 17.0775C22.6653 17.2375 22.721 17.3925 22.7956 17.5387H21.8914C21.8673 17.478 21.8376 17.3885 21.8025 17.2701C21.7874 17.2164 21.7768 17.1805 21.7693 17.1626C21.624 17.3071 21.4528 17.4235 21.2645 17.5059C21.0834 17.5819 20.8885 17.6205 20.6918 17.6193C20.3828 17.6364 20.0794 17.533 19.8464 17.3313C19.7454 17.24 19.6652 17.1285 19.6109 17.0043C19.5566 16.88 19.5295 16.7458 19.5314 16.6104C19.528 16.4272 19.5766 16.2467 19.6716 16.0895C19.7655 15.9367 19.9029 15.8147 20.0664 15.7387C20.3003 15.6385 20.5458 15.5673 20.7973 15.5268C21.1015 15.4796 21.4006 15.4046 21.6909 15.3029V15.2119C21.6979 15.1437 21.6897 15.0749 21.6671 15.0103C21.6444 14.9456 21.6078 14.8865 21.5598 14.8372C21.4121 14.7468 21.2383 14.7074 21.0655 14.7253C20.9311 14.7176 20.7975 14.751 20.6828 14.8208C20.5782 14.9069 20.5025 15.0225 20.4658 15.1522ZM21.6955 15.8984C21.5116 15.9539 21.325 16.0003 21.1364 16.0372C20.9623 16.0638 20.7934 16.1171 20.636 16.1955C20.5812 16.2295 20.536 16.2769 20.5046 16.333C20.4732 16.3891 20.4568 16.4522 20.4567 16.5164C20.4573 16.5787 20.471 16.6402 20.4969 16.697C20.5229 16.7538 20.5605 16.8046 20.6074 16.8462C20.6559 16.8925 20.7133 16.9286 20.7763 16.9525C20.8392 16.9763 20.9063 16.9874 20.9736 16.985C21.1454 16.983 21.312 16.9259 21.4483 16.8223C21.5531 16.7498 21.6305 16.6448 21.6683 16.5238C21.6993 16.3767 21.7115 16.2262 21.7045 16.0761L21.6955 15.8984Z" fill="#BDC2C5"/>
<path d="M26.6677 17.5432H25.7484V15.7865C25.7614 15.5447 25.7416 15.3022 25.6897 15.0656C25.6549 14.9629 25.5878 14.874 25.4983 14.8119C25.4039 14.7494 25.2922 14.7176 25.1788 14.7208C25.026 14.7191 24.8764 14.7645 24.7508 14.8507C24.6273 14.9327 24.5355 15.0537 24.4901 15.1939C24.4308 15.4533 24.407 15.7194 24.4193 15.985V17.5432H23.5V14.1014H24.3545V14.6074C24.5426 14.35 24.813 14.1631 25.1218 14.077C25.4306 13.9909 25.7597 14.0105 26.0559 14.1328C26.2049 14.1913 26.3362 14.2869 26.4371 14.4104C26.5235 14.5237 26.5846 14.654 26.6165 14.7925C26.6559 14.994 26.673 15.1992 26.6677 15.4044V17.5432Z" fill="#BDC2C5"/>
<path d="M32.3106 10.5091C32.4325 10.4044 32.529 10.2738 32.5929 10.127C32.6568 9.98022 32.6865 9.82108 32.6799 9.66138C32.6849 9.51015 32.6547 9.3598 32.5914 9.22207C32.5281 9.08433 32.4336 8.96294 32.3152 8.86736C32.072 8.66835 31.6461 8.56885 31.0372 8.56885H29.2695V10.8271H31.0433C31.642 10.8251 32.0645 10.7191 32.3106 10.5091Z" fill="#BDC2C5"/>
<path d="M31.9158 6.16251C32.0253 6.06013 32.1105 5.93506 32.1655 5.79625C32.2205 5.65743 32.2438 5.5083 32.2338 5.35952C32.2416 5.21717 32.2171 5.0749 32.1621 4.94317C32.107 4.81144 32.0229 4.6936 31.9158 4.59833C31.7038 4.41624 31.3341 4.3252 30.8067 4.3252H29.2695V6.44012H30.7765C31.318 6.44211 31.6978 6.34957 31.9158 6.16251Z" fill="#BDC2C5"/>
<path d="M35.8942 1.16981e-05C33.6688 -0.00338556 31.5052 0.724715 29.7426 2.07016H32.2699C33.3549 2.07016 34.1883 2.33633 34.77 2.86867C35.0504 3.11671 35.2734 3.42184 35.4238 3.76317C35.5741 4.10449 35.6482 4.47396 35.641 4.84628C35.6543 5.46855 35.4323 6.07327 35.0186 6.5418C34.6871 6.8913 34.2688 7.14861 33.8055 7.28807C34.6142 7.4811 35.2095 7.81195 35.5913 8.28061C35.985 8.78574 36.1876 9.41154 36.1639 10.0493C36.1724 10.5959 36.0318 11.1348 35.7571 11.609C35.4907 12.0656 35.1063 12.4438 34.6434 12.7045C34.2304 12.9073 33.7826 13.0313 33.3233 13.0702C32.8068 13.1463 32.2867 13.1962 31.765 13.2194H26.3398C27.036 15.2391 28.3648 16.9861 30.1329 18.206C30.2435 18.0655 30.3235 17.9039 30.368 17.7313L29.0464 14.2806H30.0244L30.8563 16.7239L31.6671 14.2806H32.6195L31.3928 17.5925L31.1728 18.1896C31.1124 18.3504 31.0351 18.5045 30.9422 18.6493L30.9106 18.6925C32.2547 19.4496 33.7564 19.8909 35.3 19.9822C36.8435 20.0735 38.3876 19.8125 39.8132 19.2193C41.2388 18.6261 42.5077 17.7165 43.5222 16.5607C44.5367 15.4049 45.2696 14.0337 45.6644 12.553C46.0591 11.0723 46.1052 9.52158 45.7991 8.02042C45.493 6.51926 44.8429 5.10779 43.8989 3.89487C42.9548 2.68194 41.7421 1.69996 40.3543 1.02467C38.9664 0.349376 37.4405 -0.00118833 35.8942 1.16981e-05Z" fill="#BDC2C5"/>
</svg>
