<svg width="18" height="18" viewBox="0 0 18 18" fill="none" xmlns="http://www.w3.org/2000/svg">
<path fill-rule="evenodd" clip-rule="evenodd" d="M16.9412 3.17647C17.222 3.17647 17.4913 3.28802 17.6899 3.48659C17.8884 3.68516 18 3.95448 18 4.23529V18H15.8824V4.23529C15.8824 3.95448 15.9939 3.68516 16.1925 3.48659C16.391 3.28802 16.6604 3.17647 16.9412 3.17647ZM11.6471 6.35294C11.9279 6.35294 12.1972 6.4645 12.3958 6.66306C12.5943 6.86163 12.7059 7.13095 12.7059 7.41176V18H10.5882V7.41176C10.5882 7.13095 10.6998 6.86163 10.8984 6.66306C11.0969 6.4645 11.3662 6.35294 11.6471 6.35294ZM6.35294 0C6.63376 0 6.90307 0.111554 7.10164 0.310122C7.30021 0.50869 7.41176 0.778006 7.41176 1.05882V18H5.29412V1.05882C5.29412 0.778006 5.40567 0.50869 5.60424 0.310122C5.80281 0.111554 6.07212 0 6.35294 0V0ZM1.05882 8.47059C1.33964 8.47059 1.60896 8.58214 1.80752 8.78071C2.00609 8.97928 2.11765 9.24859 2.11765 9.52941V18H0V9.52941C0 9.24859 0.111554 8.97928 0.310122 8.78071C0.50869 8.58214 0.778006 8.47059 1.05882 8.47059Z" fill="#14AAE6"/>
</svg>
