<svg width="20" height="19" viewBox="0 0 20 19" fill="none" xmlns="http://www.w3.org/2000/svg">
<path d="M15.8375 13.8223C14.4624 13.8223 13.3437 14.9835 13.3437 16.4109C13.3437 17.8383 14.4625 18.9995 15.8375 18.9995C17.2126 18.9995 18.3313 17.8383 18.3313 16.4109C18.3313 14.9835 17.2126 13.8223 15.8375 13.8223ZM15.8375 17.4464C15.2874 17.4464 14.84 16.9819 14.84 16.4109C14.84 15.8399 15.2874 15.3754 15.8375 15.3754C16.3876 15.3754 16.835 15.8399 16.835 16.4109C16.835 16.9819 16.3876 17.4464 15.8375 17.4464Z" fill="#14AAE6"/>
<path d="M19.841 3.81848C19.6994 3.63029 19.4822 3.52053 19.252 3.52053H4.618L3.94467 0.596148C3.86413 0.246699 3.56311 4.52967e-10 3.21697 4.52967e-10H0.74813C0.334924 -4.05483e-05 0 0.347625 0 0.77655C0 1.20548 0.334924 1.55314 0.74813 1.55314H2.62646L5.05788 12.1138C5.13843 12.4635 5.43945 12.7099 5.78558 12.7099H17.4316C17.7755 12.7099 18.0752 12.4666 18.1577 12.1202L19.9782 4.48372C20.0333 4.25183 19.9827 4.00667 19.841 3.81848ZM16.8462 11.1568H6.37609L4.97558 5.07371H18.2961L16.8462 11.1568Z" fill="#14AAE6"/>
<path d="M6.78283 13.8223C5.40774 13.8223 4.28906 14.9835 4.28906 16.4109C4.28906 17.8383 5.40778 18.9995 6.78283 18.9995C8.15787 18.9995 9.27659 17.8383 9.27659 16.4109C9.27659 14.9835 8.15787 13.8223 6.78283 13.8223ZM6.78283 17.4464C6.23271 17.4464 5.78532 16.9819 5.78532 16.4109C5.78532 15.8399 6.23271 15.3754 6.78283 15.3754C7.33295 15.3754 7.78033 15.8399 7.78033 16.4109C7.78033 16.9819 7.33295 17.4464 6.78283 17.4464Z" fill="#14AAE6"/>
</svg>
