<svg width="47" height="34" viewBox="0 0 47 34" fill="none" xmlns="http://www.w3.org/2000/svg">
<path d="M47 6.79999H0V34H47V6.79999Z" fill="#56B46F"/>
<path d="M43.644 6.80009H1.67969V3.40009L43.644 6.80009Z" fill="#74BE86"/>
<path d="M34.4093 20.3999C34.4093 26.5029 29.5247 31.4499 23.4986 31.4499C17.4725 31.4499 12.5879 26.5029 12.5879 20.3999C12.5879 14.2969 17.4725 9.34991 23.4986 9.34991C29.5247 9.34991 34.4093 14.2969 34.4093 20.3999Z" fill="#4D8157"/>
<path d="M17.7028 29.75C14.6343 27.7941 12.5882 24.3431 12.5882 20.4C12.5882 16.4568 14.6343 13.0058 17.7028 11.05H9.21004C9.22263 11.1902 9.23103 11.3313 9.23103 11.475C9.23103 14.0573 7.16387 16.15 4.61496 16.15C4.47312 16.15 4.33379 16.1415 4.19531 16.1287V24.6712C4.33379 24.6585 4.47312 24.65 4.61496 24.65C7.16387 24.65 9.23103 26.7427 9.23103 29.325C9.23103 29.4686 9.22263 29.6097 9.21004 29.75H17.7028Z" fill="#EAEAD7"/>
<path d="M42.3827 16.15C39.833 16.15 37.7667 14.0573 37.7667 11.475C37.7667 11.3313 37.7751 11.1902 37.7877 11.05H29.2949C32.3633 13.0058 34.4095 16.4568 34.4095 20.4C34.4095 24.3431 32.3633 27.7941 29.2949 29.75H37.7877C37.7751 29.6097 37.7667 29.4686 37.7667 29.325C37.7667 26.7427 39.833 24.65 42.3827 24.65C42.5246 24.65 42.6639 24.6585 42.8024 24.6712V16.1287C42.6639 16.1415 42.5246 16.15 42.3827 16.15Z" fill="#EAEAD7"/>
<path d="M4.61579 13.5999C3.45842 13.5999 2.51758 12.6471 2.51758 11.4749C2.51758 10.3028 3.45842 9.34991 4.61579 9.34991C5.77317 9.34991 6.71401 10.3028 6.71401 11.4749C6.71401 12.6471 5.77317 13.5999 4.61579 13.5999Z" fill="#EAEAD7"/>
<path d="M42.3853 13.5999C41.2279 13.5999 40.2871 12.6471 40.2871 11.4749C40.2871 10.3028 41.2279 9.34991 42.3853 9.34991C43.5427 9.34991 44.4835 10.3028 44.4835 11.4749C44.4835 12.6471 43.5427 13.5999 42.3853 13.5999Z" fill="#EAEAD7"/>
<path d="M4.61579 31.45C3.45842 31.45 2.51758 30.4972 2.51758 29.325C2.51758 28.1529 3.45842 27.2 4.61579 27.2C5.77317 27.2 6.71401 28.1529 6.71401 29.325C6.71401 30.4972 5.77317 31.45 4.61579 31.45Z" fill="#EAEAD7"/>
<path d="M42.3853 31.45C41.2279 31.45 40.2871 30.4972 40.2871 29.325C40.2871 28.1529 41.2279 27.2 42.3853 27.2C43.5427 27.2 44.4835 28.1529 44.4835 29.325C44.4835 30.4972 43.5427 31.45 42.3853 31.45Z" fill="#EAEAD7"/>
<path d="M4.19531 0V3.604L43.6417 6.8H46.1596L4.19531 0Z" fill="#83C38E"/>
<path d="M28.1712 22.9712C28.7671 22.7842 29.2052 22.2266 29.2052 21.5636V20.8241C29.2052 20.2572 28.8829 19.7676 28.418 19.5194C28.0957 16.7365 26.2795 15.6102 23.3596 15.6102C23.2219 15.6102 23.086 15.6153 22.9534 15.6264C21.9605 15.7063 20.9567 15.5176 20.1317 14.954C19.7884 14.7194 19.4997 14.4712 19.2966 14.2094C19.2034 14.0904 19.018 14.1661 19.0356 14.3174C19.065 14.5758 19.1078 14.8784 19.1732 15.2082C19.4141 16.4364 19.2697 16.2571 18.8006 17.4165C18.5412 18.0574 18.3742 18.7688 18.2962 19.5219C17.8346 19.7718 17.514 20.2589 17.514 20.8241V21.5636C17.514 22.2266 17.9529 22.7842 18.548 22.9712C18.9433 24.4689 19.7548 25.6666 21.1674 26.2828V27.1303C21.1674 27.347 21.0457 27.5442 20.8543 27.6403L18.0335 29.0479C17.7892 29.1822 17.5878 29.3666 17.4082 29.5698C19.1472 30.7564 21.2429 31.45 23.4981 31.45C25.6693 31.45 27.6878 30.7997 29.3873 29.6922C29.1783 29.4355 28.9156 29.2213 28.6101 29.0666L25.8581 27.642C25.6701 27.5451 25.5518 27.3496 25.5518 27.1362V26.2828C26.9643 25.6666 27.7759 24.4689 28.1712 22.9712Z" fill="#EAEAD7"/>
</svg>
