<svg width="79" height="27" viewBox="0 0 79 27" fill="none" xmlns="http://www.w3.org/2000/svg">
<path d="M77.9728 14.6892C77.8695 14.0978 77.3673 13.7429 76.6411 13.735C76.417 13.7319 76.1945 13.754 75.9768 13.7303C75.5477 13.6861 75.4348 13.8281 75.438 14.1656C75.4587 15.8215 75.4523 17.4759 75.446 19.1271C75.4412 19.993 74.5894 20.8825 73.5659 21.108C70.3875 21.8003 67.2122 22.5037 64.0306 23.1898C63.673 23.267 63.2963 23.3065 62.9324 23.3033C62.7735 23.3033 62.5542 23.1835 62.4858 23.0667C62.4413 22.9895 62.5812 22.8018 62.6908 22.7056C62.8355 22.5889 63.0198 22.4958 63.2089 22.4312C63.7922 22.2246 64.385 22.0369 64.9746 21.8429C67.3346 21.0638 69.6993 20.2942 72.0562 19.5104C73.1193 19.154 73.6931 18.4506 73.7105 17.5627C73.7646 14.686 73.7376 11.8094 73.7248 8.92961C73.7248 8.47383 73.4865 8.09374 72.9398 7.89661C72.3104 7.67266 71.7574 7.85087 71.2107 8.10951C67.8701 9.69135 64.5312 11.27 61.1874 12.8487C60.2037 13.314 59.6554 13.9874 59.6602 14.9463C59.6713 17.6668 59.6634 20.3825 59.6665 23.0999C59.6665 23.2355 59.6808 23.3743 59.7238 23.5036C60.0527 24.4278 60.9061 24.9577 62.0853 24.9577C64.4358 24.964 66.7942 24.9608 69.1463 24.9608C71.4904 24.9608 73.8265 24.964 76.1707 24.9577C76.6792 24.9577 77.148 24.8536 77.5295 24.5413C78.0237 24.1471 77.9983 23.6455 77.9983 23.1456C78.003 20.4961 78.003 17.8497 77.9999 15.1954C78.0046 15.0298 78.0015 14.8564 77.9728 14.6892ZM68.1991 13.8391C68.4359 13.2288 68.9524 12.8471 69.7407 12.7493C70.2619 12.6831 70.7164 13.0033 70.7911 13.4701C70.904 14.1892 69.9981 15.0251 69.1034 15.022C68.3564 15.022 67.9401 14.5031 68.1991 13.8391Z" fill="#FF7801"/>
<path d="M12.0989 3.32307C12.0989 4.16209 12.0989 4.98376 12.0989 5.81332C11.4584 5.81332 10.8625 5.81332 10.2204 5.81332C10.2204 4.96641 10.2204 4.14474 10.2204 3.31519C9.87238 3.31519 9.57043 3.31519 9.23828 3.31519C9.23828 5.39223 9.23828 7.433 9.23828 9.4785C9.58155 9.4785 9.89145 9.4785 10.2506 9.4785C10.2506 8.54485 10.2506 7.63644 10.2506 6.71857C10.8863 6.71857 11.4743 6.71857 12.1052 6.71857C12.1052 7.64906 12.1052 8.55905 12.1052 9.48165C12.4628 9.48165 12.7727 9.48165 13.1049 9.48165C13.1049 7.41881 13.1049 5.37488 13.1049 3.32307C12.7648 3.32307 12.4549 3.32307 12.0989 3.32307Z" fill="black"/>
<path d="M37.0782 20.2878C36.7826 18.8227 35.6606 17.9332 33.8695 17.7865C33.1639 17.7329 32.4456 17.7771 31.6844 17.7771C31.6844 16.4854 31.6844 15.1796 31.6844 13.8769C31.144 13.8769 30.6545 13.8769 30.1523 13.8769C30.1523 17.4664 30.1523 21.0306 30.1523 24.721C31.2855 24.721 32.3804 24.7857 33.4611 24.7037C35.0805 24.5838 36.3154 23.9451 36.8938 22.6345C37.2308 21.8744 37.2371 21.0827 37.0782 20.2878ZM34.7087 21.9312C34.4242 23.1297 33.1878 23.6944 31.6971 23.3442C31.6971 22.0132 31.6907 20.7042 31.7098 19.392C31.7098 19.3053 31.8624 19.1633 31.972 19.1428C33.4627 18.829 34.4591 19.321 34.7182 20.5559C34.8104 20.9991 34.8135 21.4864 34.7087 21.9312Z" fill="black"/>
<path d="M6.84099 3.04109e-05C6.29907 3.04109e-05 5.76032 0.00160751 5.21998 3.04109e-05C4.45715 -0.00312379 3.82464 0.233442 3.30496 0.689224C1.52026 2.25686 1.98908 5.23443 4.36339 5.87C3.5656 7.05914 2.77257 8.24512 1.94141 9.48788C2.27991 9.48788 2.54054 9.47053 2.79482 9.49261C3.13174 9.52257 3.30496 9.41375 3.46071 9.16615C4.05508 8.20885 4.686 7.26574 5.30262 6.31632C5.58709 5.88104 5.62206 5.86843 6.29271 5.99617C6.29271 7.1443 6.29271 8.30189 6.29271 9.45791C6.69796 9.45791 7.04918 9.45791 7.4306 9.45791C7.4306 9.25919 7.4306 9.09202 7.4306 8.92169C7.4306 6.10499 7.4306 3.28671 7.4306 0.468431C7.4306 3.18199e-05 7.42901 0.00160751 6.84099 3.04109e-05ZM6.26092 5.0026C5.48697 4.99471 4.67964 5.18554 4.09004 4.6099C3.41462 3.95225 3.22232 3.19209 3.47183 2.3578C3.49249 2.29156 3.52587 2.22848 3.55288 2.16539C4.05508 1.01884 4.71779 0.700265 6.26092 0.891094C6.26092 2.2616 6.26092 3.61317 6.26092 5.0026Z" fill="#E9291F"/>
<path d="M34.9667 8.59371C33.2805 9.152 32.1172 8.64733 31.8121 7.19009C31.6516 6.43466 31.7088 5.67449 31.9869 4.93799C32.362 3.9318 33.1073 3.63215 34.3469 3.96491C34.3708 3.97122 34.3994 3.96018 34.4423 3.95387C34.5662 3.8009 34.6934 3.64003 34.8316 3.46813C33.8082 2.80102 32.4049 2.9603 31.642 3.80247C31.0524 4.45224 30.822 5.20452 30.7473 5.99465C30.6631 6.90148 30.7759 7.7815 31.3798 8.57794C32.0123 9.41065 33.1089 9.80177 34.2373 9.53997C35.0335 9.35387 35.1225 9.27186 34.9667 8.59371Z" fill="black"/>
<path d="M8.27192 23.4405C8.27192 20.2389 8.27192 17.0737 8.27192 13.8801C6.29652 13.8801 4.38309 13.8801 2.51733 13.8801C2.43787 15.5029 2.39973 17.0989 2.26942 18.6918C2.1534 20.1049 1.83874 21.4912 1.2094 22.8254C1.00121 23.2654 0.751704 23.5556 0.116014 23.4499C0.0826398 23.4452 0.0413199 23.4704 0 23.4862C0 24.6596 0 25.8266 0 26.9937C0.580068 26.9937 1.12676 26.9937 1.71795 26.9937C1.71795 26.2004 1.71795 25.4386 1.71795 24.6785C3.80461 24.6785 5.84994 24.6785 7.93978 24.6785C7.93978 25.4639 7.93978 26.224 7.93978 27C8.52143 27 9.05541 27 9.60846 27C9.60846 25.814 9.60846 24.6438 9.60846 23.4405C9.14918 23.4405 8.72485 23.4405 8.27192 23.4405ZM6.40776 23.4278C5.11731 23.4278 3.84116 23.4278 2.64129 23.4278C2.96232 22.6298 3.35486 21.8444 3.59324 21.0291C4.0716 19.3905 4.06842 17.7093 4.08113 16.0328C4.08431 15.7742 4.08113 15.5124 4.08113 15.2285C4.86144 15.2285 5.61792 15.2285 6.40935 15.2285C6.40776 17.9411 6.40776 20.6616 6.40776 23.4278Z" fill="black"/>
<path d="M24.4408 8.67725C24.15 8.76084 23.8703 8.86177 23.5779 8.92013C22.7626 9.08414 22.1809 8.90435 21.871 8.39495C21.5071 7.79881 21.5246 7.1585 21.5468 6.48823C22.5926 6.48823 23.5969 6.48823 24.622 6.48823C24.6887 5.4852 24.5648 4.54524 23.9243 3.69046C23.3617 2.93975 22.3875 2.8199 21.6136 3.43654C21.3228 3.6668 21.078 3.96172 20.9064 4.26137C20.4264 5.09565 20.2437 5.9946 20.3565 6.90617C20.428 7.47234 20.5854 8.04799 20.8285 8.58105C21.1813 9.36487 21.9966 9.76545 22.939 9.66609C23.3951 9.61878 23.8512 9.49104 24.2803 9.34279C24.7587 9.17877 24.7714 9.02737 24.4408 8.67725ZM22.057 4.15728C22.4034 3.72988 22.9756 3.7425 23.2823 4.1904C23.6256 4.68718 23.6669 5.23602 23.6526 5.81166C22.9072 5.81166 22.2254 5.81166 21.5103 5.81166C21.5437 5.20921 21.6597 4.65091 22.057 4.15728Z" fill="black"/>
<path d="M27.2739 14.0819C27.2071 14.0015 27.1229 13.8801 27.0387 13.8769C26.5317 13.8564 26.0232 13.8643 25.4622 13.8643C25.4622 15.361 25.4622 16.8371 25.4622 18.3212C24.3593 18.3212 23.3104 18.3212 22.1725 18.3212C22.1725 16.8245 22.1725 15.3578 22.1725 13.8722C21.5574 13.8722 20.9964 13.8722 20.418 13.8722C20.418 17.5074 20.418 21.1237 20.418 24.7573C21.0139 24.7573 21.5845 24.7573 22.1947 24.7573C22.1947 24.5996 22.1947 24.464 22.1947 24.3315C22.1947 23.0604 22.1931 21.7971 22.1947 20.5275C22.1947 19.8289 22.1947 19.8289 23.037 19.8289C23.8348 19.8289 24.6326 19.8289 25.4749 19.8289C25.4749 21.5022 25.4749 23.125 25.4749 24.7605C26.0931 24.7605 26.6652 24.7605 27.258 24.7605C27.2659 24.6406 27.2787 24.5381 27.2787 24.4403C27.2787 21.0306 27.2787 17.6209 27.2787 14.2144C27.2787 14.1687 27.3009 14.1119 27.2739 14.0819Z" fill="black"/>
<path d="M28.2518 5.73284C28.8652 5.03261 29.4517 4.31818 30.0476 3.61006C30.1207 3.52332 30.1843 3.43185 30.286 3.29938C30.0937 3.29938 29.9809 3.31199 29.8744 3.2978C29.439 3.23944 29.1736 3.37981 28.9368 3.68892C28.4139 4.37023 27.8338 5.02 27.2744 5.6808C27.2109 5.75492 27.1314 5.81959 26.9788 5.96626C26.9788 5.01842 26.9788 4.17625 26.9788 3.31672C26.6356 3.31672 26.3352 3.31672 26.0078 3.31672C26.0078 5.34488 26.0078 7.33991 26.0078 9.33337C26.3415 9.33337 26.6419 9.33337 26.9931 9.33337C26.9931 8.61894 26.9772 7.91871 27.0027 7.22163C27.0122 6.98191 27.1235 6.74219 27.187 6.50247C27.3761 6.6176 27.4572 6.72011 27.5287 6.82735C28.0357 7.58278 28.5363 8.33822 29.048 9.08892C29.1148 9.18827 29.2292 9.32233 29.3372 9.33652C29.6265 9.37279 29.9237 9.34914 30.2812 9.34914C29.5693 8.27356 28.905 7.2579 28.2248 6.24698C28.0961 6.05773 28.0865 5.92052 28.2518 5.73284Z" fill="black"/>
<path d="M51.6003 13.8422C51.3142 13.8328 51.1855 13.9132 51.0838 14.1293C50.3956 15.6338 49.69 17.1305 48.9892 18.6303C48.6825 19.2864 48.3646 19.9425 48.0547 20.5985C48.0245 20.5954 48.0007 20.5891 47.9705 20.5859C47.9705 18.3527 47.9705 16.1196 47.9705 13.869C47.3539 13.869 46.7817 13.869 46.1953 13.869C46.1953 17.5106 46.1953 21.1395 46.1953 24.77C46.7817 24.77 47.3348 24.77 47.9387 24.77C49.0464 22.3949 50.1541 20.0103 51.2713 17.6052C51.2713 19.9992 51.2713 22.3822 51.2713 24.7637C51.9674 24.7637 52.6126 24.7637 53.2769 24.7637C53.2769 21.1221 53.2769 17.5058 53.2769 13.8501C52.7 13.8501 52.1501 13.8659 51.6003 13.8422Z" fill="black"/>
<path d="M17.9803 23.2039C17.4352 23.371 16.9441 23.5619 16.426 23.6675C14.743 24.0098 13.6433 23.5477 13.1633 22.3365C12.793 21.406 12.8073 20.4455 12.7914 19.4314C14.6349 19.4314 16.4228 19.4314 18.2838 19.4314C18.2075 18.5877 18.1996 17.7644 18.0454 16.968C17.8499 15.9697 17.4622 15.0124 16.6596 14.2081C15.9492 13.4968 15.0942 13.2902 14.0279 13.5772C12.9202 13.8753 12.2447 14.5661 11.7902 15.3846C10.4585 17.7865 10.344 20.261 11.3643 22.756C11.671 23.5098 12.1907 24.1659 13.0552 24.5854C14.5046 25.2935 16.8487 25.0475 18.3188 24.0271C18.2028 23.7432 18.0851 23.4562 17.9803 23.2039ZM13.621 15.484C13.8801 15.1228 14.2249 14.8279 14.8034 14.8547C15.3692 14.8847 15.7045 15.178 15.9317 15.5597C16.4339 16.416 16.5182 17.3339 16.5134 18.2865C15.2484 18.2865 14.0263 18.2865 12.739 18.2865C12.8343 17.2787 13.0123 16.334 13.621 15.484Z" fill="black"/>
<path d="M18.8025 8.65998C18.8025 6.8684 18.8025 5.09889 18.8025 3.31519C17.7107 3.31519 16.6634 3.31519 15.5557 3.31519C15.5557 3.71577 15.57 4.07535 15.5541 4.4365C15.5001 5.69188 15.454 6.94883 14.9264 8.15058C14.796 8.44708 14.6991 8.76407 14.1953 8.69784C14.1953 9.36653 14.1953 10.0037 14.1953 10.6377C14.5132 10.6377 14.7976 10.6377 15.1314 10.6377C15.1314 10.204 15.1314 9.79077 15.1314 9.37757C16.3201 9.37757 17.458 9.37757 18.6483 9.37757C18.6483 9.81442 18.6483 10.2276 18.6483 10.6314C18.9821 10.6314 19.2634 10.6314 19.5335 10.6314C19.5335 9.96267 19.5335 9.32552 19.5335 8.68837C19.2792 8.67891 19.0631 8.66945 18.8025 8.65998ZM17.7774 8.65998C17.0368 8.65998 16.3408 8.65998 15.5907 8.65998C16.5394 7.20274 16.4107 5.63668 16.479 4.07377C16.9129 4.07377 17.3324 4.07377 17.7774 4.07377C17.7774 5.60041 17.7774 7.11285 17.7774 8.65998Z" fill="black"/>
<path d="M38.7266 13.8658C38.7266 17.5153 38.7266 21.1379 38.7313 24.762C39.278 24.762 39.7977 24.762 40.3539 24.762C40.3539 21.4943 40.3539 18.2502 40.3539 14.9619C42.0258 14.9619 43.6659 14.9619 45.3012 14.9619C45.3012 14.5724 45.3012 14.227 45.3012 13.8658C43.1049 13.8658 40.9372 13.8658 38.7266 13.8658Z" fill="black"/>
</svg>
