<svg width="39" height="38" viewBox="0 0 39 38" fill="none" xmlns="http://www.w3.org/2000/svg">
<path d="M0.155261 17.0253L5.3434 1.92275C5.85639 0.428887 7.48207 -0.356046 8.97474 0.156951L34.2326 8.83277C35.7265 9.34577 36.5269 10.9643 36.0139 12.4582L30.8257 27.5607C30.3127 29.0546 28.6871 29.8395 27.1932 29.3265L1.93531 20.6507C0.442633 20.1377 -0.357735 18.5191 0.155261 17.0253Z" fill="#59A5E0"/>
<path d="M31.4416 25.7718L32.7773 21.8833L2.10328 11.3462L0.767512 15.2346L31.4416 25.7718Z" fill="#3E4347"/>
<path d="M30.7503 15.6819L31.084 14.7106L21.6017 11.4529L21.268 12.4242L30.7503 15.6819Z" fill="white"/>
<path d="M31.5452 13.3734L31.8789 12.402L22.3966 9.14435L22.0629 10.1157L31.5452 13.3734Z" fill="white"/>
<path d="M14.609 6.51011L13.5058 9.72228C13.3752 10.1035 12.9667 10.303 12.5962 10.1759L8.307 8.70222C7.93651 8.57516 7.73701 8.16785 7.86882 7.78548L8.972 4.57331C9.10262 4.19094 9.51112 3.99263 9.8923 4.12325L14.1601 5.58862C14.5413 5.72043 14.7408 6.12774 14.609 6.51011Z" fill="#E9EFF4"/>
<path d="M14.6106 6.51009L13.5074 9.72226C13.3768 10.1034 12.9683 10.3029 12.5978 10.1759L8.30855 8.7022C7.9713 8.58583 7.78605 8.24621 7.84187 7.90183C10.8355 8.72952 13.6392 7.98496 14.2757 6.13128C14.322 5.99591 14.3576 5.85816 14.3695 5.7121C14.6094 5.89378 14.7151 6.20609 14.6106 6.51009Z" fill="#DEE4E9"/>
<path d="M14.249 7.54785L14.3844 7.15479L12.4274 6.48267C12.4678 6.1193 12.3027 5.77611 11.9928 5.58255L12.2184 4.92349L11.8265 4.78931L11.5997 5.44718C11.2363 5.40918 10.8943 5.5778 10.702 5.89011L8.74618 5.21799L8.61081 5.61105L10.5286 6.27011L10.1391 7.40654L8.22012 6.74748L8.08594 7.14054L10.0417 7.81266C10.0014 8.17603 10.1676 8.52041 10.4787 8.71278L10.2531 9.37065L10.6462 9.50603L10.873 8.84697C11.234 8.88497 11.576 8.71634 11.7672 8.40522L13.7241 9.07734L13.8595 8.68428L11.9417 8.02522L12.3324 6.88879L14.249 7.54785ZM11.4786 8.09291C11.3824 8.37316 11.076 8.52278 10.7958 8.42778H10.7946C10.5144 8.3316 10.3659 8.02522 10.4621 7.74498L10.9917 6.20361C11.0879 5.92217 11.3943 5.77136 11.6745 5.86755C11.9548 5.96374 12.1044 6.27011 12.0082 6.55036L11.4786 8.09291Z" fill="#BBC7D1"/>
<g opacity="0.2">
<path opacity="0.2" d="M12.9673 5.58268C12.5196 6.88536 10.413 7.35442 8.26367 6.62886L8.97023 4.57331C9.10085 4.19094 9.50935 3.99263 9.89053 4.12325L13.0469 5.20743C13.0374 5.3428 13.0101 5.45918 12.9673 5.58268Z" fill="white"/>
</g>
<path d="M38.0006 19.1807V35.1501C38.0006 36.7294 36.7181 38 35.1388 38H8.43216C6.8528 38 5.57031 36.7294 5.57031 35.1501V19.1807C5.57031 17.6013 6.8528 16.3307 8.43216 16.3307H35.1388C36.7181 16.3307 38.0006 17.6013 38.0006 19.1807Z" fill="#65B1EF"/>
<path d="M34.0666 32.1255C34.0666 33.6241 32.8601 34.8413 31.3603 34.8413C29.8522 34.8413 28.6445 33.6241 28.6445 32.1255C28.6445 30.6162 29.8522 29.4097 31.3603 29.4097C32.8589 29.4097 34.0666 30.6162 34.0666 32.1255Z" fill="#E24B4B"/>
<path d="M30.7764 32.1255C30.7764 33.6241 29.5699 34.8413 28.0713 34.8413C26.562 34.8413 25.3555 33.6241 25.3555 32.1255C25.3555 30.6162 26.562 29.4097 28.0713 29.4097C29.5699 29.4097 30.7764 30.6162 30.7764 32.1255Z" fill="#FFD93B"/>
<path d="M37.9972 19.1782V35.1499C37.9972 36.7293 36.7147 37.9999 35.1354 37.9999H8.42873C7.64499 37.9999 6.93249 37.6793 6.42187 37.1806C21.123 36.8243 34.5891 28.3219 37.5578 17.6463C37.831 18.0857 37.9972 18.6082 37.9972 19.1782Z" fill="#59A5E0"/>
<path d="M19.5272 29.9131H9.5V31.2253H19.5272V29.9131Z" fill="white"/>
<path d="M19.5272 33.0256H9.5V34.3378H19.5272V33.0256Z" fill="white"/>
<path d="M38.0006 21.0746H5.57031V25.1857H38.0006V21.0746Z" fill="#5A5F63"/>
<path d="M36.1939 21.0746C35.4636 22.5055 34.5635 23.8854 33.4805 25.1857H38.0012V21.0746H36.1939Z" fill="#3E4347"/>
<path d="M34.0666 32.1255C34.0666 33.6241 32.8601 34.8413 31.3603 34.8413C29.8522 34.8413 28.6445 33.6241 28.6445 32.1255C28.6445 30.6162 29.8522 29.4097 31.3603 29.4097C32.8589 29.4097 34.0666 30.6162 34.0666 32.1255Z" fill="#D03F3F"/>
<path d="M28.0713 34.8412C29.5699 34.8412 30.7764 33.624 30.7764 32.1254C30.7764 30.8999 29.9748 29.8858 28.8716 29.5438C27.7803 30.3774 26.6118 31.1517 25.3804 31.8701C25.3721 31.9556 25.3555 32.0376 25.3555 32.1254C25.3555 33.624 26.562 34.8412 28.0713 34.8412Z" fill="#F4C534"/>
</svg>
