<svg height="512pt" viewBox="0 -76 512 512" width="512pt" xmlns="http://www.w3.org/2000/svg"><path d="m492 0h-472c-11.046875 0-20 8.953125-20 20v320c0 11.046875 8.953125 20 20 20h472c11.046875 0 20-8.953125 20-20v-320c0-11.046875-8.953125-20-20-20zm-20 320h-432v-280h432zm0 0"/><path d="m96 280h135.882812c11.046876 0 20-8.953125 20-20 0-35.410156-14.246093-71.292969-41.855468-92.109375 6.273437-9.050781 9.960937-20.023437 9.960937-31.84375 0-30.90625-25.144531-56.046875-56.046875-56.046875-30.90625 0-56.046875 25.140625-56.046875 56.046875 0 11.820313 3.6875 22.792969 9.960938 31.839844-27.695313 20.882812-41.855469 56.828125-41.855469 92.113281 0 11.046875 8.953125 20 20 20zm22.210938-40c6.191406-27.410156 24.632812-47.90625 45.730468-47.90625s39.539063 20.496094 45.730469 47.90625zm29.683593-103.953125c0-8.847656 7.199219-16.046875 16.046875-16.046875s16.046875 7.199219 16.046875 16.046875-7.199219 16.046875-16.046875 16.046875-16.046875-7.199219-16.046875-16.046875zm0 0"/><path d="m303.269531 160h112.730469c11.046875 0 20-8.953125 20-20s-8.953125-20-20-20h-112.730469c-11.046875 0-20 8.953125-20 20s8.953125 20 20 20zm0 0"/><path d="m303.269531 240h112.730469c11.046875 0 20-8.953125 20-20s-8.953125-20-20-20h-112.730469c-11.046875 0-20 8.953125-20 20s8.953125 20 20 20zm0 0"/></svg>