<svg xmlns="http://www.w3.org/2000/svg" xmlns:xlink="http://www.w3.org/1999/xlink" preserveAspectRatio="xMidYMid" width="16" height="16" viewBox="0 0 16 16">
  <path d="M11.200,9.600 C12.533,8.622 13.333,7.022 13.333,5.333 C13.333,2.400 10.933,-0.000 8.000,-0.000 C5.067,-0.000 2.667,2.400 2.667,5.333 C2.667,7.022 3.467,8.622 4.800,9.600 C2.222,10.755 0.356,13.155 -0.000,16.000 L1.778,16.000 C2.222,12.978 4.889,10.666 8.000,10.666 C11.111,10.666 13.778,12.978 14.222,16.000 L16.000,16.000 C15.644,13.155 13.778,10.755 11.200,9.600 L11.200,9.600 ZM8.000,8.889 C6.044,8.889 4.444,7.289 4.444,5.333 C4.444,3.377 6.044,1.778 8.000,1.778 C9.955,1.778 11.555,3.377 11.555,5.333 C11.555,7.289 9.955,8.889 8.000,8.889 L8.000,8.889 Z"/>
</svg>
