<svg height="511pt" viewBox="-80 0 511 511.99932" width="511pt" xmlns="http://www.w3.org/2000/svg"><path d="m176.496094 80c-44.179688 0-79.996094 35.816406-79.996094 80 0 44.179688 35.816406 79.996094 79.996094 79.996094 44.183594 0 80-35.816406 80-79.996094-.054688-44.160156-35.839844-79.949219-80-80zm0 127.996094c-26.507813 0-48-21.488282-48-47.996094 0-26.511719 21.492187-48 48-48 26.511718 0 48 21.488281 48 48 0 26.507812-21.488282 47.996094-48 47.996094zm0 0"/><path d="m176.496094 0c-97.152344.113281-175.882813 78.84375-175.996094 175.996094 0 148.480468 157.453125 323.390625 164.15625 330.765625 5.945312 6.539062 16.0625 7.019531 22.601562 1.078125.378907-.34375.738282-.703125 1.078126-1.078125 6.703124-7.375 164.160156-182.285157 164.160156-330.765625-.117188-97.152344-78.847656-175.882813-176-175.996094zm0 471.464844c-36.367188-43.484375-143.996094-181.867188-143.996094-295.46875 0-79.527344 64.46875-143.996094 143.996094-143.996094s144 64.46875 144 143.996094c0 113.601562-107.632813 251.984375-144 295.46875zm0 0"/></svg>