<svg xmlns="http://www.w3.org/2000/svg" width="200" height="130" id="Layer_1" data-name="Layer 1" viewBox="0 0 333.42 155.42">
<defs><style>.reebok-point{fill:#fff;}</style></defs>
<path d="M575.19,705.1H558V650.16h38.87c22,1.73,29.59,25.2,10.84,38.34,4.47,2,8.94,10.15,9.36,13.64v16.75h-17V701.15c0-3.26-3.89-8-7.62-8.13h-13V681.44h15.06c8.45,0,11.72-17.2,0-17.48H575.18V705.1Z" transform="translate(-558 -649.98)"></path>
<path d="M671.52,705.84h-29.2c-23.89-1.17-27.5-37.24-2.39-41.65h32.55v10.69l-8.58,14.86H647.74l7.91-13.69h-10.3c-10.16.78-9.15,16.08-1.27,16.23h27.45v13.56Z" transform="translate(-558 -649.98)"></path>
<path d="M725.08,705.84H695.87c-23.88-1.17-27.5-37.24-2.39-41.65H726v10.69l-8.58,14.86H701.3l7.91-13.69h-10.3c-10.16.78-9.15,16.08-1.28,16.23h27.45v13.56Z" transform="translate(-558 -649.98)"></path>
<path d="M731.5,705.84H761c31.89-1.73,24.73-42.08,4.51-42.29H752.25v12H761c9.41.42,8.73,16.41-.32,16.12H749.22V650H731.5v55.86Z" transform="translate(-558 -649.98)"></path>
<path d="M813.21,706.25c-14.18,0-25.69-9.57-25.69-21.38s11.51-21.39,25.69-21.39,25.7,9.58,25.7,21.39-11.51,21.38-25.7,21.38Z" transform="translate(-558 -649.98)"></path>
<path d="M841.3,705.84V651.9h18.52v23.78h2.55c5.22-.06,10-4.55,11.17-10.86h17.87v2.09c.13,7.47-6.95,11.63-12,14.83,8,.2,9.63,7.43,9.58,12.45v11.65H872.1V695.31a7.43,7.43,0,0,0-7.26-7.27h-5.68v17.8Z" transform="translate(-558 -649.98)"></path>
<path d="M572.18,732.57,680,712.05l119,76.51c-67.24-34.31-134.49-59.93-226.77-56Z" transform="translate(-558 -649.98)"></path>
<path d="M602,785.87l42.39,8.26c16.06-20.64,38.83-30.6,62.78-38.49l-27.47-9C652.5,751.57,626.75,766,602,785.87Z" transform="translate(-558 -649.98)"></path>
<path d="M659.75,797.13l42.46,8.27c9.11-19.09,26.73-31,41.5-37.79l-24.64-8.07c-17.94,2.36-45.62,20.45-59.32,37.59Z" transform="translate(-558 -649.98)"></path>
<path d="M724.28,734.43l36.54,23.47c40.54-14.49,78.69-30,122.43-38.67-53,1.52-106,5.85-159,15.2Z" transform="translate(-558 -649.98)"></path>
<path class="reebok-point" d="M813.21,693.17c-5.28,0-9.57-3.72-9.57-8.3s4.29-8.3,9.57-8.3,9.58,3.72,9.58,8.3-4.29,8.3-9.58,8.3Z" transform="translate(-558 -649.98)"></path>
</svg>